<?xml version="1.0" encoding="UTF-8" standalone="no"?>
<!-- Generator: Adobe Illustrator 21.0.0, SVG Export Plug-In . SVG Version: 6.00 Build 0)  -->

<svg
   xmlns:dc="http://purl.org/dc/elements/1.1/"
   xmlns:cc="http://creativecommons.org/ns#"
   xmlns:rdf="http://www.w3.org/1999/02/22-rdf-syntax-ns#"
   xmlns:svg="http://www.w3.org/2000/svg"
   xmlns="http://www.w3.org/2000/svg"
   xmlns:sodipodi="http://sodipodi.sourceforge.net/DTD/sodipodi-0.dtd"
   xmlns:inkscape="http://www.inkscape.org/namespaces/inkscape"
   version="1.1"
   id="svg8"
   inkscape:version="0.92.1 r15371"
   sodipodi:docname="drawing.svg"
   x="0px"
   y="0px"
   viewBox="0 0 486.4 292.5078"
   xml:space="preserve"
   width="486.39999"
   height="292.50781"><metadata
     id="metadata3698"><rdf:RDF><cc:Work
         rdf:about=""><dc:format>image/svg+xml</dc:format><dc:type
           rdf:resource="http://purl.org/dc/dcmitype/StillImage" /><dc:title></dc:title></cc:Work></rdf:RDF></metadata><style
     type="text/css"
     id="style3680">
	.st0{fill:#2E3192;}
	.st1{opacity:0.45;fill:#F78B1F;enable-background:new    ;}
	.st2{opacity:0.5;fill:#F78B1F;}
</style><defs
     id="defs3683"><inkscape:path-effect
       apply_no_weight="true"
       apply_with_weight="true"
       effect="bspline"
       helper_size="0"
       id="path-effect3713"
       is_visible="true"
       only_selected="false"
       steps="2"
       weight="33.333333" /></defs><sodipodi:namedview
     bordercolor="#666666"
     borderopacity="1.0"
     id="base"
     inkscape:current-layer="layer1"
     inkscape:cx="553.63007"
     inkscape:cy="144.85685"
     inkscape:document-units="mm"
     inkscape:pageopacity="0.0"
     inkscape:pageshadow="2"
     inkscape:window-height="1001"
     inkscape:window-maximized="1"
     inkscape:window-width="1920"
     inkscape:window-x="-9"
     inkscape:window-y="-9"
     inkscape:zoom="0.98994949"
     pagecolor="#ffffff"
     showgrid="false"
     fit-margin-top="10"
     fit-margin-left="10"
     fit-margin-right="10"
     fit-margin-bottom="10" /><g
     id="g3695"
     transform="translate(-33.7,-37.2)"><g
       id="layer1"
       inkscape:groupmode="layer"
       inkscape:label="Layer 1"><path
         class="st0"
         d="m 509.8,296.9 c 0,0 -31.2,1.6 -38.3,-23.4 -7.1,-24.9 13.3,-37.7 13.3,-37.7 0,0 7.4,-6.3 24.9,-5.9 -0.1,-7.5 -0.2,-15 -0.2,-22.5 -1.2,0 -4.4,0 -7.5,0.1 -8.1,0.7 -21.2,1.5 -34.2,8.5 -3.7,1.9 -11.8,6.4 -19.2,15.2 -6.8,8.2 -9.8,16.4 -10.4,18.9 -0.6,0.6 -0.6,1.3 -0.6,1.3 0,-0.6 -0.6,-2.5 -1.3,-4.4 -1.9,-5 -4.5,-9.3 -5.1,-11.2 -5.1,-8.1 -15.7,-12.3 -20.1,-13.6 -11.3,-4.3 -21.3,-3.5 -26.9,-2.2 0.1,7.5 -0.5,14.4 -0.4,21.9 0.6,0 1.9,0 3.1,0 4.4,0 8.1,-0.1 11.9,1.8 1.9,0.6 6.9,3.1 8.8,8 1.3,2.5 0.7,5 0.7,6.2 -1.2,0 -3.8,-0.6 -6.9,-0.6 -7.5,-0.5 -16.2,-1.1 -26.2,-0.4 -9.4,0.1 -12.5,1.4 -15,2 -5.6,1.9 -8.7,4.5 -9.3,5.1 -3.7,2.5 -5.6,5.7 -6.8,7.6 -1.2,1.9 -2.4,4.4 -3.1,5.7 0,-3.1 -0.1,-6.9 -0.1,-11.9 -0.7,-5.6 -0.7,-11.9 -2.7,-17.5 -4.5,-13.1 -14.6,-19.9 -15.8,-21.1 -8.8,-6.2 -17.6,-7.3 -24.4,-7.9 -10,-0.5 -17.5,0.8 -20,1.5 -4.4,0.7 -9.3,2 -15.5,6.4 -8.1,5.1 -11.1,12 -13,15.1 -2.4,5.7 -3.6,10.7 -4.2,14.4 -0.6,-1.9 -1.3,-3.7 -1.9,-6.2 -1.9,-6.2 -4.5,-11.8 -6.4,-14.3 -7,-11.2 -22,-16 -24.5,-16.6 -2.5,-0.6 -16.9,-5.5 -33.7,0.3 -4.3,1.9 -19.3,6.5 -27.9,20.9 -6.7,11.3 -7.2,23.2 -7.2,25.1 0,0.6 0,1.3 0,1.3 -1.3,-1.9 -3.2,-3.7 -6.3,-6.2 -1.9,-1.2 -6.9,-4.9 -18.2,-8.6 -3.8,-1.2 -10,-3.6 -18.8,-4.8 0,0 -6.3,-1.2 -15.7,-4.8 -1.3,-0.6 -3.8,-1.8 -5,-3.7 -2.5,-3.1 -1.3,-7.5 -1.3,-7.5 1.2,-5 5.5,-6.9 7.4,-7.6 1.2,-0.6 1.9,-1.3 3.1,-1.3 3.1,-0.7 5,-0.1 11.9,0.5 6.4,1.1 8.5,1.2 11.2,2.1 0.1,0 0.2,0 0.4,0.1 0.2,0 0.4,0.1 0.6,0.2 0,0 0.1,0 0.1,0 0.1,0 0.1,0 0.2,0 0.5,0.1 0.9,0.3 1.3,0.6 -0.1,-5.5 -0.2,-16.8 -0.2,-20.7 0,0 -30,-6.6 -52.4,4.9 -22.4,11.5 -10.8,40.1 -10.8,40.1 0,0 5.1,11.8 30.2,19.1 25,7.2 33.1,5.3 37.6,14.6 4.5,9.3 -11.7,14.5 -11.7,14.5 0,0 -29.3,0.9 -46.3,-14.5 l -17.3,17.7 c 0,0 27,17.9 53.2,18.2 26.8,0.3 45.5,-8 53.3,-31.8 0,0 8.4,28.1 54.6,28.8 l -0.2,-21.3 c -1.2,0 -16.2,0.8 -25.7,-11 0,0 -2.5,-1.2 -4.5,-8.1 l 71.8,0.5 -0.2,37.5 30.6,-0.3 0.1,-53.8 c 0,0 1.1,-16.9 17.3,-17.7 16.8,-0.8 18.3,16.7 18.3,16.7 l -0.1,55 30,-0.3 -0.2,-20.6 c 0,0 3.3,15.6 23.3,21 20,5.4 36.2,-3.5 43.6,-9.8 l 0.1,9.4 29.3,0.3 0.2,-37.5 c 0,0 5.8,20.6 29.7,33.5 23.2,12.9 41.9,8.9 41.9,8.9 z M 173.5,257.2 c 0.6,-1.3 2.4,-10 11.1,-15.8 1.2,-0.6 9.3,-5.7 18.7,-2.7 1.2,0 5.6,1.8 9.4,5.5 1.9,1.2 5.7,4.9 6.4,11.2 0,0.6 0,1.3 0,1.9 -15,0.2 -30.6,-0.2 -45.6,-0.1 z m 231.9,31.4 c -4.3,5 -10.5,6.4 -13.7,7 -2.5,0 -9.3,1.3 -16.3,-2.3 -1.9,-1.2 -4.4,-3.1 -5.7,-6.2 -0.2,-0.6 -0.9,-3.1 0.4,-5.8 1,-2.2 2.8,-3.2 3.4,-3.6 3.4,-1.8 8.9,-4.2 16.1,-5 5.1,-0.6 9.5,-0.1 12.7,0.4 0.8,-0.4 4.2,0 6.5,1.1 2.5,1 0.9,9.3 -3.4,14.4 z"
         id="path3686"
         inkscape:connector-curvature="0"
         style="fill:#2e3192" /></g><path
       class="st1"
       d="m 248.7,207.6 c 0,0 -5.3,-50.9 36.9,-113 0,0 97.5,-27.6 186.2,13.6 0,0 -132.4,-7.8 -223.1,99.4 z"
       id="path3689"
       inkscape:connector-curvature="0"
       style="opacity:0.45;fill:#f78b1f;enable-background:new" /><path
       class="st2"
       d="m 240,112.8 c 0,0 23.3,32.5 54.3,52.9 0,0 81.5,-62.7 177.5,-57.2 0,-0.1 -103.2,-55.4 -231.8,4.3 z"
       id="path3691"
       inkscape:connector-curvature="0"
       style="opacity:0.5;fill:#f78b1f" /><path
       class="st0"
       d="m 304.6,75.4 c 0,0 12.9,-17.3 32,-28.2 0,0 57.9,6.6 107.3,41.8 0.1,0 -69.6,-27.8 -139.3,-13.6 z"
       id="path3693"
       inkscape:connector-curvature="0"
       style="fill:#2e3192" /></g></svg>