<?xml version="1.0" encoding="iso-8859-1"?>
<!-- Generator: Adobe Illustrator 19.0.0, SVG Export Plug-In . SVG Version: 6.00 Build 0)  -->
<svg version="1.1" id="Layer_1" xmlns="http://www.w3.org/2000/svg" xmlns:xlink="http://www.w3.org/1999/xlink" x="0px" y="0px"
	 viewBox="0 0 512 512" style="enable-background:new 0 0 512 512;" xml:space="preserve">
<circle style="fill:#FFC6C2;" cx="256" cy="256" r="256"/>
<path style="fill:#FFD170;" d="M36.067,272.902h-1.661c1.328,17.562,4.708,34.558,9.897,50.753l24.651,52.219
	c5.925,9.21,12.502,17.964,19.681,26.181l121.81-94.009C155.779,285.379,96.658,273.198,36.067,272.902z"/>
<g>
	<path style="fill:#FF984C;" d="M68.955,375.874c15.08,1.463,29.882,3.87,44.358,7.135l50.036-38.616
		C125.782,331.912,85.81,324.7,44.304,323.655C50.258,342.239,58.593,359.766,68.955,375.874z"/>
	<path style="fill:#FF984C;" d="M210.444,308.046L256,272.888c-66.499-32.092-140.99-50.239-219.685-50.624
		c-1.683,11.004-2.557,22.269-2.557,33.736c0,5.687,0.226,11.321,0.648,16.902h1.661
		C96.658,273.198,155.779,285.379,210.444,308.046z"/>
</g>
<polygon style="fill:#FFFFFF;" points="388.22,158.559 354.462,175.438 354.462,237.328 421.978,237.328 421.978,175.438 "/>
<path style="fill:#FF5347;" d="M433.224,189.505c-1.268,0-2.556-0.287-3.767-0.892l-41.237-20.618l-41.237,20.618
	c-4.17,2.086-9.238,0.396-11.323-3.774c-2.085-4.169-0.395-9.239,3.774-11.323l45.011-22.505c2.375-1.188,5.173-1.188,7.548,0
	l45.011,22.505c4.169,2.084,5.859,7.153,3.774,11.323C439.301,187.796,436.32,189.505,433.224,189.505z"/>
<g>
	<path style="fill:#FF984C;" d="M388.22,195.131c-4.661,0-8.44,3.779-8.44,8.44v37.834h16.879V203.57
		C396.659,198.909,392.881,195.131,388.22,195.131z"/>
	<path style="fill:#FF984C;" d="M475.933,272.902c-134.336,0.657-261.462,59.713-348.782,162.026v2.02
		c13.635,9.731,28.404,17.972,44.078,24.463l55.76,14.929c9.498,1.245,19.179,1.903,29.012,1.903
		c78.431,0,147.501-40.84,187.067-102.37l24.633-52.217c5.197-16.186,8.571-33.188,9.9-50.753h-1.668V272.902z"/>
</g>
<g>
	<path style="fill:#FF6E36;" d="M226.988,476.339c57.002-55.54,132.336-92.347,216.079-100.467
		c10.356-16.104,18.687-33.627,24.639-52.204c-117.88,2.956-223.417,55.589-296.477,137.742
		C188.803,468.688,207.5,473.786,226.988,476.339z"/>
	<path style="fill:#FF6E36;" d="M127.152,434.928c87.32-102.312,214.446-161.369,348.782-162.026h1.667
		c0.422-5.58,0.641-11.216,0.641-16.902c0-11.467-0.873-22.732-2.557-33.736c-154.968,0.758-293.655,70.358-387.051,179.791
		c11.423,13.073,24.358,24.786,38.516,34.893v-2.02H127.152z"/>
</g>
<circle style="fill:#FF8C84;" cx="256" cy="78.769" r="45.011"/>
<g>
</g>
<g>
</g>
<g>
</g>
<g>
</g>
<g>
</g>
<g>
</g>
<g>
</g>
<g>
</g>
<g>
</g>
<g>
</g>
<g>
</g>
<g>
</g>
<g>
</g>
<g>
</g>
<g>
</g>
</svg>
