<?xml version="1.0" encoding="UTF-8" standalone="no"?>
<svg
   xmlns:dc="http://purl.org/dc/elements/1.1/"
   xmlns:cc="http://creativecommons.org/ns#"
   xmlns:rdf="http://www.w3.org/1999/02/22-rdf-syntax-ns#"
   xmlns:svg="http://www.w3.org/2000/svg"
   xmlns="http://www.w3.org/2000/svg"
   xmlns:sodipodi="http://sodipodi.sourceforge.net/DTD/sodipodi-0.dtd"
   xmlns:inkscape="http://www.inkscape.org/namespaces/inkscape"
   viewBox="0 -256 1792 1792"
   id="svg3013"
   version="1.1"
   inkscape:version="0.92.4 (5da689c313, 2019-01-14)"
   width="100%"
   height="100%"
   sodipodi:docname="info.svg">
  <metadata
     id="metadata3023">
    <rdf:RDF>
      <cc:Work
         rdf:about="">
        <dc:format>image/svg+xml</dc:format>
        <dc:type
           rdf:resource="http://purl.org/dc/dcmitype/StillImage" />
        <dc:title></dc:title>
      </cc:Work>
    </rdf:RDF>
  </metadata>
  <defs
     id="defs3021" />
  <sodipodi:namedview
     pagecolor="#ffffff"
     bordercolor="#666666"
     borderopacity="1"
     objecttolerance="10"
     gridtolerance="10"
     guidetolerance="10"
     inkscape:pageopacity="0"
     inkscape:pageshadow="2"
     inkscape:window-width="1920"
     inkscape:window-height="1001"
     id="namedview3019"
     showgrid="false"
     inkscape:zoom="0.74498751"
     inkscape:cx="896"
     inkscape:cy="896"
     inkscape:window-x="-9"
     inkscape:window-y="-9"
     inkscape:window-maximized="1"
     inkscape:current-layer="svg3013"
     showguides="true"
     inkscape:guide-bbox="true">
    <sodipodi:guide
       position="753.62711,994.71185"
       orientation="1,0"
       id="guide3727"
       inkscape:locked="false" />
    <sodipodi:guide
       position="1009.8983,1093.4237"
       orientation="1,0"
       id="guide3729"
       inkscape:locked="false" />
    <sodipodi:guide
       position="897.8983,1268.0678"
       orientation="0,1"
       id="guide3731"
       inkscape:locked="false" />
    <sodipodi:guide
       position="958.64406,1241.4915"
       orientation="0,1"
       id="guide3733"
       inkscape:locked="false" />
    <sodipodi:guide
       position="778.30508,1061.1525"
       orientation="1,0"
       id="guide3735"
       inkscape:locked="false" />
    <sodipodi:guide
       position="985.22033,1015.5932"
       orientation="1,0"
       id="guide3737"
       inkscape:locked="false" />
    <sodipodi:guide
       position="886.50847,1397.1525"
       orientation="0,1"
       id="guide3739"
       inkscape:locked="false" />
    <sodipodi:guide
       position="916.88135,370.16949"
       orientation="0,1"
       id="guide3741"
       inkscape:locked="false" />
    <sodipodi:guide
       position="1059.2542,499.25423"
       orientation="0,1"
       id="guide3743"
       inkscape:locked="false" />
    <sodipodi:guide
       position="1131.3898,692.88135"
       orientation="0,1"
       id="guide3745"
       inkscape:locked="false" />
    <sodipodi:guide
       position="1083.9322,721.35593"
       orientation="0,1"
       id="guide3747"
       inkscape:locked="false" />
    <sodipodi:guide
       position="1131.3898,749.8305"
       orientation="0,1"
       id="guide3749"
       inkscape:locked="false" />
  </sodipodi:namedview>
  <path
     id="path3017"
     transform="translate(0,-256)"
     style="display:inline;fill:currentColor"
     d="m 881.89844,141.01758 c -139.33334,0 -267.83334,34.33333 -385.5,103 -117.66667,68.66666 -210.83334,161.83333 -279.5,279.5 -68.66667,117.66666 -103,246.16666 -103,385.5 0,139.33332 34.33333,267.83332 103,385.50002 68.66666,117.6666 161.83333,210.8333 279.5,279.5 117.66666,68.6666 246.16666,103 385.5,103 139.33336,0 267.83336,-34.3334 385.49996,-103 117.6667,-68.6667 210.8334,-161.8334 279.5,-279.5 68.6667,-117.6667 103,-246.1667 103,-385.50002 0,-139.33334 -34.3333,-267.83334 -103,-385.5 -68.6666,-117.66667 -161.8333,-210.83334 -279.5,-279.5 -117.6666,-68.66667 -246.1666,-103 -385.49996,-103 z m 0,256 c 69.33333,0 135.49996,13.5 198.49996,40.5 63,27 117.5,63.5 163.5,109.5 46,46 82.5,100.5 109.5,163.5 27,63 40.5,129.16666 40.5,198.5 0,69.33333 -13.5,135.50002 -40.5,198.50002 -27,63 -63.5,117.5 -109.5,163.5 -46,46 -100.5,82.5 -163.5,109.5 -63,27 -129.16663,40.5 -198.49996,40.5 -69.33334,0 -135.5,-13.5 -198.5,-40.5 -63,-27 -117.5,-63.5 -163.5,-109.5 -46,-46 -82.5,-100.5 -109.5,-163.5 -27,-63 -40.5,-129.16669 -40.5,-198.50002 0,-69.33334 13.5,-135.5 40.5,-198.5 27,-63 63.5,-117.5 109.5,-163.5 46,-46 100.5,-82.5 163.5,-109.5 63,-27 129.16666,-40.5 198.5,-40.5 z m 3.05664,342.17383 c -0.008,0.0381 -0.0209,0.0851 -0.0293,0.12304 0.11727,0.0578 0.23253,0.11953 0.34961,0.17774 -0.10772,-0.0993 -0.21193,-0.20225 -0.32031,-0.30078 z m -31.69141,38.11718 c -0.37844,0.35158 -0.31512,0.40517 0.0508,0.26368 -0.0145,-0.0827 -0.0354,-0.17903 -0.0508,-0.26368 z m 0.33594,2.25977 c -0.0553,0.0333 -0.11071,0.0663 -0.16602,0.0996 0.0567,-0.0254 0.11128,-0.0508 0.16797,-0.0762 -8.4e-4,-0.008 -7.5e-4,-0.0151 -0.002,-0.0234 z m 326.78519,181.68359 v 0.0274 c 0.1271,0.0649 0.2536,0.1307 0.3808,0.19531 0,-0.01 3e-4,-0.0196 -0.01,-0.0293 -0.1317,-0.0691 -0.2398,-0.12458 -0.3711,-0.19336 z m 21.7187,10.98828 c -0.1416,0.11411 -0.2828,0.22889 -0.4238,0.34375 0.045,0.074 0.088,0.14867 0.1328,0.22266 0.017,-0.0161 0.026,-0.0251 0.043,-0.041 0.08,-0.1721 0.1675,-0.35124 0.248,-0.52539 z m -348.41405,31.44137 c -0.36661,-0.027 3.92059,5.8545 5.34375,8.0996 -1.53429,-2.6543 -3.40413,-5.1551 -4.97461,-7.7929 -0.19333,-0.1925 -0.32485,-0.3034 -0.36914,-0.3067 z m 227.60935,79.4297 c -0.4895,0.09 -0.975,0.1853 -1.4726,0.2676 -0.7599,0.5121 -1.5179,1.0264 -2.2774,1.5391 3.2982,-0.2469 2.9694,-0.451 3.75,-1.8067 z m -267.43747,43.3965 c 0.001,0 0.003,0.01 0.004,0.012 0.0266,0.023 0.0478,0.04 0.0742,0.062 -0.026,-0.025 -0.0521,-0.049 -0.0781,-0.074 z m 121.76172,3.4297 c -0.58532,0.302 -1.1258,0.6021 -1.56055,0.8945 -0.68831,0.463 -1.3487,0.9263 -1.99805,1.3887 0.35445,-0.1077 0.7069,-0.2212 1.0625,-0.3262 0.83528,-0.649 1.66906,-1.3002 2.4961,-1.957 z m -7.4336,2.0352 c -0.0431,0.054 -0.075,0.1027 -0.11718,0.1562 0.008,0 0.0157,-10e-4 0.0234,0.01 0.0308,-0.054 0.0634,-0.1078 0.0937,-0.1621 z m -107.5332,2.4199 c -0.10471,0.014 -0.2025,0.027 -0.30664,0.041 1.42335,3.252 2.4511,5.9058 3.11719,7.6523 0.1946,0.3473 0.39249,0.7516 0.59375,1.1797 -0.23494,-0.8987 -0.75929,-2.7555 -1.86719,-6.7578 -0.51238,-0.7051 -1.02473,-1.4102 -1.53711,-2.1152 z m -0.89453,0.125 c -0.19231,0.027 -0.38229,0.054 -0.57227,0.08 0.5013,1.1991 1.04688,2.4852 1.65039,3.8925 0.22366,0.2847 0.44358,0.5723 0.66407,0.8594 -0.5842,-1.6097 -1.16914,-3.2189 -1.74219,-4.832 z m 5.5293,9.3554 c -0.0104,0.2657 -0.0181,0.5329 -0.0273,0.7989 0.21359,0.197 0.41929,0.4012 0.61914,0.6113 -0.19899,-0.4694 -0.39543,-0.9397 -0.59179,-1.4102 z m 0.80468,3.3731 c -0.22362,0.01 -0.31817,0.1854 -0.30273,0.5098 0.11347,0.096 0.25584,0.1956 0.35742,0.291 0.35436,0.3328 0.64129,0.6114 0.98242,0.9336 -0.16807,-0.5039 -0.34931,-1.0355 -0.52929,-1.5664 -0.20684,-0.1076 -0.38339,-0.1718 -0.50782,-0.168 z m 0.92774,3.8379 c 0.47561,0.9838 1.09129,2.1328 1.77539,3.3574 -0.17254,-0.7419 -0.46833,-1.765 -0.86328,-3.0117 -0.306,-0.112 -0.60523,-0.2353 -0.91211,-0.3457 z m 45.80468,0.3457 c -0.16066,0.042 -0.36383,0.098 -0.52929,0.1406 0.053,0.1223 0.1085,0.2433 0.16211,0.3652 0.0992,-0.1561 0.20712,-0.3169 0.36718,-0.5058 z m -17.05859,4.916 c -0.27332,0.086 -0.49406,0.15 -0.77344,0.2383 0.29535,-0.053 0.45481,-0.078 0.74024,-0.1289 0.011,-0.037 0.0222,-0.072 0.0332,-0.1094 z" />
  <g
     inkscape:groupmode="layer"
     id="layer1"
     inkscape:label="Layer 1">
    <ellipse
       id="path3751"
       cx="881.7627"
       cy="959.86444"
       rx="128.13559"
       ry="116.74577"
       style="display:inline;fill:#000000;stroke-width:1.09812677" />
    <path
       style="display:inline;fill:#000000;stroke:#000000;stroke-width:1px;stroke-linecap:butt;stroke-linejoin:miter;stroke-opacity:1"
       d="m 753.62711,294.5085 v 491.661 c 0,0 2.84746,28.4746 24.67797,28.4746 21.83051,0 206.91525,0 206.91525,0 0,0 24.67797,0.9491 24.67797,-28.4746 0,-29.4237 0,-491.661 0,-491.661 0,0 -11.38983,-26.5763 -24.67797,-26.5763 -13.28814,0 -206.91525,0 -206.91525,0 0,0 -24.67797,10.44072 -24.67797,26.5763 z"
       id="path3753"
       inkscape:connector-curvature="0" />
  </g>
</svg>
