<?xml version="1.0" encoding="UTF-8" standalone="no"?>
<!-- Generator: Adobe Illustrator 21.0.0, SVG Export Plug-In . SVG Version: 6.00 Build 0)  -->

<svg
   xmlns:dc="http://purl.org/dc/elements/1.1/"
   xmlns:cc="http://creativecommons.org/ns#"
   xmlns:rdf="http://www.w3.org/1999/02/22-rdf-syntax-ns#"
   xmlns:svg="http://www.w3.org/2000/svg"
   xmlns="http://www.w3.org/2000/svg"
   xmlns:sodipodi="http://sodipodi.sourceforge.net/DTD/sodipodi-0.dtd"
   xmlns:inkscape="http://www.inkscape.org/namespaces/inkscape"
   version="1.1"
   id="svg8"
   inkscape:version="0.92.1 r15371"
   sodipodi:docname="senacsymbol2.svg"
   x="0px"
   y="0px"
   viewBox="0 0 251.80001 250.99999"
   xml:space="preserve"
   width="251.8"
   height="251"><metadata
     id="metadata3698"><rdf:RDF><cc:Work
         rdf:about=""><dc:format>image/svg+xml</dc:format><dc:type
           rdf:resource="http://purl.org/dc/dcmitype/StillImage" /><dc:title></dc:title></cc:Work></rdf:RDF></metadata><style
     type="text/css"
     id="style3680">
	.st0{fill:#2E3192;}
	.st1{opacity:0.45;fill:#F78B1F;enable-background:new    ;}
	.st2{opacity:0.5;fill:#F78B1F;}
</style><defs
     id="defs3683"><inkscape:path-effect
       apply_no_weight="true"
       apply_with_weight="true"
       effect="bspline"
       helper_size="0"
       id="path-effect3713"
       is_visible="true"
       only_selected="false"
       steps="2"
       weight="33.333333" /></defs><sodipodi:namedview
     bordercolor="#666666"
     borderopacity="1.0"
     id="base"
     inkscape:current-layer="layer1"
     inkscape:cx="-31.909073"
     inkscape:cy="-65.235779"
     inkscape:document-units="mm"
     inkscape:pageopacity="0.0"
     inkscape:pageshadow="2"
     inkscape:window-height="1001"
     inkscape:window-maximized="1"
     inkscape:window-width="1920"
     inkscape:window-x="-9"
     inkscape:window-y="-9"
     inkscape:zoom="0.98994949"
     pagecolor="#ffffff"
     showgrid="false"
     fit-margin-top="10"
     fit-margin-left="10"
     fit-margin-right="10"
     fit-margin-bottom="10" /><g
     id="g3695"
     transform="translate(-230,19.277005)"><g
       id="layer1"
       inkscape:groupmode="layer"
       inkscape:label="Layer 1"><path
         class="st0"
         d="m 463.45747,204.61398 c 0,0 -14.03607,0.78818 -17.23018,-11.5271 -3.1941,-12.26601 5.98333,-18.57142 5.98333,-18.57142 0,0 3.32906,-3.10345 11.20186,-2.9064 -0.045,-3.69459 -0.09,-7.38917 -0.09,-11.08375 -0.53985,0 -1.97945,0 -3.37407,0.0493 -3.64397,0.34482 -9.53733,0.7389 -15.38569,4.18717 -1.66453,0.93597 -5.30851,3.15272 -8.63758,7.48768 -3.05915,4.03942 -4.40877,8.07883 -4.67869,9.31036 -0.26993,0.29557 -0.26993,0.64039 -0.26993,0.64039 0,-0.29556 -0.26992,-1.23151 -0.58483,-2.16749 -0.85476,-2.46305 -2.02443,-4.58128 -2.29436,-5.51723 -2.29436,-3.99016 -7.06303,-6.05912 -9.04248,-6.69952 -5.08357,-2.11822 -9.58232,-1.72414 -12.1016,-1.08374 0.045,3.69459 -0.22495,7.0936 -0.17996,10.78817 0.26993,0 0.85476,0 1.39461,0 1.97945,0 3.64399,-0.0493 5.35351,0.88672 0.85475,0.29555 3.10413,1.52709 3.95888,3.94089 0.58484,1.23151 0.31492,2.46304 0.31492,3.05418 -0.53985,0 -1.70953,-0.29558 -3.10413,-0.29558 -3.37406,-0.2463 -7.28797,-0.54186 -11.78669,-0.19704 -4.22884,0.0493 -5.62345,0.68966 -6.74812,0.98523 -2.5193,0.93595 -3.91392,2.21675 -4.18383,2.5123 -1.66455,1.23154 -2.5193,2.80789 -3.05915,3.74385 -0.53985,0.93596 -1.0797,2.16749 -1.3946,2.80789 0,-1.5271 -0.045,-3.39902 -0.045,-5.86208 -0.31492,-2.75862 -0.31492,-5.86206 -1.21466,-8.62068 -2.02444,-6.45321 -6.56816,-9.80296 -7.10802,-10.39409 -3.95889,-3.05419 -7.91778,-3.59607 -10.97692,-3.89162 -4.49875,-0.24632 -7.87281,0.39408 -8.99748,0.73891 -1.97945,0.34482 -4.18384,0.98522 -6.97305,3.15271 -3.64398,2.51231 -4.99361,5.91132 -5.84838,7.43841 -1.07968,2.80789 -1.61954,5.27094 -1.88946,7.09361 -0.26993,-0.93595 -0.58484,-1.82267 -0.85475,-3.05419 -0.85477,-3.05419 -2.02445,-5.81281 -2.87921,-7.04433 -3.14912,-5.51725 -9.89723,-7.88179 -11.02192,-8.17734 -1.12467,-0.29558 -7.60287,-2.70936 -15.16074,0.14777 -1.93447,0.93596 -8.68258,3.20198 -12.5515,10.29557 -3.01415,5.56652 -3.23909,11.42857 -3.23909,12.36455 0,0.29555 0,0.64038 0,0.64038 -0.58484,-0.93596 -1.43959,-1.82265 -2.83421,-3.05418 -0.85476,-0.59114 -3.10413,-2.41381 -8.18771,-4.23645 -1.70952,-0.59114 -4.49874,-1.77341 -8.45763,-2.36454 0,0 -2.83422,-0.59114 -7.06303,-2.36453 -0.58483,-0.29557 -1.70952,-0.8867 -2.24936,-1.82267 -1.1247,-1.52709 -0.58485,-3.69459 -0.58485,-3.69459 0.53986,-2.46304 2.47432,-3.39901 3.32907,-3.74383 0.53986,-0.29556 0.85476,-0.64039 1.39461,-0.64039 1.39462,-0.34484 2.24937,-0.0493 5.35351,0.2463 2.87919,0.54187 3.82393,0.59113 5.03858,1.03448 0.045,0 0.09,0 0.17995,0.0493 0.09,0 0.17996,0.0493 0.26993,0.0985 0,0 0.045,0 0.045,0 0.045,0 0.045,0 0.09,0 0.22494,0.0493 0.40488,0.14778 0.58484,0.29556 -0.045,-2.70936 -0.09,-8.27586 -0.09,-10.19704 0,0 -13.49623,-3.25123 -23.57342,2.41379 -10.07717,5.66503 -4.85862,19.7537 -4.85862,19.7537 0,0 2.29435,5.81282 13.58619,9.40887 11.24686,3.5468 14.89084,2.61084 16.91526,7.19211 2.02445,4.58129 -5.26353,7.14286 -5.26353,7.14286 0,0 -13.18129,0.44336 -20.82916,-7.14286 l -7.78282,8.71921 c 0,0 12.1466,8.81774 23.9333,8.96552 12.05663,0.14779 20.46927,-3.94088 23.9783,-15.66502 0,0 3.77894,13.84237 24.56313,14.18719 l -0.09,-10.4926 c -0.53985,0 -7.28795,0.39409 -11.56176,-5.41872 0,0 -1.12469,-0.59114 -2.02443,-3.99016 l 32.30096,0.24631 -0.09,18.4729 13.76615,-0.14776 0.045,-26.50248 c 0,0 0.49488,-8.32512 7.78283,-8.71922 7.55787,-0.39408 8.23269,8.22662 8.23269,8.22662 l -0.045,27.09358 13.49624,-0.14778 -0.09,-10.14778 c 0,0 1.48459,7.68474 10.48208,10.34482 8.99747,2.6601 16.28545,-1.72413 19.61451,-4.82757 l 0.045,4.63053 13.18132,0.14778 0.0899,-18.4729 c 0,0 2.60926,10.14778 13.36125,16.50247 10.43709,6.35468 18.84973,4.38423 18.84973,4.38423 z M 312.16479,185.05734 c 0.26993,-0.64041 1.0797,-4.92612 4.9936,-7.78326 0.53986,-0.29556 4.18383,-2.80788 8.41265,-1.33005 0.53985,0 2.5193,0.8867 4.22882,2.70936 0.85475,0.59113 2.56427,2.4138 2.87919,5.51724 0,0.29558 0,0.6404 0,0.93595 -6.7481,0.0985 -13.76615,-0.0985 -20.51426,-0.0493 z m 104.32581,15.46797 c -1.93446,2.46306 -4.72366,3.15272 -6.16327,3.44827 -1.12468,0 -4.18383,0.6404 -7.33295,-1.13299 -0.85475,-0.59114 -1.97945,-1.5271 -2.56428,-3.05419 -0.09,-0.29557 -0.40488,-1.52709 0.17995,-2.85715 0.44987,-1.08374 1.25965,-1.57634 1.52958,-1.7734 1.52956,-0.8867 4.00387,-2.06897 7.24297,-2.46305 2.29436,-0.29557 4.2738,-0.0493 5.7134,0.19704 0.3599,-0.19704 1.88948,0 2.92418,0.54187 1.12468,0.49261 0.40489,4.58128 -1.52958,7.0936 z"
         id="path3686"
         inkscape:connector-curvature="0"
         style="fill:#2e3192;stroke-width:0.47075781" /></g><path
       class="st1"
       d="m 247.68985,160.12283 c 0,0 -5.3,-50.9 36.9,-112.999999 0,0 97.5,-27.6 186.2,13.6 0,0 -132.4,-7.8 -223.1,99.399999 z"
       id="path3689"
       inkscape:connector-curvature="0"
       style="opacity:0.45;fill:#f78b1f;enable-background:new" /><path
       class="st2"
       d="m 238.98985,65.322831 c 0,0 23.3,32.5 54.3,52.899999 0,0 81.5,-62.699999 177.5,-57.199999 0,-0.1 -103.2,-55.4000005 -231.8,4.3 z"
       id="path3691"
       inkscape:connector-curvature="0"
       style="opacity:0.5;fill:#f78b1f" /><path
       class="st0"
       d="m 303.58985,27.922831 c 0,0 12.9,-17.3 32,-28.20000048 0,0 57.9,6.59999998 107.3,41.80000048 0.1,0 -69.6,-27.8 -139.3,-13.6 z"
       id="path3693"
       inkscape:connector-curvature="0"
       style="fill:#2e3192" /></g></svg>