<svg xmlns="http://www.w3.org/2000/svg" xmlns:xlink="http://www.w3.org/1999/xlink" viewBox="0 0 842.96 843.39"><defs><linearGradient id="a" x1="215.12" y1="64.06" x2="636.67" y2="794.21" gradientUnits="userSpaceOnUse"><stop offset="0" stop-color="#e83f23"/><stop offset="0.36" stop-color="#e6970c"/><stop offset="0.57" stop-color="#e5c500"/><stop offset="0.65" stop-color="#e5c100"/><stop offset="0.72" stop-color="#e5b501"/><stop offset="0.8" stop-color="#e5a203"/><stop offset="0.81" stop-color="#e59e03"/><stop offset="0.86" stop-color="#e09803"/><stop offset="0.93" stop-color="#d38802"/><stop offset="0.99" stop-color="#bf6f00"/></linearGradient><linearGradient id="b" x1="193.95" y1="355.63" x2="743.16" y2="618.56" gradientUnits="userSpaceOnUse"><stop offset="0" stop-color="#4d9400"/><stop offset="0.2" stop-color="#498f01"/><stop offset="0.43" stop-color="#3c8203"/><stop offset="0.66" stop-color="#286b07"/><stop offset="0.91" stop-color="#0c4c0c"/><stop offset="0.99" stop-color="#003f0e"/></linearGradient><linearGradient id="c" x1="290.2" y1="408.16" x2="733.81" y2="626.28" xlink:href="#b"/><linearGradient id="d" x1="372.65" y1="444.64" x2="728.7" y2="614.51" xlink:href="#b"/><linearGradient id="e" x1="506.03" y1="467.17" x2="773.79" y2="603.03" xlink:href="#b"/><linearGradient id="f" x1="599.59" y1="471" x2="715.26" y2="529.22" xlink:href="#b"/><linearGradient id="g" x1="-87.5" y1="325.05" x2="411" y2="325.05" xlink:href="#b"/><linearGradient id="h" x1="-82" y1="379.95" x2="310.86" y2="379.95" xlink:href="#b"/><linearGradient id="i" x1="-73.5" y1="437.18" x2="243.67" y2="437.18" xlink:href="#b"/><linearGradient id="j" x1="-60.5" y1="495.63" x2="172.33" y2="495.63" xlink:href="#b"/><linearGradient id="k" x1="-50.12" y1="535.36" x2="124.05" y2="535.36" gradientTransform="matrix(1, 0.02, -0.02, 0.98, 12.41, 10.75)" xlink:href="#b"/><linearGradient id="l" x1="280.41" y1="489.05" x2="388.15" y2="489.05" gradientUnits="userSpaceOnUse"><stop offset="0" stop-color="#ff7300"/><stop offset="0.24" stop-color="#f97c01"/><stop offset="0.64" stop-color="#ea9602"/><stop offset="0.75" stop-color="#e59e03"/><stop offset="0.87" stop-color="#e5c500"/><stop offset="0.99" stop-color="#bf6f00"/></linearGradient><linearGradient id="m" x1="436.53" y1="710.35" x2="478.91" y2="710.35" gradientUnits="userSpaceOnUse"><stop offset="0" stop-color="#ff7300"/><stop offset="0.18" stop-color="#f97c01"/><stop offset="0.47" stop-color="#ea9602"/><stop offset="0.55" stop-color="#e59e03"/><stop offset="0.87" stop-color="#e5c500"/><stop offset="0.99" stop-color="#bf6f00"/></linearGradient><linearGradient id="n" x1="354.31" y1="732.67" x2="446.74" y2="732.67" gradientUnits="userSpaceOnUse"><stop offset="0" stop-color="#ff7300"/><stop offset="0.05" stop-color="#f97c01"/><stop offset="0.14" stop-color="#ea9602"/><stop offset="0.17" stop-color="#e59e03"/><stop offset="0.27" stop-color="#e5c500"/><stop offset="0.99" stop-color="#bf6f00"/></linearGradient><linearGradient id="o" x1="338.99" y1="721.51" x2="379.85" y2="721.51" xlink:href="#m"/><linearGradient id="p" x1="330.82" y1="687.75" x2="371.17" y2="687.75" xlink:href="#m"/><linearGradient id="q" x1="346.14" y1="692.92" x2="429.89" y2="692.92" gradientUnits="userSpaceOnUse"><stop offset="0" stop-color="#ff7300"/><stop offset="0.08" stop-color="#f97c01"/><stop offset="0.22" stop-color="#ea9602"/><stop offset="0.26" stop-color="#e59e03"/><stop offset="0.65" stop-color="#bf6f00"/><stop offset="0.87" stop-color="#e5c500"/></linearGradient><linearGradient id="r" x1="340.02" y1="626.76" x2="404.36" y2="626.76" xlink:href="#m"/><linearGradient id="s" x1="288.06" y1="447.94" x2="349.85" y2="447.94" xlink:href="#m"/><linearGradient id="t" x1="75.33" y1="561" x2="75.33" y2="561" xlink:href="#b"/></defs><title>technofarm-symbol</title><circle cx="421.48" cy="421.48" r="421.48" style="fill:url(#a)"/><ellipse cx="420.14" cy="423.55" rx="253.13" ry="244.02" style="fill:#fff"/><rect y="407.98" width="842.96" height="22.5" style="fill:#fff"/><rect x="-96.85" y="240.3" width="845.2" height="22.5" transform="translate(210.04 66.53) rotate(21.22)" style="fill:#fff"/><rect x="-94.93" y="241.2" width="842.67" height="22.5" transform="translate(371 10.53) rotate(45)" style="fill:#fff"/><rect x="-95.49" y="242.15" width="843.21" height="22.5" transform="translate(528.92 21.61) rotate(67.01)" style="fill:#fff"/><rect x="-96.59" y="242.84" width="842.96" height="22.5" transform="translate(675.87 96.59) rotate(90)" style="fill:#fff"/><rect x="-98.81" y="242.69" width="844.57" height="22.5" transform="translate(778.66 219.49) rotate(112.47)" style="fill:#fff"/><rect x="-98.06" y="242.87" width="843.76" height="22.5" transform="translate(830.03 377.98) rotate(135.81)" style="fill:#fff"/><rect x="-99.22" y="237.09" width="842.99" height="22.5" transform="translate(811.28 524.26) rotate(157.85)" style="fill:#fff"/><path d="M-89.57,337.08c43-24,108-52.61,190.88-62.84C160.11,267,224.82,259,295.19,286.5c33.45,13.08,62.95,32.13,117.23,38.32,23.86,2.72,41.66,1.71,72.14,0,65.33-3.68,88.06-13.13,133.77-16.86,28.62-2.34,70.66-2.8,123.24,7.66a386.2,386.2,0,0,1-33.89,114.21c-34.39,72-84.94,118.5-113.35,144.17-5.24,4.74-10.18,9.2-17.33,15,0,0-60.37,48.94-143.54,71.48-66.26,17.95-237.36,36-377.24-79.7C-50,492.92-80.82,377-89.57,337.08Z" transform="translate(96.89 167.39)" style="fill:#fff"/><path d="M132.67,630A527.66,527.66,0,0,1,212.1,501.58c12.22-14.58,72-84.23,172.49-135,150.51-76,297.45-61.69,357-52.49l-3,22.5a466.46,466.46,0,0,0-135,4.5c-106.12,19.26-176.64,70.71-214.49,99-100.15,74.82-154,165.4-180.76,220.59Z" transform="translate(96.89 167.39)" style="fill:url(#b)"/><path d="M241.33,667A551.78,551.78,0,0,1,351.67,493c34.62-36.79,98-102.54,204-134.67,75.61-22.92,141.44-19.18,180-14L733,361.67A308,308,0,0,0,677.67,359c-91.8,3.86-157.55,48.18-190,70.67-64.16,44.44-99.88,95-126,132.66A617,617,0,0,0,300,674.67Z" transform="translate(96.89 167.39)" style="fill:url(#c)"/><path d="M336.5,676A338.91,338.91,0,0,0,442,659a554.44,554.44,0,0,1,62-129.5c22.86-35.16,43-66.17,80-93.5,49.78-36.8,104-47.71,142.5-50.5L731,367a283.48,283.48,0,0,0-89,3c-57.76,11.28-96.17,37.88-118,53C412.52,500.21,348.49,647.59,336.5,676Z" transform="translate(96.89 167.39)" style="fill:url(#d)"/><path d="M481,644a242.21,242.21,0,0,0,81.5-41.5,302.46,302.46,0,0,1,13-52c6.52-18.79,18.15-51.33,46-84.5,14.35-17.09,33.48-39.34,66.5-52.5a141.63,141.63,0,0,1,31.5-8.5l6-16a200.25,200.25,0,0,0-58,10.5c-49.81,17-79,49.52-100.5,74C513.83,534.16,491.2,601.23,481,644Z" transform="translate(96.89 167.39)" style="fill:url(#e)"/><path d="M586.5,583.5A417.85,417.85,0,0,0,716,410.5a128.6,128.6,0,0,0-45,18c-5.4,3.49-25.4,17-48,55.5C611.24,504,594.93,537.36,586.5,583.5Z" transform="translate(96.89 167.39)" style="fill:url(#f)"/><path d="M-82.14,365.67A414.6,414.6,0,0,1,3,333c14.32-3.75,86-21.69,179.57-7.33a476.26,476.26,0,0,1,150.89,50.15L411,337a383.55,383.55,0,0,0-97.15-46c-93.6-29-174.48-13.92-234.51-2A644.71,644.71,0,0,0-87.5,347Z" transform="translate(96.89 167.39)" style="fill:url(#g)"/><path d="M-74.61,391a382,382,0,0,1,61.13-17.33c27.42-5.36,123.66-22.8,223.71,24A326.2,326.2,0,0,1,260.62,427l50.24-34.73c-12.54-6.14-30.38-14.47-52.26-23.27-18.67-7.51-51.14-20.63-82.63-28-70-16.4-130.48-4.14-170.64,4A512.16,512.16,0,0,0-82,371Q-78.31,381-74.61,391Z" transform="translate(96.89 167.39)" style="fill:url(#h)"/><path d="M-62.75,420.33A325.57,325.57,0,0,1,48.13,425c69.17,15.07,116.67,49.37,140.44,69.33l55.1-52c-30.84-20.3-98-58.26-190.17-62a368.27,368.27,0,0,0-127,17.34Z" transform="translate(96.89 167.39)" style="fill:url(#i)"/><path d="M-51.73,446.33l3.19.28h.07c30.28,2.86,58.83,13.71,58.83,13.71C43.48,472.92,66.77,491.85,77.85,501a274.07,274.07,0,0,1,57.36,65.33L172.33,515a351.84,351.84,0,0,0-77.61-54.67c-24.83-12.84-66.8-34-123.5-35.33a241.35,241.35,0,0,0-31.72,1.33Q-56.12,436.34-51.73,446.33Z" transform="translate(96.89 167.39)" style="fill:url(#j)"/><path d="M-48.24,454.7a468.48,468.48,0,0,0,51.1,72.54,486.67,486.67,0,0,0,104.83,91.49L122.75,591A405.29,405.29,0,0,0,82.24,535c-24.92-28.86-47.51-54.41-85.46-69.44A168.66,168.66,0,0,0-48.24,454.7Z" transform="translate(96.89 167.39)" style="fill:url(#k)"/><polyline points="294.46 613.69 294.46 613.69 287.12 613.69" style="fill:#fdb51c"/><path d="M164,216.67l.3-108.78S104.84,166,164,216.67Z" transform="translate(96.89 167.39)" style="fill:#fdb51c;stroke:#000;stroke-miterlimit:10;stroke-width:3px"/><path d="M166.58,216.67V107.89S225.9,166.09,166.58,216.67Z" transform="translate(96.89 167.39)" style="fill:#f89722;stroke:#000;stroke-miterlimit:10;stroke-width:3px"/><path d="M100.53,338.61s-3,79.68,65.25,79.68c0,0,0-56.81-65.25-79.68" transform="translate(96.89 167.39)" style="fill:#fdb51c;stroke:#000;stroke-miterlimit:10;stroke-width:5px"/><path d="M100.53,263.09s-3,79.68,65.25,79.68c0,0,0-56.81-65.25-79.68" transform="translate(96.89 167.39)" style="fill:#fdb51c;stroke:#000;stroke-miterlimit:10;stroke-width:5px"/><path d="M100.53,187.57s-3,79.68,65.25,79.68c0,0,0-56.82-65.25-79.68" transform="translate(96.89 167.39)" style="fill:#fdb51c;stroke:#000;stroke-miterlimit:10;stroke-width:5px"/><path d="M165.78,418.29s0-56.81,65.26-79.68C231,338.61,234,418.29,165.78,418.29Z" transform="translate(96.89 167.39)" style="fill:#f89722;stroke:#000;stroke-miterlimit:10;stroke-width:5px"/><path d="M165.78,342.77s0-56.81,65.26-79.68C231,263.09,234,342.77,165.78,342.77Z" transform="translate(96.89 167.39)" style="fill:#f89722;stroke:#000;stroke-miterlimit:10;stroke-width:5px"/><path d="M165.78,267.25s0-56.82,65.26-79.68C231,187.57,234,267.25,165.78,267.25Z" transform="translate(96.89 167.39)" style="fill:#f89722;stroke:#000;stroke-miterlimit:10;stroke-width:5px"/><path d="M428.4,52.14s-9.35,50.65-32.42,59.92-36.78,3.76-36.78,3.76l-2.81.58s26.57,86.15,26.57,87,18.5,14.1,21.62,27.7c5-23.73,10.1-42.07,9.79-48.15s1.87-43.42,1.87-43.42,15.59,20,38.66,24c5.92-14.76-9.67-37.05-21.51-43.13,0,0,11.84-14.76,7.79-39.94S428.4,52.14,428.4,52.14Z" transform="translate(96.89 167.39)" style="fill:#7a6a5f"/><path d="M412.34,134.87s-30.53,24.06-22.2,75.61a42.46,42.46,0,0,1,13.11,17.13Z" transform="translate(96.89 167.39)" style="fill:#a08778"/><path d="M337.31,116.16c0,1.16-26.27,84.25-26.27,84.25s21.59-8.25,38.77-5.64a214.2,214.2,0,0,1,33.74,8.41l-27.81-88Z" transform="translate(96.89 167.39)" style="fill:#faf2d8"/><path d="M313,194.48c6.79-21,24.52-79.29,24.52-79.29l-2.81-.58s-13.71,5.5-36.78-3.76-32.42-59.92-32.42-59.92-8.73,3.19-12.78,28.37,7.79,40,7.79,40c-11.84,6.07-27.43,28.36-21.5,43.12,18.74-3.29,32.55-17.1,37.06-22.16-.41-1-.82-2-1.2-3.05.38,1,.79,2,1.2,3.05,1-1.16,1.59-1.86,1.59-1.86s.15,2.56.36,6.44C285.47,161.56,297,183.78,313,194.48Z" transform="translate(96.89 167.39)" style="fill:#7a6a5f"/><path d="M281.7,133.85c.61,11-2,43.43-2.19,47.92-.31,6.08,5.92,12.73,10.91,36.47,3.12-13.61,19.95-19.11,19.95-20,0-.17,1-3.32,2.6-8.3C297,179.27,288.89,169.82,281.7,133.85Z" transform="translate(96.89 167.39)" style="fill:#574c41"/><path d="M289.6,245.42c-.41-3.45-3.27-20.85-3.27-20.85s6.08-29.09,57.06-30c48.17.43,57.52,23.45,59.86,33s-2.34,15.2-3.74,19.55-5.61,7.38-11.69,8.68-88.39,0-88.39,0S290.54,253.23,289.6,245.42Z" transform="translate(96.89 167.39)" style="fill:#e3c8de"/><path d="M321.37,221.79c-2.09,0-3.73,2.82-3.65,6.27s1.82,6.22,3.89,6.22,3.7-2.78,3.64-6.22S323.46,221.79,321.37,221.79Z" transform="translate(96.89 167.39)"/><path d="M366.31,221.79c-2.09,0-3.82,2.82-3.86,6.27s1.6,6.22,3.67,6.22,3.8-2.78,3.86-6.22S368.4,221.79,366.31,221.79Z" transform="translate(96.89 167.39)"/><path d="M301.87,165.13c3.87,0,6.94-2.69,6.85-6s-3.34-6.05-7.25-6.05-7,2.72-6.85,6.05S298,165.13,301.87,165.13Z" transform="translate(96.89 167.39)"/><path d="M390.71,153.07c-3.91,0-7.15,2.72-7.24,6.05s3,6,6.86,6,7.11-2.69,7.24-6S394.62,153.07,390.71,153.07Z" transform="translate(96.89 167.39)"/><path d="M462.81,163.44a2.35,2.35,0,0,1,0-.28c-.47-11.09-3.76-36.35-23.41-47.08,11.37-25.17,8.36-50.53-8.62-71.73a5.4,5.4,0,0,0-5.47-1.78,5,5,0,0,0-3.84,4,150.14,150.14,0,0,1-9.84,35.28c-5.24,12-14.43,26.6-28.52,28.18H310c-29.94-1.78-38.55-60.35-38.9-62.85a5,5,0,0,0-3.84-4A5.43,5.43,0,0,0,261.82,45c-17,21.21-19.95,46.57-8.5,71.69-18.72,11.13-21.86,35.75-22.31,46.48,0,.11,0,.2,0,.27a4.45,4.45,0,0,0,.4,2.44,5.3,5.3,0,0,0,5.95,2.78c1.2-.27,23.54-5.31,37-18.62L282,223.37c1.22,12.17,1.77,16.78,2.2,18.81.66,9.72,9.61,17.85,19.74,17.85h85.22c9.86,0,18-8.12,18.51-18.53l2.61-19.08v-.06l9-72.59c13.42,13.5,36,18.62,37.23,18.88a5.3,5.3,0,0,0,6-2.77A4.54,4.54,0,0,0,462.81,163.44Zm-230.43-2.8a1.8,1.8,0,0,0-.19.2A1.8,1.8,0,0,1,232.38,160.64Zm-1,1.55a2.41,2.41,0,0,1,.15-.33A2.41,2.41,0,0,0,231.33,162.19Zm-.3,1a4.1,4.1,0,0,1,.1-.48A4.1,4.1,0,0,0,231,163.22Zm.11-.5a3.45,3.45,0,0,1,.14-.42A4.13,4.13,0,0,0,231.14,162.72ZM232,161c-.06.07-.11.15-.17.23Zm-.3.41-.16.27C231.61,161.62,231.66,161.53,231.72,161.44Zm.89-1,.18-.16Zm165.87,67.49-.24,5.74-.93,6.82c0,.14,0,.25,0,.39-.22,5.15-3.95,9.47-8.15,9.47H303.9a9.74,9.74,0,0,1-9.39-9,4.78,4.78,0,0,0-.2-1.13c-.31-1.67-1.26-10.21-2-17.79l-.41-3.92a28.36,28.36,0,0,1,6.23-8.66c9.22-8.84,24.64-13.32,45.8-13.32.27,0,21.8.61,37.74,8.21a2.2,2.2,0,0,0,1.13.56,36.79,36.79,0,0,1,9.23,6.42A20.78,20.78,0,0,1,398.48,227.92ZM344,192.74c-11.59,0-21.58,1.35-29.91,3.95l25.4-76.92h15.21l25.13,80C363.78,193.32,345.05,192.77,344,192.74Zm-60.79-58.06a5,5,0,0,0-4.66-4.33,5.2,5.2,0,0,0-5.48,3.4c-4.18,12.87-21.34,20.26-31.14,23.5,1.38-11.35,6-28.5,20.88-34.36a4.75,4.75,0,0,0,3.06-5.4,4.87,4.87,0,0,0-2.24-3.07c-8.83-18.33-8.86-36.82-.31-53.23a145.69,145.69,0,0,0,8.2,25.11c9.38,21.27,22.19,32.54,38.08,33.42a2.91,2.91,0,0,0,.31,0h25.07l-26,78.76a43.88,43.88,0,0,0-13.86,8.8,33.9,33.9,0,0,0-3.9,4.46Zm137.61-.91a5.21,5.21,0,0,0-5.44-3.41,5,5,0,0,0-4.69,4.25l-10.17,82.27a26.2,26.2,0,0,0-5.49-7.75,40.34,40.34,0,0,0-10-7l-25.88-82.38h24.22c.18,0,.35,0,.53-.06,28.34-2.68,40.71-38.92,45.42-59.11,8.53,16.33,8.57,34.73-.08,53a4.87,4.87,0,0,0-2.82,3.38,4.77,4.77,0,0,0,3.32,5.49c15.95,5.34,20.76,23.13,22.18,34.84C441,153.68,424.71,145.88,420.78,133.77Zm40.84,27.1-.19-.2A1.8,1.8,0,0,1,461.62,160.87Zm-.42-.41-.18-.16Zm1.13,1.43a2.41,2.41,0,0,1,.15.33A2.41,2.41,0,0,0,462.33,161.89Zm-.55-.83a2,2,0,0,1,.18.23A2,2,0,0,0,461.78,161.06Zm.3.41c.06.09.11.18.16.27C462.19,161.65,462.14,161.56,462.08,161.47Zm.59,1.3a2.89,2.89,0,0,1,.11.47A3.57,3.57,0,0,0,462.67,162.77Zm-.14-.45c.05.14.1.28.14.42C462.63,162.6,462.58,162.46,462.53,162.32Z" transform="translate(96.89 167.39)"/><path d="M427.64,316.35l-.51.59-.24.36a45.77,45.77,0,0,0-6.28-3.86c-8.58-4.4-17.14-5.76-25.62-4.08l-.34,0a36.58,36.58,0,0,0-11.57,3.54l.34.7a37.44,37.44,0,0,0-8.42,6.44,45.28,45.28,0,0,0-8.14,9.45c-2.77,3.65-4.13,8.1-5.76,12.17a37.23,37.23,0,0,0-1.52,11.19l.12.06,1.23.1,1.42.14a37,37,0,0,0,.52,3.89,42.88,42.88,0,0,0,4.4,15c1.82,2.85,3.13,6.42,6.27,7.52.62,3.26,4.45,5,6.89,7.05.8.11,2.67,2.67,3,.79,2.23,3.09,6,3.66,9.24,5.16,2.69,1.23,5.39.95,8.05,1.14l.2-1.75s0,0,0,0l.34-2.23,0-.06c.25,0,.47.05.72.05l0,0,0,0c.48.07,1,.15,1.46.27a33.66,33.66,0,0,0,10.72-.94c14.26-3.22,25.26-15,30.05-28.51l-2.47-.57a8,8,0,0,1-1.1,2.36c.3-.8.61-1.62.87-2.43l-.57-.13c.11-.38.2-.75.3-1.12l1.48.33c1.13-3.56.4-7.35,1.44-10.92,1.6-3.74-4.2-6.33-1.1-9.39a38,38,0,0,0-10.18-18.42c-1.2-1.94-3.29-2.94-5.2-4Z" transform="translate(96.89 167.39)" style="fill:#50260e"/><path d="M367.05,331.32q-7.95,15.53-2.85,30.9a37.73,37.73,0,0,0,19.21,22.61q15.6,8,31,3.06t23.36-20.46q7.91-15.42,3-30.78T420.6,313.43q-15.33-7.86-30.44-2.8t-23.11,20.69Z" transform="translate(96.89 167.39)" style="fill:#1e0e05"/><path d="M396.64,354.3l3.65-.58V354l-3.65.26Z" transform="translate(96.89 167.39)" style="fill:#bb803e"/><path d="M401.1,354l.24-.47.93-.16.31.53Z" transform="translate(96.89 167.39)" style="fill:#bb803e"/><path d="M400.62,353.3l-.46-3.37,1.21,2,0,0-.56,1.31-.17,0Z" transform="translate(96.89 167.39)" style="fill:#bb803e"/><path d="M401.51,353.22l.34-.56.27.51-.61.05Z" transform="translate(96.89 167.39)" style="fill:#bb803e"/><path d="M396.64,354.3l3.65-.58V354l-3.65.26Z" transform="translate(96.89 167.39)" style="fill:#ae5919"/><path d="M401.1,354l.24-.47.93-.16.31.53Z" transform="translate(96.89 167.39)" style="fill:#ae5919"/><path d="M400.62,353.3l-.46-3.37,1.21,2,0,0-.56,1.31-.17,0Z" transform="translate(96.89 167.39)" style="fill:#ae5919"/><path d="M401.51,353.22l.34-.56.27.51-.61.05Z" transform="translate(96.89 167.39)" style="fill:#ae5919"/><path d="M380.67,386.35c-1.87-1.38-2.5-3.84-4.32-5.3-4.14-3.2-6.25-7.83-9.21-11.9-2.82-3.77-3.46-8.12-3.12-12.6l1.83.43,4.95,0,6.11-.4,7-.1,4.88.65,6.81-.27,1.83-.08.26.12.71.13,3.07.36-3.34,5.74.91-1.27,2.44-3.55-.45,3.23-1.17,7.09.42,2.51-.64,2.82,1.38,5.09-1.54,5.76,1.76,4.95-.34,2.46h-.23c-3.45,2-6.68-3.64-10.74-2.14-1.91-2.53-6-2.83-9.24-3.76Z" transform="translate(96.89 167.39)" style="fill:#bb803e"/><path d="M380.42,386.64c-2.44-2.08-6.26-3.77-6.88-7-3.14-1.1-4.44-4.66-6.26-7.51a42.88,42.88,0,0,1-4.51-15.82l2.83.65c0,.71,0,1.47,0,2.14-.76,2.35,0,3.53,1.77,4.67-.81,3.5,2.59,3.51,3.2,7.06,1.53,3.85,3.75,7.8,7.49,9.6,1.11,1,1.07,2.62,2.56,3.66,5,1.93,8.73,6.17,14.39,6.31a8.44,8.44,0,0,0,5.89,1.62l-.23,1.78c-2.66-.19-5.33.07-8-1.16-3.26-1.5-7.05-2.07-9.28-5.16-.33,1.88-2.19-.7-3-.81Z" transform="translate(96.89 167.39)" style="fill:#1e0e05"/><path d="M384.73,372.93c-1-1.1,1.38-2.5-.09-3.2-4.37-3.36-7.59-8-8.44-13.1l.71,0,7-.1,4.88.65,6.81-.27,1.83-.08.26.12.71.13,3.07.36-3.34,5.74.91-1.27,2.44-3.55-.45,3.23-1.17,7.09.42,2.51-.64,2.82,1.17,4.38a136,136,0,0,1-16.06-5.43Z" transform="translate(96.89 167.39)" style="fill:#ae5919"/><path d="M391.92,368.52c-4-3.79-9.35-7.2-10.75-12l2.72-.05,4.88.65,6.81-.27,1.83-.08,0,0,4.17-.17-.05.32-3.8-.05.61.12,3.07.36-3.34,5.74.91-1.27,2.44-3.55-.45,3.23-1.17,7.09.42,2.51-.24,1a51.21,51.21,0,0,1-6.58-3.4l-1.52-.28Z" transform="translate(96.89 167.39)" style="fill:#ba6422"/><path d="M402,388.14l.31-4.94-.72-6.21.17-3.54-.14-4.45.12-5.07.59-3.49,0-4.94v-1.88l.11-.15,2.06.25.36.82-.22-.78.84.11,4.56,1,9.82,2.25,3.47-.39,3.94,1.12,6.35,2,4.18-.66,3.65.87a40.86,40.86,0,0,1-5.28,10.9c-2.44,4.5-7.4,7.05-9.43,11.8-3.81,2.63-8.71,3.18-12.95,4.9-3.83,2.06-8,.52-11.77.55Z" transform="translate(96.89 167.39)" style="fill:#bb803e"/><path d="M401.93,389.79l.07-1.55v-.34c2-.18,4-.64,6-.8,2.84,1.35,5.49-1.84,7.62-.85,3.21-2.23,6.62-4.74,10.61-5,2-1.6,2.53-5.42,5.83-5.21a1.42,1.42,0,0,0-.09.46,7.91,7.91,0,0,0,.91-3.11c2.94-2.42,4.3-6.07,6.27-9.42a7.58,7.58,0,0,0,2.55-3.93l2.47.58c-4.79,13.47-15.78,25.29-30,28.5a33.52,33.52,0,0,1-10.74,1c-.48-.12-1-.23-1.45-.3Z" transform="translate(96.89 167.39)" style="fill:#1e0e05"/><path d="M401.71,374.48l.07-1-.14-4.45.12-5.07.59-3.49,0-4.94v-1.88l.11-.15,2.06.25.36.82-.22-.78.84.11,4.56,1,9.82,2.25,3.47-.39,3.94,1.12,4.65,1.44c-3.09,7.18-9.37,13.07-16.47,16.41a41.16,41.16,0,0,1-13.74-1.19Z" transform="translate(96.89 167.39)" style="fill:#ae5919"/><path d="M401.64,368.66l.12-4.73.59-3.49,0-4.94v-1.88l.11-.15,2.06.25.36.82-.22-.78.84.11,4.56,1,9.82,2.25,3.47-.39.29.08c-.29,1.56-.58,3.12-.86,4.74-2.07,4.89-7.46,6.73-13,8.56a24.76,24.76,0,0,1-8.09-1.42Z" transform="translate(96.89 167.39)" style="fill:#ba6422"/><path d="M360.93,353.05c-.52-4.8,1.67-9.11,2.56-13.75-.11-5,3.38-8.83,6.66-12.17s6-7.55,10.39-9.64c1-.47,2.07-.91,3.11-1.34l3.05,5.94,1.79,4.52,2.43,5.5,2.66,6.41,1.48,4.72,2.62,6.15,1.15,2.79v.1l-.08.53-.23,2.86-4.36-.25-4.53-.66-7.63-.07-5.59-.89h-2.69l-4.08.18-8.7-.94Z" transform="translate(96.89 167.39)" style="fill:#bb803e"/><path d="M359.58,352.91a37.88,37.88,0,0,1,1.52-11.24c1.63-4.06,3-8.47,5.76-12.12a44.41,44.41,0,0,1,16-15l.07.23.88,1.72a17.71,17.71,0,0,0-2.91,1.48c-.06,3.55-3.56,2.69-4.9,5.58a11.72,11.72,0,0,0-6.13,7.73c-2.16.92-4.65,4.36-3,5-1.31,3.5-4.24,6.3-4.29,10.31-.08,1.71-.14,4.13-.17,6.62l-2.76-.28-.15,0Z" transform="translate(96.89 167.39)" style="fill:#1e0e05"/><path d="M372.87,353.85A16,16,0,0,1,373,351c1.45-6.82,2.16-14.11,7.58-19a19.93,19.93,0,0,1,7.87-5.51v.07l2.43,5.5,2.66,6.41,1.48,4.71,2.62,6.16,1.15,2.79v.1l-.08.53-.23,2.86-4.36-.25-4.53-.66-7.63-.07-5.59-.89h-2.69l-.84,0Z" transform="translate(96.89 167.39)" style="fill:#ae5919"/><path d="M377.8,354a9.23,9.23,0,0,1,.44-3.81c-.6-4.06,1.44-7.73,4.88-10.65,0,0,0,0,0,0,1.48-2.41,4.53-4.79,8.17-6.51l2.26,5.49,1.48,4.72,2.62,6.15,1.15,2.79v.1l0,.28,1,1.87,0,0-.75,1.21h-.17l-.19-2.11-.15,2.1-4.36-.25-4.53-.66-7.63-.07L377.8,354Z" transform="translate(96.89 167.39)" style="fill:#ba6422"/><path d="M402.19,353.46v-.07l-.17-.51,1.23,0-.4-.09-.69-.08-.21,0-.31-.89,2.05-2.74,6-7.89,1.71-2.91,2.48-3.12,4.06-5.09,3.93-5.4,4.67-6.73c3.18,2.89,6.78,5.4,9.07,9.08,2.47,3.33,3.64,7.21,5.16,11.1.29,4,.15,8,.77,12a61.12,61.12,0,0,1-1.76,8.44l-2-.48-6.51,0-7.4-2.2-7.07-.59-4.85-1.14-6.9-.42-2.8-.19Z" transform="translate(96.89 167.39)" style="fill:#bb803e"/><path d="M439.82,358.45c.19-1.68.2-3.43.46-5.2,1.18.72.66-3.09.29-3.36.09-4.21,1.35-7.75-.94-11.38-.82-3.2.16-5.67-2.78-7.7-.86-4.09-4.1-6.32-6.82-8.34a22.85,22.85,0,0,0-4.13-3.69l1.25-1.84.47-.6c1.91,1.06,4,2,5.21,4A38.15,38.15,0,0,1,443,338.76c-3.11,3.07,2.71,5.63,1.11,9.37-1.05,3.57-.34,7.39-1.46,10.94l-2.85-.62Z" transform="translate(96.89 167.39)" style="fill:#1e0e05"/><path d="M402.19,353.46v-.07l-.17-.51,1.23,0-.4-.09-.69-.08-.21,0-.31-.89,2.05-2.74,6-7.89,1.71-2.91,2.48-3.12,4.06-5.09,1.4-2a17.64,17.64,0,0,1,3.33,3.71c6.05,2.67,6.12,8.47,8.61,13.93a23.45,23.45,0,0,1-.9,12.07l-6.54-2-7.07-.59-4.85-1.14-6.9-.42-2.8-.19Z" transform="translate(96.89 167.39)" style="fill:#ae5919"/><path d="M400.47,353.37l.29-.43.95,0,.24.57-1.48-.1Z" transform="translate(96.89 167.39)" style="fill:#ba6422"/><path d="M401,352.63l.41-.52.2.54-.61,0Z" transform="translate(96.89 167.39)" style="fill:#ba6422"/><path d="M402.19,353.46v-.07l-.17-.51,1.23,0-.4-.09-.69-.08-.21,0-.31-.89,2.05-2.74,6-7.89,1.71-2.91,2.48-3.12,1.6-2c9.24,4.12,8.12,12.53,6.18,22.54l-4.89-.42-4.85-1.14-6.9-.42-2.8-.19Z" transform="translate(96.89 167.39)" style="fill:#ba6422"/><path d="M399.14,352.91l-1.24-3.79-1.28-4.4-4-8.23-.59-3.64-3.14-3.72-1.06-5.63L385,317l-1.1-2.32a54.6,54.6,0,0,1,10-3.07c4.71-.2,9.66-2.35,14.08.23,4.61,2.66,10.59,2.11,14.46,6.2.27.29.56.58.84.86L420.65,323l-5.86,7.47L412.41,334l-2.91,4.62-4.37,5.15-2.84,4-3.15,5.14Z" transform="translate(96.89 167.39)" style="fill:#bb803e"/><path d="M384.11,315.11l-1-2.16a36.67,36.67,0,0,1,11.58-3.56c1.11-.23,6.72-.79,4.29-.2,4.32,0,8.51,2.28,12.35,3.06,4-1.81,7.5,1.61,10.87,3.38a6.25,6.25,0,0,0,1.9,2L422.53,320c-.64-.45-1.25-.9-1.89-1.36-3.48-4-8.17-4.09-12.82-5.64-6.08-.8-12.41-.87-18.3,1.11a23.52,23.52,0,0,0-5.41,1Z" transform="translate(96.89 167.39)" style="fill:#1e0e05"/><path d="M399.14,352.91l-1.24-3.79-1.28-4.4-4-8.23-.59-3.64-3.14-3.72-.73-3.79a26.52,26.52,0,0,1,12.2-1.29c5.49.92,11,2,15.45,5.09l-1,1.31L412.41,334l-2.91,4.62-4.37,5.15-2.84,4-3.15,5.14Z" transform="translate(96.89 167.39)" style="fill:#ae5919"/><path d="M399.14,352.91l-1.24-3.79-1.28-4.4-4-8.23-.59-3.64-1-1.19c6.93-3.05,15.75-3.59,20.67,2.89l.11.08.15,0-2.49,3.93-4.37,5.15-2.84,4-3.15,5.14Z" transform="translate(96.89 167.39)" style="fill:#ba6422"/><path d="M570.51,392.27c-3.93-2.09-8.68-1.62-12.53-3.92a60.08,60.08,0,0,0-12.58.31,45.46,45.46,0,0,0-11,3.55l.81,1.85.7,1.75c-.91.56-1.81,1.13-2.66,1.77l-1.72-2.05-2.14-2.59a29.9,29.9,0,0,0-5.39,4.59c-1.91,3.74-5.85,5.38-7.32,9.5a52.65,52.65,0,0,0-5.23,13.76,37.37,37.37,0,0,0,.82,19.09c.1.51.17,1,.3,1.49l.7.09,1.47-.68.89-.39.22-.11,2.83-1.26s0,.08,0,.13l-1.43.7-3.11,1.6a35.41,35.41,0,0,0,4.68,9.58A26.74,26.74,0,0,0,528,460.3a39.25,39.25,0,0,0,14.75,7.51l.3-2,.2-1.65c.62.21,1.21.43,1.82.61l.18,4.13,0,2.1c1.49.27,3,.46,4.49.6a38.09,38.09,0,0,0,19.14-3.66c1.43-3.84,8.08-2.15,9.35-6.49a33.77,33.77,0,0,0,9.17-10.73l-1-1.31,1.68,1.61.75.81a52.26,52.26,0,0,0,5.62-11.27,40.15,40.15,0,0,0-2.44-31.85l-2.7,1.33-.77.35c-.24-.45-.49-.91-.75-1.34l.47-.29a36.89,36.89,0,0,0-3.79-5.4c-2.6-2.16-4.55-5.48-7.76-6.7a2.84,2.84,0,0,1-1.27-.22l-.57-.35c-.9-.82-.93-2.31-2.75-2.74a10.41,10.41,0,0,0-1.65-1.05Z" transform="translate(96.89 167.39)" style="fill:#50260e"/><path d="M521.87,411.56q7.46-14.56,22-19.11a35.46,35.46,0,0,1,27.74,2.24q14.64,7.5,19.32,21.94t-2.77,29q-7.41,14.46-21.78,19.17t-28.76-2.66q-14.39-7.38-18.81-21.65t3.09-28.94Z" transform="translate(96.89 167.39)" style="fill:#1e0e05"/><path d="M570.5,393.73c-2.11-1-4.54-.3-6.69-1.19-4.8-2.07-9.88-1.67-14.87-2.29s-9.49,1.15-13.5,4c-.17.05-.31.12-.47.18l.85,2.09,3.57,3.85,2.34,4L546,411l2.93,4,3.06,6.09,1.88,3.73,2.08-4.58-.44,1.48-1.14,3.36,3.86-1.59,3-1.52,6.37-3.39,2.48-.37,2.48-1.5,5.48-1.56,3.58-2,4.8-2.92a13,13,0,0,1-1-1.83c.08-4-6.43-4.15-7.09-8.42-3.13-.45-5.41-3.87-7.78-6.23Z" transform="translate(96.89 167.39)" style="fill:#bb803e"/><path d="M570.32,392.63c-3.94-2.09-8.68-1.62-12.54-3.92a60.1,60.1,0,0,0-12.58.31,45.46,45.46,0,0,0-11,3.55l1.37,3.26c2.35-.95,3.18-3.25,5.78-3.8,2.58.26,6-1.23,7.52-.94,2.36,2.41,6.5-.47,8.33.7,2,1.93,6.35.49,7.61,2.09,1.36,1.42,3.35-.71,5.29,1,2.63,1.21,2.4,4.93,5.79,5,2.3-.25,2.14,1.1,1.82,2.05,2.79.89,2.92,5.23,6.41,4.46,2.17,1.41-1.37,2.36,1,4.5l0,0,2.11-1.31.87-.56a36.89,36.89,0,0,0-3.79-5.4c-2.6-2.16-4.55-5.48-7.76-6.7-3.07.17-2-2.69-4.59-3.31a10.8,10.8,0,0,0-1.64-1.05Z" transform="translate(96.89 167.39)" style="fill:#1e0e05"/><path d="M562.35,405.58c-1.34-.37-1.52,2.21-2.73,1.26C554.2,404.2,548,403.5,542.8,406l3.17,5,2.93,4,3.06,6.09,1.88,3.73,2.08-4.58-.44,1.48-1.14,3.36,3.86-1.59,3-1.52,6.37-3.39,2.48-.37,2.48-1.5.87-.25a132.57,132.57,0,0,0-11-10.85Z" transform="translate(96.89 167.39)" style="fill:#ae5919"/><path d="M560,412.16c-3.75,1.15-7.74-1.66-11.7-.56-.53.14-1.06.28-1.57.47l2.13,2.9,3.06,6.09,1.88,3.73,2.08-4.58-.44,1.48-1.14,3.36,3.86-1.59,3-1.52,5.86-3.12c-2.3-2.36-4.84-4.5-7-6.66Z" transform="translate(96.89 167.39)" style="fill:#c06926;opacity:0.694323122501373;isolation:isolate"/><path d="M590.07,410l-2.32,1.1-5.08,3.46-3.32,1.28-4.29,1.31-4.77,1.71-3.13,1.64L562.48,422l-3,1,.62-.16-1.43.6-1.38.51,3.93,4,3.55,3.05,7.75,6.41,1.81,3,3.25,2.41,5.41,3.89,4.29,4.11a38.72,38.72,0,0,0,2.76-4.65c2.77-4.31,2.61-9.88,5.81-13.95.48-4.6-1.4-9.16-1.93-13.7C593.93,415.06,591.83,412.51,590.07,410Z" transform="translate(96.89 167.39)" style="fill:#bb803e"/><path d="M591.86,409.07l-2.7,1.32c1.83,1.73,2,3.71,3.16,6.94,1.72,3.06,1.16,6.83,1.91,10.3.9,2.38,2.13,4.23-.53,5.42-.82,2.88-3.07,7-2.74,8.87,1.91-1.19-2.33,2.07-1.47,3.29a45.15,45.15,0,0,1-3.24,4.56l1.68,1.61.75.81a52.34,52.34,0,0,0,5.62-11.28,40.13,40.13,0,0,0-2.44-31.84Z" transform="translate(96.89 167.39)" style="fill:#1e0e05"/><path d="M577.5,416.4l-2.44.71-4.77,1.71-3.13,1.64L562.48,422l-3,1,.62-.16-1.43.6-1.38.51,3.93,4,3.55,3.05,7.75,6.41,1.81,3,3.25,2.41,1.79,1.29A32.9,32.9,0,0,0,583.79,427,38.4,38.4,0,0,0,577.5,416.4Z" transform="translate(96.89 167.39)" style="fill:#ae5919"/><path d="M571.08,418.53l-.79.29-3.13,1.64L562.48,422l-3,1,.62-.16-1.43.6-1.38.51,3.93,4,3.55,3.05,7.75,6.41,1.17,2a20.58,20.58,0,0,0,2.84-9.19C576.51,425.64,574.11,421.88,571.08,418.53Z" transform="translate(96.89 167.39)" style="fill:#c06926;opacity:0.694323122501373;isolation:isolate"/><path d="M530.41,394.83c-3.89,2.28-6.23,6.21-9.44,9.33-4.2,2.64-5.53,7.68-6.51,12.25-1.18,4.56-3,9.14-2.36,14a73.69,73.69,0,0,0,2.42,10.76l7.76-3.43,4.48-2.36,4.6-1.61,6.22-3,4.32-2.58,5.81-3,5.25-2-.83-1.14-.15-.16-.7-.94-3.08-3.44L543,410l-2.83-3-2.92-2.82L533.93,399Z" transform="translate(96.89 167.39)" style="fill:#bb803e"/><path d="M529.17,393.33a29.34,29.34,0,0,0-5.39,4.55c-1.92,3.74-5.86,5.38-7.32,9.5a52.85,52.85,0,0,0-5.23,13.77,37.48,37.48,0,0,0,.79,19.12c.1.51.19,1,.33,1.5l.68.07,2.6-1.17c-.22-.71-.42-1.39-.66-2.09-.53-4.22-3.11-9.16-1.3-12.71-2-3.21,3.48-6.08,1.65-10.24.93-2.21,2.9-4.16,2.67-7.09,1.41-2.84,4.33-2.88,6.26-6.25,2.28-2.31,3.83-5.92,7.07-6.39l-2.15-2.57Z" transform="translate(96.89 167.39)" style="fill:#1e0e05"/><path d="M539,405.88l-.29.24c-4.84,4.48-10.43,8.58-11.75,15.34a20.21,20.21,0,0,0,.6,13.61l3.77-1.32,6.22-3,4.32-2.58,5.81-3,5.25-2-.83-1.14-.15-.16-.7-.94-3.08-3.44L543,410l-2.83-3Z" transform="translate(96.89 167.39)" style="fill:#ae5919"/><path d="M543.83,411.21a20.83,20.83,0,0,0-10.38,14.71,17.57,17.57,0,0,0,.74,6.44l3.39-1.63,4.32-2.58,5.81-3,5.25-2-.83-1.14-.15-.16-.7-.94-3.08-3.44-4.37-6.28Z" transform="translate(96.89 167.39)" style="fill:#c06926;opacity:0.694323122501373;isolation:isolate"/><path d="M553.5,425.58l2.3,3.43-.26-.24-.5-.58-1.95-2.45-.42,2.16-.68,4.48-1.48,9.83-1.08,3.19-1.84,3.06-.13,5.89-2.65,8.3.22,6.62a29.2,29.2,0,0,0,8.85,1.13c4.15,0,8-1.28,12.06-2.34,3.41-2.12,6.6-4.64,10.14-6.45a54.59,54.59,0,0,0,9.8-12.3l-2.23-2.91-4.75-2.64-5.42-1.62-5.22-6-4.37-1.3-5.16-4.6-5.23-4.68Z" transform="translate(96.89 167.39)" style="fill:#bb803e"/><path d="M585,448.14a6.84,6.84,0,0,0-.42,1.76c-2.39,2.78-4.38,6.26-7.46,8.66-1.86,1.92-2.61,4.14-5.63,4.38-2.51.93-4.6,2.65-4.93,4.53-2.52-3.16-4.81,2.31-7.27,1.33-1.25-1.21-5.48.15-5.62.52-3.25.48-5.74-1-8.65-1.42l.08,3.45c1.5.27,3,.45,4.48.58a38.09,38.09,0,0,0,19.15-3.64c1.44-3.84,8-2.15,9.31-6.49a33.94,33.94,0,0,0,9.2-10.75Z" transform="translate(96.89 167.39)" style="fill:#1e0e05"/><path d="M553.5,425.58l2.3,3.43-.26-.24-.5-.58-1.95-2.45-.42,2.16-.68,4.48-1.48,9.83-1.08,3.19-1.84,3.06-.13,5.89-.26.86a16.93,16.93,0,0,0,2.89.22c5.27,3.39,9.9.43,15.52-.46a23,23,0,0,0,11.87-11.61l-4-1.22-5.22-6-4.37-1.3-5.16-4.6-5.23-4.68Z" transform="translate(96.89 167.39)" style="fill:#ae5919"/><path d="M553.5,425.58l2.3,3.43-.26-.24-.5-.58-1.95-2.45-.42,2.16-.68,4.48-1.48,9.83-1.08,3.19-1.72,2.85a21.17,21.17,0,0,0,8.67,1.38c6.71,0,12-4.42,14.82-10.12l-2.94-3.35-4.37-1.3-5.16-4.6-5.23-4.68Z" transform="translate(96.89 167.39)" style="fill:#c06926;opacity:0.694323122501373;isolation:isolate"/><path d="M554.45,423.5l-3.86,1.8-4,2.1-8.74,4.72-3.23,1-3.47,2-5.27,2.41L519,439.28l-3,1.53c.41,1.34.88,2.65,1.41,3.95,2.41,4.05,3.32,9.36,7.9,11.66,4.75,2.4,7.56,7.7,13.1,8.71a40.25,40.25,0,0,1,4.44,1l.37-2.67,1.45-7.84,2.17-4.59.9-6.85,2.86-4.76.57-6.57,2.21-6.31,1.1-3.08Z" transform="translate(96.89 167.39)" style="fill:#bb803e"/><path d="M517.07,440.24l-3.11,1.6a35.23,35.23,0,0,0,4.66,9.56,27,27,0,0,0,9.18,9.27,39.32,39.32,0,0,0,14.75,7.54l.42-3.16c-3.22-1.86-7.27-.43-9.67-3.78-2-2.31-4.29-3.23-6.88-5.87-4.5-.5-4.06-5.76-6.83-8.51,1.16,1.5,2.41,4.21.57,1.1a27.15,27.15,0,0,1-3.09-7.75Z" transform="translate(96.89 167.39)" style="fill:#50260e"/><path d="M554.45,423.5l-3.86,1.8-4,2.1-8.74,4.72-3.23,1-3.47,2-1.62.72a25.35,25.35,0,0,0,3.33,5.66c3.82,4.51,7.77,9,13.37,10.81l.6-1.24.9-6.85,2.86-4.76.57-6.57,2.21-6.31,1.1-3.08Z" transform="translate(96.89 167.39)" style="fill:#ae5919"/><path d="M554.45,423.5l-3.86,1.8-4,2.1-8.74,4.72-1.88.62a22.61,22.61,0,0,0,11.61,12.6l.15-1.11,2.86-4.77.57-6.57,2.21-6.31,1.1-3.08Z" transform="translate(96.89 167.39)" style="fill:#c06926;opacity:0.694323122501373;isolation:isolate"/><path d="M567.56,310.69a25.81,25.81,0,0,0-4.1.51v.09c-10.45-.09-19.26,3.19-26.37,9.94a37.44,37.44,0,0,0-2.67,2.84,1.1,1.1,0,0,0-.14.09c1.37-2.09-2.35,2.14-3,3.06a36.39,36.39,0,0,0-6,10.53l1.59.58c-.34,1.23-.58,2.51-.81,3.81l-2.62-.91-2.62-.9h-.15a38,38,0,0,0-3.34,10.82c-.23,4.38-.87,8.95.11,13.42a44.57,44.57,0,0,0,8.31,20.37l.15-.18,1.17-.95.15-.14.19-.13,4-3.12a43,43,0,0,0,13,8.75c3.23,1,6.49,3,9.61,1.84,2.56,2.12,6.59,1,9.79,1,.7-.43,3.74.39,2.8-1.27,3.68,1,7-1,10.46-1.92,2.86-.77,4.73-2.65,6.89-4.19l-.49-.83c.62-.36,1.25-.71,1.85-1.11l1.86,2.11,0,0,.23.25,1,1.18a10.33,10.33,0,0,1,1.22-.81,34,34,0,0,0,7-8.22c5.5-8.48,7-18.79,5.39-28.66a40.28,40.28,0,0,0-2.06-12.07l1.64-.75c-1.3-3.5-4.22-6.09-5.58-9.55-.59-2.28-2.88-2.73-4.61-3.54-.62-.65-1.27-1.24-1.92-1.83a3.26,3.26,0,0,1-.05-1.38A38.23,38.23,0,0,0,570,311.12a6.92,6.92,0,0,0-2.45-.43Z" transform="translate(96.89 167.39)" style="fill:#50260e"/><path d="M535.25,376.86l.14.15-1.72,1.36,1.58-1.51Z" transform="translate(96.89 167.39)" style="fill:#50260e"/><path d="M525.3,348.79q-.63,16.84,10.11,28.25a36.52,36.52,0,0,0,26.05,12q16.9.66,28.39-9.95T602,351.62q.63-16.74-9.91-28.21t-27.17-12.12q-16.64-.63-27.79,9.95T525.3,348.79Z" transform="translate(96.89 167.39)" style="fill:#1e0e05"/><path d="M560.48,357.11l3.06-2.07.14.29-3.2,1.78Z" transform="translate(96.89 167.39)" style="fill:#bb803e"/><path d="M564.4,355l0-.52.78-.54.51.35Z" transform="translate(96.89 167.39)" style="fill:#bb803e"/><path d="M563.66,354.53l-1.84-2.87,1.94,1.31v0l0,1.43-.14.09Z" transform="translate(96.89 167.39)" style="fill:#bb803e"/><path d="M564.43,354.08l.08-.66.46.35-.54.31Z" transform="translate(96.89 167.39)" style="fill:#bb803e"/><path d="M560.48,357.11l3.06-2.07.14.29-3.2,1.78Z" transform="translate(96.89 167.39)" style="fill:#ae5919"/><path d="M564.4,355l0-.52.78-.54.51.35Z" transform="translate(96.89 167.39)" style="fill:#ae5919"/><path d="M563.66,354.53l-1.84-2.87,1.94,1.31v0l0,1.43-.14.09Z" transform="translate(96.89 167.39)" style="fill:#ae5919"/><path d="M564.43,354.08l.08-.66.46.35-.54.31Z" transform="translate(96.89 167.39)" style="fill:#ae5919"/><path d="M563.76,391.66c-2.32.12-4.38-1.37-6.71-1.34-5.22.16-9.8-2.07-14.67-3.33-4.58-1.11-7.84-4.06-10.43-7.74l1.68-.83,3.83-3.14,4.44-4.19,5.32-4.52,4.18-2.6,5.07-4.54,1.36-1.23.28-.07.63-.35,2.59-1.68,1.08,6.56-.1-1.56-.38-4.3,1.7,2.79,3.62,6.22,1.93,1.66,1.3,2.59,4.3,3.06,2.49,5.42,4.51,2.7,1.3,2.11c-.05,0-.12.1-.17.16-1.38,3.73-7.46,1.44-9.64,5.18-3.07-.74-6.44,1.65-9.51,3Z" transform="translate(96.89 167.39)" style="fill:#bb803e"/><path d="M563.75,392c-3.21-.05-7.22,1.08-9.78-1-3.12,1.14-6.39-.79-9.61-1.82a43.22,43.22,0,0,1-13.55-9.34l2.59-1.3,1.4,1.62c.91,2.31,2.25,2.73,4.34,2.48,1.6,3.22,4.23,1.06,7,3.41,3.64,2,7.86,3.64,11.88,2.65,1.52.09,2.5,1.34,4.32,1.2,5.06-1.67,10.65-.79,15.1-4.28a8.42,8.42,0,0,0,5.57-2.5l1,1.53c-2.17,1.54-4.06,3.43-6.92,4.2-3.47.91-6.76,2.88-10.44,1.92.95,1.65-2.13.85-2.82,1.27Z" transform="translate(96.89 167.39)" style="fill:#1e0e05"/><path d="M558.33,378.72c-1.44-.22-.52-2.81-2.1-2.41-5.51.18-10.94-1.34-14.85-4.74l.52-.48,5.32-4.52,4.18-2.6,5.07-4.54,1.36-1.23.28-.07.63-.35,2.59-1.68,1.08,6.56-.1-1.56-.38-4.3,1.7,2.79,3.62,6.22,1.93,1.66,1.3,2.59,3.69,2.64a136.44,136.44,0,0,1-15.84,6Z" transform="translate(96.89 167.39)" style="fill:#ae5919"/><path d="M561.07,370.74c-5.53-.35-11.8.39-15.91-2.4l2.06-1.77,4.18-2.6,5.07-4.54,1.36-1.23h0l3.11-2.78.17.27-2.95,2.38.54-.29,2.59-1.68,1.08,6.56-.1-1.56-.38-4.3,1.7,2.79,3.62,6.22,1.93,1.66.47,1a50.21,50.21,0,0,1-7.23,1.56c-.46.24-.91.51-1.35.75Z" transform="translate(96.89 167.39)" style="fill:#ba6422"/><path d="M587.26,385,584,381.27l-4.86-3.94-2.36-2.66-3.21-3.08-3.46-3.71-2-2.91-3.48-3.51-1.31-1.36,0-.18,1.65-1.26.83.33-.7-.4.68-.51,3.93-2.49,8.59-5.25,2.21-2.71,3.59-1.95,5.91-3,2.52-3.39,3.21-1.93a41.11,41.11,0,0,1,3.87,11.49c1.4,4.93-.36,10.22,1.51,15-.87,4.54-4,8.35-5.81,12.55-1.3,4.14-5.37,6-8,8.62Z" transform="translate(96.89 167.39)" style="fill:#bb803e"/><path d="M588.35,386.27l-1-1.16-.23-.25c1.27-1.5,2.39-3.24,3.71-4.76,3-1,2.63-5.14,4.85-5.92.73-3.85,1.41-8,4.08-11,.32-2.55-2-5.64.52-7.8a1.62,1.62,0,0,0,.26.39,7.87,7.87,0,0,0-1.53-2.86c.4-3.78-1.18-7.35-2.11-11.12a7.67,7.67,0,0,0-.93-4.6l2.17-1.31c6,13,6.43,29.12-1.51,41.39a33.86,33.86,0,0,1-7,8.19,13.3,13.3,0,0,0-1.25.8Z" transform="translate(96.89 167.39)" style="fill:#1e0e05"/><path d="M577.48,375.47l-.67-.79-3.21-3.09-3.46-3.71-2-2.91-3.48-3.51-1.31-1.36,0-.18,1.65-1.26.83.33-.7-.4.68-.51,3.93-2.49,8.59-5.25,2.21-2.71,3.59-1.94,4.32-2.23c2.83,7.3,2.46,15.9-.27,23.26a41.14,41.14,0,0,1-10.65,8.75Z" transform="translate(96.89 167.39)" style="fill:#ae5919"/><path d="M573.37,371.35l-3.23-3.47-2-2.91-3.48-3.51-1.31-1.36,0-.18,1.65-1.26.83.33-.7-.4.68-.51,3.93-2.49,8.59-5.25,2.21-2.71.26-.14c.87,1.32,1.77,2.64,2.7,4,1.94,4.94-.63,10-3.31,15.23a25,25,0,0,1-6.77,4.64Z" transform="translate(96.89 167.39)" style="fill:#ba6422"/><path d="M521.89,340.76c-2.49,4.13-2.31,9-3.45,13.55-2.17,4.46-.64,9.44.94,13.85,1.41,4.49,2.25,9.37,5.39,13.12.72.85,1.49,1.7,2.25,2.53l5.26-4.11,3.53-3.35,4.51-4,5.11-4.7,3.32-3.65,5-4.48,2.22-2.05,0-.1.14-.51,1-2.69L553,352.59l-4.39-1.31-6.95-3.15-5.45-1.54-2.43-1.14-3.63-1.89-8.29-2.8Z" transform="translate(96.89 167.39)" style="fill:#bb803e"/><path d="M520.61,340.32a37.68,37.68,0,0,0-3.34,10.84c-.23,4.37-.84,8.94.14,13.41a44.34,44.34,0,0,0,8.28,20.35l.16-.17,1.51-1.2a18.81,18.81,0,0,1-2-2.56c1.44-3.25-2.1-3.94-2.1-7.13a11.73,11.73,0,0,1-2.32-9.6c-1.57-1.74-2.4-5.91-.59-5.77.28-3.73-1.21-7.5.42-11.16.65-1.59,1.62-3.8,2.63-6.08l-2.63-.91-.14,0Z" transform="translate(96.89 167.39)" style="fill:#1e0e05"/><path d="M533.06,345.05a15.83,15.83,0,0,0-1,2.66c-1.54,6.79-4,13.7-1.07,20.38a20,20,0,0,0,4.83,8.32l0-.06,4.51-4,5.1-4.7,3.33-3.65,5-4.48,2.22-2.05,0-.1.14-.51,1-2.69L553,352.59l-4.39-1.31-6.95-3.15-5.45-1.54-2.43-1.14-.75-.4Z" transform="translate(96.89 167.39)" style="fill:#ae5919"/><path d="M537.61,347a9.31,9.31,0,0,0-1.2,3.64c-2.25,3.44-1.93,7.62,0,11.72,0,0,0,0,0,.05.34,2.81,2.11,6.25,4.69,9.34l4.36-4,3.32-3.65,5-4.48,2.22-2.05,0-.1.09-.26,1.7-1.28v-.05l-.17-1.41-.16-.07-1,1.84.74-2L553,352.59l-4.39-1.31-6.95-3.15L537.61,347Z" transform="translate(96.89 167.39)" style="fill:#ba6422"/><path d="M566.12,356.11l0-.05-.44-.3,1-.77-.37.17-.6.36-.18.11-.79-.53-.06-3.41-.11-9.91-.43-3.35.05-4,.09-6.5-.2-6.68-.44-8.19c4.29.35,8.67.14,12.73,1.64,4,1.13,7.29,3.48,10.88,5.64,2.68,3,5,6.26,7.93,9a61.65,61.65,0,0,1,3.78,7.75L597,338l-5.13,4-7.2,2.79-5.95,3.85-4.53,2.06-5.71,3.89-2.33,1.56Z" transform="translate(96.89 167.39)" style="fill:#bb803e"/><path d="M598.91,337c-.87-1.44-1.94-2.83-2.82-4.39,1.37-.15-1.37-2.85-1.83-2.84-2.51-3.39-3.68-6.95-7.72-8.43-2.6-2-3.34-4.59-6.9-4.39-3.2-2.72-7.12-2.5-10.5-2.44a22.48,22.48,0,0,0-5.53-.39l-.13-2.22v-.76c2.15-.33,4.41-.85,6.55-.05a38.27,38.27,0,0,1,19.35,8.38c-.58,4.32,5.58,2.8,6.61,6.74,1.36,3.46,4.26,6.05,5.55,9.55L598.91,337Z" transform="translate(96.89 167.39)" style="fill:#1e0e05"/><path d="M566.12,356.11l0-.05-.44-.3,1-.77-.37.17-.6.36-.18.11-.79-.53-.06-3.41-.11-9.91-.43-3.35.05-4,.09-6.5-.09-2.42a17.8,17.8,0,0,1,4.89.91c6.42-1.59,10,2.95,15.35,5.76a23.45,23.45,0,0,1,6.67,10.1l-6.36,2.46-5.95,3.85-4.53,2.06-5.71,3.89-2.33,1.56Z" transform="translate(96.89 167.39)" style="fill:#ae5919"/><path d="M564.71,357.09l0-.52.72-.61.54.3-1.23.83Z" transform="translate(96.89 167.39)" style="fill:#ba6422"/><path d="M564.65,356.19v-.66l.49.3-.5.36Z" transform="translate(96.89 167.39)" style="fill:#ba6422"/><path d="M566.12,356.11l0-.05-.44-.3,1-.77-.37.17-.6.36-.18.11-.79-.53-.06-3.41-.11-9.91-.43-3.35.05-4,0-2.56c9.82-2.39,14.08,4.95,18.68,14.06l-4.12,2.66-4.53,2.06-5.71,3.89-2.33,1.56Z" transform="translate(96.89 167.39)" style="fill:#ba6422"/><path d="M564.2,356.11l-3.5-1.94-3.93-2.36-8.53-3.32-2.91-2.26-4.83-.6-4.62-3.4-6.49-2.85-2.39-.95a55,55,0,0,1,5.2-9c3.31-3.34,5.47-8.28,10.47-9.4,5.18-1.19,9.18-5.65,14.8-5.29l1.2.07.89,4.75.79,9.46.66,4.21,1,5.36.31,6.76.66,4.88Z" transform="translate(96.89 167.39)" style="fill:#bb803e"/><path d="M527.45,338.61l-2.23-.88a36.65,36.65,0,0,1,6-10.49c.66-.92,4.39-5.15,3-3.07,3.18-2.91,7.79-4.11,11.13-6.14,1.68-4,6.58-3.93,10.25-4.93a6,6,0,0,0,2.76.18l.5,2.8-2.3.29c-5.25-.53-8.77,2.56-13.23,4.58-5,3.55-9.68,7.79-12.64,13.26a23.59,23.59,0,0,0-3.29,4.4Z" transform="translate(96.89 167.39)" style="fill:#1e0e05"/><path d="M564.2,356.11l-3.5-1.94-3.93-2.36-8.53-3.32-2.91-2.26-4.83-.6-3.11-2.28a26.45,26.45,0,0,1,8-9.25c4.65-3.05,9.41-6,14.78-6.76l.14,1.65.66,4.21,1,5.36.31,6.76.66,4.88,1.2,5.91Z" transform="translate(96.89 167.39)" style="fill:#ae5919"/><path d="M564.2,356.11l-3.5-1.94-3.93-2.36-8.53-3.32-2.91-2.26-1.52-.21c3-7,9.08-13.35,17.09-11.94l.14,0,.14-.07.85,4.57.31,6.76.66,4.88,1.2,5.91Z" transform="translate(96.89 167.39)" style="fill:#ba6422"/><path d="M498.66,353.31a3.9,3.9,0,0,0-2.88-.31,32,32,0,0,0-7.63-2.05,38.24,38.24,0,0,0-14.55-2.18V348l0-.23-.06-.83v-1.12a52.9,52.9,0,0,0-11.75,4.52,37.38,37.38,0,0,0-5.2,3.29s0,0,0,0-.11.05-.15.09c-6.61,3.74-11.87,9.44-15.77,17-.59,1.15-1.12,2.28-1.6,3.43l-.95-.32a38.09,38.09,0,0,0-2,6.27c-.12,3.37-1.56,7-.56,10.25a3,3,0,0,1,.38.51c0,.69,0,1.38.11,2.08-.35.87-.92,1.72-.33,3a11.23,11.23,0,0,0,.17,1.95c.74,4.39,4,7.88,4.55,12.34a60.27,60.27,0,0,0,7.91,9.74,45.77,45.77,0,0,0,9.56,6.61l1.12-2,.51.26-.57,2a35.07,35.07,0,0,0,10.17,3.14,26.91,26.91,0,0,0,13.07-.33,38.89,38.89,0,0,0,15.57-5.54l-1.3-1.62-.06-.09c.28-.18.55-.39.83-.58l1.09,1.62,1.08,1.62a29.45,29.45,0,0,0,5.83-4c2.28-3.53,6.37-4.77,8.24-8.71A52.74,52.74,0,0,0,520,399.32a37.53,37.53,0,0,0,1.16-19.1c0-.51-.1-1-.18-1.53l-.68-.14-2.7.91-3.21,1.07s0,0,0-.07l3.62-2.29,2.91-1.81c-.54-1.42-1.16-2.82-1.81-4.17a38.13,38.13,0,0,0-13-14.57c-3,.56-4.9-3-7.49-4.31Z" transform="translate(96.89 167.39)" style="fill:#50260e"/><path d="M510.37,406.36q7.85-15.32,2.81-30.48a37.22,37.22,0,0,0-18.94-22.29q-15.39-7.89-30.58-3t-23.05,20.18q-7.78,15.21-3,30.36T457.56,424q15.12,7.74,30,2.76t22.79-20.41Z" transform="translate(96.89 167.39)" style="fill:#1e0e05"/><path d="M436.58,397.16c.53,2.25,2.53,3.77,3.14,6,1.29,5.06,4.7,8.84,7.25,13.17s6.71,6.82,11.41,8.27c.14.1.29.16.43.26l1.14-1.95.88-5.17,1.72-4.26,2.72-7.44,1.34-4.73,3-6.13,1.81-3.75-4.9,1.14,1.44-.55,3.36-1.15-3.61-2.08-3-1.43-6.58-3-1.82-1.74-2.7-1.05-4.58-3.4-3.77-1.62-5.24-2a13.48,13.48,0,0,1-.86,1.89c-3.2,2.35.65,7.62-2.35,10.74,1.56,2.75.24,6.64-.19,10Z" transform="translate(96.89 167.39)" style="fill:#bb803e"/><path d="M435.82,398c.74,4.39,4,7.86,4.54,12.32a59.66,59.66,0,0,0,7.93,9.77,45.31,45.31,0,0,0,9.55,6.58l1.75-3.06c-2.19-1.29-4.52-.55-6.54-2.27-1.37-2.2-4.66-4-5.34-5.38.48-3.34-4.34-4.87-4.52-7,.31-2.75-3.49-5.32-3-7.3.29-1.94-2.61-2.22-2.43-4.81-.65-2.81,2.44-4.89.47-7.65-1.61-1.66-.44-2.37.51-2.69-1-2.75,2.37-5.49-.37-7.78-.21-2.58,2.7-.36,3-3.53v-.05l-2.33-.87-1-.35a37.2,37.2,0,0,0-2,6.28c-.13,3.37-1.57,6.94-.57,10.22,2,2.34-.93,3.22.17,5.66a10.3,10.3,0,0,0,.17,1.94Z" transform="translate(96.89 167.39)" style="fill:#1e0e05"/><path d="M451,396.4c.53,1.28,2.69-.15,2.67,1.39,1.21,5.91,4.47,11.27,9.6,13.85l2-5.58,1.34-4.73,3-6.13,1.81-3.75-4.9,1.14,1.44-.55,3.36-1.15-3.61-2.08-3-1.43-6.58-3-1.82-1.74-2.7-1.05-.72-.54A132.33,132.33,0,0,0,451,396.4Z" transform="translate(96.89 167.39)" style="fill:#ae5919"/><path d="M457.59,394.22c3.2,2.27,3.4,7.14,6.69,9.61.44.34.87.67,1.33,1l1-3.46,3-6.13,1.81-3.75-4.9,1.14,1.44-.55,3.36-1.15-3.61-2.08-3-1.43-6.05-2.74c-.48,3.26-.63,6.57-1,9.58Z" transform="translate(96.89 167.39)" style="fill:#c06926;opacity:0.694323122501373;isolation:isolate"/><path d="M443.91,375.93l2.45.76,6.09.88,3.32,1.3,4.05,1.94,4.67,2,3.43.9,4.49,2,2.85,1.27-.57-.3,1.46.53,1.37.55-.2-5.58-.57-4.65-1.37-9.95.69-3.44-.76-4-1.37-6.52-.38-5.93a37.14,37.14,0,0,0-5.18,1.57c-5,1.3-8.61,5.51-13.72,6.34-3.46,3.07-5.16,7.69-7.85,11.39C444.51,369.57,444.33,372.87,443.91,375.93Z" transform="translate(96.89 167.39)" style="fill:#bb803e"/><path d="M442,375.38l2.9.85c-.19-2.51,1-4.09,2.36-7.24.79-3.41,3.76-5.81,5.55-8.88.94-2.35,1.29-4.55,4.06-3.62,2.56-1.57,7-3.1,8-4.69-2.22-.41,3.12.05,3.31-1.43a45.73,45.73,0,0,1,5.48-1.17l-.16-2.31v-1.11a53.11,53.11,0,0,0-11.78,4.51A40.15,40.15,0,0,0,442,375.38Z" transform="translate(96.89 167.39)" style="fill:#1e0e05"/><path d="M457.53,379.68l2.29,1.13,4.67,2,3.43.9,4.49,2,2.85,1.27-.57-.3,1.46.53,1.37.55-.2-5.58-.57-4.65-1.37-9.95.69-3.44-.76-4-.45-2.16a32.91,32.91,0,0,0-14.78,9.61,38.22,38.22,0,0,0-2.55,12.06Z" transform="translate(96.89 167.39)" style="fill:#ae5919"/><path d="M463.72,382.45l.77.32,3.43.9,4.49,2,2.85,1.27-.57-.3,1.46.53,1.37.55-.2-5.58-.57-4.65-1.37-9.95.48-2.25a20.42,20.42,0,0,0-8.31,4.85c-3,3.38-3.8,7.77-3.83,12.28Z" transform="translate(96.89 167.39)" style="fill:#c06926;opacity:0.694323122501373;isolation:isolate"/><path d="M498.25,423.57c4.11-1.87,6.84-5.55,10.34-8.33,4.45-2.2,6.28-7.08,7.72-11.53,1.63-4.42,4-8.78,3.76-13.67a73.27,73.27,0,0,0-1.32-10.94l-8.06,2.62-4.71,1.9-4.74,1.14-6.49,2.37-4.55,2.14-6.09,2.41-5.42,1.43.71,1.21.13.17.6,1,2.72,3.73,4.4,7.95,2.52,3.31,2.62,3.1,2.79,5.47Z" transform="translate(96.89 167.39)" style="fill:#bb803e"/><path d="M499.34,425.19a29.08,29.08,0,0,0,5.83-4c2.28-3.53,6.37-4.76,8.24-8.71A52.74,52.74,0,0,0,520,399.32a37.41,37.41,0,0,0,1.15-19.1c0-.51-.09-1-.17-1.53l-.68-.13-2.7.9c.14.72.28,1.42.45,2.15.09,4.25,2.17,9.43,0,12.78,1.72,3.39-4.07,5.69-2.68,10-1.14,2.1-3.3,3.85-3.37,6.79-1.69,2.68-4.6,2.42-6.85,5.58-2.51,2.06-4.41,5.5-7.69,5.64l1.88,2.78Z" transform="translate(96.89 167.39)" style="fill:#1e0e05"/><path d="M490.79,411.71l.32-.21c5.27-4,11.25-7.49,13.24-14.08a20.2,20.2,0,0,0,.78-13.59l-3.89.93-6.49,2.37-4.55,2.14-6.09,2.41-5.42,1.43.71,1.21.13.17.6,1,2.72,3.73,4.4,7.95,2.52,3.31Z" transform="translate(96.89 167.39)" style="fill:#ae5919"/><path d="M486.57,405.92a20.83,20.83,0,0,0,11.8-13.58,17.46,17.46,0,0,0-.08-6.49l-3.54,1.28-4.55,2.14-6.09,2.41-5.42,1.43.71,1.21.13.17.6,1,2.72,3.73Z" transform="translate(96.89 167.39)" style="fill:#c06926;opacity:0.694323122501373;isolation:isolate"/><path d="M477.26,392.57l1.77-3.74-.08.36-.24.72-1.1,2.93,2.07-.75,4.2-1.71,9.21-3.77,3.29-.7H500l5.12-2.9,8.5-2,5.57-3.58a29.58,29.58,0,0,0-3.58-8.18c-2.1-3.57-5.22-6.21-8.21-9.13-3.57-1.84-7.38-3.29-10.75-5.4A54.68,54.68,0,0,0,481,352.64l-1.34,3.41.17,5.42,1.38,5.48-2.45,7.54,1.13,4.41-1.3,6.78-1.33,6.89Z" transform="translate(96.89 167.39)" style="fill:#bb803e"/><path d="M480.45,354a6.69,6.69,0,0,0,1.73-.53c3.62.63,7.63.55,11.27,2,2.61.61,4.91.11,6.66,2.58,2.1,1.68,4.65,2.59,6.43,1.91-1.42,3.79,4.46,2.95,4.88,5.55-.4,1.7,2.94,4.63,3.33,4.56,2.09,2.55,2.1,5.43,3.23,8.15l2.92-1.84c-.53-1.42-1.14-2.78-1.79-4.14a38.17,38.17,0,0,0-13-14.56c-4,.73-6-5.79-10.36-4.66a34.11,34.11,0,0,0-14-2.38l-1.34,3.4Z" transform="translate(96.89 167.39)" style="fill:#50260e"/><path d="M477.26,392.57l1.77-3.74-.08.36-.24.72-1.1,2.93,2.07-.75,4.2-1.71,9.21-3.77,3.29-.7H500l5.12-2.9.87-.22a17,17,0,0,0-1.29-2.6c.2-6.25-4.72-8.7-8.37-13.07a23.06,23.06,0,0,0-16.08-4.23l1,4.05-2.45,7.54,1.13,4.41-1.3,6.79-1.33,6.88Z" transform="translate(96.89 167.39)" style="fill:#ae5919"/><path d="M477.26,392.57l1.77-3.74-.08.36-.24.72-1.1,2.93,2.07-.75,4.2-1.71,9.21-3.77,3.29-.7h3.34a21.17,21.17,0,0,0-3.28-8.14c-3.47-5.74-10-8-16.3-7.53l-1.38,4.24,1.13,4.41-1.3,6.78-1.33,6.89Z" transform="translate(96.89 167.39)" style="fill:#c06926;opacity:0.694323122501373;isolation:isolate"/><path d="M473.23,384.89l-1.32,4.05-1.23,4.37-2.53,9.6L466.69,406l-.93,3.87-1.86,5.49-3.41,6.2-.95,3.26c1.26.62,2.54,1.17,3.85,1.68,4.6,1,9.09,4,13.9,2.23,5-1.81,10.79-.22,15.31-3.57a42.39,42.39,0,0,1,3.8-2.52l-1.69-2.09L490,414.08l-1.86-4.72L483.73,404l-1.52-5.35-4.4-4.92-3.09-5.93-1.49-2.92Z" transform="translate(96.89 167.39)" style="fill:#bb803e"/><path d="M459.87,423.59l-1,3.36a35.36,35.36,0,0,0,10.17,3.17,26.87,26.87,0,0,0,13-.34,39.2,39.2,0,0,0,15.59-5.58l-2-2.46c-3.56,1.06-5.28,5-9.37,4.45-3-.13-5.29.91-9,1-3.44,2.92-7-1-10.87-.86,1.89.18,4.72,1.12,1.19.33a27.08,27.08,0,0,1-7.77-3.06Z" transform="translate(96.89 167.39)" style="fill:#1e0e05"/><path d="M473.23,384.89l-1.32,4.05-1.23,4.37-2.53,9.6L466.69,406l-.93,3.87-.59,1.68a26,26,0,0,0,6.41,1.45c5.89.31,11.87.51,17-2.32l-.48-1.29L483.73,404l-1.52-5.35-4.4-4.92-3.09-5.93-1.49-2.92Z" transform="translate(96.89 167.39)" style="fill:#ae5919"/><path d="M473.23,384.89l-1.32,4.05-1.23,4.37-2.53,9.6-.84,1.79a22.64,22.64,0,0,0,17.14.19l-.72-.88-1.52-5.35-4.4-4.92-3.09-5.93-1.49-2.92Z" transform="translate(96.89 167.39)" style="fill:#c06926;opacity:0.694323122501373;isolation:isolate"/><path d="M550.09,261.7c-10.75-4.51-24.4-2.59-32.17,6.44-13,11.87-11.51,35.42,3.72,44.58,8.21,5.86,19.79,7.11,28.43,2.52,17.22-6.86,23.71-32.58,10.14-46.06a35.79,35.79,0,0,0-10.12-7.48Zm-7.18,7c-2.37,4.45-1.68,12.46-6.18,14.52-5.88-.61-14.54.59-18.61-.89A15.82,15.82,0,0,1,525,272.06c1.73-2.69,5.23-2.84,7.41-4.8a29.27,29.27,0,0,1,10.76.47l-.23.93Zm10.87,5c5.27,5.33,9,13.37,5,20.72-.65,2.22-2.18,8-4.51,3.33s-12.67-8.59-6.58-14.11c1.93-3.12,3.85-7.8,6-9.94Zm-15.83,20c1.19,5.18,7.39,11.67,5.94,16.14-5.29,1.59-10.7.46-15.73-1.92-3.5-.69-5.17-5.13-8.08-6.58.82-3.48,8.59-3.56,11.79-5.75C533.67,295.34,536.51,293,538,293.59Z" transform="translate(96.89 167.39)" style="fill:#1e0e05"/><path d="M550.57,264.44c-1.39-.64-3-.2-4.43-.79-3.18-1.37-6.55-1.11-9.85-1.52s-6.3.77-9,2.65c-3.28,1-5.2,3.86-7.8,5.91-2.94,1.46-4.16,4.69-5.11,7.65s-2.62,5.82-2.49,9.06a50.92,50.92,0,0,0,.73,6.37l5.59-1.4,3.48-.59,3.43.07,7.3-2.19,2.57-1.22,5.25-.73,1.36-2.66.85-1.93,3.15-7,.37-1.68,3.5-7.1,1.25-2.71c-.06-.06-.12-.14-.19-.2Zm.8.87-1.06,2.2-3.21,6-2,5.14-1.43,2.86-2.94,6.15,1.3-.18-1.38.35-1,1.56-.38.55.2-.82.59-1.14-5.3,1.38L531.76,291l-1.51.18-2.69.92-8.25,2.3-3.12.65-3.23.5c.17.71.37,1.41.59,2.1,1.36,2.81,1.65,6.38,4.55,8.15s4.55,5.53,8.15,6.51c3.38.86,6.47,2.75,10,3,2.72.38,5.38-.15,8.13-.49,2.43-1.1,4.75-2.48,7.23-3.36.38-.27.73-.55,1.1-.84l-.2-.36-1.69-3.26-2-4.33-3.12-5.16-1-1.16-3.56-6.56c3.14,5,2.54,4.11,3.49,5.53l.5,1,1.44,1.59,1.1,1.59,3.77,5.88,1.73,2.9.72,1.28a29.52,29.52,0,0,0,7.67-9.33c1.84-2.86,1.74-6.55,3.86-9.24.31-3.05-.93-6.07-1.28-9.09,0-3.17-2.72-5.23-3.75-7.71,0-2.64-4.27-2.75-4.7-5.58-1.73-.25-3.07-1.83-4.37-3.26Z" transform="translate(96.89 167.39)" style="fill:#bb803e"/><path d="M545.17,272.29c-.88-.24-1,1.47-1.8.84-4-1.94-8.65-2.29-12.25,0-3.49,2.63-7.45,5-8.77,9.34a13.45,13.45,0,0,0-.45,9.29l3.26.05,7.3-2.19,2.57-1.22,5.25-.73,1.36-2.66.85-1.93,3.15-7,.37-1.68.46-1-1.3-1.2Zm1.77,1.65-1.8,4.69-1.43,2.86-2.94,6.15,1.3-.18-1.38.35-1,1.56-.38.55.2-.82.59-1.14-5.3,1.38L531.76,291l-1.51.18-2.69.92-5.07,1.42a16,16,0,0,0,1.46,2.86c2.82,4,5.77,8,11.11,8.73,3.17,2.68,6.46,1.14,10.24,1.05a14.71,14.71,0,0,0,4.26-1.91l-.73-1.61-3.12-5.16-1-1.16-3.56-6.56c3.14,5,2.54,4.11,3.49,5.53l.5,1,1.44,1.59,1.1,1.59,2.65,4.14c4.79-3.67,7.18-10.07,7.08-16.09-2-5.4-6.23-9.61-10.51-13.57Z" transform="translate(96.89 167.39)" style="fill:#ae5919"/><path d="M543.64,276.66c-2.48.76-5.13-1.1-7.75-.38a13.81,13.81,0,0,0-9.58,9.6,11.68,11.68,0,0,0,.38,5.52l5.77-1.74,2.57-1.22,5.25-.73,1.36-2.66.85-1.93,2.38-5.27-1.23-1.19Zm1.66,1.59-.16.38-1.43,2.86-2.94,6.15,1.3-.18-1.38.35-1,1.56-.38.55.2-.82.59-1.14-5.3,1.38L531.76,291l-1.51.18-2.69.92-.58.16a15.33,15.33,0,0,0,12.72,9.58,10.31,10.31,0,0,0,7.43-2l-1.42-2.35-1-1.16-3.56-6.56c3.14,5,2.54,4.11,3.49,5.53l.5,1,1.44,1.59,1.06,1.53a13.85,13.85,0,0,0,5-9.79c-.06-4.76-4-8.19-7.36-11.36Z" transform="translate(96.89 167.39)" style="fill:#c06926;opacity:0.694323122501373;isolation:isolate"/><path d="M488.24,268.46c-3.94-2.09-8.68-1.61-12.54-3.92a60.1,60.1,0,0,0-12.58.31,45.46,45.46,0,0,0-11,3.55l.81,1.85.71,1.75c-.92.56-1.81,1.13-2.67,1.77l-1.72-2-2.14-2.59a29.49,29.49,0,0,0-5.38,4.59c-1.92,3.74-5.86,5.38-7.32,9.5A53.17,53.17,0,0,0,429.13,297a37.41,37.41,0,0,0,.82,19.1c.1.5.17,1,.3,1.48l.7.09,1.47-.68.9-.39.21-.11,2.83-1.26,0,.13L435,316l-3.11,1.6a35.49,35.49,0,0,0,4.69,9.59,26.76,26.76,0,0,0,9.15,9.26A39.3,39.3,0,0,0,460.46,344l.29-2,.21-1.65c.61.22,1.2.43,1.82.61l.17,4.13,0,2.1c1.5.27,3,.47,4.49.6a38.05,38.05,0,0,0,19.14-3.66c1.44-3.84,8.08-2.15,9.35-6.49a33.77,33.77,0,0,0,9.17-10.73l-1-1.3,1.68,1.6.76.82a53.51,53.51,0,0,0,5.62-11.28,40.23,40.23,0,0,0-2.44-31.85l-2.71,1.33-.77.35c-.23-.45-.49-.9-.75-1.34l.47-.29a37.43,37.43,0,0,0-3.79-5.4c-2.59-2.16-4.55-5.48-7.76-6.69a2.7,2.7,0,0,1-1.27-.23c-.18-.12-.38-.23-.57-.34-.9-.83-.92-2.31-2.75-2.74a9.73,9.73,0,0,0-1.64-1.06Z" transform="translate(96.89 167.39)" style="fill:#50260e"/><path d="M439.59,287.75q7.47-14.56,22-19.1a35.41,35.41,0,0,1,27.74,2.23q14.64,7.5,19.33,21.94t-2.78,29q-7.41,14.46-21.78,19.17t-28.76-2.66Q440.93,331,436.5,316.69t3.09-28.94Z" transform="translate(96.89 167.39)" style="fill:#1e0e05"/><path d="M488.22,269.92c-2.11-1-4.53-.3-6.69-1.19-4.8-2.07-9.87-1.67-14.86-2.29s-9.5,1.15-13.51,4c-.16.05-.3.13-.46.18l.85,2.09,3.56,3.85,2.34,4,4.24,6.7,2.94,4,3.06,6.09,1.87,3.73,2.08-4.58-.44,1.48-1.13,3.36,3.85-1.59,3-1.52,6.37-3.38,2.49-.38,2.47-1.5,5.49-1.55,3.58-2,4.8-2.92a12,12,0,0,1-1-1.83c.08-4-6.44-4.14-7.09-8.42-3.14-.45-5.42-3.87-7.79-6.23Z" transform="translate(96.89 167.39)" style="fill:#bb803e"/><path d="M488,268.82c-3.94-2.09-8.68-1.61-12.54-3.92a60.11,60.11,0,0,0-12.58.31,45.39,45.39,0,0,0-11,3.55l1.36,3.26c2.35-.95,3.19-3.25,5.79-3.8,2.57.26,6-1.23,7.51-.94,2.36,2.42,6.5-.47,8.33.7,2,1.93,6.35.49,7.61,2.1,1.36,1.41,3.35-.72,5.29,1,2.63,1.21,2.4,4.93,5.79,5,2.3-.25,2.15,1.11,1.82,2.06,2.8.88,2.92,5.22,6.41,4.45,2.17,1.41-1.37,2.36,1,4.5l0,0,2.11-1.31.87-.56a37.37,37.37,0,0,0-3.78-5.4c-2.6-2.16-4.55-5.48-7.77-6.69-3.07.16-2-2.7-4.59-3.31a9.73,9.73,0,0,0-1.64-1.06Z" transform="translate(96.89 167.39)" style="fill:#1e0e05"/><path d="M480.07,281.77c-1.33-.37-1.51,2.21-2.72,1.26-5.43-2.64-11.67-3.34-16.83-.85l3.17,5,2.94,4,3.06,6.09,1.87,3.73,2.08-4.58-.44,1.48-1.13,3.36,3.85-1.59,3-1.52,6.37-3.38,2.49-.38,2.47-1.5.87-.25a132.6,132.6,0,0,0-11-10.85Z" transform="translate(96.89 167.39)" style="fill:#ae5919"/><path d="M477.76,288.35c-3.74,1.15-7.73-1.66-11.7-.56-.53.14-1.05.28-1.57.47l2.14,2.9,3.06,6.09,1.87,3.73,2.08-4.58-.44,1.48-1.13,3.36,3.85-1.59,3-1.52,5.86-3.11c-2.3-2.37-4.83-4.51-7-6.67Z" transform="translate(96.89 167.39)" style="fill:#c06926;opacity:0.694323122501373;isolation:isolate"/><path d="M507.8,286.15l-2.33,1.1-5.07,3.46L497.08,292l-4.3,1.31L488,295l-3.14,1.64-4.68,1.54-2.95,1,.61-.16-1.42.6-1.39.51,3.93,4,3.56,3.05,7.74,6.41,1.82,3,3.24,2.41,5.41,3.89L505,327a37.44,37.44,0,0,0,2.76-4.65c2.77-4.31,2.62-9.88,5.81-13.95.48-4.6-1.4-9.15-1.93-13.7C511.65,291.25,509.55,288.7,507.8,286.15Z" transform="translate(96.89 167.39)" style="fill:#bb803e"/><path d="M509.59,285.26l-2.71,1.33c1.83,1.73,2,3.7,3.16,6.94,1.72,3.05,1.16,6.82,1.92,10.29.9,2.38,2.13,4.23-.54,5.42-.82,2.89-3.06,7-2.73,8.87,1.9-1.19-2.34,2.07-1.48,3.29A43.61,43.61,0,0,1,504,326l1.68,1.61.76.81A53.43,53.43,0,0,0,512,317.11a40.23,40.23,0,0,0-2.44-31.85Z" transform="translate(96.89 167.39)" style="fill:#1e0e05"/><path d="M495.23,292.59l-2.45.71L488,295l-3.14,1.64-4.68,1.54-2.95,1,.61-.16-1.42.6-1.39.51,3.93,4,3.56,3.05,7.74,6.41,1.82,3,3.24,2.41,1.79,1.29a32.9,32.9,0,0,0,4.38-17.08A38.37,38.37,0,0,0,495.23,292.59Z" transform="translate(96.89 167.39)" style="fill:#ae5919"/><path d="M488.8,294.72,488,295l-3.14,1.64-4.68,1.54-2.95,1,.61-.16-1.42.6-1.39.51,3.93,4,3.56,3.05,7.74,6.41,1.17,2a20.33,20.33,0,0,0,2.84-9.19C494.23,301.83,491.83,298.07,488.8,294.72Z" transform="translate(96.89 167.39)" style="fill:#c06926;opacity:0.694323122501373;isolation:isolate"/><path d="M448.14,271c-3.89,2.27-6.24,6.21-9.45,9.32-4.2,2.64-5.52,7.68-6.51,12.25-1.17,4.56-3,9.14-2.35,14a73.4,73.4,0,0,0,2.42,10.76l7.75-3.43,4.49-2.36,4.6-1.61,6.21-3,4.32-2.59,5.81-3,5.25-2-.83-1.14-.14-.16-.71-.93-3.08-3.45-5.18-7.46-2.84-3L455,280.36l-3.33-5.17Z" transform="translate(96.89 167.39)" style="fill:#bb803e"/><path d="M446.89,269.52a29,29,0,0,0-5.39,4.56c-1.91,3.73-5.86,5.38-7.32,9.49A53.21,53.21,0,0,0,429,297.34a37.58,37.58,0,0,0,.79,19.12c.1.51.2,1,.33,1.5l.69.07,2.59-1.17c-.21-.7-.42-1.39-.66-2.09-.53-4.22-3.11-9.16-1.3-12.71-2.05-3.2,3.48-6.08,1.65-10.24.93-2.21,2.9-4.16,2.67-7.09,1.41-2.84,4.33-2.88,6.26-6.25,2.28-2.3,3.83-5.92,7.08-6.39l-2.16-2.57Z" transform="translate(96.89 167.39)" style="fill:#1e0e05"/><path d="M456.76,282.07l-.3.24c-4.84,4.48-10.43,8.58-11.74,15.34a20.27,20.27,0,0,0,.59,13.61l3.78-1.32,6.21-3,4.32-2.59,5.81-3,5.25-2-.83-1.14-.14-.16-.71-.93-3.08-3.45-5.18-7.46-2.84-3Z" transform="translate(96.89 167.39)" style="fill:#ae5919"/><path d="M461.55,287.4a20.88,20.88,0,0,0-10.38,14.71,17.33,17.33,0,0,0,.75,6.44l3.38-1.62,4.32-2.59,5.81-3,5.25-2-.83-1.14-.14-.16-.71-.93-3.08-3.45-4.37-6.28Z" transform="translate(96.89 167.39)" style="fill:#c06926;opacity:0.694323122501373;isolation:isolate"/><path d="M471.22,301.77l2.3,3.43-.26-.24-.5-.58-1.95-2.45-.41,2.16-.69,4.48-1.48,9.83-1.08,3.19-1.84,3.06-.13,5.89-2.65,8.3.22,6.62a29.55,29.55,0,0,0,8.86,1.14c4.14,0,8-1.29,12.05-2.35,3.41-2.12,6.61-4.64,10.14-6.45a54.14,54.14,0,0,0,9.81-12.3l-2.24-2.91L496.62,320l-5.41-1.62-5.23-6-4.37-1.3-5.16-4.6-5.23-4.68Z" transform="translate(96.89 167.39)" style="fill:#bb803e"/><path d="M502.71,324.33a6.84,6.84,0,0,0-.42,1.76c-2.39,2.78-4.38,6.26-7.45,8.66-1.87,1.92-2.61,4.14-5.64,4.38-2.51.93-4.59,2.65-4.93,4.53-2.52-3.16-4.81,2.31-7.26,1.34-1.26-1.22-5.49.14-5.62.51-3.26.48-5.74-1-8.66-1.42l.09,3.45c1.49.27,3,.45,4.47.59a38.16,38.16,0,0,0,19.16-3.65c1.43-3.84,8-2.15,9.3-6.49a33.94,33.94,0,0,0,9.2-10.75Z" transform="translate(96.89 167.39)" style="fill:#1e0e05"/><path d="M471.22,301.77l2.3,3.43-.26-.24-.5-.58-1.95-2.45-.41,2.16-.69,4.48-1.48,9.83-1.08,3.19-1.84,3.06-.13,5.89-.26.86a16.93,16.93,0,0,0,2.89.22c5.28,3.39,9.9.43,15.52-.46a22.93,22.93,0,0,0,11.87-11.61l-4-1.22-5.23-6-4.37-1.3-5.16-4.6-5.23-4.68Z" transform="translate(96.89 167.39)" style="fill:#ae5919"/><path d="M471.22,301.77l2.3,3.43-.26-.24-.5-.58-1.95-2.45-.41,2.16-.69,4.48-1.48,9.83-1.08,3.19-1.72,2.85a21.17,21.17,0,0,0,8.67,1.38c6.71,0,12-4.42,14.82-10.12L486,312.35l-4.37-1.3-5.16-4.6-5.23-4.68Z" transform="translate(96.89 167.39)" style="fill:#c06926;opacity:0.694323122501373;isolation:isolate"/><path d="M472.17,299.69l-3.85,1.81-4,2.09-8.73,4.73-3.24,1-3.46,2-5.28,2.4-6.86,1.75-3,1.53c.41,1.34.89,2.66,1.41,3.95,2.42,4.05,3.33,9.36,7.91,11.66,4.74,2.4,7.56,7.7,13.09,8.71a40.25,40.25,0,0,1,4.44,1l.37-2.66,1.45-7.85,2.18-4.59.89-6.84,2.86-4.77.57-6.57,2.21-6.31,1.1-3.08Z" transform="translate(96.89 167.39)" style="fill:#bb803e"/><path d="M434.79,316.43l-3.1,1.6a35.21,35.21,0,0,0,4.65,9.56,26.82,26.82,0,0,0,9.19,9.27,39.24,39.24,0,0,0,14.75,7.54l.41-3.16c-3.22-1.86-7.27-.42-9.67-3.78-2-2.31-4.29-3.23-6.88-5.87-4.49-.5-4.06-5.76-6.83-8.51,1.17,1.5,2.42,4.21.58,1.1a26.89,26.89,0,0,1-3.1-7.75Z" transform="translate(96.89 167.39)" style="fill:#50260e"/><path d="M472.17,299.69l-3.85,1.81-4,2.09-8.73,4.73-3.24,1-3.46,2-1.63.71a25.39,25.39,0,0,0,3.34,5.66c3.81,4.51,7.77,9,13.36,10.81l.61-1.24.89-6.84,2.86-4.77.57-6.57,2.21-6.31,1.1-3.08Z" transform="translate(96.89 167.39)" style="fill:#ae5919"/><path d="M472.17,299.69l-3.85,1.81-4,2.09-8.73,4.73-1.89.61a22.61,22.61,0,0,0,11.61,12.6l.15-1.11,2.86-4.77.57-6.57,2.21-6.31,1.1-3.08Z" transform="translate(96.89 167.39)" style="fill:#c06926;opacity:0.694323122501373;isolation:isolate"/><polygon points="489.13 638.47 489.13 654.26 475.34 721.78 439.59 752.27 341.55 752.27 326.74 736.48 326.74 691.29 333.89 631.39 376.27 600.89 403.85 600.89 431.93 586.19 461.04 601.44 474.83 630.84 489.13 638.47" style="fill:#191201"/><path d="M388.15,486.87V473.8l-13.27-7.08-13.79-29.4-7.15-3.81-38.3,33.76c-8.17,5.44-16.85,9.25-26.55,9.8a10.49,10.49,0,0,1-4.09-.55l-3.06,4.91-1.53,2.17,56.68,61,46.47-35.39Z" transform="translate(96.89 167.39)" style="stroke:#c0c906;stroke-miterlimit:10;fill:url(#l)"/><polygon points="478.91 683.12 436.53 715.25 450.32 737.57 471.25 719.6 478.91 683.12" style="stroke:#c0c906;stroke-miterlimit:10;fill:url(#m)"/><polygon points="446.74 740.29 432.95 717.42 354.31 747.92 438.06 747.92 446.74 740.29" style="stroke:#c0c906;stroke-miterlimit:10;fill:url(#n)"/><polygon points="343.08 747.37 379.85 733.22 344.61 695.64 338.99 743.56 343.08 747.37" style="stroke:#c0c906;stroke-miterlimit:10;fill:url(#o)"/><polygon points="330.82 734.3 335.42 739.75 341.04 690.2 371.17 652.08 337.46 635.75 330.82 691.29 330.82 734.3" style="stroke:#c0c906;stroke-miterlimit:10;fill:url(#p)"/><polygon points="429.89 714.16 374.74 654.26 346.14 690.74 384.44 731.58 429.89 714.16" style="stroke:#c0c906;stroke-miterlimit:10;fill:url(#q)"/><polygon points="340.02 631.93 373.72 648.27 375.76 646.09 404.36 605.25 377.8 605.25 340.02 631.93" style="stroke:#c0c906;stroke-miterlimit:10;fill:url(#r)"/><path d="M335,423.16l-19.4,10.35-27.58,39.2c9.2-.54,17.37-3.81,25-8.71l36.76-32.67Z" transform="translate(96.89 167.39)" style="stroke:#c0c906;stroke-miterlimit:10;fill:url(#s)"/><path d="M734.67,434" transform="translate(96.89 167.39)" style="fill:#fff"/><path d="M660.67,584.33" transform="translate(96.89 167.39)" style="fill:#fff"/><path d="M75.33,561" transform="translate(96.89 167.39)" style="fill:url(#t)"/></svg>