<svg xmlns="http://www.w3.org/2000/svg" xmlns:xlink="http://www.w3.org/1999/xlink" viewBox="0 0 2463.49 843.38"><defs><linearGradient id="a" x1="215.12" y1="779.94" x2="636.67" y2="49.79" gradientTransform="matrix(1, 0, 0, -1, 0, 844)" gradientUnits="userSpaceOnUse"><stop offset="0" stop-color="#e83f23"/><stop offset="0.36" stop-color="#e6970c"/><stop offset="0.57" stop-color="#e5c500"/><stop offset="0.65" stop-color="#e5c100"/><stop offset="0.72" stop-color="#e5b501"/><stop offset="0.8" stop-color="#e5a203"/><stop offset="0.81" stop-color="#e59e03"/><stop offset="0.86" stop-color="#e09803"/><stop offset="0.93" stop-color="#d38802"/><stop offset="0.99" stop-color="#bf6f00"/></linearGradient><linearGradient id="b" x1="352.73" y1="219.69" x2="901.94" y2="-43.24" gradientTransform="matrix(1, 0, 0, -1, -61.89, 742.69)" gradientUnits="userSpaceOnUse"><stop offset="0" stop-color="#4d9400"/><stop offset="0.2" stop-color="#498f01"/><stop offset="0.43" stop-color="#3c8203"/><stop offset="0.66" stop-color="#286b07"/><stop offset="0.91" stop-color="#0c4c0c"/><stop offset="0.99" stop-color="#003f0e"/></linearGradient><linearGradient id="c" x1="448.98" y1="167.14" x2="892.59" y2="-50.98" xlink:href="#b"/><linearGradient id="d" x1="531.43" y1="130.66" x2="887.48" y2="-39.2" xlink:href="#b"/><linearGradient id="e" x1="664.81" y1="108.13" x2="932.57" y2="-27.72" xlink:href="#b"/><linearGradient id="f" x1="758.37" y1="104.31" x2="874.04" y2="46.09" xlink:href="#b"/><linearGradient id="g" x1="71.28" y1="250.26" x2="569.78" y2="250.26" xlink:href="#b"/><linearGradient id="h" x1="76.78" y1="195.34" x2="469.64" y2="195.34" xlink:href="#b"/><linearGradient id="i" x1="85.25" y1="138.14" x2="402.42" y2="138.14" xlink:href="#b"/><linearGradient id="j" x1="98.28" y1="79.7" x2="331.12" y2="79.7" xlink:href="#b"/><linearGradient id="k" x1="104.9" y1="15.93" x2="279.07" y2="15.93" gradientTransform="matrix(1, 0.03, 0.03, -1, -58.86, 713.73)" xlink:href="#b"/><linearGradient id="l" x1="439.18" y1="86.23" x2="546.93" y2="86.23" gradientTransform="matrix(1, 0, 0, -1, -61.89, 742.69)" gradientUnits="userSpaceOnUse"><stop offset="0" stop-color="#ff7300"/><stop offset="0.24" stop-color="#f97c01"/><stop offset="0.64" stop-color="#ea9602"/><stop offset="0.75" stop-color="#e59e03"/><stop offset="0.87" stop-color="#e5c500"/><stop offset="0.99" stop-color="#bf6f00"/></linearGradient><linearGradient id="m" x1="436.53" y1="133.65" x2="478.91" y2="133.65" gradientTransform="matrix(1, 0, 0, -1, 0, 844)" gradientUnits="userSpaceOnUse"><stop offset="0" stop-color="#ff7300"/><stop offset="0.18" stop-color="#f97c01"/><stop offset="0.47" stop-color="#ea9602"/><stop offset="0.55" stop-color="#e59e03"/><stop offset="0.87" stop-color="#e5c500"/><stop offset="0.99" stop-color="#bf6f00"/></linearGradient><linearGradient id="n" x1="354.31" y1="111.33" x2="446.74" y2="111.33" gradientTransform="matrix(1, 0, 0, -1, 0, 844)" gradientUnits="userSpaceOnUse"><stop offset="0" stop-color="#ff7300"/><stop offset="0.05" stop-color="#f97c01"/><stop offset="0.14" stop-color="#ea9602"/><stop offset="0.17" stop-color="#e59e03"/><stop offset="0.27" stop-color="#e5c500"/><stop offset="0.99" stop-color="#bf6f00"/></linearGradient><linearGradient id="o" x1="338.99" y1="122.49" x2="379.85" y2="122.49" xlink:href="#m"/><linearGradient id="p" x1="330.82" y1="156.25" x2="371.17" y2="156.25" xlink:href="#m"/><linearGradient id="q" x1="346.14" y1="151.08" x2="429.89" y2="151.08" gradientTransform="matrix(1, 0, 0, -1, 0, 844)" gradientUnits="userSpaceOnUse"><stop offset="0" stop-color="#ff7300"/><stop offset="0.08" stop-color="#f97c01"/><stop offset="0.22" stop-color="#ea9602"/><stop offset="0.26" stop-color="#e59e03"/><stop offset="0.65" stop-color="#bf6f00"/><stop offset="0.87" stop-color="#e5c500"/></linearGradient><linearGradient id="r" x1="340.02" y1="217.24" x2="404.36" y2="217.24" xlink:href="#m"/><linearGradient id="s" x1="446.84" y1="127.36" x2="508.63" y2="127.36" gradientTransform="matrix(1, 0, 0, -1, -61.89, 742.69)" xlink:href="#m"/></defs><title>technofarm_logo2</title><path d="M986.67,46.63q21.2,0,87.16,6.49l52.64,1.37h1.71q34.86,0,52.29-3.08,5.8,21.2,5.81,50.93v2.35q0,13-5.47,13l-1.71,1.71c0,1.36,1.83,2.85,5.47,4.44l.69.34v1.37q-2.4,4.44-16.75,5.47-11,0-10.94-7.86l-1-11.28,1-21.53q0-4.44-28-4.45h-28.71l-16.06-.34q-4.8,0-6.84,77.59-2.73,64.26-2.73,86.81v14.36a21.41,21.41,0,0,1-4.45,12.65v.34q3.42,0,4.45,10.25l-1.37,7.18h-.75l-.34-.68v-2.74l-.69,36.92q0,6.15,47.17,10.25,8.88,3.42,8.89,8.89-4.11,7.86-4.11,21.53c-.68,0-1,1.59-1,4.78l-2,1.37q-50.6-2.38-93.65-2.39h-11a275.67,275.67,0,0,0-33.5,1.71q-1-1.36-4.1-31.11h.68q2.75-5.11,23.25-8.88,0-2.06,33.49-2.39,3.76,0,5.47-30.77l2.39-30.42q-4.44-39-4.44-48.87l-5.13-94v-12l1-18.12-1-5.81,1.71-3.76V85.86q0-3.75-37.25-4.78-27.36,1.36-27.35,3.76-4.1,10.59-8.54,32.81l-3.42,3.07L959,120h-3.42a7.85,7.85,0,0,1-4.44,1.71l-13.33,1q1.35-33.5,1.36-41l-2.39-18.46q0-6.15,7.18-6.49l5.47-5.47h2.39l4.1,5.47h1.37q7.86-10.26,23.24-10.25Z" style="stroke:#fff;stroke-miterlimit:10;stroke-width:39px"/><path d="M1272.41,131.05q19.83,0,48.54,16.75,24.27,18.12,24.27,24.95,18.79,41,18.8,47.85l.34,3.76q-7.18,16.41-7.18,22.56l-2.73.68h-40.68a61.16,61.16,0,0,0-13.33,1.71q-68.7-5.46-95.7-5.47h-10.25q-5.82,8.55-5.82,11.62,3.42,6.15,3.42,16.75,0,18.46,5.47,21.53l.68,2.4v.34l-3.07-1v1l4.78,4.78q0,6.84,8.55,15.73,15.38,27.67,33.84,34.18,14.69,5.11,35.89,5.12,3.07,0,13.33-5.81,9.23-2.73,35.88-31.1V318q0-1-6.15-1.71l-1-2.39q10.93-21.2,26.31-27.34,1.71,2,17.44,13a416.56,416.56,0,0,0,28,38.29v1.7q-15.37,19.83-22.21,19.83h-1.72q0-10.59-12.65-12-2.73,0-20.85,15.72-9.91,7.86-37.6,16.06-31.79,6.49-43.75,6.5l-27-9.57q-22.56,0-41.7-24.61a62,62,0,0,1-13.32-20.8q0-3.07-10.59-39.31a137.87,137.87,0,0,1-3.08-26.32v-.68q0-63.91,37.6-110.74,5.46-11.62,22.22-17.43a220.86,220.86,0,0,1,27.34-5.13Q1248.83,129.34,1272.41,131.05Zm-78.61,80.64,88.87.69,4.78,1.71,5.81-.69q20.17,6.49,25.64,6.5c0,.91,1,1.59,3.08,2a12.27,12.27,0,0,0,3.07-7.86v-8.89q0-6.5-23.92-27.69a41.56,41.56,0,0,0-24.61-12.64l-16.07-2.4q-39.3,7.53-51.61,19.14Q1204.06,190.53,1193.8,211.69Z" style="stroke:#fff;stroke-miterlimit:10;stroke-width:39px"/><path d="M1546.88,105.76q5.46,4.44,19.14,6.83,9.57,0,39.65,21.88l6.49,2.05h2.39l8.55,4.1q12.64,9.57,14.35,14.35v.72q0,2.73-5.46,7.18-1.38,7.51-19.83,31.1v1.72l.68,4.78a55.14,55.14,0,0,0-13.67,3.42q-3.08,0-5.47-6.49-13.32-8.21-13.33-13.67l5.47-15q0-9.24-31.1-13l-31.1-2q-16.08,0-43.75,12.64-15.39,8.2-23.93,33.5-7.18,23.25-11.28,27l-1.71,4.1c.91,0,1.48,1,1.71,3.08l-3.08,21.53q2.06,1,9.23,28.37l-1.71,3.08v1.71q2.4,2.38,3.76,15.72,4.11,14,27.35,25.63l25.29,18.46q41.7,0,74.17-18.46,32.13-27.68,32.13-36.91l-1.71-7.18v-.68q.33-2.06,20.85-22.9,1.36,0,7.86,7.18v1.36l-2.39.69q13.66,2.73,13.67,10.59,7.86,10.6,16.06,30.42,2.4,0,4.45,10.94,6.15,2.74,7.18,5.47c0,2.73-2,4.33-6.16,4.78q-11.28,4.11-20.16,15.39-16.41-16.76-17.43-16.75l-26.32,16.75a144.81,144.81,0,0,0-23.93,15.72L1534.57,381l-7.52.69q-15.72,0-45.11-9.23-32.13-13.67-35.21-21.54-40-47.5-40-74.17l-1.37-16.06q4.11-16.74,4.11-41l12.64-30.51q0-13.32,17.78-34.18,9.9-21.85,52-40.67,17.08-5.46,55-7.86Z" style="stroke:#fff;stroke-miterlimit:10;stroke-width:39px"/><path d="M1710.26,21q60.49,2.4,60.49,11.28l3.42,69.38q0,8.89-10.25,48.54-2.4,13-2.39,19.48v3.08h1.36a116.59,116.59,0,0,1,72.81-24.61q12,0,43.75,13.33,5.8,5.82,15.72,19.82a10.71,10.71,0,0,1,4.1,5.81l-.68,4.79q13.32,11.28,13.33,37.6,1.69,0,2.39,46.82V277q0,7.17-7.86,52.63l-1.37,8.89h9.57q15.72,1,15.72,4.1c0,1.37-1.36,4-4.1,7.86l1.71,2.4v9.57q0,22.55-12.65,22.55l-4.1.69q-18.45,0-18.45-5.47,0-1.37-19.14-2.39a72.36,72.36,0,0,0-14-6.5l-.34-1.71q0-19.49,6.49-60.49a299.18,299.18,0,0,1,8.21-49.57l-1-16.74,1.71-2q-6.49-4.78-6.49-13.68a102.52,102.52,0,0,0-9.57-16.06q-5.82-8.88-24.27-14.36t-60.84,20.51l-13,19.48-3.08,31.11,1.37,31.78q-3.07,35.22-7.18,35.21l-.68,2.05,1.71,1h2.39l7.86-3.42q11.28,1.71,11.28,7.18l3.08,8.2.68,2.39q-2.38,24.61-7.18,24.61h-1.36q-7.18-4.44-50.93-6.49-31.45-2.73-31.45-9.57v-7.86q-.67-1.71-1.88-9.75c-.8-5.35-1.19-8.48-1.19-9.4q2.38-1.69,23.24-2.39,3.08,0,4.79-18.46,3.75-2.73,5.46-15a12.22,12.22,0,0,0,3.08-7.87V263q2.39,0,3.42-103.9L1730.46,89V68.16q0-10.26-6.49-10.26l-15.38-.68-10.26,3.08q-2.73,0-3.07-12.65V42.52q0-20.51,5.47-20.5Z" style="stroke:#fff;stroke-miterlimit:10;stroke-width:39px"/><path d="M1943,129a160.71,160.71,0,0,0,22.56,1.71h39l1,1.36q-2.4,8.9-2.39,13.68V154q1.69,13.34,7.17,13.33,3.08-5.13,19.14-10.25,38-16.75,62.9-16.75,16,0,34.86,14.35,13.66,5.48,26.32,22.22,19.14,30.42,19.14,72.8v3.76l-3.08,34.18,3.08,25-4.79,22.22v.68l.34,4.1,18.12.69h7.86c5.24,0,8.55.57,9.91,1.71q-2.73,34.53-7.52,34.52a38.4,38.4,0,0,1-20.5,5.47h-9.57q-21.89,0-47.86,6.15Q2102,386.08,2102,371.38l-.69-16.4q0-16.07,7.86-23.25a362.75,362.75,0,0,1,10.26-42.38l3.07-42q1,0,1-10.6,0-12.3-20.17-36.57-15-6.48-18.11-6.49-27,0-49.56,23.24-1.73,0-22.9,23.24-7.18,5.47-7.18,31.79,1,47.85,3.76,47.85,18.45,3.42,18.46,7.18v2.39l.68,6.15q3.08,3.42,3.08,11.28v.69q0,10.94-4.79,23.92l-55,1q-8.9,0-12-8.21-2.4-9.56-4.45-34.86,0-2.73,14.36-5.81l2.39-3.08v-.77c0-1.59-1.36-4.21-4.1-7.86l.68-14.7v-27l1.71-43.75q0-44.77-4.1-44.78h-2.39l-22.19,3.09q-3.42,0-8.88-6.15v-1.71a12.44,12.44,0,0,0,2.39-7.86l-.68-17.43,7.17-21.54Z" style="stroke:#fff;stroke-miterlimit:10;stroke-width:39px"/><path d="M2355.23,148.48h4.1a251.68,251.68,0,0,1,50.24,32.13q23.92,20.5,23.93,31.1h-.68l2.39,8.55h.68q1,.35,3.42,13.67l3.76,9.57-.68,6.15,1.36,17.09q-2.39,7.53-6.15,31.11-2.05,9.22-44.09,67.67-18.47,17.78-37.26,17.77a291.83,291.83,0,0,1-37.6,2.4h-8.88q-8.55,0-42.38-13.67-43.08-39-43.07-59.14-6.15-13.32-10.25-23.92,0-5.46,13-40.67,0-21.87,10.26-30.42,21.86-48.18,56.37-62.18,29.41-11,48.2-11Zm-98.78,145.26v3.08q5.46,11.28,14.35,27.34,0,4.8,18.12,13.68,8.53,9.57,32.13,15l8.54,1q19.83-4.09,31.11-8.89l17.09-14.26q26.31-28.37,25.63-47.51v-4.49q-2.74-7.86-2.73-25a107.17,107.17,0,0,1,1.71-20.85q0-2.73-18.12-16.74-13.68-18.47-28-22.9h-5.47q-55.36,2-55.37,8.88-12.3,12.31-17.43,24.61-15,15.39-15,20.85Q2258.84,265,2256.45,293.74Z" style="stroke:#fff;stroke-miterlimit:10;stroke-width:39px"/><path d="M1002.74,483.69q179.44.69,179.44,4.11,5.13,26.65,5.13,38.28-3.42,13.32-6.5,32.47c-1.82,4.33-3.64,6.5-5.47,6.49q-30.42,0-30.42-8.54v-1l6.16-23.92q-2.05-18.47-6.84-18.46l-6.49-.68h-12.64L1026,517.22q-4.79,0-4.79,9.57v2.39l1.71,80.67q0,3.07,20.51,3.07l30.42,1q0-14.7,13.67-14.7l11.28.34,1.37,2.05v7.18q0,4.11,3.42,13.67-7.53,39-13,39l-20.47-7.87-2.39-.69v-1l3.76-5.47V644L1026,641c-3.19,1.37-4.78,3.2-4.79,5.47v16.06l-.68,9.57q0,20.52,6.15,85.11,3.08,2.05,32.82,4.79l.68.34c1.59.23,2.39,1,2.39,2.39q-1.71,22.9-11.62,22.9h-1v.69l-10.25-.69h-9.61q-33.49,3.07-79.64,4.79l-.34.68h-.68l-4.1-1.37.34-6.49-1-4.79q1.71-3.07,2.39-11.28,0-2.39,36.92-6.15,9.22-2,9.23-9.57l4.1-71.78,1.37-1.7h1.36l.69-3.08v-12l-4.11-2.4L994.25,645l2.39-7.52q-2.39-8.88-2.39-65.28V547A177.28,177.28,0,0,1,996,521.31q0-4.44-7.18-5.47h-6.49q-34.18,0-34.18-17.09l-1-6.15q1.36-6.5,3.42-6.49h1.37c.67,0,1.46,1.82,2.39,5.47H955l1-1.37v-.69l-.68-.34q0-4.79,26-4.78Z" style="stroke:#fff;stroke-miterlimit:10;stroke-width:39px"/><path d="M1303.86,530.54q8.21,0,31.79,6.84,27.67,26.31,32.46,40.67,9.9,10.26,16.75,43.41,7.52,7.17,7.52,33.84l.68,11.28-1.71,47.16q0,13.68,17.43,35.55,15.73,15.4,20.86,15.4v.69q0,5.8-16.75,18.45-12.3,12-15.72,12h-.34q-7.18-.33-38.28-28-27.69,10.24-56.4,22.56a149.1,149.1,0,0,1-41.7,5.46h-2.34q-26-4.44-43.75-19.82-3.08-3.07-13.67-23.93-8.58-10.32-8.58-25.71v-13.7a46.13,46.13,0,0,1,7.18-24.61q6.49-18.8,21.53-36.92,7.52-9.23,15-11.62,24.95-13,48.88-13l21.53-.69h2.4q18.78,0,26,5.47h2.74c1.36,0,2-.8,2-2.39a155.81,155.81,0,0,0-16.75-42.73q-10.26-17.43-39-17.43l-19.14-2.39q-25.29,4.79-25.29,10.25-9.57,12.32-12,31.79-1,2.4-17.09,2.39l-3.08.69q-1.71,0-4.78,8.2-13.34-2.06-13.33-5.47,1.69-4.1,3.76-34.52,7.51-21.54,35.88-40,13.68-7.86,16.07-7.86Zm-75.2,168.51q3.09,28.71,7.87,28.71l4.78,5.81v.68l-4.44-.68v1.37q9.9,12,37.25,23.24a32.33,32.33,0,0,0,9.57,2.39q9.57,0,65.63-27.69c2.5-1.36,3.76-3.18,3.76-5.46V725q-4.11-19.14-7.18-45.46l-.68-.34q0-5.13-10.6-8.54-34.86-9.91-47.85-9.91-35.55,8.19-49.9,23.92Q1228.67,693.59,1228.66,699.05Z" style="stroke:#fff;stroke-miterlimit:10;stroke-width:39px"/><path d="M1618,567.8q18.46,0,31.1,26.31,2.75,0,6.84,6.16l6.49,35.2q-4.1,5.47-25.29,5.47h-4.78q-17.77-2.38-17.78-12,0-6.84-10.93-18.12-1.38-2.39-20.17-2.39T1539.7,618q-17.1,17.43-23.93,29.4,3.42,86.13,2.4,101.85c0,2.73,1.93,4.1,5.81,4.1h11.62c5,.23,7.52,1,7.52,2.39v.69l1.71,6.49-1,26.32L1541.1,793l-22.22,2h-2l-9.57,3.08Q1453,796.35,1453,794q-9.57,0-9.57-8.55a121.33,121.33,0,0,1-1-17.77q0-8.89,18.45-12,0-3.75,12.65-3.76l1.62-.21V751L1472,621.13q0-12-5.81-12h-3.11q-5.82,0-19.14,4.79l-.69-.68v-1c0-.67,1.25-1.46,3.76-2.39v-.69q-4.79,0-4.78-27-.69,0-1.37-8.2,19.48-15,39.65-15h12q6.15,0,23.93,4.78l.68,1.71q-4.44,5.82-4.44,9.57v3.08Q1551,560.63,1618,567.8Z" style="stroke:#fff;stroke-miterlimit:10;stroke-width:39px"/><path d="M1737.94,547.29c3.64.46,5.47,1,5.47,1.71l-2,3.07v1h.68l24.61-.68q41.35,0,55,20.5,9.22,12,12,16.75l1.7.69q4.11,0,54-26c4.32-1.82,7.86-2.74,10.59-2.74q19.14,0,40.68,14.36,40,32.47,40,54.35,3.75,8.19,15,97.07V740.7c0,3,.68,4.56,2,4.78h1.71q4.09,0,15.38-3.76,7.86,0,7.86,27.69.68,11.28.68,21.53h-6.49q-21.88,3.42-35.55,3.42l-14.7-1.71-27.68.68h-4.77c-.68,0-1-1.25-1-3.76l-6.15-5.81v-.68l1.36-4.79v-1l-2.39-12.6v-6.15q0-6.49,9.91-6.5,16.74,2.4,14-12.64-.69-36.92,2.73-55.71V683l-1-28.71q0-7.17-12.65-17.43l-4.1-1h-3.08l-4.78-2.39q-10.61-14-35.21-14-30.42,2.73-36.57,18.11-1.71,5.13-2.39,22.56l1,10.94v34.18l-.34,13.67q0,21.89,12,24.61c3.42.68,5.13,1.83,5.13,3.42q-4.78,22.56-6.49,26.32l-12,2.39-40.67-3.42-4.79,1q-7.86,0-7.86-24.61v-1.71q0-2.73,14.36-7.18c2.5,0,3.76-1.14,3.76-3.42q-2.4-10.59-2.4-27l.69-52a80.93,80.93,0,0,1-2.39-16.75q.33-12,2.73-12h.68q4.79-8.9-28-28.37a48.61,48.61,0,0,0-16.75-3.42q-13,0-30.08,12l-.34,2.39v38.31l1,99.8,2.4,1.71h1.68c.9,0,1.59-1.14,2-3.42h1q12.65,0,15,6.5v4.1l1,10.93q1,19.83-10.26,19.83-3.76,1.37-25.63,1.71l-61.53-4.1q-4.79,0-8.88-28.37v-1q0-3.75,19.14-9.57,0-3.75,19.14-6.15a4.86,4.86,0,0,0,3.42-4.79l3.07-111.08.69-26.32q0-4.1-8.89-4.1a114.4,114.4,0,0,0-22.22,2.39q-7.86-4.44-7.86-9.23,1.71-23.91,1.2-25.29t2.9-8.54Q1697.6,550.36,1737.94,547.29Z" style="stroke:#fff;stroke-miterlimit:10;stroke-width:39px"/><path d="M986.67,46.63q21.2,0,87.16,6.49l52.64,1.37h1.71q34.86,0,52.29-3.08,5.8,21.2,5.81,50.93v2.35q0,13-5.47,13l-1.71,1.71c0,1.36,1.83,2.85,5.47,4.44l.69.34v1.37q-2.4,4.44-16.75,5.47-11,0-10.94-7.86l-1-11.28,1-21.53q0-4.44-28-4.45h-28.71l-16.06-.34q-4.8,0-6.84,77.59-2.73,64.26-2.73,86.81v14.36a21.41,21.41,0,0,1-4.45,12.65v.34q3.42,0,4.45,10.25l-1.37,7.18h-.75l-.34-.68v-2.74l-.69,36.92q0,6.15,47.17,10.25,8.88,3.42,8.89,8.89-4.11,7.86-4.11,21.53c-.68,0-1,1.59-1,4.78l-2,1.37q-50.6-2.38-93.65-2.39h-11a275.67,275.67,0,0,0-33.5,1.71q-1-1.36-4.1-31.11h.68q2.75-5.11,23.25-8.88,0-2.06,33.49-2.39,3.76,0,5.47-30.77l2.39-30.42q-4.44-39-4.44-48.87l-5.13-94v-12l1-18.12-1-5.81,1.71-3.76V85.86q0-3.75-37.25-4.78-27.36,1.36-27.35,3.76-4.1,10.59-8.54,32.81l-3.42,3.07L959,120h-3.42a7.85,7.85,0,0,1-4.44,1.71l-13.33,1q1.35-33.5,1.36-41l-2.39-18.46q0-6.15,7.18-6.49l5.47-5.47h2.39l4.1,5.47h1.37q7.86-10.26,23.24-10.25Z"/><path d="M1272.41,131.05q19.83,0,48.54,16.75,24.27,18.12,24.27,24.95,18.79,41,18.8,47.85l.34,3.76q-7.18,16.41-7.18,22.56l-2.73.68h-40.68a61.16,61.16,0,0,0-13.33,1.71q-68.7-5.46-95.7-5.47h-10.25q-5.82,8.55-5.82,11.62,3.42,6.15,3.42,16.75,0,18.46,5.47,21.53l.68,2.4v.34l-3.07-1v1l4.78,4.78q0,6.86,8.55,15.73,15.38,27.67,33.84,34.18,14.69,5.11,35.89,5.12,3.07,0,13.33-5.81,9.23-2.73,35.88-31.1V318q0-1-6.15-1.71l-1-2.39q10.93-21.2,26.31-27.34,1.71,2,17.44,13a416.56,416.56,0,0,0,28,38.29v1.7q-15.37,19.83-22.21,19.83h-1.72q0-10.59-12.65-12-2.73,0-20.85,15.72-9.91,7.86-37.6,16.06-31.79,6.49-43.75,6.5l-27-9.57q-22.56,0-41.7-24.61a62,62,0,0,1-13.32-20.8q0-3.07-10.59-39.31a137.87,137.87,0,0,1-3.08-26.32v-.68q0-63.91,37.6-110.74,5.46-11.62,22.22-17.43a220.86,220.86,0,0,1,27.34-5.13Q1248.83,129.34,1272.41,131.05Zm-78.61,80.64,88.87.69,4.78,1.71,5.81-.69q20.17,6.49,25.64,6.5c0,.91,1,1.59,3.08,2a12.27,12.27,0,0,0,3.07-7.86v-8.89q0-6.5-23.92-27.69a41.56,41.56,0,0,0-24.61-12.64l-16.07-2.4q-39.3,7.53-51.61,19.14Q1204.06,190.53,1193.8,211.69Z"/><path d="M1546.88,105.76q5.46,4.44,19.14,6.83,9.57,0,39.65,21.88l6.49,2.05h2.39l8.55,4.1q12.64,9.57,14.35,14.35v.72q0,2.75-5.46,7.18-1.38,7.51-19.83,31.1v1.72l.68,4.78a55.14,55.14,0,0,0-13.67,3.42q-3.08,0-5.47-6.49-13.32-8.21-13.33-13.67l5.47-15q0-9.24-31.1-13l-31.1-2q-16.08,0-43.75,12.64-15.39,8.2-23.93,33.5-7.18,23.25-11.28,27l-1.71,4.1c.91,0,1.48,1,1.71,3.08l-3.08,21.53q2.06,1,9.23,28.37l-1.71,3.08v1.71q2.4,2.38,3.76,15.72,4.11,14,27.35,25.63l25.29,18.46q41.7,0,74.17-18.46,32.13-27.68,32.13-36.91l-1.71-7.18v-.68q.33-2.06,20.85-22.9,1.36,0,7.86,7.18v1.36l-2.39.69q13.66,2.73,13.67,10.59,7.86,10.6,16.06,30.42,2.4,0,4.45,10.94,6.15,2.74,7.18,5.47c0,2.73-2,4.33-6.16,4.78q-11.28,4.11-20.16,15.39-16.41-16.76-17.43-16.75l-26.32,16.75a144.81,144.81,0,0,0-23.93,15.72L1534.57,381l-7.52.69q-15.72,0-45.11-9.23-32.13-13.67-35.21-21.54-40-47.49-40-74.17l-1.37-16.06q4.11-16.74,4.11-41l12.64-30.51q0-13.32,17.78-34.18,9.9-21.85,52-40.67,17.08-5.46,55-7.86Z"/><path d="M1710.26,21q60.49,2.4,60.49,11.28l3.42,69.38q0,8.89-10.25,48.54-2.4,13-2.39,19.48v3.08h1.36a116.59,116.59,0,0,1,72.81-24.61q12,0,43.75,13.33,5.8,5.82,15.72,19.82a10.71,10.71,0,0,1,4.1,5.81l-.68,4.79q13.32,11.28,13.33,37.6,1.69,0,2.39,46.82V277q0,7.17-7.86,52.63l-1.37,8.89h9.57q15.72,1,15.72,4.1c0,1.37-1.36,4-4.1,7.86l1.71,2.4v9.57q0,22.55-12.65,22.55l-4.1.69q-18.45,0-18.45-5.47,0-1.37-19.14-2.39a72.36,72.36,0,0,0-14-6.5l-.34-1.71q0-19.49,6.49-60.49a299.18,299.18,0,0,1,8.21-49.57l-1-16.74,1.71-2q-6.49-4.78-6.49-13.68a102.52,102.52,0,0,0-9.57-16.06q-5.82-8.88-24.27-14.36t-60.84,20.51l-13,19.48-3.08,31.11,1.37,31.78q-3.07,35.22-7.18,35.21l-.68,2.05,1.71,1h2.39l7.86-3.42q11.28,1.71,11.28,7.18l3.08,8.2.68,2.39q-2.38,24.61-7.18,24.61h-1.36q-7.18-4.44-50.93-6.49-31.45-2.73-31.45-9.57v-7.86q-.67-1.71-1.88-9.75c-.8-5.35-1.19-8.48-1.19-9.4q2.38-1.69,23.24-2.39,3.08,0,4.79-18.46,3.75-2.73,5.46-15a12.22,12.22,0,0,0,3.08-7.87V263q2.39,0,3.42-103.9L1730.46,89V68.16q0-10.26-6.49-10.26l-15.38-.68-10.26,3.08q-2.73,0-3.07-12.65V42.52q0-20.51,5.47-20.5Z"/><path d="M1943,129a160.71,160.71,0,0,0,22.56,1.71h39l1,1.36q-2.4,8.9-2.39,13.68V154q1.69,13.34,7.17,13.33,3.08-5.13,19.14-10.25,38-16.75,62.9-16.75,16,0,34.86,14.35,13.66,5.48,26.32,22.22,19.14,30.42,19.14,72.8v3.76l-3.08,34.18,3.08,25-4.79,22.22v.68l.34,4.1,18.12.69h7.86c5.24,0,8.55.57,9.91,1.71q-2.73,34.53-7.52,34.52a38.4,38.4,0,0,1-20.5,5.47h-9.57q-21.89,0-47.86,6.15Q2102,386.08,2102,371.38l-.69-16.4q0-16.07,7.86-23.25a362.75,362.75,0,0,1,10.26-42.38l3.07-42q1,0,1-10.6,0-12.3-20.17-36.57-15-6.48-18.11-6.49-27,0-49.56,23.24-1.73,0-22.9,23.24-7.18,5.47-7.18,31.79,1,47.85,3.76,47.85,18.45,3.42,18.46,7.18v2.39l.68,6.15q3.08,3.42,3.08,11.28v.69q0,10.94-4.79,23.92l-55,1q-8.9,0-12-8.21-2.4-9.56-4.45-34.86,0-2.73,14.36-5.81l2.39-3.08v-.77c0-1.59-1.36-4.21-4.1-7.86l.68-14.7v-27l1.71-43.75q0-44.77-4.1-44.78h-2.39l-22.19,3.09q-3.42,0-8.88-6.15v-1.71a12.44,12.44,0,0,0,2.39-7.86l-.68-17.43,7.17-21.54Z"/><path d="M2355.23,148.48h4.1a251.68,251.68,0,0,1,50.24,32.13q23.92,20.5,23.93,31.1h-.68l2.39,8.55h.68q1,.35,3.42,13.67l3.76,9.57-.68,6.15,1.36,17.09q-2.39,7.53-6.15,31.11-2.05,9.22-44.09,67.67-18.47,17.78-37.26,17.77a291.83,291.83,0,0,1-37.6,2.4h-8.88q-8.55,0-42.38-13.67-43.08-39-43.07-59.14-6.15-13.32-10.25-23.92,0-5.46,13-40.67,0-21.87,10.26-30.42,21.86-48.18,56.37-62.18,29.41-11,48.2-11Zm-98.78,145.26v3.08q5.46,11.28,14.35,27.34,0,4.8,18.12,13.68,8.53,9.57,32.13,15l8.54,1q19.83-4.09,31.11-8.89l17.09-14.26q26.31-28.37,25.63-47.51v-4.49q-2.74-7.86-2.73-25a107.17,107.17,0,0,1,1.71-20.85q0-2.73-18.12-16.74-13.68-18.47-28-22.9h-5.47q-55.36,2-55.37,8.88-12.3,12.31-17.43,24.61-15,15.39-15,20.85Q2258.84,265,2256.45,293.74Z"/><path d="M1002.74,483.69q179.44.69,179.44,4.11,5.13,26.65,5.13,38.28-3.42,13.32-6.5,32.47c-1.82,4.33-3.64,6.5-5.47,6.49q-30.42,0-30.42-8.54v-1l6.16-23.92q-2.05-18.47-6.84-18.46l-6.49-.68h-12.64L1026,517.22q-4.79,0-4.79,9.57v2.39l1.71,80.67q0,3.07,20.51,3.07l30.42,1q0-14.7,13.67-14.7l11.28.34,1.37,2.05v7.18q0,4.11,3.42,13.67-7.53,39-13,39l-20.47-7.87-2.39-.69v-1l3.76-5.47V644L1026,641c-3.19,1.37-4.78,3.2-4.79,5.47v16.06l-.68,9.57q0,20.52,6.15,85.11,3.08,2.05,32.82,4.79l.68.34c1.59.23,2.39,1,2.39,2.39q-1.71,22.9-11.62,22.9h-1v.69l-10.25-.69h-9.61q-33.49,3.07-79.64,4.79l-.34.68h-.68l-4.1-1.37.34-6.49-1-4.79q1.71-3.07,2.39-11.27,0-2.4,36.92-6.16,9.22-2,9.23-9.57l4.1-71.77,1.37-1.71h1.36l.69-3.08v-12l-4.11-2.4L994.25,645l2.39-7.52q-2.39-8.88-2.39-65.28V547A177.28,177.28,0,0,1,996,521.31q0-4.44-7.18-5.47h-6.49q-34.18,0-34.18-17.09l-1-6.15c.91-4.32,2-6.49,3.42-6.49h1.37c.67,0,1.46,1.82,2.39,5.47H955l1-1.37v-.68l-.68-.35q0-4.77,26-4.78Z"/><path d="M1303.86,530.54q8.21,0,31.79,6.84,27.67,26.31,32.46,40.67,9.9,10.26,16.75,43.41,7.52,7.17,7.52,33.84l.68,11.28-1.71,47.16q0,13.68,17.43,35.55,15.73,15.4,20.86,15.4v.69q0,5.8-16.75,18.45-12.3,12-15.72,12h-.34q-7.18-.35-38.28-28-27.69,10.24-56.4,22.56a149.47,149.47,0,0,1-41.7,5.47h-2.34q-26-4.46-43.75-19.83-3.08-3.07-13.67-23.92-8.58-10.33-8.58-25.72v-13.7a46.13,46.13,0,0,1,7.18-24.61q6.49-18.8,21.53-36.91,7.52-9.24,15-11.63,24.95-13,48.88-13l21.53-.69h2.4q18.78,0,26,5.47h2.74c1.36,0,2-.79,2-2.39a155.81,155.81,0,0,0-16.75-42.73q-10.26-17.43-39-17.43l-19.14-2.39q-25.29,4.79-25.29,10.25-9.57,12.32-12,31.79-1,2.4-17.09,2.39l-3.08.69q-1.71,0-4.78,8.2-13.34-2.06-13.33-5.47,1.69-4.1,3.76-34.52,7.51-21.54,35.88-40,13.68-7.86,16.07-7.86Zm-75.2,168.51q3.09,28.71,7.87,28.71l4.78,5.81v.68l-4.44-.68v1.37q9.9,12,37.25,23.24a32.33,32.33,0,0,0,9.57,2.39q9.57,0,65.63-27.69c2.5-1.36,3.76-3.18,3.76-5.46V725q-4.11-19.14-7.18-45.46l-.68-.34q0-5.13-10.6-8.54-34.86-9.91-47.85-9.91-35.55,8.19-49.9,23.92Q1228.67,693.59,1228.66,699.05Z"/><path d="M1618,567.8q18.46,0,31.1,26.32,2.75,0,6.84,6.15l6.49,35.2q-4.1,5.47-25.29,5.47h-4.78q-17.77-2.38-17.78-12,0-6.84-10.93-18.12-1.38-2.39-20.17-2.39T1539.7,618q-17.1,17.43-23.93,29.4,3.42,86.13,2.4,101.85c0,2.74,1.93,4.1,5.81,4.1h11.62q7.51.35,7.52,2.4v.68l1.71,6.49-1,26.32L1541.1,793l-22.22,2h-2l-9.57,3.08Q1453,796.37,1453,794q-9.57,0-9.57-8.55a120,120,0,0,1-1-17.77q0-8.88,18.45-12,0-3.76,12.65-3.76l1.62-.21V751L1472,621.13q0-12-5.81-12h-3.11q-5.82,0-19.14,4.79l-.69-.68v-1c0-.67,1.25-1.46,3.76-2.39v-.69q-4.79,0-4.78-27-.69,0-1.37-8.2,19.48-15,39.65-15h12q6.15,0,23.93,4.79l.68,1.7q-4.44,5.82-4.44,9.57v3.08Q1551,560.63,1618,567.8Z"/><path d="M1737.94,547.29c3.64.46,5.47,1,5.47,1.71l-2,3.07v1h.68l24.61-.68q41.35,0,55,20.5,9.22,12,12,16.75l1.7.69q4.11,0,54-26c4.32-1.82,7.86-2.74,10.59-2.74q19.14,0,40.68,14.36,40,32.47,40,54.35,3.75,8.19,15,97.07V740.7c0,3,.68,4.56,2,4.78h1.71q4.09,0,15.38-3.76,7.86,0,7.86,27.69.68,11.28.68,21.53h-6.49q-21.88,3.42-35.55,3.42l-14.7-1.71-27.68.68h-4.77c-.68,0-1-1.25-1-3.76l-6.15-5.81v-.68l1.36-4.79v-1l-2.39-12.6v-6.15q0-6.49,9.91-6.49,16.74,2.38,14-12.65-.69-36.92,2.73-55.71V683l-1-28.71q0-7.17-12.65-17.43l-4.1-1h-3.08l-4.78-2.39q-10.61-14-35.21-14-30.42,2.73-36.57,18.11-1.71,5.13-2.39,22.56l1,10.94v34.18l-.34,13.67q0,21.89,12,24.61c3.42.68,5.13,1.83,5.13,3.42q-4.78,22.56-6.49,26.32l-12,2.39-40.67-3.42-4.79,1q-7.86,0-7.86-24.61v-1.71q0-2.73,14.36-7.18c2.5,0,3.76-1.14,3.76-3.42q-2.4-10.59-2.4-27l.69-52a80.93,80.93,0,0,1-2.39-16.75q.33-12,2.73-12h.68q4.79-8.9-28-28.37a48.61,48.61,0,0,0-16.75-3.42q-13,0-30.08,12l-.34,2.4v38.3l1,99.8,2.4,1.71h1.68c.9,0,1.59-1.14,2-3.42h1q12.65,0,15,6.5v4.1l1,10.94q1,19.82-10.26,19.82-3.76,1.37-25.63,1.71l-61.53-4.1q-4.79,0-8.88-28.37v-1q0-3.75,19.14-9.57,0-3.75,19.14-6.15a4.86,4.86,0,0,0,3.42-4.79l3.07-111.08.69-26.32q0-4.1-8.89-4.1a114.4,114.4,0,0,0-22.22,2.39q-7.86-4.44-7.86-9.23,1.71-23.91,1.2-25.29t2.9-8.54Q1697.6,550.36,1737.94,547.29Z"/><circle cx="421.48" cy="421.48" r="421.48" style="fill:url(#a)"/><ellipse cx="420.14" cy="423.55" rx="253.13" ry="244.02" style="fill:#fff"/><rect y="407.98" width="842.96" height="22.5" style="fill:#fff"/><rect x="411.42" y="-3.68" width="22.5" height="845.2" transform="translate(-120.84 661.3) rotate(-68.78)" style="fill:#fff"/><rect x="412.04" y="-1.49" width="22.5" height="842.67" transform="translate(-172.9 422.28) rotate(-45)" style="fill:#fff"/><rect x="411.77" y="-0.81" width="22.5" height="843.21" transform="translate(-130.75 198.64) rotate(-22.99)" style="fill:#fff"/><rect x="410.52" width="22.5" height="842.96" style="fill:#fff"/><rect x="-1.91" y="410.11" width="844.57" height="22.5" transform="translate(-129.67 648.77) rotate(-67.53)" style="fill:#fff"/><rect x="-1.16" y="410.22" width="843.76" height="22.5" transform="translate(-174.73 412.52) rotate(-44.19)" style="fill:#fff"/><rect x="-2.36" y="404.53" width="842.99" height="22.5" transform="translate(-125.83 188.71) rotate(-22.15)" style="fill:#fff"/><path d="M7.32,504.46c43-24,108-52.61,190.88-62.84,58.8-7.26,123.51-15.25,193.88,12.26C425.53,467,455,486,509.31,492.2c23.86,2.72,41.66,1.72,72.14,0,65.33-3.68,88.06-13.12,133.77-16.86,28.62-2.34,70.66-2.8,123.24,7.66a386.08,386.08,0,0,1-33.89,114.21c-34.39,72-84.94,118.51-113.35,144.17-5.24,4.74-10.18,9.2-17.33,15,0,0-60.37,49-143.54,71.48-66.26,18-237.36,36-377.24-79.7C46.91,660.31,16.11,544.43,7.32,504.46Z" style="fill:#fff"/><path d="M229.56,797.38A527.57,527.57,0,0,1,309,669c12.22-14.58,72-84.23,172.49-135,150.51-76,297.45-61.69,357-52.5l-3,22.5a466.45,466.45,0,0,0-135,4.5c-106.13,19.26-176.64,70.72-214.49,99C385.84,682.28,332,772.86,305.23,828Z" style="fill:url(#b)"/><path d="M338.22,834.38a551.83,551.83,0,0,1,110.34-174c34.61-36.79,98-102.54,204-134.66,75.61-22.92,141.44-19.19,180-14l-2.67,17.33a309.28,309.28,0,0,0-55.33-2.67c-91.8,3.86-157.55,48.19-190,70.67-64.16,44.44-99.88,95-126,132.67a616.9,616.9,0,0,0-61.67,112.33Z" style="fill:url(#c)"/><path d="M433.39,843.38a338.89,338.89,0,0,0,105.5-17,554.75,554.75,0,0,1,62-129.5c22.86-35.16,43-66.17,80-93.5,49.78-36.79,104.05-47.71,142.5-50.5l4.5-18.5a283.4,283.4,0,0,0-89,3c-57.76,11.28-96.18,37.89-118,53C509.41,667.59,445.38,815,433.39,843.38Z" style="fill:url(#d)"/><path d="M577.89,811.38a242.15,242.15,0,0,0,81.5-41.5,303.17,303.17,0,0,1,13-52c6.52-18.78,18.14-51.33,46-84.5,14.35-17.08,33.48-39.33,66.5-52.5a142.62,142.62,0,0,1,31.5-8.5l6-16a200.29,200.29,0,0,0-58,10.5c-49.81,17-79,49.52-100.5,74C610.72,701.54,588.11,768.62,577.89,811.38Z" style="fill:url(#e)"/><path d="M683.39,750.88a417.85,417.85,0,0,0,129.5-173,128.43,128.43,0,0,0-45,18c-5.4,3.49-25.4,17-48,55.5C708.11,671.42,691.82,704.75,683.39,750.88Z" style="fill:url(#f)"/><path d="M14.75,533.05a414.88,414.88,0,0,1,85.09-32.67c14.32-3.75,86-21.69,179.57-7.33A476.29,476.29,0,0,1,430.3,543.2l77.59-38.82a384.38,384.38,0,0,0-97.15-46c-93.6-29-174.48-13.92-234.51-2a644.69,644.69,0,0,0-166.84,58Z" style="fill:url(#g)"/><path d="M22.28,558.38a382.61,382.61,0,0,1,61.13-17.33c27.42-5.36,123.7-22.8,223.7,24a326.91,326.91,0,0,1,50.39,29.33l50.25-34.69c-12.54-6.15-30.38-14.48-52.26-23.28-18.67-7.5-51.14-20.62-82.63-28-70-16.4-130.48-4.14-170.64,4a512.22,512.22,0,0,0-87.33,26Z" style="fill:url(#h)"/><path d="M34.11,587.69A325.3,325.3,0,0,1,145,592.35c69.18,15.07,116.68,49.37,140.45,69.34l55.1-52c-30.84-20.31-98-58.26-190.17-62A368,368,0,0,0,23.36,565Q28.76,576.39,34.11,587.69Z" style="fill:url(#i)"/><path d="M45.16,613.69l3.19.27h.07c30.28,2.87,58.83,13.72,58.83,13.72,33.12,12.58,56.41,31.51,67.49,40.66a273.9,273.9,0,0,1,57.37,65.35q18.57-25.66,37.12-51.34a351.35,351.35,0,0,0-77.62-54.66c-24.83-12.85-66.8-34-123.5-35.34a241.75,241.75,0,0,0-31.72,1.34Q40.77,603.69,45.16,613.69Z" style="fill:url(#j)"/><path d="M48.51,618.85a475.69,475.69,0,0,0,50.92,74A488.85,488.85,0,0,0,204,786.23l15.13-28.29a411.54,411.54,0,0,0-40.38-57c-24.85-29.44-47.38-55.51-85.3-70.88A166.36,166.36,0,0,0,48.51,618.85Z" style="fill:url(#k)"/><polyline points="294.46 613.69 294.46 613.69 287.12 613.69" style="fill:#fdb51c"/><path d="M260.91,384.05l.3-108.78S201.73,333.33,260.91,384.05Z" style="fill:#fdb51c;stroke:#000;stroke-miterlimit:10;stroke-width:3px"/><path d="M263.47,384.05V275.27S322.79,333.47,263.47,384.05Z" style="fill:#f89722;stroke:#000;stroke-miterlimit:10;stroke-width:3px"/><path d="M197.42,506s-3,79.68,65.25,79.68c0,0,0-56.82-65.25-79.68" style="fill:#fdb51c;stroke:#000;stroke-miterlimit:10;stroke-width:5px"/><path d="M197.42,430.48s-3,79.68,65.25,79.68c0,0,0-56.82-65.25-79.68" style="fill:#fdb51c;stroke:#000;stroke-miterlimit:10;stroke-width:5px"/><path d="M197.42,355s-3,79.68,65.25,79.68c0,0,0-56.81-65.25-79.68" style="fill:#fdb51c;stroke:#000;stroke-miterlimit:10;stroke-width:5px"/><path d="M262.67,585.69s0-56.82,65.26-79.68C327.93,506,330.89,585.69,262.67,585.69Z" style="fill:#f89722;stroke:#000;stroke-miterlimit:10;stroke-width:5px"/><path d="M262.67,510.16s0-56.82,65.26-79.68C327.93,430.48,330.89,510.16,262.67,510.16Z" style="fill:#f89722;stroke:#000;stroke-miterlimit:10;stroke-width:5px"/><path d="M262.67,434.63s0-56.81,65.26-79.68C327.93,355,330.89,434.63,262.67,434.63Z" style="fill:#f89722;stroke:#000;stroke-miterlimit:10;stroke-width:5px"/><path d="M525.29,219.52s-9.35,50.66-32.42,59.92-36.76,3.76-36.76,3.76l-2.81.58s26.57,86.15,26.57,87,18.5,14.1,21.62,27.71c5-23.74,10.1-42.08,9.79-48.15s1.83-43.4,1.83-43.4,15.59,20,38.66,24c5.92-14.76-9.67-37-21.51-43.13,0,0,11.84-14.76,7.79-39.94S525.29,219.52,525.29,219.52Z" style="fill:#7a6a5f"/><path d="M509.23,302.26s-30.53,24.05-22.2,75.6A42.46,42.46,0,0,1,500.11,395Z" style="fill:#a08778"/><path d="M434.2,283.54c0,1.16-26.27,84.25-26.27,84.25s21.58-8.25,38.77-5.64a214,214,0,0,1,33.74,8.41l-27.81-88Z" style="fill:#faf2d8"/><path d="M409.86,361.86c6.79-21,24.52-79.28,24.52-79.28l-2.81-.58s-13.71,5.5-36.78-3.76-32.42-59.92-32.42-59.92-8.73,3.18-12.78,28.37,7.79,39.94,7.79,39.94C345.54,292.71,330,315,335.87,329.76c18.75-3.3,32.56-17.11,37.07-22.16-.41-1-.82-2.05-1.21-3.05.39,1,.8,2,1.21,3.05l1.59-1.87s.15,2.56.36,6.45C382.36,328.94,393.88,351.17,409.86,361.86Z" style="fill:#7a6a5f"/><path d="M378.59,301.24c.61,10.95-2,43.42-2.19,47.91-.31,6.08,5.92,12.74,10.91,36.47,3.12-13.6,19.95-19.1,19.95-20,0-.17,1-3.32,2.6-8.3C393.88,346.69,385.78,337.2,378.59,301.24Z" style="fill:#574c41"/><path d="M386.49,412.8c-.41-3.45-3.27-20.84-3.27-20.84s6.08-29.1,57.06-30c48.17.44,57.52,23.45,59.86,33s-2.34,15.2-3.74,19.54-5.61,7.38-11.69,8.68-88.39,0-88.39,0S387.43,420.62,386.49,412.8Z" style="fill:#e3c8de"/><path d="M418.26,389.17c-2.09,0-3.73,2.82-3.65,6.28s1.82,6.21,3.89,6.21,3.7-2.77,3.64-6.21S420.35,389.17,418.26,389.17Z"/><path d="M463.2,389.17c-2.09,0-3.82,2.82-3.86,6.28s1.6,6.21,3.67,6.21,3.8-2.77,3.86-6.21S465.29,389.17,463.2,389.17Z"/><path d="M398.76,332.51c3.87,0,6.94-2.68,6.85-6s-3.34-6.06-7.25-6.06-7,2.72-6.85,6.06S394.88,332.51,398.76,332.51Z"/><path d="M487.6,320.45c-3.91,0-7.15,2.72-7.24,6.06s3,6,6.86,6,7.11-2.68,7.24-6S491.51,320.45,487.6,320.45Z"/><path d="M559.7,330.82v-.27c-.46-11.09-3.75-36.36-23.4-47.09,11.37-25.16,8.36-50.53-8.62-71.72a5.38,5.38,0,0,0-5.47-1.79,5,5,0,0,0-3.84,4c-.27,1.91-2.82,19.15-9.84,35.29-5.24,12.05-14.43,26.59-28.52,28.18H406.92c-29.94-1.79-38.55-60.36-38.9-62.85a4.94,4.94,0,0,0-3.84-4,5.39,5.39,0,0,0-5.47,1.79c-17,21.21-20,46.57-8.5,71.69-18.72,11.12-21.86,35.74-22.31,46.47v.27a4.49,4.49,0,0,0,.4,2.45,5.3,5.3,0,0,0,5.95,2.77c1.2-.26,23.54-5.31,37-18.62l7.63,73.37c1.22,12.16,1.77,16.77,2.2,18.81.66,9.71,9.61,17.85,19.74,17.85H486c9.86,0,18-8.12,18.51-18.53l2.59-19.08v-.06l9-72.59c13.42,13.49,36,18.61,37.23,18.88a5.3,5.3,0,0,0,6-2.77A4.59,4.59,0,0,0,559.7,330.82ZM329.27,328l-.19.2Zm-1.06,1.56c0-.11.1-.22.16-.33-.06.11-.11.22-.16.33Zm-.29,1a3.56,3.56,0,0,1,.1-.47,3.86,3.86,0,0,0-.1.49Zm.11-.5a3.45,3.45,0,0,1,.14-.42,2.83,2.83,0,0,1-.14.44Zm.88-1.69-.17.24Zm-.3.42a2.26,2.26,0,0,0-.16.26l.16-.24Zm.89-1,.18-.15ZM495.37,395.3l-.24,5.74-.93,6.83v.38c-.22,5.15-3.95,9.47-8.15,9.47H400.79a9.73,9.73,0,0,1-9.39-9,4.87,4.87,0,0,0-.2-1.13c-.31-1.67-1.26-10.2-2-17.78l-.41-3.93a28.73,28.73,0,0,1,6.23-8.66c9.22-8.84,24.64-13.32,45.8-13.32.26,0,21.8.62,37.74,8.22a2.11,2.11,0,0,0,1.13.55,37.07,37.07,0,0,1,9.22,6.43,20.74,20.74,0,0,1,6.46,16.2Zm-54.52-35.17c-11.59,0-21.58,1.34-29.91,3.94l25.4-76.92h15.21l25.13,80c-16-6.46-34.74-7-35.83-7Zm-60.74-58.06a5,5,0,0,0-4.66-4.34,5.2,5.2,0,0,0-5.48,3.41c-4.18,12.87-21.34,20.25-31.14,23.5,1.38-11.35,6-28.5,20.88-34.36a4.77,4.77,0,0,0,3.06-5.4,4.87,4.87,0,0,0-2.24-3.07c-8.84-18.34-8.86-36.83-.31-53.24a145.65,145.65,0,0,0,8.2,25.11c9.38,21.27,22.19,32.54,38.08,33.42h25.38l-26,78.76A43.88,43.88,0,0,0,392,374.69a33.86,33.86,0,0,0-3.9,4.47Zm137.61-.92a5.21,5.21,0,0,0-5.44-3.41,5,5,0,0,0-4.69,4.25l-10.17,82.27a26,26,0,0,0-5.49-7.74,40.2,40.2,0,0,0-10-7L456,287.14h24.23a4.78,4.78,0,0,0,.53-.06c28.34-2.67,40.7-38.91,45.42-59.11,8.53,16.33,8.57,34.73-.08,53a4.88,4.88,0,0,0-2.82,3.38,4.77,4.77,0,0,0,3.32,5.48c16,5.34,20.76,23.13,22.18,34.85-10.94-3.61-27.22-11.41-31.15-23.53Zm40.84,27.1-.19-.2Zm-.42-.41-.18-.15Zm1.13,1.44a1.87,1.87,0,0,1,.15.32Zm-.55-.84.18.23Zm.3.41c.06.09.11.18.16.27-.07-.09-.15-.18-.21-.27Zm.59,1.3a2.77,2.77,0,0,1,.11.48,4.5,4.5,0,0,0-.16-.48Zm-.15-.44a3.52,3.52,0,0,1,.15.42,2.48,2.48,0,0,0-.2-.44Z"/><path d="M524.53,483.69l-.51.59-.24.36a47,47,0,0,0-6.28-3.86q-12.88-6.6-25.62-4.08h-.34A36.4,36.4,0,0,0,480,480.25l.34.7a36.91,36.91,0,0,0-8.42,6.44,45.06,45.06,0,0,0-8.14,9.45c-2.77,3.64-4.13,8.09-5.76,12.16a37.14,37.14,0,0,0-1.52,11.19l.12.07,1.23.1,1.42.14a36.15,36.15,0,0,0,.52,3.88,42.63,42.63,0,0,0,4.4,15c1.82,2.85,3.13,6.42,6.27,7.52.62,3.26,4.45,5,6.89,7,.8.12,2.67,2.67,3,.79,2.23,3.09,6,3.66,9.24,5.16,2.69,1.23,5.39,1,8,1.15l.2-1.76h0l.34-2.22V557c.25,0,.47,0,.72,0h0a12.09,12.09,0,0,1,1.46.27,33.66,33.66,0,0,0,10.72-.95c14.26-3.21,25.26-15,30-28.5l-2.47-.58a8.2,8.2,0,0,1-1.1,2.36c.3-.8.6-1.61.87-2.43l-.58-.13c.12-.37.21-.74.31-1.12l1.48.34c1.13-3.56.4-7.36,1.44-10.92,1.6-3.75-4.2-6.34-1.1-9.4a37.88,37.88,0,0,0-10.17-18.25C528.53,485.74,526.44,484.75,524.53,483.69Z" style="fill:#50260e"/><path d="M463.94,498.69q-8,15.53-2.85,30.91a37.75,37.75,0,0,0,19.21,22.6q15.6,8,31,3.06t23.36-20.46q7.9-15.42,3-30.78T517.45,480.8Q502.12,472.94,487,478T463.94,498.69Z" style="fill:#1e0e05"/><path d="M493.53,521.69l3.65-.58v.32Z" style="fill:#bb803e"/><path d="M498,521.41l.23-.46.94-.16.31.53Z" style="fill:#bb803e"/><path d="M497.51,520.69l-.46-3.37,1.21,2h0l-.56,1.3h-.17Z" style="fill:#bb803e"/><path d="M498.4,520.61l.34-.57.27.51-.61.06Z" style="fill:#bb803e"/><path d="M493.53,521.69l3.65-.58v.32Z" style="fill:#ae5919"/><path d="M498,521.41l.23-.46.94-.16.31.53Z" style="fill:#ae5919"/><path d="M497.51,520.69l-.46-3.37,1.21,2h0l-.56,1.3h-.17Z" style="fill:#ae5919"/><path d="M498.4,520.61l.34-.57.27.51-.61.06Z" style="fill:#ae5919"/><path d="M477.56,553.69c-1.87-1.37-2.51-3.84-4.32-5.3-4.14-3.2-6.25-7.83-9.21-11.89-2.82-3.78-3.46-8.12-3.12-12.61l1.83.43h5l6.11-.41,7-.1,4.88.66,6.81-.27,1.83-.09.26.12.71.14,3.07.35-3.34,5.74.91-1.27,2.44-3.55-.45,3.23L496.8,536l.42,2.51-.64,2.83,1.38,5.09-1.54,5.76,1.76,5-.34,2.45h-.23c-3.45,2-6.68-3.63-10.74-2.14-1.91-2.52-6-2.82-9.24-3.76Z" style="fill:#bb803e"/><path d="M477.31,554c-2.44-2.08-6.26-3.76-6.88-7-3.14-1.1-4.44-4.67-6.26-7.52a42.88,42.88,0,0,1-4.51-15.81l2.83.64v2.14c-.76,2.36,0,3.53,1.77,4.67-.81,3.5,2.59,3.51,3.2,7.06,1.53,3.86,3.75,7.8,7.49,9.6,1.11,1,1.07,2.62,2.56,3.67,5,1.93,8.73,6.17,14.39,6.31a8.43,8.43,0,0,0,5.89,1.61l-.23,1.79c-2.66-.19-5.33.06-8-1.17-3.26-1.5-7.05-2.07-9.28-5.15-.33,1.87-2.19-.7-3-.82Z" style="fill:#1e0e05"/><path d="M481.61,540.31c-1-1.09,1.39-2.49-.08-3.19-4.37-3.37-7.59-8-8.44-13.1h.71l7-.1,4.88.66,6.81-.27,1.83-.09.26.12.71.14,3.07.35L495,530.57l.91-1.27,2.44-3.55-.45,3.23-1.17,7.09.42,2.51-.64,2.83,1.17,4.38a138,138,0,0,1-16.07-5.44Z" style="fill:#ae5919"/><path d="M488.81,535.9c-4-3.79-9.35-7.19-10.75-12l2.72-.06,4.88.66,6.81-.27,1.83-.09h0l4.16-.16v.31h-3.8l.61.12,3.07.35L495,530.5l.91-1.27,2.44-3.55-.45,3.23L496.73,536l.42,2.51-.24,1a51.12,51.12,0,0,1-6.58-3.39c-.5-.11-1-.19-1.52-.29Z" style="fill:#ba6422"/><path d="M498.91,555.52l.31-4.94-.72-6.2.17-3.55-.14-4.44.12-5.07.59-3.49V521l.11-.16,2.06.25.36.82-.22-.78.84.12,4.56,1,9.82,2.25,3.47-.4,3.94,1.13,6.35,2,4.18-.67,3.64.88a41,41,0,0,1-5.27,10.9c-2.45,4.5-7.41,7-9.43,11.8-3.81,2.63-8.71,3.17-12.95,4.9-3.83,2.05-8,.51-11.77.54Z" style="fill:#bb803e"/><path d="M498.81,557.18l.08-1.55v-.35c2-.17,4-.64,6-.8,2.84,1.36,5.49-1.84,7.62-.84,3.21-2.24,6.62-4.75,10.61-5,2-1.6,2.53-5.42,5.83-5.21a1.79,1.79,0,0,0-.09.46,7.67,7.67,0,0,0,.91-3.1c2.94-2.43,4.3-6.08,6.27-9.43a7.51,7.51,0,0,0,2.55-3.93l2.47.59c-4.79,13.47-15.78,25.28-30,28.5a34.08,34.08,0,0,1-10.74,1,12.19,12.19,0,0,0-1.46-.3Z" style="fill:#1e0e05"/><path d="M498.6,541.87l.07-1-.14-4.44.12-5.07.59-3.49v-6.82l.11-.16,2.06.25.36.82-.22-.78.84.12,4.56,1,9.82,2.25,3.47-.4,3.94,1.13,4.63,1.41c-3.09,7.19-9.37,13.07-16.47,16.42a41.58,41.58,0,0,1-13.74-1.19Z" style="fill:#ae5919"/><path d="M498.53,536.05l.12-4.73.59-3.49V521l.11-.16,2.06.25.36.82-.22-.78.84.12,4.56,1,9.82,2.25,3.47-.4.29.09c-.29,1.55-.58,3.12-.86,4.73-2.07,4.89-7.47,6.73-13,8.57a24.77,24.77,0,0,1-8.09-1.42Z" style="fill:#ba6422"/><path d="M457.82,520.44c-.53-4.8,1.67-9.12,2.55-13.76-.1-5,3.39-8.83,6.67-12.17s6-7.55,10.39-9.64c1-.46,2.07-.91,3.1-1.34l3.06,5.94,1.79,4.52,2.43,5.5,2.66,6.42,1.48,4.71,2.62,6.15,1.15,2.79v.13l-.08.52-.23,2.86-4.36-.25-4.53-.66-7.63-.07-5.59-.89h-2.69l-4.08.18-8.7-.94Z" style="fill:#bb803e"/><path d="M456.47,520.29A37.77,37.77,0,0,1,458,509.06c1.63-4.07,3-8.47,5.76-12.12a44.27,44.27,0,0,1,16-15l.07.22.87,1.72a19.89,19.89,0,0,0-2.91,1.48c0,3.55-3.55,2.69-4.89,5.59-3.46,1.76-5.1,4.34-6.13,7.73-2.16.91-4.65,4.35-3,5-1.31,3.51-4.24,6.3-4.29,10.31-.08,1.72-.14,4.13-.17,6.62l-2.76-.28h-.15Z" style="fill:#1e0e05"/><path d="M469.76,521.24a16,16,0,0,1,.16-2.85c1.45-6.81,2.15-14.11,7.58-19a19.78,19.78,0,0,1,7.87-5.51v.06l2.43,5.5,2.66,6.42,1.48,4.71,2.62,6.15,1.15,2.79v.18l-.08.52-.23,2.86-4.36-.25-4.53-.66-7.63-.07-5.59-.89h-3.53Z" style="fill:#ae5919"/><path d="M474.69,521.42a9.46,9.46,0,0,1,.43-3.81c-.59-4.06,1.44-7.72,4.89-10.65h0c1.48-2.42,4.53-4.79,8.17-6.52l2.26,5.5,1.48,4.71,2.62,6.15,1.15,2.79V520l1,1.87h0l-.75,1.22h-.17l-.19-2.11-.15,2.1-4.36-.25-4.53-.66-7.63-.07-4.19-.65Z" style="fill:#ba6422"/><path d="M499.11,520.84v-.06l-.17-.52h1.23l-.4-.1-.69-.07h-.21l-.31-.9,2.05-2.73,6-7.9,1.71-2.91,2.48-3.12,4.06-5.08,3.93-5.4,4.67-6.74c3.18,2.9,6.77,5.41,9.07,9.08,2.47,3.33,3.64,7.21,5.15,11.11.3,4,.16,8,.78,12a62.31,62.31,0,0,1-1.76,8.44l-2-.47h-6.51l-7.4-2.2-7.07-.59-4.85-1.14-6.9-.42-2.8-.2Z" style="fill:#bb803e"/><path d="M536.71,525.83c.19-1.67.2-3.42.46-5.2,1.18.73.66-3.09.29-3.36.09-4.21,1.35-7.74-1-11.38-.81-3.2.17-5.66-2.77-7.69-.86-4.1-4.1-6.33-6.82-8.34a22.69,22.69,0,0,0-4.13-3.7l1.25-1.83.47-.6c1.91,1,4,2,5.21,4a38.07,38.07,0,0,1,10.18,18.45c-3.1,3.06,2.71,5.62,1.12,9.37-1,3.56-.34,7.38-1.46,10.94l-2.85-.63Z" style="fill:#1e0e05"/><path d="M499.11,520.84v-.06l-.17-.52h1.23l-.4-.1-.69-.07h-.21l-.31-.9,2.05-2.73,6-7.9,1.71-2.91,2.48-3.12,4.06-5.08,1.4-2a18.06,18.06,0,0,1,3.33,3.71c6,2.67,6.12,8.47,8.61,13.94a23.44,23.44,0,0,1-.9,12.06l-6.54-2-7.07-.59-4.85-1.14-6.9-.42-2.8-.2Z" style="fill:#ae5919"/><path d="M497.36,520.75l.29-.43h1l.24.57-1.48-.1Z" style="fill:#ba6422"/><path d="M497.87,520l.41-.52.2.54h-.61Z" style="fill:#ba6422"/><path d="M499.11,520.84v-.06l-.17-.52h1.23l-.4-.1-.69-.07h-.21l-.31-.9,2.05-2.73,6-7.9,1.71-2.91,2.48-3.12,1.6-2c9.24,4.12,8.12,12.53,6.18,22.54l-4.89-.42-4.85-1.14-6.9-.42-2.8-.2Z" style="fill:#ba6422"/><path d="M496,520.29l-1.24-3.79-1.28-4.4-4-8.23-.59-3.64-3.14-3.72-1.06-5.63-2.83-6.5-1.11-2.32a56.37,56.37,0,0,1,10-3.07c4.71-.19,9.65-2.34,14.08.24,4.61,2.65,10.59,2.1,14.46,6.19.27.3.56.58.84.87l-2.59,4.08-5.86,7.47-2.39,3.53-2.9,4.61-4.37,5.15-2.84,4-3.15,5.13Z" style="fill:#bb803e"/><path d="M481,482.5l-1-2.16a36.83,36.83,0,0,1,11.58-3.57c1.11-.22,6.72-.79,4.29-.2,4.32,0,8.51,2.29,12.35,3.07,4-1.82,7.5,1.6,10.87,3.37a6.37,6.37,0,0,0,1.9,2l-1.54,2.4-1.88-1.36c-3.48-4-8.17-4.09-12.82-5.64-6.08-.81-12.41-.88-18.3,1.11a23.68,23.68,0,0,0-5.41,1Z" style="fill:#1e0e05"/><path d="M496,520.29l-1.24-3.79-1.28-4.4-4-8.23-.59-3.64-3.14-3.72-.73-3.78a26.36,26.36,0,0,1,12.2-1.3c5.49.93,11,2,15.45,5.1l-1,1.31-2.39,3.53-2.9,4.61L502,511.13l-2.84,4-3.15,5.13Z" style="fill:#ae5919"/><path d="M496,520.29l-1.24-3.79-1.28-4.4-4-8.23-.59-3.64-1-1.18c6.93-3.06,15.75-3.59,20.66,2.88l.12.08h.15l-2.49,3.92L502,511.08l-2.84,4L496,520.21Z" style="fill:#ba6422"/><path d="M667.4,559.69c-3.93-2.09-8.68-1.61-12.54-3.92a60,60,0,0,0-12.57.31,45.34,45.34,0,0,0-11,3.56l.81,1.85.7,1.74c-.91.56-1.81,1.13-2.66,1.77l-1.72-2-2.14-2.58a30.25,30.25,0,0,0-5.39,4.58c-1.91,3.74-5.85,5.39-7.32,9.5a52.6,52.6,0,0,0-5.23,13.76,37.61,37.61,0,0,0,.81,19.1c.1.5.18,1,.31,1.49l.7.09,1.47-.69.89-.39.21-.1,2.84-1.27v.13l-1.43.71-3.11,1.6a35.65,35.65,0,0,0,4.68,9.58,26.74,26.74,0,0,0,9.16,9.27,39.24,39.24,0,0,0,14.75,7.5l.3-2,.2-1.65c.62.22,1.21.43,1.82.61l.18,4.14v2.09c1.49.27,3,.47,4.49.6a38.08,38.08,0,0,0,19.14-3.65c1.43-3.84,8.07-2.15,9.35-6.5a33.58,33.58,0,0,0,9.17-10.73l-1-1.3L685,618.5l.75.81A52.34,52.34,0,0,0,691.32,608a40.15,40.15,0,0,0-2.44-31.85l-2.7,1.33-.77.35c-.24-.45-.49-.9-.75-1.34l.47-.29a36.89,36.89,0,0,0-3.79-5.4c-2.6-2.15-4.55-5.48-7.76-6.69a2.64,2.64,0,0,1-1.27-.23l-.57-.34c-.9-.82-.93-2.31-2.75-2.74a11,11,0,0,0-1.65-1.06Z" style="fill:#50260e"/><path d="M618.76,579q7.46-14.57,22-19.11a35.42,35.42,0,0,1,27.74,2.24q14.64,7.5,19.32,21.94t-2.77,29q-7.41,14.47-21.78,19.17t-28.76-2.66q-14.4-7.37-18.84-21.64T618.76,579Z" style="fill:#1e0e05"/><path d="M667.39,561.12c-2.11-1-4.54-.31-6.69-1.2-4.8-2.06-9.88-1.67-14.87-2.29s-9.49,1.16-13.5,4c-.17,0-.31.13-.47.19l.85,2.08,3.57,3.85,2.34,4,4.24,6.69,2.93,3.95,3.06,6.1,1.88,3.72,2.08-4.57-.44,1.48-1.14,3.35,3.86-1.59,3-1.51,6.37-3.39,2.48-.38,2.48-1.5,5.48-1.55,3.58-2,4.8-2.91a14.22,14.22,0,0,1-1-1.84c.08-4-6.43-4.14-7.09-8.42-3.13-.45-5.41-3.86-7.78-6.22Z" style="fill:#bb803e"/><path d="M667.2,560c-3.93-2.09-8.67-1.61-12.53-3.92a60.13,60.13,0,0,0-12.58.31,46.2,46.2,0,0,0-11,3.55l1.37,3.26c2.35-1,3.18-3.25,5.78-3.8,2.58.26,6-1.22,7.52-.93,2.36,2.41,6.5-.47,8.32.7,2,1.92,6.35.49,7.62,2.09,1.36,1.42,3.35-.72,5.29,1,2.63,1.2,2.4,4.92,5.78,5,2.31-.26,2.15,1.1,1.83,2,2.79.89,2.92,5.23,6.41,4.45,2.17,1.41-1.37,2.36,1,4.5h0l2.12-1.32.87-.56a37.43,37.43,0,0,0-3.79-5.4c-2.6-2.15-4.55-5.48-7.76-6.69-3.07.17-2-2.7-4.59-3.31a11,11,0,0,0-1.65-1.06Z" style="fill:#1e0e05"/><path d="M659.24,573c-1.34-.36-1.52,2.22-2.73,1.26-5.42-2.64-11.66-3.33-16.83-.85l3.18,5,2.93,4,3.06,6.1,1.88,3.72,2.08-4.57-.44,1.48-1.14,3.35,3.86-1.59,3-1.51,6.37-3.39,2.48-.38,2.48-1.5.87-.24a135.81,135.81,0,0,0-11-10.86Z" style="fill:#ae5919"/><path d="M656.93,579.55c-3.75,1.14-7.74-1.67-11.7-.57-.53.14-1.06.28-1.57.47l2.13,2.9,3.06,6.1,1.88,3.72,2.08-4.57-.44,1.48-1.14,3.35,3.86-1.59,3-1.51,5.86-3.12c-2.3-2.37-4.84-4.51-7-6.66Z" style="fill:#c06926;opacity:0.6943231225013733;isolation:isolate"/><path d="M687,577.34l-2.32,1.1-5.08,3.47-3.32,1.28L672,584.5l-4.77,1.71-3.13,1.64-4.68,1.54-3,1,.62-.16-1.43.6-1.38.52,3.93,4,3.55,3,7.75,6.42,1.81,3,3.25,2.41,5.41,3.89,4.29,4.11a38.19,38.19,0,0,0,2.76-4.65c2.77-4.31,2.61-9.88,5.81-13.94.48-4.61-1.4-9.16-1.93-13.71C690.82,582.45,688.72,579.89,687,577.34Z" style="fill:#bb803e"/><path d="M688.75,576.45l-2.7,1.33c1.83,1.73,2,3.71,3.16,6.94,1.72,3,1.16,6.82,1.91,10.29.9,2.38,2.13,4.23-.53,5.42-.83,2.89-3.07,7-2.74,8.87,1.91-1.19-2.33,2.08-1.47,3.29a42.9,42.9,0,0,1-3.24,4.57l1.68,1.6.75.82a52.34,52.34,0,0,0,5.62-11.28,40.15,40.15,0,0,0-2.44-31.85Z" style="fill:#1e0e05"/><path d="M674.39,583.78l-2.44.72-4.77,1.71-3.13,1.64-4.68,1.54-3,1,.62-.16-1.43.6-1.38.52,3.93,4,3.55,3,7.75,6.42,1.81,3,3.25,2.41,1.79,1.29a32.84,32.84,0,0,0,4.38-17.07A38.53,38.53,0,0,0,674.39,583.78Z" style="fill:#ae5919"/><path d="M668,585.92l-.79.29-3.13,1.64-4.68,1.54-3,1,.62-.16-1.43.6-1.38.52,3.93,4,3.55,3,7.75,6.42,1.17,2a20.64,20.64,0,0,0,2.84-9.19C673.4,593,671,589.27,668,585.92Z" style="fill:#c06926;opacity:0.6943231225013733;isolation:isolate"/><path d="M627.3,562.22c-3.89,2.27-6.23,6.21-9.44,9.32-4.2,2.64-5.53,7.68-6.51,12.26-1.18,4.56-3,9.13-2.36,14a74.58,74.58,0,0,0,2.42,10.75l7.76-3.42,4.48-2.37,4.6-1.61,6.22-3,4.32-2.59,5.81-3,5.24-2-.82-1.14-.15-.16-.7-.93-3.06-3.45-5.18-7.47-2.83-3-3-2.86-3.33-5.16Z" style="fill:#bb803e"/><path d="M626.11,560.69a29.73,29.73,0,0,0-5.39,4.56c-1.92,3.74-5.86,5.38-7.33,9.49a53.35,53.35,0,0,0-5.28,13.8,37.69,37.69,0,0,0,.78,19.12c.1.5.2,1,.33,1.5l.69.06,2.6-1.17c-.22-.7-.42-1.38-.66-2.09-.53-4.22-3.11-9.16-1.3-12.71-2-3.2,3.48-6.07,1.65-10.23.93-2.21,2.9-4.17,2.67-7.1,1.41-2.84,4.33-2.87,6.26-6.25,2.28-2.3,3.83-5.92,7.07-6.39Z" style="fill:#1e0e05"/><path d="M635.92,573.26l-.29.24c-4.85,4.48-10.43,8.59-11.75,15.35a20.18,20.18,0,0,0,.6,13.6l3.77-1.32,6.22-3,4.32-2.59,5.81-3,5.24-2L649,589.4l-.15-.16-.7-.93-3.06-3.43-5.18-7.47-2.83-3Z" style="fill:#ae5919"/><path d="M640.72,578.59a20.86,20.86,0,0,0-10.38,14.71,17.82,17.82,0,0,0,.74,6.45l3.39-1.63,4.32-2.59,5.81-3,5.24-2-.82-1.14-.15-.16-.7-.93-3.06-3.42-4.36-6.29Z" style="fill:#c06926;opacity:0.6943231225013733;isolation:isolate"/><path d="M650.39,593l2.3,3.44-.27-.25-.49-.58-2-2.45-.42,2.17-.68,4.48-1.48,9.83-1.08,3.18-1.85,3.06-.12,5.89L641.65,630l.22,6.61a29.44,29.44,0,0,0,8.85,1.14c4.15,0,8-1.29,12.06-2.35,3.41-2.12,6.6-4.64,10.14-6.45a54.15,54.15,0,0,0,9.8-12.3l-2.24-2.9-4.74-2.65-5.42-1.62-5.22-6-4.37-1.3-5.16-4.6-5.23-4.68Z" style="fill:#bb803e"/><path d="M681.88,615.52a6.74,6.74,0,0,0-.42,1.76c-2.39,2.78-4.38,6.26-7.46,8.66-1.86,1.93-2.61,4.14-5.63,4.38-2.51.94-4.6,2.66-4.93,4.53-2.52-3.16-4.81,2.32-7.27,1.34-1.25-1.22-5.48.14-5.62.51-3.25.48-5.74-1-8.65-1.41l.08,3.44c1.5.27,3,.46,4.47.59a38.15,38.15,0,0,0,19.16-3.63c1.44-3.84,8-2.15,9.31-6.5a34,34,0,0,0,9.2-10.75Z" style="fill:#1e0e05"/><path d="M650.39,593l2.3,3.44-.27-.25-.49-.58-2-2.45-.42,2.17-.68,4.48-1.48,9.83-1.08,3.18-1.85,3.06-.12,5.89-.26.86a18.67,18.67,0,0,0,2.89.23c5.27,3.38,9.9.42,15.52-.47a23,23,0,0,0,11.87-11.61l-4-1.22-5.22-6-4.37-1.3-5.16-4.6-5.23-4.68Z" style="fill:#ae5919"/><path d="M650.39,593l2.3,3.44-.27-.25-.49-.58-2-2.45-.42,2.17-.68,4.48-1.48,9.83-1.08,3.18-1.67,2.91a21.37,21.37,0,0,0,8.67,1.37c6.71,0,12-4.41,14.81-10.11l-3-3.41-4.37-1.3-5.16-4.6L650.35,593Z" style="fill:#c06926;opacity:0.6943231225013733;isolation:isolate"/><path d="M651.34,590.88l-3.86,1.81-4,2.09-8.74,4.73-3.23,1-3.47,2-5.27,2.4-6.88,1.78-3,1.53c.41,1.34.88,2.65,1.41,4,2.41,4,3.32,9.36,7.9,11.65,4.75,2.4,7.56,7.71,13.1,8.71a41.91,41.91,0,0,1,4.44,1l.37-2.66,1.45-7.85,2.17-4.58.9-6.85,2.86-4.77.57-6.57,2.21-6.31,1.1-3.08Z" style="fill:#bb803e"/><path d="M614,607.62l-3.11,1.6a35.24,35.24,0,0,0,4.66,9.57,26.94,26.94,0,0,0,9.18,9.26,39.4,39.4,0,0,0,14.75,7.54l.42-3.15c-3.22-1.87-7.27-.43-9.68-3.79-2-2.3-4.28-3.23-6.87-5.87-4.5-.5-4.06-5.76-6.83-8.51,1.16,1.5,2.41,4.21.57,1.11a27.44,27.44,0,0,1-3.09-7.76Z" style="fill:#50260e"/><path d="M651.34,590.88l-3.86,1.81-4,2.09-8.74,4.73-3.23,1-3.47,2-1.62.72a25.29,25.29,0,0,0,3.33,5.65c3.82,4.51,7.77,9,13.37,10.81l.6-1.23.9-6.85,2.86-4.77.57-6.57,2.21-6.31,1.1-3.08Z" style="fill:#ae5919"/><path d="M651.34,590.88l-3.86,1.81-4,2.09-8.74,4.73-1.88.61a22.66,22.66,0,0,0,11.59,12.57l.15-1.12,2.86-4.77.57-6.56,2.21-6.32,1.1-3.08Z" style="fill:#c06926;opacity:0.6943231225013733;isolation:isolate"/><path d="M664.45,478.08a24.56,24.56,0,0,0-4.1.5v.1c-10.45-.1-19.26,3.18-26.37,9.93a37.68,37.68,0,0,0-2.67,2.84.18.18,0,0,0-.15.09c1.38-2.09-2.34,2.14-3,3.06a36.57,36.57,0,0,0-6,10.53l1.59.58c-.34,1.23-.58,2.52-.81,3.81l-2.62-.9-2.62-.91h-.15a37.71,37.71,0,0,0-3.34,10.83c-.23,4.37-.87,8.94.11,13.42a44.61,44.61,0,0,0,8.31,20.37l.14-.19,1.18-1,.15-.13.19-.14,4-3.11a43.22,43.22,0,0,0,13,8.74c3.23,1,6.49,3,9.61,1.84,2.56,2.12,6.59,1,9.79,1,.69-.42,3.74.39,2.8-1.27,3.68,1,7-1,10.46-1.92,2.86-.76,4.73-2.65,6.89-4.19l-.49-.82c.62-.37,1.25-.71,1.85-1.12l1.86,2.11v0l.23.24,1,1.18a10.75,10.75,0,0,1,1.22-.81c2.9-2.33,4.73-4.85,7-8.21,5.5-8.49,7-18.8,5.39-28.67a40.66,40.66,0,0,0-2.06-12.07l1.64-.74c-1.3-3.51-4.22-6.1-5.58-9.56-.59-2.27-2.88-2.73-4.61-3.54-.62-.64-1.27-1.24-1.92-1.83a3.33,3.33,0,0,1,0-1.37,38.23,38.23,0,0,0-19.38-8.38,6.79,6.79,0,0,0-2.45-.42Z" style="fill:#50260e"/><path d="M632.11,544.25l.14.14-1.72,1.36,1.58-1.5Z" style="fill:#50260e"/><path d="M622.19,516.18q-.63,16.85,10.11,28.24a36.51,36.51,0,0,0,26,12q16.92.65,28.4-10T698.81,519q.63-16.73-9.91-28.21t-27.13-12.07q-16.63-.65-27.79,10t-11.79,27.55Z" style="fill:#1e0e05"/><path d="M657.37,524.49l3.06-2.06.13.29Z" style="fill:#bb803e"/><path d="M661.29,522.37v-.52l.78-.54.51.35Z" style="fill:#bb803e"/><path d="M660.55,521.91,658.71,519l1.94,1.31v1.47l-.14.09Z" style="fill:#bb803e"/><path d="M661.32,521.47l.07-.66.47.35Z" style="fill:#bb803e"/><path d="M657.37,524.49l3.06-2.06.13.29Z" style="fill:#ae5919"/><path d="M661.29,522.37v-.52l.78-.54.51.35Z" style="fill:#ae5919"/><path d="M660.55,521.91,658.71,519l1.94,1.31v1.47l-.14.09Z" style="fill:#ae5919"/><path d="M661.32,521.47l.07-.66.47.35Z" style="fill:#ae5919"/><path d="M660.65,559.05c-2.32.12-4.38-1.38-6.71-1.35-5.22.16-9.8-2.07-14.67-3.33-4.58-1.11-7.84-4.06-10.44-7.74l1.68-.83,3.84-3.13,4.44-4.2,5.32-4.52,4.17-2.59,5.08-4.54,1.36-1.23.28-.08.63-.34,2.59-1.69L659.3,530l-.11-1.56-.37-4.29,1.7,2.78,3.59,6.22,1.93,1.67,1.3,2.58,4.3,3.06,2.49,5.42,4.51,2.7,1.3,2.11c-.05.06-.12.11-.17.16-1.38,3.74-7.46,1.44-9.64,5.18-3.08-.74-6.45,1.65-9.51,3Z" style="fill:#bb803e"/><path d="M660.64,559.43c-3.21-.06-7.22,1.07-9.78-1-3.12,1.15-6.39-.78-9.61-1.82a42.83,42.83,0,0,1-13.55-9.34l2.59-1.3c.47.54,1,1.12,1.4,1.62.91,2.31,2.24,2.73,4.34,2.48,1.6,3.22,4.23,1.06,7,3.42,3.64,2,7.86,3.63,11.88,2.65,1.52.09,2.5,1.34,4.31,1.19,5.07-1.67,10.66-.78,15.11-4.28a8.49,8.49,0,0,0,5.57-2.49l1,1.52c-2.17,1.54-4.06,3.43-6.92,4.2-3.47.91-6.76,2.89-10.44,1.92.94,1.66-2.13.86-2.82,1.28Z" style="fill:#1e0e05"/><path d="M655.22,546.1c-1.44-.22-.52-2.8-2.1-2.41-5.51.18-10.94-1.34-14.85-4.74l.52-.48,5.32-4.52,4.17-2.59,5.08-4.54,1.36-1.23.28-.08.63-.34,2.59-1.69L659.3,530l-.11-1.56-.37-4.29,1.7,2.78,3.59,6.22,1.93,1.67,1.3,2.58,3.69,2.64a133.87,133.87,0,0,1-15.84,6Z" style="fill:#ae5919"/><path d="M658,538.12c-5.53-.35-11.8.4-15.91-2.39l2.06-1.78,4.17-2.59,5.08-4.54,1.36-1.23h0l3.11-2.77.17.26-3,2.39.55-.29,2.59-1.69,1.08,6.56-.11-1.56-.37-4.29,1.7,2.78,3.67,6.21,1.93,1.67.47,1a49.52,49.52,0,0,1-7.23,1.56l-1.35.76Z" style="fill:#ba6422"/><path d="M684.11,552.41l-3.19-3.72-4.81-4L673.75,542,670.54,539l-3.46-3.71-2-2.91-3.48-3.52-1.31-1.35v-.19l1.65-1.26.83.33-.7-.4.68-.51,3.93-2.49,8.59-5.25,2.21-2.7,3.59-2,5.91-3,2.52-3.39,3.11-1.91a40.81,40.81,0,0,1,3.86,11.48c1.41,4.93-.35,10.22,1.52,15-.87,4.54-4,8.35-5.81,12.55-1.3,4.15-5.37,6-8,8.62Z" style="fill:#bb803e"/><path d="M685.24,553.69l-1-1.17-.23-.24c1.27-1.5,2.39-3.25,3.71-4.76,3-1,2.63-5.15,4.85-5.93.73-3.84,1.41-8,4.08-11,.32-2.54-2-5.64.52-7.79a1.22,1.22,0,0,0,.26.38,8,8,0,0,0-1.53-2.85c.4-3.79-1.18-7.35-2.11-11.13a7.69,7.69,0,0,0-.93-4.6l2.17-1.3c6,13,6.43,29.12-1.51,41.38-2.27,3.36-4.09,5.86-7,8.19a11.11,11.11,0,0,0-1.25.81Z" style="fill:#1e0e05"/><path d="M674.37,542.85l-.67-.79L670.49,539,667,535.27l-2-2.91-3.48-3.52-1.31-1.35v-.19l1.65-1.26.83.33-.7-.4.68-.51,3.93-2.49,8.59-5.25,2.21-2.7,3.59-2,4.32-2.22c2.83,7.3,2.46,15.9-.27,23.25a40.8,40.8,0,0,1-10.65,8.75Z" style="fill:#ae5919"/><path d="M670.25,538.69,667,535.23l-2-2.91-3.48-3.52-1.31-1.35v-.19l1.65-1.26.83.33-.7-.4.68-.51,3.93-2.49,8.59-5.25,2.21-2.7.26-.15c.87,1.33,1.77,2.67,2.7,4,1.94,5-.63,10-3.31,15.24a24.94,24.94,0,0,1-6.78,4.63Z" style="fill:#ba6422"/><path d="M618.78,508.14c-2.49,4.14-2.31,9-3.45,13.56-2.17,4.45-.64,9.43.94,13.85,1.41,4.49,2.25,9.36,5.39,13.12.72.84,1.49,1.7,2.25,2.52l5.26-4.11,3.53-3.35,4.51-4,5.1-4.71,3.33-3.65,5-4.48,2.22-2v-.1l.14-.51,1-2.69L649.94,520l-4.41-1.29-7-3.14L633.11,514l-2.43-1.14L627.11,511l-8.29-2.81Z" style="fill:#bb803e"/><path d="M617.49,507.69a37.69,37.69,0,0,0-3.33,10.83c-.23,4.37-.84,8.94.14,13.42a44.35,44.35,0,0,0,8.28,20.34l.16-.17,1.51-1.2a18.35,18.35,0,0,1-2-2.56c1.44-3.24-2.1-3.94-2.1-7.13a11.71,11.71,0,0,1-2.34-9.53c-1.57-1.74-2.4-5.91-.59-5.77.28-3.73-1.21-7.51.42-11.17.65-1.59,1.61-3.8,2.63-6.07l-2.63-.91h-.14Z" style="fill:#1e0e05"/><path d="M630,512.44a15.88,15.88,0,0,0-1.05,2.65c-1.54,6.79-4,13.71-1.07,20.39a20,20,0,0,0,4.83,8.31v-.06l4.51-4,5.1-4.71,3.33-3.65,5-4.48,2.22-2v-.1l.14-.51,1-2.69L649.9,520l-4.37-1.29-7-3.14L633.11,514l-2.43-1.14-.75-.39Z" style="fill:#ae5919"/><path d="M634.5,514.34a9.25,9.25,0,0,0-1.2,3.65c-2.25,3.43-1.94,7.61,0,11.71h0c.34,2.81,2.11,6.25,4.69,9.35l4.35-4,3.33-3.65,5-4.48,2.22-2v-.1l.09-.26,1.69-1.27h0l-.17-1.42-.16-.06-1,1.83.74-2L650,520l-4.49-1.34-7-3.14-4.07-1.18Z" style="fill:#ba6422"/><path d="M663,523.49h0l-.45-.31,1-.76-.37.16-.6.37-.18.1-.79-.52-.06-3.42-.11-9.91-.43-3.34v-4l.09-6.51-.2-6.68-.44-8.18c4.28.34,8.67.13,12.73,1.64,4,1.12,7.29,3.48,10.88,5.64,2.68,3,5,6.26,7.93,9a62.46,62.46,0,0,1,3.78,7.76l-1.89.87-5.13,4-7.2,2.79-6,3.85-4.53,2.07L665.38,522l-2.33,1.55Z" style="fill:#bb803e"/><path d="M695.8,504.43c-.87-1.45-1.94-2.84-2.83-4.4,1.38-.14-1.37-2.85-1.82-2.83-2.51-3.39-3.68-7-7.72-8.43-2.6-2-3.34-4.59-6.91-4.4-3.19-2.71-7.11-2.5-10.49-2.43a22.31,22.31,0,0,0-5.53-.39l-.13-2.23v-.76c2.15-.33,4.41-.85,6.55,0a38.1,38.1,0,0,1,19.35,8.38c-.58,4.32,5.58,2.79,6.61,6.73,1.36,3.46,4.26,6,5.55,9.55l-2.63,1.25Z" style="fill:#1e0e05"/><path d="M663,523.49h0l-.45-.31,1-.76-.37.16-.6.37-.18.1-.79-.52-.06-3.42-.11-9.91-.43-3.34v-4l.09-6.51-.1-2.41a18.12,18.12,0,0,1,4.9.9c6.42-1.59,10,3,15.35,5.76a23.51,23.51,0,0,1,6.63,10.09l-6.36,2.45L675.58,516l-4.53,2.07L665.34,522,663,523.5Z" style="fill:#ae5919"/><path d="M661.6,524.48V524l.72-.61.54.3-1.23.83Z" style="fill:#ba6422"/><path d="M661.54,523.58v-.67l.49.31-.5.36Z" style="fill:#ba6422"/><path d="M663,523.49h0l-.45-.31,1-.76-.37.16-.6.37-.18.1-.79-.52-.06-3.42-.11-9.91-.43-3.34v-6.57c9.82-2.38,14.08,5,18.68,14.07L675.58,516l-4.53,2.07L665.34,522,663,523.52Z" style="fill:#ba6422"/><path d="M661.11,523.49l-3.49-1.94-3.93-2.35-8.58-3.32-2.91-2.26-4.83-.6-4.62-3.41-6.49-2.85-2.39-.94a55.53,55.53,0,0,1,5.2-9c3.31-3.35,5.47-8.29,10.47-9.41,5.18-1.18,9.18-5.65,14.8-5.29.4,0,.8.05,1.2.07l.89,4.76.79,9.45.66,4.22,1,5.36.31,6.75.66,4.88Z" style="fill:#bb803e"/><path d="M624.34,506l-2.23-.88a36.36,36.36,0,0,1,6-10.49c.66-.92,4.39-5.15,3-3.06,3.18-2.91,7.79-4.12,11.13-6.15,1.68-4,6.58-3.93,10.25-4.92a6.29,6.29,0,0,0,2.76.18l.5,2.8-2.3.28c-5.25-.53-8.77,2.56-13.23,4.58-5,3.55-9.68,7.8-12.64,13.26a23.92,23.92,0,0,0-3.29,4.4Z" style="fill:#1e0e05"/><path d="M661.11,523.49l-3.49-1.94-3.93-2.35-8.58-3.32-2.91-2.26-4.83-.6-3.11-2.28a26.21,26.21,0,0,1,8-9.25c4.65-3,9.41-6,14.78-6.77l.14,1.65.66,4.22,1,5.36.31,6.75.66,4.88Z" style="fill:#ae5919"/><path d="M661.11,523.49l-3.49-1.94-3.93-2.35-8.58-3.32-2.91-2.26-1.52-.22c3-7,9.08-13.34,17.09-11.93h.14l.14-.07.85,4.57.31,6.75.66,4.88Z" style="fill:#ba6422"/><path d="M595.55,520.69a3.85,3.85,0,0,0-2.88-.3,32.49,32.49,0,0,0-7.63-2,38.49,38.49,0,0,0-14.55-2.19v-1l-.06-.82v-1.13a52.69,52.69,0,0,0-11.81,4.53,37.11,37.11,0,0,0-5.2,3.3h0l-.15.08c-6.61,3.74-11.87,9.44-15.77,17-.59,1.15-1.12,2.29-1.6,3.44l-.95-.33a37.48,37.48,0,0,0-2,6.27c-.12,3.37-1.56,7-.56,10.25a3.75,3.75,0,0,1,.38.51,13.19,13.19,0,0,0,.11,2.08c-.35.87-.92,1.72-.33,3a11.58,11.58,0,0,0,.17,2c.74,4.39,4,7.87,4.55,12.33a59.81,59.81,0,0,0,7.91,9.75,45.49,45.49,0,0,0,9.56,6.6l1.12-2,.51.26-.57,2A35.2,35.2,0,0,0,566,597.31,26.74,26.74,0,0,0,579,597a39,39,0,0,0,15.58-5.53l-1.3-1.63-.06-.08.83-.59,1.09,1.62,1.08,1.63a29.41,29.41,0,0,0,5.83-4c2.28-3.53,6.37-4.76,8.24-8.71a52.82,52.82,0,0,0,6.58-13,37.54,37.54,0,0,0,1.16-19.1c0-.51-.1-1-.18-1.53l-.68-.13-2.7.9-3.21,1.07v-.06l3.62-2.29,2.9-1.82c-.53-1.42-1.15-2.82-1.8-4.17A38,38,0,0,0,603,525c-3,.55-4.9-3-7.49-4.32Z" style="fill:#50260e"/><path d="M607.26,573.75q7.85-15.32,2.85-30.48a37.26,37.26,0,0,0-19-22.3q-15.39-7.87-30.58-3t-23,20.18q-7.79,15.2-3,30.35t19.93,22.9q15.12,7.76,30,2.76t22.79-20.4Z" style="fill:#1e0e05"/><path d="M533.47,564.54c.53,2.25,2.53,3.78,3.14,6,1.29,5.06,4.7,8.84,7.25,13.18s6.71,6.81,11.41,8.26c.14.1.29.17.43.26l1.14-1.94.88-5.17,1.72-4.27,2.72-7.44,1.34-4.72,3-6.13,1.81-3.76-4.9,1.14,1.44-.55,3.36-1.15-3.61-2.08-3-1.42-6.57-3L553.21,550l-2.7-1-4.58-3.4L542.11,544l-5.24-2a13.38,13.38,0,0,1-.86,1.89c-3.2,2.36.64,7.62-2.35,10.74,1.56,2.76.24,6.65-.19,10Z" style="fill:#bb803e"/><path d="M532.71,565.35c.74,4.39,4,7.86,4.54,12.32a60.1,60.1,0,0,0,7.92,9.78,45.78,45.78,0,0,0,9.56,6.58l1.75-3.07c-2.19-1.28-4.52-.54-6.54-2.27-1.37-2.2-4.66-4-5.34-5.38.48-3.34-4.34-4.86-4.52-7,.31-2.75-3.49-5.33-3-7.31.29-1.94-2.61-2.21-2.43-4.8-.65-2.82,2.44-4.9.47-7.65-1.61-1.67-.44-2.37.51-2.7-1-2.75,2.37-5.49-.37-7.78-.21-2.58,2.7-.36,3-3.53v0l-2.33-.87-1-.35a37.41,37.41,0,0,0-2,6.29c-.13,3.37-1.57,6.94-.57,10.22,2,2.33-.93,3.21.17,5.65a9.72,9.72,0,0,0,.17,1.94Z" style="fill:#1e0e05"/><path d="M547.84,563.78c.53,1.29,2.69-.14,2.67,1.39,1.21,5.91,4.47,11.28,9.59,13.85l2.06-5.58,1.34-4.72,3-6.13,1.81-3.76-4.9,1.14,1.44-.55,3.36-1.15-3.61-2.08-3-1.42-6.57-3L553.21,550l-2.7-1-.72-.54A131,131,0,0,0,547.84,563.78Z" style="fill:#ae5919"/><path d="M554.48,561.6c3.2,2.28,3.4,7.15,6.69,9.62l1.33,1,1-3.46,3-6.13,1.81-3.76-4.9,1.14,1.44-.55,3.36-1.15-3.61-2.08-3-1.42-6.05-2.75c-.47,3.26-.62,6.57-1,9.58Z" style="fill:#c06926;opacity:0.6943231225013733;isolation:isolate"/><path d="M540.8,543.32l2.45.76,6.09.88,3.32,1.3,4.05,1.93,4.67,2,3.43.91,4.49,2,2.85,1.27-.57-.29,1.46.52,1.37.55-.21-5.58-.56-4.64-1.37-10,.69-3.44-.76-4L570.83,521l-.38-5.92a39.07,39.07,0,0,0-5.18,1.56c-5,1.3-8.61,5.51-13.72,6.34-3.46,3.07-5.16,7.69-7.85,11.4C541.4,537,541.22,540.25,540.8,543.32Z" style="fill:#bb803e"/><path d="M538.87,542.77l2.9.85c-.19-2.51,1-4.1,2.36-7.25.79-3.41,3.76-5.8,5.55-8.87.94-2.36,1.29-4.55,4.06-3.63,2.56-1.57,7-3.09,8-4.68-2.22-.42,3.12,0,3.31-1.43a42.74,42.74,0,0,1,5.48-1.17l-.16-2.32v-1.11a53.27,53.27,0,0,0-11.76,4.53,40.15,40.15,0,0,0-19.74,25.1Z" style="fill:#1e0e05"/><path d="M554.42,547.07l2.29,1.12,4.67,2,3.43.91,4.49,2,2.85,1.27-.57-.29,1.46.52,1.37.55-.21-5.58-.56-4.64-1.37-10,.69-3.44-.76-4-.45-2.16A32.9,32.9,0,0,0,557,535,38.12,38.12,0,0,0,554.42,547Z" style="fill:#ae5919"/><path d="M560.61,549.83l.77.32,3.43.91,4.49,2,2.85,1.27-.57-.29,1.46.52,1.37.55-.21-5.58-.56-4.64-1.37-10,.48-2.24a20.39,20.39,0,0,0-8.31,4.84c-3,3.38-3.8,7.77-3.83,12.28Z" style="fill:#c06926;opacity:0.6943231225013733;isolation:isolate"/><path d="M595.11,591c4.1-1.87,6.83-5.55,10.34-8.33,4.45-2.19,6.28-7.07,7.72-11.53,1.63-4.41,3.94-8.78,3.76-13.66a72.76,72.76,0,0,0-1.32-11l-8.06,2.63-4.71,1.9-4.73,1.19-6.49,2.36-4.51,2.18L581,559.1l-5.42,1.43.71,1.22.12.17.61,1,2.72,3.74,4.4,7.94,2.52,3.31,2.62,3.1,2.79,5.48Z" style="fill:#bb803e"/><path d="M596.23,592.57a30.14,30.14,0,0,0,5.83-4c2.28-3.53,6.37-4.77,8.24-8.71a52.74,52.74,0,0,0,6.59-13.17,37.43,37.43,0,0,0,1.15-19.1,10.09,10.09,0,0,0-.17-1.53l-.68-.14-2.7.91c.14.72.28,1.42.45,2.14.09,4.25,2.16,9.43,0,12.78,1.72,3.39-4.08,5.69-2.68,10-1.14,2.11-3.3,3.85-3.37,6.79-1.69,2.68-4.6,2.42-6.86,5.59-2.5,2.06-4.4,5.5-7.68,5.64l1.88,2.77Z" style="fill:#1e0e05"/><path d="M587.68,579.09a2.2,2.2,0,0,0,.32-.21c5.27-4,11.25-7.48,13.24-14.08a20.23,20.23,0,0,0,.78-13.59l-3.89.94-6.49,2.36-4.53,2.18L581,559.1l-5.42,1.43.71,1.22.12.17.61,1,2.72,3.74,4.4,7.94,2.52,3.31Z" style="fill:#ae5919"/><path d="M583.45,573.31a20.89,20.89,0,0,0,11.81-13.62,17.43,17.43,0,0,0-.08-6.48l-3.54,1.27-4.53,2.21L581,559.1l-5.42,1.43.71,1.22.12.17.61,1,2.72,3.74Z" style="fill:#c06926;opacity:0.6943231225013733;isolation:isolate"/><path d="M574.11,560l1.77-3.73-.08.35-.24.73-1.1,2.92,2.07-.75,4.2-1.71,9.21-3.76,3.29-.7h3.58l5.12-2.91,8.5-2,5.56-3.57a29.23,29.23,0,0,0-3.57-8.18c-2.1-3.57-5.22-6.22-8.21-9.14-3.57-1.84-7.38-3.29-10.75-5.4A54.89,54.89,0,0,0,577.85,520l-1.34,3.41.17,5.43,1.38,5.47-2.45,7.54,1.13,4.42-1.3,6.78Z" style="fill:#bb803e"/><path d="M577.34,521.39a6.56,6.56,0,0,0,1.73-.54c3.62.63,7.63.55,11.27,2,2.61.61,4.9.12,6.66,2.59,2.1,1.68,4.65,2.58,6.43,1.91-1.42,3.78,4.46,2.94,4.88,5.55-.4,1.69,2.94,4.63,3.33,4.55,2.09,2.55,2.1,5.43,3.23,8.15l2.92-1.84c-.54-1.41-1.14-2.78-1.79-4.13a38.25,38.25,0,0,0-13-14.57c-4,.74-6-5.79-10.36-4.65a34,34,0,0,0-14-2.39l-1.35,3.41Z" style="fill:#50260e"/><path d="M574.11,560l1.77-3.73-.08.35-.24.73-1.1,2.92,2.07-.75,4.2-1.71,9.21-3.76,3.29-.7h3.58l5.12-2.91.87-.22a16.45,16.45,0,0,0-1.29-2.59c.2-6.26-4.72-8.71-8.37-13.07a23.08,23.08,0,0,0-16-4.23l1,4-2.45,7.54,1.13,4.42-1.3,6.78Z" style="fill:#ae5919"/><path d="M574.11,560l1.77-3.73-.08.35-.24.73-1.1,2.92,2.07-.75,4.2-1.71,9.21-3.76,3.29-.7h3.34a21.34,21.34,0,0,0-3.28-8.14c-3.47-5.74-10-8-16.3-7.53l-1.38,4.23,1.13,4.42-1.3,6.78Z" style="fill:#c06926;opacity:0.6943231225013733;isolation:isolate"/><path d="M570.11,552.28l-1.32,4-1.22,4.41-2.53,9.6-1.46,3.07-.93,3.87-1.86,5.46-3.41,6.2-1,3.25c1.26.62,2.54,1.17,3.84,1.68,4.61,1,9.1,4,13.91,2.23,5-1.8,10.79-.22,15.31-3.56a41.67,41.67,0,0,1,3.8-2.52l-1.7-2.1-4.73-6.43L585,576.71l-4.39-5.34-1.51-5.32-4.4-4.92-3.09-5.94Z" style="fill:#bb803e"/><path d="M556.76,591l-1,3.36a35.58,35.58,0,0,0,10.17,3.17,26.73,26.73,0,0,0,13-.34,39.21,39.21,0,0,0,15.59-5.57l-2-2.47c-3.56,1.07-5.28,5-9.37,4.45-3-.13-5.29.91-9,1-3.44,2.93-7-1-10.88-.86,1.9.18,4.73,1.12,1.2.34A27.28,27.28,0,0,1,556.7,591Z" style="fill:#1e0e05"/><path d="M570.11,552.28l-1.32,4-1.22,4.41-2.53,9.6-1.46,3.07-.93,3.87-.59,1.67a25.15,25.15,0,0,0,6.41,1.45c5.89.32,11.87.51,17-2.32l-.48-1.29-4.39-5.34-1.49-5.35-4.4-4.92-3.09-5.94Z" style="fill:#ae5919"/><path d="M570.11,552.28l-1.32,4-1.22,4.41-2.53,9.6-.84,1.8a22.7,22.7,0,0,0,17.14.18l-.72-.87-1.51-5.35-4.4-4.92-3.09-5.94Z" style="fill:#c06926;opacity:0.6943231225013733;isolation:isolate"/><path d="M647,429.08c-10.75-4.5-24.4-2.59-32.18,6.45-13,11.86-11.5,35.41,3.73,44.57,8.21,5.86,19.78,7.12,28.43,2.53,17.22-6.87,23.71-32.59,10.14-46.07A35.94,35.94,0,0,0,647,429.08Zm-7.18,7c-2.37,4.45-1.68,12.46-6.18,14.51-5.89-.61-14.54.59-18.61-.89a15.85,15.85,0,0,1,6.85-10.23c1.73-2.69,5.22-2.83,7.41-4.8a29.29,29.29,0,0,1,10.76.47Zm10.87,5c5.27,5.34,9,13.37,5,20.72-.65,2.23-2.18,8-4.51,3.34s-12.68-8.6-6.58-14.11c1.93-3.12,3.85-7.81,6-9.95Zm-15.84,20c1.2,5.17,7.4,11.66,5.95,16.13-5.29,1.59-10.7.47-15.73-1.91-3.5-.7-5.17-5.14-8.08-6.59.82-3.47,8.59-3.56,11.79-5.75,1.8-.27,4.64-2.59,6.07-2Z" style="fill:#1e0e05"/><path d="M647.46,431.83c-1.39-.64-3-.21-4.43-.8-3.18-1.37-6.55-1.11-9.85-1.52a12.84,12.84,0,0,0-9,2.65c-3.28,1-5.2,3.87-7.8,5.92-2.94,1.45-4.16,4.69-5.11,7.64s-2.62,5.82-2.49,9.06a50.49,50.49,0,0,0,.73,6.37l5.59-1.4,3.48-.58,3.43.06,7.3-2.18,2.57-1.23,5.25-.73,1.36-2.65.85-1.93,3.15-7,.37-1.69,3.5-7.09L647.6,432l-.18-.19Zm.8.86-1.06,2.21-3.21,6L642,446l-1.43,2.87-2.94,6.15,1.3-.19-1.38.35-1,1.57-.38.54.2-.81.59-1.15-5.3,1.38-3.09,1.63-1.51.18-2.69.91-8.25,2.3-3.12.66-3.23.5c.17.71.37,1.4.59,2.1,1.36,2.81,1.65,6.37,4.55,8.15s4.64,5.52,8.21,6.52c3.37.86,6.47,2.75,10,3,2.72.39,5.38-.14,8.13-.49,2.43-1.09,4.75-2.47,7.23-3.35.38-.28.73-.56,1.1-.85l-.2-.35-1.69-3.26-2-4.34-3.12-5.15-1-1.17-3.45-6.62c3.14,5,2.53,4.1,3.49,5.53l.5,1,1.44,1.59,1.1,1.58,3.77,5.88,1.73,2.9.72,1.29a29.72,29.72,0,0,0,7.67-9.34c1.84-2.85,1.74-6.55,3.86-9.24.31-3-.93-6.07-1.28-9.09,0-3.17-2.72-5.23-3.75-7.7,0-2.64-4.27-2.75-4.7-5.59-1.73-.24-3.07-1.82-4.37-3.26Z" style="fill:#bb803e"/><path d="M642.11,439.69c-.88-.24-1,1.47-1.8.84-4-2-8.65-2.29-12.25,0-3.49,2.63-7.45,5-8.77,9.33a13.45,13.45,0,0,0-.45,9.29h3.26l7.3-2.18,2.57-1.23,5.25-.73,1.36-2.65.85-1.93,3.15-7,.37-1.69.46-1Zm1.77,1.64-1.8,4.69-1.43,2.87L637.71,455l1.3-.19-1.38.35-1,1.57-.38.54.2-.81.59-1.15-5.3,1.38-3.09,1.63-1.51.18-2.69.91-5.08,1.42a17.26,17.26,0,0,0,1.47,2.87c2.82,4,5.77,8,11.11,8.72,3.17,2.69,6.46,1.15,10.23,1a14.26,14.26,0,0,0,4.27-1.91l-.73-1.61-3.12-5.15-1-1.17-3.49-6.51c3.14,5,2.53,4.1,3.49,5.53l.5,1,1.44,1.59,1.1,1.58,2.64,4.14c4.8-3.66,7.19-10.06,7.08-16.09-2-5.39-6.22-9.61-10.5-13.56Z" style="fill:#ae5919"/><path d="M640.53,444c-2.48.76-5.13-1.1-7.75-.37a13.8,13.8,0,0,0-9.58,9.59,11.61,11.61,0,0,0,.38,5.52l5.77-1.73,2.57-1.23,5.25-.73,1.36-2.65.85-1.93,2.38-5.27-1.23-1.2Zm1.66,1.59L642,446l-1.43,2.87L637.66,455l1.3-.19-1.38.35-1,1.57-.38.54.2-.81.59-1.15-5.3,1.38-3.09,1.63-1.51.18-2.69.91-.58.16a15.35,15.35,0,0,0,12.72,9.59,10.27,10.27,0,0,0,7.42-2l-1.41-2.34-1-1.17-3.44-6.57c3.14,5,2.53,4.1,3.49,5.53l.5,1,1.44,1.59,1.06,1.52a13.82,13.82,0,0,0,5-9.79c-.06-4.76-4-8.18-7.36-11.36Z" style="fill:#c06926;opacity:0.6943231225013733;isolation:isolate"/><path d="M585.11,435.84c-3.94-2.09-8.68-1.61-12.54-3.92a60.13,60.13,0,0,0-12.58.32,45.32,45.32,0,0,0-11,3.55l.81,1.85.71,1.74a31.75,31.75,0,0,0-2.67,1.78l-1.73-2.06L544,436.52a29.44,29.44,0,0,0-5.38,4.58c-1.92,3.74-5.86,5.39-7.32,9.5A53,53,0,0,0,526,464.36a37.39,37.39,0,0,0,.82,19.1c.1.5.17,1,.3,1.49l.7.09,1.47-.69.89-.39.22-.1,2.83-1.27v.13l-1.43.71-3.11,1.6a35.39,35.39,0,0,0,4.69,9.58,26.71,26.71,0,0,0,9.15,9.27,39.21,39.21,0,0,0,14.76,7.5l.29-2,.21-1.65c.61.22,1.2.43,1.81.61l.18,4.14v2.1c1.5.26,3,.46,4.49.59a38,38,0,0,0,19.14-3.65c1.43-3.84,8.08-2.15,9.35-6.5A33.58,33.58,0,0,0,602,494.29l-1-1.3,1.68,1.61.76.81a52.9,52.9,0,0,0,5.71-11.31,40.21,40.21,0,0,0-2.43-31.84L604,453.58l-.77.36c-.23-.45-.49-.91-.75-1.35l.47-.29a37.43,37.43,0,0,0-3.79-5.4c-2.59-2.15-4.55-5.48-7.76-6.69a2.92,2.92,0,0,1-1.27-.22l-.57-.35c-.9-.82-.92-2.31-2.75-2.74a10.44,10.44,0,0,0-1.64-1.06Z" style="fill:#50260e"/><path d="M536.48,455.14q7.47-14.56,22-19.11a35.42,35.42,0,0,1,27.74,2.24q14.64,7.5,19.33,21.94t-2.78,29q-7.44,14.48-21.81,19.18t-28.76-2.7q-14.38-7.37-18.81-21.64t3.09-28.94Z" style="fill:#1e0e05"/><path d="M585.11,437.31c-2.11-1-4.53-.31-6.69-1.19-4.8-2.07-9.87-1.68-14.87-2.3s-9.49,1.16-13.5,4l-.47.19.85,2.08,3.57,3.85,2.34,4,4.24,6.7,2.94,4,3.06,6.09,1.87,3.72,2.08-4.57-.44,1.48L569,468.71l3.85-1.59,3-1.51,6.37-3.39,2.49-.38,2.47-1.5,5.49-1.55,3.58-2,4.79-2.91a14.22,14.22,0,0,1-1-1.84c.09-4-6.43-4.14-7.08-8.42-3.14-.44-5.42-3.86-7.79-6.22Z" style="fill:#bb803e"/><path d="M584.93,436.2c-3.94-2.09-8.68-1.61-12.54-3.92a60.13,60.13,0,0,0-12.58.32,44.89,44.89,0,0,0-11,3.55l1.36,3.25c2.35-1,3.19-3.25,5.79-3.79,2.57.26,6-1.23,7.51-.94,2.36,2.41,6.5-.47,8.33.7,2,1.92,6.35.49,7.61,2.09,1.36,1.42,3.35-.72,5.29,1,2.63,1.2,2.4,4.92,5.79,5,2.3-.26,2.15,1.1,1.82,2,2.8.89,2.92,5.23,6.41,4.45,2.17,1.41-1.37,2.37,1,4.5h0l2.11-1.32.87-.56a38.17,38.17,0,0,0-3.78-5.4c-2.6-2.15-4.55-5.48-7.77-6.69-3.07.17-2-2.7-4.59-3.31a10.44,10.44,0,0,0-1.64-1.06Z" style="fill:#1e0e05"/><path d="M577,449.15c-1.33-.36-1.51,2.22-2.72,1.27-5.43-2.65-11.67-3.34-16.83-.86l3.17,5,2.94,4,3.06,6.09,1.87,3.72,2.08-4.57-.44,1.48L569,468.63l3.85-1.59,3-1.51,6.37-3.39,2.49-.38,2.47-1.5L588,460a132.62,132.62,0,0,0-11-10.86Z" style="fill:#ae5919"/><path d="M574.65,455.74c-3.75,1.14-7.73-1.67-11.7-.57-.53.14-1.05.28-1.57.47l2.14,2.91,3.06,6.09,1.87,3.72,2.08-4.57-.44,1.48L569,468.62l3.85-1.59,3-1.51,5.86-3.12c-2.3-2.37-4.83-4.5-7-6.66Z" style="fill:#c06926;opacity:0.6943231225013733;isolation:isolate"/><path d="M604.69,453.53l-2.33,1.1-5.07,3.47L594,459.38l-4.3,1.31-4.77,1.71L581.77,464l-4.66,1.54-3,1,.61-.16-1.42.6-1.39.52,3.93,4,3.56,3,7.74,6.42,1.82,3,3.24,2.4,5.41,3.89,4.29,4.12a36.37,36.37,0,0,0,2.76-4.66c2.77-4.31,2.62-9.88,5.81-13.94.48-4.6-1.4-9.16-1.93-13.71C608.54,458.69,606.44,456.08,604.69,453.53Z" style="fill:#bb803e"/><path d="M606.48,452.69,603.77,454c1.83,1.73,2,3.71,3.16,6.94,1.72,3,1.16,6.82,1.92,10.3.9,2.37,2.12,4.22-.54,5.41-.82,2.89-3.06,7-2.73,8.87,1.9-1.19-2.34,2.08-1.48,3.29a42.9,42.9,0,0,1-3.24,4.57l1.68,1.6.76.82a52.76,52.76,0,0,0,5.61-11.28A40.19,40.19,0,0,0,606.48,452.69Z" style="fill:#1e0e05"/><path d="M592.11,460l-2.45.72-4.77,1.71L581.76,464l-4.65,1.54-3,1,.61-.16-1.42.6-1.39.52,3.93,4,3.56,3,7.74,6.42,1.82,3,3.24,2.4,1.79,1.29a32.84,32.84,0,0,0,4.38-17.07A38.5,38.5,0,0,0,592.11,460Z" style="fill:#ae5919"/><path d="M585.69,462.11l-.79.29L581.77,464l-4.66,1.54-3,1,.61-.16-1.42.6-1.39.52,3.93,4,3.56,3,7.74,6.42,1.17,2a20.43,20.43,0,0,0,2.84-9.19C591.11,469.22,588.72,465.46,585.69,462.11Z" style="fill:#c06926;opacity:0.6943231225013733;isolation:isolate"/><path d="M545,438.41c-3.89,2.27-6.24,6.21-9.45,9.33-4.2,2.63-5.52,7.67-6.51,12.25-1.17,4.56-3,9.14-2.35,14a73.83,73.83,0,0,0,2.39,10.7l7.75-3.43,4.49-2.37,4.6-1.61,6.21-3,4.35-2.59,5.81-3,5.25-2-.83-1.14-.14-.15-.71-.94L562.81,461l-5.18-7.47-2.84-3-2.92-2.82-3.33-5.16Z" style="fill:#bb803e"/><path d="M543.78,436.91a29.28,29.28,0,0,0-5.39,4.55c-1.91,3.74-5.86,5.38-7.32,9.5a53.12,53.12,0,0,0-5.23,13.73,37.58,37.58,0,0,0,.79,19.12c.1.5.19,1,.33,1.5l.68.06,2.6-1.17c-.21-.7-.42-1.38-.66-2.09-.53-4.21-3.11-9.16-1.3-12.71-2-3.2,3.48-6.07,1.65-10.23.93-2.21,2.9-4.17,2.67-7.1,1.41-2.84,4.33-2.87,6.26-6.25,2.28-2.3,3.83-5.91,7.07-6.38l-2.15-2.57Z" style="fill:#1e0e05"/><path d="M553.65,449.45l-.3.24c-4.84,4.48-10.43,8.59-11.74,15.35a20.24,20.24,0,0,0,.59,13.6l3.78-1.32,6.21-3,4.32-2.63,5.81-3,5.25-2-.83-1.14-.14-.15-.71-.94L562.81,461l-5.18-7.47-2.84-3Z" style="fill:#ae5919"/><path d="M558.44,454.78a20.86,20.86,0,0,0-10.33,14.71,17.37,17.37,0,0,0,.75,6.45l3.38-1.63,4.27-2.62,5.81-3,5.25-2-.83-1.14-.14-.15-.71-.94L562.81,461l-4.37-6.29Z" style="fill:#c06926;opacity:0.6943231225013733;isolation:isolate"/><path d="M568.11,469.16l2.3,3.43-.26-.25-.5-.58-1.95-2.45-.41,2.17L566.6,476l-1.49,9.83L564,489,562.19,492l-.13,5.88-2.65,8.31.22,6.61a29.51,29.51,0,0,0,8.86,1.14c4.14,0,8-1.28,12-2.35,3.41-2.12,6.61-4.64,10.14-6.45a54.14,54.14,0,0,0,9.81-12.29L598.25,490l-4.75-2.64-5.39-1.65-5.23-6-4.37-1.3-5.16-4.6Z" style="fill:#bb803e"/><path d="M599.6,491.69a6.74,6.74,0,0,0-.42,1.76c-2.39,2.78-4.38,6.26-7.45,8.66-1.87,1.93-2.61,4.15-5.64,4.38-2.51.94-4.59,2.66-4.93,4.53-2.52-3.16-4.81,2.32-7.26,1.34-1.26-1.22-5.49.14-5.62.52-3.26.47-5.74-1-8.66-1.42l.09,3.45c1.49.26,3,.45,4.47.58a38.15,38.15,0,0,0,19.16-3.64c1.43-3.84,8-2.15,9.3-6.5a33.74,33.74,0,0,0,9.2-10.75Z" style="fill:#1e0e05"/><path d="M568.11,469.16l2.3,3.43-.26-.25-.5-.58-1.95-2.45-.41,2.17L566.6,476l-1.49,9.83L564,489,562.19,492l-.13,5.88-.26.87a18.66,18.66,0,0,0,2.89.22c5.28,3.39,9.9.43,15.52-.47a22.94,22.94,0,0,0,11.9-11.61l-4-1.24-5.23-6-4.37-1.3-5.16-4.6Z" style="fill:#ae5919"/><path d="M568.11,469.16l2.3,3.43-.26-.25-.5-.58-1.95-2.45-.41,2.17L566.6,476l-1.49,9.83L564,489l-1.72,2.86A21.37,21.37,0,0,0,571,493.2c6.71,0,12-4.41,14.82-10.11l-2.93-3.4-4.37-1.3-5.16-4.6Z" style="fill:#c06926;opacity:0.6943231225013733;isolation:isolate"/><path d="M569.11,467.08l-3.85,1.8-4,2.09-8.81,4.72-3.24,1-3.46,2-5.28,2.4-6.86,1.76-3,1.53c.41,1.34.89,2.65,1.41,3.95,2.42,4,3.32,9.36,7.91,11.65,4.74,2.41,7.55,7.71,13.09,8.71a41.91,41.91,0,0,1,4.44,1l.37-2.66,1.45-7.85,2.18-4.58.89-6.85,2.86-4.77.57-6.56,2.21-6.31,1.1-3.08Z" style="fill:#bb803e"/><path d="M531.68,483.81l-3.1,1.6a35.5,35.5,0,0,0,4.65,9.57,26.71,26.71,0,0,0,9.19,9.26,39.32,39.32,0,0,0,14.75,7.54l.41-3.15c-3.22-1.87-7.27-.43-9.67-3.79-2-2.3-4.29-3.22-6.88-5.87-4.49-.5-4.06-5.76-6.83-8.51,1.17,1.51,2.42,4.21.58,1.11a27.18,27.18,0,0,1-3.1-7.76Z" style="fill:#50260e"/><path d="M569.11,467.08l-3.85,1.8-4,2.09-8.81,4.72-3.24,1-3.46,2-1.63.72a26.07,26.07,0,0,0,3.33,5.65c3.82,4.51,7.78,9,13.37,10.81l.61-1.23.89-6.85,2.86-4.77.57-6.56,2.21-6.31,1.1-3.08Z" style="fill:#ae5919"/><path d="M569.11,467.08l-3.85,1.8-4,2.09-8.81,4.72-1.89.61a22.67,22.67,0,0,0,11.61,12.61l.15-1.12,2.86-4.77.57-6.56,2.21-6.31,1.1-3.08Z" style="fill:#c06926;opacity:0.6943231225013733;isolation:isolate"/><polygon points="489.13 638.47 489.13 654.26 475.34 721.78 439.59 752.27 341.55 752.27 326.74 736.48 326.74 691.29 333.89 631.39 376.27 600.89 403.85 600.89 431.93 586.19 461.04 601.44 474.83 630.84 489.13 638.47" style="fill:#191201"/><path d="M485,654.25V641.19l-13.27-7.08L458,604.69l-7.15-3.81-38.3,33.81c-8.17,5.45-16.85,9.26-26.55,9.8a10.71,10.71,0,0,1-4.09-.54l-3.06,4.9L377.29,651,434,712l46.47-35.39Z" style="stroke:#c0c906;stroke-miterlimit:10;fill:url(#l)"/><polygon points="478.91 683.12 436.53 715.25 450.32 737.57 471.25 719.6 478.91 683.12" style="stroke:#c0c906;stroke-miterlimit:10;fill:url(#m)"/><polygon points="446.74 740.29 432.95 717.42 354.31 747.92 438.06 747.92 446.74 740.29" style="stroke:#c0c906;stroke-miterlimit:10;fill:url(#n)"/><polygon points="343.08 747.37 379.85 733.22 344.61 695.64 338.99 743.56 343.08 747.37" style="stroke:#c0c906;stroke-miterlimit:10;fill:url(#o)"/><polygon points="330.82 734.3 335.42 739.75 341.04 690.2 371.17 652.08 337.46 635.75 330.82 691.29 330.82 734.3" style="stroke:#c0c906;stroke-miterlimit:10;fill:url(#p)"/><polygon points="429.89 714.16 374.74 654.26 346.14 690.74 384.44 731.58 429.89 714.16" style="stroke:#c0c906;stroke-miterlimit:10;fill:url(#q)"/><polygon points="340.02 631.93 373.72 648.27 375.76 646.09 404.36 605.25 377.8 605.25 340.02 631.93" style="stroke:#c0c906;stroke-miterlimit:10;fill:url(#r)"/><path d="M431.93,590.55l-19.4,10.34L385,640.1c9.2-.55,17.37-3.81,25-8.72l36.79-32.69Z" style="stroke:#c0c906;stroke-miterlimit:10;fill:url(#s)"/><path d="M831.56,601.38" style="fill:#fff"/><path d="M757.56,751.69" style="fill:#fff"/></svg>