<svg xmlns="http://www.w3.org/2000/svg" xmlns:xlink="http://www.w3.org/1999/xlink" viewBox="0 0 2463.5 843.39"><defs><linearGradient id="a" x1="215.12" y1="64.06" x2="636.67" y2="794.21" gradientUnits="userSpaceOnUse"><stop offset="0" stop-color="#e83f23"/><stop offset="0.36" stop-color="#e6970c"/><stop offset="0.57" stop-color="#e5c500"/><stop offset="0.65" stop-color="#e5c100"/><stop offset="0.72" stop-color="#e5b501"/><stop offset="0.8" stop-color="#e5a203"/><stop offset="0.81" stop-color="#e59e03"/><stop offset="0.86" stop-color="#e09803"/><stop offset="0.93" stop-color="#d38802"/><stop offset="0.99" stop-color="#bf6f00"/></linearGradient><linearGradient id="b" x1="352.73" y1="624.32" x2="901.94" y2="887.25" gradientUnits="userSpaceOnUse"><stop offset="0" stop-color="#4d9400"/><stop offset="0.2" stop-color="#498f01"/><stop offset="0.43" stop-color="#3c8203"/><stop offset="0.66" stop-color="#286b07"/><stop offset="0.91" stop-color="#0c4c0c"/><stop offset="0.99" stop-color="#003f0e"/></linearGradient><linearGradient id="c" x1="448.98" y1="676.86" x2="892.59" y2="894.98" xlink:href="#b"/><linearGradient id="d" x1="531.43" y1="713.34" x2="887.48" y2="883.2" xlink:href="#b"/><linearGradient id="e" x1="664.81" y1="735.87" x2="932.57" y2="871.72" xlink:href="#b"/><linearGradient id="f" x1="758.37" y1="739.69" x2="874.04" y2="797.91" xlink:href="#b"/><linearGradient id="g" x1="71.28" y1="593.74" x2="569.78" y2="593.74" xlink:href="#b"/><linearGradient id="h" x1="76.78" y1="648.64" x2="469.64" y2="648.64" xlink:href="#b"/><linearGradient id="i" x1="85.28" y1="705.88" x2="402.45" y2="705.88" xlink:href="#b"/><linearGradient id="j" x1="98.28" y1="764.33" x2="331.11" y2="764.33" xlink:href="#b"/><linearGradient id="k" x1="108.72" y1="804.74" x2="282.88" y2="804.74" gradientTransform="translate(20.23 -5.47) rotate(1.47)" xlink:href="#b"/><linearGradient id="l" x1="439.18" y1="757.74" x2="546.93" y2="757.74" gradientUnits="userSpaceOnUse"><stop offset="0" stop-color="#ff7300"/><stop offset="0.24" stop-color="#f97c01"/><stop offset="0.64" stop-color="#ea9602"/><stop offset="0.75" stop-color="#e59e03"/><stop offset="0.87" stop-color="#e5c500"/><stop offset="0.99" stop-color="#bf6f00"/></linearGradient><linearGradient id="m" x1="436.53" y1="710.35" x2="478.91" y2="710.35" gradientUnits="userSpaceOnUse"><stop offset="0" stop-color="#ff7300"/><stop offset="0.18" stop-color="#f97c01"/><stop offset="0.47" stop-color="#ea9602"/><stop offset="0.55" stop-color="#e59e03"/><stop offset="0.87" stop-color="#e5c500"/><stop offset="0.99" stop-color="#bf6f00"/></linearGradient><linearGradient id="n" x1="354.31" y1="732.67" x2="446.74" y2="732.67" gradientUnits="userSpaceOnUse"><stop offset="0" stop-color="#ff7300"/><stop offset="0.05" stop-color="#f97c01"/><stop offset="0.14" stop-color="#ea9602"/><stop offset="0.17" stop-color="#e59e03"/><stop offset="0.27" stop-color="#e5c500"/><stop offset="0.99" stop-color="#bf6f00"/></linearGradient><linearGradient id="o" x1="338.99" y1="721.51" x2="379.85" y2="721.51" xlink:href="#m"/><linearGradient id="p" x1="330.82" y1="687.75" x2="371.17" y2="687.75" xlink:href="#m"/><linearGradient id="q" x1="346.14" y1="692.92" x2="429.89" y2="692.92" gradientUnits="userSpaceOnUse"><stop offset="0" stop-color="#ff7300"/><stop offset="0.08" stop-color="#f97c01"/><stop offset="0.22" stop-color="#ea9602"/><stop offset="0.26" stop-color="#e59e03"/><stop offset="0.65" stop-color="#bf6f00"/><stop offset="0.87" stop-color="#e5c500"/></linearGradient><linearGradient id="r" x1="340.02" y1="626.76" x2="404.36" y2="626.76" xlink:href="#m"/><linearGradient id="s" x1="446.84" y1="716.63" x2="508.63" y2="716.63" xlink:href="#m"/></defs><title>technofarm_logo</title><path d="M1048.56,147.94q21.2,0,87.16,6.49l52.64,1.37h1.71q34.86,0,52.29-3.08,5.81,21.19,5.81,50.93V206q0,13-5.47,13l-1.71,1.71c0,1.36,1.83,2.85,5.47,4.44l.69.34v1.37q-2.4,4.44-16.75,5.47-11,0-10.94-7.86l-1-11.28,1-21.53q0-4.44-28-4.45h-28.71l-16.06-.34q-4.8,0-6.84,77.59-2.73,64.26-2.73,86.81v14.36a21.42,21.42,0,0,1-4.45,12.65v.34q3.42,0,4.45,10.25l-1.37,7.18H1135l-.34-.68v-2.74l-.69,36.92q0,6.15,47.17,10.25,8.88,3.42,8.89,8.89-4.11,7.86-4.11,21.53c-.68,0-1,1.59-1,4.78l-2,1.37q-50.6-2.38-93.65-2.39H1078.3a276.2,276.2,0,0,0-33.5,1.71q-1-1.37-4.1-31.11h.68q2.74-5.12,23.25-8.88,0-2.06,33.49-2.39,3.77,0,5.47-30.77l2.39-30.42q-4.44-39-4.44-48.87l-5.13-94v-12l1-18.12-1-5.81,1.71-3.76v-2.39q0-3.75-37.25-4.78-27.36,1.36-27.35,3.76-4.1,10.59-8.54,32.81l-3.42,3.07-.68-.68h-3.42a7.83,7.83,0,0,1-4.44,1.71l-13.33,1q1.35-33.49,1.36-41l-2.39-18.46q0-6.15,7.18-6.49l5.47-5.47h2.39l4.1,5.47h1.37q7.86-10.26,23.24-10.25Z" transform="translate(-61.89 -101.31)" style="stroke:#fff;stroke-miterlimit:10;stroke-width:39px"/><path d="M1334.3,232.36q19.83,0,48.54,16.75,24.27,18.12,24.27,24.95,18.8,41,18.8,47.85l.34,3.76q-7.18,16.41-7.18,22.56l-2.73.68h-40.68a61,61,0,0,0-13.33,1.71q-68.7-5.46-95.7-5.47h-10.25q-5.82,8.55-5.82,11.62,3.42,6.15,3.42,16.75,0,18.47,5.47,21.53l.68,2.4v.34l-3.07-1v1l4.78,4.78q0,6.84,8.55,15.73,15.38,27.68,33.84,34.18,14.68,5.11,35.89,5.12,3.08,0,13.33-5.81,9.22-2.73,35.88-31.1v-1.37q0-1-6.15-1.71l-1-2.39q10.93-21.2,26.31-27.34,1.71,2,17.44,13a415.25,415.25,0,0,0,28,38.29v1.7q-15.37,19.83-22.21,19.83H1430q0-10.59-12.65-12-2.73,0-20.85,15.72-9.91,7.86-37.6,16.06-31.79,6.5-43.75,6.5l-27-9.57q-22.56,0-41.7-24.61A62,62,0,0,1,1233.13,432q0-3.08-10.59-39.31a137.45,137.45,0,0,1-3.08-26.32v-.68q0-63.92,37.6-110.74,5.46-11.62,22.22-17.43a220.26,220.26,0,0,1,27.34-5.13Q1310.71,230.65,1334.3,232.36ZM1255.69,313l88.87.69,4.78,1.71,5.81-.69q20.17,6.5,25.64,6.5c0,.91,1,1.59,3.08,2a12.28,12.28,0,0,0,3.07-7.86v-8.89q0-6.5-23.92-27.69a41.57,41.57,0,0,0-24.61-12.64l-16.07-2.4q-39.3,7.53-51.61,19.14Q1265.95,291.84,1255.69,313Z" transform="translate(-61.89 -101.31)" style="stroke:#fff;stroke-miterlimit:10;stroke-width:39px"/><path d="M1608.77,207.07q5.46,4.44,19.14,6.83,9.57,0,39.65,21.88l6.49,2.05h2.39l8.55,4.1q12.65,9.57,14.35,14.35V257q0,2.73-5.46,7.18-1.38,7.52-19.83,31.1V297l.68,4.78a54.94,54.94,0,0,0-13.67,3.42q-3.07,0-5.47-6.49-13.32-8.21-13.33-13.67l5.47-15q0-9.24-31.1-13l-31.1-2.05q-16.08,0-43.75,12.64-15.39,8.2-23.93,33.5-7.18,23.25-11.28,27l-1.71,4.1c.91,0,1.48,1,1.71,3.08l-3.08,21.53q2.05,1,9.23,28.37l-1.71,3.08v1.71q2.4,2.38,3.76,15.72,4.11,14,27.35,25.63l25.29,18.46q41.7,0,74.17-18.46,32.13-27.67,32.13-36.91l-1.71-7.18v-.68q.33-2.06,20.85-22.9,1.37,0,7.86,7.18v1.36l-2.39.69q13.67,2.73,13.67,10.59,7.86,10.6,16.06,30.42,2.4,0,4.45,10.94,6.15,2.74,7.18,5.47c0,2.73-2,4.33-6.16,4.78q-11.28,4.11-20.16,15.39-16.41-16.76-17.43-16.75l-26.32,16.75a145,145,0,0,0-23.93,15.72l-49.22,16.06-7.52.69q-15.72,0-45.11-9.23-32.13-13.67-35.21-21.54-40-47.5-40-74.17l-1.37-16.06q4.11-16.74,4.11-41L1484,290.46q0-13.32,17.78-34.18,9.9-21.85,52-40.67,17.09-5.46,55-7.86Z" transform="translate(-61.89 -101.31)" style="stroke:#fff;stroke-miterlimit:10;stroke-width:39px"/><path d="M1772.15,122.3q60.49,2.4,60.49,11.28l3.42,69.38q0,8.89-10.25,48.54-2.4,13-2.39,19.48v3.08h1.36a116.6,116.6,0,0,1,72.81-24.61q12,0,43.75,13.33,5.81,5.82,15.72,19.82a10.72,10.72,0,0,1,4.1,5.81l-.68,4.79q13.32,11.28,13.33,37.6,1.7,0,2.39,46.82v.69q0,7.17-7.86,52.63l-1.37,8.89h9.57q15.72,1,15.72,4.1c0,1.37-1.36,4-4.1,7.86l1.71,2.4v9.57q0,22.55-12.65,22.55l-4.1.69q-18.45,0-18.45-5.47,0-1.36-19.14-2.39a72.4,72.4,0,0,0-14-6.5l-.34-1.71q0-19.49,6.49-60.49a299.34,299.34,0,0,1,8.21-49.57l-1-16.74,1.71-2.05q-6.49-4.79-6.49-13.68a102.16,102.16,0,0,0-9.57-16.06q-5.82-8.88-24.27-14.36t-60.84,20.51l-13,19.48-3.08,31.11,1.37,31.78q-3.08,35.22-7.18,35.21l-.68,2.05,1.71,1h2.39l7.86-3.42q11.28,1.71,11.28,7.18l3.08,8.2.68,2.39q-2.38,24.62-7.18,24.61h-1.36q-7.18-4.44-50.93-6.49-31.45-2.73-31.45-9.57v-7.86q-.68-1.71-1.88-9.75c-.8-5.35-1.19-8.48-1.19-9.4q2.39-1.69,23.24-2.39,3.08,0,4.79-18.46,3.75-2.73,5.46-15a12.24,12.24,0,0,0,3.08-7.87v-27q2.38,0,3.42-103.9l6.49-70.07V169.47q0-10.26-6.49-10.26l-15.38-.68-10.26,3.08q-2.73,0-3.07-12.65v-5.13q0-20.51,5.47-20.5Z" transform="translate(-61.89 -101.31)" style="stroke:#fff;stroke-miterlimit:10;stroke-width:39px"/><path d="M2004.91,230.31a159.69,159.69,0,0,0,22.56,1.71h39l1,1.36q-2.4,8.9-2.39,13.68v8.2q1.69,13.33,7.17,13.33,3.08-5.13,19.14-10.25,37.95-16.75,62.9-16.75,16,0,34.86,14.35,13.67,5.47,26.32,22.22,19.14,30.42,19.14,72.8v3.76l-3.08,34.18,3.08,25-4.79,22.22v.68l.34,4.1,18.12.69h7.86c5.24,0,8.55.57,9.91,1.71q-2.73,34.53-7.52,34.52a38.36,38.36,0,0,1-20.5,5.47h-9.57q-21.88,0-47.86,6.15-16.74-2.06-16.74-16.75l-.69-16.4q0-16.07,7.86-23.25a362.25,362.25,0,0,1,10.26-42.38l3.07-42q1,0,1-10.6,0-12.3-20.17-36.57-15-6.48-18.11-6.49-27,0-49.56,23.24-1.73,0-22.9,23.24-7.18,5.48-7.18,31.79,1,47.85,3.76,47.85,18.45,3.42,18.46,7.18v2.39l.68,6.15q3.07,3.42,3.08,11.28v.69q0,10.93-4.79,23.92l-55,1q-8.89,0-12-8.21-2.4-9.56-4.45-34.86,0-2.73,14.36-5.81l2.39-3.08V421c0-1.59-1.36-4.21-4.1-7.86l.68-14.7v-27l1.71-43.75q0-44.78-4.1-44.78h-2.39L2003.54,286q-3.42,0-8.88-6.15v-1.71a12.45,12.45,0,0,0,2.39-7.86l-.68-17.43,7.17-21.54Z" transform="translate(-61.89 -101.31)" style="stroke:#fff;stroke-miterlimit:10;stroke-width:39px"/><path d="M2417.12,249.79h4.1a251.55,251.55,0,0,1,50.24,32.13q23.92,20.5,23.93,31.1h-.68l2.39,8.55h.68q1,.35,3.42,13.67l3.76,9.57-.68,6.15,1.36,17.09q-2.38,7.53-6.15,31.11-2.05,9.22-44.09,67.67-18.46,17.78-37.26,17.77a291.29,291.29,0,0,1-37.6,2.4h-8.88q-8.55,0-42.38-13.67-43.08-39-43.07-59.14-6.15-13.32-10.25-23.92,0-5.46,13-40.67,0-21.87,10.26-30.42Q2321.07,271,2355.59,257,2385,246,2403.79,246Zm-98.78,145.26v3.08q5.46,11.28,14.35,27.34,0,4.8,18.12,13.68,8.54,9.57,32.13,15l8.54,1q19.83-4.09,31.11-8.89L2439.68,432q26.31-28.37,25.63-47.51V380q-2.74-7.86-2.73-25a107.48,107.48,0,0,1,1.71-20.85q0-2.73-18.12-16.74-13.68-18.47-28-22.9h-5.47q-55.36,2-55.37,8.88-12.3,12.32-17.43,24.61-15,15.39-15,20.85Q2320.73,366.34,2318.34,395.05Z" transform="translate(-61.89 -101.31)" style="stroke:#fff;stroke-miterlimit:10;stroke-width:39px"/><path d="M1064.63,585q179.44.69,179.44,4.11,5.13,26.65,5.13,38.28-3.42,13.32-6.5,32.47-2.73,6.5-5.47,6.49-30.42,0-30.42-8.54v-1l6.16-23.92q-2.06-18.46-6.84-18.46l-6.49-.68H1187l-99.12,4.78q-4.78,0-4.79,9.57v2.39l1.71,80.67q0,3.08,20.51,3.07l30.42,1q0-14.7,13.67-14.7l11.28.34,1.37,2.05v7.18q0,4.11,3.42,13.67-7.53,39-13,39L1132,754.9l-2.39-.69v-1l3.76-5.47v-2.39l-45.46-3.08q-4.78,2.06-4.79,5.47v16.06l-.68,9.57q0,20.52,6.15,85.11,3.08,2.06,32.82,4.79l.68.34c1.59.23,2.39,1,2.39,2.39q-1.71,22.9-11.62,22.9h-1v.69l-10.25-.69H1092q-33.49,3.07-79.64,4.79l-.34.68h-.68l-4.1-1.37.34-6.49-1-4.79q1.71-3.08,2.39-11.28,0-2.38,36.92-6.15,9.23-2,9.23-9.57l4.1-71.78,1.37-1.7h1.36l.69-3.08v-12l-4.11-2.4-2.39-17.43,2.39-7.52q-2.38-8.88-2.39-65.28V648.26a176.93,176.93,0,0,1,1.71-25.64q0-4.44-7.18-5.47h-6.49q-34.18,0-34.18-17.09l-1-6.15q1.37-6.49,3.42-6.49h1.37q1,0,2.39,5.47h.69l1-1.37v-.69l-.68-.34q0-4.79,26-4.78Z" transform="translate(-61.89 -101.31)" style="stroke:#fff;stroke-miterlimit:10;stroke-width:39px"/><path d="M1365.75,631.85q8.2,0,31.79,6.84Q1425.22,665,1430,679.36q9.9,10.26,16.75,43.41,7.52,7.17,7.52,33.84l.68,11.28-1.71,47.16q0,13.68,17.43,35.55Q1486.4,866,1491.53,866v.69q0,5.8-16.75,18.45-12.3,12-15.72,12h-.34q-7.18-.33-38.28-28-27.69,10.25-56.4,22.56a149.2,149.2,0,0,1-41.7,5.46H1320q-26-4.44-43.75-19.82-3.08-3.07-13.67-23.93Q1254,843.09,1254,827.7V814a46.13,46.13,0,0,1,7.18-24.61q6.49-18.79,21.53-36.92,7.51-9.22,15-11.62,24.94-13,48.88-13l21.53-.69h2.4q18.78,0,26,5.47h2.74c1.36,0,2-.8,2-2.39a155.92,155.92,0,0,0-16.75-42.73q-10.26-17.43-39-17.43l-19.14-2.39q-25.29,4.78-25.29,10.25-9.57,12.32-12,31.79-1,2.4-17.09,2.39l-3.08.69q-1.71,0-4.78,8.2-13.34-2.05-13.33-5.47,1.69-4.1,3.76-34.52,7.51-21.54,35.88-40,13.68-7.86,16.07-7.86Zm-75.2,168.51q3.09,28.71,7.87,28.71l4.78,5.81v.68l-4.44-.68v1.37q9.9,12,37.25,23.24a32.41,32.41,0,0,0,9.57,2.39q9.57,0,65.63-27.69c2.5-1.36,3.76-3.18,3.76-5.46v-2.4q-4.11-19.14-7.18-45.46l-.68-.34q0-5.13-10.6-8.54-34.86-9.91-47.85-9.91-35.55,8.19-49.9,23.92Q1290.55,794.9,1290.55,800.36Z" transform="translate(-61.89 -101.31)" style="stroke:#fff;stroke-miterlimit:10;stroke-width:39px"/><path d="M1679.86,669.11q18.47,0,31.1,26.31,2.74,0,6.84,6.16l6.49,35.2q-4.1,5.47-25.29,5.47h-4.78q-17.78-2.38-17.78-12,0-6.84-10.93-18.12-1.38-2.38-20.17-2.39t-43.75,9.57q-17.1,17.43-23.93,29.4,3.42,86.13,2.4,101.85c0,2.73,1.93,4.1,5.81,4.1h11.62q7.52.34,7.52,2.39v.69l1.71,6.49-1,26.32-2.73,3.76-22.22,2h-2l-9.57,3.08q-54.34-1.72-54.35-4.1-9.57,0-9.57-8.55a120.57,120.57,0,0,1-1-17.77q0-8.89,18.45-12,0-3.75,12.65-3.76L1537,853v-.68l-3.08-129.88q0-12-5.81-12H1525q-5.82,0-19.14,4.79l-.69-.68v-1q0-1,3.76-2.39v-.69q-4.79,0-4.78-27-.69,0-1.37-8.2,19.49-15,39.65-15h12q6.15,0,23.93,4.78l.68,1.71q-4.44,5.82-4.44,9.57v3.08Q1612.87,661.93,1679.86,669.11Z" transform="translate(-61.89 -101.31)" style="stroke:#fff;stroke-miterlimit:10;stroke-width:39px"/><path d="M1799.83,648.6c3.64.46,5.47,1,5.47,1.71l-2,3.07v1h.68l24.61-.68q41.36,0,55,20.5,9.23,12,12,16.75l1.7.69q4.11,0,54-26c4.32-1.82,7.86-2.74,10.59-2.74q19.14,0,40.68,14.36,40,32.48,40,54.35,3.75,8.19,15,97.07v13.33c0,3,.68,4.56,2,4.78h1.71q4.09,0,15.38-3.76,7.86,0,7.86,27.69.67,11.28.68,21.53h-6.49q-21.88,3.42-35.55,3.42l-14.7-1.71-27.68.68H1996c-.68,0-1-1.25-1-3.76l-6.15-5.81v-.68l1.36-4.79v-1L1987.82,866v-6.15q0-6.5,9.91-6.5,16.74,2.4,14-12.64-.69-36.91,2.73-55.71v-.69l-1-28.71q0-7.17-12.65-17.43l-4.1-1h-3.08l-4.78-2.39q-10.61-14-35.21-14-30.42,2.73-36.57,18.11-1.71,5.13-2.39,22.56l1,10.94v34.18l-.34,13.67q0,21.89,12,24.61c3.42.68,5.13,1.83,5.13,3.42q-4.79,22.56-6.49,26.32l-12,2.39-40.67-3.42-4.79,1q-7.86,0-7.86-24.61v-1.71q0-2.73,14.36-7.18c2.5,0,3.76-1.14,3.76-3.42q-2.4-10.59-2.4-27l.69-52a80.48,80.48,0,0,1-2.39-16.75q.33-12,2.73-12h.68q4.79-8.9-28-28.37a48.76,48.76,0,0,0-16.75-3.42q-13,0-30.08,12l-.34,2.39V750.8l1,99.8,2.4,1.71H1808c.9,0,1.59-1.14,2-3.42h1q12.65,0,15,6.5v4.1l1,10.93q1,19.83-10.26,19.83-3.76,1.37-25.63,1.71l-61.53-4.1q-4.79,0-8.88-28.37v-1q0-3.75,19.14-9.57,0-3.75,19.14-6.15a4.86,4.86,0,0,0,3.42-4.79l3.07-111.08.69-26.32q0-4.09-8.89-4.1a114.16,114.16,0,0,0-22.22,2.39q-7.86-4.44-7.86-9.23,1.71-23.91,1.2-25.29t2.9-8.54Q1759.49,651.67,1799.83,648.6Z" transform="translate(-61.89 -101.31)" style="stroke:#fff;stroke-miterlimit:10;stroke-width:39px"/><path d="M1048.56,147.94q21.2,0,87.16,6.49l52.64,1.37h1.71q34.86,0,52.29-3.08,5.81,21.19,5.81,50.93V206q0,13-5.47,13l-1.71,1.71c0,1.36,1.83,2.85,5.47,4.44l.69.34v1.37q-2.4,4.44-16.75,5.47-11,0-10.94-7.86l-1-11.28,1-21.53q0-4.44-28-4.45h-28.71l-16.06-.34q-4.8,0-6.84,77.59-2.73,64.26-2.73,86.81v14.36a21.42,21.42,0,0,1-4.45,12.65v.34q3.42,0,4.45,10.25l-1.37,7.18H1135l-.34-.68v-2.74l-.69,36.92q0,6.15,47.17,10.25,8.88,3.42,8.89,8.89-4.11,7.86-4.11,21.53c-.68,0-1,1.59-1,4.78l-2,1.37q-50.6-2.38-93.65-2.39H1078.3a276.2,276.2,0,0,0-33.5,1.71q-1-1.37-4.1-31.11h.68q2.74-5.12,23.25-8.88,0-2.06,33.49-2.39,3.77,0,5.47-30.77l2.39-30.42q-4.44-39-4.44-48.87l-5.13-94v-12l1-18.12-1-5.81,1.71-3.76v-2.39q0-3.75-37.25-4.78-27.36,1.36-27.35,3.76-4.1,10.59-8.54,32.81l-3.42,3.07-.68-.68h-3.42a7.83,7.83,0,0,1-4.44,1.71l-13.33,1q1.35-33.49,1.36-41l-2.39-18.46q0-6.15,7.18-6.49l5.47-5.47h2.39l4.1,5.47h1.37q7.86-10.26,23.24-10.25Z" transform="translate(-61.89 -101.31)"/><path d="M1334.3,232.36q19.83,0,48.54,16.75,24.27,18.12,24.27,24.95,18.8,41,18.8,47.85l.34,3.76q-7.18,16.41-7.18,22.56l-2.73.68h-40.68a61,61,0,0,0-13.33,1.71q-68.7-5.46-95.7-5.47h-10.25q-5.82,8.55-5.82,11.62,3.42,6.15,3.42,16.75,0,18.47,5.47,21.53l.68,2.4v.34l-3.07-1v1l4.78,4.78q0,6.85,8.55,15.73,15.38,27.68,33.84,34.18,14.68,5.11,35.89,5.12,3.08,0,13.33-5.81,9.22-2.73,35.88-31.1v-1.37q0-1-6.15-1.71l-1-2.39q10.93-21.2,26.31-27.34,1.71,2,17.44,13a415.25,415.25,0,0,0,28,38.29v1.7q-15.37,19.83-22.21,19.83H1430q0-10.59-12.65-12-2.73,0-20.85,15.72-9.91,7.86-37.6,16.06-31.79,6.5-43.75,6.5l-27-9.57q-22.56,0-41.7-24.61A62,62,0,0,1,1233.13,432q0-3.08-10.59-39.31a137.45,137.45,0,0,1-3.08-26.32v-.68q0-63.92,37.6-110.74,5.46-11.62,22.22-17.43a220.26,220.26,0,0,1,27.34-5.13Q1310.71,230.65,1334.3,232.36ZM1255.69,313l88.87.69,4.78,1.71,5.81-.69q20.17,6.5,25.64,6.5c0,.91,1,1.59,3.08,2a12.28,12.28,0,0,0,3.07-7.86v-8.89q0-6.5-23.92-27.69a41.57,41.57,0,0,0-24.61-12.64l-16.07-2.4q-39.3,7.53-51.61,19.14Q1265.95,291.84,1255.69,313Z" transform="translate(-61.89 -101.31)"/><path d="M1608.77,207.07q5.46,4.44,19.14,6.83,9.57,0,39.65,21.88l6.49,2.05h2.39l8.55,4.1q12.65,9.57,14.35,14.35V257q0,2.75-5.46,7.18-1.38,7.52-19.83,31.1V297l.68,4.78a54.94,54.94,0,0,0-13.67,3.42q-3.07,0-5.47-6.49-13.32-8.21-13.33-13.67l5.47-15q0-9.24-31.1-13l-31.1-2.05q-16.08,0-43.75,12.64-15.39,8.2-23.93,33.5-7.18,23.25-11.28,27l-1.71,4.1c.91,0,1.48,1,1.71,3.08l-3.08,21.53q2.05,1,9.23,28.37l-1.71,3.08v1.71q2.4,2.38,3.76,15.72,4.11,14,27.35,25.63l25.29,18.46q41.7,0,74.17-18.46,32.13-27.67,32.13-36.91l-1.71-7.18v-.68q.33-2.06,20.85-22.9,1.37,0,7.86,7.18v1.36l-2.39.69q13.67,2.73,13.67,10.59,7.86,10.6,16.06,30.42,2.4,0,4.45,10.94,6.15,2.74,7.18,5.47c0,2.73-2,4.33-6.16,4.78q-11.28,4.11-20.16,15.39-16.41-16.76-17.43-16.75l-26.32,16.75a145,145,0,0,0-23.93,15.72l-49.22,16.06-7.52.69q-15.72,0-45.11-9.23-32.13-13.67-35.21-21.54-40-47.49-40-74.17l-1.37-16.06q4.11-16.74,4.11-41L1484,290.46q0-13.32,17.78-34.18,9.9-21.85,52-40.67,17.09-5.46,55-7.86Z" transform="translate(-61.89 -101.31)"/><path d="M1772.15,122.3q60.49,2.4,60.49,11.28l3.42,69.38q0,8.89-10.25,48.54-2.4,13-2.39,19.48v3.08h1.36a116.6,116.6,0,0,1,72.81-24.61q12,0,43.75,13.33,5.81,5.82,15.72,19.82a10.72,10.72,0,0,1,4.1,5.81l-.68,4.79q13.32,11.28,13.33,37.6,1.7,0,2.39,46.82v.69q0,7.17-7.86,52.63l-1.37,8.89h9.57q15.72,1,15.72,4.1c0,1.37-1.36,4-4.1,7.86l1.71,2.4v9.57q0,22.55-12.65,22.55l-4.1.69q-18.45,0-18.45-5.47,0-1.36-19.14-2.39a72.4,72.4,0,0,0-14-6.5l-.34-1.71q0-19.49,6.49-60.49a299.34,299.34,0,0,1,8.21-49.57l-1-16.74,1.71-2.05q-6.49-4.79-6.49-13.68a102.16,102.16,0,0,0-9.57-16.06q-5.82-8.88-24.27-14.36t-60.84,20.51l-13,19.48-3.08,31.11,1.37,31.78q-3.08,35.22-7.18,35.21l-.68,2.05,1.71,1h2.39l7.86-3.42q11.28,1.71,11.28,7.18l3.08,8.2.68,2.39q-2.38,24.62-7.18,24.61h-1.36q-7.18-4.44-50.93-6.49-31.45-2.73-31.45-9.57v-7.86q-.68-1.71-1.88-9.75c-.8-5.35-1.19-8.48-1.19-9.4q2.39-1.69,23.24-2.39,3.08,0,4.79-18.46,3.75-2.73,5.46-15a12.24,12.24,0,0,0,3.08-7.87v-27q2.38,0,3.42-103.9l6.49-70.07V169.47q0-10.26-6.49-10.26l-15.38-.68-10.26,3.08q-2.73,0-3.07-12.65v-5.13q0-20.51,5.47-20.5Z" transform="translate(-61.89 -101.31)"/><path d="M2004.91,230.31a159.69,159.69,0,0,0,22.56,1.71h39l1,1.36q-2.4,8.9-2.39,13.68v8.2q1.69,13.33,7.17,13.33,3.08-5.13,19.14-10.25,37.95-16.75,62.9-16.75,16,0,34.86,14.35,13.67,5.47,26.32,22.22,19.14,30.42,19.14,72.8v3.76l-3.08,34.18,3.08,25-4.79,22.22v.68l.34,4.1,18.12.69h7.86c5.24,0,8.55.57,9.91,1.71q-2.73,34.53-7.52,34.52a38.36,38.36,0,0,1-20.5,5.47h-9.57q-21.88,0-47.86,6.15-16.74-2.06-16.74-16.75l-.69-16.4q0-16.07,7.86-23.25a362.25,362.25,0,0,1,10.26-42.38l3.07-42q1,0,1-10.6,0-12.3-20.17-36.57-15-6.48-18.11-6.49-27,0-49.56,23.24-1.73,0-22.9,23.24-7.18,5.48-7.18,31.79,1,47.85,3.76,47.85,18.45,3.42,18.46,7.18v2.39l.68,6.15q3.07,3.42,3.08,11.28v.69q0,10.93-4.79,23.92l-55,1q-8.89,0-12-8.21-2.4-9.56-4.45-34.86,0-2.73,14.36-5.81l2.39-3.08V421c0-1.59-1.36-4.21-4.1-7.86l.68-14.7v-27l1.71-43.75q0-44.78-4.1-44.78h-2.39L2003.54,286q-3.42,0-8.88-6.15v-1.71a12.45,12.45,0,0,0,2.39-7.86l-.68-17.43,7.17-21.54Z" transform="translate(-61.89 -101.31)"/><path d="M2417.12,249.79h4.1a251.55,251.55,0,0,1,50.24,32.13q23.92,20.5,23.93,31.1h-.68l2.39,8.55h.68q1,.35,3.42,13.67l3.76,9.57-.68,6.15,1.36,17.09q-2.38,7.53-6.15,31.11-2.05,9.22-44.09,67.67-18.46,17.78-37.26,17.77a291.29,291.29,0,0,1-37.6,2.4h-8.88q-8.55,0-42.38-13.67-43.08-39-43.07-59.14-6.15-13.32-10.25-23.92,0-5.46,13-40.67,0-21.87,10.26-30.42Q2321.07,271,2355.59,257,2385,246,2403.79,246Zm-98.78,145.26v3.08q5.46,11.28,14.35,27.34,0,4.8,18.12,13.68,8.54,9.57,32.13,15l8.54,1q19.83-4.09,31.11-8.89L2439.68,432q26.31-28.37,25.63-47.51V380q-2.74-7.86-2.73-25a107.48,107.48,0,0,1,1.71-20.85q0-2.73-18.12-16.74-13.68-18.47-28-22.9h-5.47q-55.36,2-55.37,8.88-12.3,12.32-17.43,24.61-15,15.39-15,20.85Q2320.73,366.34,2318.34,395.05Z" transform="translate(-61.89 -101.31)"/><path d="M1064.63,585q179.44.69,179.44,4.11,5.13,26.65,5.13,38.28-3.42,13.32-6.5,32.47-2.73,6.5-5.47,6.49-30.42,0-30.42-8.54v-1l6.16-23.92q-2.06-18.46-6.84-18.46l-6.49-.68H1187l-99.12,4.78q-4.78,0-4.79,9.57v2.39l1.71,80.67q0,3.08,20.51,3.07l30.42,1q0-14.7,13.67-14.7l11.28.34,1.37,2.05v7.18q0,4.11,3.42,13.67-7.53,39-13,39L1132,754.9l-2.39-.69v-1l3.76-5.47v-2.39l-45.46-3.08q-4.78,2.06-4.79,5.47v16.06l-.68,9.57q0,20.52,6.15,85.11,3.08,2.06,32.82,4.79l.68.34c1.59.23,2.39,1,2.39,2.39q-1.71,22.9-11.62,22.9h-1v.69l-10.25-.69H1092q-33.49,3.07-79.64,4.79l-.34.68h-.68l-4.1-1.37.34-6.49-1-4.79q1.71-3.08,2.39-11.27,0-2.4,36.92-6.16,9.23-2,9.23-9.57l4.1-71.77,1.37-1.71h1.36l.69-3.08v-12l-4.11-2.4-2.39-17.43,2.39-7.52q-2.38-8.88-2.39-65.28V648.26a176.93,176.93,0,0,1,1.71-25.64q0-4.44-7.18-5.47h-6.49q-34.18,0-34.18-17.09l-1-6.15c.91-4.32,2.05-6.49,3.42-6.49h1.37q1,0,2.39,5.47h.69l1-1.37v-.68l-.68-.35q0-4.77,26-4.78Z" transform="translate(-61.89 -101.31)"/><path d="M1365.75,631.85q8.2,0,31.79,6.84Q1425.22,665,1430,679.36q9.9,10.26,16.75,43.41,7.52,7.17,7.52,33.84l.68,11.28-1.71,47.16q0,13.68,17.43,35.55Q1486.4,866,1491.53,866v.69q0,5.8-16.75,18.45-12.3,12-15.72,12h-.34q-7.18-.35-38.28-28-27.69,10.25-56.4,22.56a149.19,149.19,0,0,1-41.7,5.47H1320q-26-4.46-43.75-19.83-3.08-3.07-13.67-23.92Q1254,843.08,1254,827.7V814a46.13,46.13,0,0,1,7.18-24.61q6.49-18.79,21.53-36.91,7.51-9.24,15-11.63,24.94-13,48.88-13l21.53-.69h2.4q18.78,0,26,5.47h2.74c1.36,0,2-.79,2-2.39a155.92,155.92,0,0,0-16.75-42.73q-10.26-17.43-39-17.43l-19.14-2.39q-25.29,4.78-25.29,10.25-9.57,12.32-12,31.79-1,2.4-17.09,2.39l-3.08.69q-1.71,0-4.78,8.2-13.34-2.05-13.33-5.47,1.69-4.1,3.76-34.52,7.51-21.54,35.88-40,13.68-7.86,16.07-7.86Zm-75.2,168.51q3.09,28.71,7.87,28.71l4.78,5.81v.68l-4.44-.68v1.37q9.9,12,37.25,23.24a32.41,32.41,0,0,0,9.57,2.39q9.57,0,65.63-27.69c2.5-1.36,3.76-3.18,3.76-5.46v-2.4q-4.11-19.14-7.18-45.46l-.68-.34q0-5.13-10.6-8.54-34.86-9.91-47.85-9.91-35.55,8.19-49.9,23.92Q1290.55,794.9,1290.55,800.36Z" transform="translate(-61.89 -101.31)"/><path d="M1679.86,669.11q18.47,0,31.1,26.32,2.74,0,6.84,6.15l6.49,35.2q-4.1,5.47-25.29,5.47h-4.78q-17.78-2.38-17.78-12,0-6.84-10.93-18.12-1.38-2.38-20.17-2.39t-43.75,9.57q-17.1,17.43-23.93,29.4,3.42,86.13,2.4,101.85c0,2.74,1.93,4.1,5.81,4.1h11.62q7.52.34,7.52,2.4v.68l1.71,6.49-1,26.32-2.73,3.76-22.22,2h-2l-9.57,3.08q-54.34-1.71-54.35-4.1-9.57,0-9.57-8.55a120.48,120.48,0,0,1-1-17.77q0-8.88,18.45-12,0-3.76,12.65-3.76L1537,853v-.68l-3.08-129.88q0-12-5.81-12H1525q-5.82,0-19.14,4.79l-.69-.68v-1q0-1,3.76-2.39v-.69q-4.79,0-4.78-27-.69,0-1.37-8.2,19.49-15,39.65-15h12q6.15,0,23.93,4.79l.68,1.7q-4.44,5.82-4.44,9.57v3.08Q1612.87,661.93,1679.86,669.11Z" transform="translate(-61.89 -101.31)"/><path d="M1799.83,648.6c3.64.46,5.47,1,5.47,1.71l-2,3.07v1h.68l24.61-.68q41.36,0,55,20.5,9.23,12,12,16.75l1.7.69q4.11,0,54-26c4.32-1.82,7.86-2.74,10.59-2.74q19.14,0,40.68,14.36,40,32.48,40,54.35,3.75,8.19,15,97.07v13.33c0,3,.68,4.56,2,4.78h1.71q4.09,0,15.38-3.76,7.86,0,7.86,27.69.67,11.28.68,21.53h-6.49q-21.88,3.42-35.55,3.42l-14.7-1.71-27.68.68H1996c-.68,0-1-1.25-1-3.76l-6.15-5.81v-.68l1.36-4.79v-1L1987.82,866v-6.15q0-6.5,9.91-6.49,16.74,2.38,14-12.65-.69-36.91,2.73-55.71v-.69l-1-28.71q0-7.17-12.65-17.43l-4.1-1h-3.08l-4.78-2.39q-10.61-14-35.21-14-30.42,2.73-36.57,18.11-1.71,5.13-2.39,22.56l1,10.94v34.18l-.34,13.67q0,21.89,12,24.61c3.42.68,5.13,1.83,5.13,3.42q-4.79,22.56-6.49,26.32l-12,2.39-40.67-3.42-4.79,1q-7.86,0-7.86-24.61v-1.71q0-2.73,14.36-7.18c2.5,0,3.76-1.14,3.76-3.42q-2.4-10.59-2.4-27l.69-52a80.48,80.48,0,0,1-2.39-16.75q.33-12,2.73-12h.68q4.79-8.9-28-28.37a48.76,48.76,0,0,0-16.75-3.42q-13,0-30.08,12l-.34,2.4V750.8l1,99.8,2.4,1.71H1808c.9,0,1.59-1.14,2-3.42h1q12.65,0,15,6.5v4.1l1,10.94q1,19.82-10.26,19.82-3.76,1.37-25.63,1.71l-61.53-4.1q-4.79,0-8.88-28.37v-1q0-3.75,19.14-9.57,0-3.75,19.14-6.15a4.86,4.86,0,0,0,3.42-4.79l3.07-111.08.69-26.32q0-4.09-8.89-4.1a114.16,114.16,0,0,0-22.22,2.39q-7.86-4.44-7.86-9.23,1.71-23.91,1.2-25.29t2.9-8.54Q1759.49,651.67,1799.83,648.6Z" transform="translate(-61.89 -101.31)"/><circle cx="421.48" cy="421.48" r="421.48" style="fill:url(#a)"/><ellipse cx="420.14" cy="423.55" rx="253.13" ry="244.02" style="fill:#fff"/><rect y="407.98" width="842.96" height="22.5" style="fill:#fff"/><rect x="61.93" y="508.99" width="845.2" height="22.5" transform="translate(159.29 -241.42) rotate(21.22)" style="fill:#fff"/><rect x="63.85" y="509.9" width="842.67" height="22.5" transform="translate(448.72 -291.74) rotate(45)" style="fill:#fff"/><rect x="63.29" y="510.85" width="843.21" height="22.5" transform="translate(714.27 -229.5) rotate(67.01)" style="fill:#fff"/><rect x="62.19" y="511.54" width="842.96" height="22.5" transform="translate(944.56 -62.19) rotate(90)" style="fill:#fff"/><rect x="59.97" y="511.38" width="844.57" height="22.5" transform="translate(1087.64 175.47) rotate(112.47)" style="fill:#fff"/><rect x="60.72" y="511.56" width="843.76" height="22.5" transform="translate(1131.18 459.95) rotate(135.81)" style="fill:#fff"/><rect x="59.56" y="505.78" width="842.99" height="22.5" transform="translate(1059.63 713.28) rotate(157.85)" style="fill:#fff"/><path d="M69.21,605.77c43-24,108-52.61,190.88-62.84,58.8-7.26,123.51-15.25,193.88,12.26,33.45,13.08,62.94,32.13,117.23,38.32,23.86,2.72,41.66,1.72,72.14,0,65.33-3.68,88.06-13.12,133.77-16.86,28.62-2.34,70.66-2.8,123.24,7.66a386.2,386.2,0,0,1-33.89,114.21c-34.39,72-84.94,118.51-113.35,144.17-5.24,4.74-10.18,9.2-17.33,15,0,0-60.37,48.95-143.54,71.48-66.26,18-237.36,36-377.24-79.7C108.8,761.62,78,645.74,69.21,605.77Z" transform="translate(-61.89 -101.31)" style="fill:#fff"/><path d="M291.45,898.69a527.72,527.72,0,0,1,79.43-128.42c12.22-14.58,72-84.23,172.49-135,150.51-76,297.45-61.69,357-52.5l-3,22.5a466.46,466.46,0,0,0-135,4.5c-106.13,19.26-176.64,70.72-214.49,99-100.15,74.82-154,165.4-180.76,220.58Z" transform="translate(-61.89 -101.31)" style="fill:url(#b)"/><path d="M400.11,935.69a551.78,551.78,0,0,1,110.34-174c34.61-36.79,98-102.54,204-134.66,75.61-22.92,141.44-19.19,180-14l-2.67,17.33a309,309,0,0,0-55.33-2.67c-91.8,3.86-157.55,48.19-190,70.67-64.16,44.44-99.88,95-126,132.67a616.37,616.37,0,0,0-61.67,112.33Z" transform="translate(-61.89 -101.31)" style="fill:url(#c)"/><path d="M495.28,944.69a338.91,338.91,0,0,0,105.5-17,554.63,554.63,0,0,1,62-129.5c22.86-35.16,43-66.17,80-93.5,49.78-36.79,104.05-47.71,142.5-50.5l4.5-18.5a283.48,283.48,0,0,0-89,3c-57.76,11.28-96.18,37.89-118,53C571.3,768.9,507.27,916.28,495.28,944.69Z" transform="translate(-61.89 -101.31)" style="fill:url(#d)"/><path d="M639.78,912.69a242.21,242.21,0,0,0,81.5-41.5,302.46,302.46,0,0,1,13-52c6.52-18.78,18.14-51.33,46-84.5,14.35-17.08,33.48-39.33,66.5-52.5a142.74,142.74,0,0,1,31.5-8.5l6-16a200.25,200.25,0,0,0-58,10.5c-49.81,17-79,49.52-100.5,74C672.61,802.85,650,869.93,639.78,912.69Z" transform="translate(-61.89 -101.31)" style="fill:url(#e)"/><path d="M745.28,852.19a417.85,417.85,0,0,0,129.5-173,128.6,128.6,0,0,0-45,18c-5.4,3.49-25.4,17-48,55.5C770,772.73,753.71,806.06,745.28,852.19Z" transform="translate(-61.89 -101.31)" style="fill:url(#f)"/><path d="M76.64,634.36a415.18,415.18,0,0,1,85.09-32.67c14.32-3.75,86-21.69,179.57-7.33a476.26,476.26,0,0,1,150.89,50.15l77.59-38.82a384.41,384.41,0,0,0-97.15-46c-93.6-29-174.48-13.92-234.51-2a644.71,644.71,0,0,0-166.84,58Z" transform="translate(-61.89 -101.31)" style="fill:url(#g)"/><path d="M84.17,659.69a383.07,383.07,0,0,1,61.13-17.33C172.72,637,269,619.56,369,666.36a327,327,0,0,1,50.39,29.33L469.64,661c-12.54-6.15-30.38-14.48-52.26-23.28-18.67-7.5-51.14-20.62-82.63-28-70-16.4-130.48-4.14-170.64,4a512.16,512.16,0,0,0-87.33,26Q80.47,649.69,84.17,659.69Z" transform="translate(-61.89 -101.31)" style="fill:url(#h)"/><path d="M96,689a325.21,325.21,0,0,1,110.87,4.66c69.18,15.07,116.68,49.37,140.45,69.34q27.54-26,55.1-52c-30.84-20.31-98-58.26-190.17-62a368,368,0,0,0-127,17.33Q90.65,677.7,96,689Z" transform="translate(-61.89 -101.31)" style="fill:url(#i)"/><path d="M107.05,715l3.19.27h.07c30.28,2.87,58.83,13.72,58.83,13.72,33.12,12.58,56.41,31.51,67.49,40.66A274.1,274.1,0,0,1,294,835q18.57-25.66,37.12-51.34A351.4,351.4,0,0,0,253.5,729c-24.83-12.85-66.8-34-123.5-35.34A241,241,0,0,0,98.28,695Q102.66,705,107.05,715Z" transform="translate(-61.89 -101.31)" style="fill:url(#j)"/><path d="M110.4,720.16a476.06,476.06,0,0,0,50.92,74,488.85,488.85,0,0,0,104.61,93.38l15.13-28.29a411.79,411.79,0,0,0-40.38-57c-24.85-29.44-47.38-55.51-85.3-70.88A166.07,166.07,0,0,0,110.4,720.16Z" transform="translate(-61.89 -101.31)" style="fill:url(#k)"/><polyline points="294.46 613.69 294.46 613.69 287.12 613.69" style="fill:#fdb51c"/><path d="M322.8,485.36l.3-108.78S263.62,434.64,322.8,485.36Z" transform="translate(-61.89 -101.31)" style="fill:#fdb51c;stroke:#000;stroke-miterlimit:10;stroke-width:3px"/><path d="M325.36,485.36V376.58S384.68,434.78,325.36,485.36Z" transform="translate(-61.89 -101.31)" style="fill:#f89722;stroke:#000;stroke-miterlimit:10;stroke-width:3px"/><path d="M259.31,607.31s-3,79.68,65.25,79.68c0,0,0-56.82-65.25-79.68" transform="translate(-61.89 -101.31)" style="fill:#fdb51c;stroke:#000;stroke-miterlimit:10;stroke-width:5px"/><path d="M259.31,531.79s-3,79.68,65.25,79.68c0,0,0-56.82-65.25-79.68" transform="translate(-61.89 -101.31)" style="fill:#fdb51c;stroke:#000;stroke-miterlimit:10;stroke-width:5px"/><path d="M259.31,456.26s-3,79.68,65.25,79.68c0,0,0-56.81-65.25-79.68" transform="translate(-61.89 -101.31)" style="fill:#fdb51c;stroke:#000;stroke-miterlimit:10;stroke-width:5px"/><path d="M324.56,687s0-56.82,65.26-79.68C389.82,607.31,392.78,687,324.56,687Z" transform="translate(-61.89 -101.31)" style="fill:#f89722;stroke:#000;stroke-miterlimit:10;stroke-width:5px"/><path d="M324.56,611.47s0-56.82,65.26-79.68C389.82,531.79,392.78,611.47,324.56,611.47Z" transform="translate(-61.89 -101.31)" style="fill:#f89722;stroke:#000;stroke-miterlimit:10;stroke-width:5px"/><path d="M324.56,535.94s0-56.81,65.26-79.68C389.82,456.26,392.78,535.94,324.56,535.94Z" transform="translate(-61.89 -101.31)" style="fill:#f89722;stroke:#000;stroke-miterlimit:10;stroke-width:5px"/><path d="M587.18,320.83s-9.35,50.66-32.42,59.92S518,384.51,518,384.51l-2.81.58s26.57,86.15,26.57,87,18.5,14.1,21.62,27.71c5-23.74,10.1-42.08,9.79-48.15S575,408.25,575,408.25s15.59,20,38.66,24c5.92-14.76-9.67-37-21.51-43.13,0,0,11.84-14.76,7.79-39.94S587.18,320.83,587.18,320.83Z" transform="translate(-61.89 -101.31)" style="fill:#7a6a5f"/><path d="M571.12,403.57s-30.53,24.05-22.2,75.6A42.46,42.46,0,0,1,562,496.31Z" transform="translate(-61.89 -101.31)" style="fill:#a08778"/><path d="M496.09,384.85c0,1.16-26.27,84.25-26.27,84.25s21.58-8.25,38.77-5.64a214.2,214.2,0,0,1,33.74,8.41l-27.81-88Z" transform="translate(-61.89 -101.31)" style="fill:#faf2d8"/><path d="M471.75,463.17c6.79-21,24.52-79.28,24.52-79.28l-2.81-.58s-13.71,5.5-36.78-3.76-32.42-59.92-32.42-59.92-8.73,3.18-12.78,28.37,7.79,39.94,7.79,39.94c-11.84,6.08-27.43,28.37-21.51,43.13,18.75-3.3,32.56-17.11,37.07-22.16-.41-1-.82-2.05-1.21-3.05.39,1,.8,2,1.21,3.05,1-1.17,1.59-1.87,1.59-1.87s.15,2.56.36,6.45C444.25,430.25,455.77,452.48,471.75,463.17Z" transform="translate(-61.89 -101.31)" style="fill:#7a6a5f"/><path d="M440.48,402.55c.61,10.95-2,43.42-2.19,47.91-.31,6.08,5.92,12.74,10.91,36.47,3.12-13.6,19.95-19.1,19.95-20,0-.17,1-3.32,2.6-8.3C455.77,448,447.67,438.51,440.48,402.55Z" transform="translate(-61.89 -101.31)" style="fill:#574c41"/><path d="M448.38,514.11c-.41-3.45-3.27-20.84-3.27-20.84s6.08-29.1,57.06-30c48.17.44,57.52,23.45,59.86,33s-2.34,15.2-3.74,19.54-5.61,7.38-11.69,8.68-88.39,0-88.39,0S449.32,521.93,448.38,514.11Z" transform="translate(-61.89 -101.31)" style="fill:#e3c8de"/><path d="M480.15,490.48c-2.09,0-3.73,2.82-3.65,6.28s1.82,6.21,3.89,6.21,3.7-2.77,3.64-6.21S482.24,490.48,480.15,490.48Z" transform="translate(-61.89 -101.31)"/><path d="M525.09,490.48c-2.09,0-3.82,2.82-3.86,6.28s1.6,6.21,3.67,6.21,3.8-2.77,3.86-6.21S527.18,490.48,525.09,490.48Z" transform="translate(-61.89 -101.31)"/><path d="M460.65,433.82c3.87,0,6.94-2.68,6.85-6s-3.34-6.06-7.25-6.06-7,2.72-6.85,6.06S456.77,433.82,460.65,433.82Z" transform="translate(-61.89 -101.31)"/><path d="M549.49,421.76c-3.91,0-7.15,2.72-7.24,6.06s3,6,6.86,6,7.11-2.68,7.24-6S553.4,421.76,549.49,421.76Z" transform="translate(-61.89 -101.31)"/><path d="M621.59,432.13c0-.07,0-.16,0-.27-.46-11.09-3.75-36.36-23.4-47.09,11.37-25.16,8.36-50.53-8.62-71.72a5.38,5.38,0,0,0-5.47-1.79,5,5,0,0,0-3.84,4c-.27,1.91-2.82,19.15-9.84,35.29-5.24,12.05-14.43,26.59-28.52,28.18H468.81c-29.94-1.79-38.55-60.36-38.9-62.85a4.94,4.94,0,0,0-3.84-4,5.39,5.39,0,0,0-5.47,1.79c-17,21.21-20,46.57-8.5,71.69-18.72,11.12-21.86,35.74-22.31,46.47,0,.11,0,.2,0,.27a4.47,4.47,0,0,0,.4,2.45,5.3,5.3,0,0,0,5.95,2.77c1.2-.26,23.54-5.31,37-18.62l7.63,73.37c1.22,12.16,1.77,16.77,2.2,18.81.66,9.71,9.61,17.85,19.74,17.85H547.9c9.86,0,18-8.12,18.51-18.53L569,491.12v-.06l9-72.59c13.42,13.49,36,18.61,37.23,18.88a5.31,5.31,0,0,0,6-2.77A4.58,4.58,0,0,0,621.59,432.13Zm-230.43-2.8-.19.2Zm-1.06,1.56c0-.11.1-.22.16-.33C390.2,430.67,390.15,430.78,390.1,430.89Zm-.29,1a4.4,4.4,0,0,1,.1-.47A3.56,3.56,0,0,0,389.81,431.91Zm.11-.5a3.45,3.45,0,0,1,.14-.42C390,431.13,390,431.27,389.92,431.41Zm.88-1.69-.17.24Zm-.3.42a2.26,2.26,0,0,0-.16.26A2.26,2.26,0,0,1,390.5,430.14Zm.89-1,.18-.15Zm165.87,67.49-.24,5.74-.93,6.83c0,.13,0,.24,0,.38-.22,5.15-3.95,9.47-8.15,9.47H462.68a9.73,9.73,0,0,1-9.39-9,4.78,4.78,0,0,0-.2-1.13c-.31-1.67-1.26-10.2-2-17.78l-.41-3.93a28.6,28.6,0,0,1,6.23-8.66c9.22-8.84,24.64-13.32,45.8-13.32.26,0,21.8.62,37.74,8.22a2.11,2.11,0,0,0,1.13.55,36.76,36.76,0,0,1,9.22,6.43A20.74,20.74,0,0,1,557.26,496.61Zm-54.52-35.17c-11.59,0-21.58,1.34-29.91,3.94l25.4-76.92h15.21l25.13,80C522.56,462,503.83,461.46,502.74,461.44ZM442,403.38a5,5,0,0,0-4.66-4.34,5.21,5.21,0,0,0-5.48,3.41c-4.18,12.87-21.34,20.25-31.14,23.5,1.38-11.35,6-28.5,20.88-34.36a4.77,4.77,0,0,0,3.06-5.4,4.84,4.84,0,0,0-2.24-3.07c-8.84-18.34-8.86-36.83-.31-53.24a145.69,145.69,0,0,0,8.2,25.11c9.38,21.27,22.19,32.54,38.08,33.42a2.87,2.87,0,0,0,.31,0h25.07l-26,78.76A43.75,43.75,0,0,0,453.86,476a34,34,0,0,0-3.9,4.47Zm137.61-.92a5.21,5.21,0,0,0-5.44-3.41,5,5,0,0,0-4.69,4.25l-10.17,82.27a26,26,0,0,0-5.49-7.74,40.38,40.38,0,0,0-10-7l-25.89-82.38h24.23a4.78,4.78,0,0,0,.53-.06c28.34-2.67,40.7-38.91,45.42-59.11,8.53,16.33,8.57,34.73-.08,53a4.87,4.87,0,0,0-2.82,3.38,4.76,4.76,0,0,0,3.32,5.48c16,5.34,20.76,23.13,22.18,34.85C599.77,422.38,583.49,414.58,579.56,402.46Zm40.84,27.1-.19-.2Zm-.42-.41-.18-.15Zm1.13,1.44a3,3,0,0,1,.15.32Zm-.55-.84.18.23Zm.3.41c.06.09.11.18.16.27C621,430.34,620.92,430.25,620.86,430.16Zm.59,1.3a2.77,2.77,0,0,1,.11.48A4.15,4.15,0,0,0,621.45,431.46Zm-.15-.44a3.52,3.52,0,0,1,.15.42A2.6,2.6,0,0,0,621.3,431Z" transform="translate(-61.89 -101.31)"/><path d="M586.42,585l-.51.59-.24.36a45.77,45.77,0,0,0-6.28-3.86q-12.89-6.6-25.62-4.08l-.34,0a36.6,36.6,0,0,0-11.57,3.55l.34.7a37.15,37.15,0,0,0-8.42,6.44,45,45,0,0,0-8.14,9.45c-2.77,3.64-4.13,8.09-5.76,12.16a37.23,37.23,0,0,0-1.52,11.19l.12.07,1.23.1,1.42.14a36.84,36.84,0,0,0,.52,3.88,42.72,42.72,0,0,0,4.4,15c1.82,2.85,3.13,6.42,6.27,7.52.62,3.26,4.45,5,6.89,7,.8.12,2.67,2.67,3,.79,2.23,3.09,6,3.66,9.24,5.16,2.69,1.23,5.39,1,8,1.15l.2-1.76,0,0,.34-2.22,0-.07c.25,0,.47.05.72.05l0,0,0,0a11,11,0,0,1,1.46.27,33.67,33.67,0,0,0,10.72-.95c14.26-3.21,25.26-15,30.05-28.5l-2.47-.58a8,8,0,0,1-1.1,2.36c.3-.8.6-1.61.87-2.43l-.58-.13c.12-.37.21-.74.31-1.12l1.48.34c1.13-3.56.4-7.36,1.44-10.92,1.6-3.75-4.2-6.34-1.1-9.4A37.88,37.88,0,0,0,591.62,589c-1.2-1.95-3.29-2.94-5.2-4Z" transform="translate(-61.89 -101.31)" style="fill:#50260e"/><path d="M525.83,600q-8,15.53-2.85,30.91a37.74,37.74,0,0,0,19.21,22.6q15.6,8,31,3.06t23.36-20.46q7.91-15.42,3-30.78t-20.21-23.22q-15.33-7.86-30.44-2.8T525.83,600Z" transform="translate(-61.89 -101.31)" style="fill:#1e0e05"/><path d="M555.42,623l3.65-.58v.32l-3.65.26Z" transform="translate(-61.89 -101.31)" style="fill:#bb803e"/><path d="M559.88,622.72l.23-.46.94-.16.31.53Z" transform="translate(-61.89 -101.31)" style="fill:#bb803e"/><path d="M559.4,622l-.46-3.37,1.21,2,0,0-.56,1.3-.17,0Z" transform="translate(-61.89 -101.31)" style="fill:#bb803e"/><path d="M560.29,621.92l.34-.57.27.51-.61.06Z" transform="translate(-61.89 -101.31)" style="fill:#bb803e"/><path d="M555.42,623l3.65-.58v.32l-3.65.26Z" transform="translate(-61.89 -101.31)" style="fill:#ae5919"/><path d="M559.88,622.72l.23-.46.94-.16.31.53Z" transform="translate(-61.89 -101.31)" style="fill:#ae5919"/><path d="M559.4,622l-.46-3.37,1.21,2,0,0-.56,1.3-.17,0Z" transform="translate(-61.89 -101.31)" style="fill:#ae5919"/><path d="M560.29,621.92l.34-.57.27.51-.61.06Z" transform="translate(-61.89 -101.31)" style="fill:#ae5919"/><path d="M539.45,655c-1.87-1.37-2.51-3.84-4.32-5.3-4.14-3.2-6.25-7.83-9.21-11.89-2.82-3.78-3.46-8.12-3.12-12.61l1.83.43,5,0,6.11-.41,7-.1,4.88.66,6.81-.27,1.83-.09.26.12.71.14,3.07.35-3.34,5.74.91-1.27,2.44-3.55-.45,3.23-1.17,7.09.42,2.51-.64,2.83,1.38,5.09-1.54,5.76,1.76,5-.34,2.45h-.23c-3.45,2-6.68-3.63-10.74-2.14-1.91-2.52-6-2.82-9.24-3.76Z" transform="translate(-61.89 -101.31)" style="fill:#bb803e"/><path d="M539.2,655.33c-2.44-2.08-6.26-3.76-6.88-7-3.14-1.1-4.44-4.67-6.26-7.52A42.83,42.83,0,0,1,521.55,625l2.83.64c0,.72,0,1.47,0,2.14-.76,2.36,0,3.53,1.77,4.67-.81,3.5,2.59,3.51,3.2,7.06,1.53,3.86,3.75,7.8,7.49,9.6,1.11,1,1.07,2.62,2.56,3.67,5,1.93,8.73,6.17,14.39,6.31a8.42,8.42,0,0,0,5.89,1.61l-.23,1.79c-2.66-.19-5.33.06-8-1.17-3.26-1.5-7.05-2.07-9.28-5.15-.33,1.87-2.19-.7-3-.82Z" transform="translate(-61.89 -101.31)" style="fill:#1e0e05"/><path d="M543.5,641.62c-1-1.09,1.39-2.49-.08-3.19-4.37-3.37-7.59-8-8.44-13.1l.71,0,7-.1,4.88.66,6.81-.27,1.83-.09.26.12.71.14,3.07.35-3.34,5.74.91-1.27,2.44-3.55-.45,3.23-1.17,7.09.42,2.51-.64,2.83,1.17,4.38a136.79,136.79,0,0,1-16.07-5.44Z" transform="translate(-61.89 -101.31)" style="fill:#ae5919"/><path d="M550.7,637.21c-4-3.79-9.35-7.19-10.75-12l2.72-.06,4.88.66,6.81-.27,1.83-.09,0,0,4.16-.16,0,.31-3.8,0,.61.12,3.07.35-3.34,5.74.91-1.27,2.44-3.55-.45,3.23-1.17,7.09.42,2.51-.24,1a49.84,49.84,0,0,1-6.58-3.39c-.5-.11-1-.19-1.52-.29Z" transform="translate(-61.89 -101.31)" style="fill:#ba6422"/><path d="M560.8,656.83l.31-4.94-.72-6.2.17-3.55-.14-4.44.12-5.07.59-3.49,0-4.94v-1.88l.11-.16,2.06.25.36.82-.22-.78.84.12,4.56,1,9.82,2.25,3.47-.4,3.94,1.13,6.35,2,4.18-.67,3.64.88a41,41,0,0,1-5.27,10.9c-2.45,4.5-7.41,7-9.43,11.8-3.81,2.63-8.71,3.17-12.95,4.9-3.83,2.05-8,.51-11.77.54Z" transform="translate(-61.89 -101.31)" style="fill:#bb803e"/><path d="M560.7,658.49l.08-1.55v-.35c2-.17,4-.64,6-.8,2.84,1.36,5.49-1.84,7.62-.84,3.21-2.24,6.62-4.75,10.61-5,2-1.6,2.53-5.42,5.83-5.21a1.46,1.46,0,0,0-.09.46,7.81,7.81,0,0,0,.91-3.1c2.94-2.43,4.3-6.08,6.27-9.43a7.54,7.54,0,0,0,2.55-3.93l2.47.59c-4.79,13.47-15.78,25.28-30,28.5a34.1,34.1,0,0,1-10.74,1,10.51,10.51,0,0,0-1.46-.3Z" transform="translate(-61.89 -101.31)" style="fill:#1e0e05"/><path d="M560.49,643.18l.07-1-.14-4.44.12-5.07.59-3.49,0-4.94v-1.88l.11-.16,2.06.25.36.82-.22-.78.84.12,4.56,1,9.82,2.25,3.47-.4,3.94,1.13L590.7,628c-3.09,7.19-9.37,13.07-16.47,16.42a41.43,41.43,0,0,1-13.74-1.19Z" transform="translate(-61.89 -101.31)" style="fill:#ae5919"/><path d="M560.42,637.36l.12-4.73.59-3.49,0-4.94v-1.88l.11-.16,2.06.25.36.82-.22-.78.84.12,4.56,1,9.82,2.25,3.47-.4.29.09c-.29,1.55-.58,3.12-.86,4.73-2.07,4.89-7.47,6.73-13,8.57a25,25,0,0,1-8.09-1.42Z" transform="translate(-61.89 -101.31)" style="fill:#ba6422"/><path d="M519.71,621.75c-.53-4.8,1.67-9.12,2.55-13.76-.1-5,3.39-8.83,6.67-12.17s6-7.55,10.39-9.64c1-.46,2.07-.91,3.1-1.34l3.06,5.94,1.79,4.52,2.43,5.5,2.66,6.42,1.48,4.71,2.62,6.15,1.15,2.79V621l-.08.52-.23,2.86-4.36-.25-4.53-.66-7.63-.07-5.59-.89-2.69,0-4.08.18-8.7-.94Z" transform="translate(-61.89 -101.31)" style="fill:#bb803e"/><path d="M518.36,621.6a37.81,37.81,0,0,1,1.52-11.23c1.63-4.07,3-8.47,5.76-12.12a44.32,44.32,0,0,1,16-15l.07.22.87,1.72a19.44,19.44,0,0,0-2.91,1.48c-.05,3.55-3.55,2.69-4.89,5.59-3.46,1.76-5.1,4.34-6.13,7.73-2.16.91-4.65,4.35-3,5-1.31,3.51-4.24,6.3-4.29,10.31-.08,1.72-.14,4.13-.17,6.62l-2.76-.28-.15,0Z" transform="translate(-61.89 -101.31)" style="fill:#1e0e05"/><path d="M531.65,622.55a16.14,16.14,0,0,1,.16-2.85c1.45-6.81,2.15-14.11,7.58-19a19.83,19.83,0,0,1,7.87-5.51v.06l2.43,5.5,2.66,6.42,1.48,4.71,2.62,6.15,1.15,2.79V621l-.08.52-.23,2.86-4.36-.25-4.53-.66-7.63-.07-5.59-.89-2.69,0-.84,0Z" transform="translate(-61.89 -101.31)" style="fill:#ae5919"/><path d="M536.58,622.73a9.39,9.39,0,0,1,.43-3.81c-.59-4.06,1.44-7.72,4.89-10.65l0,0c1.48-2.42,4.53-4.79,8.17-6.52l2.26,5.5,1.48,4.71,2.62,6.15,1.15,2.79V621l0,.27,1,1.87,0,0-.75,1.22h-.17l-.19-2.11-.15,2.1-4.36-.25-4.53-.66-7.63-.07-4.19-.65Z" transform="translate(-61.89 -101.31)" style="fill:#ba6422"/><path d="M561,622.15v-.06l-.17-.52,1.23,0-.4-.1-.69-.07-.21,0-.31-.9,2.05-2.73,6-7.9,1.71-2.91,2.48-3.12,4.06-5.08,3.93-5.4,4.67-6.74c3.18,2.9,6.77,5.41,9.07,9.08,2.47,3.33,3.64,7.21,5.15,11.11.3,4,.16,8,.78,12a61.12,61.12,0,0,1-1.76,8.44l-2-.47-6.51,0-7.4-2.2-7.07-.59-4.85-1.14-6.9-.42-2.8-.2Z" transform="translate(-61.89 -101.31)" style="fill:#bb803e"/><path d="M598.6,627.14c.19-1.67.2-3.42.46-5.2,1.18.73.66-3.09.29-3.36.09-4.21,1.35-7.74-1-11.38-.81-3.2.17-5.66-2.77-7.69-.86-4.1-4.1-6.33-6.82-8.34a22.53,22.53,0,0,0-4.13-3.7l1.25-1.83.47-.6c1.91,1.05,4,2,5.21,4a38,38,0,0,1,10.18,18.45c-3.1,3.06,2.71,5.62,1.12,9.37-1,3.56-.34,7.38-1.46,10.94l-2.85-.63Z" transform="translate(-61.89 -101.31)" style="fill:#1e0e05"/><path d="M561,622.15v-.06l-.17-.52,1.23,0-.4-.1-.69-.07-.21,0-.31-.9,2.05-2.73,6-7.9,1.71-2.91,2.48-3.12,4.06-5.08,1.4-2a18.15,18.15,0,0,1,3.33,3.71c6.05,2.67,6.12,8.47,8.61,13.94a23.41,23.41,0,0,1-.9,12.06l-6.54-2-7.07-.59-4.85-1.14-6.9-.42-2.8-.2Z" transform="translate(-61.89 -101.31)" style="fill:#ae5919"/><path d="M559.25,622.06l.29-.43,1,0,.24.57-1.48-.1Z" transform="translate(-61.89 -101.31)" style="fill:#ba6422"/><path d="M559.76,621.32l.41-.52.2.54-.61,0Z" transform="translate(-61.89 -101.31)" style="fill:#ba6422"/><path d="M561,622.15v-.06l-.17-.52,1.23,0-.4-.1-.69-.07-.21,0-.31-.9,2.05-2.73,6-7.9,1.71-2.91,2.48-3.12,1.6-2c9.24,4.12,8.12,12.53,6.18,22.54l-4.89-.42-4.85-1.14-6.9-.42-2.8-.2Z" transform="translate(-61.89 -101.31)" style="fill:#ba6422"/><path d="M557.92,621.6l-1.24-3.79-1.28-4.4-4-8.23-.59-3.64-3.14-3.72-1.06-5.63-2.83-6.5-1.11-2.32a55.75,55.75,0,0,1,10-3.07c4.71-.19,9.65-2.34,14.08.24,4.61,2.65,10.59,2.1,14.46,6.19.27.3.56.58.84.87l-2.59,4.08-5.86,7.47-2.39,3.53-2.9,4.61-4.37,5.15-2.84,4-3.15,5.13Z" transform="translate(-61.89 -101.31)" style="fill:#bb803e"/><path d="M542.89,583.81l-1-2.16a36.69,36.69,0,0,1,11.58-3.57c1.11-.22,6.72-.79,4.29-.2,4.32,0,8.51,2.29,12.35,3.07,4-1.82,7.5,1.6,10.87,3.37a6.25,6.25,0,0,0,1.9,2l-1.54,2.4-1.88-1.36c-3.48-4-8.17-4.09-12.82-5.64-6.08-.81-12.41-.88-18.3,1.11a23.5,23.5,0,0,0-5.41,1Z" transform="translate(-61.89 -101.31)" style="fill:#1e0e05"/><path d="M557.92,621.6l-1.24-3.79-1.28-4.4-4-8.23-.59-3.64-3.14-3.72-.73-3.78a26.39,26.39,0,0,1,12.2-1.3c5.49.93,11,2,15.45,5.1l-1,1.31-2.39,3.53-2.9,4.61-4.37,5.15-2.84,4-3.15,5.13Z" transform="translate(-61.89 -101.31)" style="fill:#ae5919"/><path d="M557.92,621.6l-1.24-3.79-1.28-4.4-4-8.23-.59-3.64-1-1.18c6.93-3.06,15.75-3.59,20.66,2.88l.12.08.15,0-2.49,3.92-4.37,5.15-2.84,4-3.15,5.13Z" transform="translate(-61.89 -101.31)" style="fill:#ba6422"/><path d="M729.29,661c-3.93-2.09-8.68-1.61-12.54-3.92a60,60,0,0,0-12.57.31,45.49,45.49,0,0,0-11,3.56l.81,1.85.7,1.74c-.91.56-1.81,1.13-2.66,1.77l-1.72-2-2.14-2.58a29.84,29.84,0,0,0-5.39,4.58c-1.91,3.74-5.85,5.39-7.32,9.5a52.79,52.79,0,0,0-5.23,13.76,37.52,37.52,0,0,0,.81,19.1c.1.5.18,1,.31,1.49l.7.09,1.47-.69.89-.39.21-.1,2.84-1.27s0,.09,0,.13l-1.43.71-3.11,1.6a35.41,35.41,0,0,0,4.68,9.58,26.74,26.74,0,0,0,9.16,9.27,39.16,39.16,0,0,0,14.75,7.5l.3-2,.2-1.65c.62.22,1.21.43,1.82.61l.18,4.14,0,2.09c1.49.27,3,.47,4.49.6a38.08,38.08,0,0,0,19.14-3.65c1.43-3.84,8.07-2.15,9.35-6.5a33.56,33.56,0,0,0,9.17-10.73l-1-1.3,1.68,1.61.75.81a52.57,52.57,0,0,0,5.62-11.28,40.15,40.15,0,0,0-2.44-31.85l-2.7,1.33-.77.35c-.24-.45-.49-.9-.75-1.34l.47-.29a37.43,37.43,0,0,0-3.79-5.4c-2.6-2.15-4.55-5.48-7.76-6.69a2.7,2.7,0,0,1-1.27-.23l-.57-.34c-.9-.82-.93-2.31-2.75-2.74a11,11,0,0,0-1.65-1.06Z" transform="translate(-61.89 -101.31)" style="fill:#50260e"/><path d="M680.65,680.26q7.46-14.57,22-19.11a35.42,35.42,0,0,1,27.74,2.24q14.64,7.5,19.32,21.94t-2.77,29q-7.41,14.48-21.78,19.17t-28.76-2.66Q682,723.47,677.56,709.2t3.09-28.94Z" transform="translate(-61.89 -101.31)" style="fill:#1e0e05"/><path d="M729.28,662.43c-2.11-1-4.54-.31-6.69-1.2-4.8-2.06-9.88-1.67-14.87-2.29s-9.49,1.16-13.5,4c-.17.05-.31.13-.47.19l.85,2.08,3.57,3.85,2.34,4,4.24,6.69,2.93,3.95,3.06,6.1,1.88,3.72,2.08-4.57-.44,1.48-1.14,3.35,3.86-1.59,3-1.51,6.37-3.39,2.48-.38,2.48-1.5,5.48-1.55,3.58-2,4.8-2.91a13.62,13.62,0,0,1-1-1.84c.08-4-6.43-4.14-7.09-8.42-3.13-.45-5.41-3.86-7.78-6.22Z" transform="translate(-61.89 -101.31)" style="fill:#bb803e"/><path d="M729.09,661.32c-3.93-2.09-8.67-1.61-12.53-3.92a60.08,60.08,0,0,0-12.58.31,45.9,45.9,0,0,0-11,3.55l1.37,3.26c2.35-.95,3.18-3.25,5.78-3.8,2.58.26,6-1.22,7.52-.93,2.36,2.41,6.5-.47,8.32.7,2,1.92,6.35.49,7.62,2.09,1.36,1.42,3.35-.72,5.29,1,2.63,1.2,2.4,4.92,5.78,5,2.31-.26,2.15,1.1,1.83,2,2.79.89,2.92,5.23,6.41,4.45,2.17,1.41-1.37,2.36,1,4.5l0,0,2.12-1.32.87-.56a37.43,37.43,0,0,0-3.79-5.4c-2.6-2.15-4.55-5.48-7.76-6.69-3.07.17-2-2.7-4.59-3.31a10.48,10.48,0,0,0-1.65-1.06Z" transform="translate(-61.89 -101.31)" style="fill:#1e0e05"/><path d="M721.13,674.27c-1.34-.36-1.52,2.22-2.73,1.26-5.42-2.64-11.66-3.33-16.83-.85l3.18,5,2.93,3.95,3.06,6.1,1.88,3.72,2.08-4.57-.44,1.48-1.14,3.35,3.86-1.59,3-1.51,6.37-3.39,2.48-.38,2.48-1.5.87-.24a134.29,134.29,0,0,0-11-10.86Z" transform="translate(-61.89 -101.31)" style="fill:#ae5919"/><path d="M718.82,680.86c-3.75,1.14-7.74-1.67-11.7-.57-.53.14-1.06.28-1.57.47l2.13,2.9,3.06,6.1,1.88,3.72,2.08-4.57-.44,1.48-1.14,3.35,3.86-1.59,3-1.51,5.86-3.12c-2.3-2.37-4.84-4.51-7-6.66Z" transform="translate(-61.89 -101.31)" style="fill:#c06926;opacity:0.694323122501373;isolation:isolate"/><path d="M748.85,678.65l-2.32,1.1-5.08,3.47-3.32,1.28-4.29,1.31-4.77,1.71-3.13,1.64-4.68,1.54-3,1,.62-.16-1.43.6-1.38.52,3.93,4,3.55,3,7.75,6.42,1.81,3,3.25,2.41,5.41,3.89,4.29,4.11a37.21,37.21,0,0,0,2.76-4.65c2.77-4.31,2.61-9.88,5.81-13.94.48-4.61-1.4-9.16-1.93-13.71C752.71,683.76,750.61,681.2,748.85,678.65Z" transform="translate(-61.89 -101.31)" style="fill:#bb803e"/><path d="M750.64,677.76l-2.7,1.33c1.83,1.73,2,3.71,3.16,6.94,1.72,3.05,1.16,6.82,1.91,10.29.9,2.38,2.13,4.23-.53,5.42-.83,2.89-3.07,7-2.74,8.87,1.91-1.19-2.33,2.08-1.47,3.29a44.18,44.18,0,0,1-3.24,4.57l1.68,1.6.75.82a52.57,52.57,0,0,0,5.62-11.28,40.15,40.15,0,0,0-2.44-31.85Z" transform="translate(-61.89 -101.31)" style="fill:#1e0e05"/><path d="M736.28,685.09l-2.44.72-4.77,1.71-3.13,1.64-4.68,1.54-3,1,.62-.16-1.43.6-1.38.52,3.93,4,3.55,3,7.75,6.42,1.81,3,3.25,2.41,1.79,1.29a32.84,32.84,0,0,0,4.38-17.07A38.31,38.31,0,0,0,736.28,685.09Z" transform="translate(-61.89 -101.31)" style="fill:#ae5919"/><path d="M729.86,687.23l-.79.29-3.13,1.64-4.68,1.54-3,1,.62-.16-1.43.6-1.38.52,3.93,4,3.55,3,7.75,6.42,1.17,2a20.54,20.54,0,0,0,2.84-9.19C735.29,694.34,732.89,690.58,729.86,687.23Z" transform="translate(-61.89 -101.31)" style="fill:#c06926;opacity:0.694323122501373;isolation:isolate"/><path d="M689.19,663.53c-3.89,2.27-6.23,6.21-9.44,9.32-4.2,2.64-5.53,7.68-6.51,12.26-1.18,4.56-3,9.13-2.36,14a73.56,73.56,0,0,0,2.42,10.75l7.76-3.42,4.48-2.37,4.6-1.61,6.22-3,4.32-2.59,5.81-3,5.24-2-.82-1.14-.15-.16-.7-.93L707,686.19l-5.18-7.47-2.83-3L696,672.86l-3.33-5.16Z" transform="translate(-61.89 -101.31)" style="fill:#bb803e"/><path d="M688,662a29.4,29.4,0,0,0-5.39,4.56c-1.92,3.74-5.86,5.38-7.33,9.49A53.12,53.12,0,0,0,670,689.85a37.59,37.59,0,0,0,.78,19.12c.1.5.2,1,.33,1.5l.69.06,2.6-1.17c-.22-.7-.42-1.38-.66-2.09-.53-4.22-3.11-9.16-1.3-12.71-2.05-3.2,3.48-6.07,1.65-10.23.93-2.21,2.9-4.17,2.67-7.1,1.41-2.84,4.33-2.87,6.26-6.25,2.28-2.3,3.83-5.92,7.07-6.39L688,662Z" transform="translate(-61.89 -101.31)" style="fill:#1e0e05"/><path d="M697.81,674.57l-.29.24c-4.85,4.48-10.43,8.59-11.75,15.35a20.18,20.18,0,0,0,.6,13.6l3.77-1.32,6.22-3,4.32-2.59,5.81-3,5.24-2-.82-1.14-.15-.16-.7-.93L707,686.19l-5.18-7.47-2.83-3Z" transform="translate(-61.89 -101.31)" style="fill:#ae5919"/><path d="M702.61,679.9a20.87,20.87,0,0,0-10.38,14.71,17.62,17.62,0,0,0,.74,6.45l3.39-1.63,4.32-2.59,5.81-3,5.24-2-.82-1.14-.15-.16-.7-.93L707,686.19l-4.36-6.29Z" transform="translate(-61.89 -101.31)" style="fill:#c06926;opacity:0.694323122501373;isolation:isolate"/><path d="M712.28,694.27l2.3,3.44-.27-.25-.49-.58-2-2.45-.42,2.17-.68,4.48-1.48,9.83-1.08,3.18-1.85,3.06-.12,5.89-2.65,8.31.22,6.61a29.52,29.52,0,0,0,8.85,1.14c4.15,0,8-1.29,12.06-2.35,3.41-2.12,6.6-4.64,10.14-6.45a54.37,54.37,0,0,0,9.8-12.3l-2.24-2.9-4.74-2.65-5.42-1.62-5.22-6-4.37-1.3-5.16-4.6-5.23-4.68Z" transform="translate(-61.89 -101.31)" style="fill:#bb803e"/><path d="M743.77,716.83a6.84,6.84,0,0,0-.42,1.76c-2.39,2.78-4.38,6.26-7.46,8.66-1.86,1.93-2.61,4.14-5.63,4.38-2.51.94-4.6,2.66-4.93,4.53-2.52-3.16-4.81,2.32-7.27,1.34-1.25-1.22-5.48.14-5.62.51-3.25.48-5.74-1-8.65-1.41l.08,3.44c1.5.27,3,.46,4.47.59A38.11,38.11,0,0,0,727.5,737c1.44-3.84,8-2.15,9.31-6.5a33.94,33.94,0,0,0,9.2-10.75Z" transform="translate(-61.89 -101.31)" style="fill:#1e0e05"/><path d="M712.28,694.27l2.3,3.44-.27-.25-.49-.58-2-2.45-.42,2.17-.68,4.48-1.48,9.83-1.08,3.18-1.85,3.06-.12,5.89-.26.86a18,18,0,0,0,2.89.23c5.27,3.38,9.9.42,15.52-.47a23,23,0,0,0,11.87-11.61l-4-1.22-5.22-6-4.37-1.3-5.16-4.6-5.23-4.68Z" transform="translate(-61.89 -101.31)" style="fill:#ae5919"/><path d="M712.28,694.27l2.3,3.44-.27-.25-.49-.58-2-2.45-.42,2.17-.68,4.48-1.48,9.83-1.08,3.18L706.49,717a21.33,21.33,0,0,0,8.67,1.37c6.71,0,12-4.41,14.81-10.11L727,704.85l-4.37-1.3-5.16-4.6-5.23-4.68Z" transform="translate(-61.89 -101.31)" style="fill:#c06926;opacity:0.694323122501373;isolation:isolate"/><path d="M713.23,692.19,709.37,694l-4,2.09-8.74,4.73-3.23,1-3.47,2-5.27,2.4L677.78,708l-3,1.53c.41,1.34.88,2.65,1.41,4,2.41,4,3.32,9.36,7.9,11.65,4.75,2.4,7.56,7.71,13.1,8.71a42.65,42.65,0,0,1,4.44,1l.37-2.66,1.45-7.85,2.17-4.58.9-6.85,2.86-4.77.57-6.57,2.21-6.31,1.1-3.08Z" transform="translate(-61.89 -101.31)" style="fill:#bb803e"/><path d="M675.85,708.93l-3.11,1.6a35.3,35.3,0,0,0,4.66,9.57,26.85,26.85,0,0,0,9.18,9.26,39.32,39.32,0,0,0,14.75,7.54l.42-3.15c-3.22-1.87-7.27-.43-9.68-3.79-2-2.3-4.28-3.23-6.87-5.87-4.5-.5-4.06-5.76-6.83-8.51,1.16,1.5,2.41,4.21.57,1.11a27.33,27.33,0,0,1-3.09-7.76Z" transform="translate(-61.89 -101.31)" style="fill:#50260e"/><path d="M713.23,692.19,709.37,694l-4,2.09-8.74,4.73-3.23,1-3.47,2-1.62.72a25.51,25.51,0,0,0,3.33,5.65c3.82,4.51,7.77,9,13.37,10.81l.6-1.23.9-6.85,2.86-4.77.57-6.57,2.21-6.31,1.1-3.08Z" transform="translate(-61.89 -101.31)" style="fill:#ae5919"/><path d="M713.23,692.19,709.37,694l-4,2.09-8.74,4.73-1.88.61A22.66,22.66,0,0,0,706.34,714l.15-1.12,2.86-4.77.57-6.56,2.21-6.32,1.1-3.08Z" transform="translate(-61.89 -101.31)" style="fill:#c06926;opacity:0.694323122501373;isolation:isolate"/><path d="M726.34,579.39a24.69,24.69,0,0,0-4.1.5v.1c-10.45-.1-19.26,3.18-26.37,9.93a37.44,37.44,0,0,0-2.67,2.84s-.1,0-.15.09c1.38-2.09-2.34,2.14-3,3.06a36.52,36.52,0,0,0-6,10.53l1.59.58c-.34,1.23-.58,2.52-.81,3.81l-2.62-.9-2.62-.91h-.15a37.93,37.93,0,0,0-3.34,10.83c-.23,4.37-.87,8.94.11,13.42a44.61,44.61,0,0,0,8.31,20.37l.14-.19,1.18-1,.15-.13.19-.14,4-3.11a43.16,43.16,0,0,0,13,8.74c3.23,1,6.49,3,9.61,1.84,2.56,2.12,6.59,1,9.79,1,.69-.42,3.74.39,2.8-1.27,3.68,1,7-1,10.46-1.92,2.86-.76,4.73-2.65,6.89-4.19l-.49-.82c.62-.37,1.25-.71,1.85-1.12l1.86,2.11,0,.05.23.24,1,1.18a11.73,11.73,0,0,1,1.22-.81c2.9-2.33,4.73-4.85,7-8.21,5.5-8.49,7-18.8,5.39-28.67a40.65,40.65,0,0,0-2.06-12.07l1.64-.74c-1.3-3.51-4.22-6.1-5.58-9.56-.59-2.27-2.88-2.73-4.61-3.54-.62-.64-1.27-1.24-1.92-1.83a3.22,3.22,0,0,1-.05-1.37,38.24,38.24,0,0,0-19.38-8.38,6.9,6.9,0,0,0-2.45-.42Z" transform="translate(-61.89 -101.31)" style="fill:#50260e"/><path d="M694,645.56l.14.14-1.72,1.36,1.58-1.5Z" transform="translate(-61.89 -101.31)" style="fill:#50260e"/><path d="M684.08,617.49q-.63,16.85,10.11,28.24a36.53,36.53,0,0,0,26,12q16.92.64,28.4-10t12.11-27.45q.63-16.72-9.91-28.21T723.66,580q-16.63-.65-27.79,10t-11.79,27.55Z" transform="translate(-61.89 -101.31)" style="fill:#1e0e05"/><path d="M719.26,625.8l3.06-2.06.13.29-3.19,1.77Z" transform="translate(-61.89 -101.31)" style="fill:#bb803e"/><path d="M723.18,623.68l0-.52.78-.54.51.35Z" transform="translate(-61.89 -101.31)" style="fill:#bb803e"/><path d="M722.44,623.22l-1.84-2.87,1.94,1.31v.05l0,1.42-.14.09Z" transform="translate(-61.89 -101.31)" style="fill:#bb803e"/><path d="M723.21,622.78l.07-.66.47.35-.54.31Z" transform="translate(-61.89 -101.31)" style="fill:#bb803e"/><path d="M719.26,625.8l3.06-2.06.13.29-3.19,1.77Z" transform="translate(-61.89 -101.31)" style="fill:#ae5919"/><path d="M723.18,623.68l0-.52.78-.54.51.35Z" transform="translate(-61.89 -101.31)" style="fill:#ae5919"/><path d="M722.44,623.22l-1.84-2.87,1.94,1.31v.05l0,1.42-.14.09Z" transform="translate(-61.89 -101.31)" style="fill:#ae5919"/><path d="M723.21,622.78l.07-.66.47.35-.54.31Z" transform="translate(-61.89 -101.31)" style="fill:#ae5919"/><path d="M722.54,660.36c-2.32.12-4.38-1.38-6.71-1.35-5.22.16-9.8-2.07-14.67-3.33-4.58-1.11-7.84-4.06-10.44-7.74l1.68-.83,3.84-3.13,4.44-4.2,5.32-4.52,4.17-2.59,5.08-4.54,1.36-1.23.28-.08.63-.34,2.59-1.69,1.08,6.56-.11-1.56-.37-4.29,1.7,2.78L726,634.5l1.93,1.67,1.3,2.58,4.3,3.06,2.49,5.42,4.51,2.7,1.3,2.11c-.05.06-.12.11-.17.16-1.38,3.74-7.46,1.44-9.64,5.18-3.08-.74-6.45,1.65-9.51,3Z" transform="translate(-61.89 -101.31)" style="fill:#bb803e"/><path d="M722.53,660.74c-3.21-.06-7.22,1.07-9.78-1-3.12,1.15-6.39-.78-9.61-1.82a43.06,43.06,0,0,1-13.55-9.34l2.59-1.3c.47.54,1,1.12,1.4,1.62.91,2.31,2.24,2.73,4.34,2.48,1.6,3.22,4.23,1.06,7,3.42,3.64,2,7.86,3.63,11.88,2.65,1.52.09,2.5,1.34,4.31,1.19,5.07-1.67,10.66-.78,15.11-4.28a8.45,8.45,0,0,0,5.57-2.49l1,1.52c-2.17,1.54-4.06,3.43-6.92,4.2-3.47.91-6.76,2.89-10.44,1.92.94,1.66-2.13.86-2.82,1.28Z" transform="translate(-61.89 -101.31)" style="fill:#1e0e05"/><path d="M717.11,647.41c-1.44-.22-.52-2.8-2.1-2.41-5.51.18-10.94-1.34-14.85-4.74l.52-.48,5.32-4.52,4.17-2.59,5.08-4.54,1.36-1.23.28-.08.63-.34,2.59-1.69,1.08,6.56-.11-1.56-.37-4.29,1.7,2.78L726,634.5l1.93,1.67,1.3,2.58,3.69,2.64a133.56,133.56,0,0,1-15.84,6Z" transform="translate(-61.89 -101.31)" style="fill:#ae5919"/><path d="M719.85,639.43c-5.53-.35-11.8.4-15.91-2.39l2.06-1.78,4.17-2.59,5.08-4.54,1.36-1.23h0l3.11-2.77.17.26-3,2.39.55-.29,2.59-1.69,1.08,6.56-.11-1.56-.37-4.29,1.7,2.78L726,634.5l1.93,1.67.47,1a48.9,48.9,0,0,1-7.23,1.56l-1.35.76Z" transform="translate(-61.89 -101.31)" style="fill:#ba6422"/><path d="M746,653.72,742.81,650,738,646l-2.36-2.66-3.21-3.08-3.46-3.71-2-2.91-3.48-3.52-1.31-1.35,0-.19,1.65-1.26.83.33-.7-.4.68-.51,3.93-2.49,8.59-5.25,2.21-2.7,3.59-2,5.91-3,2.52-3.39L754.5,606a40.7,40.7,0,0,1,3.86,11.48c1.41,4.93-.35,10.22,1.52,15-.87,4.54-4,8.35-5.81,12.55-1.3,4.15-5.37,6-8,8.62Z" transform="translate(-61.89 -101.31)" style="fill:#bb803e"/><path d="M747.13,655l-1-1.17-.23-.24c1.27-1.5,2.39-3.25,3.71-4.76,3-1,2.63-5.15,4.85-5.93.73-3.84,1.41-8,4.08-11,.32-2.54-2-5.64.52-7.79a1.09,1.09,0,0,0,.26.38,8,8,0,0,0-1.53-2.85c.4-3.79-1.18-7.35-2.11-11.13a7.69,7.69,0,0,0-.93-4.6l2.17-1.3c6,13,6.43,29.12-1.51,41.38-2.27,3.36-4.09,5.86-7,8.19a11.62,11.62,0,0,0-1.25.81Z" transform="translate(-61.89 -101.31)" style="fill:#1e0e05"/><path d="M736.26,644.16l-.67-.79-3.21-3.08-3.46-3.71-2-2.91-3.48-3.52-1.31-1.35,0-.19,1.65-1.26.83.33-.7-.4.68-.51,3.93-2.49,8.59-5.25,2.21-2.7,3.59-2,4.32-2.22c2.83,7.3,2.46,15.9-.27,23.25a40.94,40.94,0,0,1-10.65,8.75Z" transform="translate(-61.89 -101.31)" style="fill:#ae5919"/><path d="M732.14,640l-3.22-3.46-2-2.91-3.48-3.52-1.31-1.35,0-.19,1.65-1.26.83.33-.7-.4.68-.51,3.93-2.49,8.59-5.25,2.21-2.7.26-.15q1.31,2,2.7,4c1.94,5-.63,10-3.31,15.24a24.89,24.89,0,0,1-6.78,4.63Z" transform="translate(-61.89 -101.31)" style="fill:#ba6422"/><path d="M680.67,609.45c-2.49,4.14-2.31,9-3.45,13.56-2.17,4.45-.64,9.43.94,13.85,1.41,4.49,2.25,9.36,5.39,13.12.72.84,1.49,1.7,2.25,2.52l5.26-4.11,3.53-3.35,4.51-4,5.1-4.71,3.33-3.65,5-4.48,2.22-2,0-.1.14-.51,1-2.69-4.06-1.61L707.42,620l-7-3.14L695,615.28l-2.43-1.14L689,612.26l-8.29-2.81Z" transform="translate(-61.89 -101.31)" style="fill:#bb803e"/><path d="M679.38,609a37.81,37.81,0,0,0-3.33,10.83c-.23,4.37-.84,8.94.14,13.42a44.35,44.35,0,0,0,8.28,20.34l.16-.17,1.51-1.2a18.22,18.22,0,0,1-2-2.56c1.44-3.24-2.1-3.94-2.1-7.13A11.71,11.71,0,0,1,679.7,633c-1.57-1.74-2.4-5.91-.59-5.77.28-3.73-1.21-7.51.42-11.17.65-1.59,1.61-3.8,2.63-6.07l-2.63-.91-.14,0Z" transform="translate(-61.89 -101.31)" style="fill:#1e0e05"/><path d="M691.84,613.75a15.72,15.72,0,0,0-1.05,2.65c-1.54,6.79-4,13.71-1.07,20.39a19.93,19.93,0,0,0,4.83,8.31l0-.06,4.51-4,5.1-4.71,3.33-3.65,5-4.48,2.22-2,0-.1.14-.51,1-2.69-4.06-1.61L707.42,620l-7-3.14L695,615.28l-2.43-1.14-.75-.39Z" transform="translate(-61.89 -101.31)" style="fill:#ae5919"/><path d="M696.39,615.65a9.36,9.36,0,0,0-1.2,3.65c-2.25,3.43-1.94,7.61,0,11.71,0,0,0,0,0,0,.34,2.81,2.11,6.25,4.69,9.35l4.35-4,3.33-3.65,5-4.48,2.22-2,0-.1.09-.26,1.69-1.27v0l-.17-1.42-.16-.06-1,1.83.74-2-4.06-1.61L707.42,620l-7-3.14-4.07-1.18Z" transform="translate(-61.89 -101.31)" style="fill:#ba6422"/><path d="M724.9,624.8l0,0-.45-.31,1-.76-.37.16-.6.37-.18.1-.79-.52-.06-3.42-.11-9.91-.43-3.34,0-4,.09-6.51-.2-6.68-.44-8.18c4.28.34,8.67.13,12.73,1.64,4,1.12,7.29,3.48,10.88,5.64,2.68,3,5,6.26,7.93,9a63.19,63.19,0,0,1,3.78,7.76l-1.89.87-5.13,4-7.2,2.79-5.95,3.85-4.53,2.07-5.71,3.89-2.33,1.55Z" transform="translate(-61.89 -101.31)" style="fill:#bb803e"/><path d="M757.69,605.74c-.87-1.45-1.94-2.84-2.83-4.4,1.38-.14-1.37-2.85-1.82-2.83-2.51-3.39-3.68-7-7.72-8.43-2.6-2-3.34-4.59-6.91-4.4-3.19-2.71-7.11-2.5-10.49-2.43a22,22,0,0,0-5.53-.39l-.13-2.23v-.76c2.15-.33,4.41-.85,6.55,0a38.1,38.1,0,0,1,19.35,8.38c-.58,4.32,5.58,2.79,6.61,6.73,1.36,3.46,4.26,6,5.55,9.55l-2.63,1.25Z" transform="translate(-61.89 -101.31)" style="fill:#1e0e05"/><path d="M724.9,624.8l0,0-.45-.31,1-.76-.37.16-.6.37-.18.1-.79-.52-.06-3.42-.11-9.91-.43-3.34,0-4,.09-6.51-.1-2.41a18.15,18.15,0,0,1,4.9.9c6.42-1.59,10,3,15.35,5.76A23.42,23.42,0,0,1,749.78,611l-6.36,2.45-5.95,3.85-4.53,2.07-5.71,3.89-2.33,1.55Z" transform="translate(-61.89 -101.31)" style="fill:#ae5919"/><path d="M723.49,625.79l0-.52.72-.61.54.3-1.23.83Z" transform="translate(-61.89 -101.31)" style="fill:#ba6422"/><path d="M723.43,624.89v-.67l.49.31-.5.36Z" transform="translate(-61.89 -101.31)" style="fill:#ba6422"/><path d="M724.9,624.8l0,0-.45-.31,1-.76-.37.16-.6.37-.18.1-.79-.52-.06-3.42-.11-9.91-.43-3.34,0-4,0-2.57c9.82-2.38,14.08,5,18.68,14.07l-4.12,2.65-4.53,2.07-5.71,3.89-2.33,1.55Z" transform="translate(-61.89 -101.31)" style="fill:#ba6422"/><path d="M723,624.8l-3.49-1.94-3.93-2.35L707,617.19l-2.91-2.26-4.83-.6-4.62-3.41-6.49-2.85-2.39-.94a55,55,0,0,1,5.2-9c3.31-3.35,5.47-8.29,10.47-9.41,5.18-1.18,9.18-5.65,14.8-5.29.4,0,.8.05,1.2.07l.89,4.76.79,9.45.66,4.22,1,5.36.31,6.75.66,4.88Z" transform="translate(-61.89 -101.31)" style="fill:#bb803e"/><path d="M686.23,607.3l-2.23-.88a36.55,36.55,0,0,1,6-10.49c.66-.92,4.39-5.15,3-3.06,3.18-2.91,7.79-4.12,11.13-6.15,1.68-4,6.58-3.93,10.25-4.92a6.27,6.27,0,0,0,2.76.18l.5,2.8-2.3.28c-5.25-.53-8.77,2.56-13.23,4.58-5,3.55-9.68,7.8-12.64,13.26a23.92,23.92,0,0,0-3.29,4.4Z" transform="translate(-61.89 -101.31)" style="fill:#1e0e05"/><path d="M723,624.8l-3.49-1.94-3.93-2.35L707,617.19l-2.91-2.26-4.83-.6-3.11-2.28a26.27,26.27,0,0,1,8-9.25c4.65-3,9.41-6,14.78-6.77l.14,1.65.66,4.22,1,5.36.31,6.75.66,4.88L723,624.8Z" transform="translate(-61.89 -101.31)" style="fill:#ae5919"/><path d="M723,624.8l-3.49-1.94-3.93-2.35L707,617.19l-2.91-2.26-1.52-.22c3-7,9.08-13.34,17.09-11.93l.14,0,.14-.07.85,4.57.31,6.75.66,4.88L723,624.8Z" transform="translate(-61.89 -101.31)" style="fill:#ba6422"/><path d="M657.44,622a3.86,3.86,0,0,0-2.88-.3,32.17,32.17,0,0,0-7.63-2.05,38.45,38.45,0,0,0-14.55-2.19v-.8l0-.24-.06-.82v-1.13A52.9,52.9,0,0,0,620.51,619a36.54,36.54,0,0,0-5.2,3.3s0,0,0,0l-.15.08c-6.61,3.74-11.87,9.44-15.77,17-.59,1.15-1.12,2.29-1.6,3.44l-.95-.33a38.09,38.09,0,0,0-2,6.27c-.12,3.37-1.56,7-.56,10.25a3.72,3.72,0,0,1,.38.51c0,.7,0,1.38.11,2.08-.35.87-.92,1.72-.33,3a11.32,11.32,0,0,0,.17,1.95c.74,4.39,4,7.87,4.55,12.33a59.91,59.91,0,0,0,7.91,9.75,45.72,45.72,0,0,0,9.56,6.6l1.12-2,.51.26-.57,2a35.36,35.36,0,0,0,10.17,3.13,26.75,26.75,0,0,0,13.06-.33,39,39,0,0,0,15.58-5.53l-1.3-1.63-.06-.08.83-.59,1.09,1.62,1.08,1.63a29.5,29.5,0,0,0,5.83-4c2.28-3.53,6.37-4.76,8.24-8.71A52.74,52.74,0,0,0,678.79,668a37.52,37.52,0,0,0,1.16-19.1c-.05-.51-.1-1-.18-1.53l-.68-.13-2.7.9-3.21,1.07a.14.14,0,0,1,0-.06l3.62-2.29,2.9-1.82c-.53-1.42-1.15-2.82-1.8-4.17a38,38,0,0,0-13-14.56c-3,.55-4.9-3-7.49-4.32Z" transform="translate(-61.89 -101.31)" style="fill:#50260e"/><path d="M669.15,675.06Q677,659.75,672,644.58A37.24,37.24,0,0,0,653,622.28q-15.39-7.87-30.58-3t-23.05,20.18q-7.78,15.19-3,30.35t19.93,22.9q15.12,7.75,30,2.76t22.79-20.4Z" transform="translate(-61.89 -101.31)" style="fill:#1e0e05"/><path d="M595.36,665.85c.53,2.25,2.53,3.78,3.14,6,1.29,5.06,4.7,8.84,7.25,13.18s6.71,6.81,11.41,8.26c.14.1.29.17.43.26l1.14-1.94.88-5.17,1.72-4.27,2.72-7.44,1.34-4.72,3-6.13,1.81-3.76-4.9,1.14,1.44-.55,3.36-1.15-3.61-2.08-3-1.42-6.57-3-1.82-1.74-2.7-1-4.58-3.4L604,645.29l-5.24-2a13,13,0,0,1-.86,1.89c-3.2,2.36.64,7.62-2.35,10.74,1.56,2.76.24,6.65-.19,10Z" transform="translate(-61.89 -101.31)" style="fill:#bb803e"/><path d="M594.6,666.66c.74,4.39,4,7.86,4.54,12.32a60.2,60.2,0,0,0,7.92,9.78,45.63,45.63,0,0,0,9.56,6.58l1.75-3.07c-2.19-1.28-4.52-.54-6.54-2.27-1.37-2.2-4.66-4-5.34-5.38.48-3.34-4.34-4.86-4.52-7,.31-2.75-3.49-5.33-3-7.31.29-1.94-2.61-2.21-2.43-4.8-.65-2.82,2.44-4.9.47-7.65-1.61-1.67-.44-2.37.51-2.7-1-2.75,2.37-5.49-.37-7.78-.21-2.58,2.7-.36,3-3.53v-.05l-2.33-.87-1-.35a37.31,37.31,0,0,0-2,6.29c-.13,3.37-1.57,6.94-.57,10.22,2,2.33-.93,3.21.17,5.65a10.22,10.22,0,0,0,.17,1.94Z" transform="translate(-61.89 -101.31)" style="fill:#1e0e05"/><path d="M609.73,665.09c.53,1.29,2.69-.14,2.67,1.39,1.21,5.91,4.47,11.28,9.59,13.85l2.06-5.58,1.34-4.72,3-6.13,1.81-3.76-4.9,1.14,1.44-.55,3.36-1.15-3.61-2.08-3-1.42-6.57-3-1.82-1.74-2.7-1-.72-.54A131.89,131.89,0,0,0,609.73,665.09Z" transform="translate(-61.89 -101.31)" style="fill:#ae5919"/><path d="M616.37,662.91c3.2,2.28,3.4,7.15,6.69,9.62.44.33.87.66,1.33,1l1-3.46,3-6.13,1.81-3.76-4.9,1.14,1.44-.55,3.36-1.15-3.61-2.08-3-1.42-6.05-2.75c-.47,3.26-.62,6.57-1,9.58Z" transform="translate(-61.89 -101.31)" style="fill:#c06926;opacity:0.694323122501373;isolation:isolate"/><path d="M602.69,644.63l2.45.76,6.09.88,3.32,1.3,4.05,1.93,4.67,2,3.43.91,4.49,2,2.85,1.27-.57-.29,1.46.52,1.37.55-.21-5.58-.56-4.64-1.37-10,.69-3.44-.76-4-1.37-6.52-.38-5.92a38.05,38.05,0,0,0-5.18,1.56c-5,1.3-8.61,5.51-13.72,6.34-3.46,3.07-5.16,7.69-7.85,11.4C603.29,638.27,603.11,641.56,602.69,644.63Z" transform="translate(-61.89 -101.31)" style="fill:#bb803e"/><path d="M600.76,644.08l2.9.85c-.19-2.51,1-4.1,2.36-7.25.79-3.41,3.76-5.8,5.55-8.87.94-2.36,1.29-4.55,4.06-3.63,2.56-1.57,7-3.09,8-4.68-2.22-.42,3.12,0,3.31-1.43a43.86,43.86,0,0,1,5.48-1.17l-.16-2.32v-1.11A53.11,53.11,0,0,0,620.5,619a40.14,40.14,0,0,0-19.74,25.1Z" transform="translate(-61.89 -101.31)" style="fill:#1e0e05"/><path d="M616.31,648.38l2.29,1.12,4.67,2,3.43.91,4.49,2,2.85,1.27-.57-.29,1.46.52,1.37.55-.21-5.58-.56-4.64-1.37-10,.69-3.44-.76-4-.45-2.16a32.85,32.85,0,0,0-14.78,9.62,38.16,38.16,0,0,0-2.55,12.06Z" transform="translate(-61.89 -101.31)" style="fill:#ae5919"/><path d="M622.5,651.14l.77.32,3.43.91,4.49,2,2.85,1.27-.57-.29,1.46.52,1.37.55-.21-5.58-.56-4.64-1.37-10,.48-2.24a20.4,20.4,0,0,0-8.31,4.84c-3,3.38-3.8,7.77-3.83,12.28Z" transform="translate(-61.89 -101.31)" style="fill:#c06926;opacity:0.694323122501373;isolation:isolate"/><path d="M657,692.26c4.1-1.87,6.83-5.55,10.34-8.33,4.45-2.19,6.28-7.07,7.72-11.53,1.63-4.41,3.94-8.78,3.76-13.66a73.56,73.56,0,0,0-1.32-11l-8.06,2.63-4.71,1.9L660,653.46l-6.49,2.36L649,658l-6.09,2.41-5.42,1.43.71,1.22.12.17.61,1,2.72,3.74,4.4,7.94,2.52,3.31,2.62,3.1,2.79,5.48Z" transform="translate(-61.89 -101.31)" style="fill:#bb803e"/><path d="M658.12,693.88a30,30,0,0,0,5.83-4c2.28-3.53,6.37-4.77,8.24-8.71A52.74,52.74,0,0,0,678.78,668a37.42,37.42,0,0,0,1.15-19.1c0-.52-.09-1-.17-1.53l-.68-.14-2.7.91c.14.72.28,1.42.45,2.14.09,4.25,2.16,9.43,0,12.78,1.72,3.39-4.08,5.69-2.68,10-1.14,2.11-3.3,3.85-3.37,6.79-1.69,2.68-4.6,2.42-6.86,5.59-2.5,2.06-4.4,5.5-7.68,5.64l1.88,2.77Z" transform="translate(-61.89 -101.31)" style="fill:#1e0e05"/><path d="M649.57,680.4a3.53,3.53,0,0,0,.32-.21c5.27-4,11.25-7.48,13.24-14.08a20.2,20.2,0,0,0,.78-13.59l-3.89.94-6.49,2.36L649,658l-6.09,2.41-5.42,1.43.71,1.22.12.17.61,1,2.72,3.74,4.4,7.94,2.52,3.31Z" transform="translate(-61.89 -101.31)" style="fill:#ae5919"/><path d="M645.34,674.62A20.88,20.88,0,0,0,657.15,661a17.41,17.41,0,0,0-.08-6.48l-3.54,1.27L649,658l-6.09,2.41-5.42,1.43.71,1.22.12.17.61,1,2.72,3.74Z" transform="translate(-61.89 -101.31)" style="fill:#c06926;opacity:0.694323122501373;isolation:isolate"/><path d="M636,661.26l1.77-3.73-.08.35-.24.73-1.1,2.92,2.07-.75,4.2-1.71,9.21-3.76,3.29-.7h3.58l5.12-2.91,8.5-2,5.56-3.57a29.14,29.14,0,0,0-3.57-8.18c-2.1-3.57-5.22-6.22-8.21-9.14-3.57-1.84-7.38-3.29-10.75-5.4a54.68,54.68,0,0,0-15.61-2.11l-1.34,3.41.17,5.43,1.38,5.47-2.45,7.54,1.13,4.42-1.3,6.78L636,661.26Z" transform="translate(-61.89 -101.31)" style="fill:#bb803e"/><path d="M639.23,622.7a6.7,6.7,0,0,0,1.73-.54c3.62.63,7.63.55,11.27,2,2.61.61,4.9.12,6.66,2.59,2.1,1.68,4.65,2.58,6.43,1.91-1.42,3.78,4.46,2.94,4.88,5.55-.4,1.69,2.94,4.63,3.33,4.55,2.09,2.55,2.1,5.43,3.23,8.15l2.92-1.84c-.54-1.41-1.14-2.78-1.79-4.13a38.2,38.2,0,0,0-13-14.57c-4,.74-6-5.79-10.36-4.65a34,34,0,0,0-14-2.39l-1.35,3.41Z" transform="translate(-61.89 -101.31)" style="fill:#50260e"/><path d="M636,661.26l1.77-3.73-.08.35-.24.73-1.1,2.92,2.07-.75,4.2-1.71,9.21-3.76,3.29-.7h3.58l5.12-2.91.87-.22a16.88,16.88,0,0,0-1.29-2.59c.2-6.26-4.72-8.71-8.37-13.07A23.07,23.07,0,0,0,639,631.59l1,4-2.45,7.54,1.13,4.42-1.3,6.78L636,661.26Z" transform="translate(-61.89 -101.31)" style="fill:#ae5919"/><path d="M636,661.26l1.77-3.73-.08.35-.24.73-1.1,2.92,2.07-.75,4.2-1.71,9.21-3.76,3.29-.7h3.34a21.27,21.27,0,0,0-3.28-8.14c-3.47-5.74-10-8.05-16.3-7.53l-1.38,4.23,1.13,4.42-1.3,6.78L636,661.26Z" transform="translate(-61.89 -101.31)" style="fill:#c06926;opacity:0.694323122501373;isolation:isolate"/><path d="M632,653.59l-1.32,4L629.46,662l-2.53,9.6-1.46,3.07-.93,3.87L622.68,684l-3.41,6.2-.95,3.25c1.26.62,2.54,1.17,3.84,1.68,4.61,1,9.1,4,13.91,2.23,5-1.8,10.79-.22,15.31-3.56a39.08,39.08,0,0,1,3.8-2.52l-1.7-2.1-4.73-6.43-1.85-4.73-4.39-5.34L641,667.36l-4.4-4.92-3.09-5.94L632,653.59Z" transform="translate(-61.89 -101.31)" style="fill:#bb803e"/><path d="M618.65,692.28l-1,3.36a35.36,35.36,0,0,0,10.17,3.17,26.75,26.75,0,0,0,13-.34,39.18,39.18,0,0,0,15.59-5.57l-2-2.47c-3.56,1.07-5.28,5-9.37,4.45-3-.13-5.29.91-9,1-3.44,2.93-7-1-10.88-.86,1.9.18,4.73,1.12,1.2.34a27.1,27.1,0,0,1-7.77-3.07Z" transform="translate(-61.89 -101.31)" style="fill:#1e0e05"/><path d="M632,653.59l-1.32,4L629.46,662l-2.53,9.6-1.46,3.07-.93,3.87-.59,1.67a25.15,25.15,0,0,0,6.41,1.45c5.89.32,11.87.51,17-2.32l-.48-1.29-4.39-5.34L641,667.36l-4.4-4.92-3.09-5.94L632,653.59Z" transform="translate(-61.89 -101.31)" style="fill:#ae5919"/><path d="M632,653.59l-1.32,4L629.46,662l-2.53,9.6-.84,1.8a22.69,22.69,0,0,0,17.14.18l-.72-.87L641,667.36l-4.4-4.92-3.09-5.94L632,653.59Z" transform="translate(-61.89 -101.31)" style="fill:#c06926;opacity:0.694323122501373;isolation:isolate"/><path d="M708.87,530.39c-10.75-4.5-24.4-2.59-32.18,6.45-13,11.86-11.5,35.41,3.73,44.57,8.21,5.86,19.78,7.12,28.43,2.53,17.22-6.87,23.71-32.59,10.14-46.07a35.79,35.79,0,0,0-10.12-7.48Zm-7.18,7c-2.37,4.45-1.68,12.46-6.18,14.51-5.89-.61-14.54.59-18.61-.89a15.82,15.82,0,0,1,6.85-10.23c1.73-2.69,5.22-2.83,7.41-4.8a29.49,29.49,0,0,1,10.76.47l-.23.94Zm10.87,5c5.27,5.34,9,13.37,5,20.72-.65,2.23-2.18,8-4.51,3.34s-12.68-8.6-6.58-14.11c1.93-3.12,3.85-7.81,6-9.95Zm-15.84,20c1.2,5.17,7.4,11.66,5.95,16.13-5.29,1.59-10.7.47-15.73-1.91-3.5-.7-5.17-5.14-8.08-6.59.82-3.47,8.59-3.56,11.79-5.75C692.45,564,695.29,561.68,696.72,562.29Z" transform="translate(-61.89 -101.31)" style="fill:#1e0e05"/><path d="M709.35,533.14c-1.39-.64-3-.21-4.43-.8-3.18-1.37-6.55-1.11-9.85-1.52s-6.3.77-9,2.65c-3.28,1-5.2,3.87-7.8,5.92-2.94,1.45-4.16,4.69-5.11,7.64s-2.62,5.82-2.49,9.06a50.49,50.49,0,0,0,.73,6.37l5.59-1.4,3.48-.58,3.43.06,7.3-2.18,2.57-1.23,5.25-.73,1.36-2.65.85-1.93,3.15-7,.37-1.69,3.5-7.09,1.24-2.72-.18-.19Zm.8.86-1.06,2.21-3.21,6-2,5.13-1.43,2.87-2.94,6.15,1.3-.19-1.38.35-1,1.57-.38.54.2-.81.59-1.15-5.3,1.38-3.09,1.63-1.51.18-2.69.91-8.25,2.3-3.12.66-3.23.5c.17.71.37,1.4.59,2.1,1.36,2.81,1.65,6.37,4.55,8.15S681.43,580,685,581c3.37.86,6.47,2.75,10,3,2.72.39,5.38-.14,8.13-.49,2.43-1.09,4.75-2.47,7.23-3.35.38-.28.73-.56,1.1-.85l-.2-.35-1.69-3.26-2-4.34-3.12-5.15-1-1.17L700,558.42c3.14,5,2.53,4.1,3.49,5.53l.5,1,1.44,1.59,1.1,1.58,3.77,5.88,1.73,2.9.72,1.29a29.72,29.72,0,0,0,7.67-9.34c1.84-2.85,1.74-6.55,3.86-9.24.31-3-.93-6.07-1.28-9.09,0-3.17-2.72-5.23-3.75-7.7,0-2.64-4.27-2.75-4.7-5.59-1.73-.24-3.07-1.82-4.37-3.26Z" transform="translate(-61.89 -101.31)" style="fill:#bb803e"/><path d="M704,541c-.88-.24-1,1.47-1.8.84-4-2-8.65-2.29-12.25,0-3.49,2.63-7.45,5-8.77,9.33a13.4,13.4,0,0,0-.45,9.29l3.26,0,7.3-2.18,2.57-1.23,5.25-.73,1.36-2.65.85-1.93,3.15-7,.37-1.69.46-1L704,541Zm1.77,1.64-1.8,4.69-1.43,2.87-2.94,6.15,1.3-.19-1.38.35-1,1.57-.38.54.2-.81.59-1.15-5.3,1.38-3.09,1.63-1.51.18-2.69.91-5.08,1.42a16.88,16.88,0,0,0,1.47,2.87c2.82,4,5.77,8,11.11,8.72,3.17,2.69,6.46,1.15,10.23,1a14.14,14.14,0,0,0,4.27-1.91l-.73-1.61-3.12-5.15-1-1.17L700,558.42c3.14,5,2.53,4.1,3.49,5.53l.5,1,1.44,1.59,1.1,1.58,2.64,4.14c4.8-3.66,7.19-10.06,7.08-16.09-2-5.39-6.22-9.61-10.5-13.56Z" transform="translate(-61.89 -101.31)" style="fill:#ae5919"/><path d="M702.42,545.35c-2.48.76-5.13-1.1-7.75-.37a13.78,13.78,0,0,0-9.58,9.59,11.68,11.68,0,0,0,.38,5.52l5.77-1.73,2.57-1.23,5.25-.73,1.36-2.65.85-1.93,2.38-5.27-1.23-1.2Zm1.66,1.59-.16.38-1.43,2.87-2.94,6.15,1.3-.19-1.38.35-1,1.57-.38.54.2-.81.59-1.15-5.3,1.38-3.09,1.63-1.51.18-2.69.91-.58.16a15.36,15.36,0,0,0,12.72,9.59,10.28,10.28,0,0,0,7.42-2l-1.41-2.34-1-1.17L700,558.42c3.14,5,2.53,4.1,3.49,5.53l.5,1,1.44,1.59,1.06,1.52a13.81,13.81,0,0,0,5-9.79c-.06-4.76-4-8.18-7.36-11.36Z" transform="translate(-61.89 -101.31)" style="fill:#c06926;opacity:0.694323122501373;isolation:isolate"/><path d="M647,537.15c-3.94-2.09-8.68-1.61-12.54-3.92a60.1,60.1,0,0,0-12.58.32,45,45,0,0,0-11,3.55l.81,1.85.71,1.74a31.75,31.75,0,0,0-2.67,1.78L608,540.41l-2.14-2.58a29.44,29.44,0,0,0-5.38,4.58c-1.92,3.74-5.86,5.39-7.32,9.5a53.17,53.17,0,0,0-5.24,13.76,37.4,37.4,0,0,0,.82,19.1c.1.5.17,1,.3,1.49l.7.09,1.47-.69.89-.39.22-.1,2.83-1.27c0,.05,0,.09,0,.13l-1.43.71-3.11,1.6a35.14,35.14,0,0,0,4.69,9.58,26.71,26.71,0,0,0,9.15,9.27,39.28,39.28,0,0,0,14.76,7.5l.29-2,.21-1.65c.61.22,1.2.43,1.81.61l.18,4.14,0,2.1c1.5.26,3,.46,4.49.59a38,38,0,0,0,19.14-3.65c1.43-3.84,8.08-2.15,9.35-6.5a33.56,33.56,0,0,0,9.17-10.73l-1-1.3,1.68,1.61.76.81A53,53,0,0,0,671,585.41a40.17,40.17,0,0,0-2.43-31.84l-2.71,1.32-.77.36c-.23-.45-.49-.91-.75-1.35l.47-.29a38,38,0,0,0-3.79-5.4c-2.59-2.15-4.55-5.48-7.76-6.69a2.84,2.84,0,0,1-1.27-.22l-.57-.35c-.9-.82-.92-2.31-2.75-2.74a10.4,10.4,0,0,0-1.64-1.06Z" transform="translate(-61.89 -101.31)" style="fill:#50260e"/><path d="M598.37,556.45q7.47-14.57,22-19.11a35.42,35.42,0,0,1,27.74,2.24q14.64,7.5,19.33,21.94t-2.78,29Q657.22,605,642.85,609.7T614.09,607q-14.39-7.37-18.81-21.64t3.09-28.94Z" transform="translate(-61.89 -101.31)" style="fill:#1e0e05"/><path d="M647,538.62c-2.11-1-4.53-.31-6.69-1.19-4.8-2.07-9.87-1.68-14.87-2.3s-9.49,1.16-13.5,4l-.47.19.85,2.08,3.57,3.85,2.34,4,4.24,6.7,2.94,4,3.06,6.09,1.87,3.72,2.08-4.57-.44,1.48-1.13,3.35,3.85-1.59,3-1.51,6.37-3.39,2.49-.38,2.47-1.5,5.49-1.55,3.58-2,4.79-2.91a14.17,14.17,0,0,1-1-1.84c.09-4-6.43-4.14-7.08-8.42-3.14-.44-5.42-3.86-7.79-6.22Z" transform="translate(-61.89 -101.31)" style="fill:#bb803e"/><path d="M646.82,537.51c-3.94-2.09-8.68-1.61-12.54-3.92a60.1,60.1,0,0,0-12.58.32,44.82,44.82,0,0,0-11,3.55l1.36,3.25c2.35-1,3.19-3.25,5.79-3.79,2.57.26,6-1.23,7.51-.94,2.36,2.41,6.5-.47,8.33.7,2,1.92,6.35.49,7.61,2.09,1.36,1.42,3.35-.72,5.29,1,2.63,1.2,2.4,4.92,5.79,5,2.3-.26,2.15,1.1,1.82,2,2.8.89,2.92,5.23,6.41,4.45,2.17,1.41-1.37,2.37,1,4.5l0,0,2.11-1.32.87-.56a37.93,37.93,0,0,0-3.78-5.4c-2.6-2.15-4.55-5.48-7.77-6.69-3.07.17-2-2.7-4.59-3.31a10.4,10.4,0,0,0-1.64-1.06Z" transform="translate(-61.89 -101.31)" style="fill:#1e0e05"/><path d="M638.85,550.46c-1.33-.36-1.51,2.22-2.72,1.27-5.43-2.65-11.67-3.34-16.83-.86l3.17,5,2.94,4,3.06,6.09,1.87,3.72,2.08-4.57-.44,1.48-1.13,3.35,3.85-1.59,3-1.51,6.37-3.39,2.49-.38,2.47-1.5.87-.24a132.72,132.72,0,0,0-11-10.86Z" transform="translate(-61.89 -101.31)" style="fill:#ae5919"/><path d="M636.54,557.05c-3.75,1.14-7.73-1.67-11.7-.57-.53.14-1.05.28-1.57.47l2.14,2.91,3.06,6.09,1.87,3.72,2.08-4.57-.44,1.48-1.13,3.35,3.85-1.59,3-1.51,5.86-3.12c-2.3-2.37-4.83-4.5-7-6.66Z" transform="translate(-61.89 -101.31)" style="fill:#c06926;opacity:0.694323122501373;isolation:isolate"/><path d="M666.58,554.84l-2.33,1.1-5.07,3.47-3.32,1.28-4.3,1.31-4.77,1.71-3.13,1.64L639,566.89l-3,1,.61-.16-1.42.6-1.39.52,3.93,4,3.56,3,7.74,6.42,1.82,3,3.24,2.4,5.41,3.89,4.29,4.12a36.85,36.85,0,0,0,2.76-4.66c2.77-4.31,2.62-9.88,5.81-13.94.48-4.6-1.4-9.16-1.93-13.71C670.43,560,668.33,557.39,666.58,554.84Z" transform="translate(-61.89 -101.31)" style="fill:#bb803e"/><path d="M668.37,554l-2.71,1.33c1.83,1.73,2,3.71,3.16,6.94,1.72,3,1.16,6.82,1.92,10.3.9,2.37,2.12,4.22-.54,5.41-.82,2.89-3.06,7-2.73,8.87,1.9-1.19-2.34,2.08-1.48,3.29a42.71,42.71,0,0,1-3.24,4.57l1.68,1.6.76.82a53,53,0,0,0,5.61-11.28A40.19,40.19,0,0,0,668.37,554Z" transform="translate(-61.89 -101.31)" style="fill:#1e0e05"/><path d="M654,561.28l-2.45.72-4.77,1.71-3.13,1.64L639,566.89l-3,1,.61-.16-1.42.6-1.39.52,3.93,4,3.56,3,7.74,6.42,1.82,3,3.24,2.4,1.79,1.29a32.84,32.84,0,0,0,4.38-17.07A38.42,38.42,0,0,0,654,561.28Z" transform="translate(-61.89 -101.31)" style="fill:#ae5919"/><path d="M647.58,563.42l-.79.29-3.13,1.64L639,566.89l-3,1,.61-.16-1.42.6-1.39.52,3.93,4,3.56,3,7.74,6.42,1.17,2a20.42,20.42,0,0,0,2.84-9.19C653,570.53,650.61,566.77,647.58,563.42Z" transform="translate(-61.89 -101.31)" style="fill:#c06926;opacity:0.694323122501373;isolation:isolate"/><path d="M606.92,539.72c-3.89,2.27-6.24,6.21-9.45,9.33-4.2,2.63-5.52,7.67-6.51,12.25-1.17,4.56-3,9.14-2.35,14A74,74,0,0,0,591,586l7.75-3.43,4.49-2.37,4.6-1.61,6.21-3L618.4,573l5.81-3,5.25-2-.83-1.14-.14-.15-.71-.94-3.08-3.44-5.18-7.47-2.84-3-2.92-2.82-3.33-5.16Z" transform="translate(-61.89 -101.31)" style="fill:#bb803e"/><path d="M605.67,538.22a29.34,29.34,0,0,0-5.39,4.55c-1.91,3.74-5.86,5.38-7.32,9.5A53.07,53.07,0,0,0,587.73,566a37.59,37.59,0,0,0,.79,19.12c.1.5.19,1,.33,1.5l.68.06,2.6-1.17c-.21-.7-.42-1.38-.66-2.09-.53-4.21-3.11-9.16-1.3-12.71-2-3.2,3.48-6.07,1.65-10.23.93-2.21,2.9-4.17,2.67-7.1,1.41-2.84,4.33-2.87,6.26-6.25,2.28-2.3,3.83-5.91,7.07-6.38l-2.15-2.57Z" transform="translate(-61.89 -101.31)" style="fill:#1e0e05"/><path d="M615.54,550.76l-.3.24c-4.84,4.48-10.43,8.59-11.74,15.35a20.24,20.24,0,0,0,.59,13.6l3.78-1.32,6.21-3L618.4,573l5.81-3,5.25-2-.83-1.14-.14-.15-.71-.94-3.08-3.44-5.18-7.47-2.84-3Z" transform="translate(-61.89 -101.31)" style="fill:#ae5919"/><path d="M620.33,556.09A20.87,20.87,0,0,0,610,570.8a17.41,17.41,0,0,0,.75,6.45l3.38-1.63L618.4,573l5.81-3,5.25-2-.83-1.14-.14-.15-.71-.94-3.08-3.44-4.37-6.29Z" transform="translate(-61.89 -101.31)" style="fill:#c06926;opacity:0.694323122501373;isolation:isolate"/><path d="M630,570.47l2.3,3.43-.26-.25-.5-.58-1.95-2.45-.41,2.17-.69,4.48L627,587.1l-1.08,3.18-1.84,3.07-.13,5.88-2.65,8.31.22,6.61a29.55,29.55,0,0,0,8.86,1.14c4.14,0,8-1.28,12.05-2.35,3.41-2.12,6.61-4.64,10.14-6.45a54.09,54.09,0,0,0,9.81-12.29l-2.24-2.91-4.75-2.64L650,587l-5.23-6-4.37-1.3-5.16-4.6L630,570.47Z" transform="translate(-61.89 -101.31)" style="fill:#bb803e"/><path d="M661.49,593a6.84,6.84,0,0,0-.42,1.76c-2.39,2.78-4.38,6.26-7.45,8.66-1.87,1.93-2.61,4.15-5.64,4.38-2.51.94-4.59,2.66-4.93,4.53-2.52-3.16-4.81,2.32-7.26,1.34-1.26-1.22-5.49.14-5.62.52-3.26.47-5.74-1-8.66-1.42l.09,3.45c1.49.26,3,.45,4.47.58a38.15,38.15,0,0,0,19.16-3.64c1.43-3.84,8-2.15,9.3-6.5a33.83,33.83,0,0,0,9.2-10.75Z" transform="translate(-61.89 -101.31)" style="fill:#1e0e05"/><path d="M630,570.47l2.3,3.43-.26-.25-.5-.58-1.95-2.45-.41,2.17-.69,4.48L627,587.1l-1.08,3.18-1.84,3.07-.13,5.88-.26.87a19.24,19.24,0,0,0,2.89.22c5.28,3.39,9.9.43,15.52-.47A22.93,22.93,0,0,0,654,588.24L650,587l-5.23-6-4.37-1.3-5.16-4.6L630,570.47Z" transform="translate(-61.89 -101.31)" style="fill:#ae5919"/><path d="M630,570.47l2.3,3.43-.26-.25-.5-.58-1.95-2.45-.41,2.17-.69,4.48L627,587.1l-1.08,3.18-1.72,2.86a21.33,21.33,0,0,0,8.67,1.37c6.71,0,12-4.41,14.82-10.11L644.76,581l-4.37-1.3-5.16-4.6L630,570.47Z" transform="translate(-61.89 -101.31)" style="fill:#c06926;opacity:0.694323122501373;isolation:isolate"/><path d="M631,568.39l-3.85,1.8-4,2.09L614.34,577l-3.24,1-3.46,2-5.28,2.4-6.86,1.76-3,1.53c.41,1.34.89,2.65,1.41,3.95,2.42,4,3.32,9.36,7.91,11.65,4.74,2.41,7.55,7.71,13.09,8.71a42.65,42.65,0,0,1,4.44,1l.37-2.66,1.45-7.85,2.18-4.58.89-6.85,2.86-4.77.57-6.56,2.21-6.31,1.1-3.08Z" transform="translate(-61.89 -101.31)" style="fill:#bb803e"/><path d="M593.57,585.12l-3.1,1.6a35.27,35.27,0,0,0,4.65,9.57,26.79,26.79,0,0,0,9.19,9.26,39.24,39.24,0,0,0,14.75,7.54l.41-3.15c-3.22-1.87-7.27-.43-9.67-3.79-2-2.3-4.29-3.22-6.88-5.87-4.49-.5-4.06-5.76-6.83-8.51,1.17,1.51,2.42,4.21.58,1.11a27.06,27.06,0,0,1-3.1-7.76Z" transform="translate(-61.89 -101.31)" style="fill:#50260e"/><path d="M631,568.39l-3.85,1.8-4,2.09L614.34,577l-3.24,1-3.46,2-1.63.72a25.9,25.9,0,0,0,3.33,5.65c3.82,4.51,7.78,9,13.37,10.81l.61-1.23.89-6.85,2.86-4.77.57-6.56,2.21-6.31,1.1-3.08Z" transform="translate(-61.89 -101.31)" style="fill:#ae5919"/><path d="M631,568.39l-3.85,1.8-4,2.09L614.34,577l-1.89.61a22.66,22.66,0,0,0,11.61,12.61l.15-1.12,2.86-4.77.57-6.56,2.21-6.31,1.1-3.08Z" transform="translate(-61.89 -101.31)" style="fill:#c06926;opacity:0.694323122501373;isolation:isolate"/><polygon points="489.13 638.47 489.13 654.26 475.34 721.78 439.59 752.27 341.55 752.27 326.74 736.48 326.74 691.29 333.89 631.39 376.27 600.89 403.85 600.89 431.93 586.19 461.04 601.44 474.83 630.84 489.13 638.47" style="fill:#191201"/><path d="M546.93,755.56V742.5l-13.27-7.08L519.87,706l-7.15-3.81L474.42,736c-8.17,5.45-16.85,9.26-26.55,9.8a10.67,10.67,0,0,1-4.09-.54l-3.06,4.9-1.54,2.18,56.69,61,46.47-35.39Z" transform="translate(-61.89 -101.31)" style="stroke:#c0c906;stroke-miterlimit:10;fill:url(#l)"/><polygon points="478.91 683.12 436.53 715.25 450.32 737.57 471.25 719.6 478.91 683.12" style="stroke:#c0c906;stroke-miterlimit:10;fill:url(#m)"/><polygon points="446.74 740.29 432.95 717.42 354.31 747.92 438.06 747.92 446.74 740.29" style="stroke:#c0c906;stroke-miterlimit:10;fill:url(#n)"/><polygon points="343.08 747.37 379.85 733.22 344.61 695.64 338.99 743.56 343.08 747.37" style="stroke:#c0c906;stroke-miterlimit:10;fill:url(#o)"/><polygon points="330.82 734.3 335.42 739.75 341.04 690.2 371.17 652.08 337.46 635.75 330.82 691.29 330.82 734.3" style="stroke:#c0c906;stroke-miterlimit:10;fill:url(#p)"/><polygon points="429.89 714.16 374.74 654.26 346.14 690.74 384.44 731.58 429.89 714.16" style="stroke:#c0c906;stroke-miterlimit:10;fill:url(#q)"/><polygon points="340.02 631.93 373.72 648.27 375.76 646.09 404.36 605.25 377.8 605.25 340.02 631.93" style="stroke:#c0c906;stroke-miterlimit:10;fill:url(#r)"/><path d="M493.82,691.86l-19.4,10.34-27.58,39.21c9.2-.55,17.37-3.81,25-8.72L508.63,700Z" transform="translate(-61.89 -101.31)" style="stroke:#c0c906;stroke-miterlimit:10;fill:url(#s)"/><path d="M893.45,702.69" transform="translate(-61.89 -101.31)" style="fill:#fff"/><path d="M819.45,853" transform="translate(-61.89 -101.31)" style="fill:#fff"/></svg>