<?xml version="1.0" encoding="UTF-8" standalone="no"?>
<!-- Generator: Adobe Illustrator 22.0.1, SVG Export Plug-In . SVG Version: 6.00 Build 0)  -->

<svg
   xmlns:dc="http://purl.org/dc/elements/1.1/"
   xmlns:cc="http://creativecommons.org/ns#"
   xmlns:rdf="http://www.w3.org/1999/02/22-rdf-syntax-ns#"
   xmlns:svg="http://www.w3.org/2000/svg"
   xmlns="http://www.w3.org/2000/svg"
   xmlns:sodipodi="http://sodipodi.sourceforge.net/DTD/sodipodi-0.dtd"
   xmlns:inkscape="http://www.inkscape.org/namespaces/inkscape"
   version="1.1"
   id="Camada_1"
   x="0px"
   y="0px"
   viewBox="0 0 220.8 192.8"
   xml:space="preserve"
   sodipodi:docname="logo.21.4.color.mobile.svg"
   width="220.8"
   height="192.8"
   inkscape:version="0.92.4 (5da689c313, 2019-01-14)"><metadata
   id="metadata5886"><rdf:RDF><cc:Work
       rdf:about=""><dc:format>image/svg+xml</dc:format><dc:type
         rdf:resource="http://purl.org/dc/dcmitype/StillImage" /><dc:title></dc:title></cc:Work></rdf:RDF></metadata><defs
   id="defs5884">
	
	
	
	
	
	
</defs><sodipodi:namedview
   pagecolor="#ffffff"
   bordercolor="#666666"
   borderopacity="1"
   objecttolerance="10"
   gridtolerance="10"
   guidetolerance="10"
   inkscape:pageopacity="0"
   inkscape:pageshadow="2"
   inkscape:window-width="1920"
   inkscape:window-height="1001"
   id="namedview5882"
   showgrid="false"
   fit-margin-top="10"
   fit-margin-left="10"
   fit-margin-right="10"
   fit-margin-bottom="10"
   inkscape:zoom="0.7936772"
   inkscape:cx="305.9"
   inkscape:cy="96.45"
   inkscape:window-x="-9"
   inkscape:window-y="-9"
   inkscape:window-maximized="1"
   inkscape:current-layer="Camada_1" />
<style
   type="text/css"
   id="style5791">
	.st0{fill:#196433;}
	.st1{fill:#7CBA43;}
	.st2{fill:#CDDC94;}
</style>
<path
   style="fill:#cddc94"
   inkscape:connector-curvature="0"
   id="path5863"
   d="M 92.7,108.1 C 101,106.4 109.5,105 118,104 81.8,101.2 44.9,105.1 10.1,115.2 v 22.7 C 36,124.1 63.8,114.1 92.7,108.1 Z"
   class="st2" /><g
   id="g5869"
   transform="translate(5.4,5.6)">
		<path
   style="fill:#7cba43"
   inkscape:connector-curvature="0"
   id="path5865"
   d="m 141.8,103.8 c -17.8,0.5 -35.6,2.6 -53.1,6.2 -24.6,5.1 -48.3,13.2 -70.8,24.1 -4.5,2.3 -9,4.8 -13.3,7.5 v 35.6 H 31 c 32.7,-37 70.8,-62.4 110.8,-73.4 z"
   class="st1" />
		<path
   style="fill:#7cba43"
   inkscape:connector-curvature="0"
   id="path5867"
   d="m 82,141.2 c 22.4,-13.3 43.3,-22.8 57.7,-28.8 -19.9,6.1 -39.3,15.8 -57.7,28.8 z"
   class="st1" />
	</g><path
   style="fill:#196433"
   inkscape:connector-curvature="0"
   id="path5871"
   d="m 173.1,112 c -45,5.7 -89.3,30.7 -126.5,70.8 h 74.3 c 14.1,-29 31.7,-53 52.2,-70.8 z"
   class="st0" /><g
   id="g5877"
   transform="translate(5.4,5.6)">
		<path
   style="fill:#196433"
   inkscape:connector-curvature="0"
   id="path5873"
   d="m 134.2,143.7 c -0.3,0.4 -0.4,0.9 -0.3,1.4 1.1,-1.7 2.3,-3.4 3.5,-5 -0.4,0.2 -0.7,0.4 -1,0.6 z"
   class="st0" />
		<path
   style="fill:#196433"
   inkscape:connector-curvature="0"
   id="path5875"
   d="M 186.5,32.6 H 181 110.6 c -0.6,0 -1.1,-0.2 -1.4,-0.6 L 92.7,14 85.6,6.2 c -1,-1.1 -2.5,-1.8 -4,-1.8 H 49.3 c -6.7,0 -12.5,3.9 -15.2,9.6 -1.1,2.2 -1.7,4.7 -1.7,7.3 v 73.9 c 2.3,-0.4 4.7,-0.8 7,-1.2 V 21.2 c 0,-2.6 1,-5 2.7,-6.8 0.4,-0.4 0.9,-0.6 1.4,-0.6 h 38.7 c 0.6,0 1.1,0.2 1.4,0.6 L 105,37.8 c 1,1.1 2.5,1.8 4,1.8 h 72 5.6 c 6.5,0 11.8,5.3 11.8,11.8 V 128 c 0,6.5 -5.3,11.8 -11.8,11.8 H 181 147 c -1.7,2.3 -3.4,4.6 -5.1,7 h 39.1 5.6 c 10.4,0 18.8,-8.4 18.8,-18.8 V 51.4 C 205.4,41 197,32.6 186.5,32.6 Z"
   class="st0" />
	</g>
</svg>