<?xml version="1.0" encoding="UTF-8" standalone="no"?>
<!-- Generator: Adobe Illustrator 22.0.1, SVG Export Plug-In . SVG Version: 6.00 Build 0)  -->

<svg
   xmlns:dc="http://purl.org/dc/elements/1.1/"
   xmlns:cc="http://creativecommons.org/ns#"
   xmlns:rdf="http://www.w3.org/1999/02/22-rdf-syntax-ns#"
   xmlns:svg="http://www.w3.org/2000/svg"
   xmlns="http://www.w3.org/2000/svg"
   xmlns:sodipodi="http://sodipodi.sourceforge.net/DTD/sodipodi-0.dtd"
   xmlns:inkscape="http://www.inkscape.org/namespaces/inkscape"
   version="1.1"
   id="Camada_1"
   x="0px"
   y="0px"
   viewBox="0 0 388.9 327.3"
   style="enable-background:new 0 0 388.9 327.3;"
   xml:space="preserve"
   sodipodi:docname="logo21white.svg"
   inkscape:version="0.92.4 (5da689c313, 2019-01-14)"><metadata
   id="metadata1112"><rdf:RDF><cc:Work
       rdf:about=""><dc:format>image/svg+xml</dc:format><dc:type
         rdf:resource="http://purl.org/dc/dcmitype/StillImage" /><dc:title></dc:title></cc:Work></rdf:RDF></metadata><defs
   id="defs1110">
	

		
		
		
	
			
			
			
			
		</defs><sodipodi:namedview
   pagecolor="#ffffff"
   bordercolor="#666666"
   borderopacity="1"
   objecttolerance="10"
   gridtolerance="10"
   guidetolerance="10"
   inkscape:pageopacity="0"
   inkscape:pageshadow="2"
   inkscape:window-width="1920"
   inkscape:window-height="1001"
   id="namedview1108"
   showgrid="false"
   inkscape:zoom="0.87281134"
   inkscape:cx="194.45"
   inkscape:cy="163.64999"
   inkscape:window-x="-9"
   inkscape:window-y="-9"
   inkscape:window-maximized="1"
   inkscape:current-layer="Camada_1" />
<style
   type="text/css"
   id="style1013">
	.st0{fill:#196433;}
	.st1{fill:#7CBA43;}
	.st2{fill:#CDDC94;}
</style>
<g
   id="g1019"
   style="fill:#ffffff">
			<path
   class="st0"
   d="m 313.6,263.8 c -0.9,-0.3 -1.7,-0.8 -2.2,-1.4 -0.8,-1.1 -1.3,-3 -1.3,-5.8 V 241 c 0,-11.4 -3.6,-20 -10.8,-25.8 -7.2,-5.7 -17.5,-8.6 -30.8,-8.6 -13,0 -24.7,2.9 -35,8.7 -1.5,0.8 -2.1,2.6 -1.4,4.1 l 5.9,12.2 c 0.8,1.7 3,2.3 4.7,1.4 3.3,-1.9 6.5,-3.5 9.6,-4.6 4,-1.5 8.4,-2.2 13.2,-2.2 5.1,0 8.8,0.9 11,2.8 2.3,1.8 3.4,4.7 3.4,8.4 v 2.5 c -4.4,-2 -10.1,-3.1 -16.8,-3.1 -5.3,0 -10.1,0.7 -14.5,2 -4.4,1.3 -8.2,3.2 -11.4,5.7 -3.2,2.5 -5.7,5.4 -7.5,8.7 -1.7,3.2 -2.6,6.8 -2.7,10.7 -0.1,0 -0.2,-0.1 -0.2,-0.1 -0.9,-0.3 -1.7,-0.8 -2.2,-1.4 -0.8,-1.1 -1.3,-3 -1.3,-5.8 V 241 c 0,-11.4 -3.6,-20 -10.8,-25.8 -7.2,-5.7 -17.5,-8.6 -30.8,-8.6 -13,0 -24.7,2.9 -35,8.7 -1.5,0.8 -2.1,2.6 -1.4,4.1 l 5.9,12.2 c 0.8,1.7 3,2.3 4.7,1.4 3.3,-1.9 6.5,-3.5 9.6,-4.6 4,-1.5 8.4,-2.2 13.2,-2.2 5.1,0 8.8,0.9 11,2.8 2.3,1.8 3.4,4.7 3.4,8.4 v 2.5 c -4.4,-2 -10.1,-3.1 -16.8,-3.1 -5.3,0 -10.1,0.7 -14.5,2 -4.4,1.3 -8.2,3.2 -11.4,5.7 -3.2,2.5 -5.7,5.4 -7.5,8.7 -1.8,3.4 -2.7,7.1 -2.7,11.2 0,0.5 0,0.9 0,1.3 -0.8,-0.7 -2,-0.9 -3.1,-0.6 -0.2,0.1 -0.4,0.1 -0.6,0.2 -1.5,0.4 -2.9,0.6 -4.1,0.6 -5.2,0 -7.8,-3.1 -7.8,-9.2 V 182 c 0,-1.8 -1.5,-3.2 -3.3,-3.2 H 98.1 c -1.8,0 -3.3,1.4 -3.3,3.2 v 60.8 c -0.4,-3.9 -1.3,-7.7 -2.6,-11.2 -2,-5.1 -4.6,-9.5 -8,-13.2 -3.4,-3.7 -7.5,-6.6 -12.2,-8.7 -4.8,-2.1 -9.9,-3.1 -15.4,-3.1 -6.4,0 -11.7,1.2 -16,3.5 -1.9,1 -3.7,2.3 -5.4,3.7 -2.2,1.9 -5.6,0.5 -5.6,-2.3 v -0.3 c 0,-1.8 -1.5,-3.2 -3.3,-3.2 H 6.6 c -1.8,0 -3.3,1.4 -3.3,3.2 v 107 c 0,1.8 1.5,3.2 3.3,3.2 h 23.6 c 1.8,0 3.3,-1.4 3.3,-3.2 V 286 c 0,-2.7 3.3,-4.2 5.5,-2.4 1.5,1.3 3.1,2.3 4.9,3.3 4.4,2.3 9.7,3.5 15.7,3.5 5.1,0 9.8,-1.1 14.1,-3.1 4.3,-2.1 8.1,-5 11.3,-8.8 3.2,-3.8 5.7,-8.3 7.5,-13.4 1.2,-3.5 2,-7.2 2.4,-11.1 v 13 c 0,7.6 2.2,13.3 6.5,17.3 4.3,4 10.5,6 18.6,6 4,0 8.3,-0.5 12.8,-1.4 3.5,-0.7 6.7,-1.6 9.7,-2.8 1.4,-0.6 2.3,-2 2,-3.5 l -1.3,-7.4 c 1.5,2.9 3.4,5.5 5.8,7.6 2.6,2.3 5.7,4.1 9.3,5.4 3.6,1.3 7.5,2 11.6,2 5.5,0 10.7,-1.2 15.6,-3.6 4.9,-2.4 9.2,-5.9 12.9,-10.5 l 0.6,2.9 c 0.8,3.7 2.7,6.5 5.5,8.4 2.8,1.9 6.9,2.8 12.3,2.8 1.7,0 3.6,-0.1 5.8,-0.4 1.3,-0.2 2.7,-0.4 4.2,-0.6 1.6,-0.3 2.7,-1.6 2.7,-3.1 v -11.8 c 0,0.1 0.1,0.2 0.1,0.3 1.5,3.2 3.5,5.9 6.1,8.2 2.6,2.3 5.7,4.1 9.3,5.4 3.6,1.3 7.5,2 11.6,2 5.5,0 10.7,-1.2 15.6,-3.6 4.9,-2.4 9.2,-5.9 12.9,-10.5 l 0.6,2.9 c 0.8,3.7 2.7,6.5 5.5,8.4 2.8,1.9 6.9,2.8 12.3,2.8 1.7,0 3.6,-0.1 5.8,-0.4 1.3,-0.2 2.7,-0.4 4.2,-0.6 1.6,-0.3 2.7,-1.6 2.7,-3.1 v -19.4 c -0.3,-1.3 -1.2,-2.5 -2.6,-2.9 z M 63.1,254.9 c -0.8,2.1 -1.9,4 -3.2,5.7 -1.3,1.6 -2.9,2.9 -4.8,3.8 -1.9,0.9 -3.9,1.4 -6.1,1.4 -3.2,0 -6.2,-1.2 -9,-3.5 -2.7,-2.2 -4.8,-5 -6.2,-8.3 -0.2,-0.4 -0.3,-0.8 -0.3,-1.3 v -12.3 c 0,-0.7 0.2,-1.3 0.6,-1.9 3.8,-5 8.4,-7.4 13.7,-7.4 5,0 9,1.5 12,4.6 3,3.1 4.5,7.2 4.5,12.3 0,2.4 -0.4,4.7 -1.2,6.9 z m 130.3,5.8 c 0,1 -0.4,2 -1.1,3 -0.7,1 -1.7,1.9 -2.9,2.7 -1.5,0.9 -3.2,1.7 -5.1,2.2 -1.9,0.6 -3.8,0.8 -5.6,0.8 -2.9,0 -5.2,-0.7 -7.1,-2.1 -1.9,-1.4 -2.8,-3.3 -2.8,-5.5 0,-2.7 1.2,-4.9 3.7,-6.6 2.4,-1.7 5.5,-2.6 9.2,-2.6 1.7,0 3.6,0.2 5.7,0.6 1.2,0.2 2.4,0.5 3.5,0.8 1.4,0.4 2.4,1.6 2.4,3.1 v 3.6 z m 86.6,0 c 0,1 -0.4,2 -1.1,3 -0.7,1 -1.7,1.9 -2.9,2.7 -1.5,0.9 -3.2,1.7 -5.1,2.2 -1.9,0.6 -3.8,0.8 -5.6,0.8 -2.9,0 -5.2,-0.7 -7.1,-2.1 -1.9,-1.4 -2.8,-3.3 -2.8,-5.5 0,-2.7 1.2,-4.9 3.7,-6.6 2.4,-1.7 5.5,-2.6 9.2,-2.6 1.7,0 3.6,0.2 5.7,0.6 1.2,0.2 2.4,0.5 3.5,0.8 1.4,0.4 2.4,1.6 2.4,3.1 v 3.6 z"
   id="path1015"
   inkscape:connector-curvature="0"
   style="fill:#ffffff" />
			<path
   class="st0"
   d="m 384,254.8 c -1.1,-2.5 -2.8,-4.8 -5.3,-6.7 -2.5,-2 -5.8,-3.8 -9.9,-5.5 -4.1,-1.7 -9.2,-3.3 -15.2,-4.8 -5,-1.2 -8.3,-2.3 -10,-3.3 -1.7,-1 -2.5,-2.2 -2.5,-3.8 0,-1.4 0.6,-2.5 1.7,-3.1 1.2,-0.7 2.6,-1 4.4,-1 3.1,0 6.4,0.7 9.8,2.1 2.9,1.1 6.3,2.9 10.2,5.3 1.5,0.9 3.6,0.5 4.5,-1 l 8.1,-12.4 c 0.9,-1.4 0.6,-3.2 -0.8,-4.2 -4.8,-3.7 -9.6,-6.2 -14.4,-7.5 -5.6,-1.5 -11.4,-2.3 -17.5,-2.3 -5,0 -9.6,0.7 -13.7,2.1 -4.2,1.4 -7.8,3.3 -10.8,5.9 -3,2.6 -5.4,5.6 -7.1,9 -1.7,3.5 -2.5,7.3 -2.5,11.3 0,3.1 0.5,5.7 1.6,8 1.1,2.2 2.8,4.3 5.3,6.1 2.5,1.8 5.7,3.6 9.7,5.1 4,1.6 8.9,3.2 14.8,4.8 4.8,1.3 8,2.5 9.6,3.5 1.6,1 2.5,2.3 2.5,3.7 0,2.6 -2.1,3.8 -6.3,3.8 -4,0 -8.4,-0.9 -13.3,-2.8 -3.9,-1.5 -8,-3.5 -12.1,-6 -1.6,-1 -3.7,-0.4 -4.6,1.1 l -7.3,12.3 c -0.8,1.4 -0.5,3.1 0.8,4.1 4.4,3.5 9.7,6.3 15.7,8.2 7,2.3 14.1,3.5 21.4,3.5 5.4,0 10.2,-0.6 14.5,-1.8 4.3,-1.2 7.9,-3 11,-5.4 3,-2.4 5.3,-5.2 6.9,-8.4 1.6,-3.3 2.4,-7 2.4,-11.2 0,-3.3 -0.5,-6.2 -1.6,-8.7 z"
   id="path1017"
   inkscape:connector-curvature="0"
   style="fill:#ffffff" />
		</g><g
   id="g1083"
   style="fill:#ffffff">
			<path
   class="st1"
   d="m 47.7,316.9 c 0,-0.5 0.1,-1.1 0.3,-1.6 0.2,-0.5 0.5,-1 0.9,-1.4 0.4,-0.4 0.8,-0.8 1.4,-1 0.5,-0.3 1.2,-0.4 1.9,-0.4 0.8,0 1.5,0.2 2.1,0.5 0.6,0.4 1,0.8 1.3,1.4 l -1.3,0.9 c -0.1,-0.3 -0.3,-0.5 -0.4,-0.6 -0.1,-0.1 -0.3,-0.3 -0.5,-0.4 -0.2,-0.1 -0.4,-0.2 -0.6,-0.2 -0.2,0 -0.4,-0.1 -0.6,-0.1 -0.4,0 -0.8,0.1 -1.1,0.3 -0.3,0.2 -0.6,0.4 -0.8,0.7 -0.2,0.3 -0.4,0.6 -0.5,1 -0.1,0.4 -0.2,0.7 -0.2,1.1 0,0.4 0.1,0.8 0.2,1.1 0.1,0.4 0.3,0.7 0.5,1 0.2,0.3 0.5,0.5 0.8,0.7 0.3,0.2 0.7,0.3 1.1,0.3 0.2,0 0.4,0 0.6,-0.1 0.2,-0.1 0.4,-0.1 0.6,-0.2 0.2,-0.1 0.4,-0.2 0.5,-0.4 0.1,-0.2 0.3,-0.4 0.4,-0.6 l 1.4,0.8 c -0.1,0.3 -0.3,0.6 -0.6,0.9 -0.3,0.3 -0.6,0.5 -0.9,0.6 -0.3,0.2 -0.7,0.3 -1.1,0.4 -0.4,0.1 -0.7,0.1 -1.1,0.1 -0.6,0 -1.2,-0.1 -1.7,-0.4 -0.5,-0.3 -1,-0.6 -1.4,-1 -0.4,-0.4 -0.7,-0.9 -0.9,-1.5 -0.2,-0.8 -0.3,-1.4 -0.3,-1.9 z"
   id="path1021"
   inkscape:connector-curvature="0"
   style="fill:#ffffff" />
			<path
   class="st1"
   d="m 63,321.4 c -0.7,0 -1.2,-0.1 -1.8,-0.4 -0.5,-0.3 -1,-0.6 -1.4,-1 -0.4,-0.4 -0.7,-0.9 -0.9,-1.4 -0.2,-0.5 -0.3,-1.1 -0.3,-1.7 0,-0.6 0.1,-1.2 0.3,-1.7 0.2,-0.5 0.5,-1 0.9,-1.4 0.4,-0.4 0.8,-0.7 1.4,-1 0.5,-0.2 1.1,-0.4 1.7,-0.4 0.6,0 1.2,0.1 1.8,0.4 0.5,0.3 1,0.6 1.4,1 0.4,0.4 0.7,0.9 0.9,1.5 0.2,0.5 0.3,1.1 0.3,1.7 0,0.6 -0.1,1.2 -0.3,1.7 -0.2,0.5 -0.5,1 -0.9,1.4 -0.4,0.4 -0.8,0.7 -1.4,1 -0.5,0.2 -1.1,0.3 -1.7,0.3 z m -2.6,-4.5 c 0,0.4 0.1,0.8 0.2,1.1 0.1,0.4 0.3,0.7 0.5,1 0.2,0.3 0.5,0.5 0.8,0.7 0.3,0.2 0.7,0.3 1.1,0.3 0.4,0 0.8,-0.1 1.1,-0.3 0.3,-0.2 0.6,-0.4 0.8,-0.7 0.2,-0.3 0.4,-0.6 0.5,-1 0.1,-0.4 0.2,-0.7 0.2,-1.1 0,-0.4 -0.1,-0.8 -0.2,-1.1 -0.1,-0.4 -0.3,-0.7 -0.5,-1 -0.2,-0.3 -0.5,-0.5 -0.8,-0.7 -0.3,-0.2 -0.7,-0.2 -1.1,-0.2 -0.4,0 -0.8,0.1 -1.1,0.3 -0.3,0.2 -0.6,0.4 -0.8,0.7 -0.2,0.3 -0.4,0.6 -0.5,1 -0.1,0.3 -0.2,0.7 -0.2,1 z"
   id="path1023"
   inkscape:connector-curvature="0"
   style="fill:#ffffff" />
			<path
   class="st1"
   d="m 72.9,315.7 v 5.7 h -1.7 v -8.9 h 1.3 l 4.6,5.8 v -5.8 h 1.7 v 8.9 h -1.4 z"
   id="path1025"
   inkscape:connector-curvature="0"
   style="fill:#ffffff" />
			<path
   class="st1"
   d="m 83.3,321.4 v -8.9 h 6 V 314 H 85 v 2.3 h 3.5 v 1.4 H 85 v 3.7 z"
   id="path1027"
   inkscape:connector-curvature="0"
   style="fill:#ffffff" />
			<path
   class="st1"
   d="m 96.5,321.4 c -0.7,0 -1.2,-0.1 -1.8,-0.4 -0.5,-0.3 -1,-0.6 -1.4,-1 -0.4,-0.4 -0.7,-0.9 -0.9,-1.4 -0.2,-0.5 -0.3,-1.1 -0.3,-1.7 0,-0.6 0.1,-1.2 0.3,-1.7 0.2,-0.5 0.5,-1 0.9,-1.4 0.4,-0.4 0.8,-0.7 1.4,-1 0.5,-0.2 1.1,-0.4 1.7,-0.4 0.6,0 1.2,0.1 1.8,0.4 0.5,0.3 1,0.6 1.4,1 0.4,0.4 0.7,0.9 0.9,1.5 0.2,0.5 0.3,1.1 0.3,1.7 0,0.6 -0.1,1.2 -0.3,1.7 -0.2,0.5 -0.5,1 -0.9,1.4 -0.4,0.4 -0.8,0.7 -1.4,1 -0.4,0.2 -1,0.3 -1.7,0.3 z M 94,316.9 c 0,0.4 0.1,0.8 0.2,1.1 0.1,0.4 0.3,0.7 0.5,1 0.2,0.3 0.5,0.5 0.8,0.7 0.3,0.2 0.7,0.3 1.1,0.3 0.4,0 0.8,-0.1 1.1,-0.3 0.3,-0.2 0.6,-0.4 0.8,-0.7 0.2,-0.3 0.4,-0.6 0.5,-1 0.1,-0.4 0.2,-0.7 0.2,-1.1 0,-0.4 -0.1,-0.8 -0.2,-1.1 -0.1,-0.4 -0.3,-0.7 -0.5,-1 -0.2,-0.3 -0.5,-0.5 -0.8,-0.7 -0.3,-0.2 -0.7,-0.2 -1.1,-0.2 -0.4,0 -0.8,0.1 -1.1,0.3 -0.3,0.2 -0.6,0.4 -0.8,0.7 -0.2,0.3 -0.4,0.6 -0.5,1 -0.2,0.3 -0.2,0.7 -0.2,1 z"
   id="path1029"
   inkscape:connector-curvature="0"
   style="fill:#ffffff" />
			<path
   class="st1"
   d="m 104.7,321.4 v -8.9 h 3.9 c 0.4,0 0.8,0.1 1.1,0.3 0.3,0.2 0.6,0.4 0.9,0.7 0.3,0.3 0.4,0.6 0.6,1 0.1,0.4 0.2,0.7 0.2,1.1 0,0.6 -0.1,1.1 -0.4,1.6 -0.3,0.5 -0.7,0.8 -1.2,1 l 2,3.3 H 110 l -1.8,-3 h -1.7 v 3 h -1.8 z m 1.8,-4.5 h 2.2 c 0.2,0 0.3,0 0.4,-0.1 0.1,-0.1 0.3,-0.2 0.4,-0.3 0.1,-0.1 0.2,-0.3 0.2,-0.5 0.1,-0.2 0.1,-0.4 0.1,-0.6 0,-0.2 0,-0.4 -0.1,-0.6 -0.1,-0.2 -0.2,-0.3 -0.3,-0.5 -0.1,-0.1 -0.2,-0.2 -0.4,-0.3 -0.1,-0.1 -0.3,-0.1 -0.4,-0.1 h -2.1 z"
   id="path1031"
   inkscape:connector-curvature="0"
   style="fill:#ffffff" />
			<path
   class="st1"
   d="m 122.8,321.4 v -5.9 l -2.3,4.4 h -0.9 l -2.3,-4.4 v 5.9 h -1.7 v -8.9 h 1.9 l 2.6,5.1 2.7,-5.1 h 1.8 v 8.9 z"
   id="path1033"
   inkscape:connector-curvature="0"
   style="fill:#ffffff" />
			<path
   class="st1"
   d="m 128.9,321.4 v -8.9 h 1.7 v 8.9 z"
   id="path1035"
   inkscape:connector-curvature="0"
   style="fill:#ffffff" />
			<path
   class="st1"
   d="m 135,321.4 v -8.9 h 3.2 c 0.7,0 1.4,0.1 1.9,0.4 0.5,0.2 1,0.6 1.4,1 0.4,0.4 0.6,0.9 0.8,1.4 0.2,0.5 0.3,1.1 0.3,1.7 0,0.7 -0.1,1.3 -0.3,1.8 -0.2,0.5 -0.5,1 -0.9,1.4 -0.4,0.4 -0.8,0.7 -1.4,0.9 -0.5,0.2 -1.1,0.3 -1.8,0.3 z m 5.9,-4.5 c 0,-0.4 -0.1,-0.8 -0.2,-1.2 -0.1,-0.4 -0.3,-0.7 -0.5,-0.9 -0.2,-0.3 -0.5,-0.5 -0.8,-0.6 -0.3,-0.1 -0.7,-0.2 -1.1,-0.2 h -1.5 v 5.9 h 1.5 c 0.4,0 0.8,-0.1 1.1,-0.2 0.3,-0.2 0.6,-0.4 0.8,-0.6 0.2,-0.3 0.4,-0.6 0.5,-0.9 0.1,-0.5 0.2,-0.9 0.2,-1.3 z"
   id="path1037"
   inkscape:connector-curvature="0"
   style="fill:#ffffff" />
			<path
   class="st1"
   d="m 148.7,312.5 h 1.5 l 3.4,8.9 h -1.8 l -0.8,-2.2 h -3.1 l -0.8,2.2 h -1.8 z m 2,5.4 -1.2,-3.5 -1.3,3.5 z"
   id="path1039"
   inkscape:connector-curvature="0"
   style="fill:#ffffff" />
			<path
   class="st1"
   d="m 157.1,321.4 v -8.9 h 3.2 c 0.7,0 1.4,0.1 1.9,0.4 0.5,0.2 1,0.6 1.4,1 0.4,0.4 0.6,0.9 0.8,1.4 0.2,0.5 0.3,1.1 0.3,1.7 0,0.7 -0.1,1.3 -0.3,1.8 -0.2,0.5 -0.5,1 -0.9,1.4 -0.4,0.4 -0.8,0.7 -1.4,0.9 -0.5,0.2 -1.1,0.3 -1.8,0.3 z m 5.9,-4.5 c 0,-0.4 -0.1,-0.8 -0.2,-1.2 -0.1,-0.4 -0.3,-0.7 -0.5,-0.9 -0.2,-0.3 -0.5,-0.5 -0.8,-0.6 -0.3,-0.1 -0.7,-0.2 -1.1,-0.2 h -1.5 v 5.9 h 1.5 c 0.4,0 0.8,-0.1 1.1,-0.2 0.3,-0.2 0.6,-0.4 0.8,-0.6 0.2,-0.3 0.4,-0.6 0.5,-0.9 0.1,-0.5 0.2,-0.9 0.2,-1.3 z"
   id="path1041"
   inkscape:connector-curvature="0"
   style="fill:#ffffff" />
			<path
   class="st1"
   d="m 174.7,319.8 v 1.5 h -6.2 v -8.9 h 6.1 v 1.5 h -4.3 v 2.1 h 3.7 v 1.4 h -3.7 v 2.3 h 4.4 z"
   id="path1043"
   inkscape:connector-curvature="0"
   style="fill:#ffffff" />
			<path
   class="st1"
   d="m 186.3,312.5 h 1.5 l 3.4,8.9 h -1.8 l -0.8,-2.2 h -3.1 l -0.8,2.2 h -1.8 z m 1.9,5.4 -1.2,-3.5 -1.3,3.5 z"
   id="path1045"
   inkscape:connector-curvature="0"
   style="fill:#ffffff" />
			<path
   class="st1"
   d="m 201.9,321.4 v -5.9 l -2.3,4.4 h -0.9 l -2.3,-4.4 v 5.9 h -1.7 v -8.9 h 1.9 l 2.6,5.1 2.7,-5.1 h 1.8 v 8.9 z"
   id="path1047"
   inkscape:connector-curvature="0"
   style="fill:#ffffff" />
			<path
   class="st1"
   d="m 215.2,319.1 c 0,0.4 -0.1,0.7 -0.2,1 -0.2,0.3 -0.4,0.5 -0.6,0.7 -0.3,0.2 -0.6,0.3 -0.9,0.4 -0.3,0.1 -0.7,0.2 -1.1,0.2 H 208 v -8.9 h 4.8 c 0.3,0 0.6,0.1 0.8,0.2 0.3,0.1 0.5,0.3 0.6,0.5 0.2,0.2 0.3,0.5 0.4,0.7 0.1,0.3 0.1,0.5 0.1,0.8 0,0.4 -0.1,0.8 -0.3,1.2 -0.2,0.4 -0.5,0.7 -1,0.8 0.5,0.2 0.9,0.4 1.2,0.8 0.3,0.4 0.6,1 0.6,1.6 z m -5.5,-5.2 v 2.2 h 2.3 c 0.3,0 0.5,-0.1 0.7,-0.3 0.2,-0.2 0.3,-0.5 0.3,-0.8 0,-0.3 -0.1,-0.6 -0.3,-0.8 -0.2,-0.2 -0.4,-0.3 -0.7,-0.3 z m 3.7,4.8 c 0,-0.2 0,-0.3 -0.1,-0.5 -0.1,-0.1 -0.1,-0.3 -0.2,-0.4 -0.1,-0.1 -0.2,-0.2 -0.3,-0.3 -0.1,-0.1 -0.3,-0.1 -0.4,-0.1 h -2.7 v 2.3 h 2.6 c 0.2,0 0.3,0 0.4,-0.1 0.1,-0.1 0.3,-0.1 0.4,-0.2 0.1,-0.1 0.2,-0.2 0.2,-0.4 0.1,0.1 0.1,-0.1 0.1,-0.3 z"
   id="path1049"
   inkscape:connector-curvature="0"
   style="fill:#ffffff" />
			<path
   class="st1"
   d="m 219,321.4 v -8.9 h 1.7 v 8.9 z"
   id="path1051"
   inkscape:connector-curvature="0"
   style="fill:#ffffff" />
			<path
   class="st1"
   d="m 231.3,319.8 v 1.5 h -6.2 v -8.9 h 6.1 v 1.5 h -4.3 v 2.1 h 3.7 v 1.4 h -3.7 v 2.3 h 4.4 z"
   id="path1053"
   inkscape:connector-curvature="0"
   style="fill:#ffffff" />
			<path
   class="st1"
   d="m 236.9,315.7 v 5.7 h -1.7 v -8.9 h 1.3 l 4.6,5.8 v -5.8 h 1.7 v 8.9 h -1.4 z"
   id="path1055"
   inkscape:connector-curvature="0"
   style="fill:#ffffff" />
			<path
   class="st1"
   d="M 253.9,314 H 251 v 7.4 h -1.7 V 314 h -2.8 v -1.5 h 7.4 z"
   id="path1057"
   inkscape:connector-curvature="0"
   style="fill:#ffffff" />
			<path
   class="st1"
   d="m 259.1,312.5 h 1.5 l 3.4,8.9 h -1.8 l -0.8,-2.2 h -3.1 l -0.8,2.2 h -1.8 z m 2,5.4 -1.2,-3.5 -1.3,3.5 z"
   id="path1059"
   inkscape:connector-curvature="0"
   style="fill:#ffffff" />
			<path
   class="st1"
   d="m 267.5,321.4 v -8.9 h 1.7 v 7.4 h 4.5 v 1.5 z"
   id="path1061"
   inkscape:connector-curvature="0"
   style="fill:#ffffff" />
			<path
   class="st1"
   d="m 288.7,319.8 v 1.5 h -6.2 v -8.9 h 6.1 v 1.5 h -4.3 v 2.1 h 3.7 v 1.4 h -3.7 v 2.3 h 4.4 z"
   id="path1063"
   inkscape:connector-curvature="0"
   style="fill:#ffffff" />
			<path
   class="st1"
   d="m 298.1,321.4 v -8.9 h 6 v 1.5 h -4.2 v 2.3 h 3.5 v 1.4 h -3.5 v 3.7 z"
   id="path1065"
   inkscape:connector-curvature="0"
   style="fill:#ffffff" />
			<path
   class="st1"
   d="m 311.5,319.9 c 0.4,0 0.8,-0.1 1,-0.3 0.3,-0.2 0.5,-0.4 0.7,-0.7 0.2,-0.3 0.3,-0.6 0.4,-0.9 0.1,-0.3 0.1,-0.7 0.1,-1.1 v -4.5 h 1.7 v 4.5 c 0,0.6 -0.1,1.2 -0.2,1.7 -0.1,0.5 -0.4,1 -0.7,1.4 -0.3,0.4 -0.7,0.7 -1.2,1 -0.5,0.2 -1.1,0.4 -1.8,0.4 -0.7,0 -1.3,-0.1 -1.8,-0.4 -0.5,-0.2 -0.9,-0.6 -1.2,-1 -0.3,-0.4 -0.5,-0.9 -0.7,-1.4 -0.1,-0.5 -0.2,-1.1 -0.2,-1.7 v -4.5 h 1.7 v 4.5 c 0,0.4 0,0.7 0.1,1.1 0.1,0.3 0.2,0.7 0.4,0.9 0.2,0.3 0.4,0.5 0.7,0.6 0.3,0.3 0.6,0.4 1,0.4 z"
   id="path1067"
   inkscape:connector-curvature="0"
   style="fill:#ffffff" />
			<path
   class="st1"
   d="m 321.4,315.7 v 5.7 h -1.7 v -8.9 h 1.3 l 4.6,5.8 v -5.8 h 1.7 v 8.9 H 326 Z"
   id="path1069"
   inkscape:connector-curvature="0"
   style="fill:#ffffff" />
			<path
   class="st1"
   d="m 331.7,321.4 v -8.9 h 3.2 c 0.7,0 1.4,0.1 1.9,0.4 0.5,0.2 1,0.6 1.4,1 0.4,0.4 0.6,0.9 0.8,1.4 0.2,0.5 0.3,1.1 0.3,1.7 0,0.7 -0.1,1.3 -0.3,1.8 -0.2,0.5 -0.5,1 -0.9,1.4 -0.4,0.4 -0.8,0.7 -1.4,0.9 -0.5,0.2 -1.1,0.3 -1.8,0.3 z m 5.9,-4.5 c 0,-0.4 -0.1,-0.8 -0.2,-1.2 -0.1,-0.4 -0.3,-0.7 -0.5,-0.9 -0.2,-0.3 -0.5,-0.5 -0.8,-0.6 -0.3,-0.1 -0.7,-0.2 -1.1,-0.2 h -1.5 v 5.9 h 1.5 c 0.4,0 0.8,-0.1 1.1,-0.2 0.3,-0.2 0.6,-0.4 0.8,-0.6 0.2,-0.3 0.4,-0.6 0.5,-0.9 0.2,-0.5 0.2,-0.9 0.2,-1.3 z"
   id="path1071"
   inkscape:connector-curvature="0"
   style="fill:#ffffff" />
			<path
   class="st1"
   d="m 343.2,321.4 v -8.9 h 1.7 v 8.9 z"
   id="path1073"
   inkscape:connector-curvature="0"
   style="fill:#ffffff" />
			<path
   class="st1"
   d="m 351.8,312.5 h 1.5 l 3.4,8.9 H 355 l -0.8,-2.2 H 351 l -0.8,2.2 h -1.8 z m 2,5.4 -1.2,-3.5 -1.3,3.5 z m -0.8,-6.2 -1.1,-0.3 0.7,-1.5 h 1.6 z"
   id="path1075"
   inkscape:connector-curvature="0"
   style="fill:#ffffff" />
			<path
   class="st1"
   d="m 360.2,321.4 v -8.9 h 3.9 c 0.4,0 0.8,0.1 1.1,0.3 0.3,0.2 0.6,0.4 0.9,0.7 0.3,0.3 0.4,0.6 0.6,1 0.1,0.4 0.2,0.7 0.2,1.1 0,0.6 -0.1,1.1 -0.4,1.6 -0.3,0.5 -0.7,0.8 -1.2,1 l 2,3.3 h -1.9 l -1.8,-3 H 362 v 3 h -1.8 z m 1.8,-4.5 h 2.2 c 0.2,0 0.3,0 0.4,-0.1 0.1,-0.1 0.3,-0.2 0.4,-0.3 0.1,-0.1 0.2,-0.3 0.2,-0.5 0.1,-0.2 0.1,-0.4 0.1,-0.6 0,-0.2 0,-0.4 -0.1,-0.6 -0.1,-0.2 -0.2,-0.3 -0.3,-0.5 -0.1,-0.1 -0.2,-0.2 -0.4,-0.3 -0.1,-0.1 -0.3,-0.1 -0.4,-0.1 H 362 Z"
   id="path1077"
   inkscape:connector-curvature="0"
   style="fill:#ffffff" />
			<path
   class="st1"
   d="m 371.1,321.4 v -8.9 h 1.7 v 8.9 z"
   id="path1079"
   inkscape:connector-curvature="0"
   style="fill:#ffffff" />
			<path
   class="st1"
   d="m 379.7,312.5 h 1.5 l 3.4,8.9 h -1.8 l -0.8,-2.2 h -3.1 l -0.8,2.2 h -1.8 z m 2,5.4 -1.2,-3.5 -1.3,3.5 z"
   id="path1081"
   inkscape:connector-curvature="0"
   style="fill:#ffffff" />
		</g><path
   style="fill:#ffffff"
   inkscape:connector-curvature="0"
   id="path1085"
   d="m 232.4,104 c 8.3,-1.7 16.8,-3.1 25.3,-4.1 -36.2,-2.8 -73.1,1.1 -107.9,11.2 v 22.7 C 175.8,120 203.5,110 232.4,104 Z"
   class="st2" /><g
   id="g1091"
   style="fill:#ffffff">
				<path
   style="fill:#ffffff"
   inkscape:connector-curvature="0"
   id="path1087"
   d="m 287,105.3 c -17.8,0.5 -35.6,2.6 -53.1,6.2 -24.6,5.1 -48.3,13.2 -70.8,24.1 -4.5,2.3 -9,4.8 -13.3,7.5 v 35.6 h 26.4 c 32.7,-37 70.7,-62.4 110.8,-73.4 z"
   class="st1" />
				<path
   style="fill:#ffffff"
   inkscape:connector-curvature="0"
   id="path1089"
   d="m 227.1,142.7 c 22.4,-13.3 43.3,-22.8 57.7,-28.8 -19.8,6.1 -39.2,15.8 -57.7,28.8 z"
   class="st1" />
			</g><path
   style="fill:#ffffff"
   inkscape:connector-curvature="0"
   id="path1093"
   d="m 312.8,107.9 c -45,5.7 -89.3,30.7 -126.5,70.8 h 74.3 c 14.1,-29 31.7,-53.1 52.2,-70.8 z"
   class="st0" /><g
   id="g1099"
   style="fill:#ffffff">
				<path
   style="fill:#ffffff"
   inkscape:connector-curvature="0"
   id="path1095"
   d="m 279.4,145.2 c -0.3,0.4 -0.4,0.9 -0.3,1.4 1.1,-1.7 2.3,-3.4 3.5,-5 -0.4,0.2 -0.7,0.4 -1,0.6 z"
   class="st0" />
				<path
   style="fill:#ffffff"
   inkscape:connector-curvature="0"
   id="path1097"
   d="m 331.7,34 h -5.6 -70.4 c -0.6,0 -1.1,-0.2 -1.4,-0.6 l -16.5,-18 -7.1,-7.8 c -1,-1.1 -2.5,-1.8 -4,-1.8 h -32.2 c -6.7,0 -12.5,3.9 -15.2,9.6 -1.1,2.2 -1.7,4.7 -1.7,7.3 v 73.9 c 2.3,-0.4 4.7,-0.8 7,-1.2 V 22.7 c 0,-2.6 1,-5 2.7,-6.8 0.4,-0.4 0.9,-0.6 1.4,-0.6 h 38.7 c 0.6,0 1.1,0.2 1.4,0.6 l 21.3,23.3 c 1,1.1 2.5,1.8 4,1.8 h 71.9 5.6 c 6.5,0 11.8,5.3 11.8,11.8 v 76.6 c 0,6.5 -5.3,11.8 -11.8,11.8 H 326 292 c -1.7,2.3 -3.4,4.6 -5.1,7 h 39.1 5.6 c 10.4,0 18.8,-8.4 18.8,-18.8 V 52.9 C 350.5,42.5 342.1,34 331.7,34 Z"
   class="st0" />
			</g>
</svg>