<?xml version="1.0" encoding="UTF-8" standalone="no"?>
<!-- Creator: CorelDRAW X8 -->

<svg
   xmlns:dc="http://purl.org/dc/elements/1.1/"
   xmlns:cc="http://creativecommons.org/ns#"
   xmlns:rdf="http://www.w3.org/1999/02/22-rdf-syntax-ns#"
   xmlns:svg="http://www.w3.org/2000/svg"
   xmlns="http://www.w3.org/2000/svg"
   xmlns:sodipodi="http://sodipodi.sourceforge.net/DTD/sodipodi-0.dtd"
   xmlns:inkscape="http://www.inkscape.org/namespaces/inkscape"
   xml:space="preserve"
   width="185.47301mm"
   height="68.331276mm"
   version="1.1"
   style="clip-rule:evenodd;fill-rule:evenodd;image-rendering:optimizeQuality;shape-rendering:geometricPrecision;text-rendering:geometricPrecision"
   viewBox="0 0 19118.605 7043.1786"
   id="svg166"
   sodipodi:docname="logo.21.4.white.svg"
   inkscape:version="0.92.4 (5da689c313, 2019-01-14)"><metadata
   id="metadata170"><rdf:RDF><cc:Work
       rdf:about=""><dc:format>image/svg+xml</dc:format><dc:type
         rdf:resource="http://purl.org/dc/dcmitype/StillImage" /><dc:title></dc:title></cc:Work></rdf:RDF></metadata><sodipodi:namedview
   pagecolor="#ffffff"
   bordercolor="#666666"
   borderopacity="1"
   objecttolerance="10"
   gridtolerance="10"
   guidetolerance="10"
   inkscape:pageopacity="0"
   inkscape:pageshadow="2"
   inkscape:window-width="1920"
   inkscape:window-height="1001"
   id="namedview168"
   showgrid="false"
   fit-margin-top="10"
   fit-margin-left="10"
   fit-margin-right="10"
   fit-margin-bottom="10"
   inkscape:zoom="0.76269992"
   inkscape:cx="350.50017"
   inkscape:cy="129.12997"
   inkscape:window-x="-9"
   inkscape:window-y="-9"
   inkscape:window-maximized="1"
   inkscape:current-layer="svg166" />
 <defs
   id="defs148"><style
     type="text/css"
     id="style146">
   <![CDATA[
    @font-face { font-family:"Raleway";font-variant:normal;font-weight:bold;src:url("#FontID0") format(svg)}
    .fil0 {fill:#FEFEFE}
    .fil1 {fill:#FEFEFE;fill-rule:nonzero}
    .fnt0 {font-weight:bold;font-size:872.738px;font-family:'Raleway'}
   ]]>
  </style></defs>
 <polygon
   style="fill:#fefefe"
   id="polygon151"
   points="2323,2842 1888,2946 1409,3088 906,3270 588,3403 285,3543 0,3688 0,3034 284,2956 702,2860 1109,2788 1586,2727 1943,2699 2322,2686 2646,2687 3078,2708 2679,2773 "
   class="fil0"
   transform="translate(1030.8026,1030.6516)" /><path
   style="fill:#fefefe"
   inkscape:connector-curvature="0"
   id="path153"
   d="m 1030.8026,4986.6516 v 1026 h 762 l 241,-263 227,-228 339,-309 331,-269 425,-300 422,-253 352,-178 393,-164 463,-151 c -1522,88 -2610,349 -3955,1089 z"
   class="fil0" /><path
   style="fill:#fefefe"
   inkscape:connector-curvature="0"
   id="path155"
   d="m 2083.8026,6012.6516 c 1044,-1078 2145,-1814 3647,-2040 -688,629 -1083,1215 -1505,2040 z"
   class="fil0" /><path
   style="fill:#fefefe;fill-rule:nonzero"
   inkscape:connector-curvature="0"
   id="path157"
   d="m 15043.803,3396.6516 c 0,29 -11,58 -32,86 -21,28 -49,54 -82,77 -43,27 -92,48 -147,64 -55,17 -108,25 -160,25 -82,0 -150,-21 -204,-62 -53,-41 -80,-94 -80,-159 0,-77 35,-140 106,-190 70,-51 158,-76 265,-76 49,0 104,6 165,18 35,7 69,15 101,23 40,12 68,48 68,89 z m -2498,0 c 0,29 -11,58 -32,86 -22,28 -49,54 -83,77 -42,27 -91,48 -146,64 -55,17 -109,25 -160,25 -83,0 -151,-21 -204,-62 -53,-41 -80,-94 -80,-159 0,-77 35,-140 105,-190 70,-51 159,-76 266,-76 48,0 103,6 164,18 35,7 69,15 101,23 41,12 69,48 69,89 z m -3757.0004,-168 c -23,62 -53,116 -91,163 -38,47 -84,84 -137,111 -54,26 -113,40 -177,40 -91,0 -178,-34 -261,-102 -77,-64 -137,-143 -180,-239 -5,-11 -7,-24 -7,-37 v -353 c 0,-19 6,-39 18,-54 109,-143 240,-214 394,-214 143,0 258,44 345,132 87,89 131,207 131,354 0,71 -12,137 -35,199 z m 7223.0004,256 c -27,-10 -47,-24 -62,-42 -24,-31 -36,-86 -36,-166 v -451 c 0,-330 -104,-577 -311,-742 -208,-165 -504,-248 -888,-248 -375,0 -711,84 -1010,252 -43,24 -60,76 -39,119 l 170,352 c 24,50 87,68 136,40 95,-56 187,-100 276,-133 116,-43 242,-64 380,-64 146,0 252,27 318,80 65,53 98,134 98,243 v 71 c -128,-59 -290,-89 -485,-89 -153,0 -292,19 -419,58 -126,38 -235,92 -327,163 -92,71 -163,155 -215,252 -50,93 -75,196 -77,308 -3,-1 -5,-2 -7,-3 -27,-10 -48,-24 -62,-42 -25,-31 -37,-86 -37,-166 v -451 c 0,-330 -103,-577 -311,-742 -207,-165 -503,-248 -888,-248 -374,0 -711,84 -1010,252 -42,24 -60,76 -39,119 l 170,352 c 24,50 88,68 136,40 96,-56 188,-100 276,-133 116,-43 243,-64 380,-64 147,0 253,27 318,80 66,53 99,134 99,243 v 71 c -128,-59 -290,-89 -485,-89 -153,0 -293,19 -419,58 -127,38 -236,92 -327,163 -92,71 -164,155 -216,252 -52,97 -77,205 -77,323 0,13 0,26 1,39 -24,-20 -57,-28 -90,-18 -5,2 -11,4 -17,5 -43,12 -82,18 -119,18 -149,0 -224,-88 -224,-265 v -2156 c 0,-51 -43,-92 -95,-92 h -680.0004 c -52,0 -95,41 -95,92 v 1754 c -12,-114 -37,-221 -76,-323 -57,-148 -134,-274 -231,-380 -98,-106 -215,-190 -353,-250 -137,-60 -285,-91 -444,-91 -183,0 -337,34 -462,102 -55,30 -107,66 -155,108 -62,54 -161,14 -161,-67 v -7 c 0,-50 -42,-92 -95,-92 h -565 c -52,0 -95,42 -95,92 v 3084 c 0,50 43,91 95,91 h 680 c 52,0 95,-41 95,-91 v -931 c 0,-79 96,-121 157,-69 42,37 89,68 140,94 128,67 279,100 453,100 147,0 283,-30 408,-91 125,-60 233,-145 325,-254 91,-109 163,-238 215,-387 35,-100 58,-207 69,-320 v 380 c 0,218 63,385 188,500 125.0004,114 303.0004,172 535.0004,172 116,0 239,-13 369,-40 101,-20 194,-47 279,-80 41,-17 66,-59 58,-101 l -38,-213 c 42,84 98,157 168,220 75,66 164,118 268,156 103,39 215,58 334,58 158,0 308,-35 448,-104 141,-69 264,-170 371,-303 l 18,84 c 25,106 77,187 158,241 81,55 199,82 355,82 49,0 104,-4 167,-11 39,-5 79,-11 121,-18 45,-8 78,-46 78,-91 v -340 c 1,3 3,6 4,9 43,91 102,170 176,237 75,66 164,118 268,156 104,39 215,58 334,58 159,0 308,-35 449,-104 140,-69 264,-170 370,-303 l 19,84 c 24,106 77,187 158,241 81,55 199,82 354,82 49,0 105,-4 167,-11 39,-5 80,-11 122,-18 45,-8 78,-46 78,-91 v -558 c 0,-40 -28,-74 -67,-87 z"
   class="fil1" /><path
   style="fill:#fefefe;fill-rule:nonzero"
   inkscape:connector-curvature="0"
   id="path159"
   d="m 18041.803,3226.6516 c -31,-73 -82,-137 -153,-195 -72,-57 -167,-110 -286,-159 -119,-49 -266,-95 -440,-139 -143,-36 -239,-67 -288,-95 -49,-28 -73,-65 -73,-109 0,-41 16,-71 50,-90 34,-19 76,-29 128,-29 89,0 183,20 284,60 82,32 181,83 295,152 45,26 103,14 131,-29 l 234,-358 c 26,-40 16,-92 -22,-121 -139,-107 -278,-179 -416,-217 -160,-44 -329,-66 -506,-66 -143,0 -275,20 -396,60 -120,39 -224,96 -311,170 -87,73 -155,160 -204,261 -49,100 -73,209 -73,327 0,88 15,165 46,230 30,64 81,123 153,176 72,53 165,103 279,148 115,46 257,93 428,140 138,38 230,72 277,101 47,30 71,65 71,106 0,74 -61,111 -183,111 -116,0 -243,-27 -382,-80 -113,-43 -230,-101 -350,-173 -45,-28 -106,-13 -132,32 l -210,355 c -23,39 -13,88 23,117 128,101 279,181 452,237 201,67 407,100 617,100 156,0 296,-18 419,-53 124,-35 229,-87 316,-155 87,-68 153,-149 199,-243 46,-94 69,-202 69,-323 0,-94 -16,-177 -46,-249 z"
   class="fil1" /><path
   style="fill:#fefefe;fill-rule:nonzero"
   inkscape:connector-curvature="0"
   id="path161"
   d="m 6273.8026,1843.6516 h -161 -2028 c -16,0 -32,-6 -42,-18 l -476,-520 -205,-224 c -30,-32 -72,-51 -117,-51 h -927 c -193,0 -359,113 -438,275 -31,64 -49,136 -49,212 v 2129 l 202,-32 v -2100 c 0,-76 31,-142 80,-193 10,-10 24,-16 39,-16 h 1115 c 16,0 31,7 42,19 l 614,671 c 30,33 72,51 117,51 h 2073 161 c 188,0 341,153 341,341 v 2207 c 0,188 -153,340 -341,340 h -161 -977 l -145,203 h 1122 161 c 300,0 544,-243 544,-543 v -2207 c 0,-300 -244,-544 -544,-544 z"
   class="fil1" /><text
   style="font-weight:bold;font-size:872.73797607px;font-family:Raleway;fill:#fefefe"
   id="text163"
   class="fil0 fnt0"
   y="5143.6519"
   x="11593.803">agrotecnologia</text>

</svg>