<?xml version="1.0" encoding="UTF-8" standalone="no"?>
<!-- Generator: Adobe Illustrator 22.0.1, SVG Export Plug-In . SVG Version: 6.00 Build 0)  -->

<svg
   xmlns:dc="http://purl.org/dc/elements/1.1/"
   xmlns:cc="http://creativecommons.org/ns#"
   xmlns:rdf="http://www.w3.org/1999/02/22-rdf-syntax-ns#"
   xmlns:svg="http://www.w3.org/2000/svg"
   xmlns="http://www.w3.org/2000/svg"
   xmlns:sodipodi="http://sodipodi.sourceforge.net/DTD/sodipodi-0.dtd"
   xmlns:inkscape="http://www.inkscape.org/namespaces/inkscape"
   version="1.1"
   id="Camada_1"
   x="0px"
   y="0px"
   viewBox="0 0 601 181.5"
   style="enable-background:new 0 0 601 181.5;"
   xml:space="preserve"
   sodipodi:docname="logo.21.4.color.svg"
   inkscape:version="0.92.4 (5da689c313, 2019-01-14)"><metadata
   id="metadata8726"><rdf:RDF><cc:Work
       rdf:about=""><dc:format>image/svg+xml</dc:format><dc:type
         rdf:resource="http://purl.org/dc/dcmitype/StillImage" /></cc:Work></rdf:RDF></metadata><defs
   id="defs8724"><clipPath
   id="clipPath76"
   clipPathUnits="userSpaceOnUse"><g
     inkscape:label="Clip"
     id="use78"
     style="stroke:#ffffff;stroke-width:20.8710022;stroke-miterlimit:4;stroke-dasharray:none"><path
       inkscape:connector-curvature="0"
       style="fill:#000000;fill-opacity:1;fill-rule:nonzero;stroke:#ffffff;stroke-width:20.8710022;stroke-miterlimit:4;stroke-dasharray:none"
       d="M 27.400015,28.191119 H 140.51918 V 140.83029 H 27.400015 Z"
       id="path3224" /><path
       inkscape:connector-curvature="0"
       style="fill:#ffcc00;fill-opacity:1;fill-rule:nonzero;stroke:#ffffff;stroke-width:20.8710022;stroke-linecap:butt;stroke-linejoin:miter;stroke-miterlimit:4;stroke-dasharray:none;stroke-opacity:1"
       d="m -109.95896,139.3103 125.279065,2.07999 0.48,-126.319071 H 141.07918 v -89.839333 c 0,0 -6.07995,-33.839746 -33.83975,-34.879746 -27.759795,-1.03999 -181.838657,-0.47999 -181.838657,-0.47999 0,0 -34.879743,6.55995 -34.879743,34.319744 0,27.759794 -0.47999,215.118406 -0.47999,215.118406 z"
       id="path3226" /></g></clipPath>
	
	
	
	
	
	
</defs><sodipodi:namedview
   pagecolor="#ffffff"
   bordercolor="#666666"
   borderopacity="1"
   objecttolerance="10"
   gridtolerance="10"
   guidetolerance="10"
   inkscape:pageopacity="0"
   inkscape:pageshadow="2"
   inkscape:window-width="1920"
   inkscape:window-height="1001"
   id="namedview8722"
   showgrid="false"
   inkscape:zoom="0.7936772"
   inkscape:cx="-182.06394"
   inkscape:cy="90.749998"
   inkscape:window-x="-9"
   inkscape:window-y="-9"
   inkscape:window-maximized="1"
   inkscape:current-layer="Camada_1" />
<style
   type="text/css"
   id="style8631">
	.st0{fill:#196433;}
	.st1{fill:#7CBA43;}
	.st2{fill:#CDDC94;}
</style>
<g
   id="g8637">
		<path
   style="fill:#196433"
   inkscape:connector-curvature="0"
   id="path8633"
   d="m 524.3,89.5 c -0.9,-0.3 -1.7,-0.8 -2.2,-1.4 -0.8,-1.1 -1.3,-3 -1.3,-5.8 V 66.6 c 0,-11.4 -3.6,-20 -10.8,-25.8 -7.2,-5.7 -17.5,-8.6 -30.8,-8.6 -13,0 -24.7,2.9 -35,8.7 -1.5,0.8 -2.1,2.6 -1.4,4.1 l 5.9,12.2 c 0.8,1.7 3,2.3 4.7,1.4 3.3,-1.9 6.5,-3.5 9.6,-4.6 4,-1.5 8.4,-2.2 13.2,-2.2 5.1,0 8.8,0.9 11,2.8 2.3,1.8 3.4,4.7 3.4,8.4 v 2.5 c -4.4,-2 -10.1,-3.1 -16.8,-3.1 -5.3,0 -10.1,0.7 -14.5,2 -4.4,1.3 -8.2,3.2 -11.4,5.7 -3.2,2.5 -5.7,5.4 -7.5,8.7 -1.7,3.2 -2.6,6.8 -2.7,10.7 -0.1,0 -0.2,-0.1 -0.2,-0.1 -0.9,-0.3 -1.7,-0.8 -2.2,-1.4 -0.8,-1.1 -1.3,-3 -1.3,-5.8 V 66.6 c 0,-11.4 -3.6,-20 -10.8,-25.8 -7.2,-5.7 -17.5,-8.6 -30.8,-8.6 -13,0 -24.7,2.9 -35,8.7 -1.5,0.8 -2.1,2.6 -1.4,4.1 l 5.9,12.2 c 0.8,1.7 3,2.3 4.7,1.4 3.3,-1.9 6.5,-3.5 9.6,-4.6 4,-1.5 8.4,-2.2 13.2,-2.2 5.1,0 8.8,0.9 11,2.8 2.3,1.8 3.4,4.7 3.4,8.4 v 2.5 c -4.4,-2 -10.1,-3.1 -16.8,-3.1 -5.3,0 -10.1,0.7 -14.5,2 -4.4,1.3 -8.2,3.2 -11.4,5.7 -3.2,2.5 -5.7,5.4 -7.5,8.7 -1.8,3.4 -2.7,7.1 -2.7,11.2 0,0.5 0,0.9 0,1.3 -0.8,-0.7 -2,-0.9 -3.1,-0.6 -0.2,0.1 -0.4,0.1 -0.6,0.2 -1.5,0.4 -2.9,0.6 -4.1,0.6 -5.2,0 -7.8,-3.1 -7.8,-9.2 V 7.6 c 0,-1.8 -1.5,-3.2 -3.3,-3.2 h -23.6 c -1.8,0 -3.3,1.4 -3.3,3.2 v 60.8 c -0.4,-3.9 -1.3,-7.7 -2.6,-11.2 -2,-5.1 -4.6,-9.5 -8,-13.2 -3.4,-3.7 -7.5,-6.6 -12.2,-8.7 -4.8,-2.1 -9.9,-3.1 -15.4,-3.1 -6.4,0 -11.7,1.2 -16,3.5 -1.9,1 -3.7,2.3 -5.4,3.7 -2.2,1.9 -5.6,0.5 -5.6,-2.3 V 37 c 0,-1.8 -1.5,-3.2 -3.3,-3.2 H 217 c -1.8,0 -3.3,1.4 -3.3,3.2 v 107 c 0,1.8 1.5,3.2 3.3,3.2 h 23.6 c 1.8,0 3.3,-1.4 3.3,-3.2 v -32.3 c 0,-2.7 3.3,-4.2 5.5,-2.4 1.5,1.3 3.1,2.3 4.9,3.3 4.4,2.3 9.7,3.5 15.7,3.5 5.1,0 9.8,-1.1 14.1,-3.1 4.3,-2.1 8.1,-5 11.3,-8.8 3.2,-3.8 5.7,-8.3 7.5,-13.4 1.2,-3.5 2,-7.2 2.4,-11.1 v 13.2 c 0,7.6 2.2,13.3 6.5,17.3 4.3,4 10.5,6 18.6,6 4,0 8.3,-0.5 12.8,-1.4 3.5,-0.7 6.7,-1.6 9.7,-2.8 1.4,-0.6 2.3,-2 2,-3.5 l -1.3,-7.4 c 1.5,2.9 3.4,5.5 5.8,7.6 2.6,2.3 5.7,4.1 9.3,5.4 3.6,1.3 7.5,2 11.6,2 5.5,0 10.7,-1.2 15.6,-3.6 4.9,-2.4 9.2,-5.9 12.9,-10.5 l 0.6,2.9 c 0.8,3.7 2.7,6.5 5.5,8.4 2.8,1.9 6.9,2.8 12.3,2.8 1.7,0 3.6,-0.1 5.8,-0.4 1.3,-0.2 2.7,-0.4 4.2,-0.6 1.6,-0.3 2.7,-1.6 2.7,-3.1 v -11.8 c 0,0.1 0.1,0.2 0.1,0.3 1.5,3.2 3.5,5.9 6.1,8.2 2.6,2.3 5.7,4.1 9.3,5.4 3.6,1.3 7.5,2 11.6,2 5.5,0 10.7,-1.2 15.6,-3.6 4.9,-2.4 9.2,-5.9 12.9,-10.5 l 0.6,2.9 c 0.8,3.7 2.7,6.5 5.5,8.4 2.8,1.9 6.9,2.8 12.3,2.8 1.7,0 3.6,-0.1 5.8,-0.4 1.3,-0.2 2.7,-0.4 4.2,-0.6 1.6,-0.3 2.7,-1.6 2.7,-3.1 V 92.5 c 0,-1.4 -0.9,-2.6 -2.3,-3 z M 273.8,80.6 c -0.8,2.1 -1.9,4 -3.2,5.7 -1.3,1.6 -2.9,2.9 -4.8,3.8 -1.9,0.9 -3.9,1.4 -6.1,1.4 -3.2,0 -6.2,-1.2 -9,-3.5 -2.7,-2.2 -4.8,-5 -6.2,-8.3 -0.2,-0.4 -0.3,-0.8 -0.3,-1.3 V 66.1 c 0,-0.7 0.2,-1.3 0.6,-1.9 3.8,-5 8.4,-7.4 13.7,-7.4 5,0 9,1.5 12,4.6 3,3.1 4.5,7.2 4.5,12.3 0,2.4 -0.4,4.7 -1.2,6.9 z m 130.3,5.8 c 0,1 -0.4,2 -1.1,3 -0.7,1 -1.7,1.9 -2.9,2.7 -1.5,0.9 -3.2,1.7 -5.1,2.2 -1.9,0.6 -3.8,0.8 -5.6,0.8 -2.9,0 -5.2,-0.7 -7.1,-2.1 -1.9,-1.4 -2.8,-3.3 -2.8,-5.5 0,-2.7 1.2,-4.9 3.7,-6.6 2.4,-1.7 5.5,-2.6 9.2,-2.6 1.7,0 3.6,0.2 5.7,0.6 1.2,0.2 2.4,0.5 3.5,0.8 1.4,0.4 2.4,1.6 2.4,3.1 v 3.6 z m 86.7,0 c 0,1 -0.4,2 -1.1,3 -0.7,1 -1.7,1.9 -2.9,2.7 -1.5,0.9 -3.2,1.7 -5.1,2.2 -1.9,0.6 -3.8,0.8 -5.6,0.8 -2.9,0 -5.2,-0.7 -7.1,-2.1 -1.9,-1.4 -2.8,-3.3 -2.8,-5.5 0,-2.7 1.2,-4.9 3.7,-6.6 2.4,-1.7 5.5,-2.6 9.2,-2.6 1.7,0 3.6,0.2 5.7,0.6 1.2,0.2 2.4,0.5 3.5,0.8 1.4,0.4 2.4,1.6 2.4,3.1 v 3.6 z"
   class="st0" />
		<path
   style="fill:#196433"
   inkscape:connector-curvature="0"
   id="path8635"
   d="m 594.7,80.5 c -1.1,-2.5 -2.8,-4.8 -5.3,-6.7 -2.5,-2 -5.8,-3.8 -9.9,-5.5 -4.1,-1.7 -9.2,-3.3 -15.2,-4.8 -5,-1.2 -8.3,-2.3 -10,-3.3 -1.7,-1 -2.5,-2.2 -2.5,-3.8 0,-1.4 0.6,-2.5 1.7,-3.1 1.2,-0.7 2.6,-1 4.4,-1 3.1,0 6.3,0.7 9.8,2.1 2.9,1.1 6.3,2.9 10.2,5.3 1.5,0.9 3.6,0.5 4.5,-1 l 8.1,-12.4 c 0.9,-1.4 0.6,-3.2 -0.8,-4.2 -4.8,-3.7 -9.6,-6.2 -14.4,-7.5 -5.6,-1.5 -11.4,-2.3 -17.5,-2.3 -5,0 -9.6,0.7 -13.7,2.1 -4.2,1.4 -7.8,3.3 -10.8,5.9 -3,2.6 -5.4,5.6 -7.1,9 -1.7,3.5 -2.5,7.3 -2.5,11.3 0,3.1 0.5,5.7 1.6,8 1.1,2.2 2.8,4.3 5.3,6.1 2.5,1.8 5.7,3.6 9.7,5.1 4,1.6 8.9,3.2 14.8,4.8 4.8,1.3 8,2.5 9.6,3.5 1.6,1 2.5,2.3 2.5,3.7 0,2.6 -2.1,3.8 -6.3,3.8 -4,0 -8.4,-0.9 -13.3,-2.8 -3.9,-1.5 -8,-3.5 -12.1,-6 -1.6,-1 -3.7,-0.4 -4.6,1.1 l -7.3,12.3 c -0.8,1.4 -0.5,3.1 0.8,4.1 4.4,3.5 9.7,6.3 15.7,8.2 7,2.3 14.1,3.5 21.4,3.5 5.4,0 10.2,-0.6 14.5,-1.8 4.3,-1.2 7.9,-3 11,-5.4 3,-2.4 5.3,-5.2 6.9,-8.4 1.6,-3.3 2.4,-7 2.4,-11.2 0,-3.3 -0.5,-6.2 -1.6,-8.7 z"
   class="st0" />
	</g><path
   style="fill:#cddc94"
   inkscape:connector-curvature="0"
   id="path8703"
   d="m 87.3,102.5 c 8.3,-1.7 16.8,-3.1 25.3,-4.1 C 76.4,95.6 39.5,99.5 4.7,109.6 v 22.7 c 25.9,-13.8 53.7,-23.8 82.6,-29.8 z"
   class="st2" /><g
   id="g8709">
		<path
   style="fill:#7cba43"
   inkscape:connector-curvature="0"
   id="path8705"
   d="m 141.8,103.8 c -17.8,0.5 -35.6,2.6 -53.1,6.2 -24.6,5.1 -48.3,13.2 -70.8,24.1 -4.5,2.3 -9,4.8 -13.3,7.5 v 35.6 H 31 c 32.7,-37 70.8,-62.4 110.8,-73.4 z"
   class="st1" />
		<path
   style="fill:#7cba43"
   inkscape:connector-curvature="0"
   id="path8707"
   d="m 82,141.2 c 22.4,-13.3 43.3,-22.8 57.7,-28.8 -19.9,6.1 -39.3,15.8 -57.7,28.8 z"
   class="st1" />
	</g><path
   style="fill:#196433"
   inkscape:connector-curvature="0"
   id="path8711"
   d="m 167.7,106.4 c -45,5.7 -89.3,30.7 -126.5,70.8 h 74.3 c 14.1,-29 31.7,-53 52.2,-70.8 z"
   class="st0" /><g
   id="g8717">
		<path
   style="fill:#196433"
   inkscape:connector-curvature="0"
   id="path8713"
   d="m 134.2,143.7 c -0.3,0.4 -0.4,0.9 -0.3,1.4 1.1,-1.7 2.3,-3.4 3.5,-5 -0.4,0.2 -0.7,0.4 -1,0.6 z"
   class="st0" />
		<path
   style="fill:#196433"
   inkscape:connector-curvature="0"
   id="path8715"
   d="M 186.5,32.6 H 181 110.6 c -0.6,0 -1.1,-0.2 -1.4,-0.6 L 92.7,14 85.6,6.2 c -1,-1.1 -2.5,-1.8 -4,-1.8 H 49.3 c -6.7,0 -12.5,3.9 -15.2,9.6 -1.1,2.2 -1.7,4.7 -1.7,7.3 v 73.9 c 2.3,-0.4 4.7,-0.8 7,-1.2 V 21.2 c 0,-2.6 1,-5 2.7,-6.8 0.4,-0.4 0.9,-0.6 1.4,-0.6 h 38.7 c 0.6,0 1.1,0.2 1.4,0.6 L 105,37.8 c 1,1.1 2.5,1.8 4,1.8 h 72 5.6 c 6.5,0 11.8,5.3 11.8,11.8 V 128 c 0,6.5 -5.3,11.8 -11.8,11.8 H 181 147 c -1.7,2.3 -3.4,4.6 -5.1,7 h 39.1 5.6 c 10.4,0 18.8,-8.4 18.8,-18.8 V 51.4 C 205.4,41 197,32.6 186.5,32.6 Z"
   class="st0" />
	</g>

<text
   style="font-weight:bold;font-size:31.99969673px;font-family:Raleway;clip-rule:evenodd;fill:#7cba43;fill-opacity:1;fill-rule:evenodd;stroke-width:0.03666587;image-rendering:optimizeQuality;shape-rendering:geometricPrecision;text-rendering:geometricPrecision"
   id="text163"
   class="fil0 fnt0"
   y="149.29326"
   x="360.33954">agrotecnologia</text>
</svg>