<?xml version="1.0" encoding="utf-8"?>
<!-- Generator: Adobe Illustrator 22.0.1, SVG Export Plug-In . SVG Version: 6.00 Build 0)  -->
<svg version="1.1" id="Camada_1" xmlns="http://www.w3.org/2000/svg" xmlns:xlink="http://www.w3.org/1999/xlink" x="0px" y="0px"
	 viewBox="0 0 388.9 327.3" style="enable-background:new 0 0 388.9 327.3;" xml:space="preserve">
<style type="text/css">
	.st0{fill:#196433;}
	.st1{fill:#7CBA43;}
	.st2{fill:#CDDC94;}
</style>
<g>
	<g>
		<g>
			<path class="st0" d="M313.6,263.8c-0.9-0.3-1.7-0.8-2.2-1.4c-0.8-1.1-1.3-3-1.3-5.8v-15.6c0-11.4-3.6-20-10.8-25.8
				c-7.2-5.7-17.5-8.6-30.8-8.6c-13,0-24.7,2.9-35,8.7c-1.5,0.8-2.1,2.6-1.4,4.1l5.9,12.2c0.8,1.7,3,2.3,4.7,1.4
				c3.3-1.9,6.5-3.5,9.6-4.6c4-1.5,8.4-2.2,13.2-2.2c5.1,0,8.8,0.9,11,2.8c2.3,1.8,3.4,4.7,3.4,8.4v2.5c-4.4-2-10.1-3.1-16.8-3.1
				c-5.3,0-10.1,0.7-14.5,2c-4.4,1.3-8.2,3.2-11.4,5.7c-3.2,2.5-5.7,5.4-7.5,8.7c-1.7,3.2-2.6,6.8-2.7,10.7c-0.1,0-0.2-0.1-0.2-0.1
				c-0.9-0.3-1.7-0.8-2.2-1.4c-0.8-1.1-1.3-3-1.3-5.8v-15.6c0-11.4-3.6-20-10.8-25.8c-7.2-5.7-17.5-8.6-30.8-8.6
				c-13,0-24.7,2.9-35,8.7c-1.5,0.8-2.1,2.6-1.4,4.1l5.9,12.2c0.8,1.7,3,2.3,4.7,1.4c3.3-1.9,6.5-3.5,9.6-4.6
				c4-1.5,8.4-2.2,13.2-2.2c5.1,0,8.8,0.9,11,2.8c2.3,1.8,3.4,4.7,3.4,8.4v2.5c-4.4-2-10.1-3.1-16.8-3.1c-5.3,0-10.1,0.7-14.5,2
				c-4.4,1.3-8.2,3.2-11.4,5.7c-3.2,2.5-5.7,5.4-7.5,8.7c-1.8,3.4-2.7,7.1-2.7,11.2c0,0.5,0,0.9,0,1.3c-0.8-0.7-2-0.9-3.1-0.6
				c-0.2,0.1-0.4,0.1-0.6,0.2c-1.5,0.4-2.9,0.6-4.1,0.6c-5.2,0-7.8-3.1-7.8-9.2V182c0-1.8-1.5-3.2-3.3-3.2H98.1
				c-1.8,0-3.3,1.4-3.3,3.2v60.8c-0.4-3.9-1.3-7.7-2.6-11.2c-2-5.1-4.6-9.5-8-13.2c-3.4-3.7-7.5-6.6-12.2-8.7
				c-4.8-2.1-9.9-3.1-15.4-3.1c-6.4,0-11.7,1.2-16,3.5c-1.9,1-3.7,2.3-5.4,3.7c-2.2,1.9-5.6,0.5-5.6-2.3v-0.3c0-1.8-1.5-3.2-3.3-3.2
				H6.6c-1.8,0-3.3,1.4-3.3,3.2v107c0,1.8,1.5,3.2,3.3,3.2h23.6c1.8,0,3.3-1.4,3.3-3.2V286c0-2.7,3.3-4.2,5.5-2.4
				c1.5,1.3,3.1,2.3,4.9,3.3c4.4,2.3,9.7,3.5,15.7,3.5c5.1,0,9.8-1.1,14.1-3.1c4.3-2.1,8.1-5,11.3-8.8c3.2-3.8,5.7-8.3,7.5-13.4
				c1.2-3.5,2-7.2,2.4-11.1V267c0,7.6,2.2,13.3,6.5,17.3c4.3,4,10.5,6,18.6,6c4,0,8.3-0.5,12.8-1.4c3.5-0.7,6.7-1.6,9.7-2.8
				c1.4-0.6,2.3-2,2-3.5l-1.3-7.4c1.5,2.9,3.4,5.5,5.8,7.6c2.6,2.3,5.7,4.1,9.3,5.4c3.6,1.3,7.5,2,11.6,2c5.5,0,10.7-1.2,15.6-3.6
				c4.9-2.4,9.2-5.9,12.9-10.5l0.6,2.9c0.8,3.7,2.7,6.5,5.5,8.4c2.8,1.9,6.9,2.8,12.3,2.8c1.7,0,3.6-0.1,5.8-0.4
				c1.3-0.2,2.7-0.4,4.2-0.6c1.6-0.3,2.7-1.6,2.7-3.1l0-11.8c0,0.1,0.1,0.2,0.1,0.3c1.5,3.2,3.5,5.9,6.1,8.2
				c2.6,2.3,5.7,4.1,9.3,5.4c3.6,1.3,7.5,2,11.6,2c5.5,0,10.7-1.2,15.6-3.6c4.9-2.4,9.2-5.9,12.9-10.5l0.6,2.9
				c0.8,3.7,2.7,6.5,5.5,8.4c2.8,1.9,6.9,2.8,12.3,2.8c1.7,0,3.6-0.1,5.8-0.4c1.3-0.2,2.7-0.4,4.2-0.6c1.6-0.3,2.7-1.6,2.7-3.1
				v-19.4C315.9,265.4,315,264.2,313.6,263.8z M63.1,254.9c-0.8,2.1-1.9,4-3.2,5.7c-1.3,1.6-2.9,2.9-4.8,3.8
				c-1.9,0.9-3.9,1.4-6.1,1.4c-3.2,0-6.2-1.2-9-3.5c-2.7-2.2-4.8-5-6.2-8.3c-0.2-0.4-0.3-0.8-0.3-1.3v-12.3c0-0.7,0.2-1.3,0.6-1.9
				c3.8-5,8.4-7.4,13.7-7.4c5,0,9,1.5,12,4.6c3,3.1,4.5,7.2,4.5,12.3C64.3,250.4,63.9,252.7,63.1,254.9z M193.4,260.7
				c0,1-0.4,2-1.1,3c-0.7,1-1.7,1.9-2.9,2.7c-1.5,0.9-3.2,1.7-5.1,2.2c-1.9,0.6-3.8,0.8-5.6,0.8c-2.9,0-5.2-0.7-7.1-2.1
				c-1.9-1.4-2.8-3.3-2.8-5.5c0-2.7,1.2-4.9,3.7-6.6c2.4-1.7,5.5-2.6,9.2-2.6c1.7,0,3.6,0.2,5.7,0.6c1.2,0.2,2.4,0.5,3.5,0.8
				c1.4,0.4,2.4,1.6,2.4,3.1V260.7z M280,260.7c0,1-0.4,2-1.1,3c-0.7,1-1.7,1.9-2.9,2.7c-1.5,0.9-3.2,1.7-5.1,2.2
				c-1.9,0.6-3.8,0.8-5.6,0.8c-2.9,0-5.2-0.7-7.1-2.1c-1.9-1.4-2.8-3.3-2.8-5.5c0-2.7,1.2-4.9,3.7-6.6c2.4-1.7,5.5-2.6,9.2-2.6
				c1.7,0,3.6,0.2,5.7,0.6c1.2,0.2,2.4,0.5,3.5,0.8c1.4,0.4,2.4,1.6,2.4,3.1V260.7z"/>
			<path class="st0" d="M384,254.8c-1.1-2.5-2.8-4.8-5.3-6.7c-2.5-2-5.8-3.8-9.9-5.5c-4.1-1.7-9.2-3.3-15.2-4.8
				c-5-1.2-8.3-2.3-10-3.3c-1.7-1-2.5-2.2-2.5-3.8c0-1.4,0.6-2.5,1.7-3.1c1.2-0.7,2.6-1,4.4-1c3.1,0,6.4,0.7,9.8,2.1
				c2.9,1.1,6.3,2.9,10.2,5.3c1.5,0.9,3.6,0.5,4.5-1l8.1-12.4c0.9-1.4,0.6-3.2-0.8-4.2c-4.8-3.7-9.6-6.2-14.4-7.5
				c-5.6-1.5-11.4-2.3-17.5-2.3c-5,0-9.6,0.7-13.7,2.1c-4.2,1.4-7.8,3.3-10.8,5.9c-3,2.6-5.4,5.6-7.1,9c-1.7,3.5-2.5,7.3-2.5,11.3
				c0,3.1,0.5,5.7,1.6,8c1.1,2.2,2.8,4.3,5.3,6.1c2.5,1.8,5.7,3.6,9.7,5.1c4,1.6,8.9,3.2,14.8,4.8c4.8,1.3,8,2.5,9.6,3.5
				c1.6,1,2.5,2.3,2.5,3.7c0,2.6-2.1,3.8-6.3,3.8c-4,0-8.4-0.9-13.3-2.8c-3.9-1.5-8-3.5-12.1-6c-1.6-1-3.7-0.4-4.6,1.1l-7.3,12.3
				c-0.8,1.4-0.5,3.1,0.8,4.1c4.4,3.5,9.7,6.3,15.7,8.2c7,2.3,14.1,3.5,21.4,3.5c5.4,0,10.2-0.6,14.5-1.8c4.3-1.2,7.9-3,11-5.4
				c3-2.4,5.3-5.2,6.9-8.4c1.6-3.3,2.4-7,2.4-11.2C385.6,260.2,385.1,257.3,384,254.8z"/>
		</g>
		<g>
			<path class="st1" d="M47.7,316.9c0-0.5,0.1-1.1,0.3-1.6c0.2-0.5,0.5-1,0.9-1.4c0.4-0.4,0.8-0.8,1.4-1c0.5-0.3,1.2-0.4,1.9-0.4
				c0.8,0,1.5,0.2,2.1,0.5c0.6,0.4,1,0.8,1.3,1.4l-1.3,0.9c-0.1-0.3-0.3-0.5-0.4-0.6s-0.3-0.3-0.5-0.4c-0.2-0.1-0.4-0.2-0.6-0.2
				c-0.2,0-0.4-0.1-0.6-0.1c-0.4,0-0.8,0.1-1.1,0.3c-0.3,0.2-0.6,0.4-0.8,0.7c-0.2,0.3-0.4,0.6-0.5,1c-0.1,0.4-0.2,0.7-0.2,1.1
				c0,0.4,0.1,0.8,0.2,1.1c0.1,0.4,0.3,0.7,0.5,1c0.2,0.3,0.5,0.5,0.8,0.7c0.3,0.2,0.7,0.3,1.1,0.3c0.2,0,0.4,0,0.6-0.1
				c0.2-0.1,0.4-0.1,0.6-0.2c0.2-0.1,0.4-0.2,0.5-0.4s0.3-0.4,0.4-0.6l1.4,0.8c-0.1,0.3-0.3,0.6-0.6,0.9c-0.3,0.3-0.6,0.5-0.9,0.6
				c-0.3,0.2-0.7,0.3-1.1,0.4c-0.4,0.1-0.7,0.1-1.1,0.1c-0.6,0-1.2-0.1-1.7-0.4c-0.5-0.3-1-0.6-1.4-1c-0.4-0.4-0.7-0.9-0.9-1.5
				C47.8,318,47.7,317.4,47.7,316.9z"/>
			<path class="st1" d="M63,321.4c-0.7,0-1.2-0.1-1.8-0.4c-0.5-0.3-1-0.6-1.4-1c-0.4-0.4-0.7-0.9-0.9-1.4c-0.2-0.5-0.3-1.1-0.3-1.7
				c0-0.6,0.1-1.2,0.3-1.7c0.2-0.5,0.5-1,0.9-1.4c0.4-0.4,0.8-0.7,1.4-1c0.5-0.2,1.1-0.4,1.7-0.4c0.6,0,1.2,0.1,1.8,0.4
				c0.5,0.3,1,0.6,1.4,1c0.4,0.4,0.7,0.9,0.9,1.5c0.2,0.5,0.3,1.1,0.3,1.7c0,0.6-0.1,1.2-0.3,1.7c-0.2,0.5-0.5,1-0.9,1.4
				c-0.4,0.4-0.8,0.7-1.4,1C64.2,321.3,63.6,321.4,63,321.4z M60.4,316.9c0,0.4,0.1,0.8,0.2,1.1c0.1,0.4,0.3,0.7,0.5,1
				c0.2,0.3,0.5,0.5,0.8,0.7c0.3,0.2,0.7,0.3,1.1,0.3c0.4,0,0.8-0.1,1.1-0.3c0.3-0.2,0.6-0.4,0.8-0.7c0.2-0.3,0.4-0.6,0.5-1
				c0.1-0.4,0.2-0.7,0.2-1.1c0-0.4-0.1-0.8-0.2-1.1c-0.1-0.4-0.3-0.7-0.5-1c-0.2-0.3-0.5-0.5-0.8-0.7c-0.3-0.2-0.7-0.2-1.1-0.2
				c-0.4,0-0.8,0.1-1.1,0.3c-0.3,0.2-0.6,0.4-0.8,0.7c-0.2,0.3-0.4,0.6-0.5,1C60.5,316.2,60.4,316.6,60.4,316.9z"/>
			<path class="st1" d="M72.9,315.7v5.7h-1.7v-8.9h1.3l4.6,5.8v-5.8h1.7v8.9h-1.4L72.9,315.7z"/>
			<path class="st1" d="M83.3,321.4v-8.9h6v1.5H85v2.3h3.5v1.4H85v3.7H83.3z"/>
			<path class="st1" d="M96.5,321.4c-0.7,0-1.2-0.1-1.8-0.4c-0.5-0.3-1-0.6-1.4-1c-0.4-0.4-0.7-0.9-0.9-1.4
				c-0.2-0.5-0.3-1.1-0.3-1.7c0-0.6,0.1-1.2,0.3-1.7c0.2-0.5,0.5-1,0.9-1.4c0.4-0.4,0.8-0.7,1.4-1c0.5-0.2,1.1-0.4,1.7-0.4
				c0.6,0,1.2,0.1,1.8,0.4c0.5,0.3,1,0.6,1.4,1c0.4,0.4,0.7,0.9,0.9,1.5c0.2,0.5,0.3,1.1,0.3,1.7c0,0.6-0.1,1.2-0.3,1.7
				c-0.2,0.5-0.5,1-0.9,1.4c-0.4,0.4-0.8,0.7-1.4,1C97.8,321.3,97.2,321.4,96.5,321.4z M94,316.9c0,0.4,0.1,0.8,0.2,1.1
				c0.1,0.4,0.3,0.7,0.5,1c0.2,0.3,0.5,0.5,0.8,0.7c0.3,0.2,0.7,0.3,1.1,0.3c0.4,0,0.8-0.1,1.1-0.3c0.3-0.2,0.6-0.4,0.8-0.7
				c0.2-0.3,0.4-0.6,0.5-1c0.1-0.4,0.2-0.7,0.2-1.1c0-0.4-0.1-0.8-0.2-1.1c-0.1-0.4-0.3-0.7-0.5-1c-0.2-0.3-0.5-0.5-0.8-0.7
				c-0.3-0.2-0.7-0.2-1.1-0.2c-0.4,0-0.8,0.1-1.1,0.3c-0.3,0.2-0.6,0.4-0.8,0.7c-0.2,0.3-0.4,0.6-0.5,1C94,316.2,94,316.6,94,316.9z
				"/>
			<path class="st1" d="M104.7,321.4v-8.9h3.9c0.4,0,0.8,0.1,1.1,0.3c0.3,0.2,0.6,0.4,0.9,0.7c0.3,0.3,0.4,0.6,0.6,1
				c0.1,0.4,0.2,0.7,0.2,1.1c0,0.6-0.1,1.1-0.4,1.6c-0.3,0.5-0.7,0.8-1.2,1l2,3.3H110l-1.8-3h-1.7v3H104.7z M106.5,316.9h2.2
				c0.2,0,0.3,0,0.4-0.1c0.1-0.1,0.3-0.2,0.4-0.3c0.1-0.1,0.2-0.3,0.2-0.5c0.1-0.2,0.1-0.4,0.1-0.6c0-0.2,0-0.4-0.1-0.6
				c-0.1-0.2-0.2-0.3-0.3-0.5c-0.1-0.1-0.2-0.2-0.4-0.3c-0.1-0.1-0.3-0.1-0.4-0.1h-2.1V316.9z"/>
			<path class="st1" d="M122.8,321.4v-5.9l-2.3,4.4h-0.9l-2.3-4.4v5.9h-1.7v-8.9h1.9l2.6,5.1l2.7-5.1h1.8v8.9H122.8z"/>
			<path class="st1" d="M128.9,321.4v-8.9h1.7v8.9H128.9z"/>
			<path class="st1" d="M135,321.4v-8.9h3.2c0.7,0,1.4,0.1,1.9,0.4c0.5,0.2,1,0.6,1.4,1c0.4,0.4,0.6,0.9,0.8,1.4
				c0.2,0.5,0.3,1.1,0.3,1.7c0,0.7-0.1,1.3-0.3,1.8c-0.2,0.5-0.5,1-0.9,1.4c-0.4,0.4-0.8,0.7-1.4,0.9c-0.5,0.2-1.1,0.3-1.8,0.3H135z
				 M140.9,316.9c0-0.4-0.1-0.8-0.2-1.2c-0.1-0.4-0.3-0.7-0.5-0.9c-0.2-0.3-0.5-0.5-0.8-0.6c-0.3-0.1-0.7-0.2-1.1-0.2h-1.5v5.9h1.5
				c0.4,0,0.8-0.1,1.1-0.2c0.3-0.2,0.6-0.4,0.8-0.6c0.2-0.3,0.4-0.6,0.5-0.9C140.8,317.7,140.9,317.3,140.9,316.9z"/>
			<path class="st1" d="M148.7,312.5h1.5l3.4,8.9h-1.8l-0.8-2.2h-3.1l-0.8,2.2h-1.8L148.7,312.5z M150.7,317.9l-1.2-3.5l-1.3,3.5
				H150.7z"/>
			<path class="st1" d="M157.1,321.4v-8.9h3.2c0.7,0,1.4,0.1,1.9,0.4c0.5,0.2,1,0.6,1.4,1c0.4,0.4,0.6,0.9,0.8,1.4
				c0.2,0.5,0.3,1.1,0.3,1.7c0,0.7-0.1,1.3-0.3,1.8c-0.2,0.5-0.5,1-0.9,1.4c-0.4,0.4-0.8,0.7-1.4,0.9c-0.5,0.2-1.1,0.3-1.8,0.3
				H157.1z M163,316.9c0-0.4-0.1-0.8-0.2-1.2c-0.1-0.4-0.3-0.7-0.5-0.9c-0.2-0.3-0.5-0.5-0.8-0.6c-0.3-0.1-0.7-0.2-1.1-0.2h-1.5v5.9
				h1.5c0.4,0,0.8-0.1,1.1-0.2c0.3-0.2,0.6-0.4,0.8-0.6c0.2-0.3,0.4-0.6,0.5-0.9C162.9,317.7,163,317.3,163,316.9z"/>
			<path class="st1" d="M174.7,319.8v1.5h-6.2v-8.9h6.1v1.5h-4.3v2.1h3.7v1.4h-3.7v2.3H174.7z"/>
			<path class="st1" d="M186.3,312.5h1.5l3.4,8.9h-1.8l-0.8-2.2h-3.1l-0.8,2.2h-1.8L186.3,312.5z M188.2,317.9l-1.2-3.5l-1.3,3.5
				H188.2z"/>
			<path class="st1" d="M201.9,321.4v-5.9l-2.3,4.4h-0.9l-2.3-4.4v5.9h-1.7v-8.9h1.9l2.6,5.1l2.7-5.1h1.8v8.9H201.9z"/>
			<path class="st1" d="M215.2,319.1c0,0.4-0.1,0.7-0.2,1c-0.2,0.3-0.4,0.5-0.6,0.7c-0.3,0.2-0.6,0.3-0.9,0.4
				c-0.3,0.1-0.7,0.2-1.1,0.2H208v-8.9h4.8c0.3,0,0.6,0.1,0.8,0.2c0.3,0.1,0.5,0.3,0.6,0.5c0.2,0.2,0.3,0.5,0.4,0.7
				c0.1,0.3,0.1,0.5,0.1,0.8c0,0.4-0.1,0.8-0.3,1.2c-0.2,0.4-0.5,0.7-1,0.8c0.5,0.2,0.9,0.4,1.2,0.8S215.2,318.5,215.2,319.1z
				 M209.7,313.9v2.2h2.3c0.3,0,0.5-0.1,0.7-0.3c0.2-0.2,0.3-0.5,0.3-0.8c0-0.3-0.1-0.6-0.3-0.8c-0.2-0.2-0.4-0.3-0.7-0.3H209.7z
				 M213.4,318.7c0-0.2,0-0.3-0.1-0.5c-0.1-0.1-0.1-0.3-0.2-0.4c-0.1-0.1-0.2-0.2-0.3-0.3c-0.1-0.1-0.3-0.1-0.4-0.1h-2.7v2.3h2.6
				c0.2,0,0.3,0,0.4-0.1c0.1-0.1,0.3-0.1,0.4-0.2c0.1-0.1,0.2-0.2,0.2-0.4C213.4,319.1,213.4,318.9,213.4,318.7z"/>
			<path class="st1" d="M219,321.4v-8.9h1.7v8.9H219z"/>
			<path class="st1" d="M231.3,319.8v1.5h-6.2v-8.9h6.1v1.5h-4.3v2.1h3.7v1.4h-3.7v2.3H231.3z"/>
			<path class="st1" d="M236.9,315.7v5.7h-1.7v-8.9h1.3l4.6,5.8v-5.8h1.7v8.9h-1.4L236.9,315.7z"/>
			<path class="st1" d="M253.9,314H251v7.4h-1.7V314h-2.8v-1.5h7.4V314z"/>
			<path class="st1" d="M259.1,312.5h1.5l3.4,8.9h-1.8l-0.8-2.2h-3.1l-0.8,2.2h-1.8L259.1,312.5z M261.1,317.9l-1.2-3.5l-1.3,3.5
				H261.1z"/>
			<path class="st1" d="M267.5,321.4v-8.9h1.7v7.4h4.5v1.5H267.5z"/>
			<path class="st1" d="M288.7,319.8v1.5h-6.2v-8.9h6.1v1.5h-4.3v2.1h3.7v1.4h-3.7v2.3H288.7z"/>
			<path class="st1" d="M298.1,321.4v-8.9h6v1.5h-4.2v2.3h3.5v1.4h-3.5v3.7H298.1z"/>
			<path class="st1" d="M311.5,319.9c0.4,0,0.8-0.1,1-0.3c0.3-0.2,0.5-0.4,0.7-0.7s0.3-0.6,0.4-0.9s0.1-0.7,0.1-1.1v-4.5h1.7v4.5
				c0,0.6-0.1,1.2-0.2,1.7c-0.1,0.5-0.4,1-0.7,1.4c-0.3,0.4-0.7,0.7-1.2,1c-0.5,0.2-1.1,0.4-1.8,0.4c-0.7,0-1.3-0.1-1.8-0.4
				c-0.5-0.2-0.9-0.6-1.2-1c-0.3-0.4-0.5-0.9-0.7-1.4c-0.1-0.5-0.2-1.1-0.2-1.7v-4.5h1.7v4.5c0,0.4,0,0.7,0.1,1.1
				c0.1,0.3,0.2,0.7,0.4,0.9c0.2,0.3,0.4,0.5,0.7,0.6C310.8,319.8,311.1,319.9,311.5,319.9z"/>
			<path class="st1" d="M321.4,315.7v5.7h-1.7v-8.9h1.3l4.6,5.8v-5.8h1.7v8.9H326L321.4,315.7z"/>
			<path class="st1" d="M331.7,321.4v-8.9h3.2c0.7,0,1.4,0.1,1.9,0.4c0.5,0.2,1,0.6,1.4,1c0.4,0.4,0.6,0.9,0.8,1.4
				c0.2,0.5,0.3,1.1,0.3,1.7c0,0.7-0.1,1.3-0.3,1.8c-0.2,0.5-0.5,1-0.9,1.4c-0.4,0.4-0.8,0.7-1.4,0.9c-0.5,0.2-1.1,0.3-1.8,0.3
				H331.7z M337.6,316.9c0-0.4-0.1-0.8-0.2-1.2c-0.1-0.4-0.3-0.7-0.5-0.9c-0.2-0.3-0.5-0.5-0.8-0.6c-0.3-0.1-0.7-0.2-1.1-0.2h-1.5
				v5.9h1.5c0.4,0,0.8-0.1,1.1-0.2c0.3-0.2,0.6-0.4,0.8-0.6c0.2-0.3,0.4-0.6,0.5-0.9C337.6,317.7,337.6,317.3,337.6,316.9z"/>
			<path class="st1" d="M343.2,321.4v-8.9h1.7v8.9H343.2z"/>
			<path class="st1" d="M351.8,312.5h1.5l3.4,8.9H355l-0.8-2.2H351l-0.8,2.2h-1.8L351.8,312.5z M353.8,317.9l-1.2-3.5l-1.3,3.5
				H353.8z M353,311.7l-1.1-0.3l0.7-1.5h1.6L353,311.7z"/>
			<path class="st1" d="M360.2,321.4v-8.9h3.9c0.4,0,0.8,0.1,1.1,0.3s0.6,0.4,0.9,0.7c0.3,0.3,0.4,0.6,0.6,1
				c0.1,0.4,0.2,0.7,0.2,1.1c0,0.6-0.1,1.1-0.4,1.6s-0.7,0.8-1.2,1l2,3.3h-1.9l-1.8-3H362v3H360.2z M362,316.9h2.2
				c0.2,0,0.3,0,0.4-0.1c0.1-0.1,0.3-0.2,0.4-0.3c0.1-0.1,0.2-0.3,0.2-0.5c0.1-0.2,0.1-0.4,0.1-0.6c0-0.2,0-0.4-0.1-0.6
				c-0.1-0.2-0.2-0.3-0.3-0.5c-0.1-0.1-0.2-0.2-0.4-0.3c-0.1-0.1-0.3-0.1-0.4-0.1H362V316.9z"/>
			<path class="st1" d="M371.1,321.4v-8.9h1.7v8.9H371.1z"/>
			<path class="st1" d="M379.7,312.5h1.5l3.4,8.9h-1.8l-0.8-2.2h-3.1l-0.8,2.2h-1.8L379.7,312.5z M381.7,317.9l-1.2-3.5l-1.3,3.5
				H381.7z"/>
		</g>
		<g>
			<path class="st2" d="M232.4,104c8.3-1.7,16.8-3.1,25.3-4.1c-36.2-2.8-73.1,1.1-107.9,11.2v22.7C175.8,120,203.5,110,232.4,104z"
				/>
			<g>
				<path class="st1" d="M287,105.3c-17.8,0.5-35.6,2.6-53.1,6.2c-24.6,5.1-48.3,13.2-70.8,24.1c-4.5,2.3-9,4.8-13.3,7.5v35.6h26.4
					C208.9,141.7,246.9,116.3,287,105.3z"/>
				<path class="st1" d="M227.1,142.7c22.4-13.3,43.3-22.8,57.7-28.8C265,120,245.6,129.7,227.1,142.7z"/>
			</g>
			<path class="st0" d="M312.8,107.9c-45,5.7-89.3,30.7-126.5,70.8h74.3C274.7,149.7,292.3,125.6,312.8,107.9z"/>
			<g>
				<path class="st0" d="M279.4,145.2c-0.3,0.4-0.4,0.9-0.3,1.4c1.1-1.7,2.3-3.4,3.5-5c-0.4,0.2-0.7,0.4-1,0.6L279.4,145.2z"/>
				<path class="st0" d="M331.7,34h-5.6h-70.4c-0.6,0-1.1-0.2-1.4-0.6l-16.5-18l-7.1-7.8c-1-1.1-2.5-1.8-4-1.8h-32.2
					c-6.7,0-12.5,3.9-15.2,9.6c-1.1,2.2-1.7,4.7-1.7,7.3v73.9c2.3-0.4,4.7-0.8,7-1.2V22.7c0-2.6,1-5,2.7-6.8
					c0.4-0.4,0.9-0.6,1.4-0.6l38.7,0c0.6,0,1.1,0.2,1.4,0.6l21.3,23.3c1,1.1,2.5,1.8,4,1.8h71.9h5.6c6.5,0,11.8,5.3,11.8,11.8v76.6
					c0,6.5-5.3,11.8-11.8,11.8h-5.6h-34c-1.7,2.3-3.4,4.6-5.1,7h39.1h5.6c10.4,0,18.8-8.4,18.8-18.8V52.9
					C350.5,42.5,342.1,34,331.7,34z"/>
			</g>
		</g>
	</g>
</g>
</svg>
