<?xml version="1.0" encoding="UTF-8" standalone="no"?>
<!-- Generator: Adobe Illustrator 18.0.0, SVG Export Plug-In . SVG Version: 6.00 Build 0)  -->

<svg
   xmlns:dc="http://purl.org/dc/elements/1.1/"
   xmlns:cc="http://creativecommons.org/ns#"
   xmlns:rdf="http://www.w3.org/1999/02/22-rdf-syntax-ns#"
   xmlns:svg="http://www.w3.org/2000/svg"
   xmlns="http://www.w3.org/2000/svg"
   xmlns:sodipodi="http://sodipodi.sourceforge.net/DTD/sodipodi-0.dtd"
   xmlns:inkscape="http://www.inkscape.org/namespaces/inkscape"
   version="1.1"
   id="Layer_1"
   x="0px"
   y="0px"
   viewBox="0 0 365 560"
   enable-background="new 0 0 365 560"
   xml:space="preserve"
   sodipodi:docname="plaasmarker.svg"
   inkscape:version="0.92.4 (5da689c313, 2019-01-14)"><metadata
   id="metadata43"><rdf:RDF><cc:Work
       rdf:about=""><dc:format>image/svg+xml</dc:format><dc:type
         rdf:resource="http://purl.org/dc/dcmitype/StillImage" /><dc:title></dc:title></cc:Work></rdf:RDF></metadata><defs
   id="defs41"><clipPath
     clipPathUnits="userSpaceOnUse"
     id="clipPath66"><g
       transform="translate(-3.1638206e-6,1.331291e-6)"
       inkscape:label="Clip"
       id="use68"
       style="display:inline;stroke:#ffffff;stroke-width:1.17475247;stroke-miterlimit:4;stroke-dasharray:none"><rect
         style="stroke:#ffffff;stroke-width:1.17475247;stroke-miterlimit:4;stroke-dasharray:none"
         y="-121.54408"
         x="-181.20874"
         height="29.800552"
         width="29.934185"
         id="rect1951" /><path
         inkscape:connector-curvature="0"
         id="path1953"
         d="m -217.55739,-92.144431 33.14142,0.534538 0.13363,-33.408687 h 33.14143 v -23.78699 c 0,0 -1.60362,-8.95353 -8.95353,-9.2208 -7.34992,-0.26727 -48.10852,-0.13363 -48.10852,-0.13363 0,0 -9.2208,1.73725 -9.2208,9.08716 0,7.34991 -0.13363,56.928409 -0.13363,56.928409 z"
         style="fill:#ffcc00;stroke:#ffffff;stroke-width:1.17475247;stroke-linecap:butt;stroke-linejoin:miter;stroke-miterlimit:4;stroke-dasharray:none;stroke-opacity:1" /></g></clipPath></defs><sodipodi:namedview
   pagecolor="#ffffff"
   bordercolor="#666666"
   borderopacity="1"
   objecttolerance="10"
   gridtolerance="10"
   guidetolerance="10"
   inkscape:pageopacity="0"
   inkscape:pageshadow="2"
   inkscape:window-width="1920"
   inkscape:window-height="1001"
   id="namedview39"
   showgrid="false"
   inkscape:zoom="0.59599"
   inkscape:cx="-299.47117"
   inkscape:cy="280"
   inkscape:window-x="-9"
   inkscape:window-y="-9"
   inkscape:window-maximized="1"
   inkscape:current-layer="Layer_1" />

<path
   sodipodi:nodetypes="ccscsccc"
   style="display:inline;fill:#8dd35f;stroke:#008000;stroke-width:22.86948776;stroke-miterlimit:4;stroke-dasharray:none;stroke-opacity:0"
   inkscape:connector-curvature="0"
   id="path1949"
   d="m 184.67328,557.94572 c 0,0.10044 0.20154,0.2969 0.20154,0.2969 0,0 176.55828,-273.01979 176.55828,-361.63828 0,-130.421554 -89.48842,-185.460954 -176.75982,-184.003104 -87.2714,1.85885 -176.759857,60.2992 -176.759857,190.720754 0,88.61848 176.659067,354.92637 176.659067,354.92637 l 0.10089,-0.30264 z"
   inkscape:label="path1949" /><path
   d="m 184.30246,539.15819 c 0,0.0949 0.18794,0.28048 0.18794,0.28048 0,0 164.64137,-257.91535 164.64137,-341.63114 0,-123.206156 -83.44836,-175.200574 -164.82931,-173.823379 C 102.9215,25.74016 19.473108,80.947377 19.473108,204.15352 c 0,83.71579 164.735362,335.29057 164.735362,335.29057 l 0.0941,-0.2859 z"
   id="path34-6"
   inkscape:connector-curvature="0"
   style="display:inline;fill:#008000;stroke:#008000;stroke-width:21.46463203;stroke-miterlimit:4;stroke-dasharray:none;stroke-opacity:0"
   sodipodi:nodetypes="ccscsccc" /><path
   class="st2"
   d="m 156.79957,209.27781 c 8.3,-1.7 16.8,-3.1 25.3,-4.1 -36.2,-2.8 -73.1,1.1 -107.9,11.2 v 22.7 c 25.9,-13.8 53.7,-23.8 82.6,-29.8 z"
   id="path8703"
   inkscape:connector-curvature="0"
   style="fill:#8dd35f;fill-opacity:1" /><g
   transform="translate(69.49957,106.77781)"
   id="g8709"
   style="fill:#8dd35f;fill-opacity:1"><path
     class="st1"
     d="m 141.8,103.8 c -17.8,0.5 -35.6,2.6 -53.1,6.2 -24.6,5.1 -48.3,13.2 -70.8,24.1 -4.5,2.3 -9,4.8 -13.3,7.5 v 35.6 H 31 c 32.7,-37 70.8,-62.4 110.8,-73.4 z"
     id="path8705"
     inkscape:connector-curvature="0"
     style="fill:#8dd35f;fill-opacity:1" /><path
     class="st1"
     d="m 82,141.2 c 22.4,-13.3 43.3,-22.8 57.7,-28.8 -19.9,6.1 -39.3,15.8 -57.7,28.8 z"
     id="path8707"
     inkscape:connector-curvature="0"
     style="fill:#8dd35f;fill-opacity:1" /></g><path
   class="st0"
   d="m 237.19957,213.17781 c -45,5.7 -89.3,30.7 -126.5,70.8 h 74.3 c 14.1,-29 31.7,-53 52.2,-70.8 z"
   id="path8711"
   inkscape:connector-curvature="0"
   style="fill:#8dd35f;fill-opacity:1" /><g
   transform="translate(69.49957,106.77781)"
   id="g8717"
   style="fill:#8dd35f;fill-opacity:1"><path
     class="st0"
     d="m 134.2,143.7 c -0.3,0.4 -0.4,0.9 -0.3,1.4 1.1,-1.7 2.3,-3.4 3.5,-5 -0.4,0.2 -0.7,0.4 -1,0.6 z"
     id="path8713"
     inkscape:connector-curvature="0"
     style="fill:#8dd35f;fill-opacity:1" /><path
     class="st0"
     d="M 186.5,32.6 H 181 110.6 c -0.6,0 -1.1,-0.2 -1.4,-0.6 L 92.7,14 85.6,6.2 c -1,-1.1 -2.5,-1.8 -4,-1.8 H 49.3 c -6.7,0 -12.5,3.9 -15.2,9.6 -1.1,2.2 -1.7,4.7 -1.7,7.3 v 73.9 c 2.3,-0.4 4.7,-0.8 7,-1.2 V 21.2 c 0,-2.6 1,-5 2.7,-6.8 0.4,-0.4 0.9,-0.6 1.4,-0.6 h 38.7 c 0.6,0 1.1,0.2 1.4,0.6 L 105,37.8 c 1,1.1 2.5,1.8 4,1.8 h 72 5.6 c 6.5,0 11.8,5.3 11.8,11.8 V 128 c 0,6.5 -5.3,11.8 -11.8,11.8 H 181 147 c -1.7,2.3 -3.4,4.6 -5.1,7 h 39.1 5.6 c 10.4,0 18.8,-8.4 18.8,-18.8 V 51.4 C 205.4,41 197,32.6 186.5,32.6 Z"
     id="path8715"
     inkscape:connector-curvature="0"
     style="fill:#8dd35f;fill-opacity:1" /></g></svg>