<svg xmlns="http://www.w3.org/2000/svg" style="display: none;"><symbol id="exit" viewBox="0 0 27.965 27.965"><title>exit</title><path d="M13.98,0C6.259,0,0,6.261,0,13.983c0,7.721,6.259,13.982,13.98,13.982c7.725,0,13.985-6.262,13.985-13.982 C27.965,6.261,21.705,0,13.98,0z M19.992,17.769l-2.227,2.224c0,0-3.523-3.78-3.786-3.78c-0.259,0-3.783,3.78-3.783,3.78 l-2.228-2.224c0,0,3.784-3.472,3.784-3.781c0-0.314-3.784-3.787-3.784-3.787l2.228-2.229c0,0,3.553,3.782,3.783,3.782 c0.232,0,3.786-3.782,3.786-3.782l2.227,2.229c0,0-3.785,3.523-3.785,3.787C16.207,14.239,19.992,17.769,19.992,17.769z"/></symbol><symbol id="ui" viewBox="0 0 448 448"><title>ui</title><path d="m128 168h192v-16h-192zm0 0"/><path d="m224 0c-123.710938 0-224 100.289062-224 224s100.289062 224 224 224 224-100.289062 224-224c-.140625-123.652344-100.347656-223.859375-224-224zm112 176c0 4.417969-3.582031 8-8 8h-8.761719l-15.238281 152.800781c-.414062 4.101563-3.875 7.21875-8 7.199219h-144c-4.125.019531-7.585938-3.097656-8-7.199219l-15.199219-152.800781h-8.800781c-4.417969 0-8-3.582031-8-8v-32c0-4.417969 3.582031-8 8-8h81.472656c-.949218-2.5625-1.445312-5.269531-1.472656-8 0-13.253906 10.746094-24 24-24s24 10.746094 24 24c-.027344 2.730469-.523438 5.4375-1.472656 8h81.472656c4.417969 0 8 3.582031 8 8zm0 0"/><path d="m159.238281 328h129.5625l14.398438-144h-158.359375zm96.800781-104.992188c.292969-2.886718 2.125-5.390624 4.792969-6.542968 2.664063-1.148438 5.746094-.761719 8.046875 1.007812 2.300782 1.769532 3.460938 4.648438 3.03125 7.519532l-8 64c-.496094 3.992187-3.886718 6.996093-7.910156 7.007812-.335938 0-.667969-.023438-1-.0625-4.382812-.550781-7.492188-4.546875-6.945312-8.929688zm-40.039062.992188c0-4.417969 3.582031-8 8-8s8 3.582031 8 8v64c0 4.417969-3.582031 8-8 8s-8-3.582031-8-8zm-32.992188-7.9375c4.382813-.546875 8.378907 2.5625 8.929688 6.945312l8 64c.546875 4.382813-2.5625 8.378907-6.945312 8.929688-.328126.039062-.660157.058594-.992188.0625-4.03125-.003906-7.429688-3.007812-7.929688-7.007812l-8-64c-.546874-4.378907 2.558594-8.375 6.9375-8.929688zm0 0"/><path d="m232 128c0 4.417969-3.582031 8-8 8s-8-3.582031-8-8 3.582031-8 8-8 8 3.582031 8 8zm0 0"/></symbol></svg>