<svg version="1.1" id="Ebene_1" xmlns="http://www.w3.org/2000/svg" xmlns:xlink="http://www.w3.org/1999/xlink" x="0px" y="0px"
	 width="66px" height="40px" viewBox="0 0 66 40" enable-background="new 0 0 66 40" xml:space="preserve">
<g>
	<path fill="#FFFFFF" d="M20.945,23.961c0.747-1.469,1.45-2.97,2.112-4.484c0.662-1.522,1.284-2.993,1.863-4.414
		c0.581-1.423,1.127-2.759,1.638-4.014c0.511-1.257,0.989-2.351,1.43-3.279c0.442-0.933,0.853-1.668,1.229-2.204
		c0.38-0.539,0.728-0.806,1.047-0.806c-0.938,0-2.01-0.084-3.218-0.245c-1.21-0.16-2.479-0.362-3.808-0.608
		c-1.33-0.246-2.68-0.492-4.051-0.744s-2.803-0.514-4.289-0.787c-1.486-0.272-2.664-0.492-3.534-0.651
		c-0.867-0.159-1.688-0.238-2.461-0.238c-0.955,0-1.764,0.121-2.429,0.367C5.812,2.096,5.269,2.424,4.852,2.834
		c-0.42,0.41-0.722,0.885-0.91,1.429c-0.187,0.543-0.28,1.112-0.28,1.71c0,0.754,0.138,1.521,0.415,2.29
		c0.276,0.773,0.651,1.469,1.128,2.092c0.474,0.623,1.024,1.132,1.652,1.524c0.631,0.394,1.302,0.594,2.018,0.594
		c1.361,0,2.484-0.117,3.364-0.352s1.58-0.532,2.104-0.888c0.521-0.356,0.902-0.743,1.142-1.157s0.403-0.801,0.488-1.157
		c0.084-0.358,0.131-0.653,0.136-0.888c0.004-0.234,0.041-0.352,0.109-0.352c0.109,0,0.225,0.042,0.342,0.129
		c0.117,0.084,0.219,0.194,0.31,0.328c0.091,0.131,0.161,0.281,0.217,0.444c0.057,0.167,0.083,0.324,0.083,0.474
		c0,0.862-0.188,1.626-0.571,2.291c-0.379,0.665-0.889,1.225-1.528,1.677c-0.639,0.452-1.37,0.794-2.198,1.028
		c-0.825,0.233-1.68,0.351-2.56,0.351c-1.325,0-2.518-0.243-3.576-0.732s-1.962-1.127-2.711-1.909
		C3.277,10.978,2.704,10.104,2.3,9.142C1.897,8.179,1.695,7.219,1.695,6.258c0-0.744,0.133-1.461,0.397-2.154
		c0.265-0.69,0.68-1.303,1.245-1.826c0.566-0.527,1.286-0.949,2.16-1.263C6.37,0.7,7.411,0.544,8.618,0.544
		c1.824,0,3.245,0.083,4.261,0.254c1.015,0.167,2.073,0.347,3.174,0.528c1.103,0.184,2.365,0.395,3.79,0.632
		c1.426,0.237,2.566,0.428,3.414,0.568c0.852,0.145,1.875,0.308,3.071,0.497c1.199,0.187,2.344,0.281,3.443,0.281
		c1.255,0,2.513-0.108,3.775-0.332c1.263-0.221,2.595-0.602,4-1.137c0.105,0.053,0.226,0.114,0.358,0.188
		c0.134,0.07,0.256,0.15,0.368,0.238c0.112,0.087,0.203,0.181,0.278,0.278s0.112,0.198,0.112,0.3c0,0.174-0.121,0.338-0.368,0.487
		c-0.531,0.326-1,0.583-1.405,0.773s-0.777,0.337-1.116,0.446c-0.34,0.106-0.67,0.179-0.991,0.212
		c-0.318,0.031-0.653,0.047-1.005,0.047c-0.363,0-0.752-0.007-1.166-0.022C32.197,4.767,31.7,4.76,31.127,4.76
		c-1.33,4.323-2.604,8.183-3.824,11.571c-1.219,3.392-2.451,6.354-3.699,8.88l0.062,0.077c0.29,0.413,0.648,0.701,1.08,0.879
		c0.433,0.172,0.919,0.264,1.463,0.264c0.468,0,0.968-0.065,1.494-0.188c0.527-0.123,1.059-0.282,1.595-0.477
		c0.539-0.195,1.072-0.421,1.606-0.677c0.532-0.252,1.038-0.511,1.516-0.767c0.576-0.312,1.141-0.647,1.693-0.999
		s1.117-0.723,1.693-1.128c0.127-0.061,0.243-0.095,0.352-0.095c0.117,0,0.206,0.04,0.269,0.12c0.066,0.079,0.097,0.175,0.097,0.292
		c0,0.149-0.059,0.322-0.176,0.504c-0.117,0.188-0.298,0.354-0.541,0.504c-0.618,0.427-1.238,0.826-1.861,1.206
		c-0.62,0.38-1.259,0.733-1.907,1.062c-0.556,0.291-1.141,0.567-1.757,0.828c-0.618,0.268-1.247,0.506-1.892,0.722
		c-0.645,0.21-1.293,0.384-1.949,0.511c-0.652,0.126-1.291,0.191-1.909,0.191c-0.853,0-1.613-0.126-2.275-0.384
		c-0.227,0.383-0.452,0.749-0.683,1.104s-0.459,0.702-0.682,1.045c1.1,0.609,2.172,1.222,3.215,1.846
		c1.04,0.624,2.021,1.23,2.94,1.812c0.921,0.583,1.773,1.134,2.556,1.655c0.782,0.52,1.466,0.984,2.052,1.395
		c0.585,0.402,1.059,0.741,1.422,1.003c0.36,0.269,0.585,0.442,0.669,0.518c0.256,0.21,0.441,0.439,0.551,0.679
		c0.113,0.238,0.169,0.461,0.169,0.664c0,0.184-0.042,0.334-0.129,0.444C34.252,39.938,34.135,40,33.984,40
		c-0.181,0-0.37-0.071-0.566-0.206c-0.196-0.142-0.417-0.381-0.663-0.724c-0.159-0.201-0.44-0.47-0.846-0.797
		c-0.405-0.334-0.903-0.709-1.501-1.136c-0.595-0.428-1.278-0.891-2.052-1.389c-0.771-0.491-1.604-1-2.499-1.526
		c-0.892-0.521-1.839-1.054-2.833-1.594c-0.995-0.535-2.016-1.059-3.065-1.561c-0.802,1.05-1.639,1.962-2.509,2.724
		c-0.873,0.769-1.79,1.401-2.752,1.904c-0.961,0.505-1.982,0.873-3.058,1.113c-1.075,0.247-2.22,0.365-3.44,0.365
		c-1.324,0-2.48-0.212-3.469-0.626c-0.991-0.419-1.813-0.962-2.471-1.63c-0.658-0.67-1.149-1.433-1.479-2.278
		c-0.326-0.853-0.492-1.712-0.492-2.578c0-1.023,0.129-1.888,0.382-2.599c0.254-0.711,0.611-1.288,1.076-1.729
		c0.465-0.444,1.022-0.767,1.679-0.968c0.652-0.201,1.376-0.306,2.169-0.306c0.863,0,1.797,0.105,2.8,0.31
		c1.005,0.205,2.049,0.491,3.138,0.85c1.09,0.359,2.207,0.783,3.354,1.27c1.145,0.491,2.29,1.011,3.431,1.57
		c0.247-0.366,0.481-0.73,0.705-1.105c0.226-0.369,0.448-0.749,0.674-1.131L20.945,23.961z M8.698,35.718
		c0.819,0,1.61-0.139,2.376-0.42c0.769-0.288,1.512-0.687,2.228-1.204c0.72-0.516,1.413-1.135,2.078-1.854
		c0.665-0.715,1.312-1.504,1.939-2.369c-1.033-0.455-2.064-0.875-3.09-1.253c-1.028-0.385-2.025-0.719-2.993-0.997
		c-0.97-0.277-1.895-0.498-2.781-0.656c-0.883-0.157-1.704-0.235-2.461-0.235c-0.633,0-1.184,0.099-1.655,0.289
		c-0.472,0.185-0.857,0.44-1.164,0.756c-0.308,0.314-0.538,0.687-0.688,1.104c-0.153,0.422-0.23,0.857-0.23,1.312
		c0,0.631,0.138,1.271,0.413,1.93c0.275,0.658,0.684,1.253,1.226,1.789c0.539,0.537,1.214,0.971,2.019,1.31
		C6.718,35.552,7.647,35.718,8.698,35.718z"/>
	<path fill="#FFFFFF" d="M54.401,17.702c0.473-0.608,0.984-1.126,1.547-1.526c0.566-0.4,1.156-0.703,1.773-0.9
		c0.619-0.197,1.215-0.297,1.797-0.297c0.594,0,1.09,0.156,1.479,0.474c0.389,0.315,0.584,0.802,0.584,1.466
		c0,0.41-0.148,0.839-0.445,1.281c-0.291,0.444-0.689,0.888-1.203,1.323c-0.5,0.434-1.1,0.837-1.781,1.215
		c-0.686,0.372-1.408,0.693-2.18,0.949c0,0.515-0.006,1.005-0.025,1.468c-0.014,0.464-0.02,0.897-0.02,1.303
		c0,0.346,0.008,0.659,0.031,0.942c0.02,0.289,0.064,0.529,0.135,0.727c0.072,0.2,0.166,0.355,0.295,0.469
		c0.121,0.113,0.279,0.167,0.475,0.167c0.295,0,0.662-0.121,1.088-0.364c0.42-0.249,0.957-0.562,1.604-0.938
		c0.582-0.348,1.324-0.782,2.227-1.308c0.902-0.52,2.004-1.154,3.303-1.91c0.041-0.027,0.104-0.047,0.18-0.047
		c0.117,0,0.225,0.049,0.314,0.152s0.133,0.228,0.133,0.378c0,0.126-0.043,0.268-0.133,0.412c-0.088,0.149-0.256,0.294-0.49,0.43
		c-1.047,0.628-2.074,1.269-3.062,1.909c-0.988,0.647-1.922,1.232-2.805,1.757c-0.873,0.53-1.688,0.961-2.432,1.293
		c-0.744,0.338-1.396,0.503-1.949,0.503c-0.375,0-0.701-0.078-0.982-0.234c-0.279-0.157-0.52-0.406-0.721-0.752
		c-0.197-0.346-0.342-0.802-0.443-1.359c-0.105-0.558-0.154-1.242-0.154-2.046c0-0.132,0.008-0.337,0.027-0.62
		c0.012-0.289,0.041-0.59,0.076-0.921c0.037-0.325,0.08-0.644,0.131-0.956C52.772,22.14,53.392,19.01,54.401,17.702z M59.851,17.045
		c0.023-0.061,0.033-0.132,0.033-0.208c0-0.269-0.045-0.468-0.133-0.595c-0.096-0.133-0.242-0.192-0.459-0.192
		c-0.244,0-0.531,0.091-0.852,0.279c-0.32,0.189-0.631,0.465-0.938,0.829c-0.307,0.369-0.572,0.821-0.818,1.369
		c-0.24,0.548-0.402,1.175-0.486,1.889c0.438-0.227,0.865-0.489,1.283-0.781c0.414-0.297,0.793-0.601,1.131-0.9
		c0.334-0.308,0.611-0.61,0.832-0.908C59.665,17.533,59.8,17.271,59.851,17.045z"/>
	<path fill="#FFFFFF" d="M33.28,24.09c-0.215,2.096-0.105,0.922-0.143,1.353c-0.038,0.432-0.057,0.832-0.057,1.192
		c0,0.253,0.067,0.463,0.199,0.617c0.133,0.154,0.3,0.271,0.497,0.352c0.196,0.079,0.411,0.144,0.646,0.146
		c1.083,0.016,1.816-0.562,2.194-0.828c0.379-0.268,0.796-0.565,1.253-0.908c0.459-0.342,4.19-2.942,5.797-4.071
		c0,0-0.758,5.669-0.71,5.895c0.048,0.219,0.137,0.418,0.272,0.596c0.13,0.173,0.318,0.314,0.557,0.412
		c0.241,0.104,0.553,0.151,0.936,0.151c0.128,0,0.257-0.003,0.384-0.013c0.126-0.009,0.249-0.029,0.366-0.047
		c0.247-0.042,0.669-0.218,1.278-0.523c0.604-0.299,1.342-0.693,2.213-1.186c0.867-0.493,1.838-1.051,2.904-1.679
		c0.359-0.208,0.734-0.431,1.104-0.651v-1.317l-1.607,0.948c-0.5,0.285-0.994,0.576-1.49,0.861
		c-0.498,0.285-0.949,0.553-1.367,0.796c-0.416,0.249-0.771,0.458-1.061,0.637c-0.295,0.173-0.494,0.291-0.602,0.357v-4.123
		c0-0.543-0.055-0.974-0.168-1.292c-0.111-0.318-0.252-0.562-0.432-0.735c-0.172-0.168-0.375-0.279-0.595-0.325
		c-0.226-0.047-0.45-0.073-0.671-0.073c-0.311,0-0.609,0.042-0.896,0.126c-0.287,0.09-0.557,0.188-0.807,0.306
		s-0.473,0.243-0.67,0.384c-0.196,0.142-3.761,2.513-4.305,2.851c-0.541,0.338-1.187,0.785-1.628,0.994
		c-0.438,0.214,0.958-6.147,0.958-6.147L55.708,7.931c1.246-0.767,2.184-1.552,2.811-2.359c0.627-0.805,0.941-1.574,0.941-2.311
		c0-0.465-0.137-0.895-0.412-1.289c-0.277-0.396-0.699-0.742-1.268-1.037c-0.561-0.295-1.275-0.525-2.146-0.688
		C54.767,0.081,53.749,0,52.577,0c-1.404,0-2.729,0.228-3.965,0.68c-1.242,0.451-2.404,1.061-3.485,1.826
		C44.05,3.274,43.045,4.16,42.12,5.164c-0.928,1.008-1.778,2.063-2.556,3.172c-0.777,1.104-1.473,2.225-2.092,3.351
		C36.854,12.815,33.702,19.962,33.28,24.09z M38.702,14.938c0.34-0.8,0.747-1.633,1.22-2.496c0.477-0.863,1.006-1.74,1.592-2.632
		c0.585-0.889,1.213-1.749,1.883-2.582c0.671-0.833,1.379-1.614,2.122-2.343c0.748-0.73,1.516-1.368,2.312-1.912
		c0.791-0.545,1.6-0.974,2.414-1.288c0.826-0.314,1.639-0.472,2.459-0.472c1.756,0,3.041,0.157,3.852,0.472s1.213,0.739,1.213,1.271
		c0,0.418-0.221,0.887-0.656,1.407c-0.436,0.522-1.059,1.088-1.869,1.695c-1.391,0.801-2.826,1.656-4.303,2.569
		c-1.477,0.909-2.951,1.841-4.438,2.791c-1.483,0.947-2.952,1.904-4.399,2.871c-1.447,0.965-2.841,1.897-4.184,2.808
		C38.101,16.454,38.36,15.737,38.702,14.938z"/>
</g>
</svg>