<svg version="1.1" id="home-signature" xmlns="http://www.w3.org/2000/svg" xmlns:xlink="http://www.w3.org/1999/xlink" x="0px"
	 y="0px" width="230px" height="70px" viewBox="0 0 230 70" enable-background="new 0 0 230 70" xml:space="preserve">
<path fill="none" stroke="#353535" stroke-width="1.3" stroke-linecap="round" stroke-linejoin="round" stroke-miterlimit="10" d="
	M34.884,68.313l1.686-0.602c4.814-2.006,6.519-4.012,6.519-4.012s2.224-21.449,0.902-22.466c-1.303-1.004-3.009,15.544-0.2,23.97
	c2.155,6.466,10.294-0.612,10.294-0.612s11.971-9.687,13.575-18.944c-1.755,0.352-9.899,20.368,13.389,21.006
	c16.598,0.456,35.854-12.982,70.456-13.785c15.467-0.358,46.203,1.71,46.203,1.71"/>
<g>
	<path fill="#353535" d="M212.912,58.741c-0.029,0.032-0.057,0.065-0.086,0.097c0.038,0.007,0.073,0.021,0.08-0.009
		C212.9,58.791,212.905,58.766,212.912,58.741z"/>
	<path fill="#353535" d="M213.005,58.635c-0.005,0.006-0.01,0.011-0.016,0.018c0.015-0.007,0.025-0.013,0.04-0.02
		C213.021,58.633,213.013,58.634,213.005,58.635z"/>
	<path fill="#353535" d="M213.092,58.6c0.032-0.021,0.062-0.042,0.084-0.078C213.131,58.542,213.106,58.567,213.092,58.6z"/>
	<path fill="#353535" d="M213.092,58.6c-0.021,0.011-0.043,0.021-0.062,0.033l0,0c0.028-0.005,0.041,0.018,0.049,0.043
		C213.076,58.65,213.081,58.623,213.092,58.6z"/>
	<path fill="#353535" d="M213.088,58.746c-0.006-0.015-0.006-0.046-0.01-0.07C213.078,58.699,213.081,58.723,213.088,58.746z"/>
	<path fill="#353535" d="M213.127,59.133c-0.031,0.063-0.058,0.124-0.086,0.184c0.028-0.039,0.051-0.081,0.091-0.109
		c0.165-0.086,0.335-0.149,0.501-0.228c0.171-0.131,0.31-0.208,0.494-0.361c0.117-0.104-0.22-0.063-0.325-0.02
		c-0.057,0.006,0.017,0.177-0.039,0.185c-0.069,0.07-0.182,0.083-0.286,0.124c-0.055,0.007,0.056,0.114,0.03,0.119
		C213.381,59.101,213.161,59.038,213.127,59.133z"/>
	<path fill="#353535" d="M212.226,59.571c-0.007,0.04,0.029,0.072,0.054,0.107c0.095-0.071,0.164-0.164,0.184-0.315
		c-0.013,0.061,0.023,0.086,0.072,0.051c-0.008-0.028-0.015-0.059-0.023-0.088c-0.104,0.043-0.21,0.085-0.2,0.234
		C212.312,59.561,212.255,59.569,212.226,59.571z"/>
	<path fill="#353535" d="M212.279,59.679c-0.02,0.014-0.038,0.028-0.06,0.04c0,0.001,0.004,0.003,0.004,0.006
		c0.02-0.012,0.042-0.023,0.062-0.034C212.284,59.686,212.282,59.683,212.279,59.679z"/>
	<path fill="#353535" d="M220.295,59.059c0.032,0.028,0.065,0.057,0.097,0.084c0.007-0.035,0.022-0.072-0.012-0.079
		C220.345,59.068,220.318,59.067,220.295,59.059z"/>
	<path fill="#353535" d="M220.205,58.98c-0.007-0.012-0.014-0.024-0.02-0.04c0,0.011,0.002,0.017,0.003,0.023
		C220.194,58.97,220.2,58.976,220.205,58.98z"/>
	<path fill="#353535" d="M220.078,58.796c0.018,0.042,0.043,0.069,0.074,0.083C220.135,58.848,220.11,58.817,220.078,58.796z"/>
	<path fill="#353535" d="M220.229,58.895c-0.027,0.001-0.053-0.005-0.076-0.016c0.012,0.021,0.023,0.043,0.033,0.062l0,0
		C220.18,58.913,220.204,58.9,220.229,58.895z"/>
	<path fill="#353535" d="M220.299,58.883c-0.016,0.004-0.046,0.004-0.07,0.012C220.252,58.895,220.275,58.89,220.299,58.883z"/>
	<path fill="#353535" d="M220.337,58.208c0.067,0.069,0.082,0.181,0.125,0.287c0.006,0.055,0.113-0.059,0.118-0.031
		c0.073,0.127,0.009,0.344,0.104,0.378c0.065,0.032,0.126,0.061,0.186,0.086c-0.04-0.025-0.081-0.05-0.11-0.09
		c-0.087-0.164-0.149-0.335-0.227-0.501c-0.131-0.17-0.21-0.31-0.362-0.492c-0.103-0.118-0.062,0.218-0.019,0.323
		C220.156,58.224,220.329,58.15,220.337,58.208z"/>
	<path fill="#353535" d="M220.968,59.438c-0.028,0.007-0.059,0.014-0.087,0.02c0.042,0.106,0.084,0.211,0.233,0.202
		c0,0,0.006,0.057,0.01,0.084c0.039,0.008,0.073-0.027,0.108-0.052c-0.072-0.096-0.164-0.166-0.316-0.185
		C220.976,59.521,221.003,59.485,220.968,59.438z"/>
	<path fill="#353535" d="M221.244,59.685c-0.005,0.001-0.008,0.006-0.012,0.007c0.013,0.018,0.027,0.036,0.04,0.059
		c0.001-0.001,0.003-0.001,0.003-0.001C221.264,59.727,221.254,59.707,221.244,59.685z"/>
	<path fill="#353535" d="M211.757,51.567c0.236,0.261,0.66,0.791,1.018,0.952c0.95,0.395,1.409,1.148,2.203,1.686
		c0.399,0.268,0.786,0.562,1.173,0.884c0.055,0.048,0.11,0.097,0.163,0.145c-0.405,0.44-0.806,0.858-1.188,1.339
		c-0.086,0.105-0.174,0.21-0.259,0.314c-0.044,0.056-0.088,0.107-0.13,0.16c0,0.006-0.001,0.017-0.005,0.024
		c-0.001-0.007-0.001-0.013-0.001-0.019c-0.011,0.016-0.021,0.028-0.033,0.039c0.026,0.081-0.034,0.113-0.095,0.146
		c-0.016,0.007-0.032,0.019-0.051,0.029c-0.059,0.07-0.115,0.139-0.177,0.209c0.01-0.001,0.017-0.005,0.023-0.005
		c0.005-0.001,0.01-0.002,0.012-0.006l0,0c0.004,0,0.004,0,0.004,0c0.014-0.009,0.03-0.015,0.05-0.024
		c0-0.005,0.003-0.007,0.006-0.012c0.012-0.005,0.021-0.011,0.032-0.018c-0.012,0.011-0.025,0.019-0.038,0.029
		c-0.014,0.022-0.017,0.047-0.015,0.076c0.006,0.025,0.006,0.054,0.009,0.068c-0.006-0.021-0.009-0.048-0.009-0.068
		c-0.008-0.026-0.021-0.048-0.048-0.046c0,0,0,0-0.003,0c-0.013,0.009-0.024,0.016-0.037,0.022c-0.026,0.031-0.052,0.06-0.078,0.09
		c-0.007,0.023-0.012,0.052-0.006,0.084c-0.007,0.033-0.042,0.019-0.079,0.013c-0.183,0.202-0.374,0.405-0.588,0.609
		c0,0-0.038,0.18-0.019,0.27c0.021-0.014,0.039-0.025,0.06-0.039c-0.024-0.035-0.062-0.067-0.054-0.107
		c0.029-0.003,0.085-0.01,0.085-0.01c-0.009-0.15,0.095-0.193,0.2-0.235c0.008,0.029,0.017,0.059,0.023,0.087
		c-0.048,0.035-0.085,0.011-0.071-0.052c-0.02,0.153-0.091,0.246-0.184,0.317c0.001,0.002,0.005,0.007,0.007,0.011
		c0.189-0.094,0.399-0.189,0.598-0.257c0.027-0.009,0.056-0.018,0.082-0.026c0.031-0.023,0.055-0.056,0.077-0.09
		c0.025-0.06,0.052-0.121,0.084-0.186c0.034-0.094,0.252-0.03,0.379-0.106c0.026-0.003-0.085-0.109-0.031-0.116
		c0.105-0.043,0.219-0.057,0.287-0.125c0.056-0.007-0.016-0.179,0.04-0.186c0.105-0.043,0.441-0.084,0.324,0.021
		c-0.184,0.149-0.323,0.23-0.493,0.361c0.184-0.087,0.361-0.188,0.525-0.351c0.103-0.102,0.185-0.291,0.331-0.4
		c0.231-0.119,0.516-0.197,0.723-0.404c0.205-0.223,0.417-0.42,0.632-0.612c0.293,0.269,0.586,0.534,0.907,0.791
		c0.108,0.089,0.214,0.176,0.316,0.261c0.054,0.044,0.107,0.087,0.161,0.132c0.007,0,0.013,0,0.023,0.001
		c-0.007,0.001-0.012,0.001-0.017,0.004c0.012,0.012,0.026,0.021,0.038,0.031c0.081-0.024,0.113,0.035,0.145,0.097
		c0.008,0.017,0.019,0.032,0.031,0.049c0.069,0.06,0.14,0.116,0.208,0.177c-0.001-0.01-0.002-0.017-0.006-0.024
		c-0.001-0.004-0.002-0.006-0.005-0.012l0,0l0,0c-0.008-0.017-0.018-0.033-0.026-0.051c-0.004-0.001-0.005-0.004-0.01-0.007
		c-0.006-0.011-0.012-0.023-0.019-0.033c0.011,0.014,0.022,0.025,0.028,0.04c0.023,0.012,0.05,0.015,0.077,0.015
		c0.024-0.006,0.056-0.006,0.068-0.012c-0.023,0.008-0.045,0.012-0.068,0.012c-0.027,0.006-0.048,0.02-0.046,0.048l0,0
		c0.007,0.014,0.016,0.026,0.022,0.038c0.03,0.026,0.06,0.052,0.091,0.08c0.023,0.007,0.049,0.01,0.083,0.004
		c0.034,0.008,0.018,0.044,0.013,0.08c0.202,0.181,0.406,0.372,0.61,0.587c0,0,0.18,0.038,0.27,0.02
		c-0.014-0.021-0.026-0.042-0.04-0.06c-0.034,0.026-0.068,0.062-0.107,0.052c-0.002-0.025-0.009-0.083-0.009-0.083
		c-0.149,0.01-0.193-0.097-0.235-0.202c0.029-0.007,0.057-0.013,0.087-0.021c0.035,0.049,0.01,0.084-0.051,0.071
		c0.151,0.02,0.243,0.089,0.315,0.183c0.002-0.001,0.008-0.004,0.012-0.007c-0.095-0.19-0.189-0.4-0.257-0.598
		c-0.009-0.026-0.02-0.056-0.026-0.083c-0.025-0.031-0.057-0.055-0.091-0.075c-0.059-0.025-0.12-0.053-0.186-0.086
		c-0.094-0.035-0.029-0.251-0.107-0.378c-0.001-0.028-0.107,0.086-0.115,0.03c-0.042-0.105-0.058-0.219-0.124-0.286
		c-0.007-0.058-0.18,0.016-0.188-0.04c-0.042-0.104-0.083-0.442,0.022-0.323c0.15,0.183,0.231,0.321,0.359,0.493
		c-0.084-0.185-0.187-0.361-0.348-0.525c-0.102-0.104-0.292-0.186-0.401-0.332c-0.118-0.231-0.198-0.514-0.403-0.724
		c-0.044-0.037-0.084-0.078-0.125-0.118c0.257-0.246,0.499-0.507,0.707-0.812c0.135-0.151,0.28-0.261,0.373-0.407
		c0.373-0.586,1.26-0.805,1.229-1.614c-0.007-0.544,0.613-0.914,0.462-0.493c0.182-0.655,0.564-0.592,0.366-1.199
		c-0.01-0.042-0.312-0.689-0.826-0.537c-0.261,0.237-0.792,0.663-0.953,1.018c-0.394,0.951-1.149,1.411-1.687,2.203
		c-0.187,0.278-0.388,0.554-0.602,0.823c-0.348-0.393-0.703-0.771-1.155-1.077c-0.152-0.136-0.261-0.281-0.406-0.374
		c-0.588-0.372-0.806-1.262-1.613-1.229c-0.546,0.009-0.915-0.612-0.497-0.462c-0.652-0.18-0.591-0.565-1.197-0.365
		C212.252,50.75,211.607,51.052,211.757,51.567z M218.114,56.76c0.102-0.007,0.18,0.034,0.206,0.099
		C218.22,56.87,218.127,56.864,218.114,56.76z M215.211,56.561c0.005,0.102-0.033,0.181-0.099,0.207
		C215.101,56.67,215.106,56.573,215.211,56.561z"/>
</g>
<g>
	<path fill="#353535" d="M196.304,55.122c-0.351-0.02,0.325,0.06,2.049,0.081c0.237,0.003,0.473,0.009,0.699,0.015
		c0.118,0,0.233,0.005,0.354,0.006c0.008-0.003,0.018-0.009,0.035-0.016c-0.01,0.007-0.018,0.009-0.02,0.015
		c0.026,0.002,0.055,0.002,0.083,0.003c0.084-0.074,0.19-0.044,0.297-0.013c0.025,0.009,0.058,0.017,0.092,0.021
		c0.154,0.005,0.312,0.007,0.467,0.013c-0.015-0.007-0.023-0.013-0.036-0.017c-0.007-0.001-0.01-0.004-0.019-0.007l0,0l0,0
		c-0.027-0.009-0.058-0.018-0.087-0.025c-0.006,0.002-0.01,0-0.021,0c-0.02-0.006-0.039-0.013-0.06-0.016
		c0.03,0.006,0.057,0.008,0.08,0.016c0.044-0.006,0.082-0.019,0.118-0.037c0.029-0.022,0.069-0.043,0.079-0.057
		c-0.021,0.022-0.045,0.04-0.079,0.057c-0.029,0.021-0.044,0.047-0.013,0.069l0,0c0.026,0.007,0.051,0.014,0.072,0.02
		c0.068,0.001,0.136,0.004,0.204,0.007c0.04-0.007,0.076-0.023,0.115-0.051c0.055-0.016,0.072,0.026,0.103,0.06
		c0.461,0.021,0.935,0.052,1.434,0.1c0,0,0.281-0.085,0.385-0.159c-0.041-0.011-0.079-0.018-0.116-0.024
		c-0.018,0.044-0.027,0.096-0.09,0.113c-0.03-0.02-0.099-0.064-0.099-0.064c-0.192,0.107-0.363,0.045-0.528-0.019
		c0.032-0.025,0.062-0.049,0.095-0.073c0.1,0.017,0.101,0.064,0.007,0.094c0.227-0.083,0.421-0.084,0.615-0.051
		c0.003-0.002,0.005-0.01,0.01-0.014c-0.325-0.103-0.674-0.219-0.968-0.346c-0.04-0.014-0.085-0.033-0.125-0.052
		c-0.064-0.011-0.132-0.011-0.199-0.004c-0.106,0.016-0.217,0.032-0.339,0.049c-0.164,0.032-0.303-0.195-0.539-0.255
		c-0.033-0.023-0.057,0.146-0.125,0.104c-0.166-0.063-0.305-0.15-0.465-0.166c-0.07-0.044-0.228,0.133-0.297,0.09
		c-0.165-0.062-0.572-0.322-0.306-0.292c0.396,0.06,0.647,0.124,1.001,0.187c-0.308-0.102-0.631-0.187-1.02-0.22
		c-0.246-0.021-0.586,0.033-0.887-0.021c-0.401-0.121-0.8-0.31-1.297-0.353c-0.098-0.005-0.196-0.012-0.29-0.021 M198.149,54.684
		c0.174,0.006,0.296,0.061,0.327,0.134C198.303,54.816,198.148,54.798,198.149,54.684z"/>
</g>
<path fill="none" stroke="#353535" stroke-width="1.3" stroke-linecap="round" stroke-linejoin="round" stroke-miterlimit="10" d="
	M35.012,68.268c-1.331,0.613-2.554,0.473-2.554,0.473c-5.717-1.103,3.114-45.908,3.114-45.908S39.06,1.439,33.795,1.29
	C28.53,1.141,17.517,48.466,15.743,48.929c-1.774,0.463-2.508-26.477-5.215-25.524C7.821,24.358,4.509,66.079,2.404,66.53
	s0.601-36.456,0-36.355C1.804,30.275,1,31.378,1,31.378"/>
</svg>