<svg version="1.1" id="Ebene_1" xmlns="http://www.w3.org/2000/svg" xmlns:xlink="http://www.w3.org/1999/xlink" x="0px" y="0px"
	 width="860px" height="600px" viewBox="0 0 860 600" enable-background="new 0 0 860 600" xml:space="preserve">
<g opacity="0.4">
	<path fill="none" stroke="#D1CECD" stroke-linecap="round" stroke-miterlimit="10" d="M750.157,409.016
		c-1.158-1.63-16.097-26.089-21.23-39.213"/>
	<path fill="none" stroke="#D1CECD" stroke-linecap="round" stroke-miterlimit="10" d="M756.857,404.869
		c-2.206-2.043-10.592-14.945-17.786-26.659"/>
	<path fill="none" stroke="#D1CECD" stroke-linecap="round" stroke-miterlimit="10" d="M763.012,401.854
		c-0.883-1.002-17.333-21.637-23.488-31.418"/>
	<path fill="none" stroke="#D1CECD" stroke-linecap="round" stroke-miterlimit="10" d="M771.392,398.712
		c-1.895-1.78-29.521-34.272-38.962-45.274"/>
	<path fill="none" stroke="#D1CECD" stroke-linecap="round" stroke-miterlimit="10" d="M778.956,395.354
		c0.109-0.679-12.29-12.985-18.296-18.731"/>
	<path fill="none" stroke="#D1CECD" stroke-linecap="round" stroke-miterlimit="10" d="M779.891,373.729
		c0.085-0.545-41.747-32.155-50.93-37.904"/>
	<path fill="none" stroke="#D1CECD" stroke-linecap="round" stroke-miterlimit="10" d="M778.234,353.782
		c0.062-0.409-32.811-23.415-52.927-29.628"/>
	<path fill="none" stroke="#D1CECD" stroke-linecap="round" stroke-miterlimit="10" d="M765.242,330.666
		c-2.414-1.952-24.437-14.828-39.808-16.282"/>
	<path fill="none" stroke="#D1CECD" stroke-linecap="round" stroke-miterlimit="10" d="M754.812,317.514
		c-2.259-1.027-17.4-8.55-30.925-9.062"/>
	<path fill="none" stroke="#D1CECD" stroke-linecap="round" stroke-miterlimit="10" d="M747,308.531c0,0-14.887-6.535-23.291-5.775"
		/>
</g>
<path opacity="0.4" fill="none" stroke="#D1CECD" stroke-linecap="round" stroke-miterlimit="10" enable-background="new    " d="
	M779.607,364.211c0.062-0.408-26.122-19.929-40.87-28.838"/>
<path opacity="0.4" fill="none" stroke="#D1CECD" stroke-linecap="round" stroke-miterlimit="10" enable-background="new    " d="
	M774.001,343.682c-0.093-0.209-26.544-17.264-41.877-20.795"/>
<path opacity="0.4" fill="none" stroke="#D1CECD" stroke-linecap="round" stroke-miterlimit="10" enable-background="new    " d="
	M780.017,384.705c0,0-18.401-16.698-20.433-18.396"/>
<path opacity="0.4" fill="none" stroke="#D1CECD" stroke-linecap="round" stroke-miterlimit="10" enable-background="new    " d="
	M740.472,301.82c0,0-8.799-3.109-13.136-3.151"/>
<path opacity="0.4" fill="none" stroke="#D1CECD" stroke-linecap="round" stroke-miterlimit="10" enable-background="new    " d="
	M734.94,296.537c0,0-3.726-1.254-5.896-1.347"/>
<path opacity="0.4" fill="none" stroke="#D1CECD" stroke-linecap="round" stroke-miterlimit="10" enable-background="new    " d="
	M754.91,362.539c-0.481-0.536-5.831-5.4-8.33-7.488"/>
<path opacity="0.4" fill="none" stroke="#D1CECD" stroke-linecap="round" stroke-miterlimit="10" enable-background="new    " d="
	M757.64,373.566c0,0-11.295-11.557-12.53-12.455"/>
<path opacity="0.4" fill="none" stroke="#D1CECD" stroke-linecap="round" stroke-miterlimit="10" enable-background="new    " d="
	M767.189,400.416c0,0-7.135-8.609-10.604-12.923"/>
<path opacity="0.4" fill="none" stroke="#D1CECD" stroke-linecap="round" stroke-miterlimit="10" enable-background="new    " d="
	M745.692,411.803c-0.834-0.695-9.315-17.854-12.07-24.932"/>
<path opacity="0.4" fill="none" stroke="#D1CECD" stroke-linecap="round" stroke-miterlimit="10" enable-background="new    " d="
	M742.846,414.375c0,0-2.896-6.482-4.111-9.266"/>
<path opacity="0.4" fill="none" stroke="#D1CECD" stroke-linecap="round" stroke-miterlimit="10" enable-background="new    " d="
	M750.854,402.857c0,0-6.562-8.659-8.468-12.73"/>
<g opacity="0.4">
	<path fill="none" stroke="#D1CECD" stroke-linecap="round" stroke-miterlimit="10" d="M784.938,405.077
		c0,0-4.615-4.209-15.593-2.64"/>
	<path fill="none" stroke="#D1CECD" stroke-linecap="round" stroke-miterlimit="10" d="M785.864,411.066
		c-0.054-0.032-3.688-6.316-15.335-5.121"/>
	<path fill="none" stroke="#D1CECD" stroke-linecap="round" stroke-miterlimit="10" d="M786.764,417.831
		c-1.604-2.847-2.397-7.108-16.093-7.129"/>
	<path fill="none" stroke="#D1CECD" stroke-linecap="round" stroke-miterlimit="10" d="M787.248,423.182
		c-0.153-0.094-6.221-8.113-19.906-7.887"/>
	<path fill="none" stroke="#D1CECD" stroke-linecap="round" stroke-miterlimit="10" d="M787.592,428.067
		c-0.202-0.128-9.492-8.105-22.616-9.523"/>
	<path fill="none" stroke="#D1CECD" stroke-linecap="round" stroke-miterlimit="10" d="M787.643,435.003
		c-0.258-0.158-16.582-8.384-26.86-11.74"/>
	<path fill="none" stroke="#D1CECD" stroke-linecap="round" stroke-miterlimit="10" d="M787.787,440.867
		c-0.309-0.189-19.232-9.345-26.801-12.42"/>
	<path fill="none" stroke="#D1CECD" stroke-linecap="round" stroke-miterlimit="10" d="M787.775,447.133
		c-0.356-0.219-13.617-5.804-18.686-8.622"/>
	<path fill="none" stroke="#D1CECD" stroke-linecap="round" stroke-miterlimit="10" d="M785.463,452.451
		c-0.408-0.253-20.41-8.566-24.202-12.171"/>
	<path fill="none" stroke="#D1CECD" stroke-linecap="round" stroke-miterlimit="10" d="M782.05,456.23
		c-5.569,0.117-20.016-8.459-24.429-12.54"/>
	<path fill="none" stroke="#D1CECD" stroke-linecap="round" stroke-miterlimit="10" d="M778.708,459.711
		c-6.051,0.163-23.034-9.894-26.296-14.539"/>
	<path fill="none" stroke="#D1CECD" stroke-linecap="round" stroke-miterlimit="10" d="M775.017,463.611
		c-2.473,0.319-21.632-8.081-24.625-13.242"/>
	<path fill="none" stroke="#D1CECD" stroke-linecap="round" stroke-miterlimit="10" d="M770.684,467.86
		c-0.609-0.38-18.347-6.492-21.073-12.168"/>
	<path fill="none" stroke="#D1CECD" stroke-linecap="round" stroke-miterlimit="10" d="M765.655,471.882
		c-1.839-0.125-10.57-1.937-15.736-7.977"/>
	<path fill="none" stroke="#D1CECD" stroke-linecap="round" stroke-miterlimit="10" d="M760.566,476.291
		c-0.711-0.439-13.517-4.199-15.714-10.917"/>
	<path fill="none" stroke="#D1CECD" stroke-linecap="round" stroke-miterlimit="10" d="M755.352,479.709
		c-0.767-0.475-9.148-2.6-12.36-9.395"/>
	<path fill="none" stroke="#D1CECD" stroke-linecap="round" stroke-miterlimit="10" d="M747.749,483.288
		c-0.545-0.338-3.52-1.78-6.298-5.694"/>
</g>
<path opacity="0.4" fill="none" stroke="#D1CECD" stroke-linecap="round" stroke-miterlimit="10" enable-background="new    " d="
	M781.568,428.515c-0.121-0.277-5.753-2.948-10.328-4.56"/>
<path opacity="0.4" fill="none" stroke="#D1CECD" stroke-linecap="round" stroke-miterlimit="10" enable-background="new    " d="
	M783.747,400.415c0,0-1.886-1.709-5.156-1.125"/>
<path opacity="0.4" fill="none" stroke="#D1CECD" stroke-linecap="round" stroke-miterlimit="10" enable-background="new    " d="
	M752.11,481.543c0,0-5.14-2.337-6.415-3.667"/>
<path opacity="0.4" fill="none" stroke="#D1CECD" stroke-linecap="round" stroke-miterlimit="10" enable-background="new    " d="
	M716.31,357.205"/>
<g opacity="0.4">
	<path fill="none" stroke="#D1CECD" stroke-linecap="round" stroke-miterlimit="10" d="M716.141,357.301
		c0,0-3.597-1.295-12.884-1.807"/>
	<path fill="none" stroke="#D1CECD" stroke-linecap="round" stroke-miterlimit="10" d="M719.663,365.162
		c-0.24-0.16-21.445-5.74-34.126-5.464"/>
	<path fill="none" stroke="#D1CECD" stroke-linecap="round" stroke-miterlimit="10" d="M724.14,374.682
		c-3.803-3.547-16.411-6.964-32.781-10.207"/>
	<path fill="none" stroke="#D1CECD" stroke-linecap="round" stroke-miterlimit="10" d="M727.649,383.882
		c-4.189-3.375-22.572-11.396-33.333-14.374"/>
	<path fill="none" stroke="#D1CECD" stroke-linecap="round" stroke-miterlimit="10" d="M731.34,393.604
		c-15.245-10.152-24.13-13.502-34.448-17.967"/>
	<path fill="none" stroke="#D1CECD" stroke-linecap="round" stroke-miterlimit="10" d="M735.26,404.379
		c-5.672-6.46-35.229-21.701-44.825-26.713"/>
	<path fill="none" stroke="#D1CECD" stroke-linecap="round" stroke-miterlimit="10" d="M739.168,413.545
		c-12.528-9.727-42.021-23.754-52.027-30.763"/>
	<path fill="none" stroke="#D1CECD" stroke-linecap="round" stroke-miterlimit="10" d="M741.881,422.818
		c-12.239-9.484-28.726-18.482-40.9-26.442"/>
	<path fill="none" stroke="#D1CECD" stroke-linecap="round" stroke-miterlimit="10" d="M740.681,431.776
		c-35.042-26.196-37.38-25.684-48.979-35.815"/>
	<path fill="none" stroke="#D1CECD" stroke-linecap="round" stroke-miterlimit="10" d="M738.913,441.859
		c-14.532-12.634-34.916-24.685-44.717-35.33"/>
	<path fill="none" stroke="#D1CECD" stroke-linecap="round" stroke-miterlimit="10" d="M738.065,448.773
		c-2.426-1.607-43.177-31.766-54.354-45.771"/>
	<path fill="none" stroke="#D1CECD" stroke-linecap="round" stroke-miterlimit="10" d="M737.156,457.973
		c-12.081-12.18-45.913-39.83-63.161-55.834"/>
	<path fill="none" stroke="#D1CECD" stroke-linecap="round" stroke-miterlimit="10" d="M736.793,462.834
		c-2.91-1.929-18.266-12.428-34.609-28.785"/>
	<path fill="none" stroke="#D1CECD" stroke-linecap="round" stroke-miterlimit="10" d="M726.288,461.742
		c-3.15-2.091-14.407-10.802-30.697-27.001"/>
	<path fill="none" stroke="#D1CECD" stroke-linecap="round" stroke-miterlimit="10" d="M716.555,461.431
		c-3.02-3.053-8.068-5.421-17.758-15.173"/>
	<path fill="none" stroke="#D1CECD" stroke-linecap="round" stroke-miterlimit="10" d="M711.557,463.027
		c-6.336-1.936-41.908-33.412-49.24-59.699"/>
	<path fill="none" stroke="#D1CECD" stroke-linecap="round" stroke-miterlimit="10" d="M701.021,462.879
		c-3.879-2.572-25.282-17.717-38.396-44.58"/>
	<path fill="none" stroke="#D1CECD" stroke-linecap="round" stroke-miterlimit="10" d="M674.771,463.226
		c-3.543-2.959-21.225-33.219-21.515-58.104"/>
	<path fill="none" stroke="#D1CECD" stroke-linecap="round" stroke-miterlimit="10" d="M666.923,463.741
		c-3.043-4.932-11.612-16.156-16.067-44.668"/>
	<path fill="none" stroke="#D1CECD" stroke-linecap="round" stroke-miterlimit="10" d="M660.521,464.224
		c-2.253-4.135-7.639-7.793-12.354-37.631"/>
</g>
<path opacity="0.4" fill="none" stroke="#D1CECD" stroke-linecap="round" stroke-miterlimit="10" enable-background="new    " d="
	M740.173,436.515c0,0-12.964-10.088-23.599-16.638"/>
<path opacity="0.4" fill="none" stroke="#D1CECD" stroke-linecap="round" stroke-miterlimit="10" enable-background="new    " d="
	M690.34,462.926c0,0-12.208-12.053-18.323-20.608"/>
<path opacity="0.4" fill="none" stroke="#D1CECD" stroke-linecap="round" stroke-miterlimit="10" enable-background="new    " d="
	M681.889,463.16c0,0-10.603-11.861-16.168-23.406"/>
<path opacity="0.4" fill="none" stroke="#D1CECD" stroke-linecap="round" stroke-miterlimit="10" enable-background="new    " d="
	M699.099,355.293c0,0-5.78-0.055-7.995-0.051"/>
<path opacity="0.4" fill="none" stroke="#D1CECD" stroke-linecap="round" stroke-miterlimit="10" enable-background="new    " d="
	M692.9,431.609c-0.121-0.277-5.552-6.052-8.312-8.887"/>
<path opacity="0.4" fill="none" stroke="#D1CECD" stroke-linecap="round" stroke-miterlimit="10" enable-background="new    " d="
	M695.621,443.076c0,0-15.598-16.809-18.109-20.628"/>
<path opacity="0.4" fill="none" stroke="#D1CECD" stroke-linecap="round" stroke-miterlimit="10" enable-background="new    " d="
	M653.724,464.645c0,0-3.265-5.729-4.935-11.986"/>
<path opacity="0.4" fill="none" stroke="#D1CECD" stroke-linecap="round" stroke-miterlimit="10" enable-background="new    " d="
	M648.113,448.381c-0.729-1.671-0.589-4.381-1.367-10.864"/>
<g opacity="0.4">
	<path fill="none" stroke="#D1CECD" stroke-linecap="round" stroke-linejoin="round" stroke-miterlimit="10" d="M736.562,477.876
		c0,0-2.947-8.225-17.686-10.734"/>
	<path fill="none" stroke="#D1CECD" stroke-linecap="round" stroke-linejoin="round" stroke-miterlimit="10" d="M737.49,482.956
		c0,0-4.229-10.028-25.542-12.583"/>
	<path fill="none" stroke="#D1CECD" stroke-linecap="round" stroke-linejoin="round" stroke-miterlimit="10" d="M733.25,491.612
		c0,0-17.268-21.8-49.374-22.783"/>
	<path fill="none" stroke="#D1CECD" stroke-linecap="round" stroke-linejoin="round" stroke-miterlimit="10" d="M729.688,496
		c0,0-7.375-13.625-25.228-19.023"/>
	<path fill="none" stroke="#D1CECD" stroke-linecap="round" stroke-linejoin="round" stroke-miterlimit="10" d="M727.312,500.206
		c0,0-7.494-15.206-31.836-23.575"/>
	<path fill="none" stroke="#D1CECD" stroke-linecap="round" stroke-linejoin="round" stroke-miterlimit="10" d="M722.587,500.206
		c0,0-12.649-16.929-35.913-23.502"/>
	<path fill="none" stroke="#D1CECD" stroke-linecap="round" stroke-linejoin="round" stroke-miterlimit="10" d="M720.384,504.599
		c0,0-6.437-15.322-41.666-28.043"/>
	<path fill="none" stroke="#D1CECD" stroke-linecap="round" stroke-linejoin="round" stroke-miterlimit="10" d="M717.142,505.468
		c0,0-9.669-12.717-32.696-21.478"/>
	<path fill="none" stroke="#D1CECD" stroke-linecap="round" stroke-linejoin="round" stroke-miterlimit="10" d="M714.224,508.334
		c0,0-10.045-12.103-30.927-21.06"/>
	<path fill="none" stroke="#D1CECD" stroke-linecap="round" stroke-linejoin="round" stroke-miterlimit="10" d="M711.49,510.026
		c0,0-17.344-13.988-35.434-22.969"/>
	<path fill="none" stroke="#D1CECD" stroke-linecap="round" stroke-linejoin="round" stroke-miterlimit="10" d="M709.417,512.674
		c0,0-28.816-18.508-49.217-28.519"/>
	<path fill="none" stroke="#D1CECD" stroke-linecap="round" stroke-linejoin="round" stroke-miterlimit="10" d="M707.359,515.463
		c0,0-29.391-16.863-46.274-26.328"/>
	<path fill="none" stroke="#D1CECD" stroke-linecap="round" stroke-linejoin="round" stroke-miterlimit="10" d="M704.108,517.751
		c-28.295-11.803-24.346-13.676-36.048-20.135"/>
	<path fill="none" stroke="#D1CECD" stroke-linecap="round" stroke-linejoin="round" stroke-miterlimit="10" d="M701.625,521.382
		c0,0-11.689-3.239-28.779-14.512"/>
	<path fill="none" stroke="#D1CECD" stroke-linecap="round" stroke-linejoin="round" stroke-miterlimit="10" d="M696.427,523.771
		c0,0-34.711-14.354-48.213-28.459"/>
	<path fill="none" stroke="#D1CECD" stroke-linecap="round" stroke-linejoin="round" stroke-miterlimit="10" d="M691.783,524.723
		c0,0-24.201-8.417-39.807-19.728"/>
	<path fill="none" stroke="#D1CECD" stroke-linecap="round" stroke-linejoin="round" stroke-miterlimit="10" d="M685.854,525.164
		c0,0-39.381-11.864-50.088-31.237"/>
	<path fill="none" stroke="#D1CECD" stroke-linecap="round" stroke-linejoin="round" stroke-miterlimit="10" d="M673.621,524.798
		c0,0-36.125-11.48-44.729-33.186"/>
	<path fill="none" stroke="#D1CECD" stroke-linecap="round" stroke-linejoin="round" stroke-miterlimit="10" d="M624.922,496.757
		c-1.35-2.471-2.388-5.108-2.996-7.913"/>
	<path fill="none" stroke="#D1CECD" stroke-linecap="round" stroke-linejoin="round" stroke-miterlimit="10" d="M658.793,522.887
		c0,0-20.843-7.621-31.438-22.29"/>
	<path fill="none" stroke="#D1CECD" stroke-linecap="round" stroke-linejoin="round" stroke-miterlimit="10" d="M624.483,503.788
		c-1.134-1.769-2.161-3.72-3.036-5.866"/>
	<path fill="none" stroke="#D1CECD" stroke-linecap="round" stroke-linejoin="round" stroke-miterlimit="10" d="M644.1,519.296
		c0,0-9.747-3-17.198-12.165"/>
</g>
<path opacity="0.4" fill="none" stroke="#D1CECD" stroke-linecap="round" stroke-linejoin="round" stroke-miterlimit="10" enable-background="new    " d="
	M734.328,486.2c-1.203-2.123-5.586-7.371-13.059-10.165"/>
<path opacity="0.4" fill="none" stroke="#D1CECD" stroke-linecap="round" stroke-linejoin="round" stroke-miterlimit="10" enable-background="new    " d="
	M714.672,466.945c0,0-5.206-0.109-9.505,0.279"/>
<path opacity="0.4" fill="none" stroke="#D1CECD" stroke-linecap="round" stroke-linejoin="round" stroke-miterlimit="10" enable-background="new    " d="
	M669.693,505.03c-1.554-1.206-7.914-5.547-11.559-8.595"/>
<path opacity="0.4" fill="none" stroke="#D1CECD" stroke-linecap="round" stroke-linejoin="round" stroke-miterlimit="10" enable-background="new    " d="
	M648.84,502.243c0,0-5.646-4.983-7.872-8.831"/>
<g opacity="0.4">
	<path fill="none" stroke="#D1CECD" stroke-linecap="round" stroke-linejoin="round" stroke-miterlimit="10" d="M619.537,503.974
		c0,0-23.619-7.891-46.255-13.362"/>
	<path fill="none" stroke="#D1CECD" stroke-linecap="round" stroke-linejoin="round" stroke-miterlimit="10" d="M621.411,507.659
		c-0.063-0.056-24.923-7.386-46.244-14.325"/>
	<path fill="none" stroke="#D1CECD" stroke-linecap="round" stroke-linejoin="round" stroke-miterlimit="10" d="M630.255,515.488
		c-0.126-0.107-9.779-4.369-30.747-11.631"/>
	<path fill="none" stroke="#D1CECD" stroke-linecap="round" stroke-linejoin="round" stroke-miterlimit="10" d="M635.095,519.532
		c-0.383-0.32-11.146-2.993-44.48-16.077"/>
	<path fill="none" stroke="#D1CECD" stroke-linecap="round" stroke-linejoin="round" stroke-miterlimit="10" d="M630.553,523.559
		c-2.562-3.815-69.336-27.422-86.41-40.812"/>
	<path fill="none" stroke="#D1CECD" stroke-linecap="round" stroke-linejoin="round" stroke-miterlimit="10" d="M626.787,525.055
		c-11.897-7.022-55.354-20.783-75.546-34.379"/>
	<path fill="none" stroke="#D1CECD" stroke-linecap="round" stroke-linejoin="round" stroke-miterlimit="10" d="M621.188,525.413
		c-1.029-1.834-41.753-13.574-62.554-27.503"/>
	<path fill="none" stroke="#D1CECD" stroke-linecap="round" stroke-linejoin="round" stroke-miterlimit="10" d="M615.915,526.179
		c-0.515-0.426-22.224-4.639-53.048-21.375"/>
	<path fill="none" stroke="#D1CECD" stroke-linecap="round" stroke-linejoin="round" stroke-miterlimit="10" d="M608.611,526.84
		c-20.136-2.324-42.622-11.74-59.18-27.688"/>
	<path fill="none" stroke="#D1CECD" stroke-linecap="round" stroke-linejoin="round" stroke-miterlimit="10" d="M604.681,528.062
		c-4.62-0.498-38.37-0.363-68.722-38.176"/>
	<path fill="none" stroke="#D1CECD" stroke-linecap="round" stroke-linejoin="round" stroke-miterlimit="10" d="M596.242,528.972
		c-34.147-1.832-56.437-27.691-70.152-46.068"/>
	<path fill="none" stroke="#D1CECD" stroke-linecap="round" stroke-linejoin="round" stroke-miterlimit="10" d="M585.435,529.225
		c-5.672-0.984-36.476-6.826-64.055-48.912"/>
	<path fill="none" stroke="#D1CECD" stroke-linecap="round" stroke-linejoin="round" stroke-miterlimit="10" d="M550.071,515.505
		c-5.476-3.558-23.083-18.396-35.14-41.02"/>
</g>
<path opacity="0.4" fill="none" stroke="#D1CECD" stroke-linecap="round" stroke-linejoin="round" stroke-miterlimit="10" enable-background="new    " d="
	M547.512,488.795c-0.121-0.278-11.245-8.333-14.059-10.683"/>
<path opacity="0.4" fill="none" stroke="#D1CECD" stroke-linecap="round" stroke-linejoin="round" stroke-miterlimit="10" enable-background="new    " d="
	M558.75,502.358c0,0-5.796-4.178-8.767-6.728"/>
<path opacity="0.4" fill="none" stroke="#D1CECD" stroke-linecap="round" stroke-linejoin="round" stroke-miterlimit="10" enable-background="new    " d="
	M596.017,502.532c0,0-6.314-2.335-8.052-2.84"/>
<path opacity="0.4" fill="none" stroke="#D1CECD" stroke-linecap="round" stroke-linejoin="round" stroke-miterlimit="10" enable-background="new    " d="
	M586.825,501.482c0,0-7.452-3.374-9.99-4.301"/>
<path opacity="0.4" fill="none" stroke="#D1CECD" stroke-linecap="round" stroke-linejoin="round" stroke-miterlimit="10" enable-background="new    " d="
	M571.534,492.602c-0.51-0.34-6.88-2.655-7.187-2.82"/>
<g opacity="0.4">
	<path fill="none" stroke="#D1CECD" stroke-linecap="round" stroke-linejoin="round" stroke-miterlimit="10" d="M555.118,482.422
		c0,0-16.974-13.119-21.907-42.164"/>
	<path fill="none" stroke="#D1CECD" stroke-linecap="round" stroke-linejoin="round" stroke-miterlimit="10" d="M566.8,485.992
		c-0.028,0.003-14.075-8.752-26.64-35.953"/>
	<path fill="none" stroke="#D1CECD" stroke-linecap="round" stroke-linejoin="round" stroke-miterlimit="10" d="M581.788,489.939
		c-0.06,0.006-26.903-17.329-39.468-43.928"/>
	<path fill="none" stroke="#D1CECD" stroke-linecap="round" stroke-linejoin="round" stroke-miterlimit="10" d="M592.663,493.103
		c-0.089,0.009-43.115-32.528-51.476-58.069"/>
	<path fill="none" stroke="#D1CECD" stroke-linecap="round" stroke-linejoin="round" stroke-miterlimit="10" d="M605.682,496.552
		c-0.119,0.013-36.339-27.173-53.283-50.077"/>
	<path fill="none" stroke="#D1CECD" stroke-linecap="round" stroke-linejoin="round" stroke-miterlimit="10" d="M618.452,496.748
		c-0.146,0.013-40.335-24.021-61.866-52.436"/>
	<path fill="none" stroke="#D1CECD" stroke-linecap="round" stroke-linejoin="round" stroke-miterlimit="10" d="M619.524,489.42
		c-0.184,0.018-12.771-5.494-35.664-23.958"/>
	<path fill="none" stroke="#D1CECD" stroke-linecap="round" stroke-linejoin="round" stroke-miterlimit="10" d="M621.143,481.757
		c-0.21,0.021-53.198-28.529-66.118-49.398"/>
	<path fill="none" stroke="#D1CECD" stroke-linecap="round" stroke-linejoin="round" stroke-miterlimit="10" d="M621.55,473.48
		c-0.241,0.021-28.146-11.051-48.083-28.766"/>
	<path fill="none" stroke="#D1CECD" stroke-linecap="round" stroke-linejoin="round" stroke-miterlimit="10" d="M628.688,467.773
		c-0.269,0.024-56.338-24.662-71.543-43.195"/>
	<path fill="none" stroke="#D1CECD" stroke-linecap="round" stroke-linejoin="round" stroke-miterlimit="10" d="M636.892,466.938
		c-0.302,0.027-41.728-18.593-63.939-34.317"/>
	<path fill="none" stroke="#D1CECD" stroke-linecap="round" stroke-linejoin="round" stroke-miterlimit="10" d="M644.615,466.141
		c2.004,1.674-22.904-12.783-56.754-28.314"/>
	<path fill="none" stroke="#D1CECD" stroke-linecap="round" stroke-linejoin="round" stroke-miterlimit="10" d="M646.024,461.482
		c-0.362,0.031-32.388-17.505-69.858-33.782"/>
	<path fill="none" stroke="#D1CECD" stroke-linecap="round" stroke-linejoin="round" stroke-miterlimit="10" d="M644.379,453.923
		c-0.391,0.035-15.342-9.989-49.554-22.125"/>
	<path fill="none" stroke="#D1CECD" stroke-linecap="round" stroke-linejoin="round" stroke-miterlimit="10" d="M643.619,445.51
		c-0.422,0.037-44.193-16.055-73.176-29.641"/>
	<path fill="none" stroke="#D1CECD" stroke-linecap="round" stroke-linejoin="round" stroke-miterlimit="10" d="M642.771,440.383
		c-0.452,0.04-15.434-4.583-61.274-21.838"/>
	<path fill="none" stroke="#D1CECD" stroke-linecap="round" stroke-linejoin="round" stroke-miterlimit="10" d="M642.576,427.58
		c-15.022-4.329-18.921-2.725-35.051-5.462"/>
	<path fill="none" stroke="#D1CECD" stroke-linecap="round" stroke-linejoin="round" stroke-miterlimit="10" d="M642.523,421.705
		c-7.035-2.256-32.521-0.919-57.308-8.896"/>
	<path fill="none" stroke="#D1CECD" stroke-linecap="round" stroke-linejoin="round" stroke-miterlimit="10" d="M642.175,416.725
		c-6.362-1.16-35.622,0.193-61.093-7.822"/>
	<path fill="none" stroke="#D1CECD" stroke-linecap="round" stroke-linejoin="round" stroke-miterlimit="10" d="M642.382,412.657
		c-8.295-2.335-32.03,1.352-58.639-5.496"/>
</g>
<path opacity="0.4" fill="none" stroke="#D1CECD" stroke-linecap="round" stroke-linejoin="round" stroke-miterlimit="10" enable-background="new    " d="
	M580.109,462.332c0,0-8.146-7.071-10.659-9.301"/>
<path opacity="0.4" fill="none" stroke="#D1CECD" stroke-linecap="round" stroke-linejoin="round" stroke-miterlimit="10" enable-background="new    " d="
	M554.278,441.147c-0.497-0.68-4.438-7.021-5.492-9.094"/>
<path opacity="0.4" fill="none" stroke="#D1CECD" stroke-linecap="round" stroke-linejoin="round" stroke-miterlimit="10" enable-background="new    " d="
	M540.963,442.952c0,0-1.152-3.146-1.73-4.758"/>
<path opacity="0.4" fill="none" stroke="#D1CECD" stroke-linecap="round" stroke-linejoin="round" stroke-miterlimit="10" enable-background="new    " d="
	M621.902,469.399c-0.429,0.04-15.192-6.725-21.599-10.483"/>
<path opacity="0.4" fill="none" stroke="#D1CECD" stroke-linecap="round" stroke-linejoin="round" stroke-miterlimit="10" enable-background="new    " d="
	M620.36,485.875c-0.759-0.362-15.716-9.275-20.622-12.501"/>
<path opacity="0.4" fill="none" stroke="#D1CECD" stroke-linecap="round" stroke-linejoin="round" stroke-miterlimit="10" enable-background="new    " d="
	M642.945,435.932c0,0-13.505-4.562-21.957-6.498"/>
<path opacity="0.4" fill="none" stroke="#D1CECD" stroke-linecap="round" stroke-linejoin="round" stroke-miterlimit="10" enable-background="new    " d="
	M642.671,430.753c0,0-5.488-1.048-10.001-1.988"/>
<path opacity="0.4" fill="none" stroke="#D1CECD" stroke-linecap="round" stroke-linejoin="round" stroke-miterlimit="10" enable-background="new    " d="
	M604.751,421.791c-0.574,0.053-7.501-1.491-10.925-2.626"/>
<path opacity="0.4" fill="none" stroke="#D1CECD" stroke-linecap="round" stroke-linejoin="round" stroke-miterlimit="10" enable-background="new    " d="
	M617.43,428.407c0,0-2.271-0.615-5.25-1.647"/>
<g opacity="0.4">
	<path fill="none" stroke="#D1CECD" stroke-linecap="round" stroke-miterlimit="10" d="M702.729,325.182
		c0,0-47.198-23.783-79.462-29.253"/>
	<path fill="none" stroke="#D1CECD" stroke-linecap="round" stroke-miterlimit="10" d="M705.243,333.82
		c0,0-46.919-25.445-77.823-33.496"/>
	<path fill="none" stroke="#D1CECD" stroke-linecap="round" stroke-miterlimit="10" d="M667.84,320.736
		c-11.386-5.469-23.375-10.7-33.483-13.955"/>
	<path fill="none" stroke="#D1CECD" stroke-linecap="round" stroke-miterlimit="10" d="M709.206,342.523
		c0,0-16.728-9.674-36.457-19.397"/>
	<path fill="none" stroke="#D1CECD" stroke-linecap="round" stroke-miterlimit="10" d="M681.376,333.491
		c-13.394-7.245-29.349-15.343-42.257-20.345"/>
	<path fill="none" stroke="#D1CECD" stroke-linecap="round" stroke-miterlimit="10" d="M708.936,349.104
		c0,0-9.771-5.859-23.009-13.133"/>
	<path fill="none" stroke="#D1CECD" stroke-linecap="round" stroke-miterlimit="10" d="M643.138,320.711
		c-5.774-2.775-11.373-5.301-16.415-7.312"/>
	<path fill="none" stroke="#D1CECD" stroke-linecap="round" stroke-miterlimit="10" d="M696.66,349.633
		c0,0-26.316-15.602-50.685-27.542"/>
	<path fill="none" stroke="#D1CECD" stroke-linecap="round" stroke-miterlimit="10" d="M638.15,323.21
		c-2.997-1.526-4.782-2.548-7.719-3.929"/>
	<path fill="none" stroke="#D1CECD" stroke-linecap="round" stroke-miterlimit="10" d="M686.045,350.398
		c0,0-21.594-13.717-43.803-25.25"/>
	<path fill="none" stroke="#D1CECD" stroke-linecap="round" stroke-miterlimit="10" d="M680.004,351.248
		c0,0-31.676-17.696-55.992-31.098"/>
	<path fill="none" stroke="#D1CECD" stroke-linecap="round" stroke-miterlimit="10" d="M670.652,352.656
		c0,0-34.613-20.84-57.603-35.565"/>
	<path fill="none" stroke="#D1CECD" stroke-linecap="round" stroke-miterlimit="10" d="M662.833,354.521
		c0,0-22.729-14.496-44.396-30.543"/>
	<path fill="none" stroke="#D1CECD" stroke-linecap="round" stroke-miterlimit="10" d="M656.055,356.195
		c0,0-15.951-8.174-36.29-25.543"/>
	<path fill="none" stroke="#D1CECD" stroke-linecap="round" stroke-miterlimit="10" d="M613.697,329.033
		c-2.773-3.508-7.77-9.273-10.645-13.93"/>
	<path fill="none" stroke="#D1CECD" stroke-linecap="round" stroke-miterlimit="10" d="M649.553,357.746
		c0,0-16.738-8.896-33.059-24.917"/>
	<path fill="none" stroke="#D1CECD" stroke-linecap="round" stroke-miterlimit="10" d="M642.57,359.339
		c0,0-20.406-10.108-36.178-32.825"/>
	<path fill="none" stroke="#D1CECD" stroke-linecap="round" stroke-miterlimit="10" d="M635.834,360.432
		c0,0-13.293-7.041-24.279-21.52"/>
	<path fill="none" stroke="#D1CECD" stroke-linecap="round" stroke-miterlimit="10" d="M636.135,368.018
		c0,0-23.295-13.315-36.275-43.518"/>
	<path fill="none" stroke="#D1CECD" stroke-linecap="round" stroke-miterlimit="10" d="M640.125,378.064
		c0,0-23.572-15.83-37.291-39.811"/>
	<path fill="none" stroke="#D1CECD" stroke-linecap="round" stroke-miterlimit="10" d="M641.229,385.004
		c0,0-20.755-14.512-37.55-38.439"/>
	<path fill="none" stroke="#D1CECD" stroke-linecap="round" stroke-miterlimit="10" d="M641.792,394.396
		c0,0-20.453-14.345-37.281-40.775"/>
	<path fill="none" stroke="#D1CECD" stroke-linecap="round" stroke-miterlimit="10" d="M614.158,374.198
		c-2.19-2.828-4.434-5.915-6.699-9.276"/>
	<path fill="none" stroke="#D1CECD" stroke-linecap="round" stroke-miterlimit="10" d="M642.005,401.029
		c0,0-10.478-5.956-23.837-21.856"/>
	<path fill="none" stroke="#D1CECD" stroke-linecap="round" stroke-miterlimit="10" d="M640.709,407.989
		c0,0-30.378-21.931-41.302-51.208"/>
	<path fill="none" stroke="#D1CECD" stroke-linecap="round" stroke-miterlimit="10" d="M631.282,408.068
		c0,0-28.651-24.108-35.747-54.695"/>
</g>
<g opacity="0.4">
	<path fill="none" stroke="#D1CECD" stroke-linecap="round" stroke-miterlimit="10" d="M655.085,244.427
		c-6.382-0.925-12.968-1.062-19.427,0.068"/>
	<path fill="none" stroke="#D1CECD" stroke-linecap="round" stroke-miterlimit="10" d="M700.855,262.893
		c-0.678-0.368-19.406-13.325-41.588-17.744"/>
	<path fill="none" stroke="#D1CECD" stroke-linecap="round" stroke-miterlimit="10" d="M708.379,271.033
		c-1.781-0.828-18.68-13.349-42.424-20.455"/>
	<path fill="none" stroke="#D1CECD" stroke-linecap="round" stroke-miterlimit="10" d="M700.773,270.516
		c-5.736-2.947-12.09-5.805-22.521-10.062"/>
	<path fill="none" stroke="#D1CECD" stroke-linecap="round" stroke-miterlimit="10" d="M713.883,277.621
		c-1.287-0.573-4.265-2.345-9.245-4.967"/>
	<path fill="none" stroke="#D1CECD" stroke-linecap="round" stroke-miterlimit="10" d="M717.619,283.788
		c-3.827-1.66-16.918-9.782-36.92-18.639"/>
	<path fill="none" stroke="#D1CECD" stroke-linecap="round" stroke-miterlimit="10" d="M677.223,267.848
		c-5.979-3.343-11.84-6.652-17.222-9.649"/>
	<path fill="none" stroke="#D1CECD" stroke-linecap="round" stroke-miterlimit="10" d="M717.188,288.599
		c-9.893-4.24-23.26-11.45-36.389-18.755"/>
	<path fill="none" stroke="#D1CECD" stroke-linecap="round" stroke-miterlimit="10" d="M664.576,265.5
		c-5.477-3.163-10.387-6.142-14.065-8.62"/>
	<path fill="none" stroke="#D1CECD" stroke-linecap="round" stroke-miterlimit="10" d="M699.37,284.36
		c-8.646-4.453-19.612-10.279-29.524-15.858"/>
	<path fill="none" stroke="#D1CECD" stroke-linecap="round" stroke-miterlimit="10" d="M714.293,291.751
		c-1.555-0.66-5.601-2.636-11.014-5.39"/>
	<path fill="none" stroke="#D1CECD" stroke-linecap="round" stroke-miterlimit="10" d="M712.612,295.518
		c-6.893-2.908-39.509-20.141-56.015-31.807"/>
	<path fill="none" stroke="#D1CECD" stroke-linecap="round" stroke-miterlimit="10" d="M710.137,300.079
		c-7.915-3.324-32.374-17.895-48.06-28.477"/>
	<path fill="none" stroke="#D1CECD" stroke-linecap="round" stroke-miterlimit="10" d="M709.25,304.641
		c-8.938-3.74-31.386-16.537-46.616-28.462"/>
	<path fill="none" stroke="#D1CECD" stroke-linecap="round" stroke-miterlimit="10" d="M680.559,293.532
		c-2.679-1.816-5.554-3.821-8.67-6.047"/>
	<path fill="none" stroke="#D1CECD" stroke-linecap="round" stroke-miterlimit="10" d="M707.907,308.955
		c-7.041-2.938-13.95-6.615-23.177-12.644"/>
	<path fill="none" stroke="#D1CECD" stroke-linecap="round" stroke-miterlimit="10" d="M706.877,313.529
		c-10.984-4.572-27.104-13.888-40.613-25.967c-10.295-9.206-15.027-16.019-16.136-17.193"/>
	<path fill="none" stroke="#D1CECD" stroke-linecap="round" stroke-miterlimit="10" d="M705.233,317.727
		c-12.003-4.986-46.726-28.698-56.671-43.891c-6.701-10.239-9.474-13.747-11.608-15"/>
</g>
<path opacity="0.4" fill="none" stroke="#D1CECD" stroke-linecap="round" stroke-miterlimit="10" enable-background="new    " d="
	M590.854,340.979c-0.799-0.313-12.13-6.422-14.353-7.572"/>
<path opacity="0.4" fill="none" stroke="#D1CECD" stroke-linecap="round" stroke-miterlimit="10" enable-background="new    " d="
	M589.125,328.217c0,0-6.163-2.141-9.947-1.414"/>
<path opacity="0.4" fill="none" stroke="#D1CECD" stroke-linecap="round" stroke-miterlimit="10" enable-background="new    " d="
	M590.059,334.303c0,0-7.429-3.378-10.362-3.884"/>
<path opacity="0.4" fill="none" stroke="#D1CECD" stroke-linecap="round" stroke-miterlimit="10" enable-background="new    " d="
	M592.083,348.189c0,0-8.869-6.522-13.832-8.195"/>
<path opacity="0.4" fill="none" stroke="#D1CECD" stroke-linecap="round" stroke-miterlimit="10" enable-background="new    " d="
	M593.242,354.643c0,0-17.456-9.99-18.775-11.8"/>
<path opacity="0.4" fill="none" stroke="#D1CECD" stroke-linecap="round" stroke-miterlimit="10" enable-background="new    " d="
	M595.148,362.95c-1.491-1.601-3.507-2.574-6.178-4.453"/>
<path opacity="0.4" fill="none" stroke="#D1CECD" stroke-linecap="round" stroke-miterlimit="10" enable-background="new    " d="
	M597.958,370.602c-0.604-0.33-6.006-4.662-9.093-6.891"/>
<path opacity="0.4" fill="none" stroke="#D1CECD" stroke-linecap="round" stroke-miterlimit="10" enable-background="new    " d="
	M601.604,378.945c0,0-19.489-15.396-28.462-27.309"/>
<path opacity="0.4" fill="none" stroke="#D1CECD" stroke-linecap="round" stroke-miterlimit="10" enable-background="new    " d="
	M586.314,356.809c-0.816-0.506-2.862-1.86-5.795-4.488"/>
<path opacity="0.4" fill="none" stroke="#D1CECD" stroke-linecap="round" stroke-miterlimit="10" enable-background="new    " d="
	M607.116,388.855c-0.623-0.521-13.572-9.566-21.709-18.664"/>
<path opacity="0.4" fill="none" stroke="#D1CECD" stroke-linecap="round" stroke-miterlimit="10" enable-background="new    " d="
	M615.93,401.168c0,0-20.321-13.969-34.272-29.866"/>
<path opacity="0.4" fill="none" stroke="#D1CECD" stroke-linecap="round" stroke-miterlimit="10" enable-background="new    " d="
	M621.918,407.761c0,0-5.695-1.223-15.224-8.647"/>
<path opacity="0.4" fill="none" stroke="#D1CECD" stroke-linecap="round" stroke-miterlimit="10" enable-background="new    " d="
	M610.287,406.884c-1.547-2.175-10.141-3.518-31.271-32.838"/>
<path opacity="0.4" fill="none" stroke="#D1CECD" stroke-linecap="round" stroke-miterlimit="10" enable-background="new    " d="
	M600.498,405.068c0,0-13.225-14.227-19.647-23.479"/>
<path opacity="0.4" fill="none" stroke="#D1CECD" stroke-linecap="round" stroke-miterlimit="10" enable-background="new    " d="
	M595.638,404.543c-0.437-0.54-18.921-15.447-28.595-39.438"/>
<path opacity="0.4" fill="none" stroke="#D1CECD" stroke-linecap="round" stroke-miterlimit="10" enable-background="new    " d="
	M588.135,402.521c-0.832-0.694-11.243-11.514-13.809-16.485"/>
<path opacity="0.4" fill="none" stroke="#D1CECD" stroke-linecap="round" stroke-miterlimit="10" enable-background="new    " d="
	M603.622,397.077c0,0-2.896-2.245-5.813-4.681"/>
<path opacity="0.4" fill="none" stroke="#D1CECD" stroke-linecap="round" stroke-miterlimit="10" enable-background="new    " d="
	M576.556,370.223c0,0-5.239-8.975-7.442-14.173"/>
<g opacity="0.4">
	<path fill="none" stroke="#D1CECD" stroke-linecap="round" stroke-miterlimit="10" d="M699.179,525.599
		c0,0,10.865-4.146,22.276,10.034c17.349,21.564,80.448,72.152,90.758,79.704"/>
	<path fill="none" stroke="#D1CECD" stroke-linecap="round" stroke-miterlimit="10" d="M706.358,521.961
		c0,0,6.263-3.205,17.342,11.018c13.848,17.778,67.446,62.189,76.816,69.053"/>
	<path fill="none" stroke="#D1CECD" stroke-linecap="round" stroke-miterlimit="10" d="M708.758,518.657
		c0,0,6.34-2.528,17.187,11.664c12.051,15.77,54.221,51.861,62.653,58.039"/>
	<path fill="none" stroke="#D1CECD" stroke-linecap="round" stroke-miterlimit="10" d="M713.157,515.844
		c0,0,2.812-0.99,15.034,11.821c12.219,12.809,32.035,32.225,39.981,39.216"/>
	<path fill="none" stroke="#D1CECD" stroke-linecap="round" stroke-miterlimit="10" d="M716.486,512.811
		c0,0,2.136-0.789,13.948,12.198c11.814,12.987,40.625,41.648,47.185,46.453"/>
	<path fill="none" stroke="#D1CECD" stroke-linecap="round" stroke-miterlimit="10" d="M719.818,509.775
		c0,0,1.451-0.59,12.862,12.574c11.41,13.166,13.528,14.518,19.43,20.149"/>
	<path fill="none" stroke="#D1CECD" stroke-linecap="round" stroke-miterlimit="10" d="M777.518,554.276
		c14.108,13.757,28.069,26.237,34.151,29.491"/>
	<path fill="none" stroke="#D1CECD" stroke-linecap="round" stroke-miterlimit="10" d="M748.273,523.947
		c6.123,6.9,14.507,15.692,23.261,24.429"/>
	<path fill="none" stroke="#D1CECD" stroke-linecap="round" stroke-miterlimit="10" d="M736.174,504.618
		c0,0-1.904-1.092,7.894,12.78"/>
	<path fill="none" stroke="#D1CECD" stroke-linecap="round" stroke-miterlimit="10" d="M739.542,501.42c0,0-0.071,1.356,4.366,7.652
		c9.731,13.812,28.884,34.925,29.822,35.61"/>
	<path fill="none" stroke="#D1CECD" stroke-linecap="round" stroke-miterlimit="10" d="M741.956,498.312c0,0,0.312,3.438,4.25,8.671
		c10.113,13.446,25.486,30.665,25.486,30.665"/>
</g>
<path opacity="0.4" fill="none" stroke="#D1CECD" stroke-linecap="round" stroke-miterlimit="10" enable-background="new    " d="
	M786.824,555.944c0,0,16.727,18.922,41.023,32.146"/>
<path opacity="0.4" fill="none" stroke="#D1CECD" stroke-linecap="round" stroke-miterlimit="10" enable-background="new    " d="
	M794.08,555.288c0,0,33.426,24.738,52.55,36.12"/>
<path opacity="0.4" fill="none" stroke="#D1CECD" stroke-linecap="round" stroke-miterlimit="10" enable-background="new    " d="
	M757.108,546.675c0,0,16.101,16.283,22.279,20.737"/>
<g opacity="0.4">
	<path fill="none" stroke="#D1CECD" stroke-linecap="round" stroke-miterlimit="10" d="M901.808,496.782
		c0,0-25.325,18.95-55.191,27.348c-29.287,8.238-46.616,14.626-53.938,23.091"/>
	<path fill="none" stroke="#D1CECD" stroke-linecap="round" stroke-miterlimit="10" d="M897.874,496.945
		c0,0-28.716,19.364-56.647,26.128c-9.725,2.356-18.648,5.506-26.368,8.698"/>
	<path fill="none" stroke="#D1CECD" stroke-linecap="round" stroke-miterlimit="10" d="M845.302,519.518
		c-3.337,1.217-6.999,2.342-10.989,3.301c-25.289,6.058-46.729,20.386-50.178,28.935"/>
	<path fill="none" stroke="#D1CECD" stroke-linecap="round" stroke-miterlimit="10" d="M876.874,506.361
		c0,0-12.038,4.66-25.217,10.583"/>
	<path fill="none" stroke="#D1CECD" stroke-linecap="round" stroke-miterlimit="10" d="M862.809,508.404
		c0,0-15.044,7.155-36.843,14.122c-21.375,6.83-41.167,19.528-43.514,27.646"/>
	<path fill="none" stroke="#D1CECD" stroke-linecap="round" stroke-miterlimit="10" d="M806.905,526.756
		c-7.851,4.758-11.1,7.062-16.324,11.114"/>
	<path fill="none" stroke="#D1CECD" stroke-linecap="round" stroke-miterlimit="10" d="M838.178,512.75
		c0,0-11.789,4.824-28.539,12.844"/>
	<path fill="none" stroke="#D1CECD" stroke-linecap="round" stroke-miterlimit="10" d="M809.891,521.475
		c-17.032,9.637-28.21,20.506-30.164,26.24"/>
	<path fill="none" stroke="#D1CECD" stroke-linecap="round" stroke-miterlimit="10" d="M815.061,513.682
		c0,0-7.317,5.287-19.108,13.293c-11.648,7.908-15.742,13.722-17.194,18.518"/>
	<path fill="none" stroke="#D1CECD" stroke-linecap="round" stroke-miterlimit="10" d="M809.487,514.33
		c0,0-28.951,18.375-31.11,26.955"/>
</g>
<path opacity="0.4" fill="none" stroke="#D1CECD" stroke-linecap="round" stroke-miterlimit="10" enable-background="new    " d="
	M936.203,444.902c0,0-12.816,11.57-34.956,22.244c-22.137,10.677-56.588,35.328-71.837,42.347"/>
<path opacity="0.4" fill="none" stroke="#D1CECD" stroke-linecap="round" stroke-miterlimit="10" enable-background="new    " d="
	M880.206,470.783c-10.133,6.12-34.808,20.402-40.713,25.653c-8.688,7.725-20.551,13.856-20.551,13.856"/>
<path opacity="0.4" fill="none" stroke="#D1CECD" stroke-linecap="round" stroke-miterlimit="10" enable-background="new    " d="
	M846.451,487.135c-28.851,24.291-35.74,24.241-35.74,24.241"/>
<path opacity="0.4" fill="none" stroke="#D1CECD" stroke-linecap="round" stroke-miterlimit="10" enable-background="new    " d="
	M838.122,508.417c7.212-1.664,39.146-23.777,46.128-26.432"/>
<path opacity="0.4" fill="none" stroke="#D1CECD" stroke-linecap="round" stroke-miterlimit="10" enable-background="new    " d="
	M846.377,507.091c9.768-2.183,43.224-23.423,58.486-33.475"/>
<path opacity="0.4" fill="none" stroke="#D1CECD" stroke-linecap="round" stroke-miterlimit="10" enable-background="new    " d="
	M865.298,503.938c0,0,14.927-4.721,27.724-14.359"/>
<path opacity="0.4" fill="none" stroke="#D1CECD" stroke-linecap="round" stroke-miterlimit="10" enable-background="new    " d="
	M894.257,495.247c1.953-0.754,34.75-24.536,39.962-33.969"/>
<path opacity="0.4" fill="none" stroke="#D1CECD" stroke-linecap="round" stroke-miterlimit="10" enable-background="new    " d="
	M857.209,505.533c0,0,11.292-4.487,17.686-8.825"/>
<path opacity="0.4" fill="none" stroke="#D1CECD" stroke-linecap="round" stroke-miterlimit="10" enable-background="new    " d="
	M878.151,494.39c0,0,13.715-8.031,16.917-10.925"/>
<path opacity="0.4" fill="none" stroke="#D1CECD" stroke-linecap="round" stroke-miterlimit="10" enable-background="new    " d="
	M824.229,509.672c2.538-0.664,8.661-4.832,12.984-8.115"/>
<path opacity="0.4" fill="none" stroke="#D1CECD" stroke-linecap="round" stroke-miterlimit="10" enable-background="new    " d="
	M840.013,498.993c0,0,4.821-4.194,7.32-5.289"/>
<path opacity="0.4" fill="none" stroke="#D1CECD" stroke-linecap="round" stroke-miterlimit="10" enable-background="new    " d="
	M849.524,484.93c0,0,3.04-2.587,7.467-4.722"/>
<path opacity="0.4" fill="none" stroke="#D1CECD" stroke-width="1.2" stroke-linecap="round" stroke-miterlimit="10" enable-background="new    " d="
	M777.193,537.876c-9.572-8.358-16.81-16.183-20.402-22.93c-10.867-20.401-12.638-26.589-18.087-30.312"/>
<path opacity="0.4" fill="none" stroke="#D1CECD" stroke-width="1.5" stroke-linecap="round" stroke-miterlimit="10" enable-background="new    " d="
	M932.51,635.211c-1.881-0.737-86.941-44.941-138.724-84.34"/>
<path opacity="0.4" fill="none" stroke="#D1CECD" stroke-width="1.2" stroke-linecap="round" stroke-miterlimit="10" enable-background="new    " d="
	M917.516,682.349c0,0-25.71-11.531-40.789-18.604c-15.077-7.072-100.438-66.224-134.225-100.521
	c-33.785-34.296-44.494-36.354-52.413-37.443"/>
<path opacity="0.4" fill="none" stroke="#D1CECD" stroke-width="1.2" stroke-linecap="round" stroke-miterlimit="10" enable-background="new    " d="
	M793.284,551.396c0,0,3.966-10.061,28.314-16.541c24.348-6.479,54.639-16.693,79.593-37.418
	c24.958-20.729,47.035-37.767,39.817-48.486c-7.207-10.72-22.744-20.256-61.637,4.091c-38.89,24.349-45.736,38.097-69.899,56.813
	c-24.169,18.715-40.812,29.666-30.668,39.752C786.514,554.083,785.212,553.752,793.284,551.396z"/>
<path opacity="0.4" fill="none" stroke="#D1CECD" stroke-width="1.2" stroke-linecap="round" stroke-miterlimit="10" enable-background="new    " d="
	M806.337,512.369c7.63-0.952,14.316-1.792,20.217-2.542c41.913-5.343,44.1-6.292,62.292-12.795
	c21.628-7.734,27.458-11.24,40.665-23.909"/>
<path opacity="0.4" fill="none" stroke="#D1CECD" stroke-width="1.2" stroke-linecap="round" stroke-linejoin="round" stroke-miterlimit="10" enable-background="new    " d="
	M736.562,470.099c0.371-18.133,6.859-50.179,5.342-54.542c10.501-10.287,37.44-21.757,40.804-17.844
	c3.363,3.914,7.196,46.338,4.452,52.608c-0.433,0.991-10.558,13.003-23.177,23.179c-11.033,8.9-19.068,12.536-25.088,9.122"/>
<path opacity="0.4" fill="none" stroke="#D1CECD" stroke-width="1.2" stroke-linecap="round" stroke-linejoin="round" stroke-miterlimit="10" enable-background="new    " d="
	M778.541,397.085c1.371-5.229,4.212-33.478-1.726-47.935c-6.559-15.975-51.831-70.919-60.19-60.224
	c-8.358,10.694-9.264,30.655-14.638,37.767c5.572,10.037,10.841,23.42,20.596,44.826c9.757,21.407,16.581,46.994,19.322,44.037"/>
<path opacity="0.4" fill="none" stroke="#D1CECD" stroke-width="1.2" stroke-linecap="round" stroke-linejoin="round" stroke-miterlimit="10" enable-background="new    " d="
	M711.881,349.594c0,0-26.827-0.587-45.955,4.153c-19.124,4.739-27.073,6.664-29.785,6.604c-2.71-0.055-1.25,2.826,3.601,16.545
	c4.85,13.72,0.393,80.121,8.391,88.735"/>
<path opacity="0.4" fill="none" stroke="#D1CECD" stroke-width="1.2" stroke-linecap="round" stroke-linejoin="round" stroke-miterlimit="10" enable-background="new    " d="
	M708.9,463.115c-42.53-1.276-70.906,4.298-80.483,4.862c-9.576,0.564-5.229-1.335-7.165,13.899
	c-1.936,15.237-7.204,21.531,12.268,35.099c21.308,14.846,55.098,13.564,71.152,2.545c10.563-8.266,12.293-8.958,18.882-13.808
	c7.627-4.933,14.487-15.133,15.271-22.039C740.046,472.904,738.704,461.776,708.9,463.115z"/>
<path opacity="0.4" fill="none" stroke="#D1CECD" stroke-width="1.2" stroke-linecap="round" stroke-linejoin="round" stroke-miterlimit="10" enable-background="new    " d="
	M617.796,500.264c0,0-32.707-9.091-55.517-15.162c-22.81-6.072-39.7-23.221-43.308-29.824c-3.448,8.445-8.815,8.932-8.931,14.361
	c-0.11,5.433,34.171,59.039,78.816,60.722c44.045,1.661,51.912-8.738,51.912-8.738"/>
<path opacity="0.4" fill="none" stroke="#D1CECD" stroke-width="1.2" stroke-linecap="round" stroke-linejoin="round" stroke-miterlimit="10" enable-background="new    " d="
	M641.653,408.049c0,0-17.903,1.616-37.484-2.033c-19.584-3.65-40.412-11.108-52.374-13.642c-11.959-2.536-18.197-4.981-20.177-3.599
	c-1.324,0.925-3.912,6.677-3.292,13.549c0.622,6.872-3.468,54.833,15.129,74.234"/>
<path opacity="0.4" fill="none" stroke="#D1CECD" stroke-width="1.5" stroke-linecap="round" stroke-linejoin="round" stroke-miterlimit="10" enable-background="new    " d="
	M589.262,320.917c0,0-13.676,4.047-29.843,2.694c0,0,0.674,10.783,1.209,30.012c0.316,11.413,7.998,38.585,22.48,47.365"/>
<path opacity="0.4" fill="none" stroke="#D1CECD" stroke-width="1.2" stroke-linecap="round" stroke-linejoin="round" stroke-miterlimit="10" enable-background="new    " d="
	M719.962,287.57c0,0-17.615-36.811-58.8-46.494c-26.35-6.956-36.485,7.363-38.537,8c9.344,3.524,23.026,43.401,81.914,72.568
	c0,0-56.484-29.55-81.562-29.277c-25.243,0.273-31.532-0.564-31.532-0.564s0.429,4.781-1.784,16.93
	c-2.213,12.146,0.257,74.582,34.996,99.455"/>
<path opacity="0.4" fill="none" stroke="#D1CECD" stroke-width="1.2" stroke-linecap="round" stroke-linejoin="round" stroke-miterlimit="10" enable-background="new    " d="
	M527.453,413.75c-8.458-7.068-9.361-10.398-16.445-20.002c-7.085-9.602-5.654-18.164-8.4-15.305
	c-2.751,2.858-18.144,54.45,8.914,85.34"/>
<path opacity="0.4" fill="none" stroke="#D1CECD" stroke-width="1.2" stroke-linecap="round" stroke-linejoin="round" stroke-miterlimit="10" enable-background="new    " d="
	M562.255,394.941c-0.49-0.957-17.137-14.312-30.261-24.174c-13.124-9.857-18.437-19.82-19.283-22.556c0,0-3.251,0.589-7.616,6.714
	c-6.59,9.229-13.25,19.871-8.775,47.18"/>
<path opacity="0.4" fill="none" stroke="#D1CECD" stroke-width="1.2" stroke-linecap="round" stroke-linejoin="round" stroke-miterlimit="10" enable-background="new    " d="
	M545.371,381.206c-0.054-0.599-0.081-18.666-7.865-38.244c-7.788-19.577-12.88-35.985-12.626-37.612
	c-2.08,1.392-5.558,0.883-16.41,13.73c-13.582,16.088-13.436,44.386-10.831,48.77"/>
<path opacity="0.4" fill="none" stroke="#D1CECD" stroke-width="1.2" stroke-linecap="round" stroke-linejoin="round" stroke-miterlimit="10" enable-background="new    " d="
	M576.781,322.646c-0.921-0.219-10.089-8.428-26.142-16.312c-13.127-6.448-13.854-16.821-13.854-16.821s-9.447,15.311-8.179,29.353"
	/>
<path opacity="0.4" fill="none" stroke="#D1CECD" stroke-width="1.2" stroke-linecap="round" stroke-linejoin="round" stroke-miterlimit="10" enable-background="new    " d="
	M650.979,298.172c-0.378-0.87-19.791-22.609-45.91-25.37c-26.122-2.761-34.452,1.606-39.331,0.843
	c0.022,6.924,0.293,9.913-0.475,24.741c-0.766,14.828,1.839,17.001,7.366,21.624"/>
<path opacity="0.4" fill="none" stroke="#D1CECD" stroke-width="1.2" stroke-linecap="round" stroke-linejoin="round" stroke-miterlimit="10" enable-background="new    " d="
	M626.181,246.653c0,0-45.194-15.048-65.831-1.538c-8.465,6.187-4.794,6.86-10.313,12.378c4.218,0.021,18.157-1.039,23.779,3.473
	c5.622,4.513,13.899,9.588,22.637,10.808"/>
<path opacity="0.4" fill="none" stroke="#D1CECD" stroke-width="1.2" stroke-linecap="round" stroke-linejoin="round" stroke-miterlimit="10" enable-background="new    " d="
	M565.459,280.597c-1.246-0.489-6.725-4.512-14.916-5.278c-8.192-0.765-10.199,0.318-11.717,0.155
	c-0.299,3.341,0.24,6.003,0.755,11.679c0.512,5.676,1.976,11.87,3.979,14.098"/>
<path opacity="0.4" fill="none" stroke="#D1CECD" stroke-width="1.2" stroke-linecap="round" stroke-linejoin="round" stroke-miterlimit="10" enable-background="new    " d="
	M560.371,257.562c0,0-5.453,2.902-10.499,6.974c1.192,3.206,0.48,8.69,3.437,11.435"/>
<path opacity="0.4" fill="none" stroke="#D1CECD" stroke-width="1.2" stroke-linecap="round" stroke-miterlimit="10" enable-background="new    " d="
	M538.499,281.827c-9.059-3.699-12.777-1.555-15.054-3.457c-2.418,6.542-6.54,7.518-8.173,16.099
	c-1.631,8.58-0.005,16.566-0.005,16.566"/>
<path opacity="0.4" fill="none" stroke="#D1CECD" stroke-width="1.2" stroke-linecap="round" stroke-miterlimit="10" enable-background="new    " d="
	M553.565,252.154c-0.923-0.218-8.225,0.682-13.455,2.02c-6.076,1.552-12.858,5.276-13.835,4.461
	c-0.977-0.815,2.652,4.982,2.651,11.609c-0.005,6.625,0.449,9.397,0.449,9.397"/>
</svg>