<?xml version="1.0" encoding="utf-8"?>
<!-- Generator: Adobe Illustrator 16.0.4, SVG Export Plug-In . SVG Version: 6.00 Build 0)  -->
<!DOCTYPE svg PUBLIC "-//W3C//DTD SVG 1.1//EN" "http://www.w3.org/Graphics/SVG/1.1/DTD/svg11.dtd">
<svg version="1.1" id="Ebene_1" xmlns="http://www.w3.org/2000/svg" xmlns:xlink="http://www.w3.org/1999/xlink" x="0px" y="0px"
	 width="80px" height="80px" viewBox="0 0 80 80" enable-background="new 0 0 80 80" xml:space="preserve">
<rect fill="#C85F49" width="80" height="80"/>
<path fill="#FFFFFF" d="M58.24,41.727c0.137,3.61-3.447,10.482-6.588,12.246V42.656h-0.008v-3.417h-0.002V26.207
	c2.787,2.055,4.578,4.674,5.659,7.763h1.873c-0.211-0.604-0.423-1.211-0.68-1.796c-2.886-6.569-8.009-10.347-15.058-11.483
	c-3.837-0.618-7.662-0.184-11.322,1.239c-3.101,1.207-5.705,3.095-7.806,5.663c-2.371,2.896-3.673,6.222-4.128,9.906
	c-0.481,3.899-0.051,7.696,1.767,11.176c3.55,6.806,9.228,10.505,17.012,10.87c2.717,0.129,5.406-0.043,8.019-0.875
	c2.85-0.904,5.228-2.518,7.332-4.613c3.448-3.425,5.252-7.563,5.688-12.33H58.24z M30.286,25.351c0-0.474,0.136-0.769,0.578-1.006
	c3.575-1.913,7.414-2.55,11.406-2.15c2.476,0.249,4.801,1.134,6.996,2.316c0.338,0.182,0.543,0.374,0.541,0.808
	c-0.018,4.479-0.011,8.961-0.011,13.44c0,0.129-0.036,0.257-0.063,0.439H30.347c-0.025-0.275-0.065-0.506-0.065-0.739
	C30.282,34.09,30.295,29.72,30.286,25.351z M28.456,53.855c-0.067,0.028-0.134,0.058-0.201,0.086
	c-4.401-3.723-6.54-8.518-6.444-14.247c0.092-5.466,2.229-10.044,6.456-13.581c0.062,0.019,0.125,0.037,0.188,0.056L28.456,53.855
	L28.456,53.855z M49.292,55.693c-3.237,1.744-6.696,2.578-10.369,2.281c-2.795-0.225-5.495-0.904-7.998-2.227
	c-0.393-0.205-0.666-0.419-0.663-0.947c0.025-4.324,0.016-8.65,0.02-12.975c0-0.238,0.032-0.479,0.052-0.778H49.8
	c0,0.369,0,0.675,0,0.979c-0.004,4.259-0.014,8.517,0.007,12.774C49.809,55.245,49.67,55.49,49.292,55.693z"/>
</svg>
