<svg version="1.1" id="Ebene_1" xmlns="http://www.w3.org/2000/svg" xmlns:xlink="http://www.w3.org/1999/xlink" x="0px" y="0px"
	 width="350px" height="960px" viewBox="0 0 350 960" enable-background="new 0 0 350 960" xml:space="preserve">
<path opacity="0.6" fill="none" stroke="#D1CECD" stroke-linecap="round" stroke-miterlimit="10" d="M131.558,519.511
	c-2.611,6.224-4.205,10.265-3.83,10.008c1.517-1.042,2.026,0.055,4.548-0.619c2.521-0.677,6.195,0.883,9.991,3.18
	c6.852,4.145,6.792,11.336,12.51,10.007c5.717-1.324,8.957-2.104,8.638-1.854c-0.317,0.251,2.306-1.334-0.711,3.205
	c-3.016,4.538-15.892,8.659-24.432,3.991c-8.54-4.667-10.924-16.469-11.559-15.556c-0.633,0.914-32.417,76.99-39.519,92.126
	c-7.099,15.137-30.395,64.758-36.906,80.774c-6.513,16.017-11.2,23.07-9.299,22.853c1.897-0.219,9.764-4.748,14.422-6.922
	c4.659-2.176,9.82-4.476,14.028-11.661c4.205-7.187,7.844-14.053,11.992-22.326c1.842-3.671,6.698-11.176,13.084-20.248"/>
<path opacity="0.6" fill="none" stroke="#D1CECD" stroke-linecap="round" stroke-miterlimit="10" d="M156.495,462.221
	c0,0-14.428,32.564-22.931,52.547"/>
<path opacity="0.6" fill="none" stroke="#D1CECD" stroke-linecap="round" stroke-miterlimit="10" d="M201.878,353.938
	c0,0-2.366-1.518-7.209-6.942c-4.844-5.425-15.2-10.022-20.042-13.342c-4.842-3.319-4.824-11.264-8.233-14.649
	c-3.411-3.384-9.883-8.607-9.968-8.633c-0.045-0.078,1.592,4.227,1.827,6.424c0.695,6.562,3.637,27.111,17.056,35.874
	c13.418,8.763,19.543-0.666,25.594,2.941"/>
<path opacity="0.6" fill="none" stroke="#D1CECD" stroke-linecap="round" stroke-miterlimit="10" d="M241.358,279.708
	c0.896-1.884,1.666-3.56,2.505-5.511c8.811-20.455,12.411-28.474,13.342-30.409c0.933-1.936-3.247-9.828-1.929-20.951
	s1.045-16,3.384-12.419c2.337,3.581,7.648,14.615,5.51,18.613c-2.138,4-1.701,5.297-1.336,6.795c0.366,1.5,7.199-8.528,9.047-11.723
	c1.846-3.196,9.831-10.755,10.818-14.719c0.986-3.962-3.874-6.869,1.7-15.307c5.575-8.437,14.712-13.529,17.505-16.834
	c2.796-3.306,5.847-6.064,7.271-6.227c1.424-0.164,0.75-2.686-1.17,3.214c-1.919,5.899-3.401,13.097-6.892,17.059
	c-3.491,3.962-11.089,9.841-12.24,12.38c-1.152,2.54,3.833,0.714,5.005,0.002c1.168-0.712,6.044-3.487,12.679-11.084
	c6.633-7.596,11.693-9.623,17.301-11.903c5.608-2.282,6.926-3.395,5.354-0.328c-1.574,3.068-2.469,8.658-8.772,14.099
	c-6.304,5.44-24.406,12.818-28.023,13.235c-2.377,0.271-3.671,0.71-5.096,3.377c-1.428,2.667-19.352,22.534-21.345,26.131
	c-1.991,3.598-9.139,22.61-14.879,34.626c-5.737,12.019-17.453,34.829-21.31,42.299c-3.855,7.469-19.645,35.85-21.163,39.393
	c-1.518,3.542-2.217,6.074-2.217,6.074c-1.772,4.23-27.757,56.277-27.757,56.277c2.394-0.949,3.87,1.866,6.064-1.659
	c2.193-3.525,4.75-5.554,12.003-11.103c7.255-5.551,11.894-7.047,17.411-8.452c5.516-1.404,8.204-3.157,7.362-2.098
	c-0.841,1.059-4.114,9.424-9.649,14.006c-5.536,4.584-27.093,13.802-28.646,13.691c-1.552-0.11-4.4-2.284-6.155,0.036
	c-1.755,2.319-13.541,27.379-14.136,28.3"/>
<path opacity="0.6" fill="none" stroke="#D1CECD" stroke-linecap="round" stroke-miterlimit="10" d="M1.854,760.227
	c0.64,0.781,1.255,1.479,1.834,2.077c6.486,6.686,10.174,9.09,10.174,9.09"/>
<path opacity="0.6" fill="none" stroke="#D1CECD" stroke-linecap="round" stroke-miterlimit="10" d="M1.017,767.235
	c0,0,0.32,0.469,0.839,1.243c2.259,3.378,8.271,12.57,7.781,14.057"/>
<path opacity="0.6" fill="none" stroke="#D1CECD" stroke-linecap="round" stroke-miterlimit="10" d="M0.101,808.75"/>
<path opacity="0.6" fill="none" stroke="#D1CECD" stroke-linecap="round" stroke-miterlimit="10" d="M1.855,918.641
	c1.934,0.039,3.859,0.225,5.731,0.618c5.917,1.243,12.801,4.204,17.168,0.334c4.367-3.87,7.793-6.706,6.349-3.363
	c-1.443,3.342-1.453,2.415-6.643,9.171c-3.64,4.74-13.094,7.925-22.606,6.462"/>
<path opacity="0.6" fill="none" stroke="#D1CECD" stroke-linecap="round" stroke-miterlimit="10" d="M115.307,837.708
	c3.25-1.931,5.499-3.613,7.083-5.354c11.756-12.92,23.687-26.325,26.375-33.082c2.686-6.756,4.479-10.429,5.685-14.994
	s-1.535-5.787,3.381-12.417c4.917-6.631,6.541-4.218,11.292-9.771c4.752-5.552,6.469-9.021,6.433-7.669
	c-0.037,1.35,0.366,1.496-0.55,5.258c-0.915,3.765-2.249,10.559-5.794,14.047c-3.545,3.487-10.927,8.762-11.932,10.9
	c-1.005,2.137-3.8,7.946-5.336,12.164c-1.536,4.219-14.677,27.192-30.937,40.613c-16.261,13.419-66.991,30.903-78.042,34.391
	c-11.052,3.485-12.969,4.378-12.969,4.378s-0.385,1.682,2.427,2.704c2.812,1.024,6.429-0.161,10.448,3.804
	c4.017,3.964,9.368,3.638,10.501,4.277c1.132,0.64-0.679,2.485-2.797,3.305c-2.118,0.821-19.085-1.941-20.072-5.484
	c-0.986-3.545-2.171-7.162-3.25-7.327c-0.697-0.105-15.226,3.26-25.398,5.648"/>
<path opacity="0.6" fill="none" stroke="#D1CECD" stroke-linecap="round" stroke-miterlimit="10" d="M1.856,875.403
	c2.693-0.591,5.289-1.19,6.25-1.509c2.292-0.759,4.557-1.981,4.886-6.641c0.33-4.657-3.247-7.777,3.01-15.056s8.522-6,9.857-12.794
	c1.335-6.794,3.292-9.043,3.09-6.612c-0.203,2.431,0.346,4.677,0.728,8.002c0.382,3.323,0.729,5.497-1.483,9.697
	c-2.21,4.202-7.479,14.114-9.167,15.093c-1.688,0.979-3.349,4.922-3.315,6.074c0.036,1.15,17.134-3.32,23.401-4.906
	c5.32-1.349,52.695-15.62,74.208-27.891"/>
<path opacity="0.6" fill="none" stroke="#D1CECD" stroke-linecap="round" stroke-miterlimit="10" d="M198.598,709.246
	c8.364-7.708,20.689-20.09,22.677-24.184c2.724-5.608,2.761-4.456,1.521-8.549c-1.242-4.093-1.828-11.859,5.273-19.491
	c7.101-7.63,8.25-7.663,8.707-9.547c0.459-1.882,2.084,0.53,1.187,3.616c-0.896,3.087-2.34,8.932-2.469,13.663
	c-0.128,4.731-6.254,15.925-7.77,16.965c-1.516,1.042-3.013,3.909-3.945,5.844c-0.935,1.937-16.354,19.303-24.867,26.442
	c-8.516,7.139-46.231,28.565-57.686,34.406c-11.453,5.844-36.782,18.855-37.952,20.2c-1.17,1.34,0.396,3.423,1.596,3.706
	c2.792,0.655,14.292,1.393,20.793,8.537c6.501,7.145,14.246,5.867,14.008,7.146c-0.239,1.277-6.306,3.127-9.83,3.248
	c-8.292,0.282-20.659-8.834-24.618-12.373c-4.701-4.205-4.216-9.043-5.861-8.277s-34.909,12.775-41.138,15.515
	c-6.23,2.737-21.941,10.898-25.23,12.432c-3.288,1.533-14.321,9.349-17.739,10.606c-3.416,1.26-5.306,3.756-5.306,3.756
	s-7.706,21.996-9.078,27.639"/>
<path opacity="0.6" fill="none" stroke="#D1CECD" stroke-linecap="round" stroke-miterlimit="10" d="M66.791,775.53
	c9.058-3.007,21.826-7.1,28.648-10.402c11.599-5.613,13.171-6.181,11.436-7.038c-1.734-0.857-7.731-3.755-10.567-7.842
	c-2.837-4.088,1.524-19.792,1.997-24.854c0.472-5.061,0.166-5.469,3.349-1.09c3.184,4.378,6.8,5.693,8.442,9.934
	c1.643,4.237-3.311,17.227-1.685,19.637c1.625,2.409,1.533,3.285,2.283,3.103c0.748-0.181,35.937-14.974,36.966-15.929
	c1.031-0.954,3.254-3.451,1.416-7.641c-1.037-2.365-3.777-7.746-0.197-12.586c6.36-8.595,17.157-14.003,21.469-18.35
	c-0.347,2.832-1.864,3.872-4.534,12.456c-2.669,8.585-8.901,16.327-11.714,17.806c-2.812,1.479-2.29,6.291-2.29,6.291
	s34.515-19.816,40.178-24.125c0.996-0.757,1.936-1.53,3.688-3.09"/>
<path opacity="0.6" fill="none" stroke="#D1CECD" stroke-linecap="round" stroke-miterlimit="10" d="M59.13,778.248
	c-2.518,0.912-3.557,1.36-4.94,2.074c-6.725,3.469-16.333,6.114-25.083,12.03c-8.75,5.917-14.477,7.698-14.477,7.698
	s9.681-30.148,10.429-32.833c0.751-2.687,11.656-28.98,11.656-28.98c0.763-1.67,8.667-6.081,22.679-12.224
	c13.242-5.804,25.865-35.636,28.65-41.211c5.868-11.744,27.703-37.968,33.43-45.395c4.979-6.457,9.878-12.936,14.999-18.885
	c5.122-5.949,12.01-13.676,15.582-18.445c3.141-4.196,21.67-25.785,25.69-31.83c4.021-6.046,8.24-9.515,10.45-11.213
	c2.212-1.699,6.449-3.34,10.833-5.385c4.383-2.045,8.5-18.976,8.427-23.155c-0.07-4.176,2.542-6.98,3.127-8.587
	c0.585-1.608-6.723,3.469-8.037,6.459c-1.314,2.992-4.987,2.451-10.581,10.426c-5.592,7.976-4.679,11.492-5.861,15.991
	c-1.181,4.5-4.829,5.145-4.641,3.236c0.189-1.905-0.679-7.371,2.153-9.524c2.832-2.156,6.909-15.232,7.657-20.421
	c0.75-5.187-1.385-6.19-2.28-8.109c-0.894-1.919-0.84,1.06-2.376,7.78c-1.537,6.721-5.976,8.292-8.991,15.953
	c-3.019,7.662-0.533,10.841,1.255,14.676c1.79,3.837,1.188,3.618-0.385,6.687c-1.572,3.066-8.771,11.597-21.378,24.981
	c-12.609,13.383-34.388,40.722-34.388,40.722c-0.507,0.702-4.437,1.86-3.586-3.119c0.852-4.98,1.177-6.856,6.056-12.59
	c4.111-4.827,5.919-11.517,3.952-23.974c-0.86-5.444,5.804-8.868,3.953-10.859c-2.277-0.147-11.871,4.553-15.02,10.912
	c-4.156,8.39-13.393,34.636,0.727,43.824c-6.14,6.683-14.216,17.366-21.776,27.957"/>
<path opacity="0.6" fill="none" stroke="#D1CECD" stroke-linecap="round" stroke-miterlimit="10" d="M1.851,809.577
	c0.59,0.289,1.163,0.589,1.761,0.94c2.53,1.489,3.604,0.829,3.389-1.186c-0.271-2.557-3.578-4.099-5.144-7.374"/>
<path opacity="0.6" fill="none" stroke="#D1CECD" stroke-linecap="round" stroke-miterlimit="10" d="M61.917,779.812
	c-5.844-2.194-5.095-6.127-2.729-11.907c2.366-5.783-3.556-8.011-0.497-17.422c3.059-9.416,7.338-14.682,4.602-17.959
	c-2.734-3.278,0.637-1.673,2.965,1.351s10.985,14.959,7.793,24.545C70.856,768.011,66.298,779.554,61.917,779.812z"/>
<path opacity="0.6" fill="none" stroke="#D1CECD" stroke-linecap="round" stroke-miterlimit="10" d="M167.984,733.551
	c0,0,13.724-3.85,24.975,2.746c11.25,6.598,9.598,10.822,11.094,12.651c-0.604,0.724-2.102-2.665-4.275-2.319
	c-2.174,0.348-21.053,3.146-26.751,0.047c-5.699-3.098-15.157-1.797-17.443-2.709c-1.698-0.679-1.828-2.325-1.828-2.325"/>
<path opacity="0.6" fill="none" stroke="#D1CECD" stroke-linecap="round" stroke-miterlimit="10" d="M198.033,712.663
	c-2.175,1.597-2.455-1.689-3.744-4.093c-1.286-2.402-10.646-7.628-12.569-13.904c-1.927-6.275,1.39-13.828,0.917-17.526
	c-0.474-3.698-0.455-4.375,0.987-2.712s8.81,6.734,9.859,11.667c1.05,4.932,2.61,9.309,3.632,11.9
	C198.95,702.645,198.896,712.03,198.033,712.663z"/>
<path opacity="0.6" fill="none" stroke="#D1CECD" stroke-linecap="round" stroke-miterlimit="10" d="M201.236,711.962
	c0,0,3.709,0.699,5.712,2.852c2.045,2.193,6.093,3.773,9.152,4.824c4.146,1.424,20.054,2.762,20.068,4.317
	c-0.185,0.572-0.019-0.375-2.831,1.103c-2.812,1.479-10.773,5.379-14.906,6.264c-4.134,0.883-15.389-1.479-16.834-8.602
	c-1.444-7.123-2.669-7.44-3.715-7.887"/>
<path opacity="0.6" fill="none" stroke="#D1CECD" stroke-linecap="round" stroke-miterlimit="10" d="M219.924,685.024
	c1.23-1.031,0.756-1.601,0.309-2.562c-0.45-0.96-4.773-4.241-4.233-7.911c0.541-3.67,3.093-8.561,3.97-14.653
	c0.813-5.674-0.618-13.305-3.146-18.549c-0.678-1.406,0.156-3.241-0.954-1.598c-1.11,1.645-6.003,6.177-7.233,14.715
	c-1.232,8.538,3.766,22.472,5.098,25.063C215.066,682.119,218.697,686.057,219.924,685.024z"/>
<path opacity="0.6" fill="none" stroke="#D1CECD" stroke-linecap="round" stroke-miterlimit="10" d="M235.406,666.6
	c0.453-0.683,1.512-2.01,7.059-2.72c5.55-0.712,4.342,2.604,10.29-3.422c5.946-6.026,8.559-3.688,8.81-3.107
	c0,0-0.382,0.231-1.783,1.739c-2.579,2.77-4.824,13.603-10.524,16.137c-5.699,2.531-16.074,2.167-16.625-1.105"/>
<path opacity="0.6" fill="none" stroke="#D1CECD" stroke-linecap="round" stroke-miterlimit="10" d="M224.396,688.203
	c0,0,3.229,0.563,10.435,8.141c8.204,8.629,23.514,5.212,24.243,3.783c0.659-1.296-8.288-0.969-9.904-4.971
	c-1.616-4-3.219-4.754-5.423-7.604c-2.205-2.85-15.687-5.188-16.813-5.132"/>
<path opacity="0.6" fill="none" stroke="#D1CECD" stroke-linecap="round" stroke-miterlimit="10" d="M150.794,799.284
	c1.604-0.62,4.591,0.24,6.993-1.048c2.402-1.287-0.99-1.967,5.047-6.362c6.035-4.394,18.282-4.599,21.645-8.836
	c3.36-4.236,4.505-6.438,4.933-4.804c0.429,1.636,0.098,3.791-2.232,11.133c-2.331,7.342-25.993,15.271-28.352,12.32
	c-3.498-0.136-9.235-0.129-9.849,0.938"/>
<path opacity="0.6" fill="none" stroke="#D1CECD" stroke-linecap="round" stroke-miterlimit="10" d="M152.199,790.859
	c0,0-3.05-2.023-2.628-5.056c0.42-3.032,3.913-13.249,1.971-18.849c-1.945-5.601-8.127-12.059-8.09-9.657
	c0.037,2.403,0.701,9.014-0.03,11.023c-0.73,2.011-2.579,6.458-0.443,11.215c2.138,4.76,6.887,11.862,8.292,13.605"/>
<path opacity="0.6" fill="none" stroke="#D1CECD" stroke-linecap="round" stroke-miterlimit="10" d="M116.842,841.365
	c2.418-1.678,3.849,0.714,6.996-1.475c3.146-2.188,9.724-9.008,20.519-10.537c10.795-1.531,12.578,0.139,12.974,0.454
	c0.398,0.314-2.604,2.467-4.974,5.698c-2.372,3.232-17.557,13.404-25.375,11.581c-5.346-1.246-8.805-2.998-9.799-3.549
	C116.188,842.987,115.544,842.266,116.842,841.365z"/>
<path opacity="0.6" fill="none" stroke="#D1CECD" stroke-linecap="round" stroke-miterlimit="10" d="M113.322,838.861
	c1.338,1.523,2.551,0.771,2.372-0.147c-0.283-1.471-0.946-0.174-0.143-5.684c0.805-5.509,2.827-7.032,4.787-12.419
	c2.252-6.189-2.384-23.734-4.875-24.636c-0.876,1.223-0.648,6.242-1.964,7.982c-1.316,1.738-3.234,4.896-4.773,11.003
	c-1.54,6.105-2.484,13.156-0.457,17.899C110.298,837.603,113.322,838.861,113.322,838.861z"/>
<path opacity="0.6" fill="none" stroke="#D1CECD" stroke-linecap="round" stroke-miterlimit="10" d="M66.991,857.988
	c-0.348-1.237,0.11-3.118-2.776-6.442c-2.885-3.327-3.495-16.032,3.363-22.993c6.856-6.961,9.07-11.162,10.019-11.272
	c0.948-0.108,1.877,1.095,0.992,4.776c-0.885,3.683-0.355,6.595-1.691,14.646C75.56,844.752,68,855.52,69.459,857.14"/>
<path opacity="0.6" fill="none" stroke="#D1CECD" stroke-linecap="round" stroke-miterlimit="10" d="M77.388,859.38
	c0,0,4.815,0.244,9.153,3.331c4.338,3.086,14.876,6.924,20.075,5.631c5.195-1.294,10.015-0.007,6.458,1.123
	c-7.766,2.469-5.657,5.075-9.822,8.118c-4.72,3.446-16.286,2.718-23.188-4.572c-6.359-6.717-7.13-11.889-7.036-11.923"/>
<path opacity="0.6" fill="none" stroke="#D1CECD" stroke-linecap="round" stroke-miterlimit="10" d="M96.601,659.424
	c0.769,3.835,0.627,8.148-0.941,7.902c-1.569-0.247-1.304-1.729-1.58-4.103c-0.273-2.374-7.055-12.807-6.288-18.67
	c0.77-5.863,11.98-19.072,12.191-23.091c0.21-4.02,1.1-5.743,1.39-3.818c0.291,1.927,1.807,4.641,1.952,9.242
	c0.144,4.602,0.159,13.56-5.544,22.326C94.5,654.254,96.184,657.343,96.601,659.424z"/>
<path opacity="0.6" fill="none" stroke="#D1CECD" stroke-linecap="round" stroke-miterlimit="10" d="M84.946,691.965
	c0,0,0.677,1.057,3.033,0.209c2.357-0.848,4.979-3.99,9.801-5.988c4.823-2,11.625-3.582,16.806-3.041
	c5.181,0.539,12.991,1.03,16.033,2.99c-9.403,3.798-6.198,4.901-10.91,8.938c-4.711,4.035-13.535,5.714-19.029,6.274
	c-5.492,0.561-11.259-4.19-16.91-6.155"/>
<path opacity="0.6" fill="none" stroke="#D1CECD" stroke-linecap="round" stroke-miterlimit="10" d="M121.475,639.408
	c0,0,19.802-1.779,31.816,2.253c12.014,4.03,10.811,1.546,13.309,1.09c2.499-0.456,2.685-0.643,0.808,3.364
	c-3.003,6.417-13.924,15.175-30.184,9.213c-10.26-3.763-6.887-6.18-17.349-13.643"/>
<path opacity="0.6" fill="none" stroke="#D1CECD" stroke-linecap="round" stroke-miterlimit="10" d="M152.056,602.078
	c0,0,4.408-4.768,16.842-3.768c12.433,0.999,25.555,12.771,30.074,12.539c4.521-0.23,9.577-5.217,9.194-2.285
	c-0.385,2.932-14.581,11.461-27.848,11.814c-13.269,0.353-28.985-10.297-31.197-14.592"/>
<path opacity="0.6" fill="none" stroke="#D1CECD" stroke-linecap="round" stroke-miterlimit="10" d="M179.759,567.447
	c-0.253,0.326,2.618,6.017,16.998,5.423c14.378-0.594,20.694-7.168,22.834-11.168c0.493-0.922,4.776-3.208,1.109-3.519
	c-2.367-0.201-7.197-1.387-11.383-1.072c-5.438,0.41-24.365,8.187-26.301,6.547"/>
<path opacity="0.6" fill="none" stroke="#D1CECD" stroke-linecap="round" stroke-miterlimit="10" d="M125.398,634.311
	c0,0,13.682-12.838,22.623-9.584c8.406,3.059,9.319,0.16,5.233,5.066c-4.085,4.906-6.582,9.673-14.306,9.449"/>
<path opacity="0.6" fill="none" stroke="#D1CECD" stroke-linecap="round" stroke-miterlimit="10" d="M1.782,725.371
	c0.024,0.035,0.048,0.07,0.071,0.104c2.944,4.432,3.19,9.681,0.003,13.778"/>
<path opacity="0.6" fill="none" stroke="#D1CECD" stroke-linecap="round" stroke-miterlimit="10" d="M54.686,525.238
	c-1.739-0.35-4.451,1-3.142,2.658c1.312,1.655,3.357,2.236,6.335,2.807c2.979,0.569,3.415,3.459,10.426,3.603
	c6.979,0.147,10.847-1.139,16.677-5.307c6.972-4.984,9.125-9.591,8.011-10.066c-0.553-0.237-2.271,2.429-5.433,2.117
	c-3.626-0.356-5.586-2.833-12.031-1.078c-6.162,1.676-10.32,6.151-11.9,6.816C61.894,527.519,59.456,526.198,54.686,525.238z"/>
<path opacity="0.6" fill="none" stroke="#D1CECD" stroke-linecap="round" stroke-miterlimit="10" d="M130.547,516.599
	c0.67-2.006,2.034-2.288,5.764-1.3c3.388,0.899,6.446,5.502,13.858-0.459c6.927-5.576,6.413-8.02,14.793-10.584
	c8.381-2.564,16.237,1.978,15.988,2.906c-0.25,0.929-6.96-0.557-8.719,4.979c-2.004,6.311-20.107,20.157-39.238,8.548
	C130.328,518.864,130.264,517.448,130.547,516.599z"/>
<path opacity="0.6" fill="none" stroke="#D1CECD" stroke-linecap="round" stroke-miterlimit="10" d="M126.89,512.338
	c0,0-11.341-7.271-7.993-20.843c3.348-13.571,5.166-18.94,2.282-22.265c1.937-1.57,6.533,0.958,8.026,8.726
	c1.495,7.769,0.143,18.368-1.997,22.992c-2.138,4.625-1.837,7.217,0.962,8.132"/>
<path opacity="0.6" fill="none" stroke="#D1CECD" stroke-linecap="round" stroke-miterlimit="10" d="M153.466,461.617
	c-1.339-1.711-0.936-7.337,1.374-9.227c2.308-1.889,2.733-2.758,9.666-3.99c0,0,9.742,0.607,14.83-3.476
	c4.68-3.756,10.705-1.99,12.058-7.811c0.217-0.94,1.685-0.411,1.511,6.864c-0.172,7.274-7.815,21.472-21.047,18.446
	c-13.232-3.025-11.083-1.901-12.624-1.182C157.691,461.961,154.676,463.165,153.466,461.617z"/>
<path opacity="0.6" fill="none" stroke="#D1CECD" stroke-linecap="round" stroke-miterlimit="10" d="M170.762,462.174
	c0,0,5.082,1.017,6.504,9.299c1.422,8.282-1.149,18.864-3.211,19.137c-2.062,0.275-0.303-1.985-2.26-4.575
	c-1.959-2.59-9.56-12.182-10.598-16.826c-1.04-4.645-5.826-4.453-6.289-3.404"/>
<path opacity="0.6" fill="none" stroke="#D1CECD" stroke-linecap="round" stroke-miterlimit="10" d="M209.858,351.02
	c0,0-0.702,2.917,7.317-0.989c8.021-3.906,6.488-9.697,18.654-9.365c12.164,0.333,21.696,10.4,25.679,8.208
	c-0.951,2.613-1.702,5.297-10.34,4.655c-8.641-0.642-14.815,2.572-20.587,3.428c-5.773,0.857-15.781-3.405-21.958-3.441"/>
<path opacity="0.6" fill="none" stroke="#D1CECD" stroke-linecap="round" stroke-miterlimit="10" d="M205.094,348.404
	c0,0,0.575-8.477-1.605-11.318c-2.18-2.842-2.782-3.062-1.155-5.655c1.627-2.593,2.27-16.237,4.462-19.761
	c2.192-3.525,4.256-4.144-1.853-2.496c-7.539,2.036-18.091,16.61-15.266,24.477c2.821,7.868,13.083,12.269,13.731,17.966"/>
<path opacity="0.6" fill="none" stroke="#D1CECD" stroke-linecap="round" stroke-miterlimit="10" d="M284.056,215.293
	c0.01-0.011-0.366,2.302,6.237,5.728c9.984,5.181,14.321,0.663,24.221,2.217c9.898,1.555,13.111,5.228,13.222,3.676
	c0.112-1.552,1.407-1.992-0.802-5.297c-2.209-3.307-13.939-8.941-18.43-8.3c-4.491,0.641-2.684-1.205-6.318-1.844
	c-3.634-0.641-15.436,3.669-17.278,2.791"/>
<path opacity="0.6" fill="none" stroke="#D1CECD" stroke-linecap="round" stroke-miterlimit="10" d="M281.95,199.358
	c-0.805-1.282-4.676,0.544-2.699-9.886c1.977-10.429-2.956-23.374-6.872-25.935c-3.915-2.562-4.369-0.682-4.535,0.397
	c-0.166,1.078,0.567-0.931,1.808,0.658c1.241,1.59,2.595,1.626,1.258,5.918c-1.335,4.292-4.039,8.097-4.277,15.506
	c-0.375,11.582,5.135,15.081,7.177,15.913c5.675,2.312,8.756,5.158,9.02,6.127"/>
<path opacity="0.6" fill="none" stroke="#D1CECD" stroke-linecap="round" stroke-miterlimit="10" d="M242.958,288.304
	c0,0,2.472,0.342,6.28-2.936c3.81-3.277,8.845-8.043,16.908-8.634c8.066-0.591,9.243,0.862,14.814-1.32
	c5.572-2.181,9.227-3.467,9.92-2.874c0.693,0.593-0.685-0.933-2.997,1.98c-2.312,2.913-5.493,19.16-19.131,19.43
	c-13.635,0.27-19.173-0.6-26.576-4.095"/>
<path opacity="0.6" fill="none" stroke="#D1CECD" stroke-linecap="round" stroke-miterlimit="10" d="M277.803,222.678
	c1.3,6.271-3.537,10.654,7.188,15.411s18.026,6.731,19.589,7.13c1.562,0.397,2.963-0.288-1.354-5.953
	c-4.315-5.666-2.036-6.373-9.77-9.7c-7.735-3.327-7.213-1.943-8.528-5.834c-1.315-3.891-3.793-4.964-3.793-4.964"/>
<path opacity="0.6" fill="none" stroke="#D1CECD" stroke-linecap="round" stroke-miterlimit="10" d="M275.47,219.534
	c-1.432-0.106-8.661-0.689-11.711-6.235c-3.049-5.547-1.663-9.351-4.298-18.99c-2.633-9.641-3.771-10.737-4.976-11.175
	c-1.206-0.439,6,1.33,8.438,3.071c2.438,1.741,3.732,2.512,3.732,2.512"/>
<path opacity="0.6" fill="none" stroke="#D1CECD" stroke-linecap="round" stroke-miterlimit="10" d="M276.91,203.367
	c0.368,1.285,0.771,3.508,0.251,7.473c-0.294,2.276,0.676,4.294,1.426,5.016"/>
<path opacity="0.6" fill="none" stroke="#D1CECD" stroke-linecap="round" stroke-miterlimit="10" d="M240.415,271.793
	c-0.307,0.742-0.364,5.75,1.603,9.354c1.075,1.97-0.169,3.548-1.4,3.5c-2.679-0.107-3.09-1.745-3.906-3.724
	c-0.778-1.889-2.022-2.614-6.541-9.889c-4.52-7.276-7.666-16.442-3.267-27.126c4.402-10.685,5.69-11.41,5.689-9.533
	c-0.001,1.877,0.109,1.576,2.147,6.755c2.041,5.18,3.847,11.467,2.612,13.919c-1.233,2.452-1.826,3.391,0.413,5.432
	C240.585,263.05,240.855,270.73,240.415,271.793z"/>
<path opacity="0.6" fill="none" stroke="#D1CECD" stroke-linecap="round" stroke-miterlimit="10" d="M61.638,589.308
	c4.423,9.307,13.614,31.74,14.308,38.521c-0.11,0.841-0.323,1.713-0.671,2.67c-1.701,4.672-26.91,64.092-31.187,72.092
	c-1.671-1.975,6.239-22.302,5.969-29.056c-0.273-6.754-7.136-11.812-9.175-15.112c-2.041-3.303-0.519-5.139-3.714,5.985
	c-3.196,11.122,1.731,33.222,3.77,38.4c2.04,5.178,1.95,1.053,0.778,4.271c-1.17,3.218-13.634,28.705-32.681,77.287
	c-2.799,7.138-4.733,12.521-6.834,18.518"/>
<path opacity="0.6" fill="none" stroke="#D1CECD" stroke-linecap="round" stroke-miterlimit="10" d="M46.506,449.668
	c-0.096-1.999-0.104-3.943-0.013-6.328c0.124-3.256,2.763-2.87,4.066-8.398c1.553-6.587,0.491-10.687-2.909-15.741
	c-1.345-1.996-0.443-8.565-0.443-8.565s-4.66,5.622-7.122,11.022c-4.17,9.138,0.42,16.781,2.439,22.3
	c0.337,0.918,1.169,12.702,1.66,27.982c0.492,15.281,3.452,48.47,3.959,52.337c0.725,5.531-1.98,1.362-2.155,0.56
	c-1.142-5.197-3.998-9.359-9.06-11.812c-12.53-6.072-15.188,0.984-25.138-7.894c-0.657-0.587-0.288,3.147,2.175,5.387
	c6.577,5.985,5.988,15.32,17.201,18.549c11.208,3.224,17.938,3.045,17.949,5.668c0.01,2.354,6.333,36.337,10.573,49.523"/>
<path opacity="0.6" fill="none" stroke="#D1CECD" stroke-linecap="round" stroke-miterlimit="10" d="M53.747,530.014
	c0.327,3.098,0.601,5.356,1.008,8.439c2.836,21.434,5.796,31.225,11.085,44.252c5.29,13.027,9.026,25.852,14.386,37.12
	c0,0,11.698-22.57,16.542-34.002c4.844-11.434,30.106-72.085,36.413-90.04c6.307-17.954,14.258-34.172,14.514-36.125
	c0.255-1.955-2.137-1.006-6.171-11.802c-4.034-10.796-6.75-22.706-4.209-34.066c-2.135-6.011-1.952-5.261,0.859-4.237
	c2.812,1.023,9.643,6.012,9.897,11.564c1.568,11.946-2.872,16.02-1.833,20.038c1.04,4.017,1.712,14.045,3.32,14.63
	c2.852-5.332,13.325-24.103,19.164-35.144c5.838-11.044,25.065-48.866,31.316-62.289c5.411-11.617,27.458-50.398,39.063-74.001"/>
<path opacity="0.6" fill="none" stroke="#D1CECD" stroke-linecap="round" stroke-miterlimit="10" d="M46.835,453.013
	c0.625,7.682,2.159,12.808,2.951,22.932c1.193,15.267,1.779,31.806,3.454,49.073"/>
<path opacity="0.6" fill="none" stroke="#D1CECD" stroke-linecap="round" stroke-miterlimit="10" d="M47.6,449.428
	c0,0-2.088-0.128-1.896,2.003c0.194,2.131,1.877,1.671,4.47,1.646c2.592-0.026,6.003,2.369,13.547-0.034
	c7.334-2.339,9.86-5.338,11.266-16.833c1.325-10.841-1.014-9.901,1.942-14.158c0.661-0.951-2.84,0.277-5.239,2.013
	c-2.568,1.857-4.426,6.05-6.621,12.545c-2.197,6.496-5.73,15.721-9.817,14.838C51.167,450.562,47.6,449.428,47.6,449.428z"/>
<path opacity="0.6" fill="none" stroke="#D1CECD" stroke-linecap="round" stroke-miterlimit="10" d="M47.219,456.218
	c0,0,3.707-2.952,6.272-2.56"/>
<path opacity="0.6" fill="none" stroke="#D1CECD" stroke-linecap="round" stroke-miterlimit="10" d="M63.721,453.043
	c3.364,1.809,9.842,4.148,11.336,3.872c1.495-0.278,2.299,1.754-3.24,2.784c-5.539,1.032-11.085,2.536-16.313,0.523
	c-5.226-2.011-6.772,0.32-7.519,1.229"/>
<path opacity="0.6" fill="none" stroke="#D1CECD" stroke-linecap="round" stroke-miterlimit="10" d="M43.748,460.834
	c0,0-2.563,1.431-4.205-4.585c-2.29-8.369-5.209-18.672-13.724-23.811c-8.522-5.137-13.424-14.654-11.807-6.773
	c1.619,7.882,0.696,18.146,5.278,26.026c4.584,7.878,8.123,12.872,16.105,13.539c5.696,0.478,8.576,0.724,8.576,0.724"/>
<path opacity="0.6" fill="none" stroke="#D1CECD" stroke-linecap="round" stroke-miterlimit="10" d="M52.267,513.507
	c0,0,2.727-5.932,10.306-9.262c7.576-3.331,14.437-9.672,14.649-12.395c0.21-2.722,2.246,0.146,2.286,3.39
	c0.04,3.241-0.66,20.139-9.604,22.796c-8.942,2.657-14.05,3.291-15.322,5.503c-0.393,0.687-0.662,1.214-0.838,1.66"/>
<path opacity="0.6" fill="none" stroke="#D1CECD" stroke-linecap="round" stroke-miterlimit="10" d="M25.519,742.367
	c-1-3.755-3.729-5.113-3.047-10.703c0.681-5.591,5.492-8.202-1.371-19.99c-3.848-6.613-5.917-4.087-9.139-11.907
	c-0.887-2.153-2.186,1.743-3.006,3.335c-0.823,1.599-1.616,6.146-0.861,13.08c0.918,8.424,7.411,17.608,9.899,19.271
	c2.492,1.664,5.68,8.179,6.674,8.941"/>
<path opacity="0.6" fill="none" stroke="#D1CECD" stroke-linecap="round" stroke-miterlimit="10" d="M63.252,584.707
	c4.606,2.793,1.689,6.749-6.469,3.238c-7.384-3.174-4.967,0.169-12.417-7.019c-9.125-8.81-3.384-11.586-7.722-18.035
	c-4.342-6.444-12.157-7.133-12.157-7.133s5.624-4.041,10.195-4.008c5.23,0.04,12.237,6.319,14.741,14.248
	c2.503,7.931,6.06,18.179,9.48,18.247C62.324,584.315,62.388,584.183,63.252,584.707z"/>
<path opacity="0.6" fill="none" stroke="#D1CECD" stroke-linecap="round" stroke-miterlimit="10" d="M324.424,186.197
	c0,0-4.745,8.316-18.809,14.099"/>
<path opacity="0.6" fill="none" stroke="#D1CECD" stroke-linecap="round" stroke-miterlimit="10" d="M316.812,191.16
	c0,0-5.918,4.245-9.472,5.689"/>
<path opacity="0.6" fill="none" stroke="#D1CECD" stroke-linecap="round" stroke-miterlimit="10" d="M285.73,196.454
	c1.538-2.234,2.409-3.31,7.412-8.256"/>
<path opacity="0.6" fill="none" stroke="#D1CECD" stroke-linecap="round" stroke-miterlimit="10" d="M286.128,199.742
	c0,0,5.35-6.528,9.079-9.728"/>
<path opacity="0.6" fill="none" stroke="#D1CECD" stroke-linecap="round" stroke-miterlimit="10" d="M287.742,201.179
	c1.264-1.616,10.79-9.646,12.565-13.288"/>
<path opacity="0.6" fill="none" stroke="#D1CECD" stroke-linecap="round" stroke-miterlimit="10" d="M270.779,178.097
	c0,0-3.987,14.684,2.557,20.015"/>
<path opacity="0.6" fill="none" stroke="#D1CECD" stroke-linecap="round" stroke-miterlimit="10" d="M272.206,183.042
	c0,0-0.994,7.383,1.011,11.155"/>
<path opacity="0.6" fill="none" stroke="#D1CECD" stroke-linecap="round" stroke-miterlimit="10" d="M273.809,201.93
	c0,0,0.793,3.327,0.813,6.513c0.021,3.186,0.331,6.893,3.231,8.3"/>
<path opacity="0.6" fill="none" stroke="#D1CECD" stroke-linecap="round" stroke-miterlimit="10" d="M261.111,188.035
	c0,0,4.484,3.424,6.099,4.822"/>
<path opacity="0.6" fill="none" stroke="#D1CECD" stroke-linecap="round" stroke-miterlimit="10" d="M262.973,193.708
	c1.322,0.876,8.29,4.329,9.331,15.678c0.693,6.762,3.618,7.635,4.194,8.329"/>
<path opacity="0.6" fill="none" stroke="#D1CECD" stroke-linecap="round" stroke-miterlimit="10" d="M276.105,218.793
	c-0.188-0.069-5.076-1.142-6.523-6.214c-1.305-4.576-1.087-6.822-1.315-8.397"/>
<path opacity="0.6" fill="none" stroke="#D1CECD" stroke-linecap="round" stroke-miterlimit="10" d="M265.807,206.837
	c0,0-0.547,8.512,6.846,12.303"/>
<path opacity="0.6" fill="none" stroke="#D1CECD" stroke-linecap="round" stroke-miterlimit="10" d="M266.626,200.712
	c0,0-1.206-2.188-2.193-2.888"/>
<path opacity="0.6" fill="none" stroke="#D1CECD" stroke-linecap="round" stroke-miterlimit="10" d="M288.957,217.61
	c0,0,7.297,5.215,16.623,2.73c3.979-1.06,7.39-0.217,9.27,0.341"/>
<path opacity="0.6" fill="none" stroke="#D1CECD" stroke-linecap="round" stroke-miterlimit="10" d="M292.768,217.14
	c1.533,0.691,5.934,1.455,11.036,1.115c2.529-0.168,3.319-0.927,4.852-0.859"/>
<path opacity="0.6" fill="none" stroke="#D1CECD" stroke-linecap="round" stroke-miterlimit="10" d="M280.826,227.173
	c0,0-2.287,7.017,9.658,10.556"/>
<path opacity="0.6" fill="none" stroke="#D1CECD" stroke-linecap="round" stroke-miterlimit="10" d="M283.682,230.15
	c0,0,0.881,2.904,3.655,3.979"/>
<path opacity="0.6" fill="none" stroke="#D1CECD" stroke-linecap="round" stroke-miterlimit="10" d="M294.611,239.184
	c0,0,3.004,1.051,3.741,1.255"/>
<path opacity="0.6" fill="none" stroke="#D1CECD" stroke-linecap="round" stroke-miterlimit="10" d="M285.115,201.768
	c0,0-1.124,1.734,0.196,3.655"/>
<path opacity="0.6" fill="none" stroke="#D1CECD" stroke-linecap="round" stroke-miterlimit="10" d="M257.922,218.374
	c0,0-1.124,11.657,0.021,14.173"/>
<path opacity="0.6" fill="none" stroke="#D1CECD" stroke-linecap="round" stroke-miterlimit="10" d="M259.554,224.017
	c0,0-0.009,5.231,0.077,6.505"/>
<path opacity="0.6" fill="none" stroke="#D1CECD" stroke-linecap="round" stroke-miterlimit="10" d="M244.063,288.754
	c0,0,12.018,3.219,23.928,2.54c7.815-0.446,9.573-4.457,11.053-6.261"/>
<path opacity="0.6" fill="none" stroke="#D1CECD" stroke-linecap="round" stroke-miterlimit="10" d="M246.765,287.141
	c0,0,8.456,1.287,15.739,1.196c7.281-0.092,9.363-0.157,10.529-1.103"/>
<path opacity="0.6" fill="none" stroke="#D1CECD" stroke-linecap="round" stroke-miterlimit="10" d="M254.666,285.581
	c0.15,0.054,10.763,0.277,12.657,0.228"/>
<path opacity="0.6" fill="none" stroke="#D1CECD" stroke-linecap="round" stroke-miterlimit="10" d="M262.373,280.394
	c2.061-0.755,7.374-0.804,10.556-0.717"/>
<path opacity="0.6" fill="none" stroke="#D1CECD" stroke-linecap="round" stroke-miterlimit="10" d="M228.713,246.702
	c0,0-4.145,11.386,3.487,22.102"/>
<path opacity="0.6" fill="none" stroke="#D1CECD" stroke-linecap="round" stroke-miterlimit="10" d="M231.021,249.363
	c0,0-1.342,4.022-0.263,9.394"/>
<path opacity="0.6" fill="none" stroke="#D1CECD" stroke-linecap="round" stroke-miterlimit="10" d="M163.271,329.07
	c-0.104,0.288,4.968,23.305,25.451,24.477"/>
<path opacity="0.6" fill="none" stroke="#D1CECD" stroke-linecap="round" stroke-miterlimit="10" d="M170.781,339.14
	c0,0,4.743,8.7,14.463,10.866"/>
<path opacity="0.6" fill="none" stroke="#D1CECD" stroke-linecap="round" stroke-miterlimit="10" d="M196.731,319.484
	c0,0-9.45,11.171-0.455,18.844"/>
<path opacity="0.6" fill="none" stroke="#D1CECD" stroke-linecap="round" stroke-miterlimit="10" d="M196.221,324.854
	c0,0-2.581,6.866,0.213,9.709"/>
<path opacity="0.6" fill="none" stroke="#D1CECD" stroke-linecap="round" stroke-miterlimit="10" d="M220.047,352.568
	c0,0,10.115,1.738,16.146-0.482c4.295-1.582,8.384-2.11,11.087-1.937"/>
<path opacity="0.6" fill="none" stroke="#D1CECD" stroke-linecap="round" stroke-miterlimit="10" d="M225.379,350.163
	c0,0,6.697,0.322,10.216-1.346"/>
<path opacity="0.6" fill="none" stroke="#D1CECD" stroke-linecap="round" stroke-miterlimit="10" d="M239.213,347.88
	c0,0,2.965-0.487,4.881-0.411"/>
<path opacity="0.6" fill="none" stroke="#D1CECD" stroke-linecap="round" stroke-miterlimit="10" d="M189.797,414.355
	c0,0,15.102-7.042,18.015-9.062"/>
<path opacity="0.6" fill="none" stroke="#D1CECD" stroke-linecap="round" stroke-miterlimit="10" d="M192.861,409.914
	c0,0,5.25-2.329,7.224-3.603"/>
<path opacity="0.6" fill="none" stroke="#D1CECD" stroke-linecap="round" stroke-miterlimit="10" d="M140.178,423.222
	c0,0,0.207,14.701,2.007,17.822"/>
<path opacity="0.6" fill="none" stroke="#D1CECD" stroke-linecap="round" stroke-miterlimit="10" d="M157.288,458.889
	c1.312-0.774,2.605-1.843,6.473-1.061c4.81,0.974,15.634,2.675,20.453-2.565"/>
<path opacity="0.6" fill="none" stroke="#D1CECD" stroke-linecap="round" stroke-miterlimit="10" d="M155.931,456.752
	c1.354-0.74,5.12-2.4,11.32-0.951c4.166,0.974,6.731,0.626,9.167-0.168"/>
<path opacity="0.6" fill="none" stroke="#D1CECD" stroke-linecap="round" stroke-miterlimit="10" d="M158.528,453.363
	c1.401-0.403,4.009-1.408,7.809-0.595c3.8,0.815,8.957,0.722,11.127-0.55"/>
<path opacity="0.6" fill="none" stroke="#D1CECD" stroke-linecap="round" stroke-miterlimit="10" d="M186.88,451.859
	c0,0,1.85-2.302,2.359-4.199"/>
<path opacity="0.6" fill="none" stroke="#D1CECD" stroke-linecap="round" stroke-miterlimit="10" d="M168.122,461.592
	c0,0,7.764,5.252,7.047,17.462"/>
<path opacity="0.6" fill="none" stroke="#D1CECD" stroke-linecap="round" stroke-miterlimit="10" d="M164.477,460.855
	c0,0,4.185,2.761,6.954,9.422"/>
<path opacity="0.6" fill="none" stroke="#D1CECD" stroke-linecap="round" stroke-miterlimit="10" d="M161.335,460.434
	c-0.001,1.112,6.365,5.024,8.202,11.674"/>
<path opacity="0.6" fill="none" stroke="#D1CECD" stroke-linecap="round" stroke-miterlimit="10" d="M170.711,475.427
	c0,0,0.624,1.55,0.906,2.977"/>
<path opacity="0.6" fill="none" stroke="#D1CECD" stroke-linecap="round" stroke-miterlimit="10" d="M157.78,461.848
	c0,0,1.961,0.061,3.258,1.682c0.974,1.219,2.555,2.63,4.176,6.608"/>
<path opacity="0.6" fill="none" stroke="#D1CECD" stroke-linecap="round" stroke-miterlimit="10" d="M122.095,502.815
	c0,0-1.194-2.518-0.976-6.483"/>
<path opacity="0.6" fill="none" stroke="#D1CECD" stroke-linecap="round" stroke-miterlimit="10" d="M123.862,500.887
	c0,0-0.974-2.523-0.155-6.863c0.569-3.024,0.618-3.17,0.663-6.625"/>
<path opacity="0.6" fill="none" stroke="#D1CECD" stroke-linecap="round" stroke-miterlimit="10" d="M126.997,490.94
	c-0.121,4.207-0.592,6.327-1.12,8.339"/>
<path opacity="0.6" fill="none" stroke="#D1CECD" stroke-linecap="round" stroke-miterlimit="10" d="M140.075,521.052
	c0,0,12.199,5.031,23.108-2.91"/>
<path opacity="0.6" fill="none" stroke="#D1CECD" stroke-linecap="round" stroke-miterlimit="10" d="M149.51,520.57
	c0.063-0.195,5.683-0.216,10.891-3.44c5.208-3.223,7.184-5.948,7.603-6.288"/>
<path opacity="0.6" fill="none" stroke="#D1CECD" stroke-linecap="round" stroke-miterlimit="10" d="M153.861,517.066
	c0.441-0.219,3.46-0.363,6.58-2.866"/>
<path opacity="0.6" fill="none" stroke="#D1CECD" stroke-linecap="round" stroke-miterlimit="10" d="M130.927,531.695
	c0,0,5.105-1.094,12.645,5.189"/>
<path opacity="0.6" fill="none" stroke="#D1CECD" stroke-linecap="round" stroke-miterlimit="10" d="M132.464,533.852
	c0.376,0.228,6.372,2.444,10.094,5.816c1.666,1.51,3.401,3.955,6.311,4.279"/>
<path opacity="0.6" fill="none" stroke="#D1CECD" stroke-linecap="round" stroke-miterlimit="10" d="M131.683,536
	c0,0,6.15,6.077,8.339,7.233"/>
<path opacity="0.6" fill="none" stroke="#D1CECD" stroke-linecap="round" stroke-miterlimit="10" d="M42.917,438.357
	c-0.329-1.082-3.573-8.852-0.8-15.146"/>
<path opacity="0.6" fill="none" stroke="#D1CECD" stroke-linecap="round" stroke-miterlimit="10" d="M45.118,436.47
	c-0.151-0.232-1.728-4.632-1.065-8.392"/>
<path opacity="0.6" fill="none" stroke="#D1CECD" stroke-linecap="round" stroke-miterlimit="10" d="M63.311,450.516
	c0.749-0.857,6.968-0.291,8.84-12.211"/>
<path opacity="0.6" fill="none" stroke="#D1CECD" stroke-linecap="round" stroke-miterlimit="10" d="M72.558,434.911
	c0,0,0.176-4.08,0.27-4.927"/>
<path opacity="0.6" fill="none" stroke="#D1CECD" stroke-linecap="round" stroke-miterlimit="10" d="M65.64,446.48
	c0.947-0.432,3.505-3.936,3.999-7.269"/>
<path opacity="0.6" fill="none" stroke="#D1CECD" stroke-linecap="round" stroke-miterlimit="10" d="M60.333,453.869
	c0,0,0.888,0.474,4.557,1.704"/>
<path opacity="0.6" fill="none" stroke="#D1CECD" stroke-linecap="round" stroke-miterlimit="10" d="M49.813,454.57
	c1.999-0.229,3.013-0.51,6.707,0.428c3.496,0.887,5.712,1.987,7.441,2.616"/>
<path opacity="0.6" fill="none" stroke="#D1CECD" stroke-linecap="round" stroke-miterlimit="10" d="M47.504,457.113
	c0.175-0.16,3.181-1.976,10.044,0.523"/>
<path opacity="0.6" fill="none" stroke="#D1CECD" stroke-linecap="round" stroke-miterlimit="10" d="M18.783,442.087
	c0.852,3.166,5.356,17.593,15.474,20.062"/>
<path opacity="0.6" fill="none" stroke="#D1CECD" stroke-linecap="round" stroke-miterlimit="10" d="M24.078,448.586
	c1.824,3.61,2.98,6.807,8.394,9.758"/>
<path opacity="0.6" fill="none" stroke="#D1CECD" stroke-linecap="round" stroke-miterlimit="10" d="M28.067,450.039
	c1.78,2.845,5.092,6.27,7.801,7.682"/>
<path opacity="0.6" fill="none" stroke="#D1CECD" stroke-linecap="round" stroke-miterlimit="10" d="M52.437,515.83
	c-0.057-0.728,6.012-6.424,9.286-7.726c3.276-1.303,5.387-2.444,7.8-4.438"/>
<path opacity="0.6" fill="none" stroke="#D1CECD" stroke-linecap="round" stroke-miterlimit="10" d="M52.61,517.973
	c0,0,4.023-3.435,6.223-4.787c2.197-1.351,4.429-2.121,6.508-3.256"/>
<path opacity="0.6" fill="none" stroke="#D1CECD" stroke-linecap="round" stroke-miterlimit="10" d="M52.786,520.047
	c0,0,3.241-2.351,5.501-3.333c2.307-1.003,4.184-2.026,6.369-3.018"/>
<path opacity="0.6" fill="none" stroke="#D1CECD" stroke-linecap="round" stroke-miterlimit="10" d="M52.959,521.998
	c-0.03-0.319,9.772-4.701,14.219-6.286c4.27-1.522,6-3.992,7.12-5.868"/>
<path opacity="0.6" fill="none" stroke="#D1CECD" stroke-linecap="round" stroke-miterlimit="10" d="M67.744,512.026
	c0,0,2.251-1.407,3.144-2.277"/>
<path opacity="0.6" fill="none" stroke="#D1CECD" stroke-linecap="round" stroke-miterlimit="10" d="M64.518,531.452
	c0,0,10.089,2.593,18.598-4.156"/>
<path opacity="0.6" fill="none" stroke="#D1CECD" stroke-linecap="round" stroke-miterlimit="10" d="M68.946,529.454
	c0.6,0.031,6.749-0.21,10.069-2.354"/>
<path opacity="0.6" fill="none" stroke="#D1CECD" stroke-linecap="round" stroke-miterlimit="10" d="M19.877,514.093
	c0.74,1.701,5.268,10.209,11.41,12.215c3.593,1.173,6.111,1.849,8.321,2.062"/>
<path opacity="0.6" fill="none" stroke="#D1CECD" stroke-linecap="round" stroke-miterlimit="10" d="M25.314,518.219
	c0,0,3.472,6.436,13.248,7.358"/>
<path opacity="0.6" fill="none" stroke="#D1CECD" stroke-linecap="round" stroke-miterlimit="10" d="M36.136,515.396
	c1.446,0.868,5.442,4.22,5.865,6.398"/>
<path opacity="0.6" fill="none" stroke="#D1CECD" stroke-linecap="round" stroke-miterlimit="10" d="M35.312,517.662
	c0.798,0.463,2.529,2.405,3.707,3.999"/>
<path opacity="0.6" fill="none" stroke="#D1CECD" stroke-linecap="round" stroke-miterlimit="10" d="M38.563,561.547
	c3.104,2.368,2.983,9.5,4.159,11.809c2.308,4.521,2.984,4.866,5.938,7.389"/>
<path opacity="0.6" fill="none" stroke="#D1CECD" stroke-linecap="round" stroke-miterlimit="10" d="M43.855,567.702
	c0.349,1.151,0.962,5.811,4.154,9.104"/>
<path opacity="0.6" fill="none" stroke="#D1CECD" stroke-linecap="round" stroke-miterlimit="10" d="M204.609,534.298
	c-0.124,0.899-1.148,4.302-1.515,5.777"/>
<path opacity="0.6" fill="none" stroke="#D1CECD" stroke-linecap="round" stroke-miterlimit="10" d="M201.837,543.536
	c-0.337,0.88-2.388,6.611-4.7,7.539c-2.458,0.987-5.178,2.208-5.178,2.208"/>
<path opacity="0.6" fill="none" stroke="#D1CECD" stroke-linecap="round" stroke-miterlimit="10" d="M200.287,539.996
	c-0.932,2.562-2.104,8.748-6.437,9.745"/>
<path opacity="0.6" fill="none" stroke="#D1CECD" stroke-linecap="round" stroke-miterlimit="10" d="M181.963,539.844
	c-0.791,0.782-2.423,3.875-2.798,5.261c-0.377,1.387-1.275,5.243-0.757,6.954"/>
<path opacity="0.6" fill="none" stroke="#D1CECD" stroke-linecap="round" stroke-miterlimit="10" d="M186.843,569.473
	c4.911,1.167,11.372,1.945,21.956-1.473"/>
<path opacity="0.6" fill="none" stroke="#D1CECD" stroke-linecap="round" stroke-miterlimit="10" d="M191.882,567.806
	c0.632,0.23,10.3-0.291,12.732-1.065"/>
<path opacity="0.6" fill="none" stroke="#D1CECD" stroke-linecap="round" stroke-miterlimit="10" d="M149.738,605.235
	c0,0,14.79-9.331,29.799-0.435"/>
<path opacity="0.6" fill="none" stroke="#D1CECD" stroke-linecap="round" stroke-miterlimit="10" d="M155.265,608.252
	c0,0,9.366,8.05,22.03,8.862"/>
<path opacity="0.6" fill="none" stroke="#D1CECD" stroke-linecap="round" stroke-miterlimit="10" d="M157.416,604.805
	c0,0,11.234-1.797,17.448,1.6"/>
<path opacity="0.6" fill="none" stroke="#D1CECD" stroke-linecap="round" stroke-miterlimit="10" d="M159.389,607.576
	c2.647,1.666,7.917,3.767,10.561,4.58"/>
<path opacity="0.6" fill="none" stroke="#D1CECD" stroke-linecap="round" stroke-miterlimit="10" d="M163.695,607.091
	c1.617,0.296,7.484,1.618,9.24,2.516"/>
<path opacity="0.6" fill="none" stroke="#D1CECD" stroke-linecap="round" stroke-miterlimit="10" d="M173.979,613.256
	c0,0,2.424,0.662,4.398,0.885"/>
<path opacity="0.6" fill="none" stroke="#D1CECD" stroke-linecap="round" stroke-miterlimit="10" d="M119.046,595.069
	c-0.041,0.113-6.067,15.476-5.204,24.285"/>
<path opacity="0.6" fill="none" stroke="#D1CECD" stroke-linecap="round" stroke-miterlimit="10" d="M119.468,601.692
	c0,0-2.41,8.186-2.803,11.439"/>
<path opacity="0.6" fill="none" stroke="#D1CECD" stroke-linecap="round" stroke-miterlimit="10" d="M126.153,606.352
	c-1.178,3.236-3.862,7.811-5.617,9.209"/>
<path opacity="0.6" fill="none" stroke="#D1CECD" stroke-linecap="round" stroke-miterlimit="10" d="M124.533,635.433
	c0.112-0.146,11.645-6.516,18.068-8.079"/>
<path opacity="0.6" fill="none" stroke="#D1CECD" stroke-linecap="round" stroke-miterlimit="10" d="M123.066,637.339
	c0.146-0.188,15.145-5.842,16.648-6.407"/>
<path opacity="0.6" fill="none" stroke="#D1CECD" stroke-linecap="round" stroke-miterlimit="10" d="M121.857,638.911
	c0.425,0.028,15.573-3.909,16.823-4.436"/>
<path opacity="0.6" fill="none" stroke="#D1CECD" stroke-linecap="round" stroke-miterlimit="10" d="M128.717,639.05
	c0.352-0.007,14.896-1.987,18.098-5.533"/>
<path opacity="0.6" fill="none" stroke="#D1CECD" stroke-linecap="round" stroke-miterlimit="10" d="M128.658,644.883
	c1.519,1.639,3.713,4.333,5.577,5.457c4.684,2.82,12.104,4.95,21.018,2.192"/>
<path opacity="0.6" fill="none" stroke="#D1CECD" stroke-linecap="round" stroke-miterlimit="10" d="M134.531,647.019
	c0.679-0.045,5.681,5.619,15.054,4.069"/>
<path opacity="0.6" fill="none" stroke="#D1CECD" stroke-linecap="round" stroke-miterlimit="10" d="M96.723,633.127
	c-2.051,2.889-5.703,8.851-6.104,11.207c-0.402,2.358,0.296,5.069,1.122,6.28"/>
<path opacity="0.6" fill="none" stroke="#D1CECD" stroke-linecap="round" stroke-miterlimit="10" d="M95.079,640.42
	c-0.396,0.655-2.389,3.498-2.139,5.878"/>
<path opacity="0.6" fill="none" stroke="#D1CECD" stroke-linecap="round" stroke-miterlimit="10" d="M91.355,695.924
	c1.109,0.404,5.525,3.355,10.286,2.295c0,0,11.488-1.814,14.806-4.281"/>
<path opacity="0.6" fill="none" stroke="#D1CECD" stroke-linecap="round" stroke-miterlimit="10" d="M97.193,695.051
	c1.506,0.354,8.603-0.542,12.057-1.799"/>
<path opacity="0.6" fill="none" stroke="#D1CECD" stroke-linecap="round" stroke-miterlimit="10" d="M113.031,691.801
	c0.949-0.321,3.762-0.918,4.745-1.515"/>
<path opacity="0.6" fill="none" stroke="#D1CECD" stroke-linecap="round" stroke-miterlimit="10" d="M38.305,670.523
	c0.208,1.489,0.452,16.794,2.051,20.646"/>
<path opacity="0.6" fill="none" stroke="#D1CECD" stroke-linecap="round" stroke-miterlimit="10" d="M41.638,677.15
	c0,0,0.076,5.114,0.036,6.338"/>
<path opacity="0.6" fill="none" stroke="#D1CECD" stroke-linecap="round" stroke-miterlimit="10" d="M10.315,711.695
	c0,0,1.233,11.718,7.01,17.98"/>
<path opacity="0.6" fill="none" stroke="#D1CECD" stroke-linecap="round" stroke-miterlimit="10" d="M13.997,715.933
	c0,0,1.987,7.188,3.118,9.192"/>
<path opacity="0.6" fill="none" stroke="#D1CECD" stroke-linecap="round" stroke-miterlimit="10" d="M20.395,717.051
	c0,0,2.37,5.741,0.374,9.402"/>
<path opacity="0.6" fill="none" stroke="#D1CECD" stroke-linecap="round" stroke-miterlimit="10" d="M1.714,734.491"/>
<path opacity="0.6" fill="none" stroke="#D1CECD" stroke-linecap="round" stroke-miterlimit="10" d="M248.658,669.778
	c1.707-0.76,2.847-1.98,3.291-2.464"/>
<path opacity="0.6" fill="none" stroke="#D1CECD" stroke-linecap="round" stroke-miterlimit="10" d="M234.746,668.312
	c0,0,5.1-2.09,9.787-1.417"/>
<path opacity="0.6" fill="none" stroke="#D1CECD" stroke-linecap="round" stroke-miterlimit="10" d="M234.166,670.003
	c0,0,5.008-0.597,8.149-0.77"/>
<path opacity="0.6" fill="none" stroke="#D1CECD" stroke-linecap="round" stroke-miterlimit="10" d="M233.135,672.838
	c0,0,3.709,2.04,8.352,1.512c5.972-0.677,7.444-1.491,8.857-2.623"/>
<path opacity="0.6" fill="none" stroke="#D1CECD" stroke-linecap="round" stroke-miterlimit="10" d="M233.765,671.01
	c0,0,5.83,2.146,11.727,0.131"/>
<path opacity="0.6" fill="none" stroke="#D1CECD" stroke-linecap="round" stroke-miterlimit="10" d="M229.71,659.221
	c-0.249,0.266-5.443,4.689-4.814,14.219"/>
<path opacity="0.6" fill="none" stroke="#D1CECD" stroke-linecap="round" stroke-miterlimit="10" d="M229.721,663.692
	c-0.275,0.056-2.645,4.455-2.382,7.721"/>
<path opacity="0.6" fill="none" stroke="#D1CECD" stroke-linecap="round" stroke-miterlimit="10" d="M212.546,650.958
	c-0.111,0.307-2.305,6.811-0.086,16.425"/>
<path opacity="0.6" fill="none" stroke="#D1CECD" stroke-linecap="round" stroke-miterlimit="10" d="M214.292,655.441
	c0,0-0.577,5.391-0.137,7.279"/>
<path opacity="0.6" fill="none" stroke="#D1CECD" stroke-linecap="round" stroke-miterlimit="10" d="M229.482,688.085
	c2.309,1.304,7.852,5.954,9.707,7.71c1.855,1.758,4.785,2.672,7.401,2.695"/>
<path opacity="0.6" fill="none" stroke="#D1CECD" stroke-linecap="round" stroke-miterlimit="10" d="M236.065,689.749
	c1.812,0.97,4.394,3.407,5.72,4.675"/>
<path opacity="0.6" fill="none" stroke="#D1CECD" stroke-linecap="round" stroke-miterlimit="10" d="M184.312,683.438
	c0,0-1.294,9.626,1.385,12.45c3.336,3.515,6.137,5.871,8.127,8.418"/>
<path opacity="0.6" fill="none" stroke="#D1CECD" stroke-linecap="round" stroke-miterlimit="10" d="M186.612,688.37
	c-0.11,0.302-0.676,4.361,2.658,7.567"/>
<path opacity="0.6" fill="none" stroke="#D1CECD" stroke-linecap="round" stroke-miterlimit="10" d="M203.97,719.675
	c0,0,2.303,10.838,14.708,8.957"/>
<path opacity="0.6" fill="none" stroke="#D1CECD" stroke-linecap="round" stroke-miterlimit="10" d="M208.125,722.212
	c0,0,3.981,5.466,10.814,3.869"/>
<path opacity="0.6" fill="none" stroke="#D1CECD" stroke-linecap="round" stroke-miterlimit="10" d="M149.704,729.166
	c0,0-1.074-4.812,3.378-9.278c4.451-4.468,7.28-6.265,7.28-6.265"/>
<path opacity="0.6" fill="none" stroke="#D1CECD" stroke-linecap="round" stroke-miterlimit="10" d="M152.15,727.592
	c0,0,0.523-4.766,4.768-7.481"/>
<path opacity="0.6" fill="none" stroke="#D1CECD" stroke-linecap="round" stroke-miterlimit="10" d="M165.564,734.95
	c0,0,15.215-1.9,21.739,1.543"/>
<path opacity="0.6" fill="none" stroke="#D1CECD" stroke-linecap="round" stroke-miterlimit="10" d="M162.162,736.901
	c0,0,9.744-0.819,15.854,0.104"/>
<path opacity="0.6" fill="none" stroke="#D1CECD" stroke-linecap="round" stroke-miterlimit="10" d="M158.723,738.855
	c0,0,11.967-0.073,16.045,0.673"/>
<path opacity="0.6" fill="none" stroke="#D1CECD" stroke-linecap="round" stroke-miterlimit="10" d="M178.809,740.128
	c0,0,3.837,0.479,6.561,1.683"/>
<path opacity="0.6" fill="none" stroke="#D1CECD" stroke-linecap="round" stroke-miterlimit="10" d="M154.963,740.968
	c0,0,21.323,1.305,27.491,3.326"/>
<path opacity="0.6" fill="none" stroke="#D1CECD" stroke-linecap="round" stroke-miterlimit="10" d="M100.282,732.586
	c-0.521,0.621-4.3,13.572,2.555,19.709"/>
<path opacity="0.6" fill="none" stroke="#D1CECD" stroke-linecap="round" stroke-miterlimit="10" d="M101.968,736.482
	c0,0-1.512,6.592,0.695,10.893"/>
<path opacity="0.6" fill="none" stroke="#D1CECD" stroke-linecap="round" stroke-miterlimit="10" d="M106.518,776.361
	c0,0,15.375,11.732,20.496,12.121"/>
<path opacity="0.6" fill="none" stroke="#D1CECD" stroke-linecap="round" stroke-miterlimit="10" d="M70.292,748.688
	c0,0,1.237,3.974,0.392,8.142c-0.844,4.168-3.678,12.895-6.757,17.16"/>
<path opacity="0.6" fill="none" stroke="#D1CECD" stroke-linecap="round" stroke-miterlimit="10" d="M68.029,751.99
	c0.22,1.913-1.628,10.231-3.141,13.313"/>
<path opacity="0.6" fill="none" stroke="#D1CECD" stroke-linecap="round" stroke-miterlimit="10" d="M0.096,808.749"/>
<path opacity="0.6" fill="none" stroke="#D1CECD" stroke-linecap="round" stroke-miterlimit="10" d="M112.719,777.799
	c0.599,0.227,5.342,3.925,9.575,6.122"/>
<path opacity="0.6" fill="none" stroke="#D1CECD" stroke-linecap="round" stroke-miterlimit="10" d="M149.9,771.874
	c0,0-0.699,5.433-1.698,9.295"/>
<path opacity="0.6" fill="none" stroke="#D1CECD" stroke-linecap="round" stroke-miterlimit="10" d="M147.264,773.717
	c0,0-0.427,3.747-0.811,5.14"/>
<path opacity="0.6" fill="none" stroke="#D1CECD" stroke-linecap="round" stroke-miterlimit="10" d="M158.914,779.458
	c0.118-0.321,9.016-7.027,9.685-8.296c0.669-1.266,2.218-4.659,2.469-5.35"/>
<path opacity="0.6" fill="none" stroke="#D1CECD" stroke-linecap="round" stroke-miterlimit="10" d="M159.346,776.126
	c0,0,5.286-3.648,6.021-4.525"/>
<path opacity="0.6" fill="none" stroke="#D1CECD" stroke-linecap="round" stroke-miterlimit="10" d="M161.275,799.297
	c0.497,0.119,10.565-1.64,16.365-4.705"/>
<path opacity="0.6" fill="none" stroke="#D1CECD" stroke-linecap="round" stroke-miterlimit="10" d="M162.638,796.527
	c0,0,5.219-0.751,7.523-1.515"/>
<path opacity="0.6" fill="none" stroke="#D1CECD" stroke-linecap="round" stroke-miterlimit="10" d="M112.413,811.07
	c0,0-3.861,13.439-1.637,19.538"/>
<path opacity="0.6" fill="none" stroke="#D1CECD" stroke-linecap="round" stroke-miterlimit="10" d="M113.964,816.241
	c0,0-1.289,5.847-1.488,9.697"/>
<path opacity="0.6" fill="none" stroke="#D1CECD" stroke-linecap="round" stroke-miterlimit="10" d="M124.319,843.267
	c0,0,3.456,2.063,7.485,0.686c4.03-1.379,10.67-4.309,14.955-7.641"/>
<path opacity="0.6" fill="none" stroke="#D1CECD" stroke-linecap="round" stroke-miterlimit="10" d="M129.395,841.823
	c0.356-0.665,6.961-2.245,10.889-4.911"/>
<path opacity="0.6" fill="none" stroke="#D1CECD" stroke-linecap="round" stroke-miterlimit="10" d="M69.783,831.229
	c-0.221,0.163-5.479,6.64-4.421,15.264"/>
<path opacity="0.6" fill="none" stroke="#D1CECD" stroke-linecap="round" stroke-miterlimit="10" d="M70.12,836.788
	c0,0-1.903,4.09-1.721,6.268"/>
<path opacity="0.6" fill="none" stroke="#D1CECD" stroke-linecap="round" stroke-miterlimit="10" d="M77.162,864.807
	c0.01,0.067,6.997,11.219,16.425,12.077"/>
<path opacity="0.6" fill="none" stroke="#D1CECD" stroke-linecap="round" stroke-miterlimit="10" d="M84.106,869.078
	c0.164,0.061,5.877,5.395,12.306,5.682"/>
<path opacity="0.6" fill="none" stroke="#D1CECD" stroke-linecap="round" stroke-miterlimit="10" d="M15.041,861.46
	c0,0-0.792-2.761,2.167-5.957c2.962-3.192,4.902-5.432,6.036-6.694"/>
<path opacity="0.6" fill="none" stroke="#D1CECD" stroke-linecap="round" stroke-miterlimit="10" d="M17.946,860.271
	c0,0,1.27-3.485,2.785-4.559"/>
<path opacity="0.6" fill="none" stroke="#D1CECD" stroke-linecap="round" stroke-miterlimit="10" d="M32.956,882.666
	c0.182,1.104,0.146,2.592,10.02,4.491"/>
<path opacity="0.6" fill="none" stroke="#D1CECD" stroke-linecap="round" stroke-miterlimit="10" d="M1.855,928.852
	c3.923,0.608,8.641,0.567,13.802-1.072"/>
<path opacity="0.6" fill="none" stroke="#D1CECD" stroke-linecap="round" stroke-miterlimit="10" d="M1.857,926.208
	c1.347,0.229,2.911,0.368,4.702,0.343"/>
<path opacity="0.6" fill="none" stroke="#D1CECD" stroke-linecap="round" stroke-miterlimit="10" d="M1.857,923.465
	c0.935,0.233,1.978,0.401,3.072,0.409"/>
</svg>