<svg version="1.1" id="Ebene_1" xmlns="http://www.w3.org/2000/svg" xmlns:xlink="http://www.w3.org/1999/xlink" x="0px" y="0px"
	 width="490px" height="1040px" viewBox="0 0 490 1040" enable-background="new 0 0 490 1040" xml:space="preserve">
<path opacity="0.5" fill="none" stroke="#D1CECD" stroke-linecap="round" stroke-miterlimit="10" d="M79.85,91.842
	c0,0,0.147-5.489-1.268-8.605"/>
<path opacity="0.5" fill="none" stroke="#D1CECD" stroke-linecap="round" stroke-miterlimit="10" d="M78.018,94.229
	c0,0-0.463-4.226-0.984-7.591"/>
<path opacity="0.5" fill="none" stroke="#D1CECD" stroke-linecap="round" stroke-miterlimit="10" d="M76.316,98.036
	c0,0-0.896-3.578-1.11-7.554"/>
<path opacity="0.5" fill="none" stroke="#D1CECD" stroke-linecap="round" stroke-miterlimit="10" d="M74.192,104.314
	c0,0-1.151-9.329-0.999-11.902"/>
<path opacity="0.5" fill="none" stroke="#D1CECD" stroke-linecap="round" stroke-miterlimit="10" d="M71.165,91.896
	c0,0-0.06-1.219,0.452-3.266"/>
<path opacity="0.5" fill="none" stroke="#D1CECD" stroke-linecap="round" stroke-miterlimit="10" d="M72.407,108.971
	c-1.276-6.53-1.305-8.94-1.333-15.022"/>
<path opacity="0.5" fill="none" stroke="#D1CECD" stroke-linecap="round" stroke-miterlimit="10" d="M70.398,113.874
	c0,0-8.784-13.229-13.632-16.474"/>
<path opacity="0.5" fill="none" stroke="#D1CECD" stroke-linecap="round" stroke-miterlimit="10" d="M69.681,116.697
	c0.101-0.306-5.958-8.409-7.451-10.069"/>
<path opacity="0.5" fill="none" stroke="#D1CECD" stroke-linecap="round" stroke-miterlimit="10" d="M60.373,104.404
	c0,0-1.923-2.423-2.677-3.191"/>
<path opacity="0.5" fill="none" stroke="#D1CECD" stroke-linecap="round" stroke-miterlimit="10" d="M69.104,118.48
	c0,0-5.849-7.346-6.946-8.564"/>
<path opacity="0.5" fill="none" stroke="#D1CECD" stroke-linecap="round" stroke-miterlimit="10" d="M68.542,120.301
	c0,0-7.97-8.595-9.841-11.728"/>
<path opacity="0.5" fill="none" stroke="#D1CECD" stroke-linecap="round" stroke-miterlimit="10" d="M68.062,121.954
	c0.063-0.226-7.422-5.652-9.732-9.24"/>
<path opacity="0.5" fill="none" stroke="#D1CECD" stroke-linecap="round" stroke-miterlimit="10" d="M73.767,107.371
	c0,0,5.941-11.536,9.935-14.485"/>
<path opacity="0.5" fill="none" stroke="#D1CECD" stroke-linecap="round" stroke-miterlimit="10" d="M72.936,111.745
	c0,0,4.806-8.074,7.744-11.621"/>
<path opacity="0.5" fill="none" stroke="#D1CECD" stroke-linecap="round" stroke-miterlimit="10" d="M72.353,114.455
	c0,0,3.061-3.09,4.708-5.421"/>
<path opacity="0.5" fill="none" stroke="#D1CECD" stroke-linecap="round" stroke-miterlimit="10" d="M79.122,106.956
	c0.381-0.521,0.918-1.171,1.696-2.224"/>
<path opacity="0.5" fill="none" stroke="#D1CECD" stroke-linecap="round" stroke-miterlimit="10" d="M72.191,118.488
	c0,0,2.595-2.561,4.18-4.757"/>
<path opacity="0.5" fill="none" stroke="#D1CECD" stroke-linecap="round" stroke-miterlimit="10" d="M81.352,112.002
	c-0.069-0.363,10.969-6.249,14.393-6.385"/>
<path opacity="0.5" fill="none" stroke="#D1CECD" stroke-linecap="round" stroke-miterlimit="10" d="M76.977,116.561
	c0,0,5.351-3.155,7.954-3.872"/>
<path opacity="0.5" fill="none" stroke="#D1CECD" stroke-linecap="round" stroke-miterlimit="10" d="M86.96,112.053
	c0,0,3.39-1.176,4.161-1.29"/>
<path opacity="0.5" fill="none" stroke="#D1CECD" stroke-linecap="round" stroke-miterlimit="10" d="M73.137,120.215
	c0,0,11.139-5.442,13.638-5.804"/>
<path opacity="0.5" fill="none" stroke="#D1CECD" stroke-linecap="round" stroke-miterlimit="10" d="M72.94,122.75
	c0.25-0.275,6.072-2.56,7.922-3.378"/>
<path opacity="0.5" fill="none" stroke="#D1CECD" stroke-linecap="round" stroke-miterlimit="10" d="M51.164,105.059
	c0,0-7.805-6.129-10.309-7.364"/>
<path opacity="0.5" fill="none" stroke="#D1CECD" stroke-linecap="round" stroke-miterlimit="10" d="M54.356,111.044
	c0.23-0.174-3.665-3.854-5.646-5.261"/>
<path opacity="0.5" fill="none" stroke="#D1CECD" stroke-linecap="round" stroke-miterlimit="10" d="M45.958,103.774
	c0,0-2.305-1.645-4.085-2.408"/>
<path opacity="0.5" fill="none" stroke="#D1CECD" stroke-linecap="round" stroke-miterlimit="10" d="M67.169,125.439
	c0.032-0.145-13.599-12.356-17.25-15.715"/>
<path opacity="0.5" fill="none" stroke="#D1CECD" stroke-linecap="round" stroke-miterlimit="10" d="M66.779,127.392
	c0,0-10.542-8.387-12.986-10.873"/>
<path opacity="0.5" fill="none" stroke="#D1CECD" stroke-linecap="round" stroke-miterlimit="10" d="M66.114,129.546
	c0,0-12.455-9.912-14.511-12.045"/>
<path opacity="0.5" fill="none" stroke="#D1CECD" stroke-linecap="round" stroke-miterlimit="10" d="M51.783,114.76
	c0,0-2.361-2.14-3.144-2.816"/>
<path opacity="0.5" fill="none" stroke="#D1CECD" stroke-linecap="round" stroke-miterlimit="10" d="M47.53,108.108
	c0,0-2.238-1.779-2.8-2.107"/>
<path opacity="0.5" fill="none" stroke="#D1CECD" stroke-linecap="round" stroke-miterlimit="10" d="M65.63,137.704
	c0,0-6.189,0.588-8.954-1.833"/>
<path opacity="0.5" fill="none" stroke="#D1CECD" stroke-linecap="round" stroke-miterlimit="10" d="M65.82,135.983
	c-0.374-0.073-7.009-0.349-10.314-3.494"/>
<path opacity="0.5" fill="none" stroke="#D1CECD" stroke-linecap="round" stroke-miterlimit="10" d="M66.016,134.22
	c0,0-2.976-0.226-6.326-1.752"/>
<path opacity="0.5" fill="none" stroke="#D1CECD" stroke-linecap="round" stroke-miterlimit="10" d="M65.84,131.978
	c-0.092-0.024-7.221-1.317-10.812-4.457"/>
<path opacity="0.5" fill="none" stroke="#D1CECD" stroke-linecap="round" stroke-miterlimit="10" d="M70.986,140.603
	c0,0,8.848-0.216,11.862-1.045"/>
<path opacity="0.5" fill="none" stroke="#D1CECD" stroke-linecap="round" stroke-miterlimit="10" d="M71.234,142.62
	c0.201,0.076,12.564,0.578,15.016-0.812"/>
<path opacity="0.5" fill="none" stroke="#D1CECD" stroke-linecap="round" stroke-miterlimit="10" d="M76.09,137.623
	c0,0,5.251-1.137,7.66-0.856"/>
<path opacity="0.5" fill="none" stroke="#D1CECD" stroke-linecap="round" stroke-miterlimit="10" d="M86.319,137.045
	c0,0,1.956,0.303,2.879,0.688"/>
<path opacity="0.5" fill="none" stroke="#D1CECD" stroke-linecap="round" stroke-miterlimit="10" d="M80.944,134.75
	c0,0,8.604-0.814,11.568,1.003"/>
<path opacity="0.5" fill="none" stroke="#D1CECD" stroke-linecap="round" stroke-miterlimit="10" d="M81.29,199.273
	c0,0,8.516-4.2,14.084-11.875"/>
<path opacity="0.5" fill="none" stroke="#D1CECD" stroke-linecap="round" stroke-miterlimit="10" d="M95.445,185.336
	c0,0-3.315-10.83,3.332-19.81"/>
<path opacity="0.5" fill="none" stroke="#D1CECD" stroke-linecap="round" stroke-miterlimit="10" d="M96.737,184.252
	c0.402-3.339-0.934-3.368,0.638-8.717"/>
<path opacity="0.5" fill="none" stroke="#D1CECD" stroke-linecap="round" stroke-miterlimit="10" d="M98.257,173.103
	c0,0,0.342-1.729,1.815-4.405"/>
<path opacity="0.5" fill="none" stroke="#D1CECD" stroke-linecap="round" stroke-miterlimit="10" d="M51.815,210.631
	c0.076,1.044-1.493,10.58-10.656,13.781"/>
<path opacity="0.5" fill="none" stroke="#D1CECD" stroke-linecap="round" stroke-miterlimit="10" d="M48.932,211.609
	c0.107,1.081-1.231,6.583-7.184,9.927"/>
<path opacity="0.5" fill="none" stroke="#D1CECD" stroke-linecap="round" stroke-miterlimit="10" d="M84.711,202.404
	c0.302-0.049,6.915-1.942,11.845-0.953c4.93,0.988,10.112,0.57,11.599,0.142"/>
<path opacity="0.5" fill="none" stroke="#D1CECD" stroke-linecap="round" stroke-miterlimit="10" d="M84.039,204.805
	c0,0,3.391-1.233,7.917-0.727"/>
<path opacity="0.5" fill="none" stroke="#D1CECD" stroke-linecap="round" stroke-miterlimit="10" d="M94.705,204.374
	c0.332,0.029,2.935,0.405,4.645,0.406"/>
<path opacity="0.5" fill="none" stroke="#D1CECD" stroke-linecap="round" stroke-miterlimit="10" d="M84.653,207.818
	c0.054,0.209,2.992,3.092,7.275,3.188c4.285,0.095,8.04-0.958,10.723-2.291"/>
<path opacity="0.5" fill="none" stroke="#D1CECD" stroke-linecap="round" stroke-miterlimit="10" d="M86.885,211.446
	c0.188,0.243,7.682,3.652,13.204,0.82"/>
<path opacity="0.5" fill="none" stroke="#D1CECD" stroke-linecap="round" stroke-miterlimit="10" d="M95.069,215.694
	c0.178,0.042,7.639-0.436,12.218-4.263"/>
<path opacity="0.5" fill="none" stroke="#D1CECD" stroke-linecap="round" stroke-miterlimit="10" d="M84.21,206.137
	c0,0,7.15,2.242,11.557,1.649"/>
<path opacity="0.5" fill="none" stroke="#D1CECD" stroke-linecap="round" stroke-miterlimit="10" d="M46.192,213.054
	c0,0-1.372,3.197-2.57,4.183"/>
<path opacity="0.5" fill="none" stroke="#D1CECD" stroke-linecap="round" stroke-miterlimit="10" d="M32.545,186.873
	c0,0,3.018-0.562,5.286-0.511c4.969,0.106,15.196,5.902,15.99,6.35"/>
<path opacity="0.5" fill="none" stroke="#D1CECD" stroke-linecap="round" stroke-miterlimit="10" d="M35.736,184.196
	c0,0,5.114-0.268,9.966,2.472"/>
<path opacity="0.5" fill="none" stroke="#D1CECD" stroke-linecap="round" stroke-miterlimit="10" d="M121.383,297.994
	c0,0,4.939-0.555,8.847-2.66c3.998-2.153,7.804-2.544,9.714-2.814"/>
<path opacity="0.5" fill="none" stroke="#D1CECD" stroke-linecap="round" stroke-miterlimit="10" d="M125.142,294.84
	c0.348-0.064,2.047-0.424,3.028-0.846"/>
<path opacity="0.5" fill="none" stroke="#D1CECD" stroke-linecap="round" stroke-miterlimit="10" d="M131.359,292.386
	c2.169-0.754,7.852-2.251,10.351-1.88"/>
<path opacity="0.5" fill="none" stroke="#D1CECD" stroke-linecap="round" stroke-miterlimit="10" d="M126.909,290.782
	c0,0,2.623-1.049,6.167-1.753c3.546-0.707,5.812-0.493,6.447-0.559"/>
<path opacity="0.5" fill="none" stroke="#D1CECD" stroke-linecap="round" stroke-miterlimit="10" d="M67.347,255.621
	c0,0,5.959,1.138,10.107-0.778c3.743-1.73,10.712-1.846,16.748-5.103"/>
<path opacity="0.5" fill="none" stroke="#D1CECD" stroke-linecap="round" stroke-miterlimit="10" d="M73.287,253.873
	c1.824-0.33,1.518-0.574,2.51-1.005"/>
<path opacity="0.5" fill="none" stroke="#D1CECD" stroke-linecap="round" stroke-miterlimit="10" d="M78.228,252.128
	c0.717-0.1,4.08-1.222,5.611-1.305c1.531-0.083,4.561-1.125,5.502-1.315"/>
<path opacity="0.5" fill="none" stroke="#D1CECD" stroke-linecap="round" stroke-miterlimit="10" d="M87.997,246.62"/>
<path opacity="0.5" fill="none" stroke="#D1CECD" stroke-linecap="round" stroke-miterlimit="10" d="M135.698,275.566
	c0,0-0.317-2.45-1.16-5.525"/>
<path opacity="0.5" fill="none" stroke="#D1CECD" stroke-linecap="round" stroke-miterlimit="10" d="M137.403,274.37
	c0,0-1.118-6.372-2.343-8.978"/>
<path opacity="0.5" fill="none" stroke="#D1CECD" stroke-linecap="round" stroke-miterlimit="10" d="M142.86,245.84
	c0,0,0.73-6.236,0.917-9.995"/>
<path opacity="0.5" fill="none" stroke="#D1CECD" stroke-linecap="round" stroke-miterlimit="10" d="M144.481,232.634
	c0,0,0.57-2.554,0.863-3.966"/>
<path opacity="0.5" fill="none" stroke="#D1CECD" stroke-linecap="round" stroke-miterlimit="10" d="M144.676,248.4
	c0.271-0.97,2.691-20.094,3.273-22.183"/>
<path opacity="0.5" fill="none" stroke="#D1CECD" stroke-linecap="round" stroke-miterlimit="10" d="M124.787,233.502"/>
<path opacity="0.5" fill="none" stroke="#D1CECD" stroke-linecap="round" stroke-miterlimit="10" d="M125.144,236.215"/>
<path opacity="0.5" fill="none" stroke="#D1CECD" stroke-linecap="round" stroke-miterlimit="10" d="M166.848,302.956
	c0,0,5.627-11.615,1.566-27.319"/>
<path opacity="0.5" fill="none" stroke="#D1CECD" stroke-linecap="round" stroke-miterlimit="10" d="M165.292,301.077
	c0,0,2.716-12.087,2.252-15.502"/>
<path opacity="0.5" fill="none" stroke="#D1CECD" stroke-linecap="round" stroke-miterlimit="10" d="M167.116,282.898
	c0,0-0.028-1.772-0.575-3.515"/>
<path opacity="0.5" fill="none" stroke="#D1CECD" stroke-linecap="round" stroke-miterlimit="10" d="M163.236,296.884
	c0,0,0.899-10.516,1.096-12.949"/>
<path opacity="0.5" fill="none" stroke="#D1CECD" stroke-linecap="round" stroke-miterlimit="10" d="M160.417,291.557
	c0,0,0.647-8.618,1.595-11.146"/>
<path opacity="0.5" fill="none" stroke="#D1CECD" stroke-linecap="round" stroke-miterlimit="10" d="M158.383,287.456
	c0.003,0.002-0.208-9.432,1.982-12.604"/>
<path opacity="0.5" fill="none" stroke="#D1CECD" stroke-linecap="round" stroke-miterlimit="10" d="M158.247,306.806
	c-1.118,1.122-5.102,6.682-10.722,7.542c-5.619,0.86-10.658-0.202-17.419-0.395"/>
<path opacity="0.5" fill="none" stroke="#D1CECD" stroke-linecap="round" stroke-miterlimit="10" d="M156.176,306.007
	c0,0-4.033,5.344-9.796,6.035c-5.764,0.691-10.559-0.278-10.559-0.278"/>
<path opacity="0.5" fill="none" stroke="#D1CECD" stroke-linecap="round" stroke-miterlimit="10" d="M144.498,309.326
	c1.237,0.043,3.582-0.286,5.349-1.207"/>
<path opacity="0.5" fill="none" stroke="#D1CECD" stroke-linecap="round" stroke-miterlimit="10" d="M188.367,280.971
	c0,0-7.487-4.235-8.292-13.812c-0.16-1.895-1.154-3.221-1.728-4.271"/>
<path opacity="0.5" fill="none" stroke="#D1CECD" stroke-linecap="round" stroke-miterlimit="10" d="M189.092,278.851
	c0,0-4.589-3.282-5.878-7.455c-0.899-2.917-0.466-2.914-1.082-5.094"/>
<path opacity="0.5" fill="none" stroke="#D1CECD" stroke-linecap="round" stroke-miterlimit="10" d="M189.628,277.431
	c0,0-3.538-4.814-4.245-7.253"/>
<path opacity="0.5" fill="none" stroke="#D1CECD" stroke-linecap="round" stroke-miterlimit="10" d="M184.896,267.979
	c0,0-0.145-1.178-0.666-2.81"/>
<path opacity="0.5" fill="none" stroke="#D1CECD" stroke-linecap="round" stroke-miterlimit="10" d="M190.112,274.332
	c0,0-2.58-5.251-3.05-7.794c-0.455-2.462-0.639-4.402-0.81-5.126"/>
<path opacity="0.5" fill="none" stroke="#D1CECD" stroke-linecap="round" stroke-miterlimit="10" d="M190.954,270.42
	c0,0-1.314-2.528-1.621-4.801c-0.306-2.273-0.614-4.845-1.327-7.021"/>
<path opacity="0.5" fill="none" stroke="#D1CECD" stroke-linecap="round" stroke-miterlimit="10" d="M192.449,267.028
	c0,0-1.235-9.048-3.495-13.53"/>
<path opacity="0.5" fill="none" stroke="#D1CECD" stroke-linecap="round" stroke-miterlimit="10" d="M188.625,331.352
	c0,0-24.649,18.367-33.044,18.2"/>
<path opacity="0.5" fill="none" stroke="#D1CECD" stroke-linecap="round" stroke-miterlimit="10" d="M190.153,328.961
	c0,0-23.685,15.216-28.088,15.87"/>
<path opacity="0.5" fill="none" stroke="#D1CECD" stroke-linecap="round" stroke-miterlimit="10" d="M165.292,339.803
	c2.323-0.852,4.172-1.557,4.172-1.557"/>
<path opacity="0.5" fill="none" stroke="#D1CECD" stroke-linecap="round" stroke-miterlimit="10" d="M172.213,337.132
	c0,0,7.827-3.341,14.249-8.358"/>
<path opacity="0.5" fill="none" stroke="#D1CECD" stroke-linecap="round" stroke-miterlimit="10" d="M198.03,327.049
	c0,0,4.692-0.673,4.505-7.295c-0.036-1.227,0.415-3.036,0.359-5.139"/>
<path opacity="0.5" fill="none" stroke="#D1CECD" stroke-linecap="round" stroke-miterlimit="10" d="M198.82,327.621
	c0,0,4.46-1.155,5.618-5.782c1.325-5.286,1.641-6.289,1.4-11.122"/>
<path opacity="0.5" fill="none" stroke="#D1CECD" stroke-linecap="round" stroke-miterlimit="10" d="M201.311,328.797
	c0,0,5.179,0.707,7.184-6.543c1.604-5.8,3.02-10.797,2.267-15.667"/>
<path opacity="0.5" fill="none" stroke="#D1CECD" stroke-linecap="round" stroke-miterlimit="10" d="M210.884,322.087
	c0,0,3.623-12.1,1.875-18.007"/>
<path opacity="0.5" fill="none" stroke="#D1CECD" stroke-linecap="round" stroke-miterlimit="10" d="M191.573,322.164
	c0,0,1.038-5.285-0.5-12.129c-1.293-5.761-0.116-9.644,5.72-15.911c5.299-5.692,6.209-13.117,6.107-16.936"/>
<path opacity="0.5" fill="none" stroke="#D1CECD" stroke-linecap="round" stroke-miterlimit="10" d="M191.193,297.101
	c1.808-4.058,6.641-4.699,9.187-18.852"/>
<path opacity="0.5" fill="none" stroke="#D1CECD" stroke-linecap="round" stroke-miterlimit="10" d="M201.226,274.109
	c0,0,0.756-5.17,3.247-8.165"/>
<path opacity="0.5" fill="none" stroke="#D1CECD" stroke-linecap="round" stroke-miterlimit="10" d="M78.574,198.471
	c0,0-1.387,3.41-5.301,2.659"/>
<path opacity="0.5" fill="none" stroke="#D1CECD" stroke-linecap="round" stroke-miterlimit="10" d="M80.046,200.225
	c0,0-3.35,5.74-9.295,2.502"/>
<path opacity="0.5" fill="none" stroke="#D1CECD" stroke-linecap="round" stroke-miterlimit="10" d="M80.736,202.773
	c-1.669,3.077-5.321,3.627-7.232,3.236"/>
<path opacity="0.5" fill="none" stroke="#D1CECD" stroke-linecap="round" stroke-miterlimit="10" d="M70.917,205.519
	c0,0-1.295-0.317-2.605-1.264"/>
<path opacity="0.5" fill="none" stroke="#D1CECD" stroke-linecap="round" stroke-miterlimit="10" d="M213.762,343.635
	c0,0-14.141,19.875-28.915,20.335"/>
<path opacity="0.5" fill="none" stroke="#D1CECD" stroke-linecap="round" stroke-miterlimit="10" d="M211.783,342.395
	c0,0-9.416,9.708-14.84,13.818"/>
<path opacity="0.5" fill="none" stroke="#D1CECD" stroke-linecap="round" stroke-miterlimit="10" d="M194.051,358.468
	c0,0-3.384,1.706-5.949,2.537"/>
<path opacity="0.5" fill="none" stroke="#D1CECD" stroke-linecap="round" stroke-miterlimit="10" d="M209.118,341.634
	c0,0-9.926,8.413-14.05,11.894"/>
<path opacity="0.5" fill="none" stroke="#D1CECD" stroke-linecap="round" stroke-miterlimit="10" d="M205.619,341.33
	c0,0-4.814,2.449-8.312,5.596"/>
<path opacity="0.5" fill="none" stroke="#D1CECD" stroke-linecap="round" stroke-miterlimit="10" d="M250.823,301.971
	c0,0-0.007-11.318-5.39-18.287"/>
<path opacity="0.5" fill="none" stroke="#D1CECD" stroke-linecap="round" stroke-miterlimit="10" d="M248.261,298.124
	c0,0-0.185-5.321-1.378-7.856"/>
<path opacity="0.5" fill="none" stroke="#D1CECD" stroke-linecap="round" stroke-miterlimit="10" d="M245.354,294.551
	c0,0-0.588-2.977-0.625-3.745"/>
<path opacity="0.5" fill="none" stroke="#D1CECD" stroke-linecap="round" stroke-miterlimit="10" d="M242.633,291.746
	c0,0-0.199-3.007,0.425-4.069"/>
<path opacity="0.5" fill="none" stroke="#D1CECD" stroke-linecap="round" stroke-miterlimit="10" d="M240.239,289.468
	c0,0,1.201-3.376,1.481-4.277"/>
<path opacity="0.5" fill="none" stroke="#D1CECD" stroke-linecap="round" stroke-miterlimit="10" d="M246.654,314.569
	c-0.007-0.027-6.362-4.562-7.692-10.753"/>
<path opacity="0.5" fill="none" stroke="#D1CECD" stroke-linecap="round" stroke-miterlimit="10" d="M238.066,301.272
	c-0.143-0.288-0.191-3.15-0.327-4.237"/>
<path opacity="0.5" fill="none" stroke="#D1CECD" stroke-linecap="round" stroke-miterlimit="10" d="M245.769,310.932
	c0,0-4.931-4.986-5.564-10.96"/>
<path opacity="0.5" fill="none" stroke="#D1CECD" stroke-linecap="round" stroke-miterlimit="10" d="M247.065,306.553
	c0,0-0.109-3.938-2.116-7.761"/>
<path opacity="0.5" fill="none" stroke="#D1CECD" stroke-linecap="round" stroke-miterlimit="10" d="M249.074,312.468
	c0,0,1.891-4.686-0.576-9.447"/>
<path opacity="0.5" fill="none" stroke="#D1CECD" stroke-linecap="round" stroke-miterlimit="10" d="M236.406,338.223
	c0,0,2.997,2.462,5.749,2.315c2.951-0.159,6.398-3.048,10.027,1.279"/>
<path opacity="0.5" fill="none" stroke="#D1CECD" stroke-linecap="round" stroke-miterlimit="10" d="M235.816,334.354
	c0,0,1.779,2.308,3.639,3.269c3.793,1.958,8.927-1.927,12.263,1.63"/>
<path opacity="0.5" fill="none" stroke="#D1CECD" stroke-linecap="round" stroke-miterlimit="10" d="M252.913,327.84
	c0,0,5.45-4.611,7.171-8.199c1.218-2.543,1.31-4.601,0.082-7.893c-0.365-0.985-0.596-2.099-0.729-3.216"/>
<path opacity="0.5" fill="none" stroke="#D1CECD" stroke-linecap="round" stroke-miterlimit="10" d="M253.548,328.596
	c0,0,4.921-3.344,6.265-5.256c1.342-1.911,5.343-5.772,2.677-11.367"/>
<path opacity="0.5" fill="none" stroke="#D1CECD" stroke-linecap="round" stroke-miterlimit="10" d="M258.574,361.498
	c0,0,3.706-2.922,3.244-7.288c-0.482-4.568-0.636-6.16-0.334-8.325"/>
<path opacity="0.5" fill="none" stroke="#D1CECD" stroke-linecap="round" stroke-miterlimit="10" d="M258.925,362.828
	c0,0,6.085-6.187,4.661-12.446"/>
<path opacity="0.5" fill="none" stroke="#D1CECD" stroke-linecap="round" stroke-miterlimit="10" d="M259.302,363.837
	c0,0,5.368-4.16,6.395-11.57c0.232-1.689,0.236-2.722,0.39-5.025"/>
<path opacity="0.5" fill="none" stroke="#D1CECD" stroke-linecap="round" stroke-miterlimit="10" d="M253.392,375.451
	c-0.134,3.444-7.351,10.635-14.511,12.176"/>
<path opacity="0.5" fill="none" stroke="#D1CECD" stroke-linecap="round" stroke-miterlimit="10" d="M234.353,388.068
	c0,0-2.104,0.194-4.083-1.196"/>
<path opacity="0.5" fill="none" stroke="#D1CECD" stroke-linecap="round" stroke-miterlimit="10" d="M233.85,385.466
	c9.638,1.346,18.754-10.75,18.754-10.75"/>
<path opacity="0.5" fill="none" stroke="#D1CECD" stroke-linecap="round" stroke-miterlimit="10" d="M251.238,372.883
	c-0.502,2.092-6.8,7.548-11.865,9.027"/>
<path opacity="0.5" fill="none" stroke="#D1CECD" stroke-linecap="round" stroke-miterlimit="10" d="M249.478,371.439
	c-0.111,2.086-5.188,5.732-7.476,6.653"/>
<path opacity="0.5" fill="none" stroke="#D1CECD" stroke-linecap="round" stroke-miterlimit="10" d="M154.424,397.836
	c0,0-1.809-11.502-8.744-18.7"/>
<path opacity="0.5" fill="none" stroke="#D1CECD" stroke-linecap="round" stroke-miterlimit="10" d="M149.01,388.831
	c0,0-2.441-5.22-4.656-8.016"/>
<path opacity="0.5" fill="none" stroke="#D1CECD" stroke-linecap="round" stroke-miterlimit="10" d="M143.978,385.353
	c0,0-1.499-2.835-1.777-3.638"/>
<path opacity="0.5" fill="none" stroke="#D1CECD" stroke-linecap="round" stroke-miterlimit="10" d="M140.114,383.193
	c-0.145-0.076-0.901-3.149-0.927-4.308"/>
<path opacity="0.5" fill="none" stroke="#D1CECD" stroke-linecap="round" stroke-miterlimit="10" d="M137.157,381.686
	c0,0-1.499-3.798-0.157-6.166"/>
<path opacity="0.5" fill="none" stroke="#D1CECD" stroke-linecap="round" stroke-miterlimit="10" d="M153.133,401.42
	c-0.113-0.031-6.601,3.729-13.085,3.419c-6.483-0.31-6.056-0.545-8.354-1.478"/>
<path opacity="0.5" fill="none" stroke="#D1CECD" stroke-linecap="round" stroke-miterlimit="10" d="M149.108,400.515
	c-0.115-0.03-6.061,2.548-13.051,1.923"/>
<path opacity="0.5" fill="none" stroke="#D1CECD" stroke-linecap="round" stroke-miterlimit="10" d="M144.659,399.126
	c-0.092-0.035-4.414,1.209-7.299,1.054"/>
<path opacity="0.5" fill="none" stroke="#D1CECD" stroke-linecap="round" stroke-miterlimit="10" d="M140.481,397.561
	c0,0-2.674-0.056-4.305,0.333"/>
<path opacity="0.5" fill="none" stroke="#D1CECD" stroke-linecap="round" stroke-miterlimit="10" d="M137.151,396.117
	c0,0-2.49-0.03-4.819,0.747"/>
<path opacity="0.5" fill="none" stroke="#D1CECD" stroke-linecap="round" stroke-miterlimit="10" d="M151.287,397.888
	c-0.561-1.552-0.113-1.487-1.295-3.676c-1.29-2.384-4.783-5.048-10.493-8.009"/>
<path opacity="0.5" fill="none" stroke="#D1CECD" stroke-linecap="round" stroke-miterlimit="10" d="M147.995,396.328
	c0,0-1.122-3.558-4.584-5.462"/>
<path opacity="0.5" fill="none" stroke="#D1CECD" stroke-linecap="round" stroke-miterlimit="10" d="M174.071,403.563
	c0,0,2.596-4.315,2.41-7.464c-0.187-3.147-0.868-3.631-2.053-7.343c-1.186-3.709-1.35-4.893-1.29-5.962"/>
<path opacity="0.5" fill="none" stroke="#D1CECD" stroke-linecap="round" stroke-miterlimit="10" d="M172.489,403.277
	c0,0,2.889-4.996,0.654-11.598"/>
<path opacity="0.5" fill="none" stroke="#D1CECD" stroke-linecap="round" stroke-miterlimit="10" d="M172.214,389.102
	c0,0-0.302-1.047-0.601-2.807"/>
<path opacity="0.5" fill="none" stroke="#D1CECD" stroke-linecap="round" stroke-miterlimit="10" d="M168.804,406.609
	c0,0-1.945,2.14-3.548,5.105c-4.116,7.605-10.727,14.493-20.546,14.059"/>
<path opacity="0.5" fill="none" stroke="#D1CECD" stroke-linecap="round" stroke-miterlimit="10" d="M162.579,411.935
	c-0.081,1.184-6.921,9.493-12.21,10.681"/>
<path opacity="0.5" fill="none" stroke="#D1CECD" stroke-linecap="round" stroke-miterlimit="10" d="M151.686,411.569
	c1.179-0.499,3.86-0.975,5.508-0.205"/>
<path opacity="0.5" fill="none" stroke="#D1CECD" stroke-linecap="round" stroke-miterlimit="10" d="M205.585,422.741
	c-3.584,7.429-8.901,12.066-17.617,13.52"/>
<path opacity="0.5" fill="none" stroke="#D1CECD" stroke-linecap="round" stroke-miterlimit="10" d="M184.201,436.447
	c0,0-1.147,0.048-3.783-0.582"/>
<path opacity="0.5" fill="none" stroke="#D1CECD" stroke-linecap="round" stroke-miterlimit="10" d="M204.281,420.054
	c0,0-4.619,11.185-13.425,12.837"/>
<path opacity="0.5" fill="none" stroke="#D1CECD" stroke-linecap="round" stroke-miterlimit="10" d="M202.776,419.393
	c-0.369,0.604-4.459,6.704-6.548,8.191"/>
<path opacity="0.5" fill="none" stroke="#D1CECD" stroke-linecap="round" stroke-miterlimit="10" d="M216.074,398.09
	c-0.86-1.014-2.104-1.774-3.324-2.618"/>
<path opacity="0.5" fill="none" stroke="#D1CECD" stroke-linecap="round" stroke-miterlimit="10" d="M213.979,421.309
	c0.104-0.087,2.81,0.145,5.173-7.057c1.458-4.44,0.899-9.519-1.377-13.688"/>
<path opacity="0.5" fill="none" stroke="#D1CECD" stroke-linecap="round" stroke-miterlimit="10" d="M212.759,420.608
	c0,0,6.903-3.418,4.32-14.898"/>
<path opacity="0.5" fill="none" stroke="#D1CECD" stroke-linecap="round" stroke-miterlimit="10" d="M212.259,420.012
	c0,0,5.244-7.283,2.905-12.267"/>
<path opacity="0.5" fill="none" stroke="#D1CECD" stroke-linecap="round" stroke-miterlimit="10" d="M232.485,430.902
	c0,0,7.922-3.051,4.662-10.081"/>
<path opacity="0.5" fill="none" stroke="#D1CECD" stroke-linecap="round" stroke-miterlimit="10" d="M236.188,417.851
	c0,0-0.76-2.159-0.462-4.574"/>
<path opacity="0.5" fill="none" stroke="#D1CECD" stroke-linecap="round" stroke-miterlimit="10" d="M232.318,430.705
	c0,0,5.6-4.72,2.387-9.742c-1.811-2.829-1.612-5.476-1.612-5.476"/>
<path opacity="0.5" fill="none" stroke="#D1CECD" stroke-linecap="round" stroke-miterlimit="10" d="M231.678,430.163
	c0,0,2.46-4.122,1.518-6.483c-0.783-1.959-0.963-2.218-1.763-4.319"/>
<path opacity="0.5" fill="none" stroke="#D1CECD" stroke-linecap="round" stroke-miterlimit="10" d="M239.29,440.178
	c-0.521-0.314-0.432,1.052-8.473,1.196c-3.85,0.068-6.485,3.356-7.843,4.401"/>
<path opacity="0.5" fill="none" stroke="#D1CECD" stroke-linecap="round" stroke-miterlimit="10" d="M237.306,438.993
	c0,0-3.197,0.763-6.298,0.315c-3.102-0.449-5.218,1.053-5.955,1.671"/>
<path opacity="0.5" fill="none" stroke="#D1CECD" stroke-linecap="round" stroke-miterlimit="10" d="M300.633,473.909
	c0.286-1.04,2.2-3.003,3.309-5.713c1.107-2.71,1.199-6.53-0.6-9.736"/>
<path opacity="0.5" fill="none" stroke="#D1CECD" stroke-linecap="round" stroke-miterlimit="10" d="M299.463,471.241
	c0,0,3.897-4.695,2.561-9.896"/>
<path opacity="0.5" fill="none" stroke="#D1CECD" stroke-linecap="round" stroke-miterlimit="10" d="M293.936,493.141
	c0,0-5.762,12.414-14.944,13.055"/>
<path opacity="0.5" fill="none" stroke="#D1CECD" stroke-linecap="round" stroke-miterlimit="10" d="M290.85,494.12
	c-0.162,0.304-4.012,5.49-6.795,6.904"/>
<path opacity="0.5" fill="none" stroke="#D1CECD" stroke-linecap="round" stroke-miterlimit="10" d="M279.763,503.112
	c-0.608,0.177-2.468,0.562-3.884,0.576"/>
<path opacity="0.5" fill="none" stroke="#D1CECD" stroke-linecap="round" stroke-miterlimit="10" d="M287.997,492.029
	c0,0-4.09-0.431-7.627,1.455c-3.536,1.887-6.138,4.371-6.606,5.082"/>
<path opacity="0.5" fill="none" stroke="#D1CECD" stroke-linecap="round" stroke-miterlimit="10" d="M302.566,410.324
	c0,0,3.501-0.697,4.746-3.983c1.245-3.289,0.193-8.677,4.7-13.326"/>
<path opacity="0.5" fill="none" stroke="#D1CECD" stroke-linecap="round" stroke-miterlimit="10" d="M302.643,415.49
	c0.35-0.105,1.754,0.626,7.049-2.43c4.309-2.488,5.739-6.031,6.922-13.527"/>
<path opacity="0.5" fill="none" stroke="#D1CECD" stroke-linecap="round" stroke-miterlimit="10" d="M302.424,411.991
	c0,0,5.546-0.601,7.037-5.16c1.38-4.219,1.856-6.294,1.856-6.294"/>
<path opacity="0.5" fill="none" stroke="#D1CECD" stroke-linecap="round" stroke-miterlimit="10" d="M302.279,413.948
	c0,0,7.523-0.39,10.131-8.292"/>
<path opacity="0.5" fill="none" stroke="#D1CECD" stroke-linecap="round" stroke-miterlimit="10" d="M297.664,291.289
	c0,0-3.489-11.72,4.937-19.621"/>
<path opacity="0.5" fill="none" stroke="#D1CECD" stroke-linecap="round" stroke-miterlimit="10" d="M300.592,296.226
	c0,0-2.669-13.209,1.388-19.051"/>
<path opacity="0.5" fill="none" stroke="#D1CECD" stroke-linecap="round" stroke-miterlimit="10" d="M302.192,303.636
	c0,0,0.01-14.565,1.126-17.637"/>
<path opacity="0.5" fill="none" stroke="#D1CECD" stroke-linecap="round" stroke-miterlimit="10" d="M304.972,315.052
	c0,0-1.336-21.633,1.213-26.907"/>
<path opacity="0.5" fill="none" stroke="#D1CECD" stroke-linecap="round" stroke-miterlimit="10" d="M307.447,311.49
	c0,0,0.08-12.489,0.605-16.352"/>
<path opacity="0.5" fill="none" stroke="#D1CECD" stroke-linecap="round" stroke-miterlimit="10" d="M310.206,307.112
	c0,0,1.513-15.183,1.375-21.117"/>
<path opacity="0.5" fill="none" stroke="#D1CECD" stroke-linecap="round" stroke-miterlimit="10" d="M313.73,301.903
	c0,0,2.061-15.561,0.331-22.944"/>
<path opacity="0.5" fill="none" stroke="#D1CECD" stroke-linecap="round" stroke-miterlimit="10" d="M290.365,288.582
	c0,0,10.05,7.014,8.298,23.311"/>
<path opacity="0.5" fill="none" stroke="#D1CECD" stroke-linecap="round" stroke-miterlimit="10" d="M290.939,293.122
	c0,0,5.778,7.565,4.858,14.857"/>
<path opacity="0.5" fill="none" stroke="#D1CECD" stroke-linecap="round" stroke-miterlimit="10" d="M318.728,316.395
	c0.45-0.669,11.799-6.471,12.297-20.869"/>
<path opacity="0.5" fill="none" stroke="#D1CECD" stroke-linecap="round" stroke-miterlimit="10" d="M321.406,310.679
	c0.769-1.087,5.862-7.959,5.996-12.113"/>
<path opacity="0.5" fill="none" stroke="#D1CECD" stroke-linecap="round" stroke-miterlimit="10" d="M287.381,427.797
	c0,0-3.257,5.397-13.035,5.446c-9.778,0.049-19.105-1.627-20.928-6.593"/>
<path opacity="0.5" fill="none" stroke="#D1CECD" stroke-linecap="round" stroke-miterlimit="10" d="M284.596,427.859
	c0,0-8.582,5.32-22.555,1.406"/>
<path opacity="0.5" fill="none" stroke="#D1CECD" stroke-linecap="round" stroke-miterlimit="10" d="M252.673,422.855
	c0,0-0.163-0.905-0.765-3.843"/>
<path opacity="0.5" fill="none" stroke="#D1CECD" stroke-linecap="round" stroke-miterlimit="10" d="M299.149,352.56
	c-0.007,0.315-1.733-3.194-5.702-2.814c-5.141,0.49-9.418-1.172-12.057-3.092"/>
<path opacity="0.5" fill="none" stroke="#D1CECD" stroke-linecap="round" stroke-miterlimit="10" d="M299.237,350.474
	c0,0-1.716-2.148-4.025-2.534c-3.555-0.594-5.447,0.12-9.156-1.698"/>
<path opacity="0.5" fill="none" stroke="#D1CECD" stroke-linecap="round" stroke-miterlimit="10" d="M299.329,349.183
	c0,0-2.755-3.597-6.081-4.436"/>
<path opacity="0.5" fill="none" stroke="#D1CECD" stroke-linecap="round" stroke-miterlimit="10" d="M310.258,350.739
	c5.065-0.535,15.877-3.114,23.503-14.762"/>
<path opacity="0.5" fill="none" stroke="#D1CECD" stroke-linecap="round" stroke-miterlimit="10" d="M313.212,347.94
	c0,0,10.2-1.789,15.785-9.462"/>
<path opacity="0.5" fill="none" stroke="#D1CECD" stroke-linecap="round" stroke-miterlimit="10" d="M133.226,244.283
	c-0.151-0.257-2.622-6.327-3.3-9.635c-0.645-3.155-1.719-9.224-2.396-10.393"/>
<path opacity="0.5" fill="none" stroke="#D1CECD" stroke-linecap="round" stroke-miterlimit="10" d="M130.47,244.144
	c-0.082-0.097-2.405-6.601-2.583-8.141"/>
<path opacity="0.5" fill="none" stroke="#D1CECD" stroke-linecap="round" stroke-miterlimit="10" d="M346.88,493.984
	c0,0-2.584-3.082-6.501-4.051c-1.741-0.433-4.211-1.026-5.666-2.083"/>
<path opacity="0.5" fill="none" stroke="#D1CECD" stroke-linecap="round" stroke-miterlimit="10" d="M349.872,493.5
	c-0.584-0.705-3.213-3.3-5.463-4.398"/>
<path opacity="0.5" fill="none" stroke="#D1CECD" stroke-linecap="round" stroke-miterlimit="10" d="M353.121,492.91
	c0,0-3.151-2.47-5.303-3.88"/>
<path opacity="0.5" fill="none" stroke="#D1CECD" stroke-linecap="round" stroke-miterlimit="10" d="M353.846,487.648
	c-0.1-0.137-4.096-2.095-8.163-2.665"/>
<path opacity="0.5" fill="none" stroke="#D1CECD" stroke-linecap="round" stroke-miterlimit="10" d="M356.026,491.844
	c0,0-4.554-2.929-5.899-3.586"/>
<path opacity="0.5" fill="none" stroke="#D1CECD" stroke-linecap="round" stroke-miterlimit="10" d="M341.43,487.876
	c-0.158-0.038-1.419-0.679-2.093-0.925"/>
<path opacity="0.5" fill="none" stroke="#D1CECD" stroke-linecap="round" stroke-miterlimit="10" d="M356.371,480.256
	c0,0,0.574-7.13,2.587-10.288"/>
<path opacity="0.5" fill="none" stroke="#D1CECD" stroke-linecap="round" stroke-miterlimit="10" d="M360.796,486.145
	c0.744-1.68,6.853-5.46,3.853-15.471"/>
<path opacity="0.5" fill="none" stroke="#D1CECD" stroke-linecap="round" stroke-miterlimit="10" d="M359.248,484.404
	c0,0,3.493-5.895,3.425-10.405"/>
<path opacity="0.5" fill="none" stroke="#D1CECD" stroke-linecap="round" stroke-miterlimit="10" d="M357.89,482.581
	c0,0,1.407-4.084,2.019-6.483"/>
<path opacity="0.5" fill="none" stroke="#D1CECD" stroke-linecap="round" stroke-miterlimit="10" d="M101.295,185.562
	c0,0,5.584-5.879,8.254-19.59"/>
<path opacity="0.5" fill="none" stroke="#D1CECD" stroke-linecap="round" stroke-miterlimit="10" d="M28.101,186.824
	c0,0-2.536-0.462-6.685-2.402"/>
<path opacity="0.5" fill="none" stroke="#D1CECD" stroke-linecap="round" stroke-miterlimit="10" d="M36.461,225.176
	c-0.247,0.025-1.228,0.34-5.706-0.817"/>
<path opacity="0.5" fill="none" stroke="#D1CECD" stroke-linecap="round" stroke-miterlimit="10" d="M377.941,389.597
	c-0.521,0.112-5.471,0.416-13.147-1.247"/>
<path opacity="0.5" fill="none" stroke="#D1CECD" stroke-linecap="round" stroke-miterlimit="10" d="M378.251,391.924
	c-3.021,0.341-7.725,0.069-10.791-0.396"/>
<path opacity="0.5" fill="none" stroke="#D1CECD" stroke-linecap="round" stroke-miterlimit="10" d="M364.601,391.094
	c0,0-2.348-0.463-3.612-0.915"/>
<path opacity="0.5" fill="none" stroke="#D1CECD" stroke-linecap="round" stroke-miterlimit="10" d="M367.062,363.972
	c-1.209-0.644-4.092-3.41-6.611-4.639c-2.885-1.408-7.589-0.815-12.059,0.186"/>
<path opacity="0.5" fill="none" stroke="#D1CECD" stroke-linecap="round" stroke-miterlimit="10" d="M369.969,363.328
	c-1.713-2.042-7.765-6.284-9.498-6.771c-2.207-0.621-4.997-1.359-7.971-0.484"/>
<path opacity="0.5" fill="none" stroke="#D1CECD" stroke-linecap="round" stroke-miterlimit="10" d="M344.562,358.005
	c0,0,4.483-1.213,5.231-1.357"/>
<path opacity="0.5" fill="none" stroke="#D1CECD" stroke-linecap="round" stroke-miterlimit="10" d="M357.164,353.051
	c3.083,0.125,6.044,1.58,9.566,4.698"/>
<path opacity="0.5" fill="none" stroke="#D1CECD" stroke-linecap="round" stroke-miterlimit="10" d="M381.154,373.9
	c9.521-0.883,9.612-0.101,13.335-0.328c4.832-0.295,11.307-4.463,12.771-14.466"/>
<path opacity="0.5" fill="none" stroke="#D1CECD" stroke-linecap="round" stroke-miterlimit="10" d="M391.011,370.666
	c0.14,0.042,8.905,0.797,12.119-6.742"/>
<path opacity="0.5" fill="none" stroke="#D1CECD" stroke-linecap="round" stroke-miterlimit="10" d="M381.055,351.157
	c1.593-1.09,4.153-5.931,6.566-8.458c3.126-3.272,10.041-7.188,11.384-11.558"/>
<path opacity="0.5" fill="none" stroke="#D1CECD" stroke-linecap="round" stroke-miterlimit="10" d="M386.282,340.371
	c1.442-1.606,7.798-5.741,9.125-8.246"/>
<path opacity="0.5" fill="none" stroke="#D1CECD" stroke-linecap="round" stroke-miterlimit="10" d="M380.04,313.178
	c2.166-0.855,10.965-1.394,16.108-8.868c4.941-7.176,4.637-9.449,5.246-11.269"/>
<path opacity="0.5" fill="none" stroke="#D1CECD" stroke-linecap="round" stroke-miterlimit="10" d="M388.303,307.874
	c0.836-0.407,6.616-4.082,8.713-10.754"/>
<path opacity="0.5" fill="none" stroke="#D1CECD" stroke-linecap="round" stroke-miterlimit="10" d="M372.33,305.104
	c0.287,0.038,5.298-5.443-1.879-13.295"/>
<path opacity="0.5" fill="none" stroke="#D1CECD" stroke-linecap="round" stroke-miterlimit="10" d="M367.995,288.85
	c0,0-2.321-2.393-4.023-4.794"/>
<path opacity="0.5" fill="none" stroke="#D1CECD" stroke-linecap="round" stroke-miterlimit="10" d="M370.12,302.471
	c0,0,2.548-4.266-4.053-11.322"/>
<path opacity="0.5" fill="none" stroke="#D1CECD" stroke-linecap="round" stroke-miterlimit="10" d="M366.758,535.154
	c-0.863,0.534-9.049,5.294-15.604,4.305c-6.556-0.988-6.508-1.972-10.179-3.855"/>
<path opacity="0.5" fill="none" stroke="#D1CECD" stroke-linecap="round" stroke-miterlimit="10" d="M361.46,534.88
	c0,0-8.375,3.225-13.446,1.074"/>
<path opacity="0.5" fill="none" stroke="#D1CECD" stroke-linecap="round" stroke-miterlimit="10" d="M388.614,519.19
	c0,0,4.347-10.657,1.118-16.761"/>
<path opacity="0.5" fill="none" stroke="#D1CECD" stroke-linecap="round" stroke-miterlimit="10" d="M387.846,499.306
	c0,0-1.729-2.063-2.25-3.093"/>
<path opacity="0.5" fill="none" stroke="#D1CECD" stroke-linecap="round" stroke-miterlimit="10" d="M387.617,513.564
	c0,0,1.505-8.045-0.675-11.681"/>
<path opacity="0.5" fill="none" stroke="#D1CECD" stroke-linecap="round" stroke-miterlimit="10" d="M387.298,566.055
	c0,0-1.423-0.238-5.439-0.872c-4.018-0.631-6.646-0.473-9.376-2.452"/>
<path opacity="0.5" fill="none" stroke="#D1CECD" stroke-linecap="round" stroke-miterlimit="10" d="M370.621,559.3
	c0.484,0.354,4.736,2.942,8.095,3.165c3.357,0.22,6.124,0.657,6.972,0.896"/>
<path opacity="0.5" fill="none" stroke="#D1CECD" stroke-linecap="round" stroke-miterlimit="10" d="M416.103,502.898
	c-0.02-0.181-0.854-3.151-1.661-5.069c-1.132-2.687-0.13-6.664-0.373-8.214c-0.28-1.789-1.988-5.469-1.988-5.469"/>
<path opacity="0.5" fill="none" stroke="#D1CECD" stroke-linecap="round" stroke-miterlimit="10" d="M411.561,495.827
	c0,0-0.314-2.313-0.107-4.74c0.187-2.188-0.876-4.38-1.303-5.321"/>
<path opacity="0.5" fill="none" stroke="#D1CECD" stroke-linecap="round" stroke-miterlimit="10" d="M422.278,476.298
	c-0.038-0.139,0.723-5.36-1.642-9.169c-1.483-2.391-5.475-7.283-7.468-9.438"/>
<path opacity="0.5" fill="none" stroke="#D1CECD" stroke-linecap="round" stroke-miterlimit="10" d="M419.401,474.648
	c0,0-0.555-5.623-2.172-7.645"/>
<path opacity="0.5" fill="none" stroke="#D1CECD" stroke-linecap="round" stroke-miterlimit="10" d="M415.452,464.171
	c0,0-2.474-3.192-2.942-3.506"/>
<path opacity="0.5" fill="none" stroke="#D1CECD" stroke-linecap="round" stroke-miterlimit="10" d="M425.449,477.528
	c0,0,0.052-4.691,2.764-8.058c2.713-3.366,6.458-10.047,2.64-25.636"/>
<path opacity="0.5" fill="none" stroke="#D1CECD" stroke-linecap="round" stroke-miterlimit="10" d="M424.882,471.193
	c0,0,1.588-3.802,3.286-7.405c1.696-3.602,1.804-5.9,1.576-10.127"/>
<path opacity="0.5" fill="none" stroke="#D1CECD" stroke-linecap="round" stroke-miterlimit="10" d="M424.029,468.404
	c0,0,2.651-8.925,2.722-12.231"/>
<path opacity="0.5" fill="none" stroke="#D1CECD" stroke-linecap="round" stroke-miterlimit="10" d="M422.447,465.107
	c0,0,1.344-3.121,0.598-6.836c-0.39-1.94-0.615-3.842-0.501-5.373"/>
<path opacity="0.5" fill="none" stroke="#D1CECD" stroke-linecap="round" stroke-miterlimit="10" d="M422.994,449.197
	c0,0,0.579-3.137,0.688-4.037"/>
<path opacity="0.5" fill="none" stroke="#D1CECD" stroke-linecap="round" stroke-miterlimit="10" d="M436.237,473.062
	c0,0,6.432-1.668,10.388-1.573c3.956,0.093,7.584-0.642,11.893-3.427"/>
<path opacity="0.5" fill="none" stroke="#D1CECD" stroke-linecap="round" stroke-miterlimit="10" d="M433.334,475.499
	c0,0,6.954-0.713,8.797-0.708"/>
<path opacity="0.5" fill="none" stroke="#D1CECD" stroke-linecap="round" stroke-miterlimit="10" d="M445.033,474.762
	c0,0,2.808-0.346,4.558-0.5"/>
<path opacity="0.5" fill="none" stroke="#D1CECD" stroke-linecap="round" stroke-miterlimit="10" d="M431.643,477.953
	c0,0,8.115,0.888,14.62-0.899"/>
<path opacity="0.5" fill="none" stroke="#D1CECD" stroke-linecap="round" stroke-miterlimit="10" d="M430.549,480.558
	c0,0,3.312,1.336,10.062,0.034"/>
<path opacity="0.5" fill="none" stroke="#D1CECD" stroke-linecap="round" stroke-miterlimit="10" d="M445.27,462.512
	c0.567-0.365,12.476-9.432,12.561-18.703"/>
<path opacity="0.5" fill="none" stroke="#D1CECD" stroke-linecap="round" stroke-miterlimit="10" d="M448.426,456.036
	c0,0,4.452-4.938,5.688-7.629"/>
<path opacity="0.5" fill="none" stroke="#D1CECD" stroke-linecap="round" stroke-miterlimit="10" d="M380.314,294.434
	c0,0,6.949-5.898,6.119-14.208"/>
<path opacity="0.5" fill="none" stroke="#D1CECD" stroke-linecap="round" stroke-miterlimit="10" d="M380.447,290.874
	c0,0,3.028-2.669,3.067-8.2"/>
<path opacity="0.5" fill="none" stroke="#D1CECD" stroke-linecap="round" stroke-miterlimit="10" d="M379.711,287.065
	c0,0-2.679-5.995-1.829-8.566"/>
<path opacity="0.5" fill="none" stroke="#D1CECD" stroke-linecap="round" stroke-miterlimit="10" d="M444.354,526.439
	c-0.971-0.359-1.485,0.457-4.821-2.396c-1.229-1.053-1.441-1.718-4.391-4.126"/>
<path opacity="0.5" fill="none" stroke="#D1CECD" stroke-linecap="round" stroke-miterlimit="10" d="M435.788,523.797
	c0.632,0.651,2.017,2.295,3.64,3.225c2.302,1.318,5.362,2.742,7.52,2.068"/>
<path opacity="0.5" fill="none" stroke="#D1CECD" stroke-linecap="round" stroke-miterlimit="10" d="M448.992,531.528
	c-0.114,0.022-6.498,0.647-10.045-1.993"/>
<path opacity="0.5" fill="none" stroke="#D1CECD" stroke-linecap="round" stroke-miterlimit="10" d="M432.689,524.243
	c0,0,0.977,2.067,2.688,3.203"/>
<path opacity="0.5" fill="none" stroke="#D1CECD" stroke-linecap="round" stroke-miterlimit="10" d="M452.771,527.533
	c0,0,2.75-1.276,5.125-5.331c2.373-4.055,3.431-6.237,3.431-6.237"/>
<path opacity="0.5" fill="none" stroke="#D1CECD" stroke-linecap="round" stroke-miterlimit="10" d="M451.995,528.443
	c0,0,4.106,1.04,8.715-5.922"/>
<path opacity="0.5" fill="none" stroke="#D1CECD" stroke-linecap="round" stroke-miterlimit="10" d="M451.88,529.779
	c0,0,2.971,0.703,6.917-1.704c4.176-2.543,5.336-4.155,6.581-7.283"/>
<path opacity="0.5" fill="none" stroke="#D1CECD" stroke-linecap="round" stroke-miterlimit="10" d="M466.452,517.552
	c0,0,0.739-1.97,0.744-3.439"/>
<path opacity="0.5" fill="none" stroke="#D1CECD" stroke-linecap="round" stroke-miterlimit="10" d="M449.342,527.081
	c0,0,2.277-12.798,0.638-17.347"/>
<path opacity="0.5" fill="none" stroke="#D1CECD" stroke-linecap="round" stroke-miterlimit="10" d="M447.577,524.37
	c0.102-0.085,0.903-7.857,0.71-9.173"/>
<path opacity="0.5" fill="none" stroke="#D1CECD" stroke-linecap="round" stroke-miterlimit="10" d="M464.308,538.979
	c0,0-2.372-8.012,3.347-9.646"/>
<path opacity="0.5" fill="none" stroke="#D1CECD" stroke-linecap="round" stroke-miterlimit="10" d="M476.097,531.999
	c1.602-0.204,4.164-1.822,5.348-4.247"/>
<path opacity="0.5" fill="none" stroke="#D1CECD" stroke-linecap="round" stroke-miterlimit="10" d="M466.696,537.811
	c-0.2-1.052-0.68-4.574,1.459-5.789"/>
<path opacity="0.5" fill="none" stroke="#D1CECD" stroke-linecap="round" stroke-miterlimit="10" d="M428.979,549.755
	c0,0,3.292,1.372,8.501,0.738c5.207-0.634,7.797-2.54,9.823-2.639"/>
<path opacity="0.5" fill="none" stroke="#D1CECD" stroke-linecap="round" stroke-miterlimit="10" d="M434.198,548.331
	c0,0,4.755,0.258,8.519-1.299"/>
<path opacity="0.5" fill="none" stroke="#D1CECD" stroke-linecap="round" stroke-miterlimit="10" d="M436.12,545.813
	c0.596,0.018,2.023-0.034,2.905-0.338"/>
<path opacity="0.5" fill="none" stroke="#D1CECD" stroke-linecap="round" stroke-miterlimit="10" d="M374.42,591.961
	c0,0,12.146,5.525,10.146,16.843"/>
<path opacity="0.5" fill="none" stroke="#D1CECD" stroke-linecap="round" stroke-miterlimit="10" d="M376.04,595.757
	c1.297,1.067,5.312,4.104,6.101,9.179"/>
<path opacity="0.5" fill="none" stroke="#D1CECD" stroke-linecap="round" stroke-miterlimit="10" d="M373.469,601.225
	c0,0,1.093,3.37,4.067,5.173"/>
<path opacity="0.5" fill="none" stroke="#D1CECD" stroke-linecap="round" stroke-miterlimit="10" d="M306.697,603.584
	c0,0,6.567,7.068,12.218,7.259c3.777,0.128,5.838-1.747,6.854-2.383"/>
<path opacity="0.5" fill="none" stroke="#D1CECD" stroke-linecap="round" stroke-miterlimit="10" d="M312.13,604.956
	c0,0,2.619,2.068,4.639,2.758"/>
<path opacity="0.5" fill="none" stroke="#D1CECD" stroke-linecap="round" stroke-miterlimit="10" d="M319.519,608.173
	c0.296-0.05,2.953-0.644,3.84-1.059"/>
<path opacity="0.5" fill="none" stroke="#D1CECD" stroke-linecap="round" stroke-miterlimit="10" d="M469.49,593.062
	c1.829-1,10.633-7.562,7.819-18.547"/>
<path opacity="0.5" fill="none" stroke="#D1CECD" stroke-linecap="round" stroke-miterlimit="10" d="M471.127,588.734
	c0.899-0.915,4.767-4.698,4.549-9.891"/>
<path opacity="0.5" fill="none" stroke="#D1CECD" stroke-linecap="round" stroke-miterlimit="10" d="M471.481,572.911
	c0.629-1.17,1.233-2.101,2.157-3.34"/>
<path opacity="0.5" fill="none" stroke="#D1CECD" stroke-linecap="round" stroke-miterlimit="10" d="M468.349,582.777
	c0,0,0.146-2.22,1.618-6.699"/>
<path opacity="0.5" fill="none" stroke="#D1CECD" stroke-linecap="round" stroke-miterlimit="10" d="M438.969,580.331
	c0.521,0.862,6.291,5.984,7.763,7.112"/>
<path opacity="0.5" fill="none" stroke="#D1CECD" stroke-linecap="round" stroke-miterlimit="10" d="M444.602,582.418
	c0,0,6.119,5.448,6.986,5.655"/>
<path opacity="0.5" fill="none" stroke="#D1CECD" stroke-linecap="round" stroke-miterlimit="10" d="M440.823,686.347
	c0,0-9.964,4.88-15.811,4.499c-3.049-0.2-6.735-0.794-8.452-2.516"/>
<path opacity="0.5" fill="none" stroke="#D1CECD" stroke-linecap="round" stroke-miterlimit="10" d="M420.13,686.624
	c0,0,5.348,3.09,13.732-0.396"/>
<path opacity="0.5" fill="none" stroke="#D1CECD" stroke-linecap="round" stroke-miterlimit="10" d="M413.477,685.824
	c-0.239-0.282-2.259-2.341-3.215-3.832"/>
<path opacity="0.5" fill="none" stroke="#D1CECD" stroke-linecap="round" stroke-miterlimit="10" d="M416.016,734.045
	c3.047,3.649,10.748,6.902,15.933,6.956"/>
<path opacity="0.5" fill="none" stroke="#D1CECD" stroke-linecap="round" stroke-miterlimit="10" d="M419.079,733.169
	c0.612,0.489,4.775,3.886,9.357,4.639c4.582,0.755,11.255,1.045,13.21,1.406"/>
<path opacity="0.5" fill="none" stroke="#D1CECD" stroke-linecap="round" stroke-miterlimit="10" d="M485.005,749.956
	c0.772,1.308,2.689,3.008,4.989,3.805"/>
<path opacity="0.5" fill="none" stroke="#D1CECD" stroke-linecap="round" stroke-miterlimit="10" d="M488.171,749.966
	c0.35,0.253,0.707,0.566,1.831,0.978"/>
<path opacity="0.5" fill="none" stroke="#D1CECD" stroke-linecap="round" stroke-miterlimit="10" d="M347.089,529.197
	c1.824-0.081,9.66,0.069,12.704,0.995"/>
<path opacity="0.5" fill="none" stroke="#D1CECD" stroke-linecap="round" stroke-miterlimit="10" d="M131.14,419.874
	c0.426-0.446,4.631-2.04,6.877-2.076"/>
<path opacity="0.5" fill="none" stroke="#D1CECD" stroke-linecap="round" stroke-miterlimit="10" d="M445.544,822.401
	c0,0,5.841,13.021,20.927,13.133"/>
<path opacity="0.5" fill="none" stroke="#D1CECD" stroke-linecap="round" stroke-miterlimit="10" d="M449.539,823.737
	c0,0,4.944,7.512,13.508,9.022"/>
<path opacity="0.5" fill="none" stroke="#D1CECD" stroke-linecap="round" stroke-miterlimit="10" d="M457.441,817.105
	c4.998,3.734,5.759,5.348,7.045,7.971"/>
<path opacity="0.5" fill="none" stroke="#D1CECD" stroke-linecap="round" stroke-miterlimit="10" d="M448.707,812.419
	c3.495,1.335,2.685,0.959,4.145,1.791"/>
<path opacity="0.5" fill="none" stroke="#D1CECD" stroke-linecap="round" stroke-miterlimit="10" d="M453.577,823.42
	c0,0,3.501,4.172,8.378,5.752"/>
<path opacity="0.5" fill="none" stroke="#D1CECD" stroke-linecap="round" stroke-miterlimit="10" d="M443.142,848.768
	c0,0,14.526,4.433,19.657-0.359"/>
<path opacity="0.5" fill="none" stroke="#D1CECD" stroke-linecap="round" stroke-miterlimit="10" d="M449.587,847.032
	c0,0,6.324,0.912,9.086,0.074"/>
<path opacity="0.5" fill="none" stroke="#D1CECD" stroke-linecap="round" stroke-miterlimit="10" d="M498.05,826.136"/>
<path opacity="0.5" fill="none" stroke="#D1CECD" stroke-linecap="round" stroke-miterlimit="10" d="M83.958,204.335
	c-7.615-13.687-14.691-32.764-14.947-43.658c-0.302-12.866,2.767-31.674,3.935-40.085"/>
<path opacity="0.5" fill="none" stroke="#D1CECD" stroke-linecap="round" stroke-miterlimit="10" d="M132.462,269.858
	c-7.878-9.312-27.418-34.922-35.839-46.208c-3.08-4.296-4.584-6.751-6.617-9.829"/>
<path opacity="0.5" fill="none" stroke="#D1CECD" stroke-linecap="round" stroke-miterlimit="10" d="M304.034,316.007
	c-0.021-1.382-0.356-1.946-0.437-2.672c-0.365-3.296-1.443-8.397-1.443-8.397s-0.399,9.543-0.693,15.395s-1.695,9.43-1.398,15.986
	s-1.021,11.666-0.921,17.988c0.101,6.321-0.944,10.802-0.921,17.988c0.025,7.185,0.28,24.186-0.605,29.333
	c-0.886,5.147,0.27,9.387,0.27,9.387s-8.873-10.575-19.904-21.335c-11.031-10.762-18.678-16.216-19.154-18.218
	c-0.479-2.001,0.735-2.619-0.753-12.98c-1.488-10.362-6.192-27.1-4.103-27.789c6.002-1.986,14.625-10.405,11.453-18.954
	c-3.17-8.549-5.196-15.257-6.151-19.259c-0.955-4.003-1.152-4.238-0.938,0.789c0.212,5.024-1.772,10.293-0.968,16.023
	c0.805,5.731,1.912,8.005-0.315,11.075c-2.228,3.071-4.138,7.475-4.138,7.475s-0.591-0.705-2.146-7.807
	c-1.555-7.102-3.649-15.167-5.17-15.226c-1.519-0.059-0.472,2.144,0.09,5.676s3.544,12.174,4.19,17.237
	c0.646,5.062,2.06,12.948,3.259,19.149c1.2,6.2,0.842,16.109-0.137,17.329c-0.978,1.221-2.039,0.911-6.178-4.024
	c-4.141-4.933-10.94-6.834-24.715-16.093c-12.271-8.25-36.188-25.771-46.602-33.753c-8.089-6.201-25.731-23.393-38.415-35.17"/>
<path opacity="0.5" fill="none" stroke="#D1CECD" stroke-linecap="round" stroke-miterlimit="10" d="M376.94,394.312
	c0.82,8.486,1.557,17.082,1.531,21.137c-0.052,8.05-0.542,13.667-1.382,20.777c-0.84,7.111-3.561,15.797-3.346,20.823
	c0.212,5.024-2.611,17.403-4.952,21.769c-2.341,4.366-7.218,8.733-7.218,8.733s-3.566-4.887-14.297-19.104
	c-10.729-14.218-20.235-24.117-29.266-35.356c-9.031-11.239-15.382-16.583-15.738-17.485c-0.356-0.901,1.769-17.771,1.509-24.759
	c-0.26-6.989-0.929-19.237-0.651-29.879c0.278-10.643,0.847-13.032,0.669-22.581c-0.091-4.871-0.068-9.731-0.047-13.913"/>
<path opacity="0.5" fill="none" stroke="#D1CECD" stroke-linecap="round" stroke-miterlimit="10" d="M375.12,376.193
	c0.25,2.574,0.617,6.122,1.019,10.071"/>
<path opacity="0.5" fill="none" stroke="#D1CECD" stroke-linecap="round" stroke-miterlimit="10" d="M377.503,367.927
	c-0.237-2.835-0.374-5.24-0.354-7.015c0.019-1.834-0.202-4.648-0.377-7.288"/>
<path opacity="0.5" fill="none" stroke="#D1CECD" stroke-linecap="round" stroke-miterlimit="10" d="M205.313,421.281
	c6.092,3.769,13.051,6.917,16.28,8.704c7.476,4.137,28.352,15.978,35.65,22.131c7.297,6.153,21.167,20.611,28.309,26.897
	c7.14,6.285,9.896,9.569,17.009,14.545s32.019,8.896,44.004,7.915c11.987-0.983,12.763-4.829,14.001-2.398
	c3.041,5.967,10.354,20.928,12.387,25.896c2.034,4.967,4.562,9.251,4.562,9.251s0.263,0.314-3.956-1.217
	c-4.22-1.531-10.385-5.699-17.274-6.592c-6.888-0.892-14.553,0.468-21.517,0.44c-6.961-0.032-13.329-1.893-12.197,0.093
	c1.132,1.986,3.792,6.426,7.904,7.512c4.114,1.086,5.028,0.584,9.937,4.208c4.906,3.622,14.649,5.056,22.36,1.521
	c7.71-3.534,14.354-4.839,15.224-3.167c0.699,1.347,8.865,17.158,12.644,24.72"/>
<path opacity="0.5" fill="none" stroke="#D1CECD" stroke-linecap="round" stroke-miterlimit="10" d="M106.93,248.485
	c11.294,14.679,23.233,29.258,30.052,36.322"/>
<path opacity="0.5" fill="none" stroke="#D1CECD" stroke-linecap="round" stroke-miterlimit="10" d="M78.016,207.538
	c1.851,3.655,9.173,13.883,10.081,15.375c4.515,6.528,10.385,14.516,16.6,22.656"/>
<path opacity="0.5" fill="none" stroke="#D1CECD" stroke-linecap="round" stroke-miterlimit="10" d="M74.838,102.697
	c0,0-7.609,18.641-8.29,26.418c-0.681,7.777-3.941,30.131-1.749,39.9c1.604,7.142,2.764,13.193,9.562,27.537"/>
<path opacity="0.5" fill="none" stroke="#D1CECD" stroke-linecap="round" stroke-miterlimit="10" d="M474.709,831.481
	c0,0-2.388,0.842-5.86-4.249c-3.473-5.096-1.229-7.512-10.988-13.735c-8.105-5.166-14.853-4.616-24.386-8.226
	c-0.385-0.146,3.11,2.593,5.042,8.711c1.81,5.732,2.531,5.881,3.771,8.312c4.826,9.468,10.727,13.419,15.655,15.156
	c4.926,1.737,7.912,2.437,12.511-0.357c4.599-2.792,4.599-2.792,4.599-2.792"/>
<path opacity="0.5" fill="none" stroke="#D1CECD" stroke-linecap="round" stroke-miterlimit="10" d="M73.429,120.139
	c0.874-0.287,3.516-5.352,13.269-12.335c9.754-6.983,11.609-15.746,15.473-22.591c3.864-6.846,1.986-5.27-2.994-3.092
	c-4.98,2.176-18.242,5.849-21.593,12.913c-4.049,8.536-4.268,17.661-5.813,21.224C70.408,119.405,71.86,120.655,73.429,120.139z"/>
<path opacity="0.5" fill="none" stroke="#D1CECD" stroke-linecap="round" stroke-miterlimit="10" d="M81.303,90.562
	c0,0,1.085-3.163-0.317-7.057c-1.4-3.896-3.058-6.508-4.09-9.646c-1.03-3.138-2.485,1.218-5.06,6.714
	c-5.041,10.77-2.957,26.25-1.463,34.072"/>
<path opacity="0.5" fill="none" stroke="#D1CECD" stroke-linecap="round" stroke-miterlimit="10" d="M69.583,109.958
	c0,0,0.441-1.535-8.546-11.581c-9.206-10.291-13.333-8.45-13.5-8.068c-0.363,0.828,1.064,7.56,3.628,14.75
	c2.562,7.191,13.416,19.369,16.58,18.049"/>
<path opacity="0.5" fill="none" stroke="#D1CECD" stroke-linecap="round" stroke-miterlimit="10" d="M49.869,101.171
	c0,0-1.173-0.678-5.826-4.283c-7.612-5.891-15.234-1.873-14.645-1.323c3.315,3.089,2.539,5.743,5.843,9.51
	c4.436,5.056,5.542,3.355,8.328,6.356c2.786,3,7.619,7.874,7.704,10.204"/>
<path opacity="0.5" fill="none" stroke="#D1CECD" stroke-linecap="round" stroke-miterlimit="10" d="M66.134,132.779
	c0,0-0.432-2.288-5.704-5.07c-5.271-2.783-10.857-9.438-20.422-9.287c3.932,9.513,5.455,4.869,13.955,16.848
	c2.197,3.095,6.33,5.632,11.271,3.889"/>
<path opacity="0.5" fill="none" stroke="#D1CECD" stroke-linecap="round" stroke-miterlimit="10" d="M89.257,105.781
	c0,0,3.217-2.86,11.121-3.62c7.903-0.76,12.793-0.023,13.97-0.21c1.178-0.187-5.954,4.404-7.772,8.599
	c-1.819,4.195-8.105,10.328-17.813,11.802c-9.708,1.473-10.934,2.236-12.606,3.105c-1.673,0.869-3.511-1.324-3.511-1.324"/>
<path opacity="0.5" fill="none" stroke="#D1CECD" stroke-linecap="round" stroke-miterlimit="10" d="M70.368,140.188
	c0,0,4.316-1.218,8.363-4.346c4.046-3.13,20.603-3.277,23.095-1.364c-1.035,3.537-3.844,4.438-6.86,7.354
	c-3.03,2.93-14.837,4.58-24.773,0.374"/>
<path opacity="0.5" fill="none" stroke="#D1CECD" stroke-linecap="round" stroke-miterlimit="10" d="M63.714,199.917
	c-0.142-0.273-6.909-3.56-11.378-5.966c-4.468-2.407-12.666-6.451-18.583-4.768c-5.921,1.685-19.501-1.645-23.752-11.186
	c5.172-2.908,16.145-6.173,23.275-3.072c7.13,3.1,24.028,17.949,30.089,19.646c6.058,1.697,15.6,0.786,17.196,6.981
	c1.601,6.195-8.079,10.63-15.361,3.233c0,0-9.148,3.012-10.049,3.939c-0.901,0.927-0.524,11.437-12.1,17.316
	c-9.686,3.748-10.004,1.458-18.022-0.569c-5.827-1.472-9.66-4.207-11.125-7.478c3.058-0.318,4.595,1.535,10.295,0.541
	c5.701-0.996,8.387-4.229,14.34-7.656c7.891-4.546,9.294-2.28,12.75-3.609C54.747,205.939,63.714,199.917,63.714,199.917z"/>
<path opacity="0.5" fill="none" stroke="#D1CECD" stroke-linecap="round" stroke-miterlimit="10" d="M80.331,197.184
	c0,0,2.498-1.287,5.488-3.324c3.355-2.286,5.673-3.857,6.792-6.58c0.553-1.346-2.944-3.526-1.922-9.127
	c1.024-5.599,1.697-13.157,13.678-24.71c11.986-11.555,14.721-12.886,13.741-9.815c-0.98,3.072-1.236,0.462-2.636,8.66
	c-1.401,8.197-5.556,33.69-15.99,37.784c-8.598,3.373-11.535,9.292-11.535,9.292"/>
<path opacity="0.5" fill="none" stroke="#D1CECD" stroke-linecap="round" stroke-miterlimit="10" d="M84.012,203.391
	c0.023-0.782,1.031-3.852,6.099-4.4c5.066-0.546,7.733,0.167,15.656,0.224c7.919,0.06,15.47-2.048,15.47-2.048
	s0.044,3.981-3.999,7.819c-4.044,3.837-5.995,9.348-11.637,10.854C99.96,217.344,83.615,216.141,84.012,203.391z"/>
<path opacity="0.5" fill="none" stroke="#D1CECD" stroke-linecap="round" stroke-miterlimit="10" d="M138.837,270.023
	c0,0,1.509,4.067-1.747,5.135c-3.259,1.071-2.792,0.644-4.251-3.973c-1.458-4.617-2.347-12.683-1.338-15.325
	c1.01-2.641,0.398-2.483-2.712-7.25c-3.109-4.767-7.162-10.943-7.468-16.011c-0.308-5.067,4.769-15.324,4.769-15.324
	s1.438,2.011,3.415,5.65c1.973,3.639,1.451,8.459,4.006,15.098c2.555,6.638,2.627,6.773,2.7,13.014
	c0.073,6.241,1.532,10.858,1.532,10.858s5.094-7.65,4.425-9.205c-0.671-1.556-5.429-8.395-3.447-18.891
	c1.979-10.495,7.389-16.92,8.422-18.876c1.034-1.955,1.79-1.843,2.896,2.441c1.103,4.287,0.874,3.539,0.025,10.978
	c-0.849,7.439-1.369,10.338-2.028,15.231c-0.658,4.895-0.301,9.41-3.198,13.077c-2.895,3.664-3.681,4.788-3.932,7.541
	C140.656,266.943,140.797,269.135,138.837,270.023z"/>
<path opacity="0.5" fill="none" stroke="#D1CECD" stroke-linecap="round" stroke-miterlimit="10" d="M107.356,246.216
	c-2.054-2.415-6.925,2.006-12.368,0.769c-5.442-1.238-14.375-8.104-20.386-2.11c-6.246,6.229-17.095,8.326-17.095,8.326
	c0.239,1.001,2.822,3.83,8.695,5.115c6.621,1.45,9.31-0.192,16.295-1.649c6.983-1.457,9.958-4.353,14.669-4.703
	C101.876,251.614,109.408,248.631,107.356,246.216z"/>
<path opacity="0.5" fill="none" stroke="#D1CECD" stroke-linecap="round" stroke-miterlimit="10" d="M147.32,290.735
	c0,0,0.162-4.339-5.103-5.126c-5.264-0.788-10.214-1.438-16.395-0.456c-6.18,0.984-8.958,4.115-15.351,6.275
	c-6.393,2.163-10.926,2.963-10.926,2.963s0.023,0.982,2.717,2.523c2.696,1.543,14.764,5.428,22.806,3.084
	c8.041-2.344,12.645-5.207,16.59-5.514C145.604,294.177,147.484,292.601,147.32,290.735z"/>
<path opacity="0.5" fill="none" stroke="#D1CECD" stroke-linecap="round" stroke-miterlimit="10" d="M165.813,302.042
	c-0.296-0.353-2.117-4.43-4.269-8.428c-2.154-4-9.023-15.048-3.755-24.274c5.269-9.226,7.046-12.118,7.652-12.826
	c0.606-0.709,1.061,0.311,1.506,3.941c0.444,3.631,2.288,8.689,3.792,12.631c1.505,3.941,1.713,12.776,1.843,16.271
	c0.129,3.493-2.271,13.513-4.229,14.757"/>
<path opacity="0.5" fill="none" stroke="#D1CECD" stroke-linecap="round" stroke-miterlimit="10" d="M188.776,320.273
	c-0.295-0.353-2.434-2.831-1.728-8.428c0.709-5.598,0.002-11.211-0.666-17.255c-0.669-6.045,1.902-18.011,9.872-29.502
	c7.972-11.493,8.643-10.455,8.373-14.833c-0.27-4.377,3.339-17.014,4.223-17.154c0.881-0.14,1.06,0.311,1.767,5.923
	c0.706,5.612,2.625,9.808,1.583,15.485c-1.041,5.677-6.566,14.119-6.412,19.792c0.159,5.672-0.201,9.777-3.497,16.346
	c-3.296,6.568-10.526,10.833-9.566,16.033c0.96,5.199,2.289,14.894-0.102,16.099"/>
<path opacity="0.5" fill="none" stroke="#D1CECD" stroke-linecap="round" stroke-miterlimit="10" d="M187.949,282.065
	c-2.677-1.757-8.302-5.044-9.739-12.245c-1.438-7.2-5.809-10.739-0.85-18.904c4.958-8.164,7.459-11.863,8.634-12.849
	c1.174-0.986,1.895,3.213,2.707,5.134c0.811,1.921,1.369,4.256,2.94,9.944c1.569,5.689,1.755,13.541-0.121,16.315
	c-1.875,2.775-1.388,5.181-1.287,6.497"/>
<path opacity="0.5" fill="none" stroke="#D1CECD" stroke-linecap="round" stroke-miterlimit="10" d="M190.429,326.505
	c-0.07,0.366-0.592,0.877-2.25,1.473c-3.896,1.402-5.95,4.996-12.812,3.813c-6.864-1.18-9.876-1.589-15.025,0.863
	c-5.148,2.452-9.219,5.868-14.036,6.173c-4.816,0.304-10.999,6.294-11.545,7.551c1.153,0.102,2.173-0.939,4.896,0.429
	c5.232,2.631,14.236,6.471,19.26,5.458c5.022-1.013,17.268-9.952,23.146-14.082c5.875-4.131,9.098-11.104,9.098-11.104"/>
<path opacity="0.5" fill="none" stroke="#D1CECD" stroke-linecap="round" stroke-miterlimit="10" d="M200.073,328.44
	c0,0,4.712-0.871,6.321-6.359c1.429-4.877,2.389-10.046,2.088-11.944"/>
<path opacity="0.5" fill="none" stroke="#D1CECD" stroke-linecap="round" stroke-miterlimit="10" d="M196.424,325.879
	c0,0,3.597,1.105,3.479-2.533c-0.115-3.639-2.875-6.126,0.951-16.677c3.826-10.552,18.269-23.871,19.129-24.593
	c0.862-0.724,0.786,0.142,0.297,2.419c-0.49,2.279-0.803,5.881-3.604,9.698c-2.802,3.818-3.157,2.917-2.257,6.697
	c0.904,3.779,2.624,15.158-2.373,20.019c-4.998,4.859-5.419,7.726-7.845,8.364c-1.878,0.491-4.128-0.833-4.128-0.833"/>
<path opacity="0.5" fill="none" stroke="#D1CECD" stroke-linecap="round" stroke-miterlimit="10" d="M213.333,343.17
	c0,0-4.237-2.983-12.215-1.36c-7.978,1.623-12.89,4.679-18.125,8.936c-5.234,4.259-12.64,8.471-16.133,9.4
	c-3.491,0.928-3.697,1.636-2.884,2.288c0.815,0.65,1.075,0.167,7.78,1.478c6.706,1.312,14.388,4.744,24.827-0.947
	c10.438-5.691,18.968-17.986,18.968-17.986"/>
<path opacity="0.5" fill="none" stroke="#D1CECD" stroke-linecap="round" stroke-miterlimit="10" d="M251.741,339.378
	c0,0-0.061-4.898-7.686-7.308c-7.626-2.407-6.481-0.566-11.956-5.181c-5.473-4.615-6.271-7.951-5.473-4.615
	c0.796,3.336,0.364,3.298,2.071,8.671c1.707,5.373,6.005,10.975,12.017,11.936c6.01,0.961,6.492-2.518,8.933-0.562
	c2.573,2.059,3.739,5.008,3.487,4.551"/>
<path opacity="0.5" fill="none" stroke="#D1CECD" stroke-linecap="round" stroke-miterlimit="10" d="M258.764,364.784
	c0.645,0.568,4.361-1.875,6.854-7.97c2.49-6.094,6.133-20.36,4.594-22.672c-4.235,1.154-11.013,6.438-11.464,11.622
	c-0.454,5.185,3.845,10.786-0.187,14.569"/>
<path opacity="0.5" fill="none" stroke="#D1CECD" stroke-linecap="round" stroke-miterlimit="10" d="M253.866,376.684
	c0,0-2.186-7.375-7.202-4.767c-5.018,2.608-14.9,6.097-17.257,5.672c-2.358-0.423-10.629-7.895-14.592-7.372
	c2.524,3.486,2.692,6.547,5.808,10.739c3.118,4.19,12.261,14.134,21.937,8.015C252.237,382.854,253.017,381.398,253.866,376.684z"/>
<path opacity="0.5" fill="none" stroke="#D1CECD" stroke-linecap="round" stroke-miterlimit="10" d="M249.791,315.785
	c0,0,6.128-4.879,1.032-13.814c-5.095-8.938-16.71-18.008-17.808-17.885c0.675,2.235,3.266,2.462,2.935,8.747
	c-0.332,6.283-0.181,18.336,11.305,23.912"/>
<path opacity="0.5" fill="none" stroke="#D1CECD" stroke-linecap="round" stroke-miterlimit="10" d="M252.909,309.25
	c0,0,2.264-15.454-5.842-26.547c-1.737-2.546-6.225-5.988-5.747-3.986c0.478,2.001-2.855,7.661-2.574,9.426"/>
<path opacity="0.5" fill="none" stroke="#D1CECD" stroke-linecap="round" stroke-miterlimit="10" d="M299.403,348.29
	c0,0-12.486-20.958-26.42-7.665c2.664,6.039,11.22,12.737,18.021,11.3c6.802-1.436,7.349,1.441,8.137,2.381"/>
<path opacity="0.5" fill="none" stroke="#D1CECD" stroke-linecap="round" stroke-miterlimit="10" d="M303.589,351.375
	c0,0,4.82-0.974,7.674-8.707c2.853-7.733,8.457-7.098,16.192-10.919c7.736-3.822,10.969-7.603,11.57-7.84s1.896,3.212-1.352,10.475
	s-8.648,12.595-17.405,16.473c-8.756,3.878-15.074,1.874-16.793,4.917"/>
<path opacity="0.5" fill="none" stroke="#D1CECD" stroke-linecap="round" stroke-miterlimit="10" d="M306.396,419.962
	c0,0-0.613-3.97,2.356-5.063c7.378-2.71,9.879-4.686,12.7-18.262c2.82-13.576,0.572-16.493-0.114-16.119
	c-0.686,0.376-12.183,8.622-14.67,15.914c-1.331,3.899-0.588,11.702-3.811,11.203"/>
<path opacity="0.5" fill="none" stroke="#D1CECD" stroke-linecap="round" stroke-miterlimit="10" d="M302.154,304.938
	c0,0,1.029-9.271-7.262-16.526c-8.29-7.255-12.77-8.301-13.122-8.006c-0.353,0.296-0.555,10.075-0.064,15.668
	s3.964,10.687,8.611,14.793c4.646,4.108,11.762,6.146,11.144,9.465"/>
<path opacity="0.5" fill="none" stroke="#D1CECD" stroke-linecap="round" stroke-miterlimit="10" d="M303.949,324.25
	c0,0,2.462-3.268,8.135-3.424c5.674-0.157,20.143-6.292,21.572-18.902s-3.247-25.099-3.932-24.724
	c-0.687,0.375,0.371-0.512-3.517,5.352c-3.886,5.864-4.73,11.776-6.144,17.966c-1.412,6.189-3.932,10.105-6.318,12.509
	c-2.387,2.403-4.224,4.746-6.938,3.419c-2.714-1.327-4.79,0.016-4.547,2.214S302.258,323.668,303.949,324.25z"/>
<path opacity="0.5" fill="none" stroke="#D1CECD" stroke-linecap="round" stroke-miterlimit="10" d="M294.893,288.411
	c-0.061-0.55-3.192-9.531,4.867-18.295c8.06-8.764,13.144-14.632,14.333-17.031c1.785-0.497,1.361,1.86,1.707,5.373
	c0.345,3.514-2.508,7.509-0.483,14.216c2.026,6.708,3.292,20.859,0.325,26.151c-2.966,5.29-10.184,13.948-9.818,17.245"/>
<path opacity="0.5" fill="none" stroke="#D1CECD" stroke-linecap="round" stroke-miterlimit="10" d="M378.25,390.614
	c-0.026-1.168-0.938-4.219-6.622-7.655c-5.686-3.436-8.358-3.996-14.619-3.347s-8.046,1.146-9.069,0.404
	c1.107,2.274,0.885,6.064,7.026,10.519c6.14,4.456,15.546,5.17,17.506,3.927c1.671-1.062,2.904,0.673,4.592-0.251
	C378.437,393.46,378.273,391.596,378.25,390.614z"/>
<path opacity="0.5" fill="none" stroke="#D1CECD" stroke-linecap="round" stroke-miterlimit="10" d="M383.297,367.764
	c-2.085-0.022-12.112,0.355-11.299,3.474c0.817,3.12,0.728,5.397,9.148,4.937c8.421-0.461,13.692,2.722,21.331-2.487
	c5.107-3.482,6.295-8.483,7.593-13.377c1.299-4.893,2.627-12.613,6.039-14.273c-2.753-0.894-7.35-1.52-15.073,1.837
	c-7.92,3.442-12.895,6.818-12.795,13.14C388.316,365.729,392.389,367.859,383.297,367.764z"/>
<path opacity="0.5" fill="none" stroke="#D1CECD" stroke-linecap="round" stroke-miterlimit="10" d="M374.319,363.386
	c0,0-7.18-12.492-14.888-16.431c-7.71-3.94-13.667-0.542-20.414,1.914c-6.744,2.458-9.958,4.353-9.958,4.353
	s-2.002,0.479,2.722,3.721c4.723,3.245,16.359,7.092,22.203,4.99c5.843-2.101,8.452,2.917,11.363,4.478
	c2.911,1.561,6.237-1.63,9.111,0.364"/>
<path opacity="0.5" fill="none" stroke="#D1CECD" stroke-linecap="round" stroke-miterlimit="10" d="M376.95,353.804
	c1.382,1.215,3.539,1.878,6.219-0.745c4.683-4.587,0.195-3.747,12.951-13.67c9.809-7.632,5.468-13.998,8.165-17.462
	c1.982-2.544,6.578-3.751,6.467-4.224c-0.082-0.333-2.227-1.936-6.622-1.45c-5.333,0.59-17.273,7.087-19.497,11.356
	c-2.224,4.267-1.215,6.423-3.477,11.124c-1.236,2.567-3.364,4.927-4.762,7.221"/>
<path opacity="0.5" fill="none" stroke="#D1CECD" stroke-linecap="round" stroke-miterlimit="10" d="M376.395,345.954
	c-1.159,1.905-1.816,3.764-1.045,5.659c0.217,0.535,0.77,1.462,1.601,2.191"/>
<path opacity="0.5" fill="none" stroke="#D1CECD" stroke-linecap="round" stroke-miterlimit="10" d="M376.237,346.112
	c-1.225-13.108-3.261-28.596-3.141-33.445c0.046-1.811,0.379-3.25,0.348-4.595c0,0,5.161-3.632,4.544-9.018
	c-0.742-6.491-5.821-8.728-13.326-18.744c-3.789-5.06-6.895-12.63-7.033-12.914c-0.032-0.07-1.279,2.174,0.567,10.933
	c1.87,8.875-2.12,14.666,2.039,22.11c4.188,7.496,9.601,8.058,9.601,8.058c0.115,3.357,0.474,8.098,1.087,11.598
	c1.162,6.632,2.847,17.229,3.062,22.255c0.172,4.102,0.248,17.618,0.624,26.506"/>
<path opacity="0.5" fill="none" stroke="#D1CECD" stroke-linecap="round" stroke-miterlimit="10" d="M377.32,296.112
	c0.704-0.591,1.417-1.889,0.677-3.37c-1.134-2.262-7.113-21.956,1.067-29.621c5.382-5.042,9.881-4.088,9.881-4.088
	s-3.665,2.075-2.418,7.734c1.247,5.66,6.322,17.314-1.503,25.882c-2.936,3.062-5.864,4.82-6.807,7.513"/>
<path opacity="0.5" fill="none" stroke="#D1CECD" stroke-linecap="round" stroke-miterlimit="10" d="M373.134,314.739
	c0.401-0.236,2.857-2.198,4.299-5.609c1.442-3.412,8.236-17.621,21.851-23.939c13.613-6.319,12.882-4.369,12.882-4.369
	s-5.118,1.457-7.684,12.116c-2.563,10.66-11.1,20.524-18.274,21.64c-7.172,1.113-11.423,3.679-12.381,4.684"/>
<path opacity="0.5" fill="none" stroke="#D1CECD" stroke-linecap="round" stroke-miterlimit="10" d="M351.318,484.473
	c-3.932-1.507-5.211-1.834-10.996-2.049c-5.786-0.219-11.985,1.193-15.896-1.081c1.837,3.709,4.802,6.066,9.207,8.775
	c4.406,2.708,7.27,1.425,9.635,4.245"/>
<path opacity="0.5" fill="none" stroke="#D1CECD" stroke-linecap="round" stroke-miterlimit="10" d="M354.356,477.855
	c0,0-0.336-3.458,2.498-9.305c2.833-5.849,0.54-9.571,0.722-9.99s5.316,3.858,7.605,7.542c2.289,3.683,4.316,12.126,0.379,17.296"/>
<path opacity="0.5" fill="none" stroke="#D1CECD" stroke-linecap="round" stroke-miterlimit="10" d="M134.788,380.588
	c-1.144-5.227,0.05-5.542,0.731-8.692c0.682-3.154,1.935-0.12,5.325,2.055c3.388,2.172,12.585,2.785,15.873,25.562"/>
<path opacity="0.5" fill="none" stroke="#D1CECD" stroke-linecap="round" stroke-miterlimit="10" d="M134.692,394.892
	c0,0-1.68-0.433-6.26,0.484c-4.581,0.917-5.897,3.461-7.208,5.224c-1.309,1.761-0.939,0.743,2.512,1.469
	c3.451,0.724,4.654,3.954,11.232,4.708c6.579,0.755,17.002-0.009,20.474-4.605"/>
<path opacity="0.5" fill="none" stroke="#D1CECD" stroke-linecap="round" stroke-miterlimit="10" d="M165.793,405.948
	c0,0-1.262,4.461-5.958,3.396c-4.696-1.063-5.094-2.731-10.798,0.253c-5.703,2.984-6.304,4.891-11.467,5.419
	c-5.161,0.528-14.139,4.857-15.032,7.608c1.22,0.977,3.869,0.557,9.57,2.58c5.701,2.023,16.916,6.793,27.673-2.804
	c7.556-6.74,6.302-9.823,10.694-15.244"/>
<path opacity="0.5" fill="none" stroke="#D1CECD" stroke-linecap="round" stroke-miterlimit="10" d="M171.763,403.148
	c0.168-1.944,0.111-4.906-2.119-8.04c-2.229-3.133-3.252-18.188,0.435-22.383c1.239,0.762,3.997,3.452,4.918,5.982
	c0.921,2.528-0.848,1.612,1.562,8.897c2.411,7.286,2.4,7.395,2.017,9.918c-0.384,2.525-2.91,4.569-3.168,6.289"/>
<path opacity="0.5" fill="none" stroke="#D1CECD" stroke-linecap="round" stroke-miterlimit="10" d="M203.998,419.829
	c-1.282-0.976-4.066-0.792-6.244-0.166c-3.011,0.867-10.813,6.27-13.502,7.525c-3.233,1.514-2.539,1.031-6.93,0.21
	c-4.39-0.819-5.155-0.179-9.02,0.464c-3.866,0.642-9.598,0.847-9.782,1.701c-0.183,0.856-1.143-1.243,2.785,1.769
	c3.927,3.009,18.51,7.387,23.568,8.048c5.058,0.659,18.23-5.589,19.713-11.337C206.068,422.295,205.937,421.305,203.998,419.829z"/>
<path opacity="0.5" fill="none" stroke="#D1CECD" stroke-linecap="round" stroke-miterlimit="10" d="M145.886,293.54
	c8.453,7.77,12.116,9.45,12.116,9.45s-4.205-1.674-10.565-1.143c-6.36,0.533-10.587,4.082-16.121,5.121s-16.691-0.807-20.26,0.186
	c-3.57,0.995,0.478,2.001,3.782,4.033c3.306,2.03,8.188,5.94,17.572,5.673c9.384-0.268,16.07,2.929,22.253-3.06
	c6.185-5.989,7.082-8.737,10.387-6.708c3.304,2.031,9.296,9.015,22.282,17.333c12.986,8.321,32.431,24.113,40.807,29.55
	c8.79,5.702,14.57,8.458,21.469,16.68c6.899,8.222,15.39,14.841,23.428,22.511c8.036,7.669,24.272,26.066,24.272,26.066
	s-4.464,2.95-10.581,2.34c-5.733-0.571-14.597,2.64-16.795,2.883s-1.053,2.085-5.352-3.516c-4.3-5.602-12.601-10.246-16.723-10.389
	c-4.124-0.143-1.804,0.713,0.213,5.025c2.017,4.312-0.384,14.333,9.093,17.992c9.476,3.66,25.059,2.193,29.09-1.59
	c4.031-3.783,10.846-9.385,13.185-10.524c0.759-0.369,13.955,16.313,23.287,27.434c9.33,11.119,33.774,40.705,33.417,42.687
	c-0.566,3.144-26.009,4.581-38.498,2.145c-12.126-2.363-17.374-7.962-30.486-19.791c-13.179-11.89-29.953-28.778-42.173-35.946
	c-15.15-8.886-27.917-15.14-28.66-15.786c1.65-0.217,3.995-4.479,4.673-8.326c1.149-6.503,2.655-10.101-2.125-16.431
	c-4.78-6.332-14.625-9.278-17.407-9.013c0.137,1.751-0.375,2.649-0.032,5.765c0.345,3.113,2.61,9.152,8.132,12.793
	c5.523,3.64,1.405,11.097,2.885,13.458l0,0c-9.018-4.696-21.962-11.873-29.191-14.672c-6.522-2.525-23.048-3.613-27.692-6.922
	c-4.644-3.309,0.422-6.494-11.589-13.496c-12.014-7-16.911-7.428-22.046-8.458c-5.133-1.031-3.267,0.875-0.877,3.407
	c2.391,2.53,6.08,10.109,12.01,13.675c5.929,3.566,15.808,6.752,18.82,7.162c3.01,0.409,11.926,4.67,18.789,5.852
	c6.863,1.18,11.176,2.438,14.299,4.082c3.766,1.985,9.406,5.285,15.315,8.119"/>
<path opacity="0.5" fill="none" stroke="#D1CECD" stroke-linecap="round" stroke-miterlimit="10" d="M234.2,437.163
	c-8.888-2.825-21.063-0.478-23.946,8.81c4.61,1.675,6.644,3.466,12.422,2.149c4.746-1.082,2.754-4.809,13.319-4.535
	c2.414,0.062,4.629-2.146,3.849-3.076"/>
<path opacity="0.5" fill="none" stroke="#D1CECD" stroke-linecap="round" stroke-miterlimit="10" d="M231.239,430.222
	c-0.403-0.912-2.113-3.353-2.918-5.815c-1.441-4.416-2.271-10.641,0.279-16.889c2.55-6.249,2.511-8.24,3.367-7.902
	c0.855,0.339,0.035,1.167,3.095,4.27c3.06,3.106,3.269,8.215,3.515,12.601c0.249,4.382,1.642,4.191,1.94,6.781
	c0.26,2.278-2.854,8.612-7.752,7.79"/>
<path opacity="0.5" fill="none" stroke="#D1CECD" stroke-linecap="round" stroke-miterlimit="10" d="M294.698,478.938
	c0.123,1.873,0.546,2.877,2.351,2.964c1.81,0.083,4.177-3.772,5.594-6.694c1.418-2.924,4.961-3.629,4.608-11.206
	c-0.354-7.579-6.114-12.217-6.951-15.918c-0.838-3.701-1.368-5.925-1.801-5.963s-5.997,3.031-5.96,10.073
	c0.037,7.039,3.434,12.997,3.07,17.173C295.242,473.544,294.573,477.041,294.698,478.938z"/>
<path opacity="0.5" fill="none" stroke="#D1CECD" stroke-linecap="round" stroke-miterlimit="10" d="M295.83,488.397
	c0,0,0.093,0.59-2.196,1.041c-2.289,0.455-8.07-2.301-14.876,1.676c-6.805,3.975-7.931,7.722-10.48,8.659
	c-2.55,0.939-9.131-1.811-10.864,3.912c2.643-0.349,2.602-1.513,7.152,1.206c4.549,2.722,12.979,6.725,22.031,1.132
	c9.053-5.596,9.52-14.259,11.608-15.748"/>
<path opacity="0.5" fill="none" stroke="#D1CECD" stroke-linecap="round" stroke-miterlimit="10" d="M380.564,526.724
	c0.611-1.18,3.153-0.378,2.945-3.807c-0.207-3.429,3.154-3.356-1.228-10.848c-4.609-7.875-4.852-17.549,0.342-22.171
	c3.375-3.002,7.909-3.298,7.805-2.945c-0.104,0.352-5.054,3.838-3.146,6.908c1.91,3.068,7.106,6.717,6.249,16.51
	c-0.855,9.792-4.962,15.238-11.729,18.782"/>
<path opacity="0.5" fill="none" stroke="#D1CECD" stroke-linecap="round" stroke-miterlimit="10" d="M394.396,565.697
	c-0.087-0.453-2.513-2.357-5.768-6.237c-0.065-0.077-1.836-1.394-8.182-4.342c-6.346-2.951-8.645-1.558-12.903-2.655
	c-4.255-1.096-6.314-2.437-4.921-0.139c1.396,2.297,1.077,5.101,5.978,10.464s9.207,5.085,13.108,5.282
	c3.899,0.198,7.727,1.257,10.057,1.169C394.093,569.152,394.595,566.731,394.396,565.697z"/>
<path opacity="0.5" fill="none" stroke="#D1CECD" stroke-linecap="round" stroke-miterlimit="10" d="M415.588,507.078
	c-1.532,3.014-2.876,5.883-3.819,8.008c-2.169,4.891-12.793,29.286-14.802,34.842c-2.012,5.556-2.215,5.827-2.215,5.827
	c-3.526-7.311-5.022-10.106-6.289-12.303c-5.293-9.17-11.672-25.837-16.458-35.834c-4.784-9.998-6.649-11.904-5.756-14.656
	c0.894-2.75,7.594-7.17,10.076-15.661c2.483-8.489,5.023-47.45,5.929-57.82c0.64-7.31-2.22-27.798-3.919-43.214"/>
<path opacity="0.5" fill="none" stroke="#D1CECD" stroke-linecap="round" stroke-miterlimit="10" d="M490.001,887.305
	c-1.462-12.065-2.647-21.574-3.152-25.265c-0.511-3.731-2.222-15.51-2.983-20.812"/>
<path opacity="0.5" fill="none" stroke="#D1CECD" stroke-linecap="round" stroke-miterlimit="10" d="M442.974,688.405
	c0.71,1.126,1.492,3.163,1.782,4.512c1.648,7.69,7.4,28.22,10.212,39.204s9.083,38.818,11.668,52.395
	c2.33,12.237,5.146,27.443,7.038,37.331c1.893,9.891,2.639,20.84,2.705,22.188c0.066,1.443-5.292,2.402-9.409-0.28
	c-4.119-2.68-5.958-4.074-13.342-4.284c-7.383-0.211-13.388,5.315-17.933,6.774c-5.154,1.654-0.96,2.673,1.292,3.449
	c2.256,0.778,17.458,6.974,24.017,3.338c6.558-3.636,15.606-6.691,16.081-5.488c0.476,1.203,2.34,15.152,4.096,26.19
	c2.061,12.952,4.18,28.521,4.966,36.136c0.684,6.641,2.229,24.286,2.938,32.766c0.432,5.155,0.669,9.918,0.814,14.235"/>
<path opacity="0.5" fill="none" stroke="#D1CECD" stroke-linecap="round" stroke-miterlimit="10" d="M393.797,568.298
	c4.995,11.082,13.721,30.609,17.553,38.688c4.165,8.78,17.839,41.614,20.983,50.448c3.143,8.838,8.363,18.875,7.446,19.378
	c-0.913,0.498-3.246-1.011-8.419-4.946c-4.379-3.334-5.931-4.612-12.356-15.158c-8.111-13.31-32.519-28.46-33.726-29.582
	c-1.21-1.122-1.805-2.393-0.475-5.339c1.562-3.463,3.357-7.694,2.783-17.309c-0.542-9.039-11.478-14.361-15.332-16.732
	c-3.858-2.368-2.519-1.09-2.402,2.548c0.116,3.64-0.972,11.089,3.903,15.943c3.584,3.568,8.389,5.23,8.273,9.863
	c-0.115,4.634-1.147,9.125-1.987,8.762s-0.004-0.27-9.385-3.461c-9.129-3.104-16.972-6.963-23.766-9.169
	c-5.504-1.787-12.894-5.348-15.022-7.565c-2.128-2.218-5.721-5.477-9.894-6.701c-9.479-2.78-11.578-1.551-17.857-1.087
	c-6.28,0.467-9.764,0.451-6.302,2.352c3.461,1.898,2.017,0.177,7.43,6.31c5.413,6.132,9.604,8.42,15.835,8.178
	c7.98-0.311,8.282-6.948,13.551-4.01c3.22,1.797,5.641,3.541,13.503,6.551c7.864,3.011,15.832,7.039,26.584,11.324
	c22.858,9.105,37.948,26.55,42.45,34.903c3.646,6.769,11.878,15.055,18.25,19.302"/>
<path opacity="0.5" fill="none" stroke="#D1CECD" stroke-linecap="round" stroke-miterlimit="10" d="M417.757,507.592
	c0.937-0.455,0.876-1.737,0.976-3.687c0.097-1.94-1.667-5.794-1.975-8.953c-0.306-3.147,1.845-3.686-1.904-11.015
	c-3.746-7.329-4.747-10.825-4.742-11.298c-0.426-0.109-0.61,0.781-1.291,1.483c-0.678,0.703-4.74,6.914-4.287,13.34
	c0.454,6.425,5.474,12.088,7.487,15.204C414.033,505.779,416.242,508.331,417.757,507.592z"/>
<path opacity="0.5" fill="none" stroke="#D1CECD" stroke-linecap="round" stroke-miterlimit="10" d="M427.047,479.779
	c0,0-0.97-0.52-1.498-1.944c-0.528-1.426-0.309-2.277-0.457-5.157c-0.146-2.878-2.289-8.454-6.781-13.091
	c-4.493-4.637-11.306-12.216-13.069-13.778c-0.815,3.003,1.287,7.25,2.441,12.086c1.156,4.835,4.308,16.703,9.561,19.502
	c5.25,2.8,7.583,1.642,8.602,6.793"/>
<path opacity="0.5" fill="none" stroke="#D1CECD" stroke-linecap="round" stroke-miterlimit="10" d="M427.747,477.216
	c0,0-1.351-1.193,1.435-5.031c2.783-3.838,8.743-9.138,5.964-21.519c-2.782-12.38-4.996-21.463-4.794-23.125
	c-1.168-0.321-3.62,2.362-5.631,6.05c-2.01,3.688-8.818,17.518-3.939,28.938"/>
<path opacity="0.5" fill="none" stroke="#D1CECD" stroke-linecap="round" stroke-miterlimit="10" d="M429.304,485.093
	c8.854-1.022,8.84-1.015,13.129-1.41c4.555-0.417,14.854-5.556,20.952-13.677c6.098-8.119,6.587-5.627,6.791-6.099
	c0.206-0.472-3.849-3.275-10.48,0.988c-6.631,4.263-16.397,2.049-22.966,7.46"/>
<path opacity="0.5" fill="none" stroke="#D1CECD" stroke-linecap="round" stroke-miterlimit="10" d="M461.188,595.457
	c0,0,3.709,1.557,5.083-2.533c1.374-4.088-3.999-5.719,1.037-18.484s15.237-14.922,16.188-12.517
	c0.187,1.179-4.326-1.974-4.299,6.01c0.025,7.984,2.938,9.545-1.039,18.486c-3.973,8.94-13.986,12.272-16.949,11.287"/>
<path opacity="0.5" fill="none" stroke="#D1CECD" stroke-linecap="round" stroke-miterlimit="10" d="M457.779,594.475
	c-0.016-0.651,0.044-0.649-0.883-3.024c-1.343-3.44-4.953-8.923-12.021-12.733c-7.066-3.811-11.74-7.631-11.43-8.693
	c-1.651-0.216-1.636,3.779-0.657,6.693c0.978,2.913,11.996,13.82,17.227,16.237c5.229,2.415,5.244,5.61,6.094,5.83
	c0.852,0.219,1.149-0.103,1.436-0.875"/>
<path opacity="0.5" fill="none" stroke="#D1CECD" stroke-linecap="round" stroke-miterlimit="10" d="M454.074,549.471
	c1.186,5.605,2.295,11.082,2.687,13.669c0.964,6.397,1.814,14.092,1.491,22.77c-0.324,8.679-1.587,22.285-1.721,28.804
	c-0.134,6.517-0.62,17.867-1.216,27.176c-0.597,9.309-1.41,16.127-2.325,24.102c-0.917,7.974-3.974,13.081-5.361,9.04
	c-1.39-4.041-10.091-22.362-16.469-39.027c-4.385-11.463-21.375-48.986-32.69-72.794c0,0,2.955-10.353,5.362-18.778
	c2.404-8.423,7.489-18.428,9.32-22.765c1.829-4.339,10.713-21.268,10.713-21.268c2.873-5.48,5.584-16.562,6.765-20.088
	c1.178-3.524,3.394-6.45,9.388-10.28c5.995-3.829,16.969-13.971,19.061-18.796c2.089-4.823,1.751-8.408,1.111-15.211
	c-13.043,1.471-16.856,11.878-18.533,19.421c-1.676,7.545-3.552,9.92-6.812,13.19c-3.262,3.271-4.881,4.363-6.144,6.357
	c-1.265,1.992-1.475,5.239-3.366,11.097c-1.891,5.859-2.539,6.189-4.39,10.355c-0.638,1.434-1.483,3.121-2.522,5.186"/>
<path opacity="0.5" fill="none" stroke="#D1CECD" stroke-linecap="round" stroke-miterlimit="10" d="M483.23,836.847
	c-2.819-19.384-5.877-38.398-11.376-65.512c-7.309-36.027-16.112-66.28-18.057-75.595c-1.691-8.105-3.961-9.491,0.525-14.322
	c4.488-4.831,6.4-26.723,5.895-37.506c-0.511-10.782-0.676-28.792,0.232-39.161c0.906-10.37,2.003-26.236-0.82-40.416
	c-0.72-3.618-1.443-6.241-2.177-9.116c0.493-0.058,1.808-0.187,2.603-0.715c3.082-2.053,7.127-5.183,10.043-6.159
	c2.916-0.979,5.45-2.573,3.131-10.901c-0.876-3.27,5.17-0.2,9.767-7.128c4.597-6.926,2.104-9.104,1.721-9.718
	c-0.381-0.613-1.325,2.715-8.077,3.574c-6.75,0.861-13.735,1.92-15.64,7.921c-1.904,6,4.701,11.802,1.987,14.612
	c-1.991,2.062-4.956,4.026-6.2,5.335c-1.819-6.705-4.976-20.243-4.976-20.243c-0.108-4.583,2.378-16.409,1.294-19.769
	c-1.085-3.36-2.729-9.456-4.648-12.38c-1.923-2.925-1.919-5.464-2.402-5.725c-0.485-0.258-7.181,9.094-5.584,20.7
	c1.597,11.605,9.771,17.688,9.956,18.069c0,0,1.542,6.912,3.121,14.314"/>
<path opacity="0.5" fill="none" stroke="#D1CECD" stroke-linecap="round" stroke-miterlimit="10" d="M447.567,550.237
	c-2.38,0.661-4.21,3.932-15.33,2.921c-11.289-1.022-12.026-10.995-12.147-12.093c-0.123-1.098,4.381,4.312,6.678,4.305
	c4.889-0.02,7.134-4.983,14.474-4.739c4.845,0.162,6.167,1.664,8.428,4.038c2.26,2.375,4.725,1.821,4.772,3.628
	S449.946,549.574,447.567,550.237z"/>
<path opacity="0.5" fill="none" stroke="#D1CECD" stroke-linecap="round" stroke-miterlimit="10" d="M446.729,528.824
	c0,0-3.814-3.01-6.311-7.52c-4.504-8.133-17.918-5.945-17.649-4.436c0.103,0.58,5.009,4.301,7.13,8.258
	c2.12,3.959,6.408,8.868,11.524,8.445c5.117-0.424,9.011,1.515,9.128,1.016"/>
<path opacity="0.5" fill="none" stroke="#D1CECD" stroke-linecap="round" stroke-miterlimit="10" d="M452.239,526.9
	c0.458-0.253,1.995-2.073,2.319-3.282c0.321-1.204,1.646-4.716,4.146-8.417c2.502-3.699,1.694-6.092,1.772-10.293
	s2.109-6.708,2.399-5.883c0.29,0.822,3.454,2.839,4.406,6.044c0.953,3.205,2.585,6.082,2.87,8.669
	c0.445,4.029-3.937,12.645-3.937,12.645"/>
<path opacity="0.5" fill="none" stroke="#D1CECD" stroke-linecap="round" stroke-miterlimit="10" d="M462.307,529.595
	c0,0-0.54,0.387-2.256,0.892c-1.712,0.502-8.544,0.629-8.067,1.832"/>
<path opacity="0.5" fill="none" stroke="#D1CECD" stroke-linecap="round" stroke-miterlimit="10" d="M444.492,684.73
	c0.091-2.278-2.386-4.602-6.359-3.203c-3.967,1.394-7.854-2.285-12.23-2.016c-4.379,0.271-5.727-5.071-22.775-5.911
	c-2.963-0.145,1.606,3.188,3.171,7.681c1.566,4.489,9.887,15.992,24.734,11.741C445.88,688.771,444.402,687.008,444.492,684.73z"/>
<path opacity="0.5" fill="none" stroke="#D1CECD" stroke-linecap="round" stroke-miterlimit="10" d="M458.274,745.871
	c-1.563-5.361-3.883-6.91-9.62-10.454c-11.358-7.016-18.96-6.376-27.925-10.063c-8.967-3.685-11.867-6.188-13.703-6.784
	c-1.832-0.596-0.429,0.76,0.866,4.211s0.939,14.157,16.717,19.603c15.777,5.442,25.694-3.411,28.434,1.761
	C455.783,749.32,458.609,747.017,458.274,745.871z"/>
<path opacity="0.5" fill="none" stroke="#D1CECD" stroke-linecap="round" stroke-miterlimit="10" d="M490,832.454
	c-0.289,0.364-0.589,0.665-0.897,0.894c-2.637,1.948-7.555,3.403-7.335,5.89c0.225,2.554,3.805,2.944,6.856-0.417
	c0.459-0.505,0.911-1.011,1.376-1.522"/>
<path opacity="0.5" fill="none" stroke="#D1CECD" stroke-linecap="round" stroke-miterlimit="10" d="M490,779.51
	c-5.201,7.66-10.842,13.71-13.388,16.822"/>
<path opacity="0.5" fill="none" stroke="#D1CECD" stroke-linecap="round" stroke-miterlimit="10" d="M489.999,678.158
	c-0.406,0.02-0.82,0.069-1.242,0.152c-5.217,1.017-8.225,3.511-8.168,3.963c0.057,0.455,4.649-0.393,6.804,1.366
	c0.41,0.335,1.345,0.962,2.609,1.754"/>
<path opacity="0.5" fill="none" stroke="#D1CECD" stroke-linecap="round" stroke-miterlimit="10" d="M477.222,799.797
	c0.896-1.237,3.351-4.214,6.773-8.022c1.591-1.77,3.731-4.501,6.006-7.732"/>
<path opacity="0.5" fill="none" stroke="#D1CECD" stroke-linecap="round" stroke-miterlimit="10" d="M490,741.762
	c-3.41-0.905-6.496-1.9-11.363-7.83c-1.396-1.701-0.174,0.852,1.413,6.92c1.563,5.982,1.692,13.396,9.952,15.403"/>
<path opacity="0.5" fill="none" stroke="#D1CECD" stroke-linecap="round" stroke-miterlimit="10" d="M246.862,305.792"/>
<path opacity="0.5" fill="none" stroke="#D1CECD" stroke-linecap="round" stroke-miterlimit="10" d="M200.288,419.191
	c0,0-3.908,3.486-6.006,6.075"/>
</svg>