<?xml version="1.0" encoding="utf-8"?>
<!-- Generator: Adobe Illustrator 22.0.1, SVG Export Plug-In . SVG Version: 6.00 Build 0)  -->
<svg version="1.1" id="Camada_1" xmlns="http://www.w3.org/2000/svg" xmlns:xlink="http://www.w3.org/1999/xlink" x="0px" y="0px"
	 viewBox="0 0 841.9 595.3" style="enable-background:new 0 0 841.9 595.3;" xml:space="preserve">
<style type="text/css">
	.st0{fill:#D7E8C5;}
	.st1{fill:#ECF3DA;}
	.st2{fill:#E2EDD0;}
	.st3{fill:#C2DDB0;}
	.st4{fill:#B1CCB7;}
	.st5{fill:#D6E5D8;}
	.st6{fill:#C9D7CB;}
	.st7{fill:#EDEDED;}
	.st8{fill:#196433;}
	.st9{fill:#7CBA43;}
	.st10{fill:#F1F1C5;}
	.st11{fill:#CDDC94;}
	.st12{fill:#FFFFFF;}
</style>
<g>
	<path d="M645.3,296.3c-0.9-0.3-1.7-0.8-2.2-1.4c-0.8-1.1-1.3-3-1.3-5.8v-15.6c0-11.4-3.6-20-10.8-25.8c-7.2-5.7-17.5-8.6-30.8-8.6
		c-13,0-24.7,2.9-35,8.7c-1.5,0.8-2.1,2.6-1.4,4.1l5.9,12.2c0.8,1.7,3,2.3,4.7,1.4c3.3-1.9,6.5-3.5,9.6-4.6c4-1.5,8.4-2.2,13.2-2.2
		c5.1,0,8.8,0.9,11,2.8c2.3,1.8,3.4,4.7,3.4,8.4v2.5c-4.4-2-10.1-3.1-16.8-3.1c-5.3,0-10.1,0.7-14.5,2c-4.4,1.3-8.2,3.2-11.4,5.7
		c-3.2,2.5-5.7,5.4-7.5,8.7c-1.7,3.2-2.6,6.8-2.7,10.7c-0.1,0-0.2-0.1-0.2-0.1c-0.9-0.3-1.7-0.8-2.2-1.4c-0.8-1.1-1.3-3-1.3-5.8
		v-15.6c0-11.4-3.6-20-10.8-25.8c-7.2-5.7-17.5-8.6-30.8-8.6c-13,0-24.7,2.9-35,8.7c-1.5,0.8-2.1,2.6-1.4,4.1l5.9,12.2
		c0.8,1.7,3,2.3,4.7,1.4c3.3-1.9,6.5-3.5,9.6-4.6c4-1.5,8.4-2.2,13.2-2.2c5.1,0,8.8,0.9,11,2.8c2.3,1.8,3.4,4.7,3.4,8.4v2.5
		c-4.4-2-10.1-3.1-16.8-3.1c-5.3,0-10.1,0.7-14.5,2c-4.4,1.3-8.2,3.2-11.4,5.7c-3.2,2.5-5.7,5.4-7.5,8.7c-1.8,3.4-2.7,7.1-2.7,11.2
		c0,0.5,0,0.9,0,1.3c-0.8-0.7-2-0.9-3.1-0.6c-0.2,0.1-0.4,0.1-0.6,0.2c-1.5,0.4-2.9,0.6-4.1,0.6c-5.2,0-7.8-3.1-7.8-9.2v-74.8
		c0-1.8-1.5-3.2-3.3-3.2h-23.6c-1.8,0-3.3,1.4-3.3,3.2v60.8c-0.4-3.9-1.3-7.7-2.6-11.2c-2-5.1-4.6-9.5-8-13.2
		c-3.4-3.7-7.5-6.6-12.2-8.7c-4.8-2.1-9.9-3.1-15.4-3.1c-6.4,0-11.7,1.2-16,3.5c-1.9,1-3.7,2.3-5.4,3.7c-2.2,1.9-5.6,0.5-5.6-2.3
		v-0.3c0-1.8-1.5-3.2-3.3-3.2h-19.6c-1.8,0-3.3,1.4-3.3,3.2v107c0,1.8,1.5,3.2,3.3,3.2h23.6c1.8,0,3.3-1.4,3.3-3.2v-32.3
		c0-2.7,3.3-4.2,5.5-2.4c1.5,1.3,3.1,2.3,4.9,3.3c4.4,2.3,9.7,3.5,15.7,3.5c5.1,0,9.8-1.1,14.1-3.1c4.3-2.1,8.1-5,11.3-8.8
		c3.2-3.8,5.7-8.3,7.5-13.4c1.2-3.5,2-7.2,2.4-11.1v13.2c0,7.6,2.2,13.3,6.5,17.3c4.3,4,10.5,6,18.6,6c4,0,8.3-0.5,12.8-1.4
		c3.5-0.7,6.7-1.6,9.7-2.8c1.4-0.6,2.3-2,2-3.5l-1.3-7.4c1.5,2.9,3.4,5.5,5.8,7.6c2.6,2.3,5.7,4.1,9.3,5.4c3.6,1.3,7.5,2,11.6,2
		c5.5,0,10.7-1.2,15.6-3.6c4.9-2.4,9.2-5.9,12.9-10.5l0.6,2.9c0.8,3.7,2.7,6.5,5.5,8.4c2.8,1.9,6.9,2.8,12.3,2.8
		c1.7,0,3.6-0.1,5.8-0.4c1.3-0.2,2.7-0.4,4.2-0.6c1.6-0.3,2.7-1.6,2.7-3.1l0-11.8c0,0.1,0.1,0.2,0.1,0.3c1.5,3.2,3.5,5.9,6.1,8.2
		c2.6,2.3,5.7,4.1,9.3,5.4c3.6,1.3,7.5,2,11.6,2c5.5,0,10.7-1.2,15.6-3.6c4.9-2.4,9.2-5.9,12.9-10.5l0.6,2.9
		c0.8,3.7,2.7,6.5,5.5,8.4c2.8,1.9,6.9,2.8,12.3,2.8c1.7,0,3.6-0.1,5.8-0.4c1.3-0.2,2.7-0.4,4.2-0.6c1.6-0.3,2.7-1.6,2.7-3.1v-19.4
		C647.6,298,646.6,296.8,645.3,296.3z M394.7,287.5c-0.8,2.1-1.9,4-3.2,5.7c-1.3,1.6-2.9,2.9-4.8,3.8c-1.9,0.9-3.9,1.4-6.1,1.4
		c-3.2,0-6.2-1.2-9-3.5c-2.7-2.2-4.8-5-6.2-8.3c-0.2-0.4-0.3-0.8-0.3-1.3V273c0-0.7,0.2-1.3,0.6-1.9c3.8-5,8.4-7.4,13.7-7.4
		c5,0,9,1.5,12,4.6c3,3.1,4.5,7.2,4.5,12.3C395.9,283,395.5,285.3,394.7,287.5z M525,293.3c0,1-0.4,2-1.1,3c-0.7,1-1.7,1.9-2.9,2.7
		c-1.5,0.9-3.2,1.7-5.1,2.2c-1.9,0.6-3.8,0.8-5.6,0.8c-2.9,0-5.2-0.7-7.1-2.1c-1.9-1.4-2.8-3.3-2.8-5.5c0-2.7,1.2-4.9,3.7-6.6
		c2.4-1.7,5.5-2.6,9.2-2.6c1.7,0,3.6,0.2,5.7,0.6c1.2,0.2,2.4,0.5,3.5,0.8c1.4,0.4,2.4,1.6,2.4,3.1V293.3z M611.7,293.3
		c0,1-0.4,2-1.1,3c-0.7,1-1.7,1.9-2.9,2.7c-1.5,0.9-3.2,1.7-5.1,2.2c-1.9,0.6-3.8,0.8-5.6,0.8c-2.9,0-5.2-0.7-7.1-2.1
		c-1.9-1.4-2.8-3.3-2.8-5.5c0-2.7,1.2-4.9,3.7-6.6c2.4-1.7,5.5-2.6,9.2-2.6c1.7,0,3.6,0.2,5.7,0.6c1.2,0.2,2.4,0.5,3.5,0.8
		c1.4,0.4,2.4,1.6,2.4,3.1V293.3z"/>
	<path d="M715.7,287.4c-1.1-2.5-2.8-4.8-5.3-6.7c-2.5-2-5.8-3.8-9.9-5.5c-4.1-1.7-9.2-3.3-15.2-4.8c-5-1.2-8.3-2.3-10-3.3
		c-1.7-1-2.5-2.2-2.5-3.8c0-1.4,0.6-2.5,1.7-3.1c1.2-0.7,2.6-1,4.4-1c3.1,0,6.4,0.7,9.8,2.1c2.9,1.1,6.3,2.9,10.2,5.3
		c1.5,0.9,3.6,0.5,4.5-1l8.1-12.4c0.9-1.4,0.6-3.2-0.8-4.2c-4.8-3.7-9.6-6.2-14.4-7.5c-5.6-1.5-11.4-2.3-17.5-2.3
		c-5,0-9.6,0.7-13.7,2.1c-4.2,1.4-7.8,3.3-10.8,5.9c-3,2.6-5.4,5.6-7.1,9c-1.7,3.5-2.5,7.3-2.5,11.3c0,3.1,0.5,5.7,1.6,8
		c1.1,2.2,2.8,4.3,5.3,6.1c2.5,1.8,5.7,3.6,9.7,5.1c4,1.6,8.9,3.2,14.8,4.8c4.8,1.3,8,2.5,9.6,3.5c1.6,1,2.5,2.3,2.5,3.7
		c0,2.6-2.1,3.8-6.3,3.8c-4,0-8.4-0.9-13.3-2.8c-3.9-1.5-8-3.5-12.1-6c-1.6-1-3.7-0.4-4.6,1.1l-7.3,12.3c-0.8,1.4-0.5,3.1,0.8,4.1
		c4.4,3.5,9.7,6.3,15.7,8.2c7,2.3,14.1,3.5,21.4,3.5c5.4,0,10.2-0.6,14.5-1.8c4.3-1.2,7.9-3,11-5.4c3-2.4,5.3-5.2,6.9-8.4
		c1.6-3.3,2.4-7,2.4-11.2C717.3,292.8,716.7,289.9,715.7,287.4z"/>
</g>
<g>
	<path d="M379.3,349.4c0-0.5,0.1-1.1,0.3-1.6c0.2-0.5,0.5-1,0.9-1.4c0.4-0.4,0.8-0.8,1.4-1c0.5-0.3,1.2-0.4,1.9-0.4
		c0.8,0,1.5,0.2,2.1,0.5c0.6,0.4,1,0.8,1.3,1.4l-1.3,0.9c-0.1-0.3-0.3-0.5-0.4-0.6c-0.2-0.2-0.3-0.3-0.5-0.4
		c-0.2-0.1-0.4-0.2-0.6-0.2c-0.2,0-0.4-0.1-0.6-0.1c-0.4,0-0.8,0.1-1.1,0.3c-0.3,0.2-0.6,0.4-0.8,0.7c-0.2,0.3-0.4,0.6-0.5,1
		c-0.1,0.4-0.2,0.7-0.2,1.1c0,0.4,0.1,0.8,0.2,1.1c0.1,0.4,0.3,0.7,0.5,1c0.2,0.3,0.5,0.5,0.8,0.7c0.3,0.2,0.7,0.3,1.1,0.3
		c0.2,0,0.4,0,0.6-0.1c0.2-0.1,0.4-0.1,0.6-0.2c0.2-0.1,0.4-0.2,0.5-0.4c0.2-0.2,0.3-0.4,0.4-0.6l1.4,0.8c-0.1,0.3-0.3,0.6-0.6,0.9
		c-0.3,0.3-0.6,0.5-0.9,0.6c-0.3,0.2-0.7,0.3-1.1,0.4c-0.4,0.1-0.7,0.1-1.1,0.1c-0.6,0-1.2-0.1-1.7-0.4c-0.5-0.3-1-0.6-1.4-1
		c-0.4-0.4-0.7-0.9-0.9-1.5C379.4,350.6,379.3,350,379.3,349.4z"/>
	<path d="M394.7,354c-0.7,0-1.2-0.1-1.8-0.4c-0.5-0.3-1-0.6-1.4-1c-0.4-0.4-0.7-0.9-0.9-1.4c-0.2-0.5-0.3-1.1-0.3-1.7
		c0-0.6,0.1-1.2,0.3-1.7c0.2-0.5,0.5-1,0.9-1.4c0.4-0.4,0.8-0.7,1.4-1c0.5-0.2,1.1-0.4,1.7-0.4c0.6,0,1.2,0.1,1.8,0.4
		c0.5,0.3,1,0.6,1.4,1c0.4,0.4,0.7,0.9,0.9,1.5c0.2,0.5,0.3,1.1,0.3,1.7c0,0.6-0.1,1.2-0.3,1.7c-0.2,0.5-0.5,1-0.9,1.4
		c-0.4,0.4-0.8,0.7-1.4,1C395.9,353.9,395.3,354,394.7,354z M392.1,349.5c0,0.4,0.1,0.8,0.2,1.1c0.1,0.4,0.3,0.7,0.5,1
		c0.2,0.3,0.5,0.5,0.8,0.7c0.3,0.2,0.7,0.3,1.1,0.3c0.4,0,0.8-0.1,1.1-0.3c0.3-0.2,0.6-0.4,0.8-0.7c0.2-0.3,0.4-0.6,0.5-1
		c0.1-0.4,0.2-0.7,0.2-1.1c0-0.4-0.1-0.8-0.2-1.1c-0.1-0.4-0.3-0.7-0.5-1c-0.2-0.3-0.5-0.5-0.8-0.7c-0.3-0.2-0.7-0.2-1.1-0.2
		c-0.4,0-0.8,0.1-1.1,0.3c-0.3,0.2-0.6,0.4-0.8,0.7c-0.2,0.3-0.4,0.6-0.5,1C392.1,348.8,392.1,349.1,392.1,349.5z"/>
	<path d="M404.6,348.2v5.7h-1.7V345h1.3l4.6,5.8v-5.8h1.7v8.9h-1.4L404.6,348.2z"/>
	<path d="M414.9,353.9V345h6v1.5h-4.2v2.3h3.5v1.4h-3.5v3.7H414.9z"/>
	<path d="M428.2,354c-0.7,0-1.2-0.1-1.8-0.4c-0.5-0.3-1-0.6-1.4-1c-0.4-0.4-0.7-0.9-0.9-1.4c-0.2-0.5-0.3-1.1-0.3-1.7
		c0-0.6,0.1-1.2,0.3-1.7c0.2-0.5,0.5-1,0.9-1.4c0.4-0.4,0.8-0.7,1.4-1c0.5-0.2,1.1-0.4,1.7-0.4c0.6,0,1.2,0.1,1.8,0.4
		c0.5,0.3,1,0.6,1.4,1c0.4,0.4,0.7,0.9,0.9,1.5c0.2,0.5,0.3,1.1,0.3,1.7c0,0.6-0.1,1.2-0.3,1.7c-0.2,0.5-0.5,1-0.9,1.4
		c-0.4,0.4-0.8,0.7-1.4,1C429.4,353.9,428.8,354,428.2,354z M425.6,349.5c0,0.4,0.1,0.8,0.2,1.1c0.1,0.4,0.3,0.7,0.5,1
		c0.2,0.3,0.5,0.5,0.8,0.7c0.3,0.2,0.7,0.3,1.1,0.3c0.4,0,0.8-0.1,1.1-0.3s0.6-0.4,0.8-0.7c0.2-0.3,0.4-0.6,0.5-1
		c0.1-0.4,0.2-0.7,0.2-1.1c0-0.4-0.1-0.8-0.2-1.1c-0.1-0.4-0.3-0.7-0.5-1c-0.2-0.3-0.5-0.5-0.8-0.7c-0.3-0.2-0.7-0.2-1.1-0.2
		c-0.4,0-0.8,0.1-1.1,0.3c-0.3,0.2-0.6,0.4-0.8,0.7c-0.2,0.3-0.4,0.6-0.5,1C425.7,348.8,425.6,349.1,425.6,349.5z"/>
	<path d="M436.4,353.9V345h3.9c0.4,0,0.8,0.1,1.1,0.3c0.3,0.2,0.6,0.4,0.9,0.7c0.3,0.3,0.4,0.6,0.6,1c0.1,0.4,0.2,0.7,0.2,1.1
		c0,0.6-0.1,1.1-0.4,1.6c-0.3,0.5-0.7,0.8-1.2,1l2,3.3h-1.9l-1.8-3h-1.7v3H436.4z M438.1,349.4h2.2c0.2,0,0.3,0,0.4-0.1
		c0.1-0.1,0.3-0.2,0.4-0.3c0.1-0.1,0.2-0.3,0.2-0.5c0.1-0.2,0.1-0.4,0.1-0.6c0-0.2,0-0.4-0.1-0.6c-0.1-0.2-0.2-0.3-0.3-0.5
		c-0.1-0.1-0.2-0.2-0.4-0.3c-0.1-0.1-0.3-0.1-0.4-0.1h-2.1V349.4z"/>
	<path d="M454.5,353.9V348l-2.3,4.4h-0.9L449,348v5.9h-1.7V345h1.9l2.6,5.1l2.7-5.1h1.8v8.9H454.5z"/>
	<path d="M460.6,353.9V345h1.7v8.9H460.6z"/>
	<path d="M466.7,353.9V345h3.2c0.7,0,1.4,0.1,1.9,0.4c0.5,0.2,1,0.6,1.4,1c0.4,0.4,0.6,0.9,0.8,1.4c0.2,0.5,0.3,1.1,0.3,1.7
		c0,0.7-0.1,1.3-0.3,1.8c-0.2,0.5-0.5,1-0.9,1.4c-0.4,0.4-0.8,0.7-1.4,0.9c-0.5,0.2-1.1,0.3-1.8,0.3H466.7z M472.5,349.5
		c0-0.4-0.1-0.8-0.2-1.2c-0.1-0.4-0.3-0.7-0.5-0.9c-0.2-0.3-0.5-0.5-0.8-0.6c-0.3-0.1-0.7-0.2-1.1-0.2h-1.5v5.9h1.5
		c0.4,0,0.8-0.1,1.1-0.2c0.3-0.2,0.6-0.4,0.8-0.6c0.2-0.3,0.4-0.6,0.5-0.9C472.5,350.3,472.5,349.9,472.5,349.5z"/>
	<path d="M480.4,345h1.5l3.4,8.9h-1.8l-0.8-2.2h-3.1l-0.8,2.2H477L480.4,345z M482.4,350.5l-1.2-3.5l-1.3,3.5H482.4z"/>
	<path d="M488.8,353.9V345h3.2c0.7,0,1.4,0.1,1.9,0.4c0.5,0.2,1,0.6,1.4,1c0.4,0.4,0.6,0.9,0.8,1.4c0.2,0.5,0.3,1.1,0.3,1.7
		c0,0.7-0.1,1.3-0.3,1.8c-0.2,0.5-0.5,1-0.9,1.4c-0.4,0.4-0.8,0.7-1.4,0.9c-0.5,0.2-1.1,0.3-1.8,0.3H488.8z M494.6,349.5
		c0-0.4-0.1-0.8-0.2-1.2c-0.1-0.4-0.3-0.7-0.5-0.9c-0.2-0.3-0.5-0.5-0.8-0.6c-0.3-0.1-0.7-0.2-1.1-0.2h-1.5v5.9h1.5
		c0.4,0,0.8-0.1,1.1-0.2c0.3-0.2,0.6-0.4,0.8-0.6c0.2-0.3,0.4-0.6,0.5-0.9C494.6,350.3,494.6,349.9,494.6,349.5z"/>
	<path d="M506.4,352.4v1.5h-6.2V345h6.1v1.5H502v2.1h3.7v1.4H502v2.3H506.4z"/>
	<path d="M517.9,345h1.5l3.4,8.9h-1.8l-0.8-2.2h-3.1l-0.8,2.2h-1.8L517.9,345z M519.9,350.5l-1.2-3.5l-1.3,3.5H519.9z"/>
	<path d="M533.6,353.9V348l-2.3,4.4h-0.9l-2.3-4.4v5.9h-1.7V345h1.9l2.6,5.1l2.7-5.1h1.8v8.9H533.6z"/>
	<path d="M546.8,351.6c0,0.4-0.1,0.7-0.2,1c-0.2,0.3-0.4,0.5-0.6,0.7c-0.3,0.2-0.6,0.3-0.9,0.4s-0.7,0.2-1.1,0.2h-4.3V345h4.8
		c0.3,0,0.6,0.1,0.8,0.2c0.3,0.1,0.5,0.3,0.6,0.5c0.2,0.2,0.3,0.5,0.4,0.7c0.1,0.3,0.1,0.5,0.1,0.8c0,0.4-0.1,0.8-0.3,1.2
		c-0.2,0.4-0.5,0.7-1,0.8c0.5,0.2,0.9,0.4,1.2,0.8C546.7,350.6,546.8,351.1,546.8,351.6z M541.4,346.5v2.2h2.3
		c0.3,0,0.5-0.1,0.7-0.3c0.2-0.2,0.3-0.5,0.3-0.8c0-0.3-0.1-0.6-0.3-0.8c-0.2-0.2-0.4-0.3-0.7-0.3H541.4z M545.1,351.3
		c0-0.2,0-0.3-0.1-0.5c-0.1-0.1-0.1-0.3-0.2-0.4c-0.1-0.1-0.2-0.2-0.3-0.3c-0.1-0.1-0.3-0.1-0.4-0.1h-2.7v2.3h2.6
		c0.2,0,0.3,0,0.4-0.1c0.1-0.1,0.3-0.1,0.4-0.2c0.1-0.1,0.2-0.2,0.2-0.4C545.1,351.6,545.1,351.5,545.1,351.3z"/>
	<path d="M550.7,353.9V345h1.7v8.9H550.7z"/>
	<path d="M563,352.4v1.5h-6.2V345h6.1v1.5h-4.3v2.1h3.7v1.4h-3.7v2.3H563z"/>
	<path d="M568.5,348.2v5.7h-1.7V345h1.3l4.6,5.8v-5.8h1.7v8.9h-1.4L568.5,348.2z"/>
	<path d="M585.5,346.6h-2.8v7.4H581v-7.4h-2.8V345h7.4V346.6z"/>
	<path d="M590.8,345h1.5l3.4,8.9h-1.8l-0.8-2.2H590l-0.8,2.2h-1.8L590.8,345z M592.8,350.5l-1.2-3.5l-1.3,3.5H592.8z"/>
	<path d="M599.2,353.9V345h1.7v7.4h4.5v1.5H599.2z"/>
	<path d="M620.4,352.4v1.5h-6.2V345h6.1v1.5h-4.3v2.1h3.7v1.4h-3.7v2.3H620.4z"/>
	<path d="M629.7,353.9V345h6v1.5h-4.2v2.3h3.5v1.4h-3.5v3.7H629.7z"/>
	<path d="M643.2,352.5c0.4,0,0.8-0.1,1-0.3s0.5-0.4,0.7-0.7c0.2-0.3,0.3-0.6,0.4-0.9c0.1-0.3,0.1-0.7,0.1-1.1V345h1.7v4.5
		c0,0.6-0.1,1.2-0.2,1.7s-0.4,1-0.7,1.4c-0.3,0.4-0.7,0.7-1.2,1c-0.5,0.2-1.1,0.4-1.8,0.4c-0.7,0-1.3-0.1-1.8-0.4
		c-0.5-0.2-0.9-0.6-1.2-1c-0.3-0.4-0.5-0.9-0.7-1.4c-0.1-0.5-0.2-1.1-0.2-1.7V345h1.7v4.5c0,0.4,0,0.7,0.1,1.1
		c0.1,0.3,0.2,0.7,0.4,0.9c0.2,0.3,0.4,0.5,0.7,0.6C642.5,352.4,642.8,352.5,643.2,352.5z"/>
	<path d="M653.1,348.2v5.7h-1.7V345h1.3l4.6,5.8v-5.8h1.7v8.9h-1.4L653.1,348.2z"/>
	<path d="M663.4,353.9V345h3.2c0.7,0,1.4,0.1,1.9,0.4c0.5,0.2,1,0.6,1.4,1c0.4,0.4,0.6,0.9,0.8,1.4c0.2,0.5,0.3,1.1,0.3,1.7
		c0,0.7-0.1,1.3-0.3,1.8c-0.2,0.5-0.5,1-0.9,1.4c-0.4,0.4-0.8,0.7-1.4,0.9c-0.5,0.2-1.1,0.3-1.8,0.3H663.4z M669.3,349.5
		c0-0.4-0.1-0.8-0.2-1.2c-0.1-0.4-0.3-0.7-0.5-0.9c-0.2-0.3-0.5-0.5-0.8-0.6c-0.3-0.1-0.7-0.2-1.1-0.2h-1.5v5.9h1.5
		c0.4,0,0.8-0.1,1.1-0.2c0.3-0.2,0.6-0.4,0.8-0.6c0.2-0.3,0.4-0.6,0.5-0.9C669.2,350.3,669.3,349.9,669.3,349.5z"/>
	<path d="M674.9,353.9V345h1.7v8.9H674.9z"/>
	<path d="M683.5,345h1.5l3.4,8.9h-1.8l-0.8-2.2h-3.1l-0.8,2.2h-1.8L683.5,345z M685.5,350.5l-1.2-3.5l-1.3,3.5H685.5z M684.7,344.3
		l-1.1-0.3l0.7-1.5h1.6L684.7,344.3z"/>
	<path d="M691.9,353.9V345h3.9c0.4,0,0.8,0.1,1.1,0.3s0.6,0.4,0.9,0.7c0.3,0.3,0.4,0.6,0.6,1c0.1,0.4,0.2,0.7,0.2,1.1
		c0,0.6-0.1,1.1-0.4,1.6c-0.3,0.5-0.7,0.8-1.2,1l2,3.3h-1.9l-1.8-3h-1.7v3H691.9z M693.6,349.4h2.2c0.2,0,0.3,0,0.4-0.1
		c0.1-0.1,0.3-0.2,0.4-0.3c0.1-0.1,0.2-0.3,0.2-0.5c0.1-0.2,0.1-0.4,0.1-0.6c0-0.2,0-0.4-0.1-0.6c-0.1-0.2-0.2-0.3-0.3-0.5
		c-0.1-0.1-0.2-0.2-0.4-0.3c-0.1-0.1-0.3-0.1-0.4-0.1h-2.1V349.4z"/>
	<path d="M702.7,353.9V345h1.7v8.9H702.7z"/>
	<path d="M711.4,345h1.5l3.4,8.9h-1.8l-0.8-2.2h-3.1l-0.8,2.2H708L711.4,345z M713.4,350.5l-1.2-3.5l-1.3,3.5H713.4z"/>
</g>
<path d="M307.5,239.4h-5.6h-70.4c-0.6,0-1.1-0.2-1.4-0.6l-16.5-18l-7.1-7.8c-1-1.1-2.5-1.8-4-1.8h-32.2c-6.7,0-12.5,3.9-15.2,9.6
	c-1.1,2.2-1.7,4.7-1.7,7.3v75.4c0,0.4,0.1,0.7,0.2,1.1c0.1,0.4,0.3,0.3,0.6,0c1.3-0.1,2.5-0.1,3.8-0.1l2.2,0.2
	c0.1,0,0.1-0.1,0.2-0.3c0.1-0.3,0.1-0.6,0.1-0.9v-75.4c0-2.6,1-5,2.7-6.8c0.4-0.4,0.9-0.6,1.4-0.6l38.7,0c0.6,0,1.1,0.2,1.4,0.6
	l21.3,23.3c1,1.1,2.5,1.8,4,1.8h71.9h5.6c6.5,0,11.8,5.3,11.8,11.8v76.6c0,6.5-5.3,11.8-11.8,11.8h-5.6H266c-1.6,2.2-3.2,4.6-4.9,7
	h40.8h5.6c10.4,0,18.8-8.4,18.8-18.9v-76.6C326.3,247.9,317.9,239.4,307.5,239.4z"/>
<path d="M263.9,302.9c-40-4.2-78.1-5.9-116.9,2.1l-21.4,5.4v7.5c35.1-10.1,72.4-13.9,108.9-11.2c-8.5,1-16.9,2.3-25.3,4
	c-29.3,5.9-57.4,15.8-83.6,29.4v8.4c26.6-14.2,55.2-24.5,85.1-30.5c17.5-3.5,35.3-5.5,53.1-6c-40.4,10.8-78.8,35.7-111.7,72.1h10.1
	c37.4-39.4,82-64,127.4-69.6c-20.8,17.4-38.5,41.1-52.7,69.6h8.3c15.6-30.3,35.4-54.5,58.7-71.3c1.3-0.9,1.9-2.7,1.3-4.2
	c-0.4-1.3-1.5-2.2-2.9-2.4l-0.3,0"/>
</svg>
