<?xml version="1.0" encoding="utf-8"?>
<!-- Generator: Adobe Illustrator 22.0.1, SVG Export Plug-In . SVG Version: 6.00 Build 0)  -->
<svg version="1.1" id="Camada_1" xmlns="http://www.w3.org/2000/svg" xmlns:xlink="http://www.w3.org/1999/xlink" x="0px" y="0px"
	 viewBox="0 0 841.9 595.3" style="enable-background:new 0 0 841.9 595.3;" xml:space="preserve">
<style type="text/css">
	.st0{fill:#D7E8C5;}
	.st1{fill:#ECF3DA;}
	.st2{fill:#E2EDD0;}
	.st3{fill:#C2DDB0;}
	.st4{fill:#B1CCB7;}
	.st5{fill:#D6E5D8;}
	.st6{fill:#C9D7CB;}
	.st7{fill:#EDEDED;}
	.st8{fill:#196433;}
	.st9{fill:#7CBA43;}
	.st10{fill:#F1F1C5;}
	.st11{fill:#CDDC94;}
	.st12{fill:#FFFFFF;}
</style>
<g>
	<g>
		<path d="M540.1,368.3c-0.9-0.3-1.7-0.8-2.2-1.4c-0.8-1.1-1.3-3-1.3-5.8v-15.6c0-11.4-3.6-20-10.8-25.8c-7.2-5.7-17.5-8.6-30.8-8.6
			c-13,0-24.7,2.9-35,8.7c-1.5,0.8-2.1,2.6-1.4,4.1l5.9,12.2c0.8,1.7,3,2.3,4.7,1.4c3.3-1.9,6.5-3.5,9.6-4.6c4-1.5,8.4-2.2,13.2-2.2
			c5.1,0,8.8,0.9,11,2.8c2.3,1.8,3.4,4.7,3.4,8.4v2.5c-4.4-2-10.1-3.1-16.8-3.1c-5.3,0-10.1,0.7-14.5,2c-4.4,1.3-8.2,3.2-11.4,5.7
			c-3.2,2.5-5.7,5.4-7.5,8.7c-1.7,3.2-2.6,6.8-2.7,10.7c-0.1,0-0.2-0.1-0.2-0.1c-0.9-0.3-1.7-0.8-2.2-1.4c-0.8-1.1-1.3-3-1.3-5.8
			v-15.6c0-11.4-3.6-20-10.8-25.8c-7.2-5.7-17.5-8.6-30.8-8.6c-13,0-24.7,2.9-35,8.7c-1.5,0.8-2.1,2.6-1.4,4.1l5.9,12.2
			c0.8,1.7,3,2.3,4.7,1.4c3.3-1.9,6.5-3.5,9.6-4.6c4-1.5,8.4-2.2,13.2-2.2c5.1,0,8.8,0.9,11,2.8c2.3,1.8,3.4,4.7,3.4,8.4v2.5
			c-4.4-2-10.1-3.1-16.8-3.1c-5.3,0-10.1,0.7-14.5,2c-4.4,1.3-8.2,3.2-11.4,5.7c-3.2,2.5-5.7,5.4-7.5,8.7c-1.8,3.4-2.7,7.1-2.7,11.2
			c0,0.5,0,0.9,0,1.3c-0.8-0.7-2-0.9-3.1-0.6c-0.2,0.1-0.4,0.1-0.6,0.2c-1.5,0.4-2.9,0.6-4.1,0.6c-5.2,0-7.8-3.1-7.8-9.2v-74.8
			c0-1.8-1.5-3.2-3.3-3.2h-23.6c-1.8,0-3.3,1.4-3.3,3.2v60.8c-0.4-3.9-1.3-7.7-2.6-11.2c-2-5.1-4.6-9.5-8-13.2
			c-3.4-3.7-7.5-6.6-12.2-8.7c-4.8-2.1-9.9-3.1-15.4-3.1c-6.4,0-11.7,1.2-16,3.5c-1.9,1-3.7,2.3-5.4,3.7c-2.2,1.9-5.6,0.5-5.6-2.3
			v-0.3c0-1.8-1.5-3.2-3.3-3.2h-19.6c-1.8,0-3.3,1.4-3.3,3.2v107c0,1.8,1.5,3.2,3.3,3.2h23.6c1.8,0,3.3-1.4,3.3-3.2v-32.3
			c0-2.7,3.3-4.2,5.5-2.4c1.5,1.3,3.1,2.3,4.9,3.3c4.4,2.3,9.7,3.5,15.7,3.5c5.1,0,9.8-1.1,14.1-3.1c4.3-2.1,8.1-5,11.3-8.8
			c3.2-3.8,5.7-8.3,7.5-13.4c1.2-3.5,2-7.2,2.4-11.1v13.2c0,7.6,2.2,13.3,6.5,17.3c4.3,4,10.5,6,18.6,6c4,0,8.3-0.5,12.8-1.4
			c3.5-0.7,6.7-1.6,9.7-2.8c1.4-0.6,2.3-2,2-3.5l-1.3-7.4c1.5,2.9,3.4,5.5,5.8,7.6c2.6,2.3,5.7,4.1,9.3,5.4c3.6,1.3,7.5,2,11.6,2
			c5.5,0,10.7-1.2,15.6-3.6c4.9-2.4,9.2-5.9,12.9-10.5l0.6,2.9c0.8,3.7,2.7,6.5,5.5,8.4c2.8,1.9,6.9,2.8,12.3,2.8
			c1.7,0,3.6-0.1,5.8-0.4c1.3-0.2,2.7-0.4,4.2-0.6c1.6-0.3,2.7-1.6,2.7-3.1l0-11.8c0,0.1,0.1,0.2,0.1,0.3c1.5,3.2,3.5,5.9,6.1,8.2
			c2.6,2.3,5.7,4.1,9.3,5.4c3.6,1.3,7.5,2,11.6,2c5.5,0,10.7-1.2,15.6-3.6c4.9-2.4,9.2-5.9,12.9-10.5l0.6,2.9
			c0.8,3.7,2.7,6.5,5.5,8.4c2.8,1.9,6.9,2.8,12.3,2.8c1.7,0,3.6-0.1,5.8-0.4c1.3-0.2,2.7-0.4,4.2-0.6c1.6-0.3,2.7-1.6,2.7-3.1v-19.4
			C542.4,369.9,541.5,368.7,540.1,368.3z M289.6,359.4c-0.8,2.1-1.9,4-3.2,5.7c-1.3,1.6-2.9,2.9-4.8,3.8c-1.9,0.9-3.9,1.4-6.1,1.4
			c-3.2,0-6.2-1.2-9-3.5c-2.7-2.2-4.8-5-6.2-8.3c-0.2-0.4-0.3-0.8-0.3-1.3v-12.3c0-0.7,0.2-1.3,0.6-1.9c3.8-5,8.4-7.4,13.7-7.4
			c5,0,9,1.5,12,4.6c3,3.1,4.5,7.2,4.5,12.3C290.8,354.9,290.4,357.2,289.6,359.4z M419.9,365.2c0,1-0.4,2-1.1,3
			c-0.7,1-1.7,1.9-2.9,2.7c-1.5,0.9-3.2,1.7-5.1,2.2c-1.9,0.6-3.8,0.8-5.6,0.8c-2.9,0-5.2-0.7-7.1-2.1c-1.9-1.4-2.8-3.3-2.8-5.5
			c0-2.7,1.2-4.9,3.7-6.6c2.4-1.7,5.5-2.6,9.2-2.6c1.7,0,3.6,0.2,5.7,0.6c1.2,0.2,2.4,0.5,3.5,0.8c1.4,0.4,2.4,1.6,2.4,3.1V365.2z
			 M506.5,365.2c0,1-0.4,2-1.1,3c-0.7,1-1.7,1.9-2.9,2.7c-1.5,0.9-3.2,1.7-5.1,2.2c-1.9,0.6-3.8,0.8-5.6,0.8c-2.9,0-5.2-0.7-7.1-2.1
			c-1.9-1.4-2.8-3.3-2.8-5.5c0-2.7,1.2-4.9,3.7-6.6c2.4-1.7,5.5-2.6,9.2-2.6c1.7,0,3.6,0.2,5.7,0.6c1.2,0.2,2.4,0.5,3.5,0.8
			c1.4,0.4,2.4,1.6,2.4,3.1V365.2z"/>
		<path d="M610.5,359.3c-1.1-2.5-2.8-4.8-5.3-6.7c-2.5-2-5.8-3.8-9.9-5.5c-4.1-1.7-9.2-3.3-15.2-4.8c-5-1.2-8.3-2.3-10-3.3
			c-1.7-1-2.5-2.2-2.5-3.8c0-1.4,0.6-2.5,1.7-3.1c1.2-0.7,2.6-1,4.4-1c3.1,0,6.3,0.7,9.8,2.1c2.9,1.1,6.3,2.9,10.2,5.3
			c1.5,0.9,3.6,0.5,4.5-1l8.1-12.4c0.9-1.4,0.6-3.2-0.8-4.2c-4.8-3.7-9.6-6.2-14.4-7.5c-5.6-1.5-11.4-2.3-17.5-2.3
			c-5,0-9.6,0.7-13.7,2.1c-4.2,1.4-7.8,3.3-10.8,5.9c-3,2.6-5.4,5.6-7.1,9c-1.7,3.5-2.5,7.3-2.5,11.3c0,3.1,0.5,5.7,1.6,8
			c1.1,2.2,2.8,4.3,5.3,6.1c2.5,1.8,5.7,3.6,9.7,5.1c4,1.6,8.9,3.2,14.8,4.8c4.8,1.3,8,2.5,9.6,3.5c1.6,1,2.5,2.3,2.5,3.7
			c0,2.6-2.1,3.8-6.3,3.8c-4,0-8.4-0.9-13.3-2.8c-3.9-1.5-8-3.5-12.1-6c-1.6-1-3.7-0.4-4.6,1.1l-7.3,12.3c-0.8,1.4-0.5,3.1,0.8,4.1
			c4.4,3.5,9.7,6.3,15.7,8.2c7,2.3,14.1,3.5,21.4,3.5c5.4,0,10.2-0.6,14.5-1.8c4.3-1.2,7.9-3,11-5.4c3-2.4,5.3-5.2,6.9-8.4
			c1.6-3.3,2.4-7,2.4-11.2C612.1,364.7,611.6,361.8,610.5,359.3z"/>
	</g>
	<g>
		<path d="M274.2,421.4c0-0.5,0.1-1.1,0.3-1.6c0.2-0.5,0.5-1,0.9-1.4c0.4-0.4,0.8-0.8,1.4-1c0.5-0.3,1.2-0.4,1.9-0.4
			c0.8,0,1.5,0.2,2.1,0.5c0.6,0.4,1,0.8,1.3,1.4l-1.3,0.9c-0.1-0.3-0.3-0.5-0.4-0.6c-0.2-0.2-0.3-0.3-0.5-0.4
			c-0.2-0.1-0.4-0.2-0.6-0.2c-0.2,0-0.4-0.1-0.6-0.1c-0.4,0-0.8,0.1-1.1,0.3c-0.3,0.2-0.6,0.4-0.8,0.7c-0.2,0.3-0.4,0.6-0.5,1
			c-0.1,0.4-0.2,0.7-0.2,1.1c0,0.4,0.1,0.8,0.2,1.1c0.1,0.4,0.3,0.7,0.5,1s0.5,0.5,0.8,0.7c0.3,0.2,0.7,0.3,1.1,0.3
			c0.2,0,0.4,0,0.6-0.1c0.2-0.1,0.4-0.1,0.6-0.2c0.2-0.1,0.4-0.2,0.5-0.4c0.2-0.2,0.3-0.4,0.4-0.6l1.4,0.8c-0.1,0.3-0.3,0.6-0.6,0.9
			c-0.3,0.3-0.6,0.5-0.9,0.6c-0.3,0.2-0.7,0.3-1.1,0.4c-0.4,0.1-0.7,0.1-1.1,0.1c-0.6,0-1.2-0.1-1.7-0.4c-0.5-0.3-1-0.6-1.4-1
			c-0.4-0.4-0.7-0.9-0.9-1.5C274.3,422.5,274.2,421.9,274.2,421.4z"/>
		<path d="M289.5,425.9c-0.7,0-1.2-0.1-1.8-0.4c-0.5-0.3-1-0.6-1.4-1c-0.4-0.4-0.7-0.9-0.9-1.4c-0.2-0.5-0.3-1.1-0.3-1.7
			c0-0.6,0.1-1.2,0.3-1.7c0.2-0.5,0.5-1,0.9-1.4c0.4-0.4,0.8-0.7,1.4-1c0.5-0.2,1.1-0.4,1.7-0.4c0.6,0,1.2,0.1,1.8,0.4
			c0.5,0.3,1,0.6,1.4,1c0.4,0.4,0.7,0.9,0.9,1.5c0.2,0.5,0.3,1.1,0.3,1.7c0,0.6-0.1,1.2-0.3,1.7c-0.2,0.5-0.5,1-0.9,1.4
			c-0.4,0.4-0.8,0.7-1.4,1C290.7,425.8,290.1,425.9,289.5,425.9z M286.9,421.4c0,0.4,0.1,0.8,0.2,1.1c0.1,0.4,0.3,0.7,0.5,1
			c0.2,0.3,0.5,0.5,0.8,0.7c0.3,0.2,0.7,0.3,1.1,0.3c0.4,0,0.8-0.1,1.1-0.3s0.6-0.4,0.8-0.7c0.2-0.3,0.4-0.6,0.5-1
			c0.1-0.4,0.2-0.7,0.2-1.1c0-0.4-0.1-0.8-0.2-1.1c-0.1-0.4-0.3-0.7-0.5-1c-0.2-0.3-0.5-0.5-0.8-0.7c-0.3-0.2-0.7-0.2-1.1-0.2
			c-0.4,0-0.8,0.1-1.1,0.3c-0.3,0.2-0.6,0.4-0.8,0.7c-0.2,0.3-0.4,0.6-0.5,1C287,420.7,286.9,421,286.9,421.4z"/>
		<path d="M299.4,420.2v5.7h-1.7V417h1.3l4.6,5.8V417h1.7v8.9H304L299.4,420.2z"/>
		<path d="M309.8,425.9V417h6v1.5h-4.2v2.3h3.5v1.4h-3.5v3.7H309.8z"/>
		<path d="M323,425.9c-0.7,0-1.2-0.1-1.8-0.4c-0.5-0.3-1-0.6-1.4-1c-0.4-0.4-0.7-0.9-0.9-1.4c-0.2-0.5-0.3-1.1-0.3-1.7
			c0-0.6,0.1-1.2,0.3-1.7c0.2-0.5,0.5-1,0.9-1.4c0.4-0.4,0.8-0.7,1.4-1c0.5-0.2,1.1-0.4,1.7-0.4c0.6,0,1.2,0.1,1.8,0.4
			c0.5,0.3,1,0.6,1.4,1c0.4,0.4,0.7,0.9,0.9,1.5c0.2,0.5,0.3,1.1,0.3,1.7c0,0.6-0.1,1.2-0.3,1.7c-0.2,0.5-0.5,1-0.9,1.4
			c-0.4,0.4-0.8,0.7-1.4,1C324.3,425.8,323.7,425.9,323,425.9z M320.5,421.4c0,0.4,0.1,0.8,0.2,1.1c0.1,0.4,0.3,0.7,0.5,1
			c0.2,0.3,0.5,0.5,0.8,0.7c0.3,0.2,0.7,0.3,1.1,0.3c0.4,0,0.8-0.1,1.1-0.3s0.6-0.4,0.8-0.7c0.2-0.3,0.4-0.6,0.5-1
			c0.1-0.4,0.2-0.7,0.2-1.1c0-0.4-0.1-0.8-0.2-1.1c-0.1-0.4-0.3-0.7-0.5-1c-0.2-0.3-0.5-0.5-0.8-0.7c-0.3-0.2-0.7-0.2-1.1-0.2
			c-0.4,0-0.8,0.1-1.1,0.3c-0.3,0.2-0.6,0.4-0.8,0.7c-0.2,0.3-0.4,0.6-0.5,1C320.5,420.7,320.5,421,320.5,421.4z"/>
		<path d="M331.2,425.9V417h3.9c0.4,0,0.8,0.1,1.1,0.3c0.3,0.2,0.6,0.4,0.9,0.7c0.3,0.3,0.4,0.6,0.6,1c0.1,0.4,0.2,0.7,0.2,1.1
			c0,0.6-0.1,1.1-0.4,1.6c-0.3,0.5-0.7,0.8-1.2,1l2,3.3h-1.9l-1.8-3H333v3H331.2z M333,421.4h2.2c0.2,0,0.3,0,0.4-0.1
			c0.1-0.1,0.3-0.2,0.4-0.3s0.2-0.3,0.2-0.5c0.1-0.2,0.1-0.4,0.1-0.6c0-0.2,0-0.4-0.1-0.6c-0.1-0.2-0.2-0.3-0.3-0.5
			c-0.1-0.1-0.2-0.2-0.4-0.3c-0.1-0.1-0.3-0.1-0.4-0.1H333V421.4z"/>
		<path d="M349.3,425.9V420l-2.3,4.4h-0.9l-2.3-4.4v5.9h-1.7V417h1.9l2.6,5.1l2.7-5.1h1.8v8.9H349.3z"/>
		<path d="M355.4,425.9V417h1.7v8.9H355.4z"/>
		<path d="M361.5,425.9V417h3.2c0.7,0,1.4,0.1,1.9,0.4c0.5,0.2,1,0.6,1.4,1c0.4,0.4,0.6,0.9,0.8,1.4c0.2,0.5,0.3,1.1,0.3,1.7
			c0,0.7-0.1,1.3-0.3,1.8c-0.2,0.5-0.5,1-0.9,1.4c-0.4,0.4-0.8,0.7-1.4,0.9c-0.5,0.2-1.1,0.3-1.8,0.3H361.5z M367.4,421.4
			c0-0.4-0.1-0.8-0.2-1.2c-0.1-0.4-0.3-0.7-0.5-0.9c-0.2-0.3-0.5-0.5-0.8-0.6c-0.3-0.1-0.7-0.2-1.1-0.2h-1.5v5.9h1.5
			c0.4,0,0.8-0.1,1.1-0.2c0.3-0.2,0.6-0.4,0.8-0.6c0.2-0.3,0.4-0.6,0.5-0.9C367.3,422.2,367.4,421.8,367.4,421.4z"/>
		<path d="M375.2,417h1.5l3.4,8.9h-1.8l-0.8-2.2h-3.1l-0.8,2.2h-1.8L375.2,417z M377.2,422.4l-1.2-3.5l-1.3,3.5H377.2z"/>
		<path d="M383.6,425.9V417h3.2c0.7,0,1.4,0.1,1.9,0.4c0.5,0.2,1,0.6,1.4,1c0.4,0.4,0.6,0.9,0.8,1.4c0.2,0.5,0.3,1.1,0.3,1.7
			c0,0.7-0.1,1.3-0.3,1.8c-0.2,0.5-0.5,1-0.9,1.4c-0.4,0.4-0.8,0.7-1.4,0.9c-0.5,0.2-1.1,0.3-1.8,0.3H383.6z M389.5,421.4
			c0-0.4-0.1-0.8-0.2-1.2c-0.1-0.4-0.3-0.7-0.5-0.9c-0.2-0.3-0.5-0.5-0.8-0.6c-0.3-0.1-0.7-0.2-1.1-0.2h-1.5v5.9h1.5
			c0.4,0,0.8-0.1,1.1-0.2c0.3-0.2,0.6-0.4,0.8-0.6c0.2-0.3,0.4-0.6,0.5-0.9C389.4,422.2,389.5,421.8,389.5,421.4z"/>
		<path d="M401.2,424.3v1.5h-6.2V417h6.1v1.5h-4.3v2.1h3.7v1.4h-3.7v2.3H401.2z"/>
		<path d="M412.8,417h1.5l3.4,8.9h-1.8l-0.8-2.2H412l-0.8,2.2h-1.8L412.8,417z M414.7,422.4l-1.2-3.5l-1.3,3.5H414.7z"/>
		<path d="M428.4,425.9V420l-2.3,4.4h-0.9l-2.3-4.4v5.9h-1.7V417h1.9l2.6,5.1l2.7-5.1h1.8v8.9H428.4z"/>
		<path d="M441.7,423.6c0,0.4-0.1,0.7-0.2,1c-0.2,0.3-0.4,0.5-0.6,0.7c-0.3,0.2-0.6,0.3-0.9,0.4c-0.3,0.1-0.7,0.2-1.1,0.2h-4.3V417
			h4.8c0.3,0,0.6,0.1,0.8,0.2c0.3,0.1,0.5,0.3,0.6,0.5c0.2,0.2,0.3,0.5,0.4,0.7c0.1,0.3,0.1,0.5,0.1,0.8c0,0.4-0.1,0.8-0.3,1.2
			c-0.2,0.4-0.5,0.7-1,0.8c0.5,0.2,0.9,0.4,1.2,0.8S441.7,423,441.7,423.6z M436.2,418.4v2.2h2.3c0.3,0,0.5-0.1,0.7-0.3
			c0.2-0.2,0.3-0.5,0.3-0.8c0-0.3-0.1-0.6-0.3-0.8c-0.2-0.2-0.4-0.3-0.7-0.3H436.2z M439.9,423.2c0-0.2,0-0.3-0.1-0.5
			s-0.1-0.3-0.2-0.4c-0.1-0.1-0.2-0.2-0.3-0.3c-0.1-0.1-0.3-0.1-0.4-0.1h-2.7v2.3h2.6c0.2,0,0.3,0,0.4-0.1c0.1-0.1,0.3-0.1,0.4-0.2
			c0.1-0.1,0.2-0.2,0.2-0.4C439.9,423.6,439.9,423.4,439.9,423.2z"/>
		<path d="M445.5,425.9V417h1.7v8.9H445.5z"/>
		<path d="M457.8,424.3v1.5h-6.2V417h6.1v1.5h-4.3v2.1h3.7v1.4h-3.7v2.3H457.8z"/>
		<path d="M463.4,420.2v5.7h-1.7V417h1.3l4.6,5.8V417h1.7v8.9h-1.4L463.4,420.2z"/>
		<path d="M480.4,418.5h-2.8v7.4h-1.7v-7.4H473V417h7.4V418.5z"/>
		<path d="M485.6,417h1.5l3.4,8.9h-1.8l-0.8-2.2h-3.1l-0.8,2.2h-1.8L485.6,417z M487.6,422.4l-1.2-3.5l-1.3,3.5H487.6z"/>
		<path d="M494,425.9V417h1.7v7.4h4.5v1.5H494z"/>
		<path d="M515.2,424.3v1.5H509V417h6.1v1.5h-4.3v2.1h3.7v1.4h-3.7v2.3H515.2z"/>
		<path d="M524.6,425.9V417h6v1.5h-4.2v2.3h3.5v1.4h-3.5v3.7H524.6z"/>
		<path d="M538,424.4c0.4,0,0.8-0.1,1-0.3c0.3-0.2,0.5-0.4,0.7-0.7c0.2-0.3,0.3-0.6,0.4-0.9c0.1-0.3,0.1-0.7,0.1-1.1V417h1.7v4.5
			c0,0.6-0.1,1.2-0.2,1.7c-0.1,0.5-0.4,1-0.7,1.4c-0.3,0.4-0.7,0.7-1.2,1c-0.5,0.2-1.1,0.4-1.8,0.4c-0.7,0-1.3-0.1-1.8-0.4
			c-0.5-0.2-0.9-0.6-1.2-1c-0.3-0.4-0.5-0.9-0.7-1.4c-0.1-0.5-0.2-1.1-0.2-1.7V417h1.7v4.5c0,0.4,0,0.7,0.1,1.1
			c0.1,0.3,0.2,0.7,0.4,0.9c0.2,0.3,0.4,0.5,0.7,0.6C537.3,424.3,537.6,424.4,538,424.4z"/>
		<path d="M547.9,420.2v5.7h-1.7V417h1.3l4.6,5.8V417h1.7v8.9h-1.4L547.9,420.2z"/>
		<path d="M558.2,425.9V417h3.2c0.7,0,1.4,0.1,1.9,0.4c0.5,0.2,1,0.6,1.4,1c0.4,0.4,0.6,0.9,0.8,1.4c0.2,0.5,0.3,1.1,0.3,1.7
			c0,0.7-0.1,1.3-0.3,1.8c-0.2,0.5-0.5,1-0.9,1.4c-0.4,0.4-0.8,0.7-1.4,0.9c-0.5,0.2-1.1,0.3-1.8,0.3H558.2z M564.1,421.4
			c0-0.4-0.1-0.8-0.2-1.2c-0.1-0.4-0.3-0.7-0.5-0.9c-0.2-0.3-0.5-0.5-0.8-0.6c-0.3-0.1-0.7-0.2-1.1-0.2H560v5.9h1.5
			c0.4,0,0.8-0.1,1.1-0.2c0.3-0.2,0.6-0.4,0.8-0.6c0.2-0.3,0.4-0.6,0.5-0.9C564.1,422.2,564.1,421.8,564.1,421.4z"/>
		<path d="M569.7,425.9V417h1.7v8.9H569.7z"/>
		<path d="M578.3,417h1.5l3.4,8.9h-1.8l-0.8-2.2h-3.1l-0.8,2.2h-1.8L578.3,417z M580.3,422.4l-1.2-3.5l-1.3,3.5H580.3z M579.5,416.2
			l-1.1-0.3l0.7-1.5h1.6L579.5,416.2z"/>
		<path d="M586.7,425.9V417h3.9c0.4,0,0.8,0.1,1.1,0.3c0.3,0.2,0.6,0.4,0.9,0.7c0.3,0.3,0.4,0.6,0.6,1c0.1,0.4,0.2,0.7,0.2,1.1
			c0,0.6-0.1,1.1-0.4,1.6c-0.3,0.5-0.7,0.8-1.2,1l2,3.3H592l-1.8-3h-1.7v3H586.7z M588.5,421.4h2.2c0.2,0,0.3,0,0.4-0.1
			c0.1-0.1,0.3-0.2,0.4-0.3s0.2-0.3,0.2-0.5c0.1-0.2,0.1-0.4,0.1-0.6c0-0.2,0-0.4-0.1-0.6c-0.1-0.2-0.2-0.3-0.3-0.5
			c-0.1-0.1-0.2-0.2-0.4-0.3c-0.1-0.1-0.3-0.1-0.4-0.1h-2.1V421.4z"/>
		<path d="M597.6,425.9V417h1.7v8.9H597.6z"/>
		<path d="M606.2,417h1.5l3.4,8.9h-1.8l-0.8-2.2h-3.1l-0.8,2.2h-1.8L606.2,417z M608.2,422.4l-1.2-3.5l-1.3,3.5H608.2z"/>
	</g>
</g>
<path d="M554.5,151.9h-5.6h-70.4c-0.6,0-1.1-0.2-1.4-0.6l-16.5-18l-7.1-7.8c-1-1.1-2.5-1.8-4-1.8h-32.2c-6.7,0-12.5,3.9-15.2,9.6
	c-1.1,2.2-1.7,4.7-1.7,7.3v75.4c0,0.4,0.1,0.7,0.2,1.1c0.1,0.4,0.3,0.3,0.6,0c1.3-0.1,2.5-0.1,3.8-0.1l2.2,0.2
	c0.1,0,0.1-0.1,0.2-0.3c0.1-0.3,0.1-0.6,0.1-0.9v-75.4c0-2.6,1-5,2.7-6.8c0.4-0.4,0.9-0.6,1.4-0.6h38.7c0.6,0,1.1,0.2,1.4,0.6
	l21.3,23.3c1,1.1,2.5,1.8,4,1.8h71.9h5.6c6.5,0,11.8,5.3,11.8,11.8v76.6c0,6.5-5.3,11.8-11.8,11.8h-5.6H513c-1.6,2.2-3.2,4.6-4.9,7
	h40.8h5.6c10.4,0,18.8-8.4,18.8-18.9v-76.6C573.3,160.3,564.9,151.9,554.5,151.9z"/>
<path d="M510.9,215.3c-40-4.2-78.1-5.9-116.9,2.1l-21.4,5.4v7.5c35.1-10.1,72.4-13.9,108.9-11.2c-8.5,1-16.9,2.3-25.3,4
	c-29.3,5.9-57.4,15.8-83.6,29.4v8.4c26.6-14.2,55.2-24.5,85.1-30.5c17.5-3.5,35.3-5.5,53.1-6c-40.4,10.8-78.8,35.7-111.7,72.1h10.1
	c37.4-39.4,82-64,127.4-69.6c-20.8,17.4-38.5,41.1-52.7,69.6h8.3c15.6-30.3,35.4-54.5,58.7-71.3c1.3-0.9,1.9-2.7,1.3-4.2
	c-0.4-1.3-1.5-2.2-2.9-2.4l-0.3,0"/>
<g>
	<g>
		<path d="M250.8,459h2.2l-3.8,9h-1.9l-1.5-4l-1.5,4h-1.9l-3.7-9h2.2l2.7,6.8l1.1-2.9L243,459h1.9l0.9,2.8l1-2.8h1.9l-1.6,3.9
			l1.1,2.9L250.8,459z"/>
		<path d="M279,459h2.2l-3.8,9h-1.9l-1.5-4l-1.5,4h-1.9l-3.7-9h2.2l2.7,6.8l1.1-2.9l-1.6-3.9h1.9l0.9,2.8l1-2.8h1.9l-1.6,3.9
			l1.1,2.9L279,459z"/>
		<path d="M307.2,459h2.2l-3.8,9h-1.9l-1.5-4l-1.5,4h-1.9l-3.7-9h2.2l2.7,6.8l1.1-2.9l-1.6-3.9h1.9l0.9,2.8l1-2.8h1.9l-1.6,3.9
			l1.1,2.9L307.2,459z"/>
		<path d="M323.3,468v-2.5h1.9v2.5H323.3z"/>
		<path d="M346.4,468.1c-0.7,0-1.3-0.2-1.9-0.5c-0.5-0.3-0.9-0.7-1.2-1.3v5.2H341V459h2v1.5c0.3-0.5,0.8-0.9,1.3-1.2
			c0.5-0.3,1.1-0.5,1.8-0.5c0.6,0,1.2,0.1,1.7,0.4c0.5,0.2,1,0.6,1.3,1c0.4,0.4,0.7,0.9,0.9,1.5s0.3,1.2,0.3,1.8
			c0,0.7-0.1,1.3-0.3,1.8c-0.2,0.6-0.5,1.1-0.8,1.5s-0.8,0.8-1.2,1C347.5,468,347,468.1,346.4,468.1z M345.6,466.2
			c0.3,0,0.7-0.1,1-0.2c0.3-0.1,0.5-0.3,0.7-0.6c0.2-0.3,0.4-0.5,0.5-0.9s0.2-0.7,0.2-1c0-0.4-0.1-0.7-0.2-1.1
			c-0.1-0.3-0.3-0.6-0.5-0.9s-0.5-0.4-0.8-0.6s-0.6-0.2-1-0.2c-0.2,0-0.4,0-0.7,0.1c-0.2,0.1-0.4,0.2-0.6,0.3
			c-0.2,0.1-0.4,0.3-0.5,0.5c-0.2,0.2-0.3,0.4-0.4,0.6v2.1c0.2,0.5,0.5,0.9,0.9,1.3C344.7,466,345.1,466.2,345.6,466.2z"/>
		<path d="M365.6,455.4h2.3v9.7c0,0.3,0.1,0.6,0.2,0.8c0.2,0.2,0.4,0.3,0.7,0.3c0.1,0,0.3,0,0.5-0.1c0.2,0,0.3-0.1,0.5-0.2l0.3,1.8
			c-0.3,0.1-0.7,0.3-1.1,0.3s-0.8,0.1-1.1,0.1c-0.7,0-1.3-0.2-1.7-0.6s-0.6-0.9-0.6-1.6V455.4z"/>
		<path d="M387.3,468.1c-0.4,0-0.8-0.1-1.2-0.2c-0.4-0.1-0.7-0.3-1-0.6c-0.3-0.3-0.5-0.6-0.6-0.9c-0.2-0.3-0.2-0.7-0.2-1.1
			c0-0.4,0.1-0.8,0.3-1.2c0.2-0.4,0.5-0.7,0.8-0.9c0.3-0.3,0.7-0.4,1.2-0.6c0.5-0.1,1-0.2,1.5-0.2c0.4,0,0.8,0,1.2,0.1
			c0.4,0.1,0.7,0.2,1,0.3v-0.5c0-0.6-0.2-1.1-0.5-1.4s-0.8-0.5-1.5-0.5c-0.5,0-1,0.1-1.4,0.3s-0.9,0.4-1.4,0.8l-0.7-1.5
			c1.2-0.8,2.4-1.2,3.7-1.2c1.3,0,2.3,0.3,3,1c0.7,0.6,1.1,1.6,1.1,2.8v2.8c0,0.2,0,0.4,0.1,0.5c0.1,0.1,0.2,0.2,0.4,0.2v2
			c-0.4,0.1-0.7,0.1-1,0.1c-0.4,0-0.8-0.1-1-0.3c-0.2-0.2-0.4-0.5-0.4-0.8l-0.1-0.5c-0.4,0.5-0.9,0.9-1.5,1.2
			C388.6,468,388,468.1,387.3,468.1z M388,466.5c0.4,0,0.8-0.1,1.1-0.2c0.3-0.1,0.6-0.3,0.8-0.6c0.3-0.2,0.4-0.4,0.4-0.7v-1
			c-0.3-0.1-0.6-0.2-0.9-0.2c-0.3-0.1-0.6-0.1-0.9-0.1c-0.6,0-1.1,0.1-1.5,0.4c-0.4,0.3-0.6,0.6-0.6,1c0,0.4,0.1,0.7,0.4,1
			C387.2,466.3,387.5,466.5,388,466.5z"/>
		<path d="M410.9,468.1c-0.4,0-0.8-0.1-1.2-0.2c-0.4-0.1-0.7-0.3-1-0.6c-0.3-0.3-0.5-0.6-0.6-0.9c-0.2-0.3-0.2-0.7-0.2-1.1
			c0-0.4,0.1-0.8,0.3-1.2c0.2-0.4,0.5-0.7,0.8-0.9c0.3-0.3,0.7-0.4,1.2-0.6c0.5-0.1,1-0.2,1.5-0.2c0.4,0,0.8,0,1.2,0.1
			c0.4,0.1,0.7,0.2,1,0.3v-0.5c0-0.6-0.2-1.1-0.5-1.4s-0.8-0.5-1.5-0.5c-0.5,0-1,0.1-1.4,0.3s-0.9,0.4-1.4,0.8l-0.7-1.5
			c1.2-0.8,2.4-1.2,3.7-1.2c1.3,0,2.3,0.3,3,1c0.7,0.6,1.1,1.6,1.1,2.8v2.8c0,0.2,0,0.4,0.1,0.5c0.1,0.1,0.2,0.2,0.4,0.2v2
			c-0.4,0.1-0.7,0.1-1,0.1c-0.4,0-0.8-0.1-1-0.3c-0.2-0.2-0.4-0.5-0.4-0.8l-0.1-0.5c-0.4,0.5-0.9,0.9-1.5,1.2
			C412.2,468,411.6,468.1,410.9,468.1z M411.6,466.5c0.4,0,0.8-0.1,1.1-0.2c0.3-0.1,0.6-0.3,0.8-0.6c0.3-0.2,0.4-0.4,0.4-0.7v-1
			c-0.3-0.1-0.6-0.2-0.9-0.2c-0.3-0.1-0.6-0.1-0.9-0.1c-0.6,0-1.1,0.1-1.5,0.4c-0.4,0.3-0.6,0.6-0.6,1c0,0.4,0.1,0.7,0.4,1
			C410.8,466.3,411.2,466.5,411.6,466.5z"/>
		<path d="M435.5,468.1c-0.8,0-1.5-0.1-2.2-0.4c-0.7-0.2-1.3-0.6-1.9-1l0.9-1.4c0.6,0.4,1.1,0.7,1.6,0.9c0.5,0.2,1,0.3,1.6,0.3
			c0.5,0,0.8-0.1,1.1-0.3c0.3-0.2,0.4-0.4,0.4-0.7c0-0.3-0.2-0.6-0.5-0.7s-0.8-0.3-1.5-0.5c-0.6-0.2-1.1-0.3-1.5-0.5
			c-0.4-0.1-0.7-0.3-1-0.5c-0.3-0.2-0.4-0.4-0.5-0.7c-0.1-0.2-0.2-0.5-0.2-0.9c0-0.5,0.1-0.9,0.3-1.2c0.2-0.4,0.4-0.7,0.7-0.9
			c0.3-0.3,0.7-0.5,1.1-0.6c0.4-0.1,0.9-0.2,1.4-0.2c0.7,0,1.3,0.1,1.9,0.3c0.6,0.2,1.1,0.5,1.6,0.9l-0.9,1.4
			c-0.5-0.3-0.9-0.6-1.3-0.8c-0.4-0.2-0.9-0.2-1.3-0.2c-0.4,0-0.7,0.1-1,0.2s-0.4,0.4-0.4,0.8c0,0.2,0,0.3,0.1,0.4
			c0.1,0.1,0.2,0.2,0.3,0.3c0.1,0.1,0.3,0.2,0.5,0.2s0.5,0.2,0.8,0.2c0.6,0.2,1.1,0.3,1.6,0.5s0.8,0.3,1.1,0.6
			c0.3,0.2,0.5,0.4,0.6,0.7c0.1,0.3,0.2,0.6,0.2,1c0,0.9-0.3,1.6-1,2.1S436.6,468.1,435.5,468.1z"/>
		<path d="M454.4,468v-2.5h1.9v2.5H454.4z"/>
		<path d="M471.5,463.5c0-0.6,0.1-1.2,0.3-1.8c0.2-0.6,0.5-1.1,0.9-1.5c0.4-0.4,0.9-0.8,1.5-1c0.6-0.3,1.2-0.4,2-0.4
			c1,0,1.8,0.2,2.5,0.6c0.7,0.4,1.2,1,1.6,1.7l-2.3,0.7c-0.2-0.3-0.5-0.6-0.8-0.8c-0.3-0.2-0.7-0.3-1.1-0.3c-0.3,0-0.6,0.1-0.9,0.2
			c-0.3,0.1-0.5,0.3-0.7,0.6c-0.2,0.2-0.4,0.5-0.5,0.9c-0.1,0.3-0.2,0.7-0.2,1.1s0.1,0.8,0.2,1.1s0.3,0.6,0.5,0.9
			c0.2,0.2,0.5,0.4,0.7,0.6c0.3,0.1,0.6,0.2,0.9,0.2c0.4,0,0.8-0.1,1.1-0.3s0.6-0.5,0.7-0.8l2.3,0.7c-0.3,0.7-0.8,1.2-1.5,1.7
			s-1.6,0.7-2.6,0.7c-0.7,0-1.4-0.1-2-0.4c-0.6-0.3-1.1-0.6-1.5-1c-0.4-0.4-0.7-0.9-1-1.5C471.6,464.7,471.5,464.1,471.5,463.5z"/>
		<path d="M499.6,468.1c-0.7,0-1.4-0.1-2-0.4c-0.6-0.3-1.1-0.6-1.5-1c-0.4-0.4-0.7-0.9-0.9-1.5c-0.2-0.6-0.3-1.2-0.3-1.8
			c0-0.6,0.1-1.2,0.3-1.8c0.2-0.6,0.5-1.1,0.9-1.5c0.4-0.4,0.9-0.8,1.5-1c0.6-0.3,1.2-0.4,2-0.4s1.4,0.1,2,0.4
			c0.6,0.3,1.1,0.6,1.5,1c0.4,0.4,0.7,0.9,0.9,1.5c0.2,0.6,0.3,1.2,0.3,1.8c0,0.6-0.1,1.2-0.3,1.8c-0.2,0.6-0.5,1.1-0.9,1.5
			c-0.4,0.4-0.9,0.8-1.5,1C501,468,500.3,468.1,499.6,468.1z M497.2,463.5c0,0.4,0.1,0.8,0.2,1.1c0.1,0.3,0.3,0.6,0.5,0.9
			s0.5,0.4,0.7,0.6c0.3,0.1,0.6,0.2,0.9,0.2c0.3,0,0.6-0.1,0.9-0.2c0.3-0.1,0.5-0.3,0.7-0.6s0.4-0.5,0.5-0.9s0.2-0.7,0.2-1.1
			c0-0.4-0.1-0.8-0.2-1.1s-0.3-0.6-0.5-0.9s-0.5-0.4-0.7-0.6c-0.3-0.1-0.6-0.2-0.9-0.2c-0.3,0-0.6,0.1-0.9,0.2
			c-0.3,0.1-0.5,0.3-0.7,0.6s-0.4,0.5-0.5,0.9C497.3,462.7,497.2,463.1,497.2,463.5z"/>
		<path d="M533.6,468h-2.3v-5.1c0-0.7-0.1-1.2-0.4-1.6c-0.2-0.3-0.6-0.5-1-0.5c-0.5,0-0.9,0.2-1.3,0.5c-0.4,0.4-0.7,0.8-0.9,1.4v5.2
			h-2.3v-5.1c0-0.7-0.1-1.2-0.4-1.6c-0.2-0.3-0.6-0.5-1-0.5c-0.4,0-0.9,0.2-1.3,0.5c-0.4,0.3-0.7,0.8-0.9,1.4v5.3h-2.3v-9h2.1v1.7
			c0.3-0.6,0.8-1,1.4-1.4c0.6-0.3,1.2-0.5,2-0.5c0.8,0,1.3,0.2,1.8,0.6c0.4,0.4,0.7,0.8,0.8,1.4c0.4-0.6,0.8-1.1,1.4-1.4
			s1.2-0.5,1.9-0.5c0.5,0,1,0.1,1.4,0.3s0.6,0.5,0.8,0.8c0.2,0.3,0.3,0.7,0.4,1.1c0.1,0.4,0.1,0.9,0.1,1.3V468z"/>
		<path d="M549.3,468v-2.5h1.9v2.5H549.3z"/>
		<path d="M572.1,468.1c-0.7,0-1.3-0.2-1.8-0.5s-1-0.7-1.3-1.3v1.6h-2v-12.6h2.3v5.1c0.3-0.6,0.7-1,1.3-1.3c0.5-0.3,1.1-0.5,1.8-0.5
			c0.6,0,1.1,0.1,1.6,0.4c0.5,0.3,0.9,0.6,1.2,1c0.3,0.4,0.6,0.9,0.8,1.5c0.2,0.6,0.3,1.2,0.3,1.8c0,0.7-0.1,1.3-0.3,1.8
			c-0.2,0.6-0.5,1.1-0.9,1.5c-0.4,0.4-0.8,0.7-1.3,1C573.3,468,572.7,468.1,572.1,468.1z M571.5,466.2c0.4,0,0.7-0.1,1-0.2
			s0.6-0.3,0.8-0.6s0.4-0.5,0.5-0.8c0.1-0.3,0.2-0.7,0.2-1c0-0.4-0.1-0.7-0.2-1s-0.3-0.6-0.5-0.9c-0.2-0.3-0.5-0.5-0.7-0.6
			s-0.6-0.2-0.9-0.2c-0.5,0-1,0.2-1.4,0.5c-0.4,0.3-0.7,0.8-0.9,1.2v2.1c0.1,0.2,0.2,0.4,0.4,0.6c0.2,0.2,0.3,0.3,0.5,0.5
			s0.4,0.2,0.6,0.3C571,466.1,571.3,466.2,571.5,466.2z"/>
		<path d="M597,461c-0.7,0-1.3,0.1-1.9,0.4c-0.5,0.3-0.9,0.6-1.2,1.2v5.5h-2.3v-9h2.1v1.9c0.2-0.3,0.3-0.6,0.6-0.8
			c0.2-0.2,0.5-0.5,0.7-0.6c0.3-0.2,0.5-0.3,0.8-0.4s0.5-0.1,0.7-0.1c0.1,0,0.2,0,0.3,0c0.1,0,0.1,0,0.2,0V461z"/>
	</g>
</g>
</svg>
