<?xml version="1.0" encoding="utf-8"?>
<!-- Generator: Adobe Illustrator 22.0.1, SVG Export Plug-In . SVG Version: 6.00 Build 0)  -->
<svg version="1.1" id="Camada_1" xmlns="http://www.w3.org/2000/svg" xmlns:xlink="http://www.w3.org/1999/xlink" x="0px" y="0px"
	 viewBox="0 0 604.1 241" style="enable-background:new 0 0 604.1 241;" xml:space="preserve">
<style type="text/css">
	.st0{fill:#D7E8C5;}
	.st1{fill:#ECF3DA;}
	.st2{fill:#E2EDD0;}
	.st3{fill:#C2DDB0;}
	.st4{fill:#B1CCB7;}
	.st5{fill:#D6E5D8;}
	.st6{fill:#C9D7CB;}
	.st7{fill:#EDEDED;}
	.st8{fill:#196433;}
	.st9{fill:#7CBA43;}
	.st10{fill:#F1F1C5;}
	.st11{fill:#CDDC94;}
	.st12{fill:#FFFFFF;}
</style>
<g>
	<g>
		<path class="st8" d="M131.9,221.9h2.2l-3.8,9h-1.9l-1.5-4l-1.5,4h-1.9l-3.7-9h2.2l2.7,6.8l1.1-2.9l-1.6-3.9h1.9l0.9,2.8l1-2.8h1.9
			l-1.6,3.9l1.1,2.9L131.9,221.9z"/>
		<path class="st8" d="M160.1,221.9h2.2l-3.8,9h-1.9l-1.5-4l-1.5,4h-1.9l-3.7-9h2.2l2.7,6.8l1.1-2.9l-1.6-3.9h1.9l0.9,2.8l1-2.8h1.9
			l-1.6,3.9l1.1,2.9L160.1,221.9z"/>
		<path class="st8" d="M188.3,221.9h2.2l-3.8,9h-1.9l-1.5-4l-1.5,4h-1.9l-3.7-9h2.2l2.7,6.8l1.1-2.9l-1.6-3.9h1.9l0.9,2.8l1-2.8h1.9
			l-1.6,3.9l1.1,2.9L188.3,221.9z"/>
		<path class="st8" d="M204.4,230.9v-2.5h1.9v2.5H204.4z"/>
		<path class="st8" d="M227.5,231.1c-0.7,0-1.3-0.2-1.9-0.5c-0.5-0.3-0.9-0.7-1.2-1.3v5.2h-2.3v-12.7h2v1.5c0.3-0.5,0.8-0.9,1.3-1.2
			c0.5-0.3,1.1-0.5,1.8-0.5c0.6,0,1.2,0.1,1.7,0.4c0.5,0.2,1,0.6,1.3,1c0.4,0.4,0.7,0.9,0.9,1.5s0.3,1.2,0.3,1.8
			c0,0.7-0.1,1.3-0.3,1.8c-0.2,0.6-0.5,1.1-0.8,1.5s-0.8,0.8-1.2,1C228.6,231,228.1,231.1,227.5,231.1z M226.7,229.1
			c0.3,0,0.7-0.1,1-0.2c0.3-0.1,0.5-0.3,0.7-0.6c0.2-0.3,0.4-0.5,0.5-0.9s0.2-0.7,0.2-1c0-0.4-0.1-0.7-0.2-1.1
			c-0.1-0.3-0.3-0.6-0.5-0.9s-0.5-0.4-0.8-0.6s-0.6-0.2-1-0.2c-0.2,0-0.4,0-0.7,0.1c-0.2,0.1-0.4,0.2-0.6,0.3
			c-0.2,0.1-0.4,0.3-0.5,0.5c-0.2,0.2-0.3,0.4-0.4,0.6v2.1c0.2,0.5,0.5,0.9,0.9,1.3C225.8,229,226.2,229.1,226.7,229.1z"/>
		<path class="st8" d="M246.7,218.4h2.3v9.7c0,0.3,0.1,0.6,0.2,0.8c0.2,0.2,0.4,0.3,0.7,0.3c0.1,0,0.3,0,0.5-0.1
			c0.2,0,0.3-0.1,0.5-0.2l0.3,1.8c-0.3,0.1-0.7,0.3-1.1,0.3s-0.8,0.1-1.1,0.1c-0.7,0-1.3-0.2-1.7-0.6s-0.6-0.9-0.6-1.6V218.4z"/>
		<path class="st8" d="M268.4,231.1c-0.4,0-0.8-0.1-1.2-0.2c-0.4-0.1-0.7-0.3-1-0.6c-0.3-0.3-0.5-0.6-0.6-0.9
			c-0.2-0.3-0.2-0.7-0.2-1.1c0-0.4,0.1-0.8,0.3-1.2c0.2-0.4,0.5-0.7,0.8-0.9c0.3-0.3,0.7-0.4,1.2-0.6c0.5-0.1,1-0.2,1.5-0.2
			c0.4,0,0.8,0,1.2,0.1c0.4,0.1,0.7,0.2,1,0.3v-0.5c0-0.6-0.2-1.1-0.5-1.4s-0.8-0.5-1.5-0.5c-0.5,0-1,0.1-1.4,0.3s-0.9,0.4-1.4,0.8
			l-0.7-1.5c1.2-0.8,2.4-1.2,3.7-1.2c1.3,0,2.3,0.3,3,1c0.7,0.6,1.1,1.6,1.1,2.8v2.8c0,0.2,0,0.4,0.1,0.5c0.1,0.1,0.2,0.2,0.4,0.2v2
			c-0.4,0.1-0.7,0.1-1,0.1c-0.4,0-0.8-0.1-1-0.3c-0.2-0.2-0.4-0.5-0.4-0.8l-0.1-0.5c-0.4,0.5-0.9,0.9-1.5,1.2
			C269.7,230.9,269.1,231.1,268.4,231.1z M269.1,229.4c0.4,0,0.8-0.1,1.1-0.2c0.3-0.1,0.6-0.3,0.8-0.6c0.3-0.2,0.4-0.4,0.4-0.7v-1
			c-0.3-0.1-0.6-0.2-0.9-0.2c-0.3-0.1-0.6-0.1-0.9-0.1c-0.6,0-1.1,0.1-1.5,0.4c-0.4,0.3-0.6,0.6-0.6,1c0,0.4,0.1,0.7,0.4,1
			C268.3,229.3,268.6,229.4,269.1,229.4z"/>
		<path class="st8" d="M292.1,231.1c-0.4,0-0.8-0.1-1.2-0.2c-0.4-0.1-0.7-0.3-1-0.6c-0.3-0.3-0.5-0.6-0.6-0.9
			c-0.2-0.3-0.2-0.7-0.2-1.1c0-0.4,0.1-0.8,0.3-1.2c0.2-0.4,0.5-0.7,0.8-0.9c0.3-0.3,0.7-0.4,1.2-0.6c0.5-0.1,1-0.2,1.5-0.2
			c0.4,0,0.8,0,1.2,0.1c0.4,0.1,0.7,0.2,1,0.3v-0.5c0-0.6-0.2-1.1-0.5-1.4s-0.8-0.5-1.5-0.5c-0.5,0-1,0.1-1.4,0.3s-0.9,0.4-1.4,0.8
			l-0.7-1.5c1.2-0.8,2.4-1.2,3.7-1.2c1.3,0,2.3,0.3,3,1c0.7,0.6,1.1,1.6,1.1,2.8v2.8c0,0.2,0,0.4,0.1,0.5c0.1,0.1,0.2,0.2,0.4,0.2v2
			c-0.4,0.1-0.7,0.1-1,0.1c-0.4,0-0.8-0.1-1-0.3c-0.2-0.2-0.4-0.5-0.4-0.8l-0.1-0.5c-0.4,0.5-0.9,0.9-1.5,1.2
			C293.3,230.9,292.7,231.1,292.1,231.1z M292.7,229.4c0.4,0,0.8-0.1,1.1-0.2c0.3-0.1,0.6-0.3,0.8-0.6c0.3-0.2,0.4-0.4,0.4-0.7v-1
			c-0.3-0.1-0.6-0.2-0.9-0.2c-0.3-0.1-0.6-0.1-0.9-0.1c-0.6,0-1.1,0.1-1.5,0.4c-0.4,0.3-0.6,0.6-0.6,1c0,0.4,0.1,0.7,0.4,1
			C291.9,229.3,292.3,229.4,292.7,229.4z"/>
		<path class="st8" d="M316.6,231.1c-0.8,0-1.5-0.1-2.2-0.4c-0.7-0.2-1.3-0.6-1.9-1l0.9-1.4c0.6,0.4,1.1,0.7,1.6,0.9
			c0.5,0.2,1,0.3,1.6,0.3c0.5,0,0.8-0.1,1.1-0.3c0.3-0.2,0.4-0.4,0.4-0.7c0-0.3-0.2-0.6-0.5-0.7s-0.8-0.3-1.5-0.5
			c-0.6-0.2-1.1-0.3-1.5-0.5c-0.4-0.1-0.7-0.3-1-0.5c-0.3-0.2-0.4-0.4-0.5-0.7c-0.1-0.2-0.2-0.5-0.2-0.9c0-0.5,0.1-0.9,0.3-1.2
			c0.2-0.4,0.4-0.7,0.7-0.9c0.3-0.3,0.7-0.5,1.1-0.6c0.4-0.1,0.9-0.2,1.4-0.2c0.7,0,1.3,0.1,1.9,0.3c0.6,0.2,1.1,0.5,1.6,0.9
			l-0.9,1.4c-0.5-0.3-0.9-0.6-1.3-0.8c-0.4-0.2-0.9-0.2-1.3-0.2c-0.4,0-0.7,0.1-1,0.2s-0.4,0.4-0.4,0.8c0,0.2,0,0.3,0.1,0.4
			c0.1,0.1,0.2,0.2,0.3,0.3c0.1,0.1,0.3,0.2,0.5,0.2s0.5,0.2,0.8,0.2c0.6,0.2,1.1,0.3,1.6,0.5s0.8,0.3,1.1,0.6
			c0.3,0.2,0.5,0.4,0.6,0.7c0.1,0.3,0.2,0.6,0.2,1c0,0.9-0.3,1.6-1,2.1S317.8,231.1,316.6,231.1z"/>
		<path class="st8" d="M335.5,230.9v-2.5h1.9v2.5H335.5z"/>
		<path class="st8" d="M352.6,226.4c0-0.6,0.1-1.2,0.3-1.8c0.2-0.6,0.5-1.1,0.9-1.5c0.4-0.4,0.9-0.8,1.5-1c0.6-0.3,1.2-0.4,2-0.4
			c1,0,1.8,0.2,2.5,0.6c0.7,0.4,1.2,1,1.6,1.7l-2.3,0.7c-0.2-0.3-0.5-0.6-0.8-0.8c-0.3-0.2-0.7-0.3-1.1-0.3c-0.3,0-0.6,0.1-0.9,0.2
			c-0.3,0.1-0.5,0.3-0.7,0.6c-0.2,0.2-0.4,0.5-0.5,0.9c-0.1,0.3-0.2,0.7-0.2,1.1s0.1,0.8,0.2,1.1s0.3,0.6,0.5,0.9
			c0.2,0.2,0.5,0.4,0.7,0.6c0.3,0.1,0.6,0.2,0.9,0.2c0.4,0,0.8-0.1,1.1-0.3s0.6-0.5,0.7-0.8l2.3,0.7c-0.3,0.7-0.8,1.2-1.5,1.7
			s-1.6,0.7-2.6,0.7c-0.7,0-1.4-0.1-2-0.4c-0.6-0.3-1.1-0.6-1.5-1c-0.4-0.4-0.7-0.9-1-1.5C352.7,227.6,352.6,227,352.6,226.4z"/>
		<path class="st8" d="M380.7,231.1c-0.7,0-1.4-0.1-2-0.4c-0.6-0.3-1.1-0.6-1.5-1c-0.4-0.4-0.7-0.9-0.9-1.5
			c-0.2-0.6-0.3-1.2-0.3-1.8c0-0.6,0.1-1.2,0.3-1.8c0.2-0.6,0.5-1.1,0.9-1.5c0.4-0.4,0.9-0.8,1.5-1c0.6-0.3,1.2-0.4,2-0.4
			s1.4,0.1,2,0.4c0.6,0.3,1.1,0.6,1.5,1c0.4,0.4,0.7,0.9,0.9,1.5c0.2,0.6,0.3,1.2,0.3,1.8c0,0.6-0.1,1.2-0.3,1.8
			c-0.2,0.6-0.5,1.1-0.9,1.5c-0.4,0.4-0.9,0.8-1.5,1C382.1,231,381.4,231.1,380.7,231.1z M378.3,226.4c0,0.4,0.1,0.8,0.2,1.1
			c0.1,0.3,0.3,0.6,0.5,0.9s0.5,0.4,0.7,0.6c0.3,0.1,0.6,0.2,0.9,0.2c0.3,0,0.6-0.1,0.9-0.2c0.3-0.1,0.5-0.3,0.7-0.6
			s0.4-0.5,0.5-0.9s0.2-0.7,0.2-1.1c0-0.4-0.1-0.8-0.2-1.1s-0.3-0.6-0.5-0.9s-0.5-0.4-0.7-0.6c-0.3-0.1-0.6-0.2-0.9-0.2
			c-0.3,0-0.6,0.1-0.9,0.2c-0.3,0.1-0.5,0.3-0.7,0.6s-0.4,0.5-0.5,0.9C378.4,225.7,378.3,226,378.3,226.4z"/>
		<path class="st8" d="M414.7,230.9h-2.3v-5.1c0-0.7-0.1-1.2-0.4-1.6c-0.2-0.3-0.6-0.5-1-0.5c-0.5,0-0.9,0.2-1.3,0.5
			c-0.4,0.4-0.7,0.8-0.9,1.4v5.2h-2.3v-5.1c0-0.7-0.1-1.2-0.4-1.6c-0.2-0.3-0.6-0.5-1-0.5c-0.4,0-0.9,0.2-1.3,0.5
			c-0.4,0.3-0.7,0.8-0.9,1.4v5.3h-2.3v-9h2.1v1.7c0.3-0.6,0.8-1,1.4-1.4c0.6-0.3,1.2-0.5,2-0.5c0.8,0,1.3,0.2,1.8,0.6
			c0.4,0.4,0.7,0.8,0.8,1.4c0.4-0.6,0.8-1.1,1.4-1.4s1.2-0.5,1.9-0.5c0.5,0,1,0.1,1.4,0.3s0.6,0.5,0.8,0.8c0.2,0.3,0.3,0.7,0.4,1.1
			c0.1,0.4,0.1,0.9,0.1,1.3V230.9z"/>
		<path class="st8" d="M430.4,230.9v-2.5h1.9v2.5H430.4z"/>
		<path class="st8" d="M453.2,231.1c-0.7,0-1.3-0.2-1.8-0.5s-1-0.7-1.3-1.3v1.6h-2v-12.6h2.3v5.1c0.3-0.6,0.7-1,1.3-1.3
			c0.5-0.3,1.1-0.5,1.8-0.5c0.6,0,1.1,0.1,1.6,0.4c0.5,0.3,0.9,0.6,1.2,1c0.3,0.4,0.6,0.9,0.8,1.5c0.2,0.6,0.3,1.2,0.3,1.8
			c0,0.7-0.1,1.3-0.3,1.8c-0.2,0.6-0.5,1.1-0.9,1.5c-0.4,0.4-0.8,0.7-1.3,1C454.4,231,453.8,231.1,453.2,231.1z M452.6,229.1
			c0.4,0,0.7-0.1,1-0.2s0.6-0.3,0.8-0.6s0.4-0.5,0.5-0.8c0.1-0.3,0.2-0.7,0.2-1c0-0.4-0.1-0.7-0.2-1s-0.3-0.6-0.5-0.9
			c-0.2-0.3-0.5-0.5-0.7-0.6s-0.6-0.2-0.9-0.2c-0.5,0-1,0.2-1.4,0.5c-0.4,0.3-0.7,0.8-0.9,1.2v2.1c0.1,0.2,0.2,0.4,0.4,0.6
			c0.2,0.2,0.3,0.3,0.5,0.5s0.4,0.2,0.6,0.3C452.2,229.1,452.4,229.1,452.6,229.1z"/>
		<path class="st8" d="M478.1,223.9c-0.7,0-1.3,0.1-1.9,0.4c-0.5,0.3-0.9,0.6-1.2,1.2v5.5h-2.3v-9h2.1v1.9c0.2-0.3,0.3-0.6,0.6-0.8
			c0.2-0.2,0.5-0.5,0.7-0.6c0.3-0.2,0.5-0.3,0.8-0.4s0.5-0.1,0.7-0.1c0.1,0,0.2,0,0.3,0c0.1,0,0.1,0,0.2,0V223.9z"/>
	</g>
</g>
<g>
	<path class="st8" d="M526.4,92.1c-0.9-0.3-1.7-0.8-2.2-1.4c-0.8-1.1-1.3-3-1.3-5.8V69.3c0-11.4-3.6-20-10.8-25.8
		c-7.2-5.7-17.5-8.6-30.8-8.6c-13,0-24.7,2.9-35,8.7c-1.5,0.8-2.1,2.6-1.4,4.1l5.9,12.2c0.8,1.7,3,2.3,4.7,1.4
		c3.3-1.9,6.5-3.5,9.6-4.6c4-1.5,8.4-2.2,13.2-2.2c5.1,0,8.8,0.9,11,2.8c2.3,1.8,3.4,4.7,3.4,8.4v2.5c-4.4-2-10.1-3.1-16.8-3.1
		c-5.3,0-10.1,0.7-14.5,2c-4.4,1.3-8.2,3.2-11.4,5.7c-3.2,2.5-5.7,5.4-7.5,8.7c-1.7,3.2-2.6,6.8-2.7,10.7c-0.1,0-0.2-0.1-0.2-0.1
		c-0.9-0.3-1.7-0.8-2.2-1.4c-0.8-1.1-1.3-3-1.3-5.8V69.3c0-11.4-3.6-20-10.8-25.8c-7.2-5.7-17.5-8.6-30.8-8.6c-13,0-24.7,2.9-35,8.7
		c-1.5,0.8-2.1,2.6-1.4,4.1l5.9,12.2c0.8,1.7,3,2.3,4.7,1.4c3.3-1.9,6.5-3.5,9.6-4.6c4-1.5,8.4-2.2,13.2-2.2c5.1,0,8.8,0.9,11,2.8
		c2.3,1.8,3.4,4.7,3.4,8.4v2.5c-4.4-2-10.1-3.1-16.8-3.1c-5.3,0-10.1,0.7-14.5,2c-4.4,1.3-8.2,3.2-11.4,5.7
		c-3.2,2.5-5.7,5.4-7.5,8.7c-1.8,3.4-2.7,7.1-2.7,11.2c0,0.5,0,0.9,0,1.3c-0.8-0.7-2-0.9-3.1-0.6c-0.2,0.1-0.4,0.1-0.6,0.2
		c-1.5,0.4-2.9,0.6-4.1,0.6c-5.2,0-7.8-3.1-7.8-9.2V10.3c0-1.8-1.5-3.2-3.3-3.2h-23.6c-1.8,0-3.3,1.4-3.3,3.2v60.8
		c-0.4-3.9-1.3-7.7-2.6-11.2c-2-5.1-4.6-9.5-8-13.2c-3.4-3.7-7.5-6.6-12.2-8.7c-4.8-2.1-9.9-3.1-15.4-3.1c-6.4,0-11.7,1.2-16,3.5
		c-1.9,1-3.7,2.3-5.4,3.7c-2.2,1.9-5.6,0.5-5.6-2.3v-0.3c0-1.8-1.5-3.2-3.3-3.2h-19.6c-1.8,0-3.3,1.4-3.3,3.2v107
		c0,1.8,1.5,3.2,3.3,3.2h23.6c1.8,0,3.3-1.4,3.3-3.2v-32.3c0-2.7,3.3-4.2,5.5-2.4c1.5,1.3,3.1,2.3,4.9,3.3c4.4,2.3,9.7,3.5,15.7,3.5
		c5.1,0,9.8-1.1,14.1-3.1c4.3-2.1,8.1-5,11.3-8.8c3.2-3.8,5.7-8.3,7.5-13.4c1.2-3.5,2-7.2,2.4-11.1v13.2c0,7.6,2.2,13.3,6.5,17.3
		c4.3,4,10.5,6,18.6,6c4,0,8.3-0.5,12.8-1.4c3.5-0.7,6.7-1.6,9.7-2.8c1.4-0.6,2.3-2,2-3.5l-1.3-7.4c1.5,2.9,3.4,5.5,5.8,7.6
		c2.6,2.3,5.7,4.1,9.3,5.4c3.6,1.3,7.5,2,11.6,2c5.5,0,10.7-1.2,15.6-3.6c4.9-2.4,9.2-5.9,12.9-10.5l0.6,2.9
		c0.8,3.7,2.7,6.5,5.5,8.4c2.8,1.9,6.9,2.8,12.3,2.8c1.7,0,3.6-0.1,5.8-0.4c1.3-0.2,2.7-0.4,4.2-0.6c1.6-0.3,2.7-1.6,2.7-3.1l0-11.8
		c0,0.1,0.1,0.2,0.1,0.3c1.5,3.2,3.5,5.9,6.1,8.2c2.6,2.3,5.7,4.1,9.3,5.4c3.6,1.3,7.5,2,11.6,2c5.5,0,10.7-1.2,15.6-3.6
		c4.9-2.4,9.2-5.9,12.9-10.5l0.6,2.9c0.8,3.7,2.7,6.5,5.5,8.4c2.8,1.9,6.9,2.8,12.3,2.8c1.7,0,3.6-0.1,5.8-0.4
		c1.3-0.2,2.7-0.4,4.2-0.6c1.6-0.3,2.7-1.6,2.7-3.1V95.2C528.7,93.8,527.7,92.6,526.4,92.1z M275.8,83.3c-0.8,2.1-1.9,4-3.2,5.7
		c-1.3,1.6-2.9,2.9-4.8,3.8c-1.9,0.9-3.9,1.4-6.1,1.4c-3.2,0-6.2-1.2-9-3.5c-2.7-2.2-4.8-5-6.2-8.3c-0.2-0.4-0.3-0.8-0.3-1.3V68.8
		c0-0.7,0.2-1.3,0.6-1.9c3.8-5,8.4-7.4,13.7-7.4c5,0,9,1.5,12,4.6c3,3.1,4.5,7.2,4.5,12.3C277,78.8,276.6,81.1,275.8,83.3z
		 M406.1,89.1c0,1-0.4,2-1.1,3c-0.7,1-1.7,1.9-2.9,2.7c-1.5,0.9-3.2,1.7-5.1,2.2c-1.9,0.6-3.8,0.8-5.6,0.8c-2.9,0-5.2-0.7-7.1-2.1
		c-1.9-1.4-2.8-3.3-2.8-5.5c0-2.7,1.2-4.9,3.7-6.6c2.4-1.7,5.5-2.6,9.2-2.6c1.7,0,3.6,0.2,5.7,0.6c1.2,0.2,2.4,0.5,3.5,0.8
		c1.4,0.4,2.4,1.6,2.4,3.1V89.1z M492.8,89.1c0,1-0.4,2-1.1,3c-0.7,1-1.7,1.9-2.9,2.7c-1.5,0.9-3.2,1.7-5.1,2.2
		c-1.9,0.6-3.8,0.8-5.6,0.8c-2.9,0-5.2-0.7-7.1-2.1c-1.9-1.4-2.8-3.3-2.8-5.5c0-2.7,1.2-4.9,3.7-6.6c2.4-1.7,5.5-2.6,9.2-2.6
		c1.7,0,3.6,0.2,5.7,0.6c1.2,0.2,2.4,0.5,3.5,0.8c1.4,0.4,2.4,1.6,2.4,3.1V89.1z"/>
	<path class="st8" d="M596.8,83.2c-1.1-2.5-2.8-4.8-5.3-6.7c-2.5-2-5.8-3.8-9.9-5.5c-4.1-1.7-9.2-3.3-15.2-4.8
		c-5-1.2-8.3-2.3-10-3.3c-1.7-1-2.5-2.2-2.5-3.8c0-1.4,0.6-2.5,1.7-3.1c1.2-0.7,2.6-1,4.4-1c3.1,0,6.4,0.7,9.8,2.1
		c2.9,1.1,6.3,2.9,10.2,5.3c1.5,0.9,3.6,0.5,4.5-1l8.1-12.4c0.9-1.4,0.6-3.2-0.8-4.2c-4.8-3.7-9.6-6.2-14.4-7.5
		c-5.6-1.5-11.4-2.3-17.5-2.3c-5,0-9.6,0.7-13.7,2.1c-4.2,1.4-7.8,3.3-10.8,5.9c-3,2.6-5.4,5.6-7.1,9c-1.7,3.5-2.5,7.3-2.5,11.3
		c0,3.1,0.5,5.7,1.6,8c1.1,2.2,2.8,4.3,5.3,6.1c2.5,1.8,5.7,3.6,9.7,5.1c4,1.6,8.9,3.2,14.8,4.8c4.8,1.3,8,2.5,9.6,3.5
		c1.6,1,2.5,2.3,2.5,3.7c0,2.6-2.1,3.8-6.3,3.8c-4,0-8.4-0.9-13.3-2.8c-3.9-1.5-8-3.5-12.1-6c-1.6-1-3.7-0.4-4.6,1.1l-7.3,12.3
		c-0.8,1.4-0.5,3.1,0.8,4.1c4.4,3.5,9.7,6.3,15.7,8.2c7,2.3,14.1,3.5,21.4,3.5c5.4,0,10.2-0.6,14.5-1.8c4.3-1.2,7.9-3,11-5.4
		c3-2.4,5.3-5.2,6.9-8.4c1.6-3.3,2.4-7,2.4-11.2C598.4,88.6,597.9,85.7,596.8,83.2z"/>
</g>
<g>
	<path class="st9" d="M260.4,145.2c0-0.5,0.1-1.1,0.3-1.6c0.2-0.5,0.5-1,0.9-1.4c0.4-0.4,0.8-0.8,1.4-1c0.5-0.3,1.2-0.4,1.9-0.4
		c0.8,0,1.5,0.2,2.1,0.5c0.6,0.4,1,0.8,1.3,1.4l-1.3,0.9c-0.1-0.3-0.3-0.5-0.4-0.6c-0.2-0.2-0.3-0.3-0.5-0.4
		c-0.2-0.1-0.4-0.2-0.6-0.2c-0.2,0-0.4-0.1-0.6-0.1c-0.4,0-0.8,0.1-1.1,0.3c-0.3,0.2-0.6,0.4-0.8,0.7c-0.2,0.3-0.4,0.6-0.5,1
		c-0.1,0.4-0.2,0.7-0.2,1.1c0,0.4,0.1,0.8,0.2,1.1c0.1,0.4,0.3,0.7,0.5,1c0.2,0.3,0.5,0.5,0.8,0.7c0.3,0.2,0.7,0.3,1.1,0.3
		c0.2,0,0.4,0,0.6-0.1c0.2-0.1,0.4-0.1,0.6-0.2c0.2-0.1,0.4-0.2,0.5-0.4s0.3-0.4,0.4-0.6l1.4,0.8c-0.1,0.3-0.3,0.6-0.6,0.9
		c-0.3,0.3-0.6,0.5-0.9,0.6c-0.3,0.2-0.7,0.3-1.1,0.4c-0.4,0.1-0.7,0.1-1.1,0.1c-0.6,0-1.2-0.1-1.7-0.4c-0.5-0.3-1-0.6-1.4-1
		c-0.4-0.4-0.7-0.9-0.9-1.5C260.5,146.4,260.4,145.8,260.4,145.2z"/>
	<path class="st9" d="M275.8,149.8c-0.7,0-1.2-0.1-1.8-0.4c-0.5-0.3-1-0.6-1.4-1c-0.4-0.4-0.7-0.9-0.9-1.4c-0.2-0.5-0.3-1.1-0.3-1.7
		c0-0.6,0.1-1.2,0.3-1.7c0.2-0.5,0.5-1,0.9-1.4c0.4-0.4,0.8-0.7,1.4-1c0.5-0.2,1.1-0.4,1.7-0.4c0.6,0,1.2,0.1,1.8,0.4
		c0.5,0.3,1,0.6,1.4,1c0.4,0.4,0.7,0.9,0.9,1.5c0.2,0.5,0.3,1.1,0.3,1.7c0,0.6-0.1,1.2-0.3,1.7c-0.2,0.5-0.5,1-0.9,1.4
		c-0.4,0.4-0.8,0.7-1.4,1C277,149.7,276.4,149.8,275.8,149.8z M273.2,145.3c0,0.4,0.1,0.8,0.2,1.1c0.1,0.4,0.3,0.7,0.5,1
		c0.2,0.3,0.5,0.5,0.8,0.7c0.3,0.2,0.7,0.3,1.1,0.3c0.4,0,0.8-0.1,1.1-0.3c0.3-0.2,0.6-0.4,0.8-0.7c0.2-0.3,0.4-0.6,0.5-1
		c0.1-0.4,0.2-0.7,0.2-1.1c0-0.4-0.1-0.8-0.2-1.1c-0.1-0.4-0.3-0.7-0.5-1c-0.2-0.3-0.5-0.5-0.8-0.7c-0.3-0.2-0.7-0.2-1.1-0.2
		c-0.4,0-0.8,0.1-1.1,0.3c-0.3,0.2-0.6,0.4-0.8,0.7c-0.2,0.3-0.4,0.6-0.5,1C273.3,144.6,273.2,144.9,273.2,145.3z"/>
	<path class="st9" d="M285.7,144v5.7H284v-8.9h1.3l4.6,5.8v-5.8h1.7v8.9h-1.4L285.7,144z"/>
	<path class="st9" d="M296,149.7v-8.9h6v1.5h-4.2v2.3h3.5v1.4h-3.5v3.7H296z"/>
	<path class="st9" d="M309.3,149.8c-0.7,0-1.2-0.1-1.8-0.4c-0.5-0.3-1-0.6-1.4-1c-0.4-0.4-0.7-0.9-0.9-1.4c-0.2-0.5-0.3-1.1-0.3-1.7
		c0-0.6,0.1-1.2,0.3-1.7c0.2-0.5,0.5-1,0.9-1.4c0.4-0.4,0.8-0.7,1.4-1c0.5-0.2,1.1-0.4,1.7-0.4c0.6,0,1.2,0.1,1.8,0.4
		c0.5,0.3,1,0.6,1.4,1c0.4,0.4,0.7,0.9,0.9,1.5c0.2,0.5,0.3,1.1,0.3,1.7c0,0.6-0.1,1.2-0.3,1.7c-0.2,0.5-0.5,1-0.9,1.4
		c-0.4,0.4-0.8,0.7-1.4,1C310.5,149.7,310,149.8,309.3,149.8z M306.7,145.3c0,0.4,0.1,0.8,0.2,1.1c0.1,0.4,0.3,0.7,0.5,1
		c0.2,0.3,0.5,0.5,0.8,0.7c0.3,0.2,0.7,0.3,1.1,0.3c0.4,0,0.8-0.1,1.1-0.3s0.6-0.4,0.8-0.7c0.2-0.3,0.4-0.6,0.5-1
		c0.1-0.4,0.2-0.7,0.2-1.1c0-0.4-0.1-0.8-0.2-1.1c-0.1-0.4-0.3-0.7-0.5-1c-0.2-0.3-0.5-0.5-0.8-0.7c-0.3-0.2-0.7-0.2-1.1-0.2
		c-0.4,0-0.8,0.1-1.1,0.3c-0.3,0.2-0.6,0.4-0.8,0.7c-0.2,0.3-0.4,0.6-0.5,1C306.8,144.6,306.7,144.9,306.7,145.3z"/>
	<path class="st9" d="M317.5,149.7v-8.9h3.9c0.4,0,0.8,0.1,1.1,0.3c0.3,0.2,0.6,0.4,0.9,0.7c0.3,0.3,0.4,0.6,0.6,1
		c0.1,0.4,0.2,0.7,0.2,1.1c0,0.6-0.1,1.1-0.4,1.6c-0.3,0.5-0.7,0.8-1.2,1l2,3.3h-1.9l-1.8-3h-1.7v3H317.5z M319.2,145.2h2.2
		c0.2,0,0.3,0,0.4-0.1c0.1-0.1,0.3-0.2,0.4-0.3c0.1-0.1,0.2-0.3,0.2-0.5c0.1-0.2,0.1-0.4,0.1-0.6c0-0.2,0-0.4-0.1-0.6
		c-0.1-0.2-0.2-0.3-0.3-0.5c-0.1-0.1-0.2-0.2-0.4-0.3c-0.1-0.1-0.3-0.1-0.4-0.1h-2.1V145.2z"/>
	<path class="st9" d="M335.6,149.7v-5.9l-2.3,4.4h-0.9l-2.3-4.4v5.9h-1.7v-8.9h1.9l2.6,5.1l2.7-5.1h1.8v8.9H335.6z"/>
	<path class="st9" d="M341.7,149.7v-8.9h1.7v8.9H341.7z"/>
	<path class="st9" d="M347.8,149.7v-8.9h3.2c0.7,0,1.4,0.1,1.9,0.4c0.5,0.2,1,0.6,1.4,1c0.4,0.4,0.6,0.9,0.8,1.4
		c0.2,0.5,0.3,1.1,0.3,1.7c0,0.7-0.1,1.3-0.3,1.8c-0.2,0.5-0.5,1-0.9,1.4c-0.4,0.4-0.8,0.7-1.4,0.9c-0.5,0.2-1.1,0.3-1.8,0.3H347.8z
		 M353.7,145.3c0-0.4-0.1-0.8-0.2-1.2c-0.1-0.4-0.3-0.7-0.5-0.9c-0.2-0.3-0.5-0.5-0.8-0.6c-0.3-0.1-0.7-0.2-1.1-0.2h-1.5v5.9h1.5
		c0.4,0,0.8-0.1,1.1-0.2c0.3-0.2,0.6-0.4,0.8-0.6c0.2-0.3,0.4-0.6,0.5-0.9C353.6,146.1,353.7,145.7,353.7,145.3z"/>
	<path class="st9" d="M361.5,140.8h1.5l3.4,8.9h-1.8l-0.8-2.2h-3.1l-0.8,2.2h-1.8L361.5,140.8z M363.5,146.3l-1.2-3.5l-1.3,3.5
		H363.5z"/>
	<path class="st9" d="M369.9,149.7v-8.9h3.2c0.7,0,1.4,0.1,1.9,0.4c0.5,0.2,1,0.6,1.4,1c0.4,0.4,0.6,0.9,0.8,1.4
		c0.2,0.5,0.3,1.1,0.3,1.7c0,0.7-0.1,1.3-0.3,1.8c-0.2,0.5-0.5,1-0.9,1.4c-0.4,0.4-0.8,0.7-1.4,0.9c-0.5,0.2-1.1,0.3-1.8,0.3H369.9z
		 M375.7,145.3c0-0.4-0.1-0.8-0.2-1.2c-0.1-0.4-0.3-0.7-0.5-0.9c-0.2-0.3-0.5-0.5-0.8-0.6c-0.3-0.1-0.7-0.2-1.1-0.2h-1.5v5.9h1.5
		c0.4,0,0.8-0.1,1.1-0.2c0.3-0.2,0.6-0.4,0.8-0.6c0.2-0.3,0.4-0.6,0.5-0.9C375.7,146.1,375.7,145.7,375.7,145.3z"/>
	<path class="st9" d="M387.5,148.2v1.5h-6.2v-8.9h6.1v1.5h-4.3v2.1h3.7v1.4h-3.7v2.3H387.5z"/>
	<path class="st9" d="M399,140.8h1.5l3.4,8.9h-1.8l-0.8-2.2h-3.1l-0.8,2.2h-1.8L399,140.8z M401,146.3l-1.2-3.5l-1.3,3.5H401z"/>
	<path class="st9" d="M414.7,149.7v-5.9l-2.3,4.4h-0.9l-2.3-4.4v5.9h-1.7v-8.9h1.9l2.6,5.1l2.7-5.1h1.8v8.9H414.7z"/>
	<path class="st9" d="M427.9,147.5c0,0.4-0.1,0.7-0.2,1c-0.2,0.3-0.4,0.5-0.6,0.7c-0.3,0.2-0.6,0.3-0.9,0.4
		c-0.3,0.1-0.7,0.2-1.1,0.2h-4.3v-8.9h4.8c0.3,0,0.6,0.1,0.8,0.2c0.3,0.1,0.5,0.3,0.6,0.5c0.2,0.2,0.3,0.5,0.4,0.7
		c0.1,0.3,0.1,0.5,0.1,0.8c0,0.4-0.1,0.8-0.3,1.2c-0.2,0.4-0.5,0.7-1,0.8c0.5,0.2,0.9,0.4,1.2,0.8S427.9,146.9,427.9,147.5z
		 M422.5,142.3v2.2h2.3c0.3,0,0.5-0.1,0.7-0.3c0.2-0.2,0.3-0.5,0.3-0.8c0-0.3-0.1-0.6-0.3-0.8c-0.2-0.2-0.4-0.3-0.7-0.3H422.5z
		 M426.2,147.1c0-0.2,0-0.3-0.1-0.5c-0.1-0.1-0.1-0.3-0.2-0.4c-0.1-0.1-0.2-0.2-0.3-0.3c-0.1-0.1-0.3-0.1-0.4-0.1h-2.7v2.3h2.6
		c0.2,0,0.3,0,0.4-0.1c0.1-0.1,0.3-0.1,0.4-0.2c0.1-0.1,0.2-0.2,0.2-0.4C426.2,147.4,426.2,147.3,426.2,147.1z"/>
	<path class="st9" d="M431.8,149.7v-8.9h1.7v8.9H431.8z"/>
	<path class="st9" d="M444.1,148.2v1.5h-6.2v-8.9h6.1v1.5h-4.3v2.1h3.7v1.4h-3.7v2.3H444.1z"/>
	<path class="st9" d="M449.7,144v5.7h-1.7v-8.9h1.3l4.6,5.8v-5.8h1.7v8.9h-1.4L449.7,144z"/>
	<path class="st9" d="M466.6,142.4h-2.8v7.4h-1.7v-7.4h-2.8v-1.5h7.4V142.4z"/>
	<path class="st9" d="M471.9,140.8h1.5l3.4,8.9H475l-0.8-2.2h-3.1l-0.8,2.2h-1.8L471.9,140.8z M473.9,146.3l-1.2-3.5l-1.3,3.5H473.9
		z"/>
	<path class="st9" d="M480.3,149.7v-8.9h1.7v7.4h4.5v1.5H480.3z"/>
	<path class="st9" d="M501.5,148.2v1.5h-6.2v-8.9h6.1v1.5H497v2.1h3.7v1.4H497v2.3H501.5z"/>
	<path class="st9" d="M510.9,149.7v-8.9h6v1.5h-4.2v2.3h3.5v1.4h-3.5v3.7H510.9z"/>
	<path class="st9" d="M524.3,148.3c0.4,0,0.8-0.1,1-0.3s0.5-0.4,0.7-0.7c0.2-0.3,0.3-0.6,0.4-0.9s0.1-0.7,0.1-1.1v-4.5h1.7v4.5
		c0,0.6-0.1,1.2-0.2,1.7s-0.4,1-0.7,1.4c-0.3,0.4-0.7,0.7-1.2,1c-0.5,0.2-1.1,0.4-1.8,0.4c-0.7,0-1.3-0.1-1.8-0.4s-0.9-0.6-1.2-1
		c-0.3-0.4-0.5-0.9-0.7-1.4c-0.1-0.5-0.2-1.1-0.2-1.7v-4.5h1.7v4.5c0,0.4,0,0.7,0.1,1.1c0.1,0.3,0.2,0.7,0.4,0.9
		c0.2,0.3,0.4,0.5,0.7,0.6C523.6,148.2,523.9,148.3,524.3,148.3z"/>
	<path class="st9" d="M534.2,144v5.7h-1.7v-8.9h1.3l4.6,5.8v-5.8h1.7v8.9h-1.4L534.2,144z"/>
	<path class="st9" d="M544.5,149.7v-8.9h3.2c0.7,0,1.4,0.1,1.9,0.4c0.5,0.2,1,0.6,1.4,1c0.4,0.4,0.6,0.9,0.8,1.4
		c0.2,0.5,0.3,1.1,0.3,1.7c0,0.7-0.1,1.3-0.3,1.8c-0.2,0.5-0.5,1-0.9,1.4c-0.4,0.4-0.8,0.7-1.4,0.9c-0.5,0.2-1.1,0.3-1.8,0.3H544.5z
		 M550.4,145.3c0-0.4-0.1-0.8-0.2-1.2c-0.1-0.4-0.3-0.7-0.5-0.9c-0.2-0.3-0.5-0.5-0.8-0.6c-0.3-0.1-0.7-0.2-1.1-0.2h-1.5v5.9h1.5
		c0.4,0,0.8-0.1,1.1-0.2c0.3-0.2,0.6-0.4,0.8-0.6c0.2-0.3,0.4-0.6,0.5-0.9C550.3,146.1,550.4,145.7,550.4,145.3z"/>
	<path class="st9" d="M556,149.7v-8.9h1.7v8.9H556z"/>
	<path class="st9" d="M564.6,140.8h1.5l3.4,8.9h-1.8l-0.8-2.2h-3.1l-0.8,2.2h-1.8L564.6,140.8z M566.6,146.3l-1.2-3.5l-1.3,3.5
		H566.6z M565.8,140.1l-1.1-0.3l0.7-1.5h1.6L565.8,140.1z"/>
	<path class="st9" d="M573,149.7v-8.9h3.9c0.4,0,0.8,0.1,1.1,0.3s0.6,0.4,0.9,0.7s0.4,0.6,0.6,1c0.1,0.4,0.2,0.7,0.2,1.1
		c0,0.6-0.1,1.1-0.4,1.6c-0.3,0.5-0.7,0.8-1.2,1l2,3.3h-1.9l-1.8-3h-1.7v3H573z M574.7,145.2h2.2c0.2,0,0.3,0,0.4-0.1
		c0.1-0.1,0.3-0.2,0.4-0.3c0.1-0.1,0.2-0.3,0.2-0.5c0.1-0.2,0.1-0.4,0.1-0.6c0-0.2,0-0.4-0.1-0.6c-0.1-0.2-0.2-0.3-0.3-0.5
		c-0.1-0.1-0.2-0.2-0.4-0.3c-0.1-0.1-0.3-0.1-0.4-0.1h-2.1V145.2z"/>
	<path class="st9" d="M583.9,149.7v-8.9h1.7v8.9H583.9z"/>
	<path class="st9" d="M592.5,140.8h1.5l3.4,8.9h-1.8l-0.8-2.2h-3.1l-0.8,2.2h-1.8L592.5,140.8z M594.5,146.3l-1.2-3.5l-1.3,3.5
		H594.5z"/>
</g>
<path class="st8" d="M188.6,35.2H183h-70.4c-0.6,0-1.1-0.2-1.4-0.6l-16.5-18l-7.1-7.8c-1-1.1-2.5-1.8-4-1.8H51.4
	c-6.7,0-12.5,3.9-15.2,9.6c-1.1,2.2-1.7,4.7-1.7,7.3v75.4c0,0.4,0.1,0.7,0.2,1.1c0.1,0.4,0.3,0.3,0.6,0c1.3-0.1,2.5-0.1,3.8-0.1
	l2.2,0.2c0.1,0,0.1-0.1,0.2-0.3c0.1-0.3,0.1-0.6,0.1-0.9V23.9c0-2.6,1-5,2.7-6.8c0.4-0.4,0.9-0.6,1.4-0.6l38.7,0
	c0.6,0,1.1,0.2,1.4,0.6l21.3,23.3c1,1.1,2.5,1.8,4,1.8H183h5.6c6.5,0,11.8,5.3,11.8,11.8v76.6c0,6.5-5.3,11.8-11.8,11.8H183h-43
	c-0.5,0.3-1.1,0.6-1.6,0.9l-2.1,3.1c-0.9,1.3,0,3.1,1.6,3.1H183h5.6c10.4,0,18.8-8.4,18.8-18.8V54.1C207.5,43.7,199,35.2,188.6,35.2
	z"/>
<path class="st10" d="M6.7,139.5c48.1-30.7,122.4-32.3,122.4-32.3l-0.8-9.5c0,0-87.3,2.1-121.6,11.7V139.5z"/>
<path class="st11" d="M33.2,179.9c57.4-48.9,128.3-72.3,128.3-72.3l-3.1-4.6c0,0-90.4,3-151.6,41.3v35.6H33.2z"/>
<path class="st9" d="M123.5,179.9c33.6-60,56.1-71.8,56.1-71.8l-4.7-2.9c0,0-87.7,12.1-138.9,74.6H123.5z"/>
<path class="st8" d="M145,98.7c-40-4.2-78.1-5.9-116.9,2.1l-21.4,5.4v7.5c35.1-10.1,72.4-13.9,108.9-11.2c-8.5,1-16.9,2.3-25.3,4
	c-29.3,5.9-57.4,15.8-83.6,29.4v8.4C33.3,130,62,119.8,91.8,113.8c17.5-3.5,35.3-5.5,53.1-6c-40.4,10.8-78.8,35.7-111.7,72.1h10.1
	c37.4-39.4,82-64,127.4-69.6c-20.8,17.4-38.5,41.1-52.7,69.6h8.3c15.6-30.3,35.4-54.5,58.7-71.3c1.3-0.9,1.9-2.7,1.3-4.2
	c-0.4-1.3-1.5-2.2-2.9-2.4l-0.3,0"/>
</svg>
