<?xml version="1.0" encoding="utf-8"?>
<!-- Generator: Adobe Illustrator 22.0.1, SVG Export Plug-In . SVG Version: 6.00 Build 0)  -->
<svg version="1.1" id="Camada_1" xmlns="http://www.w3.org/2000/svg" xmlns:xlink="http://www.w3.org/1999/xlink" x="0px" y="0px"
	 viewBox="0 0 601.6 188.9" style="enable-background:new 0 0 601.6 188.9;" xml:space="preserve">
<style type="text/css">
	.st0{fill:#D7E8C5;}
	.st1{fill:#ECF3DA;}
	.st2{fill:#E2EDD0;}
	.st3{fill:#C2DDB0;}
	.st4{fill:#B1CCB7;}
	.st5{fill:#D6E5D8;}
	.st6{fill:#C9D7CB;}
	.st7{fill:#EDEDED;}
	.st8{fill:#196433;}
	.st9{fill:#7CBA43;}
	.st10{fill:#F1F1C5;}
	.st11{fill:#CDDC94;}
	.st12{fill:#FFFFFF;}
</style>
<g>
	<path class="st8" d="M525.2,93.1c-0.9-0.3-1.7-0.8-2.2-1.4c-0.8-1.1-1.3-3-1.3-5.8V70.3c0-11.4-3.6-20-10.8-25.8
		c-7.2-5.7-17.5-8.6-30.8-8.6c-13,0-24.7,2.9-35,8.7c-1.5,0.8-2.1,2.6-1.4,4.1l5.9,12.2c0.8,1.7,3,2.3,4.7,1.4
		c3.3-1.9,6.5-3.5,9.6-4.6c4-1.5,8.4-2.2,13.2-2.2c5.1,0,8.8,0.9,11,2.8c2.3,1.8,3.4,4.7,3.4,8.4v2.5c-4.4-2-10.1-3.1-16.8-3.1
		c-5.3,0-10.1,0.7-14.5,2c-4.4,1.3-8.2,3.2-11.4,5.7c-3.2,2.5-5.7,5.4-7.5,8.7c-1.7,3.2-2.6,6.8-2.7,10.7c-0.1,0-0.2-0.1-0.2-0.1
		c-0.9-0.3-1.7-0.8-2.2-1.4c-0.8-1.1-1.3-3-1.3-5.8V70.3c0-11.4-3.6-20-10.8-25.8c-7.2-5.7-17.5-8.6-30.8-8.6c-13,0-24.7,2.9-35,8.7
		c-1.5,0.8-2.1,2.6-1.4,4.1L363,61c0.8,1.7,3,2.3,4.7,1.4c3.3-1.9,6.5-3.5,9.6-4.6c4-1.5,8.4-2.2,13.2-2.2c5.1,0,8.8,0.9,11,2.8
		c2.3,1.8,3.4,4.7,3.4,8.4v2.5c-4.4-2-10.1-3.1-16.8-3.1c-5.3,0-10.1,0.7-14.5,2c-4.4,1.3-8.2,3.2-11.4,5.7
		c-3.2,2.5-5.7,5.4-7.5,8.7c-1.8,3.4-2.7,7.1-2.7,11.2c0,0.5,0,0.9,0,1.3c-0.8-0.7-2-0.9-3.1-0.6c-0.2,0.1-0.4,0.1-0.6,0.2
		c-1.5,0.4-2.9,0.6-4.1,0.6c-5.2,0-7.8-3.1-7.8-9.2V11.3c0-1.8-1.5-3.2-3.3-3.2h-23.6c-1.8,0-3.3,1.4-3.3,3.2v60.8
		c-0.4-3.9-1.3-7.7-2.6-11.2c-2-5.1-4.6-9.5-8-13.2c-3.4-3.7-7.5-6.6-12.2-8.7C278.7,37,273.5,36,268,36c-6.4,0-11.7,1.2-16,3.5
		c-1.9,1-3.7,2.3-5.4,3.7c-2.2,1.9-5.6,0.5-5.6-2.3v-0.3c0-1.8-1.5-3.2-3.3-3.2h-19.6c-1.8,0-3.3,1.4-3.3,3.2v107
		c0,1.8,1.5,3.2,3.3,3.2h23.6c1.8,0,3.3-1.4,3.3-3.2v-32.3c0-2.7,3.3-4.2,5.5-2.4c1.5,1.3,3.1,2.3,4.9,3.3c4.4,2.3,9.7,3.5,15.7,3.5
		c5.1,0,9.8-1.1,14.1-3.1c4.3-2.1,8.1-5,11.3-8.8c3.2-3.8,5.7-8.3,7.5-13.4c1.2-3.5,2-7.2,2.4-11.1v13.2c0,7.6,2.2,13.3,6.5,17.3
		c4.3,4,10.5,6,18.6,6c4,0,8.3-0.5,12.8-1.4c3.5-0.7,6.7-1.6,9.7-2.8c1.4-0.6,2.3-2,2-3.5l-1.3-7.4c1.5,2.9,3.4,5.5,5.8,7.6
		c2.6,2.3,5.7,4.1,9.3,5.4c3.6,1.3,7.5,2,11.6,2c5.5,0,10.7-1.2,15.6-3.6c4.9-2.4,9.2-5.9,12.9-10.5l0.6,2.9
		c0.8,3.7,2.7,6.5,5.5,8.4c2.8,1.9,6.9,2.8,12.3,2.8c1.7,0,3.6-0.1,5.8-0.4c1.3-0.2,2.7-0.4,4.2-0.6c1.6-0.3,2.7-1.6,2.7-3.1l0-11.8
		c0,0.1,0.1,0.2,0.1,0.3c1.5,3.2,3.5,5.9,6.1,8.2c2.6,2.3,5.7,4.1,9.3,5.4c3.6,1.3,7.5,2,11.6,2c5.5,0,10.7-1.2,15.6-3.6
		c4.9-2.4,9.2-5.9,12.9-10.5l0.6,2.9c0.8,3.7,2.7,6.5,5.5,8.4c2.8,1.9,6.9,2.8,12.3,2.8c1.7,0,3.6-0.1,5.8-0.4
		c1.3-0.2,2.7-0.4,4.2-0.6c1.6-0.3,2.7-1.6,2.7-3.1V96.2C527.5,94.8,526.5,93.6,525.2,93.1z M274.6,84.3c-0.8,2.1-1.9,4-3.2,5.7
		c-1.3,1.6-2.9,2.9-4.8,3.8c-1.9,0.9-3.9,1.4-6.1,1.4c-3.2,0-6.2-1.2-9-3.5c-2.7-2.2-4.8-5-6.2-8.3c-0.2-0.4-0.3-0.8-0.3-1.3V69.8
		c0-0.7,0.2-1.3,0.6-1.9c3.8-5,8.4-7.4,13.7-7.4c5,0,9,1.5,12,4.6c3,3.1,4.5,7.2,4.5,12.3C275.8,79.8,275.4,82.1,274.6,84.3z
		 M404.9,90.1c0,1-0.4,2-1.1,3c-0.7,1-1.7,1.9-2.9,2.7c-1.5,0.9-3.2,1.7-5.1,2.2c-1.9,0.6-3.8,0.8-5.6,0.8c-2.9,0-5.2-0.7-7.1-2.1
		c-1.9-1.4-2.8-3.3-2.8-5.5c0-2.7,1.2-4.9,3.7-6.6c2.4-1.7,5.5-2.6,9.2-2.6c1.7,0,3.6,0.2,5.7,0.6c1.2,0.2,2.4,0.5,3.5,0.8
		c1.4,0.4,2.4,1.6,2.4,3.1V90.1z M491.6,90.1c0,1-0.4,2-1.1,3c-0.7,1-1.7,1.9-2.9,2.7c-1.5,0.9-3.2,1.7-5.1,2.2
		c-1.9,0.6-3.8,0.8-5.6,0.8c-2.9,0-5.2-0.7-7.1-2.1c-1.9-1.4-2.8-3.3-2.8-5.5c0-2.7,1.2-4.9,3.7-6.6c2.4-1.7,5.5-2.6,9.2-2.6
		c1.7,0,3.6,0.2,5.7,0.6c1.2,0.2,2.4,0.5,3.5,0.8c1.4,0.4,2.4,1.6,2.4,3.1V90.1z"/>
	<path class="st8" d="M595.6,84.2c-1.1-2.5-2.8-4.8-5.3-6.7c-2.5-2-5.8-3.8-9.9-5.5c-4.1-1.7-9.2-3.3-15.2-4.8
		c-5-1.2-8.3-2.3-10-3.3c-1.7-1-2.5-2.2-2.5-3.8c0-1.4,0.6-2.5,1.7-3.1c1.2-0.7,2.6-1,4.4-1c3.1,0,6.4,0.7,9.8,2.1
		c2.9,1.1,6.3,2.9,10.2,5.3c1.5,0.9,3.6,0.5,4.5-1l8.1-12.4c0.9-1.4,0.6-3.2-0.8-4.2c-4.8-3.7-9.6-6.2-14.4-7.5
		c-5.6-1.5-11.4-2.3-17.5-2.3c-5,0-9.6,0.7-13.7,2.1c-4.2,1.4-7.8,3.3-10.8,5.9c-3,2.6-5.4,5.6-7.1,9c-1.7,3.5-2.5,7.3-2.5,11.3
		c0,3.1,0.5,5.7,1.6,8c1.1,2.2,2.8,4.3,5.3,6.1c2.5,1.8,5.7,3.6,9.7,5.1c4,1.6,8.9,3.2,14.8,4.8c4.8,1.3,8,2.5,9.6,3.5
		c1.6,1,2.5,2.3,2.5,3.7c0,2.6-2.1,3.8-6.3,3.8c-4,0-8.4-0.9-13.3-2.8c-3.9-1.5-8-3.5-12.1-6c-1.6-1-3.7-0.4-4.6,1.1l-7.3,12.3
		c-0.8,1.4-0.5,3.1,0.8,4.1c4.4,3.5,9.7,6.3,15.7,8.2c7,2.3,14.1,3.5,21.4,3.5c5.4,0,10.2-0.6,14.5-1.8c4.3-1.2,7.9-3,11-5.4
		c3-2.4,5.3-5.2,6.9-8.4c1.6-3.3,2.4-7,2.4-11.2C597.1,89.6,596.6,86.7,595.6,84.2z"/>
</g>
<g>
	<path class="st9" d="M259.2,146.2c0-0.5,0.1-1.1,0.3-1.6c0.2-0.5,0.5-1,0.9-1.4c0.4-0.4,0.8-0.8,1.4-1c0.5-0.3,1.2-0.4,1.9-0.4
		c0.8,0,1.5,0.2,2.1,0.5c0.6,0.4,1,0.8,1.3,1.4l-1.3,0.9c-0.1-0.3-0.3-0.5-0.4-0.6s-0.3-0.3-0.5-0.4c-0.2-0.1-0.4-0.2-0.6-0.2
		c-0.2,0-0.4-0.1-0.6-0.1c-0.4,0-0.8,0.1-1.1,0.3c-0.3,0.2-0.6,0.4-0.8,0.7c-0.2,0.3-0.4,0.6-0.5,1c-0.1,0.4-0.2,0.7-0.2,1.1
		c0,0.4,0.1,0.8,0.2,1.1c0.1,0.4,0.3,0.7,0.5,1c0.2,0.3,0.5,0.5,0.8,0.7c0.3,0.2,0.7,0.3,1.1,0.3c0.2,0,0.4,0,0.6-0.1
		c0.2-0.1,0.4-0.1,0.6-0.2c0.2-0.1,0.4-0.2,0.5-0.4c0.2-0.2,0.3-0.4,0.4-0.6l1.4,0.8c-0.1,0.3-0.3,0.6-0.6,0.9
		c-0.3,0.3-0.6,0.5-0.9,0.6c-0.3,0.2-0.7,0.3-1.1,0.4c-0.4,0.1-0.7,0.1-1.1,0.1c-0.6,0-1.2-0.1-1.7-0.4c-0.5-0.3-1-0.6-1.4-1
		c-0.4-0.4-0.7-0.9-0.9-1.5C259.3,147.4,259.2,146.8,259.2,146.2z"/>
	<path class="st9" d="M274.5,150.8c-0.7,0-1.2-0.1-1.8-0.4c-0.5-0.3-1-0.6-1.4-1c-0.4-0.4-0.7-0.9-0.9-1.4c-0.2-0.5-0.3-1.1-0.3-1.7
		c0-0.6,0.1-1.2,0.3-1.7c0.2-0.5,0.5-1,0.9-1.4c0.4-0.4,0.8-0.7,1.4-1c0.5-0.2,1.1-0.4,1.7-0.4c0.6,0,1.2,0.1,1.8,0.4
		c0.5,0.3,1,0.6,1.4,1c0.4,0.4,0.7,0.9,0.9,1.5c0.2,0.5,0.3,1.1,0.3,1.7c0,0.6-0.1,1.2-0.3,1.7c-0.2,0.5-0.5,1-0.9,1.4
		c-0.4,0.4-0.8,0.7-1.4,1C275.8,150.7,275.2,150.8,274.5,150.8z M272,146.3c0,0.4,0.1,0.8,0.2,1.1c0.1,0.4,0.3,0.7,0.5,1
		c0.2,0.3,0.5,0.5,0.8,0.7c0.3,0.2,0.7,0.3,1.1,0.3c0.4,0,0.8-0.1,1.1-0.3s0.6-0.4,0.8-0.7c0.2-0.3,0.4-0.6,0.5-1
		c0.1-0.4,0.2-0.7,0.2-1.1c0-0.4-0.1-0.8-0.2-1.1c-0.1-0.4-0.3-0.7-0.5-1c-0.2-0.3-0.5-0.5-0.8-0.7c-0.3-0.2-0.7-0.2-1.1-0.2
		c-0.4,0-0.8,0.1-1.1,0.3c-0.3,0.2-0.6,0.4-0.8,0.7c-0.2,0.3-0.4,0.6-0.5,1C272,145.6,272,145.9,272,146.3z"/>
	<path class="st9" d="M284.5,145v5.7h-1.7v-8.9h1.3l4.6,5.8v-5.8h1.7v8.9H289L284.5,145z"/>
	<path class="st9" d="M294.8,150.7v-8.9h6v1.5h-4.2v2.3h3.5v1.4h-3.5v3.7H294.8z"/>
	<path class="st9" d="M308.1,150.8c-0.7,0-1.2-0.1-1.8-0.4c-0.5-0.3-1-0.6-1.4-1c-0.4-0.4-0.7-0.9-0.9-1.4c-0.2-0.5-0.3-1.1-0.3-1.7
		c0-0.6,0.1-1.2,0.3-1.7c0.2-0.5,0.5-1,0.9-1.4c0.4-0.4,0.8-0.7,1.4-1c0.5-0.2,1.1-0.4,1.7-0.4c0.6,0,1.2,0.1,1.8,0.4
		c0.5,0.3,1,0.6,1.4,1c0.4,0.4,0.7,0.9,0.9,1.5c0.2,0.5,0.3,1.1,0.3,1.7c0,0.6-0.1,1.2-0.3,1.7c-0.2,0.5-0.5,1-0.9,1.4
		c-0.4,0.4-0.8,0.7-1.4,1C309.3,150.7,308.7,150.8,308.1,150.8z M305.5,146.3c0,0.4,0.1,0.8,0.2,1.1c0.1,0.4,0.3,0.7,0.5,1
		c0.2,0.3,0.5,0.5,0.8,0.7c0.3,0.2,0.7,0.3,1.1,0.3c0.4,0,0.8-0.1,1.1-0.3c0.3-0.2,0.6-0.4,0.8-0.7c0.2-0.3,0.4-0.6,0.5-1
		c0.1-0.4,0.2-0.7,0.2-1.1c0-0.4-0.1-0.8-0.2-1.1c-0.1-0.4-0.3-0.7-0.5-1c-0.2-0.3-0.5-0.5-0.8-0.7c-0.3-0.2-0.7-0.2-1.1-0.2
		c-0.4,0-0.8,0.1-1.1,0.3c-0.3,0.2-0.6,0.4-0.8,0.7c-0.2,0.3-0.4,0.6-0.5,1C305.6,145.6,305.5,145.9,305.5,146.3z"/>
	<path class="st9" d="M316.3,150.7v-8.9h3.9c0.4,0,0.8,0.1,1.1,0.3c0.3,0.2,0.6,0.4,0.9,0.7s0.4,0.6,0.6,1c0.1,0.4,0.2,0.7,0.2,1.1
		c0,0.6-0.1,1.1-0.4,1.6s-0.7,0.8-1.2,1l2,3.3h-1.9l-1.8-3H318v3H316.3z M318,146.2h2.2c0.2,0,0.3,0,0.4-0.1
		c0.1-0.1,0.3-0.2,0.4-0.3c0.1-0.1,0.2-0.3,0.2-0.5c0.1-0.2,0.1-0.4,0.1-0.6c0-0.2,0-0.4-0.1-0.6c-0.1-0.2-0.2-0.3-0.3-0.5
		c-0.1-0.1-0.2-0.2-0.4-0.3c-0.1-0.1-0.3-0.1-0.4-0.1H318V146.2z"/>
	<path class="st9" d="M334.4,150.7v-5.9l-2.3,4.4h-0.9l-2.3-4.4v5.9h-1.7v-8.9h1.9l2.6,5.1l2.7-5.1h1.8v8.9H334.4z"/>
	<path class="st9" d="M340.5,150.7v-8.9h1.7v8.9H340.5z"/>
	<path class="st9" d="M346.5,150.7v-8.9h3.2c0.7,0,1.4,0.1,1.9,0.4c0.5,0.2,1,0.6,1.4,1c0.4,0.4,0.6,0.9,0.8,1.4
		c0.2,0.5,0.3,1.1,0.3,1.7c0,0.7-0.1,1.3-0.3,1.8c-0.2,0.5-0.5,1-0.9,1.4c-0.4,0.4-0.8,0.7-1.4,0.9c-0.5,0.2-1.1,0.3-1.8,0.3H346.5z
		 M352.4,146.3c0-0.4-0.1-0.8-0.2-1.2c-0.1-0.4-0.3-0.7-0.5-0.9c-0.2-0.3-0.5-0.5-0.8-0.6c-0.3-0.1-0.7-0.2-1.1-0.2h-1.5v5.9h1.5
		c0.4,0,0.8-0.1,1.1-0.2c0.3-0.2,0.6-0.4,0.8-0.6c0.2-0.3,0.4-0.6,0.5-0.9C352.4,147.1,352.4,146.7,352.4,146.3z"/>
	<path class="st9" d="M360.2,141.8h1.5l3.4,8.9h-1.8l-0.8-2.2h-3.1l-0.8,2.2h-1.8L360.2,141.8z M362.2,147.3l-1.2-3.5l-1.3,3.5
		H362.2z"/>
	<path class="st9" d="M368.6,150.7v-8.9h3.2c0.7,0,1.4,0.1,1.9,0.4c0.5,0.2,1,0.6,1.4,1c0.4,0.4,0.6,0.9,0.8,1.4
		c0.2,0.5,0.3,1.1,0.3,1.7c0,0.7-0.1,1.3-0.3,1.8c-0.2,0.5-0.5,1-0.9,1.4c-0.4,0.4-0.8,0.7-1.4,0.9c-0.5,0.2-1.1,0.3-1.8,0.3H368.6z
		 M374.5,146.3c0-0.4-0.1-0.8-0.2-1.2c-0.1-0.4-0.3-0.7-0.5-0.9c-0.2-0.3-0.5-0.5-0.8-0.6c-0.3-0.1-0.7-0.2-1.1-0.2h-1.5v5.9h1.5
		c0.4,0,0.8-0.1,1.1-0.2c0.3-0.2,0.6-0.4,0.8-0.6c0.2-0.3,0.4-0.6,0.5-0.9C374.5,147.1,374.5,146.7,374.5,146.3z"/>
	<path class="st9" d="M386.3,149.2v1.5h-6.2v-8.9h6.1v1.5h-4.3v2.1h3.7v1.4h-3.7v2.3H386.3z"/>
	<path class="st9" d="M397.8,141.8h1.5l3.4,8.9h-1.8l-0.8-2.2H397l-0.8,2.2h-1.8L397.8,141.8z M399.8,147.3l-1.2-3.5l-1.3,3.5H399.8
		z"/>
	<path class="st9" d="M413.5,150.7v-5.9l-2.3,4.4h-0.9l-2.3-4.4v5.9h-1.7v-8.9h1.9l2.6,5.1l2.7-5.1h1.8v8.9H413.5z"/>
	<path class="st9" d="M426.7,148.4c0,0.4-0.1,0.7-0.2,1c-0.2,0.3-0.4,0.5-0.6,0.7c-0.3,0.2-0.6,0.3-0.9,0.4
		c-0.3,0.1-0.7,0.2-1.1,0.2h-4.3v-8.9h4.8c0.3,0,0.6,0.1,0.8,0.2c0.3,0.1,0.5,0.3,0.6,0.5c0.2,0.2,0.3,0.5,0.4,0.7
		c0.1,0.3,0.1,0.5,0.1,0.8c0,0.4-0.1,0.8-0.3,1.2c-0.2,0.4-0.5,0.7-1,0.8c0.5,0.2,0.9,0.4,1.2,0.8S426.7,147.9,426.7,148.4z
		 M421.3,143.3v2.2h2.3c0.3,0,0.5-0.1,0.7-0.3c0.2-0.2,0.3-0.5,0.3-0.8c0-0.3-0.1-0.6-0.3-0.8c-0.2-0.2-0.4-0.3-0.7-0.3H421.3z
		 M425,148.1c0-0.2,0-0.3-0.1-0.5c-0.1-0.1-0.1-0.3-0.2-0.4c-0.1-0.1-0.2-0.2-0.3-0.3s-0.3-0.1-0.4-0.1h-2.7v2.3h2.6
		c0.2,0,0.3,0,0.4-0.1c0.1-0.1,0.3-0.1,0.4-0.2c0.1-0.1,0.2-0.2,0.2-0.4C424.9,148.4,425,148.3,425,148.1z"/>
	<path class="st9" d="M430.6,150.7v-8.9h1.7v8.9H430.6z"/>
	<path class="st9" d="M442.8,149.2v1.5h-6.2v-8.9h6.1v1.5h-4.3v2.1h3.7v1.4h-3.7v2.3H442.8z"/>
	<path class="st9" d="M448.4,145v5.7h-1.7v-8.9h1.3l4.6,5.8v-5.8h1.7v8.9H453L448.4,145z"/>
	<path class="st9" d="M465.4,143.4h-2.8v7.4h-1.7v-7.4H458v-1.5h7.4V143.4z"/>
	<path class="st9" d="M470.7,141.8h1.5l3.4,8.9h-1.8l-0.8-2.2h-3.1l-0.8,2.2h-1.8L470.7,141.8z M472.7,147.3l-1.2-3.5l-1.3,3.5
		H472.7z"/>
	<path class="st9" d="M479.1,150.7v-8.9h1.7v7.4h4.5v1.5H479.1z"/>
	<path class="st9" d="M500.2,149.2v1.5h-6.2v-8.9h6.1v1.5h-4.3v2.1h3.7v1.4h-3.7v2.3H500.2z"/>
	<path class="st9" d="M509.6,150.7v-8.9h6v1.5h-4.2v2.3h3.5v1.4h-3.5v3.7H509.6z"/>
	<path class="st9" d="M523.1,149.3c0.4,0,0.8-0.1,1-0.3c0.3-0.2,0.5-0.4,0.7-0.7c0.2-0.3,0.3-0.6,0.4-0.9c0.1-0.3,0.1-0.7,0.1-1.1
		v-4.5h1.7v4.5c0,0.6-0.1,1.2-0.2,1.7c-0.1,0.5-0.4,1-0.7,1.4c-0.3,0.4-0.7,0.7-1.2,1c-0.5,0.2-1.1,0.4-1.8,0.4
		c-0.7,0-1.3-0.1-1.8-0.4s-0.9-0.6-1.2-1c-0.3-0.4-0.5-0.9-0.7-1.4c-0.1-0.5-0.2-1.1-0.2-1.7v-4.5h1.7v4.5c0,0.4,0,0.7,0.1,1.1
		c0.1,0.3,0.2,0.7,0.4,0.9c0.2,0.3,0.4,0.5,0.7,0.6C522.3,149.2,522.7,149.3,523.1,149.3z"/>
	<path class="st9" d="M532.9,145v5.7h-1.7v-8.9h1.3l4.6,5.8v-5.8h1.7v8.9h-1.4L532.9,145z"/>
	<path class="st9" d="M543.3,150.7v-8.9h3.2c0.7,0,1.4,0.1,1.9,0.4c0.5,0.2,1,0.6,1.4,1c0.4,0.4,0.6,0.9,0.8,1.4
		c0.2,0.5,0.3,1.1,0.3,1.7c0,0.7-0.1,1.3-0.3,1.8c-0.2,0.5-0.5,1-0.9,1.4c-0.4,0.4-0.8,0.7-1.4,0.9c-0.5,0.2-1.1,0.3-1.8,0.3H543.3z
		 M549.2,146.3c0-0.4-0.1-0.8-0.2-1.2c-0.1-0.4-0.3-0.7-0.5-0.9c-0.2-0.3-0.5-0.5-0.8-0.6c-0.3-0.1-0.7-0.2-1.1-0.2H545v5.9h1.5
		c0.4,0,0.8-0.1,1.1-0.2c0.3-0.2,0.6-0.4,0.8-0.6c0.2-0.3,0.4-0.6,0.5-0.9C549.1,147.1,549.2,146.7,549.2,146.3z"/>
	<path class="st9" d="M554.8,150.7v-8.9h1.7v8.9H554.8z"/>
	<path class="st9" d="M563.4,141.8h1.5l3.4,8.9h-1.8l-0.8-2.2h-3.1l-0.8,2.2H560L563.4,141.8z M565.4,147.3l-1.2-3.5l-1.3,3.5H565.4
		z M564.6,141.1l-1.1-0.3l0.7-1.5h1.6L564.6,141.1z"/>
	<path class="st9" d="M571.8,150.7v-8.9h3.9c0.4,0,0.8,0.1,1.1,0.3c0.3,0.2,0.6,0.4,0.9,0.7s0.4,0.6,0.6,1c0.1,0.4,0.2,0.7,0.2,1.1
		c0,0.6-0.1,1.1-0.4,1.6s-0.7,0.8-1.2,1l2,3.3H577l-1.8-3h-1.7v3H571.8z M573.5,146.2h2.2c0.2,0,0.3,0,0.4-0.1
		c0.1-0.1,0.3-0.2,0.4-0.3c0.1-0.1,0.2-0.3,0.2-0.5c0.1-0.2,0.1-0.4,0.1-0.6c0-0.2,0-0.4-0.1-0.6c-0.1-0.2-0.2-0.3-0.3-0.5
		c-0.1-0.1-0.2-0.2-0.4-0.3c-0.1-0.1-0.3-0.1-0.4-0.1h-2.1V146.2z"/>
	<path class="st9" d="M582.6,150.7v-8.9h1.7v8.9H582.6z"/>
	<path class="st9" d="M591.2,141.8h1.5l3.4,8.9h-1.8l-0.8-2.2h-3.1l-0.8,2.2h-1.8L591.2,141.8z M593.2,147.3l-1.2-3.5l-1.3,3.5
		H593.2z"/>
</g>
<path class="st8" d="M187.4,36.2h-5.6h-70.4c-0.6,0-1.1-0.2-1.4-0.6l-16.5-18l-7.1-7.8c-1-1.1-2.5-1.8-4-1.8H50.1
	c-6.7,0-12.5,3.9-15.2,9.6c-1.1,2.2-1.7,4.7-1.7,7.3v75.4c0,0.4,0.1,0.7,0.2,1.1c0.1,0.4,0.3,0.3,0.6,0c1.3-0.1,2.5-0.1,3.8-0.1
	l2.2,0.2c0.1,0,0.1-0.1,0.2-0.3c0.1-0.3,0.1-0.6,0.1-0.9V24.9c0-2.6,1-5,2.7-6.8c0.4-0.4,0.9-0.6,1.4-0.6l38.7,0
	c0.6,0,1.1,0.2,1.4,0.6l21.3,23.3c1,1.1,2.5,1.8,4,1.8h71.9h5.6c6.5,0,11.8,5.3,11.8,11.8v76.6c0,6.5-5.3,11.8-11.8,11.8h-5.6h-43
	c-0.5,0.3-1.1,0.6-1.6,0.9l-2.1,3.1c-0.9,1.3,0,3.1,1.6,3.1h45.1h5.6c10.4,0,18.8-8.4,18.8-18.8V55.1
	C206.2,44.7,197.8,36.2,187.4,36.2z"/>
<path class="st10" d="M5.5,140.5c48.1-30.7,122.4-32.3,122.4-32.3l-0.8-9.5c0,0-87.3,2.1-121.6,11.7V140.5z"/>
<path class="st11" d="M31.9,180.8c57.4-48.9,128.3-72.3,128.3-72.3l-3.1-4.6c0,0-90.4,3-151.6,41.3v35.6H31.9z"/>
<path class="st9" d="M122.3,180.8c33.6-60,56.1-71.8,56.1-71.8l-4.7-2.9c0,0-87.7,12.1-138.9,74.6H122.3z"/>
<path class="st8" d="M143.8,99.7c-40-4.2-78.1-5.9-116.9,2.1l-21.4,5.4v7.5c35.1-10.1,72.4-13.9,108.9-11.2c-8.5,1-16.9,2.3-25.3,4
	c-29.3,5.9-57.4,15.8-83.6,29.4v8.4c26.6-14.2,55.2-24.5,85.1-30.5c17.5-3.5,35.3-5.5,53.1-6c-40.4,10.8-78.8,35.7-111.7,72.1h10.1
	c37.4-39.4,82-64,127.4-69.6c-20.8,17.4-38.5,41.1-52.7,69.6h8.3c15.6-30.3,35.4-54.5,58.7-71.3c1.3-0.9,1.9-2.7,1.3-4.2
	c-0.4-1.3-1.5-2.2-2.9-2.4l-0.3,0"/>
</svg>
