<?xml version="1.0" encoding="utf-8"?>
<!-- Generator: Adobe Illustrator 22.0.1, SVG Export Plug-In . SVG Version: 6.00 Build 0)  -->
<svg version="1.1" id="Camada_1" xmlns="http://www.w3.org/2000/svg" xmlns:xlink="http://www.w3.org/1999/xlink" x="0px" y="0px"
	 viewBox="0 0 415 340.1" style="enable-background:new 0 0 415 340.1;" xml:space="preserve">
<style type="text/css">
	.st0{fill:#D7E8C5;}
	.st1{fill:#ECF3DA;}
	.st2{fill:#E2EDD0;}
	.st3{fill:#C2DDB0;}
	.st4{fill:#B1CCB7;}
	.st5{fill:#D6E5D8;}
	.st6{fill:#C9D7CB;}
	.st7{fill:#EDEDED;}
	.st8{fill:#196433;}
	.st9{fill:#7CBA43;}
	.st10{fill:#F1F1C5;}
	.st11{fill:#CDDC94;}
	.st12{fill:#FFFFFF;}
</style>
<g>
	<g>
		<path class="st8" d="M326.7,263.5c-0.9-0.3-1.7-0.8-2.2-1.4c-0.8-1.1-1.3-3-1.3-5.8v-15.6c0-11.4-3.6-20-10.8-25.8
			c-7.2-5.7-17.5-8.6-30.8-8.6c-13,0-24.7,2.9-35,8.7c-1.5,0.8-2.1,2.6-1.4,4.1l5.9,12.2c0.8,1.7,3,2.3,4.7,1.4
			c3.3-1.9,6.5-3.5,9.6-4.6c4-1.5,8.4-2.2,13.2-2.2c5.1,0,8.8,0.9,11,2.8c2.3,1.8,3.4,4.7,3.4,8.4v2.5c-4.4-2-10.1-3.1-16.8-3.1
			c-5.3,0-10.1,0.7-14.5,2c-4.4,1.3-8.2,3.2-11.4,5.7c-3.2,2.5-5.7,5.4-7.5,8.7c-1.7,3.2-2.6,6.8-2.7,10.7c-0.1,0-0.2-0.1-0.2-0.1
			c-0.9-0.3-1.7-0.8-2.2-1.4c-0.8-1.1-1.3-3-1.3-5.8v-15.6c0-11.4-3.6-20-10.8-25.8c-7.2-5.7-17.5-8.6-30.8-8.6
			c-13,0-24.7,2.9-35,8.7c-1.5,0.8-2.1,2.6-1.4,4.1l5.9,12.2c0.8,1.7,3,2.3,4.7,1.4c3.3-1.9,6.5-3.5,9.6-4.6c4-1.5,8.4-2.2,13.2-2.2
			c5.1,0,8.8,0.9,11,2.8c2.3,1.8,3.4,4.7,3.4,8.4v2.5c-4.4-2-10.1-3.1-16.8-3.1c-5.3,0-10.1,0.7-14.5,2c-4.4,1.3-8.2,3.2-11.4,5.7
			c-3.2,2.5-5.7,5.4-7.5,8.7c-1.8,3.4-2.7,7.1-2.7,11.2c0,0.5,0,0.9,0,1.3c-0.8-0.7-2-0.9-3.1-0.6c-0.2,0.1-0.4,0.1-0.6,0.2
			c-1.5,0.4-2.9,0.6-4.1,0.6c-5.2,0-7.8-3.1-7.8-9.2v-74.8c0-1.8-1.5-3.2-3.3-3.2h-23.6c-1.8,0-3.3,1.4-3.3,3.2v60.8
			c-0.4-3.9-1.3-7.7-2.6-11.2c-2-5.1-4.6-9.5-8-13.2c-3.4-3.7-7.5-6.6-12.2-8.7c-4.8-2.1-9.9-3.1-15.4-3.1c-6.4,0-11.7,1.2-16,3.5
			c-1.9,1-3.7,2.3-5.4,3.7c-2.2,1.9-5.6,0.5-5.6-2.3v-0.3c0-1.8-1.5-3.2-3.3-3.2H19.6c-1.8,0-3.3,1.4-3.3,3.2v107
			c0,1.8,1.5,3.2,3.3,3.2h23.6c1.8,0,3.3-1.4,3.3-3.2v-32.3c0-2.7,3.3-4.2,5.5-2.4c1.5,1.3,3.1,2.3,4.9,3.3
			c4.4,2.3,9.7,3.5,15.7,3.5c5.1,0,9.8-1.1,14.1-3.1c4.3-2.1,8.1-5,11.3-8.8c3.2-3.8,5.7-8.3,7.5-13.4c1.2-3.5,2-7.2,2.4-11.1v13.2
			c0,7.6,2.2,13.3,6.5,17.3c4.3,4,10.5,6,18.6,6c4,0,8.3-0.5,12.8-1.4c3.5-0.7,6.7-1.6,9.7-2.8c1.4-0.6,2.3-2,2-3.5l-1.3-7.4
			c1.5,2.9,3.4,5.5,5.8,7.6c2.6,2.3,5.7,4.1,9.3,5.4c3.6,1.3,7.5,2,11.6,2c5.5,0,10.7-1.2,15.6-3.6c4.9-2.4,9.2-5.9,12.9-10.5
			l0.6,2.9c0.8,3.7,2.7,6.5,5.5,8.4c2.8,1.9,6.9,2.8,12.3,2.8c1.7,0,3.6-0.1,5.8-0.4c1.3-0.2,2.7-0.4,4.2-0.6
			c1.6-0.3,2.7-1.6,2.7-3.1l0-11.8c0,0.1,0.1,0.2,0.1,0.3c1.5,3.2,3.5,5.9,6.1,8.2c2.6,2.3,5.7,4.1,9.3,5.4c3.6,1.3,7.5,2,11.6,2
			c5.5,0,10.7-1.2,15.6-3.6c4.9-2.4,9.2-5.9,12.9-10.5l0.6,2.9c0.8,3.7,2.7,6.5,5.5,8.4c2.8,1.9,6.9,2.8,12.3,2.8
			c1.7,0,3.6-0.1,5.8-0.4c1.3-0.2,2.7-0.4,4.2-0.6c1.6-0.3,2.7-1.6,2.7-3.1v-19.4C328.9,265.2,328,264,326.7,263.5z M76.1,254.6
			c-0.8,2.1-1.9,4-3.2,5.7c-1.3,1.6-2.9,2.9-4.8,3.8c-1.9,0.9-3.9,1.4-6.1,1.4c-3.2,0-6.2-1.2-9-3.5c-2.7-2.2-4.8-5-6.2-8.3
			c-0.2-0.4-0.3-0.8-0.3-1.3v-12.3c0-0.7,0.2-1.3,0.6-1.9c3.8-5,8.4-7.4,13.7-7.4c5,0,9,1.5,12,4.6c3,3.1,4.5,7.2,4.5,12.3
			C77.3,250.2,76.9,252.5,76.1,254.6z M206.4,260.5c0,1-0.4,2-1.1,3c-0.7,1-1.7,1.9-2.9,2.7c-1.5,0.9-3.2,1.7-5.1,2.2
			c-1.9,0.6-3.8,0.8-5.6,0.8c-2.9,0-5.2-0.7-7.1-2.1c-1.9-1.4-2.8-3.3-2.8-5.5c0-2.7,1.2-4.9,3.7-6.6c2.4-1.7,5.5-2.6,9.2-2.6
			c1.7,0,3.6,0.2,5.7,0.6c1.2,0.2,2.4,0.5,3.5,0.8c1.4,0.4,2.4,1.6,2.4,3.1V260.5z M293.1,260.5c0,1-0.4,2-1.1,3
			c-0.7,1-1.7,1.9-2.9,2.7c-1.5,0.9-3.2,1.7-5.1,2.2c-1.9,0.6-3.8,0.8-5.6,0.8c-2.9,0-5.2-0.7-7.1-2.1c-1.9-1.4-2.8-3.3-2.8-5.5
			c0-2.7,1.2-4.9,3.7-6.6c2.4-1.7,5.5-2.6,9.2-2.6c1.7,0,3.6,0.2,5.7,0.6c1.2,0.2,2.4,0.5,3.5,0.8c1.4,0.4,2.4,1.6,2.4,3.1V260.5z"
			/>
		<path class="st8" d="M397.1,254.6c-1.1-2.5-2.8-4.8-5.3-6.7c-2.5-2-5.8-3.8-9.9-5.5c-4.1-1.7-9.2-3.3-15.2-4.8
			c-5-1.2-8.3-2.3-10-3.3c-1.7-1-2.5-2.2-2.5-3.8c0-1.4,0.6-2.5,1.7-3.1c1.2-0.7,2.6-1,4.4-1c3.1,0,6.4,0.7,9.8,2.1
			c2.9,1.1,6.3,2.9,10.2,5.3c1.5,0.9,3.6,0.5,4.5-1l8.1-12.4c0.9-1.4,0.6-3.2-0.8-4.2c-4.8-3.7-9.6-6.2-14.4-7.5
			c-5.6-1.5-11.4-2.3-17.5-2.3c-5,0-9.6,0.7-13.7,2.1c-4.2,1.4-7.8,3.3-10.8,5.9c-3,2.6-5.4,5.6-7.1,9c-1.7,3.5-2.5,7.3-2.5,11.3
			c0,3.1,0.5,5.7,1.6,8c1.1,2.2,2.8,4.3,5.3,6.1c2.5,1.8,5.7,3.6,9.7,5.1c4,1.6,8.9,3.2,14.8,4.8c4.8,1.3,8,2.5,9.6,3.5
			c1.6,1,2.5,2.3,2.5,3.7c0,2.6-2.1,3.8-6.3,3.8c-4,0-8.4-0.9-13.3-2.8c-3.9-1.5-8-3.5-12.1-6c-1.6-1-3.7-0.4-4.6,1.1l-7.3,12.3
			c-0.8,1.4-0.5,3.1,0.8,4.1c4.4,3.5,9.7,6.3,15.7,8.2c7,2.3,14.1,3.5,21.4,3.5c5.4,0,10.2-0.6,14.5-1.8c4.3-1.2,7.9-3,11-5.4
			c3-2.4,5.3-5.2,6.9-8.4c1.6-3.3,2.4-7,2.4-11.2C398.6,260,398.1,257.1,397.1,254.6z"/>
	</g>
	<g>
		<path class="st9" d="M60.7,316.6c0-0.5,0.1-1.1,0.3-1.6c0.2-0.5,0.5-1,0.9-1.4c0.4-0.4,0.8-0.8,1.4-1c0.5-0.3,1.2-0.4,1.9-0.4
			c0.8,0,1.5,0.2,2.1,0.5c0.6,0.4,1,0.8,1.3,1.4l-1.3,0.9c-0.1-0.3-0.3-0.5-0.4-0.6s-0.3-0.3-0.5-0.4c-0.2-0.1-0.4-0.2-0.6-0.2
			c-0.2,0-0.4-0.1-0.6-0.1c-0.4,0-0.8,0.1-1.1,0.3c-0.3,0.2-0.6,0.4-0.8,0.7c-0.2,0.3-0.4,0.6-0.5,1c-0.1,0.4-0.2,0.7-0.2,1.1
			c0,0.4,0.1,0.8,0.2,1.1c0.1,0.4,0.3,0.7,0.5,1c0.2,0.3,0.5,0.5,0.8,0.7c0.3,0.2,0.7,0.3,1.1,0.3c0.2,0,0.4,0,0.6-0.1
			c0.2-0.1,0.4-0.1,0.6-0.2c0.2-0.1,0.4-0.2,0.5-0.4c0.2-0.2,0.3-0.4,0.4-0.6l1.4,0.8c-0.1,0.3-0.3,0.6-0.6,0.9
			c-0.3,0.3-0.6,0.5-0.9,0.6c-0.3,0.2-0.7,0.3-1.1,0.4c-0.4,0.1-0.7,0.1-1.1,0.1c-0.6,0-1.2-0.1-1.7-0.4c-0.5-0.3-1-0.6-1.4-1
			c-0.4-0.4-0.7-0.9-0.9-1.5C60.8,317.7,60.7,317.2,60.7,316.6z"/>
		<path class="st9" d="M76,321.2c-0.7,0-1.2-0.1-1.8-0.4c-0.5-0.3-1-0.6-1.4-1c-0.4-0.4-0.7-0.9-0.9-1.4c-0.2-0.5-0.3-1.1-0.3-1.7
			c0-0.6,0.1-1.2,0.3-1.7c0.2-0.5,0.5-1,0.9-1.4c0.4-0.4,0.8-0.7,1.4-1c0.5-0.2,1.1-0.4,1.7-0.4c0.6,0,1.2,0.1,1.8,0.4
			c0.5,0.3,1,0.6,1.4,1c0.4,0.4,0.7,0.9,0.9,1.5c0.2,0.5,0.3,1.1,0.3,1.7c0,0.6-0.1,1.2-0.3,1.7c-0.2,0.5-0.5,1-0.9,1.4
			c-0.4,0.4-0.8,0.7-1.4,1C77.2,321.1,76.7,321.2,76,321.2z M73.5,316.7c0,0.4,0.1,0.8,0.2,1.1c0.1,0.4,0.3,0.7,0.5,1
			c0.2,0.3,0.5,0.5,0.8,0.7c0.3,0.2,0.7,0.3,1.1,0.3c0.4,0,0.8-0.1,1.1-0.3c0.3-0.2,0.6-0.4,0.8-0.7c0.2-0.3,0.4-0.6,0.5-1
			c0.1-0.4,0.2-0.7,0.2-1.1c0-0.4-0.1-0.8-0.2-1.1c-0.1-0.4-0.3-0.7-0.5-1c-0.2-0.3-0.5-0.5-0.8-0.7c-0.3-0.2-0.7-0.2-1.1-0.2
			c-0.4,0-0.8,0.1-1.1,0.3c-0.3,0.2-0.6,0.4-0.8,0.7c-0.2,0.3-0.4,0.6-0.5,1C73.5,315.9,73.5,316.3,73.5,316.7z"/>
		<path class="st9" d="M86,315.4v5.7h-1.7v-8.9h1.3l4.6,5.8v-5.8h1.7v8.9h-1.4L86,315.4z"/>
		<path class="st9" d="M96.3,321.1v-8.9h6v1.5H98v2.3h3.5v1.4H98v3.7H96.3z"/>
		<path class="st9" d="M109.6,321.2c-0.7,0-1.2-0.1-1.8-0.4c-0.5-0.3-1-0.6-1.4-1c-0.4-0.4-0.7-0.9-0.9-1.4
			c-0.2-0.5-0.3-1.1-0.3-1.7c0-0.6,0.1-1.2,0.3-1.7c0.2-0.5,0.5-1,0.9-1.4c0.4-0.4,0.8-0.7,1.4-1c0.5-0.2,1.1-0.4,1.7-0.4
			c0.6,0,1.2,0.1,1.8,0.4c0.5,0.3,1,0.6,1.4,1c0.4,0.4,0.7,0.9,0.9,1.5c0.2,0.5,0.3,1.1,0.3,1.7c0,0.6-0.1,1.2-0.3,1.7
			c-0.2,0.5-0.5,1-0.9,1.4c-0.4,0.4-0.8,0.7-1.4,1C110.8,321.1,110.2,321.2,109.6,321.2z M107,316.7c0,0.4,0.1,0.8,0.2,1.1
			c0.1,0.4,0.3,0.7,0.5,1c0.2,0.3,0.5,0.5,0.8,0.7c0.3,0.2,0.7,0.3,1.1,0.3c0.4,0,0.8-0.1,1.1-0.3c0.3-0.2,0.6-0.4,0.8-0.7
			c0.2-0.3,0.4-0.6,0.5-1c0.1-0.4,0.2-0.7,0.2-1.1c0-0.4-0.1-0.8-0.2-1.1c-0.1-0.4-0.3-0.7-0.5-1c-0.2-0.3-0.5-0.5-0.8-0.7
			c-0.3-0.2-0.7-0.2-1.1-0.2c-0.4,0-0.8,0.1-1.1,0.3c-0.3,0.2-0.6,0.4-0.8,0.7c-0.2,0.3-0.4,0.6-0.5,1
			C107.1,315.9,107,316.3,107,316.7z"/>
		<path class="st9" d="M117.8,321.1v-8.9h3.9c0.4,0,0.8,0.1,1.1,0.3c0.3,0.2,0.6,0.4,0.9,0.7c0.3,0.3,0.4,0.6,0.6,1
			c0.1,0.4,0.2,0.7,0.2,1.1c0,0.6-0.1,1.1-0.4,1.6c-0.3,0.5-0.7,0.8-1.2,1l2,3.3H123l-1.8-3h-1.7v3H117.8z M119.5,316.6h2.2
			c0.2,0,0.3,0,0.4-0.1c0.1-0.1,0.3-0.2,0.4-0.3c0.1-0.1,0.2-0.3,0.2-0.5c0.1-0.2,0.1-0.4,0.1-0.6c0-0.2,0-0.4-0.1-0.6
			c-0.1-0.2-0.2-0.3-0.3-0.5c-0.1-0.1-0.2-0.2-0.4-0.3c-0.1-0.1-0.3-0.1-0.4-0.1h-2.1V316.6z"/>
		<path class="st9" d="M135.9,321.1v-5.9l-2.3,4.4h-0.9l-2.3-4.4v5.9h-1.7v-8.9h1.9l2.6,5.1l2.7-5.1h1.8v8.9H135.9z"/>
		<path class="st9" d="M141.9,321.1v-8.9h1.7v8.9H141.9z"/>
		<path class="st9" d="M148,321.1v-8.9h3.2c0.7,0,1.4,0.1,1.9,0.4c0.5,0.2,1,0.6,1.4,1c0.4,0.4,0.6,0.9,0.8,1.4
			c0.2,0.5,0.3,1.1,0.3,1.7c0,0.7-0.1,1.3-0.3,1.8c-0.2,0.5-0.5,1-0.9,1.4c-0.4,0.4-0.8,0.7-1.4,0.9c-0.5,0.2-1.1,0.3-1.8,0.3H148z
			 M153.9,316.7c0-0.4-0.1-0.8-0.2-1.2c-0.1-0.4-0.3-0.7-0.5-0.9c-0.2-0.3-0.5-0.5-0.8-0.6c-0.3-0.1-0.7-0.2-1.1-0.2h-1.5v5.9h1.5
			c0.4,0,0.8-0.1,1.1-0.2c0.3-0.2,0.6-0.4,0.8-0.6c0.2-0.3,0.4-0.6,0.5-0.9C153.9,317.5,153.9,317.1,153.9,316.7z"/>
		<path class="st9" d="M161.7,312.2h1.5l3.4,8.9h-1.8l-0.8-2.2h-3.1l-0.8,2.2h-1.8L161.7,312.2z M163.7,317.7l-1.2-3.5l-1.3,3.5
			H163.7z"/>
		<path class="st9" d="M170.1,321.1v-8.9h3.2c0.7,0,1.4,0.1,1.9,0.4c0.5,0.2,1,0.6,1.4,1c0.4,0.4,0.6,0.9,0.8,1.4
			c0.2,0.5,0.3,1.1,0.3,1.7c0,0.7-0.1,1.3-0.3,1.8c-0.2,0.5-0.5,1-0.9,1.4c-0.4,0.4-0.8,0.7-1.4,0.9c-0.5,0.2-1.1,0.3-1.8,0.3H170.1
			z M176,316.7c0-0.4-0.1-0.8-0.2-1.2c-0.1-0.4-0.3-0.7-0.5-0.9c-0.2-0.3-0.5-0.5-0.8-0.6c-0.3-0.1-0.7-0.2-1.1-0.2h-1.5v5.9h1.5
			c0.4,0,0.8-0.1,1.1-0.2c0.3-0.2,0.6-0.4,0.8-0.6c0.2-0.3,0.4-0.6,0.5-0.9C175.9,317.5,176,317.1,176,316.7z"/>
		<path class="st9" d="M187.8,319.6v1.5h-6.2v-8.9h6.1v1.5h-4.3v2.1h3.7v1.4h-3.7v2.3H187.8z"/>
		<path class="st9" d="M199.3,312.2h1.5l3.4,8.9h-1.8l-0.8-2.2h-3.1l-0.8,2.2h-1.8L199.3,312.2z M201.3,317.7l-1.2-3.5l-1.3,3.5
			H201.3z"/>
		<path class="st9" d="M214.9,321.1v-5.9l-2.3,4.4h-0.9l-2.3-4.4v5.9h-1.7v-8.9h1.9l2.6,5.1l2.7-5.1h1.8v8.9H214.9z"/>
		<path class="st9" d="M228.2,318.8c0,0.4-0.1,0.7-0.2,1c-0.2,0.3-0.4,0.5-0.6,0.7c-0.3,0.2-0.6,0.3-0.9,0.4
			c-0.3,0.1-0.7,0.2-1.1,0.2H221v-8.9h4.8c0.3,0,0.6,0.1,0.8,0.2c0.3,0.1,0.5,0.3,0.6,0.5c0.2,0.2,0.3,0.5,0.4,0.7
			c0.1,0.3,0.1,0.5,0.1,0.8c0,0.4-0.1,0.8-0.3,1.2c-0.2,0.4-0.5,0.7-1,0.8c0.5,0.2,0.9,0.4,1.2,0.8S228.2,318.2,228.2,318.8z
			 M222.8,313.7v2.2h2.3c0.3,0,0.5-0.1,0.7-0.3c0.2-0.2,0.3-0.5,0.3-0.8c0-0.3-0.1-0.6-0.3-0.8c-0.2-0.2-0.4-0.3-0.7-0.3H222.8z
			 M226.5,318.5c0-0.2,0-0.3-0.1-0.5c-0.1-0.1-0.1-0.3-0.2-0.4c-0.1-0.1-0.2-0.2-0.3-0.3c-0.1-0.1-0.3-0.1-0.4-0.1h-2.7v2.3h2.6
			c0.2,0,0.3,0,0.4-0.1c0.1-0.1,0.3-0.1,0.4-0.2c0.1-0.1,0.2-0.2,0.2-0.4C226.4,318.8,226.5,318.7,226.5,318.5z"/>
		<path class="st9" d="M232.1,321.1v-8.9h1.7v8.9H232.1z"/>
		<path class="st9" d="M244.3,319.6v1.5h-6.2v-8.9h6.1v1.5h-4.3v2.1h3.7v1.4h-3.7v2.3H244.3z"/>
		<path class="st9" d="M249.9,315.4v5.7h-1.7v-8.9h1.3l4.6,5.8v-5.8h1.7v8.9h-1.4L249.9,315.4z"/>
		<path class="st9" d="M266.9,313.7h-2.8v7.4h-1.7v-7.4h-2.8v-1.5h7.4V313.7z"/>
		<path class="st9" d="M272.2,312.2h1.5l3.4,8.9h-1.8l-0.8-2.2h-3.1l-0.8,2.2h-1.8L272.2,312.2z M274.2,317.7l-1.2-3.5l-1.3,3.5
			H274.2z"/>
		<path class="st9" d="M280.6,321.1v-8.9h1.7v7.4h4.5v1.5H280.6z"/>
		<path class="st9" d="M301.7,319.6v1.5h-6.2v-8.9h6.1v1.5h-4.3v2.1h3.7v1.4h-3.7v2.3H301.7z"/>
		<path class="st9" d="M311.1,321.1v-8.9h6v1.5h-4.2v2.3h3.5v1.4h-3.5v3.7H311.1z"/>
		<path class="st9" d="M324.6,319.6c0.4,0,0.8-0.1,1-0.3c0.3-0.2,0.5-0.4,0.7-0.7s0.3-0.6,0.4-0.9c0.1-0.3,0.1-0.7,0.1-1.1v-4.5h1.7
			v4.5c0,0.6-0.1,1.2-0.2,1.7c-0.1,0.5-0.4,1-0.7,1.4c-0.3,0.4-0.7,0.7-1.2,1c-0.5,0.2-1.1,0.4-1.8,0.4c-0.7,0-1.3-0.1-1.8-0.4
			c-0.5-0.2-0.9-0.6-1.2-1c-0.3-0.4-0.5-0.9-0.7-1.4c-0.1-0.5-0.2-1.1-0.2-1.7v-4.5h1.7v4.5c0,0.4,0,0.7,0.1,1.1
			c0.1,0.3,0.2,0.7,0.4,0.9c0.2,0.3,0.4,0.5,0.7,0.6C323.8,319.6,324.2,319.6,324.6,319.6z"/>
		<path class="st9" d="M334.4,315.4v5.7h-1.7v-8.9h1.3l4.6,5.8v-5.8h1.7v8.9H339L334.4,315.4z"/>
		<path class="st9" d="M344.8,321.1v-8.9h3.2c0.7,0,1.4,0.1,1.9,0.4c0.5,0.2,1,0.6,1.4,1c0.4,0.4,0.6,0.9,0.8,1.4
			c0.2,0.5,0.3,1.1,0.3,1.7c0,0.7-0.1,1.3-0.3,1.8c-0.2,0.5-0.5,1-0.9,1.4c-0.4,0.4-0.8,0.7-1.4,0.9c-0.5,0.2-1.1,0.3-1.8,0.3H344.8
			z M350.7,316.7c0-0.4-0.1-0.8-0.2-1.2c-0.1-0.4-0.3-0.7-0.5-0.9c-0.2-0.3-0.5-0.5-0.8-0.6c-0.3-0.1-0.7-0.2-1.1-0.2h-1.5v5.9h1.5
			c0.4,0,0.8-0.1,1.1-0.2c0.3-0.2,0.6-0.4,0.8-0.6c0.2-0.3,0.4-0.6,0.5-0.9C350.6,317.5,350.7,317.1,350.7,316.7z"/>
		<path class="st9" d="M356.3,321.1v-8.9h1.7v8.9H356.3z"/>
		<path class="st9" d="M364.9,312.2h1.5l3.4,8.9H368l-0.8-2.2h-3.1l-0.8,2.2h-1.8L364.9,312.2z M366.9,317.7l-1.2-3.5l-1.3,3.5
			H366.9z M366.1,311.5l-1.1-0.3l0.7-1.5h1.6L366.1,311.5z"/>
		<path class="st9" d="M373.3,321.1v-8.9h3.9c0.4,0,0.8,0.1,1.1,0.3s0.6,0.4,0.9,0.7c0.3,0.3,0.4,0.6,0.6,1c0.1,0.4,0.2,0.7,0.2,1.1
			c0,0.6-0.1,1.1-0.4,1.6c-0.3,0.5-0.7,0.8-1.2,1l2,3.3h-1.9l-1.8-3H375v3H373.3z M375,316.6h2.2c0.2,0,0.3,0,0.4-0.1
			c0.1-0.1,0.3-0.2,0.4-0.3c0.1-0.1,0.2-0.3,0.2-0.5c0.1-0.2,0.1-0.4,0.1-0.6c0-0.2,0-0.4-0.1-0.6c-0.1-0.2-0.2-0.3-0.3-0.5
			c-0.1-0.1-0.2-0.2-0.4-0.3c-0.1-0.1-0.3-0.1-0.4-0.1H375V316.6z"/>
		<path class="st9" d="M384.1,321.1v-8.9h1.7v8.9H384.1z"/>
		<path class="st9" d="M392.7,312.2h1.5l3.4,8.9h-1.8l-0.8-2.2h-3.1l-0.8,2.2h-1.8L392.7,312.2z M394.7,317.7l-1.2-3.5l-1.3,3.5
			H394.7z"/>
	</g>
</g>
<path class="st8" d="M341,47.1h-5.6h-70.4c-0.6,0-1.1-0.2-1.4-0.6l-16.5-18l-7.1-7.8c-1-1.1-2.5-1.8-4-1.8h-32.2
	c-6.7,0-12.5,3.9-15.2,9.6c-1.1,2.2-1.7,4.7-1.7,7.3v75.4c0,0.4,0.1,0.7,0.2,1.1c0.1,0.4,0.3,0.3,0.6,0c1.3-0.1,2.5-0.1,3.8-0.1
	l2.2,0.2c0.1,0,0.1-0.1,0.2-0.3c0.1-0.3,0.1-0.6,0.1-0.9V35.8c0-2.6,1-5,2.7-6.8c0.4-0.4,0.9-0.6,1.4-0.6l38.7,0
	c0.6,0,1.1,0.2,1.4,0.6l21.3,23.3c1,1.1,2.5,1.8,4,1.8h71.9h5.6c6.5,0,11.8,5.3,11.8,11.8v76.6c0,6.5-5.3,11.8-11.8,11.8h-5.6h-43
	c-0.5,0.3-1.1,0.6-1.6,0.9l-2.1,3.1c-0.9,1.3,0,3.1,1.6,3.1h45.1h5.6c10.4,0,18.8-8.4,18.8-18.8V66C359.9,55.6,351.4,47.1,341,47.1z
	"/>
<path class="st10" d="M159.1,151.4c48.1-30.7,122.4-32.3,122.4-32.3l-0.8-9.5c0,0-87.3,2.1-121.6,11.7V151.4z"/>
<path class="st11" d="M185.6,191.7c57.4-48.9,128.3-72.3,128.3-72.3l-3.1-4.6c0,0-90.4,3-151.6,41.3v35.6H185.6z"/>
<path class="st9" d="M275.9,191.7c33.6-60,56.1-71.8,56.1-71.8l-4.7-2.9c0,0-87.7,12.1-138.9,74.6H275.9z"/>
<path class="st8" d="M297.4,110.5c-40-4.2-78.1-5.9-116.9,2.1l-21.4,5.4v7.5c35.1-10.1,72.4-13.9,108.9-11.2c-8.5,1-16.9,2.3-25.3,4
	c-29.3,5.9-57.4,15.8-83.6,29.4v8.4c26.6-14.2,55.2-24.5,85.1-30.5c17.5-3.5,35.3-5.5,53.1-6c-40.4,10.8-78.8,35.7-111.7,72.1h10.1
	c37.4-39.4,82-64,127.4-69.6c-20.8,17.4-38.5,41.1-52.7,69.6h8.3c15.6-30.3,35.4-54.5,58.7-71.3c1.3-0.9,1.9-2.7,1.3-4.2
	c-0.4-1.3-1.5-2.2-2.9-2.4l-0.3,0"/>
</svg>
