<?xml version="1.0" encoding="utf-8"?>
<!-- Generator: Adobe Illustrator 22.0.1, SVG Export Plug-In . SVG Version: 6.00 Build 0)  -->
<svg version="1.1" id="Camada_1" xmlns="http://www.w3.org/2000/svg" xmlns:xlink="http://www.w3.org/1999/xlink" x="0px" y="0px"
	 viewBox="0 0 601 181.5" style="enable-background:new 0 0 601 181.5;" xml:space="preserve">
<style type="text/css">
	.st0{fill:#196433;}
	.st1{fill:#7CBA43;}
	.st2{fill:#CDDC94;}
</style>
<g>
	<g>
		<path class="st0" d="M524.3,89.5c-0.9-0.3-1.7-0.8-2.2-1.4c-0.8-1.1-1.3-3-1.3-5.8V66.6c0-11.4-3.6-20-10.8-25.8
			c-7.2-5.7-17.5-8.6-30.8-8.6c-13,0-24.7,2.9-35,8.7c-1.5,0.8-2.1,2.6-1.4,4.1l5.9,12.2c0.8,1.7,3,2.3,4.7,1.4
			c3.3-1.9,6.5-3.5,9.6-4.6c4-1.5,8.4-2.2,13.2-2.2c5.1,0,8.8,0.9,11,2.8c2.3,1.8,3.4,4.7,3.4,8.4v2.5c-4.4-2-10.1-3.1-16.8-3.1
			c-5.3,0-10.1,0.7-14.5,2c-4.4,1.3-8.2,3.2-11.4,5.7c-3.2,2.5-5.7,5.4-7.5,8.7c-1.7,3.2-2.6,6.8-2.7,10.7c-0.1,0-0.2-0.1-0.2-0.1
			c-0.9-0.3-1.7-0.8-2.2-1.4c-0.8-1.1-1.3-3-1.3-5.8V66.6c0-11.4-3.6-20-10.8-25.8c-7.2-5.7-17.5-8.6-30.8-8.6
			c-13,0-24.7,2.9-35,8.7c-1.5,0.8-2.1,2.6-1.4,4.1l5.9,12.2c0.8,1.7,3,2.3,4.7,1.4c3.3-1.9,6.5-3.5,9.6-4.6c4-1.5,8.4-2.2,13.2-2.2
			c5.1,0,8.8,0.9,11,2.8c2.3,1.8,3.4,4.7,3.4,8.4v2.5c-4.4-2-10.1-3.1-16.8-3.1c-5.3,0-10.1,0.7-14.5,2c-4.4,1.3-8.2,3.2-11.4,5.7
			c-3.2,2.5-5.7,5.4-7.5,8.7c-1.8,3.4-2.7,7.1-2.7,11.2c0,0.5,0,0.9,0,1.3c-0.8-0.7-2-0.9-3.1-0.6c-0.2,0.1-0.4,0.1-0.6,0.2
			c-1.5,0.4-2.9,0.6-4.1,0.6c-5.2,0-7.8-3.1-7.8-9.2V7.6c0-1.8-1.5-3.2-3.3-3.2h-23.6c-1.8,0-3.3,1.4-3.3,3.2v60.8
			c-0.4-3.9-1.3-7.7-2.6-11.2c-2-5.1-4.6-9.5-8-13.2c-3.4-3.7-7.5-6.6-12.2-8.7c-4.8-2.1-9.9-3.1-15.4-3.1c-6.4,0-11.7,1.2-16,3.5
			c-1.9,1-3.7,2.3-5.4,3.7c-2.2,1.9-5.6,0.5-5.6-2.3V37c0-1.8-1.5-3.2-3.3-3.2h-19.6c-1.8,0-3.3,1.4-3.3,3.2v107
			c0,1.8,1.5,3.2,3.3,3.2h23.6c1.8,0,3.3-1.4,3.3-3.2v-32.3c0-2.7,3.3-4.2,5.5-2.4c1.5,1.3,3.1,2.3,4.9,3.3
			c4.4,2.3,9.7,3.5,15.7,3.5c5.1,0,9.8-1.1,14.1-3.1c4.3-2.1,8.1-5,11.3-8.8c3.2-3.8,5.7-8.3,7.5-13.4c1.2-3.5,2-7.2,2.4-11.1v13.2
			c0,7.6,2.2,13.3,6.5,17.3c4.3,4,10.5,6,18.6,6c4,0,8.3-0.5,12.8-1.4c3.5-0.7,6.7-1.6,9.7-2.8c1.4-0.6,2.3-2,2-3.5l-1.3-7.4
			c1.5,2.9,3.4,5.5,5.8,7.6c2.6,2.3,5.7,4.1,9.3,5.4c3.6,1.3,7.5,2,11.6,2c5.5,0,10.7-1.2,15.6-3.6c4.9-2.4,9.2-5.9,12.9-10.5
			l0.6,2.9c0.8,3.7,2.7,6.5,5.5,8.4c2.8,1.9,6.9,2.8,12.3,2.8c1.7,0,3.6-0.1,5.8-0.4c1.3-0.2,2.7-0.4,4.2-0.6
			c1.6-0.3,2.7-1.6,2.7-3.1l0-11.8c0,0.1,0.1,0.2,0.1,0.3c1.5,3.2,3.5,5.9,6.1,8.2c2.6,2.3,5.7,4.1,9.3,5.4c3.6,1.3,7.5,2,11.6,2
			c5.5,0,10.7-1.2,15.6-3.6c4.9-2.4,9.2-5.9,12.9-10.5l0.6,2.9c0.8,3.7,2.7,6.5,5.5,8.4c2.8,1.9,6.9,2.8,12.3,2.8
			c1.7,0,3.6-0.1,5.8-0.4c1.3-0.2,2.7-0.4,4.2-0.6c1.6-0.3,2.7-1.6,2.7-3.1V92.5C526.6,91.1,525.7,89.9,524.3,89.5z M273.8,80.6
			c-0.8,2.1-1.9,4-3.2,5.7c-1.3,1.6-2.9,2.9-4.8,3.8c-1.9,0.9-3.9,1.4-6.1,1.4c-3.2,0-6.2-1.2-9-3.5c-2.7-2.2-4.8-5-6.2-8.3
			c-0.2-0.4-0.3-0.8-0.3-1.3V66.1c0-0.7,0.2-1.3,0.6-1.9c3.8-5,8.4-7.4,13.7-7.4c5,0,9,1.5,12,4.6c3,3.1,4.5,7.2,4.5,12.3
			C275,76.1,274.6,78.4,273.8,80.6z M404.1,86.4c0,1-0.4,2-1.1,3c-0.7,1-1.7,1.9-2.9,2.7c-1.5,0.9-3.2,1.7-5.1,2.2
			c-1.9,0.6-3.8,0.8-5.6,0.8c-2.9,0-5.2-0.7-7.1-2.1c-1.9-1.4-2.8-3.3-2.8-5.5c0-2.7,1.2-4.9,3.7-6.6c2.4-1.7,5.5-2.6,9.2-2.6
			c1.7,0,3.6,0.2,5.7,0.6c1.2,0.2,2.4,0.5,3.5,0.8c1.4,0.4,2.4,1.6,2.4,3.1V86.4z M490.8,86.4c0,1-0.4,2-1.1,3
			c-0.7,1-1.7,1.9-2.9,2.7c-1.5,0.9-3.2,1.7-5.1,2.2c-1.9,0.6-3.8,0.8-5.6,0.8c-2.9,0-5.2-0.7-7.1-2.1c-1.9-1.4-2.8-3.3-2.8-5.5
			c0-2.7,1.2-4.9,3.7-6.6c2.4-1.7,5.5-2.6,9.2-2.6c1.7,0,3.6,0.2,5.7,0.6c1.2,0.2,2.4,0.5,3.5,0.8c1.4,0.4,2.4,1.6,2.4,3.1V86.4z"/>
		<path class="st0" d="M594.7,80.5c-1.1-2.5-2.8-4.8-5.3-6.7c-2.5-2-5.8-3.8-9.9-5.5c-4.1-1.7-9.2-3.3-15.2-4.8
			c-5-1.2-8.3-2.3-10-3.3c-1.7-1-2.5-2.2-2.5-3.8c0-1.4,0.6-2.5,1.7-3.1c1.2-0.7,2.6-1,4.4-1c3.1,0,6.3,0.7,9.8,2.1
			c2.9,1.1,6.3,2.9,10.2,5.3c1.5,0.9,3.6,0.5,4.5-1l8.1-12.4c0.9-1.4,0.6-3.2-0.8-4.2c-4.8-3.7-9.6-6.2-14.4-7.5
			c-5.6-1.5-11.4-2.3-17.5-2.3c-5,0-9.6,0.7-13.7,2.1c-4.2,1.4-7.8,3.3-10.8,5.9c-3,2.6-5.4,5.6-7.1,9c-1.7,3.5-2.5,7.3-2.5,11.3
			c0,3.1,0.5,5.7,1.6,8c1.1,2.2,2.8,4.3,5.3,6.1c2.5,1.8,5.7,3.6,9.7,5.1c4,1.6,8.9,3.2,14.8,4.8c4.8,1.3,8,2.5,9.6,3.5
			c1.6,1,2.5,2.3,2.5,3.7c0,2.6-2.1,3.8-6.3,3.8c-4,0-8.4-0.9-13.3-2.8c-3.9-1.5-8-3.5-12.1-6c-1.6-1-3.7-0.4-4.6,1.1l-7.3,12.3
			c-0.8,1.4-0.5,3.1,0.8,4.1c4.4,3.5,9.7,6.3,15.7,8.2c7,2.3,14.1,3.5,21.4,3.5c5.4,0,10.2-0.6,14.5-1.8c4.3-1.2,7.9-3,11-5.4
			c3-2.4,5.3-5.2,6.9-8.4c1.6-3.3,2.4-7,2.4-11.2C596.3,85.9,595.8,83,594.7,80.5z"/>
	</g>
	<g>
		<path class="st1" d="M258.4,142.5c0-0.5,0.1-1.1,0.3-1.6c0.2-0.5,0.5-1,0.9-1.4c0.4-0.4,0.8-0.8,1.4-1c0.5-0.3,1.2-0.4,1.9-0.4
			c0.8,0,1.5,0.2,2.1,0.5c0.6,0.4,1,0.8,1.3,1.4l-1.3,0.9c-0.1-0.3-0.3-0.5-0.4-0.6c-0.2-0.2-0.3-0.3-0.5-0.4
			c-0.2-0.1-0.4-0.2-0.6-0.2c-0.2,0-0.4-0.1-0.6-0.1c-0.4,0-0.8,0.1-1.1,0.3c-0.3,0.2-0.6,0.4-0.8,0.7c-0.2,0.3-0.4,0.6-0.5,1
			c-0.1,0.4-0.2,0.7-0.2,1.1c0,0.4,0.1,0.8,0.2,1.1c0.1,0.4,0.3,0.7,0.5,1s0.5,0.5,0.8,0.7c0.3,0.2,0.7,0.3,1.1,0.3
			c0.2,0,0.4,0,0.6-0.1c0.2-0.1,0.4-0.1,0.6-0.2c0.2-0.1,0.4-0.2,0.5-0.4c0.2-0.2,0.3-0.4,0.4-0.6l1.4,0.8c-0.1,0.3-0.3,0.6-0.6,0.9
			c-0.3,0.3-0.6,0.5-0.9,0.6c-0.3,0.2-0.7,0.3-1.1,0.4c-0.4,0.1-0.7,0.1-1.1,0.1c-0.6,0-1.2-0.1-1.7-0.4c-0.5-0.3-1-0.6-1.4-1
			c-0.4-0.4-0.7-0.9-0.9-1.5C258.5,143.7,258.4,143.1,258.4,142.5z"/>
		<path class="st1" d="M273.7,147.1c-0.7,0-1.2-0.1-1.8-0.4c-0.5-0.3-1-0.6-1.4-1c-0.4-0.4-0.7-0.9-0.9-1.4
			c-0.2-0.5-0.3-1.1-0.3-1.7c0-0.6,0.1-1.2,0.3-1.7c0.2-0.5,0.5-1,0.9-1.4c0.4-0.4,0.8-0.7,1.4-1c0.5-0.2,1.1-0.4,1.7-0.4
			c0.6,0,1.2,0.1,1.8,0.4c0.5,0.3,1,0.6,1.4,1c0.4,0.4,0.7,0.9,0.9,1.5c0.2,0.5,0.3,1.1,0.3,1.7c0,0.6-0.1,1.2-0.3,1.7
			c-0.2,0.5-0.5,1-0.9,1.4c-0.4,0.4-0.8,0.7-1.4,1C274.9,147,274.4,147.1,273.7,147.1z M271.1,142.6c0,0.4,0.1,0.8,0.2,1.1
			c0.1,0.4,0.3,0.7,0.5,1c0.2,0.3,0.5,0.5,0.8,0.7c0.3,0.2,0.7,0.3,1.1,0.3c0.4,0,0.8-0.1,1.1-0.3s0.6-0.4,0.8-0.7
			c0.2-0.3,0.4-0.6,0.5-1c0.1-0.4,0.2-0.7,0.2-1.1c0-0.4-0.1-0.8-0.2-1.1c-0.1-0.4-0.3-0.7-0.5-1c-0.2-0.3-0.5-0.5-0.8-0.7
			c-0.3-0.2-0.7-0.2-1.1-0.2c-0.4,0-0.8,0.1-1.1,0.3c-0.3,0.2-0.6,0.4-0.8,0.7c-0.2,0.3-0.4,0.6-0.5,1
			C271.2,141.9,271.1,142.2,271.1,142.6z"/>
		<path class="st1" d="M283.6,141.3v5.7h-1.7v-8.9h1.3l4.6,5.8v-5.8h1.7v8.9h-1.4L283.6,141.3z"/>
		<path class="st1" d="M294,147.1v-8.9h6v1.5h-4.2v2.3h3.5v1.4h-3.5v3.7H294z"/>
		<path class="st1" d="M307.3,147.1c-0.7,0-1.2-0.1-1.8-0.4c-0.5-0.3-1-0.6-1.4-1c-0.4-0.4-0.7-0.9-0.9-1.4
			c-0.2-0.5-0.3-1.1-0.3-1.7c0-0.6,0.1-1.2,0.3-1.7c0.2-0.5,0.5-1,0.9-1.4c0.4-0.4,0.8-0.7,1.4-1c0.5-0.2,1.1-0.4,1.7-0.4
			c0.6,0,1.2,0.1,1.8,0.4c0.5,0.3,1,0.6,1.4,1c0.4,0.4,0.7,0.9,0.9,1.5c0.2,0.5,0.3,1.1,0.3,1.7c0,0.6-0.1,1.2-0.3,1.7
			c-0.2,0.5-0.5,1-0.9,1.4c-0.4,0.4-0.8,0.7-1.4,1C308.5,147,307.9,147.1,307.3,147.1z M304.7,142.6c0,0.4,0.1,0.8,0.2,1.1
			c0.1,0.4,0.3,0.7,0.5,1c0.2,0.3,0.5,0.5,0.8,0.7c0.3,0.2,0.7,0.3,1.1,0.3c0.4,0,0.8-0.1,1.1-0.3s0.6-0.4,0.8-0.7
			c0.2-0.3,0.4-0.6,0.5-1c0.1-0.4,0.2-0.7,0.2-1.1c0-0.4-0.1-0.8-0.2-1.1c-0.1-0.4-0.3-0.7-0.5-1c-0.2-0.3-0.5-0.5-0.8-0.7
			c-0.3-0.2-0.7-0.2-1.1-0.2c-0.4,0-0.8,0.1-1.1,0.3c-0.3,0.2-0.6,0.4-0.8,0.7c-0.2,0.3-0.4,0.6-0.5,1
			C304.7,141.9,304.7,142.2,304.7,142.6z"/>
		<path class="st1" d="M315.5,147.1v-8.9h3.9c0.4,0,0.8,0.1,1.1,0.3s0.6,0.4,0.9,0.7s0.4,0.6,0.6,1c0.1,0.4,0.2,0.7,0.2,1.1
			c0,0.6-0.1,1.1-0.4,1.6c-0.3,0.5-0.7,0.8-1.2,1l2,3.3h-1.9l-1.8-3h-1.7v3H315.5z M317.2,142.6h2.2c0.2,0,0.3,0,0.4-0.1
			c0.1-0.1,0.3-0.2,0.4-0.3s0.2-0.3,0.2-0.5c0.1-0.2,0.1-0.4,0.1-0.6c0-0.2,0-0.4-0.1-0.6c-0.1-0.2-0.2-0.3-0.3-0.5
			c-0.1-0.1-0.2-0.2-0.4-0.3c-0.1-0.1-0.3-0.1-0.4-0.1h-2.1V142.6z"/>
		<path class="st1" d="M333.5,147.1v-5.9l-2.3,4.4h-0.9l-2.3-4.4v5.9h-1.7v-8.9h1.9l2.6,5.1l2.7-5.1h1.8v8.9H333.5z"/>
		<path class="st1" d="M339.6,147.1v-8.9h1.7v8.9H339.6z"/>
		<path class="st1" d="M345.7,147.1v-8.9h3.2c0.7,0,1.4,0.1,1.9,0.4c0.5,0.2,1,0.6,1.4,1c0.4,0.4,0.6,0.9,0.8,1.4
			c0.2,0.5,0.3,1.1,0.3,1.7c0,0.7-0.1,1.3-0.3,1.8c-0.2,0.5-0.5,1-0.9,1.4c-0.4,0.4-0.8,0.7-1.4,0.9c-0.5,0.2-1.1,0.3-1.8,0.3H345.7
			z M351.6,142.6c0-0.4-0.1-0.8-0.2-1.2c-0.1-0.4-0.3-0.7-0.5-0.9c-0.2-0.3-0.5-0.5-0.8-0.6c-0.3-0.1-0.7-0.2-1.1-0.2h-1.5v5.9h1.5
			c0.4,0,0.8-0.1,1.1-0.2c0.3-0.2,0.6-0.4,0.8-0.6c0.2-0.3,0.4-0.6,0.5-0.9C351.5,143.4,351.6,143,351.6,142.6z"/>
		<path class="st1" d="M359.4,138.2h1.5l3.4,8.9h-1.8l-0.8-2.2h-3.1l-0.8,2.2H356L359.4,138.2z M361.4,143.6l-1.2-3.5l-1.3,3.5
			H361.4z"/>
		<path class="st1" d="M367.8,147.1v-8.9h3.2c0.7,0,1.4,0.1,1.9,0.4c0.5,0.2,1,0.6,1.4,1c0.4,0.4,0.6,0.9,0.8,1.4
			c0.2,0.5,0.3,1.1,0.3,1.7c0,0.7-0.1,1.3-0.3,1.8c-0.2,0.5-0.5,1-0.9,1.4c-0.4,0.4-0.8,0.7-1.4,0.9c-0.5,0.2-1.1,0.3-1.8,0.3H367.8
			z M373.7,142.6c0-0.4-0.1-0.8-0.2-1.2c-0.1-0.4-0.3-0.7-0.5-0.9c-0.2-0.3-0.5-0.5-0.8-0.6c-0.3-0.1-0.7-0.2-1.1-0.2h-1.5v5.9h1.5
			c0.4,0,0.8-0.1,1.1-0.2c0.3-0.2,0.6-0.4,0.8-0.6c0.2-0.3,0.4-0.6,0.5-0.9C373.6,143.4,373.7,143,373.7,142.6z"/>
		<path class="st1" d="M385.5,145.5v1.5h-6.2v-8.9h6.1v1.5H381v2.1h3.7v1.4H381v2.3H385.5z"/>
		<path class="st1" d="M397,138.2h1.5l3.4,8.9h-1.8l-0.8-2.2h-3.1l-0.8,2.2h-1.8L397,138.2z M399,143.6l-1.2-3.5l-1.3,3.5H399z"/>
		<path class="st1" d="M412.6,147.1v-5.9l-2.3,4.4h-0.9l-2.3-4.4v5.9h-1.7v-8.9h1.9l2.6,5.1l2.7-5.1h1.8v8.9H412.6z"/>
		<path class="st1" d="M425.9,144.8c0,0.4-0.1,0.7-0.2,1c-0.2,0.3-0.4,0.5-0.6,0.7c-0.3,0.2-0.6,0.3-0.9,0.4
			c-0.3,0.1-0.7,0.2-1.1,0.2h-4.3v-8.9h4.8c0.3,0,0.6,0.1,0.8,0.2c0.3,0.1,0.5,0.3,0.6,0.5c0.2,0.2,0.3,0.5,0.4,0.7
			c0.1,0.3,0.1,0.5,0.1,0.8c0,0.4-0.1,0.8-0.3,1.2c-0.2,0.4-0.5,0.7-1,0.8c0.5,0.2,0.9,0.4,1.2,0.8
			C425.7,143.7,425.9,144.2,425.9,144.8z M420.5,139.6v2.2h2.3c0.3,0,0.5-0.1,0.7-0.3c0.2-0.2,0.3-0.5,0.3-0.8
			c0-0.3-0.1-0.6-0.3-0.8c-0.2-0.2-0.4-0.3-0.7-0.3H420.5z M424.1,144.4c0-0.2,0-0.3-0.1-0.5c-0.1-0.1-0.1-0.3-0.2-0.4
			c-0.1-0.1-0.2-0.2-0.3-0.3s-0.3-0.1-0.4-0.1h-2.7v2.3h2.6c0.2,0,0.3,0,0.4-0.1c0.1-0.1,0.3-0.1,0.4-0.2c0.1-0.1,0.2-0.2,0.2-0.4
			C424.1,144.7,424.1,144.6,424.1,144.4z"/>
		<path class="st1" d="M429.8,147.1v-8.9h1.7v8.9H429.8z"/>
		<path class="st1" d="M442,145.5v1.5h-6.2v-8.9h6.1v1.5h-4.3v2.1h3.7v1.4h-3.7v2.3H442z"/>
		<path class="st1" d="M447.6,141.3v5.7h-1.7v-8.9h1.3l4.6,5.8v-5.8h1.7v8.9h-1.4L447.6,141.3z"/>
		<path class="st1" d="M464.6,139.7h-2.8v7.4H460v-7.4h-2.8v-1.5h7.4V139.7z"/>
		<path class="st1" d="M469.9,138.2h1.5l3.4,8.9H473l-0.8-2.2h-3.1l-0.8,2.2h-1.8L469.9,138.2z M471.9,143.6l-1.2-3.5l-1.3,3.5
			H471.9z"/>
		<path class="st1" d="M478.3,147.1v-8.9h1.7v7.4h4.5v1.5H478.3z"/>
		<path class="st1" d="M499.4,145.5v1.5h-6.2v-8.9h6.1v1.5H495v2.1h3.7v1.4H495v2.3H499.4z"/>
		<path class="st1" d="M508.8,147.1v-8.9h6v1.5h-4.2v2.3h3.5v1.4h-3.5v3.7H508.8z"/>
		<path class="st1" d="M522.3,145.6c0.4,0,0.8-0.1,1-0.3c0.3-0.2,0.5-0.4,0.7-0.7c0.2-0.3,0.3-0.6,0.4-0.9c0.1-0.3,0.1-0.7,0.1-1.1
			v-4.5h1.7v4.5c0,0.6-0.1,1.2-0.2,1.7c-0.1,0.5-0.4,1-0.7,1.4c-0.3,0.4-0.7,0.7-1.2,1c-0.5,0.2-1.1,0.4-1.8,0.4
			c-0.7,0-1.3-0.1-1.8-0.4c-0.5-0.2-0.9-0.6-1.2-1c-0.3-0.4-0.5-0.9-0.7-1.4c-0.1-0.5-0.2-1.1-0.2-1.7v-4.5h1.7v4.5
			c0,0.4,0,0.7,0.1,1.1c0.1,0.3,0.2,0.7,0.4,0.9c0.2,0.3,0.4,0.5,0.7,0.6C521.5,145.5,521.9,145.6,522.3,145.6z"/>
		<path class="st1" d="M532.1,141.3v5.7h-1.7v-8.9h1.3l4.6,5.8v-5.8h1.7v8.9h-1.4L532.1,141.3z"/>
		<path class="st1" d="M542.5,147.1v-8.9h3.2c0.7,0,1.4,0.1,1.9,0.4c0.5,0.2,1,0.6,1.4,1c0.4,0.4,0.6,0.9,0.8,1.4
			c0.2,0.5,0.3,1.1,0.3,1.7c0,0.7-0.1,1.3-0.3,1.8c-0.2,0.5-0.5,1-0.9,1.4c-0.4,0.4-0.8,0.7-1.4,0.9c-0.5,0.2-1.1,0.3-1.8,0.3H542.5
			z M548.3,142.6c0-0.4-0.1-0.8-0.2-1.2c-0.1-0.4-0.3-0.7-0.5-0.9c-0.2-0.3-0.5-0.5-0.8-0.6c-0.3-0.1-0.7-0.2-1.1-0.2h-1.5v5.9h1.5
			c0.4,0,0.8-0.1,1.1-0.2c0.3-0.2,0.6-0.4,0.8-0.6c0.2-0.3,0.4-0.6,0.5-0.9C548.3,143.4,548.3,143,548.3,142.6z"/>
		<path class="st1" d="M553.9,147.1v-8.9h1.7v8.9H553.9z"/>
		<path class="st1" d="M562.6,138.2h1.5l3.4,8.9h-1.8l-0.8-2.2h-3.1l-0.8,2.2h-1.8L562.6,138.2z M564.6,143.6l-1.2-3.5l-1.3,3.5
			H564.6z M563.8,137.4l-1.1-0.3l0.7-1.5h1.6L563.8,137.4z"/>
		<path class="st1" d="M571,147.1v-8.9h3.9c0.4,0,0.8,0.1,1.1,0.3c0.3,0.2,0.6,0.4,0.9,0.7s0.4,0.6,0.6,1c0.1,0.4,0.2,0.7,0.2,1.1
			c0,0.6-0.1,1.1-0.4,1.6c-0.3,0.5-0.7,0.8-1.2,1l2,3.3h-1.9l-1.8-3h-1.7v3H571z M572.7,142.6h2.2c0.2,0,0.3,0,0.4-0.1
			c0.1-0.1,0.3-0.2,0.4-0.3s0.2-0.3,0.2-0.5c0.1-0.2,0.1-0.4,0.1-0.6c0-0.2,0-0.4-0.1-0.6c-0.1-0.2-0.2-0.3-0.3-0.5
			c-0.1-0.1-0.2-0.2-0.4-0.3c-0.1-0.1-0.3-0.1-0.4-0.1h-2.1V142.6z"/>
		<path class="st1" d="M581.8,147.1v-8.9h1.7v8.9H581.8z"/>
		<path class="st1" d="M590.4,138.2h1.5l3.4,8.9h-1.8l-0.8-2.2h-3.1l-0.8,2.2H587L590.4,138.2z M592.4,143.6l-1.2-3.5l-1.3,3.5
			H592.4z"/>
	</g>
	<path class="st2" d="M87.3,102.5c8.3-1.7,16.8-3.1,25.3-4.1c-36.2-2.8-73.1,1.1-107.9,11.2v22.7C30.6,118.5,58.4,108.5,87.3,102.5z
		"/>
	<g>
		<path class="st1" d="M141.8,103.8c-17.8,0.5-35.6,2.6-53.1,6.2c-24.6,5.1-48.3,13.2-70.8,24.1c-4.5,2.3-9,4.8-13.3,7.5v35.6h26.4
			C63.7,140.2,101.8,114.8,141.8,103.8z"/>
		<path class="st1" d="M82,141.2c22.4-13.3,43.3-22.8,57.7-28.8C119.8,118.5,100.4,128.2,82,141.2z"/>
	</g>
	<path class="st0" d="M167.7,106.4c-45,5.7-89.3,30.7-126.5,70.8h74.3C129.6,148.2,147.2,124.2,167.7,106.4z"/>
	<g>
		<path class="st0" d="M134.2,143.7c-0.3,0.4-0.4,0.9-0.3,1.4c1.1-1.7,2.3-3.4,3.5-5c-0.4,0.2-0.7,0.4-1,0.6L134.2,143.7z"/>
		<path class="st0" d="M186.5,32.6H181h-70.4c-0.6,0-1.1-0.2-1.4-0.6l-16.5-18l-7.1-7.8c-1-1.1-2.5-1.8-4-1.8H49.3
			c-6.7,0-12.5,3.9-15.2,9.6c-1.1,2.2-1.7,4.7-1.7,7.3v73.9c2.3-0.4,4.7-0.8,7-1.2V21.2c0-2.6,1-5,2.7-6.8c0.4-0.4,0.9-0.6,1.4-0.6
			l38.7,0c0.6,0,1.1,0.2,1.4,0.6L105,37.8c1,1.1,2.5,1.8,4,1.8H181h5.6c6.5,0,11.8,5.3,11.8,11.8V128c0,6.5-5.3,11.8-11.8,11.8H181
			h-34c-1.7,2.3-3.4,4.6-5.1,7H181h5.6c10.4,0,18.8-8.4,18.8-18.8V51.4C205.4,41,197,32.6,186.5,32.6z"/>
	</g>
</g>
</svg>
