<?xml version="1.0" encoding="UTF-8" standalone="no"?>
<!-- Created with Inkscape (http://www.inkscape.org/) -->

<svg
   xmlns:dc="http://purl.org/dc/elements/1.1/"
   xmlns:cc="http://creativecommons.org/ns#"
   xmlns:rdf="http://www.w3.org/1999/02/22-rdf-syntax-ns#"
   xmlns:svg="http://www.w3.org/2000/svg"
   xmlns="http://www.w3.org/2000/svg"
   xmlns:sodipodi="http://sodipodi.sourceforge.net/DTD/sodipodi-0.dtd"
   xmlns:inkscape="http://www.inkscape.org/namespaces/inkscape"
   width="137.78183mm"
   height="126.29442mm"
   viewBox="0 0 137.78183 126.29442"
   version="1.1"
   id="svg4028"
   inkscape:version="0.92.4 (5da689c313, 2019-01-14)"
   sodipodi:docname="yes.svg">
  <defs
     id="defs4022" />
  <sodipodi:namedview
     id="base"
     pagecolor="#ffffff"
     bordercolor="#666666"
     borderopacity="1.0"
     inkscape:pageopacity="0.0"
     inkscape:pageshadow="2"
     inkscape:zoom="0.35"
     inkscape:cx="-382.07007"
     inkscape:cy="-142.21591"
     inkscape:document-units="mm"
     inkscape:current-layer="layer1"
     showgrid="false"
     fit-margin-top="0"
     fit-margin-left="0"
     fit-margin-right="0"
     fit-margin-bottom="0"
     inkscape:window-width="1920"
     inkscape:window-height="1001"
     inkscape:window-x="-9"
     inkscape:window-y="-9"
     inkscape:window-maximized="1" />
  <metadata
     id="metadata4025">
    <rdf:RDF>
      <cc:Work
         rdf:about="">
        <dc:format>image/svg+xml</dc:format>
        <dc:type
           rdf:resource="http://purl.org/dc/dcmitype/StillImage" />
        <dc:title></dc:title>
      </cc:Work>
    </rdf:RDF>
  </metadata>
  <g
     inkscape:label="Camada 1"
     inkscape:groupmode="layer"
     id="layer1"
     transform="translate(-62.157824,15.089041)">
    <g
       style="display:inline"
       transform="matrix(0.35277777,0,0,-0.35277777,133.06756,229.02171)"
       id="g3944">
      <path
         inkscape:connector-curvature="0"
         id="path3942"
         style="display:inline;fill:none;stroke:#000000;stroke-width:6.4095993;stroke-linecap:butt;stroke-linejoin:miter;stroke-miterlimit:10;stroke-dasharray:none;stroke-opacity:1"
         d="M 2.4642747,564.25687 H -171.03979 V 395.0385 H 2.4642747 Z" />
    </g>
    <path
       transform="matrix(0.35277777,0,0,-0.35277777,133.06756,229.02171)"
       inkscape:connector-curvature="0"
       id="path3946"
       style="display:none;fill:#d70613;fill-opacity:1;fill-rule:nonzero;stroke:none"
       d="m -6.2657253,359.5095 c -1.939,2.026 4.56,0.488 3.938,3.769 -1.939,2.026 -5.818,6.08 -7.7599997,8.108 0.029,3.906 5.8769997,1.737 5.9029997,5.649 0.03,3.909 -9.0379997,10.756 -9.6649997,14.039 -4.512,7.339 5.8469997,-2.17 11.6629997,-8.249 -0.626,3.281 3.879,-4.052 5.192,-2.796 2.623,2.51 5.249,5.023 -0.541,15.009 -1.283,2.656 2.624,2.512 3.936,3.768 -23.2699997,24.314 -48.4789997,50.657 -74.3709997,72.458 -0.236,0.203 -0.472,0.422 -0.707,0.628 16.08,18.927 38.321,37.347 52.951,56.38 4.797,6.239 16.4809997,13.048 16.8549997,19.947 -1.815,-1.866 -3.63,-3.735 -5.445,-5.603 3.489,7.503 10.893,11.21 15.6870003,17.449 -1.303,1.266 -1.9530003,1.899 -0.788,4.403 -3.6320003,-3.737 -8.4260003,-9.977 -12.7120003,-13.083 l -1.952,1.897 c 2.981,4.374 9.73,8.713 12.712,13.083 -0.653,0.634 -1.956,1.9 -2.607,2.533 -0.65,0.632 1.166,2.502 2.98,4.368 -1.814,-1.866 -5.449,-5.607 -7.262,-7.474 -0.652,0.632 -1.954,1.899 -2.605,2.53 -0.652,0.635 1.161,2.501 2.98,4.373 -1.301,1.264 -0.788,4.4 -3.255,3.163 -1.818,-1.871 -3.633,-3.738 -5.448,-5.607 6.612,8.11 6.989,15.011 5.035,16.909 -1.166,-2.504 -3.121,-0.605 -4.283,-3.105 3.492,7.504 6.336,15.641 -1.577,8.799 -30.5459997,-29.612 -60.4909997,-60.599 -90.0709997,-91.994 -11.223005,12.126 -22.435005,24.375 -33.857005,33.992 -6.475,5.452 -13.543,18.094 -20.7,19.006 1.938,-2.025 3.877,-4.051 5.815,-6.077 -7.785,4.192 -11.633,12.157 -18.107,17.606 -1.313,-1.257 -1.968,-1.884 -4.567,-0.484 3.879,-4.053 10.353,-9.502 13.577,-14.186 l -1.966,-1.882 c -4.539,3.426 -9.043,10.76 -13.577,14.186 -0.657,-0.629 -1.97,-1.885 -2.626,-2.513 -0.655,-0.627 -2.595,1.399 -4.532,3.424 1.937,-2.025 5.818,-6.08 7.756,-8.105 -0.656,-0.627 -1.969,-1.883 -2.624,-2.509 -0.657,-0.63 -2.594,1.394 -4.536,3.423 -1.311,-1.254 -4.564,-0.484 -3.279,-3.138 1.941,-2.03 3.879,-4.054 5.818,-6.08 -8.415,7.477 -15.573,8.392 -17.542,6.508 2.599,-1.4 0.63,-3.284 3.224,-4.68 -7.785,4.194 -16.227,7.762 -9.126,-0.968 23.607,-26.079 48.059,-51.85 72.892,-77.395 -24.326,-26.142 -48.45,-52.36 -72.494,-78.111 -2.98,-4.372 0.142,-3.764 1.444,-5.029 7.259,7.47 13.871,15.579 20.62,19.919 1.817,1.869 0.793,-4.397 3.91,-3.799 1.816,1.868 5.448,5.606 7.267,7.478 3.766,-0.03 2.088,-5.666 5.86,-5.695 3.767,-0.031 9.726,8.71 12.845,9.312 6.754,4.347 -1.679,-5.635 -7.125,-11.24 3.117,0.601 -3.632,-3.738 -2.33,-5.003 2.605,-2.532 5.211,-5.064 14.426,0.512 2.468,1.236 2.605,-2.531 3.907,-3.797 13.796,14.198 28.317,29.146 41.985005,44.536 34.774,-35.184 69.945,-69.983 104.3139997,-104.591 4.5360003,-3.425 3.9040003,-0.139 5.2160003,1.117 -7.7510003,8.099 -16.1660003,15.578 -20.6710003,22.912" />
    <g
       style="display:inline"
       transform="matrix(0.35277777,0,0,-0.35277777,98.677822,52.32926)"
       id="g3938">
      <path
         inkscape:connector-curvature="0"
         id="path3940"
         style="fill:#00d800;fill-opacity:1;fill-rule:nonzero;stroke:none"
         d="M 0,0 C 2.334,-2.401 4.676,-4.867 7.023,-7.389 7.609,-8.021 8.196,-8.654 8.786,-9.29 l 0.881,-0.959 c 0.146,-0.145 0.169,-0.148 0.258,-0.23 0.28,-0.247 0.562,-0.495 0.845,-0.745 0.543,-0.492 1.048,-0.982 1.539,-1.486 l 0.726,-0.769 0.359,-0.396 0.179,-0.2 0.089,-0.101 0.045,-0.052 c 0.014,0.006 0.027,0.035 0.042,0.051 1.063,1.443 2.237,2.81 3.434,4.152 5.836,7.083 11.852,14.135 17.79,21.081 11.906,13.894 23.682,27.424 34.277,40.4 35.539,44.162 80.031,87.19 125.219,122.521 1.114,-1.433 -0.929,-6.515 3.363,-4.287 2.075,1.199 3.913,2.214 5.575,3.034 1.673,0.806 3.145,1.443 4.445,1.938 2.599,0.987 4.509,1.4 5.962,1.431 2.906,0.063 3.987,-1.397 5.073,-2.852 1.088,-1.455 -11.215,-8.483 -6.381,-7.104 -2.821,-2.089 -5.974,-4.702 -9.007,-7.229 -3.02,-2.543 -5.927,-4.995 -8.022,-7.048 -4.232,-4.059 -5.596,-6.059 0.388,-2.323 4.701,1.582 18.243,14.514 23.653,15.075 5.334,0.618 -0.395,-7.131 4.924,-6.52 1.845,1.372 4.562,3.501 7.356,5.513 2.792,2.017 5.584,4.033 7.444,5.376 4.757,1.192 -0.531,-7.108 3.17,-4.434 12.153,6.442 26.639,17.367 42.191,26.56 0.461,-0.782 1.926,-0.971 2.333,-1.654 0.203,-0.341 0.142,-0.806 -0.442,-1.53 -0.552,-0.719 -1.6,-1.694 -3.394,-3.057 -3.007,-1.888 -6.017,-3.778 -9.027,-5.668 -2.966,-1.98 -5.933,-3.96 -8.903,-5.942 -2.987,-1.945 -5.9,-4.034 -8.827,-6.101 -2.915,-2.088 -5.884,-4.082 -8.757,-6.248 -11.611,-8.461 -22.949,-17.42 -34.155,-26.597 -11.125,-9.3 -22.12,-18.816 -32.874,-28.672 C 169.824,95.759 159.211,85.706 148.839,75.359 138.464,65.019 128.242,54.495 118.194,43.788 108.168,33.061 98.297,22.173 88.598,11.139 78.899,0.104 69.371,-11.078 60.033,-22.378 l -6.963,-8.497 -3.445,-4.267 -2.975,-3.718 -3.503,-4.418 -3.504,-4.418 -3.465,-4.512 -3.466,-4.514 -3.455,-4.6 c -4.609,-6.152 -9.216,-12.301 -13.822,-18.449 -13.507,15.852 -27,31.689 -40.477,47.507 -7.291,8.632 -14.574,17.253 -21.846,25.862 -14.508,17.249 -28.897,34.512 -43.138,51.786 -11.373,14.731 0.439,6.477 11.558,-2.36 -3.704,2.943 -1.631,4.711 -5.343,7.662 2.074,1.768 11.56,-2.36 24.318,-15.916 -3.017,3.537 -6.029,7.069 -9.049,10.61 -2.327,4.125 2.072,1.768 3.453,2.945 3.02,-3.54 6.033,-7.073 6.725,-6.482 0.69,0.588 2.072,1.767 2.763,2.356 -3.013,3.533 -9.049,10.61 -12.063,14.143 3.014,-3.533 6.03,-7.07 6.72,-6.481 0.691,0.589 2.073,1.768 2.766,2.359 6.722,-6.485 14.386,-18.27 21.115,-24.757 l 2.071,1.767 c -5.345,7.667 -15.083,17.683 -21.116,24.756 3.712,-2.95 4.402,-2.362 5.785,-1.182 9.738,-10.016 16.713,-22.395 27.831,-31.229 l -9.044,10.603 C -22.052,30.055 -9.741,10.02 0,0" />
    </g>
  </g>
</svg>
