<?xml version="1.0" encoding="utf-8"?>
<!-- Generator: Adobe Illustrator 22.0.0, SVG Export Plug-In . SVG Version: 6.00 Build 0)  -->
<svg version="1.1" id="Camada_1" xmlns="http://www.w3.org/2000/svg" xmlns:xlink="http://www.w3.org/1999/xlink" x="0px" y="0px"
	 viewBox="0 0 1563.6 844" style="enable-background:new 0 0 1563.6 844;" xml:space="preserve">
<g id="radial_rectangles">
</g>
<g id="Camada_3">
</g>
<g id="Camada_4">
</g>
<g id="Camada_5">
</g>
<g id="Camada_6">
</g>
<g id="Camada_7">
</g>
<g id="Camada_8">
</g>
<g id="Camada_9">
</g>
<g id="Camada_10">
</g>
<g>
	<path d="M76.5,61.9c14.1,0,43.2,2.2,87.2,6.5l52.6,1.4h1.7c23.2,0,40.7-1,52.3-3.1c3.9,14.1,5.8,31.1,5.8,50.9v2.4
		c0,8.7-1.8,13-5.5,13l-1.7,1.7c0,1.4,1.8,2.9,5.5,4.4l0.7,0.3v1.4c-1.6,3-7.2,4.8-16.7,5.5c-7.3,0-10.9-2.6-10.9-7.9l-1-11.3
		l1-21.5c0-3-9.3-4.4-28-4.4h-28.7l-16.1-0.3c-3.2,0-5.5,25.9-6.8,77.6c-1.8,42.8-2.7,71.8-2.7,86.8v14.4c0,4.3-1.5,8.5-4.4,12.6
		v0.3c2.3,0,3.8,3.4,4.4,10.3l-1.4,7.2h-0.7l-0.3-0.7v-2.7l-0.7,36.9c0,4.1,15.7,7.5,47.2,10.3c5.9,2.3,8.9,5.2,8.9,8.9
		c-2.7,5.2-4.1,12.4-4.1,21.5c-0.7,0-1,1.6-1,4.8l-2.1,1.4c-33.7-1.6-64.9-2.4-93.7-2.4h-10.9c-13.2,0-24.4,0.6-33.5,1.7
		c-0.7-0.9-2.1-11.3-4.1-31.1h0.7c1.8-3.4,9.6-6.4,23.2-8.9c0-1.4,11.2-2.2,33.5-2.4c2.5,0,4.3-10.3,5.5-30.8l2.4-30.4
		c-3-26-4.4-42.3-4.4-48.9l-5.1-94v-12l1-18.1l-1-5.8l1.7-3.8v-2.4c0-2.5-12.4-4.1-37.3-4.8c-18.2,0.9-27.3,2.2-27.3,3.8
		c-2.7,7.1-5.6,18-8.5,32.8l-3.4,3.1l-0.7-0.7h-3.4c-1.6,1.1-3.1,1.7-4.4,1.7l-13.3,1c0.9-22.3,1.4-36,1.4-41l-2.4-18.5
		c0-4.1,2.4-6.3,7.2-6.5l5.5-5.5h2.4l4.1,5.5h1.4c5.2-6.8,13-10.3,23.2-10.3H76.5z"/>
	<path d="M362.2,146.3c13.2,0,29.4,5.6,48.5,16.7c16.2,12.1,24.3,20.4,24.3,25c12.5,27.3,18.8,43.3,18.8,47.9l0.3,3.8
		c-4.8,10.9-7.2,18.5-7.2,22.6l-2.7,0.7h-40.7c-3.9,0-8.3,0.6-13.3,1.7c-45.8-3.6-77.7-5.5-95.7-5.5h-10.3
		c-3.9,5.7-5.8,9.6-5.8,11.6c2.3,4.1,3.4,9.7,3.4,16.7c0,12.3,1.8,19.5,5.5,21.5l0.7,2.4v0.3l-3.1-1v1l4.8,4.8
		c0,4.6,2.8,9.8,8.5,15.7c10.3,18.5,21.5,29.9,33.8,34.2c9.8,3.4,21.8,5.1,35.9,5.1c2.1,0,6.5-1.9,13.3-5.8
		c6.2-1.8,18.1-12.2,35.9-31.1v-1.4c0-0.7-2.1-1.2-6.2-1.7l-1-2.4c7.3-14.1,16.1-23.2,26.3-27.3c1.1,1.4,6.9,5.7,17.4,13
		c7.1,11.2,16.4,23.9,28,38.3v1.7c-10.3,13.2-17.7,19.8-22.2,19.8h-1.7c0-7.1-4.2-11-12.6-12c-1.8,0-8.8,5.2-20.8,15.7
		c-6.6,5.2-19.1,10.6-37.6,16.1c-21.2,4.3-35.8,6.5-43.8,6.5l-27-9.6c-15,0-28.9-8.2-41.7-24.6c-5.5-5.5-9.9-12.4-13.3-20.8
		c0-2.1-3.5-15.2-10.6-39.3c-2.1-10.3-3.1-19-3.1-26.3v-0.7c0-42.6,12.5-79.5,37.6-110.7c3.6-7.7,11-13.6,22.2-17.4
		c6.6-1.8,15.7-3.5,27.3-5.1C337.3,145.2,346.5,145.2,362.2,146.3z M283.6,227l88.9,0.7l4.8,1.7l5.8-0.7c13.4,4.3,22,6.5,25.6,6.5
		c0,0.9,1,1.6,3.1,2.1c2.1-2.5,3.1-5.1,3.1-7.9v-8.9c0-4.3-8-13.6-23.9-27.7c-6.8-7.1-15-11.3-24.6-12.6l-16.1-2.4
		c-26.2,5-43.4,11.4-51.6,19.1C295.4,202.9,290.4,212.9,283.6,227z"/>
	<path d="M636.7,121.1c3.6,3,10,5.2,19.1,6.8c6.4,0,19.6,7.3,39.6,21.9l6.5,2.1h2.4l8.5,4.1c8.4,6.4,13.2,11.2,14.4,14.4v0.7
		c0,1.8-1.8,4.2-5.5,7.2c-0.9,5-7.5,15.4-19.8,31.1v1.7l0.7,4.8c-4.3,0.5-8.9,1.6-13.7,3.4c-2.1,0-3.9-2.2-5.5-6.5
		c-8.9-5.5-13.3-10-13.3-13.7l5.5-15c0-6.2-10.4-10.5-31.1-13l-31.1-2.1c-10.7,0-25.3,4.2-43.8,12.6c-10.3,5.5-18.2,16.6-23.9,33.5
		c-4.8,15.5-8.5,24.5-11.3,27l-1.7,4.1c0.9,0,1.5,1,1.7,3.1l-3.1,21.5c1.4,0.7,4.4,10.1,9.2,28.4l-1.7,3.1v1.7
		c1.6,1.6,2.8,6.8,3.8,15.7c2.7,9.3,11.8,17.9,27.3,25.6l25.3,18.5c27.8,0,52.5-6.2,74.2-18.5c21.4-18.5,32.1-30.8,32.1-36.9
		l-1.7-7.2v-0.7c0.2-1.4,7.2-9,20.8-22.9c0.9,0,3.5,2.4,7.9,7.2v1.4l-2.4,0.7c9.1,1.8,13.7,5.4,13.7,10.6
		c5.2,7.1,10.6,17.2,16.1,30.4c1.6,0,3.1,3.6,4.4,10.9c4.1,1.8,6.5,3.6,7.2,5.5c0,2.7-2.1,4.3-6.2,4.8c-7.5,2.7-14.2,7.9-20.2,15.4
		c-10.9-11.2-16.7-16.7-17.4-16.7l-26.3,16.7c-8.7,4.6-16.6,9.8-23.9,15.7l-49.2,16.1l-7.5,0.7c-10.5,0-25.5-3.1-45.1-9.2
		c-21.4-9.1-33.2-16.3-35.2-21.5c-26.7-31.7-40-56.4-40-74.2l-1.4-16.1c2.7-11.2,4.1-24.8,4.1-41l12.6-30.4
		c0-8.9,5.9-20.3,17.8-34.2c6.6-14.6,23.9-28.1,52-40.7c11.4-3.6,29.7-6.3,55-7.9V121.1z"/>
	<path d="M800,36.3c40.3,1.6,60.5,5.4,60.5,11.3L864,117c0,5.9-3.4,22.1-10.3,48.5c-1.6,8.7-2.4,15.2-2.4,19.5v3.1h1.4
		c21.4-16.4,45.7-24.6,72.8-24.6c8,0,22.6,4.4,43.8,13.3c3.9,3.9,9.1,10.5,15.7,19.8c2.3,1.8,3.6,3.8,4.1,5.8l-0.7,4.8
		c8.9,7.5,13.3,20.1,13.3,37.6c1.1,0,1.9,15.6,2.4,46.8v0.7c0,4.8-2.6,22.3-7.9,52.6l-1.4,8.9h9.6c10.5,0.7,15.7,2.1,15.7,4.1
		c0,1.4-1.4,4-4.1,7.9l1.7,2.4v1c0,3,0,5.8,0,8.5c0,15-4.2,22.6-12.6,22.6l-4.1,0.7c-12.3,0-18.5-1.8-18.5-5.5
		c0-0.9-6.4-1.7-19.1-2.4c-4.1-2.5-8.8-4.7-14-6.5l-0.3-1.7c0-13,2.2-33.2,6.5-60.5c1.1-15.5,3.9-32,8.2-49.6l-1-16.7l1.7-2.1
		c-4.3-3.2-6.5-7.7-6.5-13.7c-2.1-4.6-5.2-9.9-9.6-16.1c-3.9-5.9-12-10.7-24.3-14.4c-12.3-3.6-32.6,3.2-60.8,20.5l-13,19.5
		l-3.1,31.1l1.4,31.8c-2.1,23.5-4.4,35.2-7.2,35.2l-0.7,2.1l1.7,1h2.4l7.9-3.4c7.5,1.1,11.3,3.5,11.3,7.2l3.1,8.2l0.7,2.4
		c-1.6,16.4-4,24.6-7.2,24.6h-1.4c-4.8-3-21.8-5.1-50.9-6.5c-21-1.8-31.4-5-31.4-9.6v-7.9c-0.5-1.1-1.1-4.4-1.9-9.7
		c-0.8-5.4-1.2-8.5-1.2-9.4c1.6-1.1,9.3-1.9,23.2-2.4c2.1,0,3.6-6.2,4.8-18.5c2.5-1.8,4.3-6.8,5.5-15c2.1-2.5,3.1-5.1,3.1-7.9v-0.7
		c0-4.8,0-13.6,0-26.3c1.6,0,2.7-34.6,3.4-103.9l6.5-70.1V83.5c0-6.8-2.2-10.3-6.5-10.3l-15.4-0.7l-10.3,3.1
		c-1.8,0-2.9-4.2-3.1-12.6v-5.1c0-13.7,1.8-20.5,5.5-20.5L800,36.3z"/>
	<path d="M1032.8,144.3c8,1.1,15.5,1.7,22.6,1.7h39l1,1.4c-1.6,5.9-2.4,10.5-2.4,13.7v8.2c1.1,8.9,3.5,13.3,7.2,13.3
		c2.1-3.4,8.4-6.8,19.1-10.3c25.3-11.2,46.3-16.7,62.9-16.7c10.7,0,22.3,4.8,34.9,14.4c9.1,3.6,17.9,11.1,26.3,22.2
		c12.8,20.3,19.1,44.6,19.1,72.8v3.8l-3.1,34.2l3.1,25l-4.8,22.2v0.7l0.3,4.1l18.1,0.7h7.9c5.2,0,8.5,0.6,9.9,1.7
		c-1.8,23-4.3,34.5-7.5,34.5c-5.9,3.6-12.8,5.5-20.5,5.5h-9.6c-14.6,0-30.5,2.1-47.9,6.2c-11.2-1.4-16.7-7-16.7-16.7l-0.7-16.4
		c0-10.7,2.6-18.5,7.9-23.2c2.7-15,6.2-29.2,10.3-42.4l3.1-42c0.7,0,1-3.5,1-10.6c0-8.2-6.7-20.4-20.2-36.6
		c-10-4.3-16.1-6.5-18.1-6.5c-18,0-34.5,7.7-49.6,23.2c-1.1,0-8.8,7.7-22.9,23.2c-4.8,3.6-7.2,14.2-7.2,31.8
		c0.7,31.9,1.9,47.9,3.8,47.9c12.3,2.3,18.5,4.7,18.5,7.2v2.4l0.7,6.2c2.1,2.3,3.1,6,3.1,11.3v0.7c0,7.3-1.6,15.3-4.8,23.9l-55,1
		c-5.9,0-9.9-2.7-12-8.2c-1.6-6.4-3.1-18-4.4-34.9c0-1.8,4.8-3.8,14.4-5.8l2.4-3.1V335c0-1.6-1.4-4.2-4.1-7.9l0.7-14.7v-27l1.7-43.7
		c0-29.8-1.4-44.8-4.1-44.8h-2.4l-22.2,3.1c-2.3,0-5.2-2.1-8.9-6.2v-1.7c1.6-2.1,2.4-4.7,2.4-7.9l-0.7-17.4l7.2-21.5L1032.8,144.3z"
		/>
	<path d="M1445,163.8h4.1c16.9,8,33.6,18.7,50.2,32.1c15.9,13.7,23.9,24,23.9,31.1h-0.7l2.4,8.5h0.7c0.7,0.2,1.8,4.8,3.4,13.7
		l3.8,9.6l-0.7,6.2l1.4,17.1c-1.6,5-3.6,15.4-6.2,31.1c-1.4,6.2-16.1,28.7-44.1,67.7c-12.3,11.8-24.7,17.8-37.3,17.8
		c-12.3,1.6-24.8,2.4-37.6,2.4h-8.9c-5.7,0-19.8-4.6-42.4-13.7c-28.7-26-43.1-45.7-43.1-59.1c-4.1-8.9-7.5-16.9-10.3-23.9
		c0-3.6,4.3-17.2,13-40.7c0-14.6,3.4-24.7,10.3-30.4c14.6-32.1,33.4-52.9,56.4-62.2c19.6-7.3,35.7-10.9,48.2-10.9L1445,163.8z
		 M1346.2,309v3.1c3.6,7.5,8.4,16.6,14.4,27.3c0,3.2,6,7.7,18.1,13.7c5.7,6.4,16.4,11.4,32.1,15l8.5,1c13.2-2.7,23.6-5.7,31.1-8.9
		l17.1-14.4c17.5-18.9,26.1-34.7,25.6-47.5V294c-1.8-5.2-2.7-13.6-2.7-25c0-8.2,0.6-15.2,1.7-20.8c0-1.8-6-7.4-18.1-16.7
		c-9.1-12.3-18.5-19.9-28-22.9h-5.5c-36.9,1.4-55.4,4.3-55.4,8.9c-8.2,8.2-14,16.4-17.4,24.6c-10,10.3-15,17.2-15,20.8
		C1350,274.5,1347.8,289.9,1346.2,309z"/>
	<path d="M92.5,499c119.6,0.5,179.4,1.8,179.4,4.1c3.4,17.8,5.1,30.5,5.1,38.3c-2.3,8.9-4.4,19.7-6.5,32.5c-1.8,4.3-3.6,6.5-5.5,6.5
		c-20.3,0-30.4-2.8-30.4-8.5v-1l6.2-23.9c-1.4-12.3-3.6-18.5-6.8-18.5l-6.5-0.7h-12.6l-99.1,4.8c-3.2,0-4.8,3.2-4.8,9.6v2.4
		l1.7,80.7c0,2.1,6.8,3.1,20.5,3.1l30.4,1c0-9.8,4.6-14.7,13.7-14.7l11.3,0.3l1.4,2.1v7.2c0,2.7,1.1,7.3,3.4,13.7
		c-5,26-9.3,39-13,39l-20.5-7.9l-2.4-0.7v-1l3.8-5.5v-2.4l-45.5-3.1c-3.2,1.4-4.8,3.2-4.8,5.5v16.1l-0.7,9.6c0,13.7,2.1,42,6.2,85.1
		c2.1,1.4,13,3,32.8,4.8l0.7,0.3c1.6,0.2,2.4,1,2.4,2.4c-1.1,15.3-5,22.9-11.6,22.9h-1v0.7l-10.3-0.7h-9.6
		c-22.3,2.1-48.9,3.6-79.6,4.8l-0.3,0.7h-0.7l-4.1-1.4l0.3-6.5l-1-4.8c1.1-2.1,1.9-5.8,2.4-11.3c0-1.6,12.3-3.6,36.9-6.2
		c6.2-1.4,9.2-4.6,9.2-9.6l4.1-71.8l1.4-1.7h1.4l0.7-3.1v-12l-4.1-2.4L84,660.3l2.4-7.5c-1.6-5.9-2.4-27.7-2.4-65.3v-25.3
		c0-9.3,0.6-17.9,1.7-25.6c0-3-2.4-4.8-7.2-5.5H72c-22.8,0-34.2-5.7-34.2-17.1l-1-6.2c0.9-4.3,2.1-6.5,3.4-6.5h1.4
		c0.7,0,1.5,1.8,2.4,5.5h0.7l1-1.4v-0.7l-0.7-0.3c0-3.2,8.7-4.8,26-4.8L92.5,499z"/>
	<path d="M393.7,545.8c5.5,0,16.1,2.3,31.8,6.8c18.5,17.5,29.3,31.1,32.5,40.7c6.6,6.8,12.2,21.3,16.7,43.4c5,4.8,7.5,16.1,7.5,33.8
		l0.7,11.3l-1.7,47.2c0,9.1,5.8,21,17.4,35.5c10.5,10.3,17.4,15.4,20.8,15.4v0.7c0,3.9-5.6,10-16.7,18.5c-8.2,8-13.4,12-15.7,12
		h-0.3c-4.8-0.2-17.5-9.6-38.3-28c-18.5,6.8-37.3,14.4-56.4,22.6c-12.5,3.6-26.4,5.5-41.7,5.5h-2.4c-17.3-3-31.9-9.6-43.8-19.8
		c-2.1-2.1-6.6-10-13.7-23.9c-5.7-6.8-8.5-15.4-8.5-25.6V728c0-8.7,2.4-16.9,7.2-24.6c4.3-12.5,11.5-24.8,21.5-36.9
		c5-6.2,10-10,15-11.6c16.6-8.7,32.9-13,48.9-13l21.5-0.7h2.4c12.5,0,21.2,1.8,26,5.5h2.7c1.4,0,2.1-0.8,2.1-2.4
		c-3.2-14.4-8.8-28.6-16.7-42.7c-6.8-11.6-19.8-17.4-39-17.4l-19.1-2.4c-16.9,3.2-25.3,6.6-25.3,10.3c-6.4,8.2-10.4,18.8-12,31.8
		c-0.7,1.6-6.4,2.4-17.1,2.4l-3.1,0.7c-1.1,0-2.7,2.7-4.8,8.2c-8.9-1.4-13.3-3.2-13.3-5.5c1.1-2.7,2.4-14.2,3.8-34.5
		c5-14.4,17-27.7,35.9-40c9.1-5.2,14.5-7.9,16.1-7.9L393.7,545.8z M318.5,714.3c2.1,19.1,4.7,28.7,7.9,28.7l4.8,5.8v0.7l-4.4-0.7
		v1.4c6.6,8,19,15.7,37.3,23.2c2.5,1.1,5.7,1.9,9.6,2.4c6.4,0,28.3-9.2,65.6-27.7c2.5-1.4,3.8-3.2,3.8-5.5v-2.4
		c-2.7-12.8-5.1-27.9-7.2-45.5l-0.7-0.3c0-3.4-3.5-6.3-10.6-8.5c-23.2-6.6-39.2-9.9-47.9-9.9c-23.7,5.5-40.3,13.4-49.9,23.9
		C321.2,705.9,318.5,710.7,318.5,714.3z"/>
	<path d="M707.8,583.1c12.3,0,22.7,8.8,31.1,26.3c1.8,0,4.1,2.1,6.8,6.2l6.5,35.2c-2.7,3.6-11.2,5.5-25.3,5.5h-4.8
		c-11.9-1.6-17.8-5.6-17.8-12c0-4.6-3.6-10.6-10.9-18.1c-0.9-1.6-7.6-2.4-20.2-2.4c-12.5,0-27.1,3.2-43.8,9.6
		c-11.4,11.6-19.4,21.4-23.9,29.4c2.3,57.4,3.1,91.4,2.4,101.9c0,2.7,1.9,4.1,5.8,4.1h11.6c5,0.2,7.5,1,7.5,2.4v0.7l1.7,6.5l-1,26.3
		l-2.7,3.8l-22.2,2.1h-2.1l-9.6,3.1c-36.2-1.1-54.3-2.5-54.3-4.1c-6.4,0-9.6-2.9-9.6-8.5c-0.7-4.3-1-10.3-1-17.8
		c0-5.9,6.2-9.9,18.5-12c0-2.5,4.2-3.8,12.6-3.8l1.7-0.3v-0.7l-3.1-129.9c0-8-1.9-12-5.8-12h-3.1c-3.9,0-10.3,1.6-19.1,4.8l-0.7-0.7
		v-1c0-0.7,1.3-1.5,3.8-2.4v-0.7c-3.2,0-4.8-9-4.8-27c-0.5,0-0.9-2.7-1.4-8.2c13-10,26.2-15,39.6-15h12c4.1,0,12.1,1.6,23.9,4.8
		l0.7,1.7c-3,3.9-4.4,7.1-4.4,9.6v3.1C628,581.7,663.1,578.3,707.8,583.1z"/>
	<path d="M827.7,562.6c3.6,0.5,5.5,1,5.5,1.7l-2.1,3.1v1h0.7l24.6-0.7c27.6,0,45.9,6.8,55,20.5c6.2,8,10.1,13.6,12,16.7l1.7,0.7
		c2.7,0,20.7-8.7,54-26c4.3-1.8,7.9-2.7,10.6-2.7c12.8,0,26.3,4.8,40.7,14.4c26.7,21.7,40,39.8,40,54.3c2.5,5.5,7.5,37.8,15,97.1
		V756c0,3,0.7,4.6,2.1,4.8h1.7c2.7,0,7.9-1.3,15.4-3.8c5.2,0,7.9,9.2,7.9,27.7c0.5,7.5,0.7,14.7,0.7,21.5c-2.5,0-4.3,0-5.5,0h-1
		c-14.6,2.3-26.4,3.4-35.5,3.4l-14.7-1.7l-27.7,0.7h-4.8c-0.7,0-1-1.3-1-3.8l-6.2-5.8v-0.7l1.4-4.8v-1l-2.4-12.6v-6.2
		c0-4.3,3.3-6.5,9.9-6.5c11.2,1.6,15.8-2.6,14-12.6c-0.5-24.6,0.5-43.2,2.7-55.7v-0.7l-1-28.7c0-4.8-4.2-10.6-12.6-17.4l-4.1-1h-3.1
		l-4.8-2.4c-7.1-9.3-18.8-14-35.2-14c-20.3,1.8-32.5,7.9-36.6,18.1c-1.1,3.4-1.9,10.9-2.4,22.6l1,10.9v34.2l-0.3,13.7
		c0,14.6,4,22.8,12,24.6c3.4,0.7,5.1,1.8,5.1,3.4c-3.2,15-5.4,23.8-6.5,26.3l-12,2.4l-40.7-3.4l-4.8,1c-5.2,0-7.9-8.2-7.9-24.6v-1.7
		c0-1.8,4.8-4.2,14.4-7.2c2.5,0,3.8-1.1,3.8-3.4c-1.6-7.1-2.4-16.1-2.4-27l0.7-52c-1.6-7.1-2.4-12.6-2.4-16.7c0.2-8,1.1-12,2.7-12
		h0.7c3.2-5.9-6.2-15.4-28-28.4c-6.2-2.3-11.7-3.4-16.7-3.4c-8.7,0-18.7,4-30.1,12l-0.3,2.4v38.3l1,99.8l2.4,1.7h1.7
		c0.9,0,1.6-1.1,2.1-3.4h1c8.4,0,13.4,2.2,15,6.5v4.1l1,10.9c0.7,13.2-2.7,19.8-10.3,19.8c-2.5,0.9-11.1,1.5-25.6,1.7l-61.5-4.1
		c-3.2,0-6.2-9.5-8.9-28.4v-1c0-2.5,6.4-5.7,19.1-9.6c0-2.5,6.4-4.6,19.1-6.2c2.3-0.9,3.4-2.5,3.4-4.8l3.1-111.1l0.7-26.3
		c0-2.7-3-4.1-8.9-4.1c-6.8,0-14.2,0.8-22.2,2.4c-5.2-3-7.9-6-7.9-9.2c1.1-15.9,1.5-24.4,1.2-25.3c-0.3-0.9,0.6-3.8,2.9-8.5
		C778.1,567,800.8,564.6,827.7,562.6z"/>
</g>
</svg>
