<svg xmlns="http://www.w3.org/2000/svg" style="display: none;"><symbol id="whatsapp" viewBox="0 0 455.731 455.731"><title>whatsapp</title><rect x="0" y="0" style="fill:#1BD741;" width="455.731" height="455.731"/><g> <path style="fill:#FFFFFF;" d="M68.494,387.41l22.323-79.284c-14.355-24.387-21.913-52.134-21.913-80.638 c0-87.765,71.402-159.167,159.167-159.167s159.166,71.402,159.166,159.167c0,87.765-71.401,159.167-159.166,159.167 c-27.347,0-54.125-7-77.814-20.292L68.494,387.41z M154.437,337.406l4.872,2.975c20.654,12.609,44.432,19.274,68.762,19.274 c72.877,0,132.166-59.29,132.166-132.167S300.948,95.321,228.071,95.321S95.904,154.611,95.904,227.488 c0,25.393,7.217,50.052,20.869,71.311l3.281,5.109l-12.855,45.658L154.437,337.406z"/> <path style="fill:#FFFFFF;" d="M183.359,153.407l-10.328-0.563c-3.244-0.177-6.426,0.907-8.878,3.037 c-5.007,4.348-13.013,12.754-15.472,23.708c-3.667,16.333,2,36.333,16.667,56.333c14.667,20,42,52,90.333,65.667 c15.575,4.404,27.827,1.435,37.28-4.612c7.487-4.789,12.648-12.476,14.508-21.166l1.649-7.702c0.524-2.448-0.719-4.932-2.993-5.98 l-34.905-16.089c-2.266-1.044-4.953-0.384-6.477,1.591l-13.703,17.764c-1.035,1.342-2.807,1.874-4.407,1.312 c-9.384-3.298-40.818-16.463-58.066-49.687c-0.748-1.441-0.562-3.19,0.499-4.419l13.096-15.15 c1.338-1.547,1.676-3.722,0.872-5.602l-15.046-35.201C187.187,154.774,185.392,153.518,183.359,153.407z"/> </g></symbol><symbol id="youtube" viewBox="0 0 455.731 455.731"><title>youtube</title><rect x="0" y="0" style="fill:#DC472E;" width="455.731" height="455.731"/><g> <path style="fill:#FFFFFF;" d="M263.259,291.734c-0.01-1.7-0.51-3.47-1.14-5.06c-0.84-2.09-2.64-3.13-4.9-3.35 c-2.65-0.26-4.77,0.81-6.69,2.51c-0.77,0.67-1.12,1.67-1.12,1.67l0.04,53.97v1.33c0,0,0.46,0.62,0.53,0.7 c1.56,1.69,3.38,3.03,5.71,3.51c3.84,0.79,6.55-0.81,7.3-4.37c0.19-0.89,0.3-1.81,0.3-2.72 C263.309,323.854,263.339,307.794,263.259,291.734z M263.259,291.734c-0.01-1.7-0.51-3.47-1.14-5.06 c-0.84-2.09-2.64-3.13-4.9-3.35c-2.65-0.26-4.77,0.81-6.69,2.51c-0.77,0.67-1.12,1.67-1.12,1.67l0.04,53.97v1.33 c0,0,0.46,0.62,0.53,0.7c1.56,1.69,3.38,3.03,5.71,3.51c3.84,0.79,6.55-0.81,7.3-4.37c0.19-0.89,0.3-1.81,0.3-2.72 C263.309,323.854,263.339,307.794,263.259,291.734z M323.689,210.344c-63.87-1.37-127.77-1.37-191.65,0 c-22.16,0.47-39.88,18.59-39.88,40.76v99.76c0,22.18,17.72,40.3,39.88,40.77c63.88,1.37,127.78,1.37,191.65,0 c22.17-0.47,39.89-18.59,39.89-40.77v-99.76C363.579,228.935,345.859,210.814,323.689,210.344z M150.799,359.955h-18.42v-104.13 h-19.07v-17.42h56.6v17.38h-19.11V359.955z M216.719,316.734v43.23h-16.31v-9.88c-0.59,0.63-0.92,0.97-1.23,1.32 c-3.51,3.96-7.49,7.26-12.57,9.01c-2.48,0.85-5.03,1.14-7.64,0.69c-3.56-0.59-5.95-2.64-7.39-5.88c-1.34-2.99-1.68-6.19-1.69-9.41 c-0.04-11.9-0.02-74.88-0.02-75.49h16.27c0.03,0.55,0.09,45.76,0.1,67.81c0,1.2,0.01,2.43,0.25,3.6c0.6,2.96,2.87,4.23,5.72,3.19 c3.28-1.2,5.78-3.46,7.88-6.17c0.31-0.39,0.31-1.09,0.31-1.65v-66.88l16.32-0.04C216.719,270.185,216.719,301.754,216.719,316.734 z M278.769,351.324c-2.18,6.56-6.98,9.9-13.88,9.83c-5.61-0.05-10.16-2.28-13.91-6.35c-0.42-0.45-1.58-1.68-1.58-1.68v6.82h-16.34 v-121.55h16.34c0,12.94,0,40.01,0,40.01s0.92-1.84,1.76-2.79c2.53-2.83,5.61-5.02,9.41-5.98c6.27-1.57,13.5,0.37,16.94,7.7 c2.03,4.33,2.6,8.95,2.6,13.65c0.03,16.99,0.03,33.98,0.01,50.97C280.109,345.134,279.779,348.275,278.769,351.324z M339.119,347.905c-2.83,8.29-8.68,12.89-17.26,14.15c-5.32,0.78-10.59,0.67-15.58-1.59c-6.83-3.08-10.7-8.65-12.36-15.74 c-0.77-3.3-1.15-6.76-1.19-10.15c-0.13-13.31-0.07-26.63-0.04-39.94c0.01-6.96,1.67-13.38,6.44-18.71 c5.44-6.09,12.4-8.36,20.35-7.85c2.39,0.15,4.83,0.54,7.1,1.29c7.73,2.54,11.86,8.33,13.48,16.01c0.62,2.96,0.85,6.03,0.9,9.06 c0.13,7.1-0.05,22.75-0.05,22.75h-31.29v22.43c0,4.03,3.26,7.29,7.29,7.29c4.02,0,7.28-3.26,7.28-7.29v-11.53h16.81 C340.999,328.084,341.249,341.695,339.119,347.905z M324.189,290.685c0-4.02-3.26-7.29-7.28-7.29c-4.03,0-7.29,3.27-7.29,7.29 v12.59h14.57V290.685z M262.119,286.675c-0.84-2.09-2.64-3.13-4.9-3.35c-2.65-0.26-4.77,0.81-6.69,2.51 c-0.77,0.67-1.12,1.67-1.12,1.67l0.04,53.97v1.33c0,0,0.46,0.62,0.53,0.7c1.56,1.69,3.38,3.03,5.71,3.51 c3.84,0.79,6.55-0.81,7.3-4.37c0.19-0.89,0.3-1.81,0.3-2.72c0.02-16.07,0.05-32.13-0.03-48.19 C263.249,290.034,262.749,288.264,262.119,286.675z"/> <path style="fill:#FFFFFF;" d="M303.887,94.99l-0.005,90.244H287.16l0.02-9.695c-1.849,1.821-3.427,3.522-5.161,5.05 c-3.074,2.708-6.556,4.727-10.629,5.524c-6.253,1.223-11.579-0.754-13.573-7.23c-0.664-2.157-1.065-4.482-1.082-6.734V94.99 h16.596v68.821c0,0.912,0.073,1.834,0.233,2.728c0.504,2.836,2.6,4.171,5.331,3.224c3.329-1.152,5.869-3.457,8.024-6.173 c0.306-0.388,0.251-1.112,0.251-1.681V94.99H303.887z"/> <path style="fill:#FFFFFF;" d="M165.578,110.672c-3.63-15.301-11.235-47.602-11.235-47.602h-19.029 c0,0,14.62,48.487,21.158,70.111c0.235,0.782,0.343,1.631,0.343,2.45l-0.007,49.584h17.547l-0.007-49.584 c0-0.819,0.108-1.668,0.343-2.45c6.538-21.624,21.158-70.111,21.158-70.111H176.82c0,0-7.606,32.301-11.235,47.602H165.578z"/> <path style="fill:#FFFFFF;" d="M218.752,92.731L218.752,92.731c-13.224,0-23.944,10.72-23.944,23.944v46.859 c0,13.224,10.72,23.944,23.944,23.944h0c13.224,0,23.944-10.72,23.944-23.944v-46.859 C242.697,103.451,231.976,92.731,218.752,92.731z M225.662,164.48c0,3.81-3.1,6.909-6.909,6.909s-6.909-3.099-6.909-6.909v-48.752 c0-3.81,3.1-6.909,6.909-6.909s6.909,3.1,6.909,6.909V164.48z"/> </g></symbol><symbol id="instagram" viewBox="0 0 455.73 455.73"><title>instagram</title><path style="fill:#C536A4;" d="M227.86,182.55c-24.98,0-45.32,20.33-45.32,45.31c0,24.99,20.34,45.33,45.32,45.33 c24.99,0,45.32-20.34,45.32-45.33C273.18,202.88,252.85,182.55,227.86,182.55z M227.86,182.55c-24.98,0-45.32,20.33-45.32,45.31 c0,24.99,20.34,45.33,45.32,45.33c24.99,0,45.32-20.34,45.32-45.33C273.18,202.88,252.85,182.55,227.86,182.55z M303.36,108.66 H152.37c-24.1,0-43.71,19.61-43.71,43.71v150.99c0,24.1,19.61,43.71,43.71,43.71h150.99c24.1,0,43.71-19.61,43.71-43.71V152.37 C347.07,128.27,327.46,108.66,303.36,108.66z M227.86,306.35c-43.27,0-78.48-35.21-78.48-78.49c0-43.27,35.21-78.48,78.48-78.48 c43.28,0,78.49,35.21,78.49,78.48C306.35,271.14,271.14,306.35,227.86,306.35z M308.87,165.61c-10.24,0-18.57-8.33-18.57-18.57 s8.33-18.57,18.57-18.57s18.57,8.33,18.57,18.57S319.11,165.61,308.87,165.61z M227.86,182.55c-24.98,0-45.32,20.33-45.32,45.31 c0,24.99,20.34,45.33,45.32,45.33c24.99,0,45.32-20.34,45.32-45.33C273.18,202.88,252.85,182.55,227.86,182.55z M303.36,108.66 H152.37c-24.1,0-43.71,19.61-43.71,43.71v150.99c0,24.1,19.61,43.71,43.71,43.71h150.99c24.1,0,43.71-19.61,43.71-43.71V152.37 C347.07,128.27,327.46,108.66,303.36,108.66z M227.86,306.35c-43.27,0-78.48-35.21-78.48-78.49c0-43.27,35.21-78.48,78.48-78.48 c43.28,0,78.49,35.21,78.49,78.48C306.35,271.14,271.14,306.35,227.86,306.35z M308.87,165.61c-10.24,0-18.57-8.33-18.57-18.57 s8.33-18.57,18.57-18.57s18.57,8.33,18.57,18.57S319.11,165.61,308.87,165.61z M227.86,182.55c-24.98,0-45.32,20.33-45.32,45.31 c0,24.99,20.34,45.33,45.32,45.33c24.99,0,45.32-20.34,45.32-45.33C273.18,202.88,252.85,182.55,227.86,182.55z M0,0v455.73h455.73 V0H0z M380.23,303.36c0,42.39-34.48,76.87-76.87,76.87H152.37c-42.39,0-76.87-34.48-76.87-76.87V152.37 c0-42.39,34.48-76.87,76.87-76.87h150.99c42.39,0,76.87,34.48,76.87,76.87V303.36z M303.36,108.66H152.37 c-24.1,0-43.71,19.61-43.71,43.71v150.99c0,24.1,19.61,43.71,43.71,43.71h150.99c24.1,0,43.71-19.61,43.71-43.71V152.37 C347.07,128.27,327.46,108.66,303.36,108.66z M227.86,306.35c-43.27,0-78.48-35.21-78.48-78.49c0-43.27,35.21-78.48,78.48-78.48 c43.28,0,78.49,35.21,78.49,78.48C306.35,271.14,271.14,306.35,227.86,306.35z M308.87,165.61c-10.24,0-18.57-8.33-18.57-18.57 s8.33-18.57,18.57-18.57s18.57,8.33,18.57,18.57S319.11,165.61,308.87,165.61z M227.86,182.55c-24.98,0-45.32,20.33-45.32,45.31 c0,24.99,20.34,45.33,45.32,45.33c24.99,0,45.32-20.34,45.32-45.33C273.18,202.88,252.85,182.55,227.86,182.55z M227.86,182.55 c-24.98,0-45.32,20.33-45.32,45.31c0,24.99,20.34,45.33,45.32,45.33c24.99,0,45.32-20.34,45.32-45.33 C273.18,202.88,252.85,182.55,227.86,182.55z M227.86,182.55c-24.98,0-45.32,20.33-45.32,45.31c0,24.99,20.34,45.33,45.32,45.33 c24.99,0,45.32-20.34,45.32-45.33C273.18,202.88,252.85,182.55,227.86,182.55z M303.36,108.66H152.37 c-24.1,0-43.71,19.61-43.71,43.71v150.99c0,24.1,19.61,43.71,43.71,43.71h150.99c24.1,0,43.71-19.61,43.71-43.71V152.37 C347.07,128.27,327.46,108.66,303.36,108.66z M227.86,306.35c-43.27,0-78.48-35.21-78.48-78.49c0-43.27,35.21-78.48,78.48-78.48 c43.28,0,78.49,35.21,78.49,78.48C306.35,271.14,271.14,306.35,227.86,306.35z M308.87,165.61c-10.24,0-18.57-8.33-18.57-18.57 s8.33-18.57,18.57-18.57s18.57,8.33,18.57,18.57S319.11,165.61,308.87,165.61z M227.86,182.55c-24.98,0-45.32,20.33-45.32,45.31 c0,24.99,20.34,45.33,45.32,45.33c24.99,0,45.32-20.34,45.32-45.33C273.18,202.88,252.85,182.55,227.86,182.55z M227.86,182.55 c-24.98,0-45.32,20.33-45.32,45.31c0,24.99,20.34,45.33,45.32,45.33c24.99,0,45.32-20.34,45.32-45.33 C273.18,202.88,252.85,182.55,227.86,182.55z M227.86,182.55c-24.98,0-45.32,20.33-45.32,45.31c0,24.99,20.34,45.33,45.32,45.33 c24.99,0,45.32-20.34,45.32-45.33C273.18,202.88,252.85,182.55,227.86,182.55z M303.36,108.66H152.37 c-24.1,0-43.71,19.61-43.71,43.71v150.99c0,24.1,19.61,43.71,43.71,43.71h150.99c24.1,0,43.71-19.61,43.71-43.71V152.37 C347.07,128.27,327.46,108.66,303.36,108.66z M227.86,306.35c-43.27,0-78.48-35.21-78.48-78.49c0-43.27,35.21-78.48,78.48-78.48 c43.28,0,78.49,35.21,78.49,78.48C306.35,271.14,271.14,306.35,227.86,306.35z M308.87,165.61c-10.24,0-18.57-8.33-18.57-18.57 s8.33-18.57,18.57-18.57s18.57,8.33,18.57,18.57S319.11,165.61,308.87,165.61z M227.86,182.55c-24.98,0-45.32,20.33-45.32,45.31 c0,24.99,20.34,45.33,45.32,45.33c24.99,0,45.32-20.34,45.32-45.33C273.18,202.88,252.85,182.55,227.86,182.55z"/></symbol><symbol id="twitter" viewBox="0 0 455.731 455.731"><title>twitter</title><rect x="0" y="0" style="fill:#50ABF1;" width="455.731" height="455.731"/><path style="fill:#FFFFFF;" d="M60.377,337.822c30.33,19.236,66.308,30.368,104.875,30.368c108.349,0,196.18-87.841,196.18-196.18 c0-2.705-0.057-5.39-0.161-8.067c3.919-3.084,28.157-22.511,34.098-35c0,0-19.683,8.18-38.947,10.107 c-0.038,0-0.085,0.009-0.123,0.009c0,0,0.038-0.019,0.104-0.066c1.775-1.186,26.591-18.079,29.951-38.207 c0,0-13.922,7.431-33.415,13.932c-3.227,1.072-6.605,2.126-10.088,3.103c-12.565-13.41-30.425-21.78-50.25-21.78 c-38.027,0-68.841,30.805-68.841,68.803c0,5.362,0.617,10.581,1.784,15.592c-5.314-0.218-86.237-4.755-141.289-71.423 c0,0-32.902,44.917,19.607,91.105c0,0-15.962-0.636-29.733-8.864c0,0-5.058,54.416,54.407,68.329c0,0-11.701,4.432-30.368,1.272 c0,0,10.439,43.968,63.271,48.077c0,0-41.777,37.74-101.081,28.885L60.377,337.822z"/></symbol><symbol id="facebook" viewBox="0 0 455.73 455.73"><title>facebook</title><path style="fill:#3A559F;" d="M0,0v455.73h242.704V279.691h-59.33v-71.864h59.33v-60.353c0-43.893,35.582-79.475,79.475-79.475 h62.025v64.622h-44.382c-13.947,0-25.254,11.307-25.254,25.254v49.953h68.521l-9.47,71.864h-59.051V455.73H455.73V0H0z"/></symbol></svg>