<?xml version="1.0" encoding="UTF-8" standalone="no"?>
<!-- Generator: Adobe Illustrator 18.0.0, SVG Export Plug-In . SVG Version: 6.00 Build 0)  -->

<svg
   xmlns:dc="http://purl.org/dc/elements/1.1/"
   xmlns:cc="http://creativecommons.org/ns#"
   xmlns:rdf="http://www.w3.org/1999/02/22-rdf-syntax-ns#"
   xmlns:svg="http://www.w3.org/2000/svg"
   xmlns="http://www.w3.org/2000/svg"
   xmlns:xlink="http://www.w3.org/1999/xlink"
   xmlns:sodipodi="http://sodipodi.sourceforge.net/DTD/sodipodi-0.dtd"
   xmlns:inkscape="http://www.inkscape.org/namespaces/inkscape"
   version="1.1"
   id="Layer_1"
   x="0px"
   y="0px"
   viewBox="0 0 365 560"
   enable-background="new 0 0 365 560"
   xml:space="preserve"
   sodipodi:docname="plassmarker.svg"
   inkscape:version="0.92.4 (5da689c313, 2019-01-14)"><metadata
   id="metadata43"><rdf:RDF><cc:Work
       rdf:about=""><dc:format>image/svg+xml</dc:format><dc:type
         rdf:resource="http://purl.org/dc/dcmitype/StillImage" /><dc:title></dc:title></cc:Work></rdf:RDF></metadata><defs
   id="defs41"><clipPath
     clipPathUnits="userSpaceOnUse"
     id="clipPath66"><use
       x="0"
       y="0"
       xlink:href="#g62"
       id="use68"
       width="100%"
       height="100%"
       transform="matrix(0.35950034,0,0,0.33921998,-251.05937,-186.87135)" /></clipPath></defs><sodipodi:namedview
   pagecolor="#ffffff"
   bordercolor="#666666"
   borderopacity="1"
   objecttolerance="10"
   gridtolerance="10"
   guidetolerance="10"
   inkscape:pageopacity="0"
   inkscape:pageshadow="2"
   inkscape:window-width="1920"
   inkscape:window-height="1001"
   id="namedview39"
   showgrid="false"
   inkscape:zoom="1.19198"
   inkscape:cx="182.5"
   inkscape:cy="280"
   inkscape:window-x="-9"
   inkscape:window-y="-9"
   inkscape:window-maximized="1"
   inkscape:current-layer="Layer_1" />
<g
   id="g36"
   style="display:inline;fill:#ff6600"><rect
   style="fill:#ff6600;stroke:#ff6600"
   id="rect100"
   width="175.33852"
   height="199.66779"
   x="90.605545"
   y="86.8377" />
	<path
   d="m 182.9,551.7 c 0,0.1 0.2,0.3 0.2,0.3 0,0 175.2,-269 175.2,-357.4 C 358.3,64.5 269.5,7.9 182.9,7.7 96.3,7.9 7.5,64.5 7.5,194.6 7.5,283 182.8,552 182.8,552 c 0,0 0.1,-0.3 0.1,-0.3 z M 122.2,187.2 c 0,-33.6 27.2,-60.8 60.8,-60.8 33.6,0 60.8,27.2 60.8,60.8 0,33.6 -27.3,60.8 -60.9,60.8 -33.5,0 -60.7,-27.2 -60.7,-60.8 z"
   id="path34"
   inkscape:connector-curvature="0"
   style="fill:#ff6600" />
</g>
<g
   style="display:inline;stroke:#ffffff;stroke-width:1.17475243;stroke-miterlimit:4;stroke-dasharray:none"
   id="g62"
   inkscape:label="Clip"
   transform="matrix(2.7816385,0,0,2.9479396,698.35641,550.88545)"><rect
     id="rect56"
     width="29.934185"
     height="29.800552"
     x="-181.20874"
     y="-121.54408"
     style="stroke:#ffffff;stroke-width:1.17475243;stroke-miterlimit:4;stroke-dasharray:none" /><path
     style="fill:#ffcc00;stroke:#ffffff;stroke-width:1.17475243;stroke-linecap:butt;stroke-linejoin:miter;stroke-opacity:1;stroke-miterlimit:4;stroke-dasharray:none"
     d="m -217.55739,-92.144431 33.14142,0.534538 0.13363,-33.408687 h 33.14143 v -23.78699 c 0,0 -1.60362,-8.95353 -8.95353,-9.2208 -7.34992,-0.26727 -48.10852,-0.13363 -48.10852,-0.13363 0,0 -9.2208,1.73725 -9.2208,9.08716 0,7.34991 -0.13363,56.928409 -0.13363,56.928409 z"
     id="path58"
     inkscape:connector-curvature="0" /></g></svg>