<svg xmlns="http://www.w3.org/2000/svg" style="display: none;"><symbol id="download-1" viewBox="0 0 512 512"><title>download-1</title><g> <g> <path d="M382.56,233.376C379.968,227.648,374.272,224,368,224h-64V16c0-8.832-7.168-16-16-16h-64c-8.832,0-16,7.168-16,16v208h-64 c-6.272,0-11.968,3.68-14.56,9.376c-2.624,5.728-1.6,12.416,2.528,17.152l112,128c3.04,3.488,7.424,5.472,12.032,5.472 c4.608,0,8.992-2.016,12.032-5.472l112-128C384.192,245.824,385.152,239.104,382.56,233.376z"/> </g> </g><g> <g> <path d="M432,352v96H80v-96H16v128c0,17.696,14.336,32,32,32h416c17.696,0,32-14.304,32-32V352H432z"/> </g> </g></symbol><symbol id="info" viewBox="0 0 490 490"><title>info</title><g> <path d="M245,490C109.9,490,0,380.1,0,245S109.9,0,245,0s245,109.9,245,245S380.1,490,245,490z M245,62C144.1,62,62,144.1,62,245 s82.1,183,183,183s183-82.1,183-183S345.9,62,245,62z"/> </g><g> <g> <circle cx="241.3" cy="159.2" r="29.1"/> </g> <g> <polygon points="285.1,359.9 270.4,359.9 219.6,359.9 204.9,359.9 204.9,321 219.6,321 219.6,254.8 205.1,254.8 205.1,215.9 219.6,215.9 263.1,215.9 270.4,215.9 270.4,321 285.1,321 "/> </g> </g></symbol><symbol id="whatsapp" viewBox="0 0 308 308"><title>whatsapp</title><path id="XMLID_469_" d="M227.904,176.981c-0.6-0.288-23.054-11.345-27.044-12.781c-1.629-0.585-3.374-1.156-5.23-1.156 c-3.032,0-5.579,1.511-7.563,4.479c-2.243,3.334-9.033,11.271-11.131,13.642c-0.274,0.313-0.648,0.687-0.872,0.687 c-0.201,0-3.676-1.431-4.728-1.888c-24.087-10.463-42.37-35.624-44.877-39.867c-0.358-0.61-0.373-0.887-0.376-0.887 c0.088-0.323,0.898-1.135,1.316-1.554c1.223-1.21,2.548-2.805,3.83-4.348c0.607-0.731,1.215-1.463,1.812-2.153 c1.86-2.164,2.688-3.844,3.648-5.79l0.503-1.011c2.344-4.657,0.342-8.587-0.305-9.856c-0.531-1.062-10.012-23.944-11.02-26.348 c-2.424-5.801-5.627-8.502-10.078-8.502c-0.413,0,0,0-1.732,0.073c-2.109,0.089-13.594,1.601-18.672,4.802 c-5.385,3.395-14.495,14.217-14.495,33.249c0,17.129,10.87,33.302,15.537,39.453c0.116,0.155,0.329,0.47,0.638,0.922 c17.873,26.102,40.154,45.446,62.741,54.469c21.745,8.686,32.042,9.69,37.896,9.69c0.001,0,0.001,0,0.001,0 c2.46,0,4.429-0.193,6.166-0.364l1.102-0.105c7.512-0.666,24.02-9.22,27.775-19.655c2.958-8.219,3.738-17.199,1.77-20.458 C233.168,179.508,230.845,178.393,227.904,176.981z"/><path id="XMLID_470_" d="M156.734,0C73.318,0,5.454,67.354,5.454,150.143c0,26.777,7.166,52.988,20.741,75.928L0.212,302.716 c-0.484,1.429-0.124,3.009,0.933,4.085C1.908,307.58,2.943,308,4,308c0.405,0,0.813-0.061,1.211-0.188l79.92-25.396 c21.87,11.685,46.588,17.853,71.604,17.853C240.143,300.27,308,232.923,308,150.143C308,67.354,240.143,0,156.734,0z M156.734,268.994c-23.539,0-46.338-6.797-65.936-19.657c-0.659-0.433-1.424-0.655-2.194-0.655c-0.407,0-0.815,0.062-1.212,0.188 l-40.035,12.726l12.924-38.129c0.418-1.234,0.209-2.595-0.561-3.647c-14.924-20.392-22.813-44.485-22.813-69.677 c0-65.543,53.754-118.867,119.826-118.867c66.064,0,119.812,53.324,119.812,118.867 C276.546,215.678,222.799,268.994,156.734,268.994z"/></symbol><symbol id="download" viewBox="0 0 299.998 299.998"><title>download</title><path d="M149.995,0C67.156,0,0,67.159,0,149.997c0,82.837,67.156,150,149.995,150s150.003-67.163,150.003-150 C299.997,67.159,232.834,0,149.995,0z M110.967,105.357c2.075-2.075,4.793-3.112,7.511-3.112c2.718,0,5.434,1.037,7.508,3.112 l13.297,13.295v-3.911V62.477c0-5.867,4.754-10.621,10.621-10.621s10.621,4.754,10.621,10.621v52.263v4.63l4.63-4.63l9.386-9.384 c2.075-2.075,4.79-3.112,7.508-3.112s5.436,1.037,7.511,3.112c2.552,2.549,3.522,6.079,2.933,9.384 c0,0.003-0.003,0.005-0.003,0.008c-0.044,0.239-0.119,0.469-0.179,0.703c-0.091,0.366-0.189,0.729-0.322,1.084 c-0.088,0.239-0.189,0.472-0.296,0.705c-0.166,0.371-0.358,0.726-0.568,1.079c-0.112,0.187-0.215,0.373-0.34,0.552 c-0.363,0.524-0.76,1.032-1.227,1.499l-15.115,15.115l-16.591,16.591c-2.077,2.075-4.793,3.105-7.508,3.105 c-0.026,0-0.052,0-0.078,0s-0.054,0-0.078,0c-2.715,0-5.431-1.03-7.508-3.105l-16.591-16.591l-15.115-15.115 c-0.467-0.467-0.864-0.973-1.222-1.496c-0.127-0.184-0.231-0.373-0.345-0.56c-0.207-0.35-0.397-0.703-0.563-1.069 c-0.109-0.239-0.213-0.475-0.301-0.718c-0.127-0.348-0.223-0.7-0.314-1.056c-0.062-0.246-0.143-0.485-0.187-0.734 C107.444,111.436,108.412,107.906,110.967,105.357z M231.574,209.315h-0.003c0,14.337-14.057,25.568-32.005,25.568h-99.132 c-17.945,0-32.005-11.23-32.005-25.568V140.31c0-12.117,10.058-21.988,24.004-24.761c0.604,5.981,3.224,11.526,7.534,15.834 l4.108,4.108h-3.641c-7.265,0-11.256,3.621-11.256,4.819v69.005c0,1.201,3.992,4.819,11.256,4.819h99.135 c7.265,0,11.256-3.621,11.256-4.819V140.31c0-1.198-3.992-4.819-11.256-4.819h-3.12l4.111-4.111 c4.282-4.279,6.894-9.786,7.516-15.727c13.681,2.913,23.498,12.69,23.498,24.66V209.315z"/></symbol></svg>