<?xml version="1.0" encoding="UTF-8" standalone="no"?>
<!-- Generator: Adobe Illustrator 18.0.0, SVG Export Plug-In . SVG Version: 6.00 Build 0)  -->

<svg
   xmlns:dc="http://purl.org/dc/elements/1.1/"
   xmlns:cc="http://creativecommons.org/ns#"
   xmlns:rdf="http://www.w3.org/1999/02/22-rdf-syntax-ns#"
   xmlns:svg="http://www.w3.org/2000/svg"
   xmlns="http://www.w3.org/2000/svg"
   xmlns:sodipodi="http://sodipodi.sourceforge.net/DTD/sodipodi-0.dtd"
   xmlns:inkscape="http://www.inkscape.org/namespaces/inkscape"
   version="1.1"
   id="Capa_1"
   x="0px"
   y="0px"
   viewBox="0 0 32.000001 32.000001"
   xml:space="preserve"
   sodipodi:docname="car.svg"
   width="32"
   height="32"
   inkscape:version="0.92.4 (5da689c313, 2019-01-14)"><metadata
   id="metadata39"><rdf:RDF><cc:Work
       rdf:about=""><dc:format>image/svg+xml</dc:format><dc:type
         rdf:resource="http://purl.org/dc/dcmitype/StillImage" /><dc:title /></cc:Work></rdf:RDF></metadata><defs
   id="defs37"><clipPath
     clipPathUnits="userSpaceOnUse"
     id="clipPath4554"><g
       inkscape:label="Clip"
       id="use4556"><path
         inkscape:connector-curvature="0"
         style="stroke:none;stroke-width:0.67420238;stroke-miterlimit:4;stroke-dasharray:none"
         id="path4560"
         d="m 20.694735,28.167755 8.869714,2.387115 c 0.07122,0.01927 0.143089,0.02861 0.214778,0.02861 0.230434,0 0.45612,-0.09743 0.635703,-0.28026 0.235102,-0.239332 0.363641,-0.597381 0.347392,-0.967597 L 30.24802,17.663323 30.762418,5.0137593 c 0.02342,-0.5760288 -0.301,-1.0886935 -0.768509,-1.2145634 l -9.081926,-2.444275 c -0.0016,-3.464e-4 -0.0032,-3.464e-4 -0.0048,-8.282e-4 -0.134266,-0.035236 -0.276424,-0.038247 -0.41924,-4.819e-4 L 11.396892,3.7420508 2.5273695,1.3549209 C 2.2244766,1.2734571 1.9074192,1.3684731 1.6717397,1.6117953 1.436044,1.8550724 1.309574,2.2178799 1.3303956,2.5906106 L 1.9902729,14.457987 1.3307806,25.401796 c -0.032083,0.530915 0.2338188,1.022468 0.6501883,1.201673 l 9.0819101,3.910804 c 0.107798,0.04638 0.219943,0.06927 0.331542,0.06927 0.06914,0 0.137635,-0.01205 0.205346,-0.02906 z m -2.001079,-1.900109 -2.829439,-3.405909 c -0.147741,-0.17776 -0.348081,-0.277745 -0.55702,-0.277745 h -2.535673 l 0.21805,-3.801769 6.271497,-1.621883 0.406953,8.851259 z m -6.030861,-1.78737 h 2.318233 l 1.883913,2.267946 -4.398476,1.155611 z M 7.4762722,20.695824 3.6969287,18.886861 3.8691007,16.030027 11.02239,18.668173 10.797715,22.583992 H 7.9728164 v -1.0072 c 0,-0.388466 -0.1968275,-0.737691 -0.4965442,-0.880968 z M 7.9728164,9.8442301 V 5.2492965 L 10.457253,5.9181429 10.987516,16.176285 4.9031265,13.932222 7.7421898,10.514627 C 7.8899307,10.336853 7.9728164,10.095729 7.9728164,9.8442301 Z M 19.452268,9.1366094 18.958691,8.9881375 17.719192,7.4960552 V 4.5067865 l 1.934362,-0.5081323 z m -3.077631,-0.5773238 1.624444,1.9554624 c 0.101061,0.121518 0.227467,0.207589 0.365919,0.24924 l 1.011536,0.304473 -0.143891,3.675055 -6.26269,1.619368 -0.540946,-10.4660934 3.715018,-0.9761801 v 2.9681574 c 0,0.2516192 0.08293,0.4926225 0.230626,0.6705177 z m 4.829924,6.1678774 0.12031,-3.072299 3.242439,0.975699 1.77342,3.202475 z m 7.138628,1.30321 -2.634296,-4.756581 C 25.600294,11.077405 25.43465,10.937095 25.244657,10.879829 L 21.400506,9.7230132 21.625582,3.9755703 28.755307,5.8945319 Z M 6.3976354,4.8253987 V 9.4514722 L 3.8549202,12.512327 3.3822615,4.0138628 Z M 3.5773083,20.870361 6.3976354,22.2201 v 1.312154 c 0,0.523642 0.3526372,0.948022 0.7875504,0.948022 h 3.5038012 l -0.187812,3.275025 -7.1533062,-3.08031 z m 18.0618607,5.122747 -0.406953,-8.852328 7.08829,1.526189 0.406841,9.234003 z" /></g></clipPath></defs><sodipodi:namedview
   pagecolor="#ffffff"
   bordercolor="#666666"
   borderopacity="1"
   objecttolerance="10"
   gridtolerance="10"
   guidetolerance="10"
   inkscape:pageopacity="0"
   inkscape:pageshadow="2"
   inkscape:window-width="1920"
   inkscape:window-height="1001"
   id="namedview35"
   showgrid="false"
   inkscape:zoom="12.713848"
   inkscape:cx="39.315263"
   inkscape:cy="16.128998"
   inkscape:window-x="-9"
   inkscape:window-y="-9"
   inkscape:window-maximized="1"
   inkscape:current-layer="Capa_1" />
<path
   style="fill:#ffffff;stroke:#ffffff;stroke-width:1px;stroke-linecap:butt;stroke-linejoin:miter;stroke-opacity:1"
   d="M 3.1461757,3.1338377 11.090269,5.0215431 20.450142,2.5046025 29.967324,5.4148151 29.102126,17.606246 29.810015,29.247096 20.76476,26.80881 11.326233,29.561714 2.2809774,25.314377 3.4607933,14.696033 2.2809774,3.5271096 Z"
   id="path4437"
   inkscape:connector-curvature="0" /><path
   inkscape:connector-curvature="0"
   style="display:inline;stroke:none;stroke-width:0.67420238;stroke-miterlimit:4;stroke-dasharray:none;fill:#2a7fff"
   id="path2"
   d="m 20.694735,28.167755 8.869714,2.387115 c 0.07122,0.01927 0.143089,0.02861 0.214778,0.02861 0.230434,0 0.45612,-0.09743 0.635703,-0.28026 0.235102,-0.239332 0.363641,-0.597381 0.347392,-0.967597 L 30.24802,17.663323 30.762418,5.0137593 c 0.02342,-0.5760288 -0.301,-1.0886935 -0.768509,-1.2145634 l -9.081926,-2.444275 c -0.0016,-3.464e-4 -0.0032,-3.464e-4 -0.0048,-8.282e-4 -0.134266,-0.035236 -0.276424,-0.038247 -0.41924,-4.819e-4 L 11.396892,3.7420508 2.5273695,1.3549209 C 2.2244766,1.2734571 1.9074192,1.3684731 1.6717397,1.6117953 1.436044,1.8550724 1.309574,2.2178799 1.3303956,2.5906106 L 1.9902729,14.457987 1.3307806,25.401796 c -0.032083,0.530915 0.2338188,1.022468 0.6501883,1.201673 l 9.0819101,3.910804 c 0.107798,0.04638 0.219943,0.06927 0.331542,0.06927 0.06914,0 0.137635,-0.01205 0.205346,-0.02906 z m -2.001079,-1.900109 -2.829439,-3.405909 c -0.147741,-0.17776 -0.348081,-0.277745 -0.55702,-0.277745 h -2.535673 l 0.21805,-3.801769 6.271497,-1.621883 0.406953,8.851259 z m -6.030861,-1.78737 h 2.318233 l 1.883913,2.267946 -4.398476,1.155611 z M 7.4762722,20.695824 3.6969287,18.886861 3.8691007,16.030027 11.02239,18.668173 10.797715,22.583992 H 7.9728164 v -1.0072 c 0,-0.388466 -0.1968275,-0.737691 -0.4965442,-0.880968 z M 7.9728164,9.8442301 V 5.2492965 L 10.457253,5.9181429 10.987516,16.176285 4.9031265,13.932222 7.7421898,10.514627 C 7.8899307,10.336853 7.9728164,10.095729 7.9728164,9.8442301 Z M 19.452268,9.1366094 18.958691,8.9881375 17.719192,7.4960552 V 4.5067865 l 1.934362,-0.5081323 z m -3.077631,-0.5773238 1.624444,1.9554624 c 0.101061,0.121518 0.227467,0.207589 0.365919,0.24924 l 1.011536,0.304473 -0.143891,3.675055 -6.26269,1.619368 -0.540946,-10.4660934 3.715018,-0.9761801 v 2.9681574 c 0,0.2516192 0.08293,0.4926225 0.230626,0.6705177 z m 4.829924,6.1678774 0.12031,-3.072299 3.242439,0.975699 1.77342,3.202475 z m 7.138628,1.30321 -2.634296,-4.756581 C 25.600294,11.077405 25.43465,10.937095 25.244657,10.879829 L 21.400506,9.7230132 21.625582,3.9755703 28.755307,5.8945319 Z M 6.3976354,4.8253987 V 9.4514722 L 3.8549202,12.512327 3.3822615,4.0138628 Z M 3.5773083,20.870361 6.3976354,22.2201 v 1.312154 c 0,0.523642 0.3526372,0.948022 0.7875504,0.948022 h 3.5038012 l -0.187812,3.275025 -7.1533062,-3.08031 z m 18.0618607,5.122747 -0.406953,-8.852328 7.08829,1.526189 0.406841,9.234003 z" />






<g
   id="g16"
   transform="translate(0,-264.99899)">
</g>
<g
   id="g18"
   transform="translate(0,-264.99899)">
</g>
<g
   id="g20"
   transform="translate(0,-264.99899)">
</g>
<g
   id="g22"
   transform="translate(0,-264.99899)">
</g>
<g
   id="g24"
   transform="translate(0,-264.99899)">
</g>
<g
   id="g26"
   transform="translate(0,-264.99899)">
</g>
<g
   id="g28"
   transform="translate(0,-264.99899)">
</g>
<g
   id="g30"
   transform="translate(0,-264.99899)">
</g>
<g
   id="g32"
   transform="translate(0,-264.99899)">
</g>
</svg>