<?xml version="1.0" encoding="UTF-8" standalone="no"?>
<!-- Generator: Adobe Illustrator 16.0.0, SVG Export Plug-In . SVG Version: 6.00 Build 0)  -->

<svg
   xmlns:dc="http://purl.org/dc/elements/1.1/"
   xmlns:cc="http://creativecommons.org/ns#"
   xmlns:rdf="http://www.w3.org/1999/02/22-rdf-syntax-ns#"
   xmlns:svg="http://www.w3.org/2000/svg"
   xmlns="http://www.w3.org/2000/svg"
   xmlns:sodipodi="http://sodipodi.sourceforge.net/DTD/sodipodi-0.dtd"
   xmlns:inkscape="http://www.inkscape.org/namespaces/inkscape"
   version="1.1"
   id="Capa_1"
   x="0px"
   y="0px"
   width="32"
   height="32"
   viewBox="0 0 32 32.000001"
   xml:space="preserve"
   sodipodi:docname="doc.svg"
   inkscape:version="0.92.4 (5da689c313, 2019-01-14)"><metadata
   id="metadata51"><rdf:RDF><cc:Work
       rdf:about=""><dc:format>image/svg+xml</dc:format><dc:type
         rdf:resource="http://purl.org/dc/dcmitype/StillImage" /><dc:title /></cc:Work></rdf:RDF></metadata><defs
   id="defs49"><clipPath
     clipPathUnits="userSpaceOnUse"
     id="clipPath76"><g
       style="stroke:#ffffff;stroke-width:20.8710022;stroke-miterlimit:4;stroke-dasharray:none"
       id="use78"
       inkscape:label="Clip"><path
         id="path3850"
         d="M 27.400015,28.191119 H 140.51918 V 140.83029 H 27.400015 Z"
         style="fill:#000000;fill-opacity:1;fill-rule:nonzero;stroke:#ffffff;stroke-width:20.8710022;stroke-miterlimit:4;stroke-dasharray:none"
         inkscape:connector-curvature="0" /><path
         id="path3852"
         d="m -109.95896,139.3103 125.279065,2.07999 0.48,-126.319071 H 141.07918 v -89.839333 c 0,0 -6.07995,-33.839746 -33.83975,-34.879746 -27.759795,-1.03999 -181.838657,-0.47999 -181.838657,-0.47999 0,0 -34.879743,6.55995 -34.879743,34.319744 0,27.759794 -0.47999,215.118406 -0.47999,215.118406 z"
         style="fill:#ffcc00;fill-opacity:1;fill-rule:nonzero;stroke:#ffffff;stroke-width:20.8710022;stroke-linecap:butt;stroke-linejoin:miter;stroke-miterlimit:4;stroke-dasharray:none;stroke-opacity:1"
         inkscape:connector-curvature="0" /></g></clipPath></defs><sodipodi:namedview
   pagecolor="#ffffff"
   bordercolor="#666666"
   borderopacity="1"
   objecttolerance="10"
   gridtolerance="10"
   guidetolerance="10"
   inkscape:pageopacity="0"
   inkscape:pageshadow="2"
   inkscape:window-width="1920"
   inkscape:window-height="1001"
   id="namedview47"
   showgrid="false"
   inkscape:zoom="10.725101"
   inkscape:cx="-2.1717687"
   inkscape:cy="15.8095"
   inkscape:window-x="-9"
   inkscape:window-y="-9"
   inkscape:window-maximized="1"
   inkscape:current-layer="Capa_1"
   fit-margin-top="0"
   fit-margin-left="0"
   fit-margin-right="0"
   fit-margin-bottom="0" />
<rect
   style="fill:#ffffff;fill-opacity:1;stroke:#008000;stroke-width:3.47707438;stroke-miterlimit:4;stroke-dasharray:none;stroke-opacity:0"
   id="rect3856"
   width="19.213303"
   height="13.917746"
   x="7.3486948"
   y="1.4175375" /><path
   d="m 26.561998,15.335283 c -0.1,-0.666 -0.671,-1.146 -1.343,-1.146 h -10.886 l -1.977,-2.34 c -0.419,-0.492 -1.034,-0.802 -1.681,-0.802 h -7.073 c -0.504,0 -0.983,0.236 -1.309,0.622 -0.325,0.387 -0.464,0.917 -0.379,1.414 l 0.188,1.106 h -0.124 c -0.396,0 -0.771,0.161 -1.02700003,0.461 -0.26,0.301 -0.373,0.693 -0.312,1.084 l 2.19600003,14.248 c 0.133,0.857 0.871,1.488 1.738,1.488 h 22.797 c 0.396,0 0.771,-0.174 1.027,-0.471 0.257,-0.3 0.373,-0.689 0.314,-1.08 z"
   id="path2"
   inkscape:connector-curvature="0"
   style="fill:#ffe680;stroke:#333333;stroke-width:0.5;stroke-miterlimit:4;stroke-dasharray:none" /><path
   d="m 21.141998,4.7022828 h -8.515 c -0.587,0 -1.063,0.53 -1.063,1.118 0,0.588 0.477,1.118 1.063,1.118 h 8.515 c 0.589,0 1.064,-0.53 1.064,-1.118 0,-0.588 -0.477,-1.118 -1.064,-1.118 z"
   id="path4"
   inkscape:connector-curvature="0"
   style="fill:#241c1c" /><path
   d="m 31.173998,12.537283 c -0.245,-0.285 -0.604,-0.464 -0.981,-0.464 h -2.416 l 0.55,5.095 1.313,8.901 1.838,-12.492 c 0.051,-0.372 -0.057,-0.754 -0.304,-1.04 z"
   id="path6"
   inkscape:connector-curvature="0"
   style="fill:#ffe680;stroke:#000000;stroke-width:0.5;stroke-miterlimit:4;stroke-dasharray:none" /><path
   d="M 9.5209979,2.4062828 H 24.384998 V 12.497283 h 2.056 V 1.6582828 c -0.001,-0.71599996 -0.599,-1.30699996 -1.315,-1.30699996 H 8.6879979 c -0.7859999,0 -1.4019999,0.647 -1.4019999,1.43299996 v 7.8120005 h 2.2349999 z"
   id="path8"
   inkscape:connector-curvature="0"
   style="fill:#241c1c" /><path
   d="m 21.141998,8.8112833 h -8.515 c -0.511,0 -0.937,0.404 -1.04,0.899 0.729,0.186 1.392,0.5829997 1.891,1.1679997 l 0.155,0.168 h 7.509 c 0.589,0 1.064,-0.53 1.064,-1.1179997 0,-0.588 -0.477,-1.117 -1.064,-1.117 z"
   id="path10"
   inkscape:connector-curvature="0"
   style="fill:#241c1c" />
<g
   id="g16"
   transform="translate(0.1240411,0.63100052)">
</g>
<g
   id="g18"
   transform="translate(0.1240411,0.63100052)">
</g>
<g
   id="g20"
   transform="translate(0.1240411,0.63100052)">
</g>
<g
   id="g22"
   transform="translate(0.1240411,0.63100052)">
</g>
<g
   id="g24"
   transform="translate(0.1240411,0.63100052)">
</g>
<g
   id="g26"
   transform="translate(0.1240411,0.63100052)">
</g>
<g
   id="g28"
   transform="translate(0.1240411,0.63100052)">
</g>
<g
   id="g30"
   transform="translate(0.1240411,0.63100052)">
</g>
<g
   id="g32"
   transform="translate(0.1240411,0.63100052)">
</g>
<g
   id="g34"
   transform="translate(0.1240411,0.63100052)">
</g>
<g
   id="g36"
   transform="translate(0.1240411,0.63100052)">
</g>
<g
   id="g38"
   transform="translate(0.1240411,0.63100052)">
</g>
<g
   id="g40"
   transform="translate(0.1240411,0.63100052)">
</g>
<g
   id="g42"
   transform="translate(0.1240411,0.63100052)">
</g>
<g
   id="g44"
   transform="translate(0.1240411,0.63100052)">
</g>
</svg>