<?xml version="1.0" encoding="UTF-8" standalone="no"?>
<!-- Generator: Adobe Illustrator 18.0.0, SVG Export Plug-In . SVG Version: 6.00 Build 0)  -->

<svg
   xmlns:dc="http://purl.org/dc/elements/1.1/"
   xmlns:cc="http://creativecommons.org/ns#"
   xmlns:rdf="http://www.w3.org/1999/02/22-rdf-syntax-ns#"
   xmlns:svg="http://www.w3.org/2000/svg"
   xmlns="http://www.w3.org/2000/svg"
   xmlns:sodipodi="http://sodipodi.sourceforge.net/DTD/sodipodi-0.dtd"
   xmlns:inkscape="http://www.inkscape.org/namespaces/inkscape"
   version="1.1"
   id="Capa_1"
   x="0px"
   y="0px"
   viewBox="0 0 32 32"
   xml:space="preserve"
   sodipodi:docname="geo.svg"
   inkscape:version="0.92.4 (5da689c313, 2019-01-14)"
   width="32"
   height="32"><metadata
   id="metadata47"><rdf:RDF><cc:Work
       rdf:about=""><dc:format>image/svg+xml</dc:format><dc:type
         rdf:resource="http://purl.org/dc/dcmitype/StillImage" /><dc:title /></cc:Work></rdf:RDF></metadata><defs
   id="defs45">
	
	
	
	
</defs><sodipodi:namedview
   pagecolor="#ffffff"
   bordercolor="#666666"
   borderopacity="1"
   objecttolerance="10"
   gridtolerance="10"
   guidetolerance="10"
   inkscape:pageopacity="0"
   inkscape:pageshadow="2"
   inkscape:window-width="1920"
   inkscape:window-height="1001"
   id="namedview43"
   showgrid="false"
   inkscape:zoom="25.42761"
   inkscape:cx="28.324894"
   inkscape:cy="11.712572"
   inkscape:window-x="-9"
   inkscape:window-y="-9"
   inkscape:window-maximized="1"
   inkscape:current-layer="Capa_1" />
<path
   style="display:inline;fill:none;stroke:#ffffff;stroke-width:0.98242438px;stroke-linecap:butt;stroke-linejoin:miter;stroke-opacity:1"
   d="M 5.0055519,1.476692 H 26.64066 c 0,0 1.390431,-0.2147176 1.6129,1.0199087 0.222469,1.2346263 3.264782,26.6326013 3.264782,26.6326013 0,0 0.07225,1.602766 -1.151327,1.602766 -1.223579,0 -28.8097322,0 -28.8097322,0 0,0 -1.16796209,-0.536795 -1.00111036,-1.717741 C 0.72302417,27.83328 3.8375898,2.7113184 3.8375898,2.7113184 c 0,0 -0.055617,-1.1809469 1.1679621,-1.2346264 z"
   id="path5028"
   inkscape:connector-curvature="0"
   inkscape:label="path5028" /><path
   inkscape:connector-curvature="0"
   id="path2"
   d="M 16.400092,5.1725785 9.8385163,0.9554025 C 9.8230003,0.9454245 9.8084213,0.9338553 9.7936343,0.9225756 H 4.8534225 c -0.5125466,0 -0.9493879,0.5162649 -1.0313412,1.2189348 l -0.9007575,7.72315 z"
   style="stroke-width:0.12271512;fill:#aaffaa" /><path
   inkscape:connector-curvature="0"
   id="path4"
   d="M 27.14618,9.8410887 28.797118,6.2862358 28.313729,2.141655 C 28.231775,1.4391297 27.794934,0.92272018 27.282387,0.92272018 H 13.270038 Z"
   style="stroke-width:0.12271512;fill:#8dd35f" /><path
   inkscape:connector-curvature="0"
   id="path6"
   d="M 31.518342,29.61635 29.146487,9.2817294 18.92138,31.2992 h 11.565517 c 0.306258,0 0.597207,-0.186549 0.795687,-0.51048 0.198687,-0.323931 0.284701,-0.752706 0.235758,-1.17237 z"
   style="stroke-width:0.12271512;fill:#55d400" /><path
   inkscape:connector-curvature="0"
   id="path8"
   d="M 26.3456,11.565009 18.513487,6.5310639 2.6892096,12.03977 c -0.0075,0.0025 -0.014891,0.0035 -0.022389,0.0058 L 0.61746741,29.61635 c -0.0489429,0.419664 0.0370716,0.848439 0.23575895,1.17237 C 1.0516013,31.112651 1.3425511,31.2992 1.6489128,31.2992 H 17.180783 Z M 16.075507,26.149566 c -0.0026,0 -0.0052,0 -0.0078,0 -0.111111,0 -0.223055,-0.035 -0.327189,-0.107302 l -3.814317,-2.65045 -3.8131719,2.649293 C 7.8293586,26.238068 7.4865501,26.158966 7.2644326,25.845157 7.042107,25.531205 6.9906649,25.05413 7.1371811,24.663677 L 11.277021,13.630792 c 0.126106,-0.33579 0.376027,-0.546345 0.648649,-0.546345 0.272518,0 0.522544,0.210411 0.64865,0.546055 l 4.117867,10.969401 c 0.06925,0.155314 0.109236,0.338248 0.109236,0.534197 -1.04e-4,0.558347 -0.32448,1.011561 -0.725916,1.015466 z"
   style="stroke-width:0.12271512;fill:#008000" />
<g
   id="g12"
   transform="translate(0,-265)">
</g>
<g
   id="g14"
   transform="translate(0,-265)">
</g>
<g
   id="g16"
   transform="translate(0,-265)">
</g>
<g
   id="g18"
   transform="translate(0,-265)">
</g>
<g
   id="g20"
   transform="translate(0,-265)">
</g>
<g
   id="g22"
   transform="translate(0,-265)">
</g>
<g
   id="g24"
   transform="translate(0,-265)">
</g>
<g
   id="g26"
   transform="translate(0,-265)">
</g>
<g
   id="g28"
   transform="translate(0,-265)">
</g>
<g
   id="g30"
   transform="translate(0,-265)">
</g>
<g
   id="g32"
   transform="translate(0,-265)">
</g>
<g
   id="g34"
   transform="translate(0,-265)">
</g>
<g
   id="g36"
   transform="translate(0,-265)">
</g>
<g
   id="g38"
   transform="translate(0,-265)">
</g>
<g
   id="g40"
   transform="translate(0,-265)">
</g>
</svg>