<?xml version="1.0" encoding="UTF-8" standalone="no"?>
<!-- Generator: Adobe Illustrator 19.0.0, SVG Export Plug-In . SVG Version: 6.00 Build 0)  -->

<svg
   xmlns:dc="http://purl.org/dc/elements/1.1/"
   xmlns:cc="http://creativecommons.org/ns#"
   xmlns:rdf="http://www.w3.org/1999/02/22-rdf-syntax-ns#"
   xmlns:svg="http://www.w3.org/2000/svg"
   xmlns="http://www.w3.org/2000/svg"
   xmlns:sodipodi="http://sodipodi.sourceforge.net/DTD/sodipodi-0.dtd"
   xmlns:inkscape="http://www.inkscape.org/namespaces/inkscape"
   version="1.1"
   id="Layer_1"
   x="0px"
   y="0px"
   viewBox="0 0 32 32"
   xml:space="preserve"
   sodipodi:docname="ups.svg"
   inkscape:version="0.92.4 (5da689c313, 2019-01-14)"
   width="32"
   height="32"><metadata
   id="metadata51"><rdf:RDF><cc:Work
       rdf:about=""><dc:format>image/svg+xml</dc:format><dc:type
         rdf:resource="http://purl.org/dc/dcmitype/StillImage" /><dc:title /></cc:Work></rdf:RDF></metadata><defs
   id="defs49" /><sodipodi:namedview
   pagecolor="#ffffff"
   bordercolor="#666666"
   borderopacity="1"
   objecttolerance="10"
   gridtolerance="10"
   guidetolerance="10"
   inkscape:pageopacity="0"
   inkscape:pageshadow="2"
   inkscape:window-width="1920"
   inkscape:window-height="1001"
   id="namedview47"
   showgrid="false"
   inkscape:zoom="14.750029"
   inkscape:cx="39.215915"
   inkscape:cy="18.519964"
   inkscape:window-x="-9"
   inkscape:window-y="-9"
   inkscape:window-maximized="1"
   inkscape:current-layer="Layer_1" />
<rect
   style="fill:#ffffff;fill-opacity:1;stroke:#ffffff;stroke-width:3.36400008;stroke-miterlimit:4;stroke-dasharray:none;stroke-opacity:0"
   id="rect5625"
   width="30.98299"
   height="19.118607"
   x="0.54237181"
   y="0.81362081" /><path
   style="fill:#d1d3d4;stroke-width:0.07310513"
   d="M 14.945566,31.439111 H 2.6901391 c -1.1926094,0 -2.15944265,-0.497722 -2.15944265,-1.111688 V 14.815848 c 0,-0.613959 0.96683325,-1.111682 2.15944265,-1.111682 h 7.6097939 c 0.933289,0 1.761049,0.308685 2.05184,0.76528 5.813793,9.127406 4.753218,-0.369162 4.753218,15.857977 0,0.613912 -0.966817,1.111688 -2.159425,1.111688 z"
   id="path2"
   inkscape:connector-curvature="0" />
<path
   style="fill:#48aee2;stroke-width:0.06942064"
   d="M 11.145859,31.235077 V 15.228794 c 0,-0.732712 0.430614,-1.370137 1.042223,-1.542863 1.523605,-0.429276 1.325953,0.877566 5.169357,8.413414 3.767746,-7.387837 1.513513,-7.983475 13.564359,6.441208 0.441422,0.528522 0.519408,1.353067 0.155701,1.990724 -0.566053,0.992257 0.226472,0.7038 -19.93164,0.7038 z"
   id="path4"
   inkscape:connector-curvature="0" />
<path
   style="fill:#39a3db;stroke-width:0.057461"
   d="M 28.045437,29.593134 C 16.028885,19.738503 18.276939,20.080903 14.481078,25.180001 v 6.259057 c 13.570797,0 13.168351,0.180386 13.719996,-0.482137 0.363771,-0.436722 0.285785,-1.001737 -0.155637,-1.363787 z"
   id="path6"
   inkscape:connector-curvature="0" />
<path
   style="fill:#f59d00;stroke-width:0.0643687"
   d="m 28.561849,31.109746 c -12.468801,-8.14849 -12.581583,-7.876198 -11.97977,-8.781917 0.588901,-0.88622 0.860744,-0.664469 13.206338,-0.664469 0.945032,0 1.711156,0.48696 1.711156,1.087642 v 7.600461 c 8.3e-5,0.976901 -1.873203,1.454111 -2.937724,0.758283 z"
   id="path8"
   inkscape:connector-curvature="0" />
<path
   style="fill:#57bdb7;stroke-width:0.06796212"
   d="m 31.499656,23.838696 c -16.173765,0 -15.464809,0.117158 -16.2211,-0.317868 -2.105909,-1.211476 2.368527,-2.752363 5.780573,-8.687391 0.25625,-0.445699 0.988055,-0.74571 1.810873,-0.74571 h 6.72211 c 1.053491,0 1.907544,0.486967 1.907544,1.087648 z"
   id="path10"
   inkscape:connector-curvature="0" />
<path
   style="fill:#ff5e5b;stroke-width:0.0501378"
   d="m 16.590233,0.78038828 c -4.687305,0 -8.688151,4.64898702 -6.910853,10.32341672 1.132719,3.619441 4.275991,9.403029 6.030704,12.341779 0.18977,0.317868 0.52242,0.510879 0.880249,0.510879 0.357835,0 0.690436,-0.193117 0.880247,-0.510879 1.228135,-2.056943 4.775778,-8.33375 6.030705,-12.34162 v 5.3e-5 C 25.27163,5.4502143 21.293418,0.78038828 16.590233,0.78038828 Z m -4e-5,11.63502072 c -2.043185,0 -3.705424,-1.741748 -3.705424,-3.8827027 0,-2.140546 1.662329,-3.882089 3.705424,-3.882089 2.043177,0 3.705512,1.741444 3.705512,3.882089 0,2.1409017 -1.662287,3.8827027 -3.705512,3.8827027 z"
   id="path12"
   inkscape:connector-curvature="0" />
<path
   style="fill:#ff423d;stroke-width:0.0501378"
   d="M 16.590193,0.78038828 V 4.6506173 c 2.043185,5.3e-5 3.705423,1.741543 3.705423,3.882089 0,2.1409017 -1.662238,3.8826497 -3.705423,3.8827027 v 11.541054 c 0.357837,0 0.690388,-0.193117 0.880157,-0.510879 1.228135,-2.056943 4.775771,-8.33375 6.030697,-12.34162 v 5.3e-5 C 25.27159,5.4502143 21.293378,0.78038828 16.590193,0.78038828 Z"
   id="path14"
   inkscape:connector-curvature="0" />
<g
   id="g16"
   transform="translate(0,-479.99899)">
</g>
<g
   id="g18"
   transform="translate(0,-479.99899)">
</g>
<g
   id="g20"
   transform="translate(0,-479.99899)">
</g>
<g
   id="g22"
   transform="translate(0,-479.99899)">
</g>
<g
   id="g24"
   transform="translate(0,-479.99899)">
</g>
<g
   id="g26"
   transform="translate(0,-479.99899)">
</g>
<g
   id="g28"
   transform="translate(0,-479.99899)">
</g>
<g
   id="g30"
   transform="translate(0,-479.99899)">
</g>
<g
   id="g32"
   transform="translate(0,-479.99899)">
</g>
<g
   id="g34"
   transform="translate(0,-479.99899)">
</g>
<g
   id="g36"
   transform="translate(0,-479.99899)">
</g>
<g
   id="g38"
   transform="translate(0,-479.99899)">
</g>
<g
   id="g40"
   transform="translate(0,-479.99899)">
</g>
<g
   id="g42"
   transform="translate(0,-479.99899)">
</g>
<g
   id="g44"
   transform="translate(0,-479.99899)">
</g>
</svg>