<svg height="511pt" viewBox="0 0 511 511.99867" width="511pt" xmlns="http://www.w3.org/2000/svg"><path d="m503.613281 302.773438-86.40625-62.84375-25.09375 34.507812 62.679688 45.589844-82.683594 60.132812-195.359375-146.519531 43.707031-31.789063-25.097656-34.507812-186.21875 135.429688c-11.523437 8.378906-11.523437 26.128906 0 34.507812l234.6875 170.679688c7.398437 5.382812 17.699219 5.382812 25.097656 0l234.6875-170.679688c11.523438-8.378906 11.523438-26.128906 0-34.507812zm-362.96875-42.875 76.523438 57.390624-81.769531 59.054688-77.433594-56.316406zm115.734375 204.429687-84.667968-61.574219 81.207031-58.652344 83.085937 62.316407zm0 0"/><path d="m491.066406 0h-213.355468c-11.78125 0-21.332032 9.554688-21.332032 21.335938v234.6875c0 16.671874 19.226563 27.042968 33.167969 17.75l58.628906-39.085938h142.890625c11.78125 0 21.332032-9.554688 21.332032-21.335938v-192.015624c0-11.78125-9.550782-21.335938-21.332032-21.335938zm-21.335937 192.015625h-128.011719c-4.210938 0-8.328125 1.246094-11.835938 3.585937l-30.835937 20.554688v-173.484375h170.679687v149.34375zm0 0"/><path d="m320.382812 64.003906h128.011719v42.671875h-128.011719zm0 0"/><path d="m320.382812 128.011719h128.011719v42.671875h-128.011719zm0 0"/></svg>