<svg height="512pt" viewBox="0 0 512 512" width="512pt" xmlns="http://www.w3.org/2000/svg"><path d="m485 69.097656c5.699219-6 5.699219-15.296875 0-21.300781l-42.601562-43.296875c-5.699219-6-15.296876-6-21 0l-55.796876 56.5h-37.203124l-55.796876-56.5c-5.703124-6-15.300781-6-21 0l-42.601562 43.300781c-5.699219 6-5.699219 15.296875 0 21.300781l63 62.695313v23.101563l-63 62.699218c-5.699219 5.699219-5.699219 16.300782 0 22l42.601562 42.601563c6.375 6.378906 15.671876 5.550781 20.398438.296875v23.703125l14.097656-5.101563c15.300782-5.097656 30.601563-9.300781 45.902344-13.199218v-30.898438c0-8.402344 6.597656-15 15-15s15 6.597656 15 15v24.597656c17.101562-3 34.199219-5.699218 51.597656-7.199218l7.800782 7.796874c4.898437 5.441407 14.46875 6.539063 21 0l42.597656-42.597656c5.703125-5.699218 5.703125-16.300781 0-22l-62.996094-62.699218v-23.101563zm-95.402344 95.402344-21.296875 21.296875-21.300781-21.296875-21.300781 21.296875-21.296875-21.296875 21.296875-21.300781-21-21 21-21.300781 21.300781 21.300781 21.300781-21.300781 21.300781 21.300781-21.300781 21zm0 0"/><path d="m45 151h17.5625c6.195312 17.460938 23.882812 30 43.4375 30h61c24.8125 0 45-20.1875 45-45 0-24.816406-20.1875-45-45-45h-17.5625c-6.199219-17.460938-23.882812-30-43.4375-30h-61c-24.8125 0-45 20.183594-45 45 0 24.8125 20.1875 45 45 45zm0 0"/><path d="m389.578125 389.222656c16.957031 13.335938 33.214844 27.605469 48.554687 42.921875 7.722657-.453125 15.433594-1.144531 23.167969-1.144531h50.699219v-48h-50.699219c-24.15625 0-48.105469 2.203125-71.722656 6.222656zm0 0"/><path d="m497 302h-35.699219c-56.699219 0-112.199219 9.300781-165.300781 27.597656 20.996094 10.539063 41.277344 22.429688 60.746094 35.535156 34.164062-8.03125 69.191406-12.132812 104.554687-12.132812h50.699219v-36c0-8.402344-6.597656-15-15-15zm0 0"/><path d="m503.300781 510.5c5.097657-2.101562 8.699219-7.203125 8.699219-13.5v-36h-47.109375c13.628906 15.71875 26.550781 32.144531 38.410156 49.5zm0 0"/><path d="m397.425781 512h70.175781c-99.203124-134.089844-256.78125-210-416.902343-210h-35.699219c-8.402344 0-15 6.597656-15 15v36h50.699219c132.691406 0 260.613281 59.117188 346.726562 159zm0 0"/><path d="m291.984375 512h64.957031c-79.535156-81.402344-191.199218-129-306.242187-129h-50.699219v47.996094h50.699219c87.960937 0 173.253906 29.003906 241.285156 81.003906zm0 0"/><path d="m15 512h223.382812c-55.46875-32.847656-121.09375-51-187.683593-51h-50.699219v36c0 8.398438 6.597656 15 15 15zm0 0"/></svg>