<svg height="512pt" viewBox="0 0 512 512" width="512pt" xmlns="http://www.w3.org/2000/svg"><path d="m494.828125 346.578125c-9.324219-5.898437-19.699219-11.304687-30.644531-15.988281v-48.289063c0-8.285156-6.714844-15-15-15s-15 6.714844-15 15v37.726563c-13.777344-3.847656-27.773438-6.398438-41.210938-7.28125v-42.960938c0-8.28125-6.714844-15-15-15s-15 6.71875-15 15v43.292969c-9.503906.664063-18.5 1.789063-27 3.273437v-39.058593c0-8.28125-6.714844-15-15-15s-15 6.71875-15 15v46.265625c-9.921875 3.074218-18.917968 6.589844-27 10.285156v-31.035156c0-8.28125-6.714844-15-15-15s-15 6.71875-15 15v47.867187c-16.503906 11.234375-24.578125 20.566407-24.578125 20.566407 30.6875 24.386718 60.507813 74.316406 63.191407 140.757812h182.933593c22.871094 0 41.480469-18.605469 41.480469-41.480469v-92.734375c0-12.738281-6.417969-24.402344-17.171875-31.207031zm0 0"/><path d="m238.972656 454.492188c-14.015625-32.332032-38.152344-59.179688-68.375-77.050782v-44.886718c0-8.285157-6.714844-15-15-15s-15 6.714843-15 15v30.867187c-11.1875-3.964844-22.910156-6.8125-35.015625-8.410156-1.894531-.253907-3.800781-.472657-5.714843-.664063v-36.566406c0-8.28125-6.714844-15-15-15-8.285157 0-15 6.71875-15 15v36.167969c-14.128907.929687-28.457032 3.28125-41.625 7.035156-1.800782.507813-3.535157 1.136719-5.210938 1.886719-13.796875 6.109375-23.03125 19.59375-23.03125 34.449218v72.140626c0 23.457031 19.839844 42.539062 44.234375 42.539062h208.160156c-.46875-8.117188-1.488281-15.976562-2.941406-23.558594-2.277344-11.839844-5.8125-23.195312-10.480469-33.949218zm0 0"/><path d="m71.296875 142.722656c39.3125 0 71.296875-32.011718 71.296875-71.359375 0-39.351562-31.984375-71.363281-71.296875-71.363281s-71.296875 32.011719-71.296875 71.359375c0 39.351563 31.984375 71.363281 71.296875 71.363281zm0 0"/><path d="m47.066406 189.554688v28.074218c0 8.28125 6.71875 15 15 15 8.285156 0 15-6.71875 15-15v-28.074218c0-8.285157-6.714844-15-15-15-8.28125 0-15 6.714843-15 15zm0 0"/><path d="m190.898438 75.953125h28.039062c8.285156 0 15-6.714844 15-15s-6.714844-15-15-15h-28.039062c-8.285157 0-15 6.714844-15 15s6.714843 15 15 15zm0 0"/><path d="m146.414062 162.242188 19.828126 19.851562c2.929687 2.933594 6.769531 4.398438 10.613281 4.398438 3.832031 0 7.671875-1.460938 10.597656-4.386719 5.863281-5.855469 5.867187-15.351563.015625-21.214844l-19.828125-19.851563c-5.855469-5.855468-15.355469-5.863281-21.214844-.011718-5.863281 5.859375-5.867187 15.355468-.011719 21.214844zm0 0"/></svg>