<svg height="512pt" viewBox="-16 0 511 512" width="512pt" xmlns="http://www.w3.org/2000/svg"><path d="m382.59375 256.460938 91.519531 255.539062h6.132813v-255.539062zm0 0"/><path d="m298.15625 256.460938 37.691406 255.539062h106.398438l-91.519532-255.539062zm0 0"/><path d="m214.003906 256.460938-37.6875 255.539062h129.203125l-37.6875-255.539062zm0 0"/><path d="m47.003906 191.925781v34.53125h30v-34.53125c18.058594-6.238281 31.070313-23.398437 31.070313-43.550781v-39.636719c0-25.402343-20.667969-46.070312-46.070313-46.070312s-46.070312 20.667969-46.070312 46.070312v39.636719c0 20.152344 13.011718 37.3125 31.070312 43.550781zm0 0"/><path d="m131.109375 256.460938-91.519531 255.539062h106.402344l37.6875-255.539062zm0 0"/><path d="m167.871094 191.925781v34.53125h30v-34.53125c18.058594-6.238281 31.070312-23.398437 31.070312-43.550781v-39.636719c0-25.402343-20.667968-46.070312-46.070312-46.070312s-46.070313 20.667969-46.070313 46.070312v39.636719c0 20.152344 13.011719 37.3125 31.070313 43.550781zm0 0"/><path d="m.5 256.460938v255.539062h7.222656l91.519532-255.539062zm0 0"/><path d="m410.339844 105.800781c29.171875 0 52.902344-23.730469 52.902344-52.898437 0-29.171875-23.730469-52.902344-52.902344-52.902344-29.167969 0-52.898438 23.730469-52.898438 52.902344 0 29.167968 23.730469 52.898437 52.898438 52.898437zm0 0"/></svg>