<?xml version="1.0" encoding="iso-8859-1"?>
<!-- Generator: Adobe Illustrator 19.0.0, SVG Export Plug-In . SVG Version: 6.00 Build 0)  -->
<svg version="1.1" id="Capa_1" xmlns="http://www.w3.org/2000/svg" xmlns:xlink="http://www.w3.org/1999/xlink" x="0px" y="0px"
	 viewBox="0 0 512.059 512.059" style="enable-background:new 0 0 512.059 512.059;" xml:space="preserve">
<g transform="translate(-1 -1)">
	<g>
		<g>
			<path d="M505.251,376.504c-20.151-1.355-40.379-1.069-60.484,0.853V366.41c5.842-1.914,10.773-5.915,13.85-11.238
				c4.371-7.562,4.292-16.901-0.205-24.388c-3.64-6.069-7.629-11.921-11.947-17.527c-2.537-3.031-6.287-4.782-10.24-4.782
				c-3.953,0-7.703,1.751-10.24,4.782c-4.315,5.602-8.304,11.449-11.947,17.51c-4.497,7.491-4.575,16.832-0.205,24.397
				c3.079,5.329,8.017,9.334,13.867,11.247v12.8c-40.697,4.581-79.983,17.635-115.328,38.323
				c-29.053-5.413-57.336-14.351-84.224-26.615c18.147-7.016,35.554-15.811,51.968-26.257l0.853-0.529
				c0.973-0.589,1.963-1.195,2.722-1.707c120.593-78.78,215.774-71.253,219.785-70.861c4.694,0.424,8.843-3.037,9.267-7.731
				s-3.037-8.843-7.731-9.267c-2.876-0.265-50.406-4.028-119.979,19.311v-20.762c11.359-2.493,21.167-9.605,27.068-19.627
				c8.297-13.901,8.753-31.12,1.203-45.44c-6.931-12.919-14.58-25.44-22.912-37.504c-3.103-4.636-8.314-7.419-13.892-7.419
				c-5.578,0-10.789,2.783-13.892,7.419c-8.332,12.064-15.981,24.585-22.912,37.504c-7.549,14.32-7.094,31.539,1.203,45.44
				c5.901,10.022,15.708,17.133,27.068,19.627v26.897c-11.426,4.369-23.33,9.438-35.661,15.36
				c-12.759-20.996-35.835-33.495-60.391-32.71c-24.556,0.785-46.787,14.731-58.18,36.499
				c-19.097-10.227-38.839-19.201-59.102-26.863v-23.117c8.17-2.389,15.135-7.778,19.499-15.087
				c7.393-12.078,8.085-27.101,1.835-39.808c-5.275-10.578-11.112-20.867-17.485-30.822c-2.628-4.343-7.335-6.997-12.412-6.997
				s-9.784,2.654-12.412,6.997c-6.356,9.954-12.173,20.243-17.425,30.822c-6.24,12.713-5.535,27.736,1.869,39.808
				c4.356,7.302,11.307,12.69,19.465,15.087v17.067c-19.518-6.559-39.48-11.715-59.733-15.428v-9.515
				c5.206-2.001,9.618-5.644,12.57-10.377c5.45-8.883,5.971-19.938,1.382-29.295c-3.563-7.153-7.508-14.109-11.819-20.838
				c-2.418-3.509-6.406-5.604-10.667-5.604s-8.249,2.095-10.667,5.604c-4.309,6.724-8.254,13.675-11.819,20.821
				c-4.589,9.36-4.067,20.417,1.382,29.303c2.95,4.736,7.362,8.381,12.57,10.385v6.827c-16.946-2.479-34.091-3.336-51.2-2.56
				c-3.049,0.223-5.747,2.055-7.079,4.806c-1.332,2.752-1.094,6.004,0.623,8.533c1.717,2.529,4.653,3.95,7.702,3.727
				c9.549-0.691,96.614-4.958,207.872,58.624c11.971,6.823,24.4,12.811,37.197,17.92c-14.191,7.789-29.039,14.317-44.373,19.507
				c-8.695-14.746-17.681-27.87-24.124-36.813c-3.609-5.04-9.426-8.029-15.625-8.029c-6.198,0-12.016,2.99-15.625,8.029
				c-2.244,3.123-4.83,6.827-7.578,10.837c-44.875-15.467-92.372-21.883-139.742-18.876c-3.049,0.268-5.723,2.143-7.015,4.917
				c-1.292,2.774-1.006,6.027,0.751,8.533c1.757,2.506,4.717,3.885,7.766,3.616c43.501-2.573,87.099,3.013,128.546,16.469
				c-3.891,6.161-7.876,12.8-11.699,19.627c-9.132,16.209-8.898,36.064,0.614,52.053c7.642,13.161,20.807,22.179,35.84,24.55v25.114
				c-21.805,4.567-44.017,6.914-66.295,7.006l-87.757,0.247c-4.713,0-8.533,3.82-8.533,8.533s3.82,8.533,8.533,8.533l87.782-0.247
				c25.025-0.095,49.965-2.902,74.385-8.371c0.137,0,0.256,0.085,0.401,0.085c1.32-0.023,2.616-0.36,3.78-0.981
				c27.4-6.374,53.846-16.315,78.66-29.568c19.29-10.483,37.935-22.112,55.834-34.825c2.637-1.92,5.359-3.678,8.218-5.444
				c76.305-49.041,184.021-40.243,185.097-40.107c4.715,0.422,8.88-3.059,9.301-7.774S509.966,376.926,505.251,376.504z
				 M355.516,244.741c-5.301-8.748-5.58-19.647-0.734-28.655c7.586-14.327,16.094-27.392,21.547-35.84
				c7.955,11.531,15.263,23.496,21.888,35.84c4.846,9.008,4.567,19.907-0.734,28.655c-4.252,7.597-12.278,12.302-20.983,12.302
				C367.794,257.043,359.768,252.338,355.516,244.741z M75.913,241.9c-1.336,2.433-3.841,3.998-6.613,4.13
				c-2.773-0.133-5.277-1.697-6.613-4.13c-2.355-3.874-2.567-8.682-0.563-12.749c2.364-4.779,4.898-9.31,7.177-13.141
				c2.278,3.831,4.813,8.363,7.177,13.15C78.48,233.223,78.268,238.029,75.913,241.9z M132.557,245.091
				c-4.31-7.059-4.706-15.834-1.05-23.253c4.941-10.027,10.377-19.285,14.592-26.052c4.216,6.767,9.651,16.026,14.592,26.052
				c3.657,7.419,3.261,16.194-1.05,23.253c-2.636,5.04-7.854,8.199-13.542,8.199C140.411,253.291,135.194,250.131,132.557,245.091z
				 M228.737,327.293c8.807-16.923,26.285-27.554,45.363-27.588c17.356-0.017,33.533,8.783,42.948,23.364
				c-13.739,7.211-27.904,15.437-42.419,24.9C258.742,342.467,243.383,335.547,228.737,327.293z M171.7,447.219
				c-12.042,0-23.173-6.415-29.21-16.835v0.026c-6.423-10.782-6.579-24.178-0.41-35.106c8.455-15,17.752-29.51,27.844-43.46
				c0.401-0.586,1.065-0.936,1.775-0.936s1.374,0.35,1.775,0.936c10.092,13.942,19.388,28.444,27.844,43.435
				c6.17,10.929,6.013,24.324-0.41,35.106C194.872,440.804,183.742,447.219,171.7,447.219z M246.511,458.928
				c-20.86,11.128-42.949,19.78-65.818,25.779v-21.274c14.664-2.581,27.444-11.499,34.927-24.371
				c5.7-9.626,8.148-20.832,6.98-31.957c22.471,10.044,45.824,17.985,69.76,23.723C277.571,440.976,262.267,450.355,246.511,458.928
				z M436.233,350.65c-3.009,0-5.83-1.465-7.561-3.927c-1.331-2.245-1.301-5.045,0.077-7.262c2.458-4.156,5.12-8.098,7.484-11.375
				c2.355,3.277,5.026,7.219,7.484,11.383c1.377,2.214,1.406,5.01,0.077,7.253C442.063,349.185,439.242,350.65,436.233,350.65z"/>
			<path d="M133.3,137.571h21.769c2.093,14.657,14.625,25.558,29.431,25.6h76.8c15.829-0.003,28.907-12.354,29.813-28.157
				c0.906-15.803-10.674-29.568-26.399-31.38c-3.998-19.932-21.484-34.288-41.813-34.33c-3.914,0.046-7.803,0.638-11.554,1.758
				c-6.772-17.727-24.465-28.827-43.373-27.209c-18.908,1.618-34.458,15.561-38.121,34.181
				c-15.732,1.812-27.314,15.588-26.399,31.397C104.369,125.24,117.464,137.587,133.3,137.571z M222.9,86.371
				c14.138,0,25.6,11.462,25.6,25.6c0,4.713,3.82,8.533,8.533,8.533h4.267c7.069,0,12.8,5.731,12.8,12.8
				c0.018,3.4-1.324,6.667-3.729,9.071c-2.404,2.404-5.671,3.747-9.071,3.729h-76.8c-7.069,0-12.8-5.731-12.8-12.8
				c0-7.069,5.731-12.8,12.8-12.8h4.267c4.713,0,8.533-3.82,8.533-8.533C197.3,97.833,208.761,86.371,222.9,86.371z M124.229,98.633
				c2.404-2.404,5.671-3.747,9.071-3.729h4.267c4.713,0,8.533-3.821,8.533-8.533c0.016-12.649,9.269-23.391,21.776-25.28
				s24.52,5.64,28.272,17.72c-7.768,6.259-13.097,15.043-15.061,24.823c-10.256,1.088-19.179,7.498-23.484,16.87H133.3
				c-7.069,0-12.8-5.731-12.8-12.8C120.481,104.304,121.824,101.038,124.229,98.633z"/>
			<path d="M355.166,94.904h76.8c15.829-0.003,28.907-12.354,29.813-28.157c0.906-15.803-10.674-29.568-26.399-31.38
				c-3.97-19.966-21.491-34.346-41.847-34.346s-37.878,14.38-41.847,34.346c-15.738,1.813-27.323,15.599-26.398,31.414
				C326.212,82.597,339.324,94.938,355.166,94.904z M346.095,55.967c2.404-2.405,5.67-3.748,9.071-3.729h4.267
				c4.713,0,8.533-3.82,8.533-8.533c0-14.138,11.462-25.6,25.6-25.6c14.138,0,25.6,11.462,25.6,25.6c0,4.713,3.82,8.533,8.533,8.533
				h4.267c4.573,0,8.799,2.44,11.085,6.4c2.286,3.96,2.286,8.84,0,12.8s-6.512,6.4-11.085,6.4h-76.8
				c-5.19,0.016-9.875-3.103-11.863-7.896C341.315,65.148,342.418,59.628,346.095,55.967z"/>
		</g>
	</g>
</g>
<g>
</g>
<g>
</g>
<g>
</g>
<g>
</g>
<g>
</g>
<g>
</g>
<g>
</g>
<g>
</g>
<g>
</g>
<g>
</g>
<g>
</g>
<g>
</g>
<g>
</g>
<g>
</g>
<g>
</g>
</svg>
