<?xml version="1.0" encoding="iso-8859-1"?>
<!-- Generator: Adobe Illustrator 22.1.0, SVG Export Plug-In . SVG Version: 6.00 Build 0)  -->
<svg xmlns="http://www.w3.org/2000/svg" xmlns:xlink="http://www.w3.org/1999/xlink" version="1.1" id="Layer_1_1_" x="0px" y="0px" viewBox="0 0 64 64" style="enable-background:new 0 0 64 64;" xml:space="preserve" width="512" height="512">
<g>
	<path d="M16,42c0-2.206-1.794-4-4-4s-4,1.794-4,4s1.794,4,4,4S16,44.206,16,42z M10,42c0-1.103,0.897-2,2-2s2,0.897,2,2   s-0.897,2-2,2S10,43.103,10,42z"/>
	<path d="M36,42c0-2.206-1.794-4-4-4s-4,1.794-4,4s1.794,4,4,4S36,44.206,36,42z M30,42c0-1.103,0.897-2,2-2s2,0.897,2,2   s-0.897,2-2,2S30,43.103,30,42z"/>
	<path d="M56,42c0-2.206-1.794-4-4-4s-4,1.794-4,4s1.794,4,4,4S56,44.206,56,42z M50,42c0-1.103,0.897-2,2-2s2,0.897,2,2   s-0.897,2-2,2S50,43.103,50,42z"/>
	<path d="M55,59c3.309,0,6-2.691,6-6v-2h-4c-1.538,0-2.937,0.586-4,1.54v-1.579c0.878-0.092,1.673-0.502,2.225-1.176   c0.986,0.095,1.959-0.243,2.679-0.961l0.921-0.921c0.72-0.719,1.059-1.697,0.961-2.679C60.549,44.599,61,43.667,61,42.651v-1.302   c0-1.017-0.451-1.948-1.215-2.574c0.098-0.982-0.241-1.96-0.961-2.68l-0.921-0.92c-0.72-0.718-1.692-1.058-2.679-0.961   C54.6,33.451,53.668,33,52.65,33H51.35c-1.018,0-1.949,0.451-2.574,1.214c-0.987-0.097-1.959,0.243-2.679,0.961l-0.921,0.921   c-0.72,0.719-1.059,1.697-0.961,2.679C43.451,39.401,43,40.333,43,41.349v1.302c0,1.017,0.451,1.948,1.215,2.574   c-0.098,0.982,0.241,1.96,0.961,2.68l0.921,0.92c0.72,0.719,1.692,1.057,2.679,0.961c0.552,0.673,1.347,1.084,2.225,1.176v5.579   C49.937,55.586,48.538,55,47,55h-4v2c0,1.538,0.586,2.937,1.54,4H39.46c0.954-1.063,1.54-2.462,1.54-4v-2h-4   c-1.538,0-2.937,0.586-4,1.54v-5.579c0.878-0.092,1.673-0.502,2.225-1.176c0.985,0.095,1.96-0.243,2.679-0.961l0.921-0.921   c0.72-0.719,1.059-1.697,0.961-2.679C40.549,44.599,41,43.667,41,42.651v-1.302c0-1.017-0.451-1.948-1.215-2.574   c0.098-0.982-0.241-1.96-0.961-2.68l-0.921-0.92c-0.719-0.718-1.692-1.058-2.679-0.961C34.6,33.451,33.668,33,32.65,33H31.35   c-1.018,0-1.949,0.451-2.574,1.214c-0.987-0.097-1.959,0.243-2.679,0.961l-0.921,0.921c-0.72,0.719-1.059,1.697-0.961,2.679   C23.451,39.401,23,40.333,23,41.349v1.302c0,1.017,0.451,1.948,1.215,2.574c-0.098,0.982,0.241,1.96,0.961,2.68l0.921,0.92   c0.72,0.719,1.691,1.057,2.679,0.961c0.552,0.673,1.347,1.084,2.225,1.176v1.579C29.937,51.586,28.538,51,27,51h-4v2   c0,3.309,2.691,6,6,6h2v2H19.46c0.954-1.063,1.54-2.462,1.54-4v-2h-4c-1.538,0-2.937,0.586-4,1.54v-5.579   c0.878-0.092,1.673-0.502,2.225-1.176c0.985,0.095,1.96-0.243,2.679-0.961l0.921-0.921c0.72-0.719,1.059-1.697,0.961-2.679   C20.549,44.599,21,43.667,21,42.651v-1.302c0-1.017-0.451-1.948-1.215-2.574c0.098-0.982-0.241-1.96-0.961-2.68l-0.921-0.92   c-0.719-0.718-1.692-1.058-2.679-0.961C14.6,33.451,13.668,33,12.65,33H11.35c-1.018,0-1.949,0.451-2.574,1.214   c-0.988-0.097-1.96,0.243-2.679,0.961l-0.921,0.921c-0.72,0.719-1.059,1.697-0.961,2.679C3.451,39.401,3,40.333,3,41.349v1.302   c0,1.017,0.451,1.948,1.215,2.574c-0.098,0.982,0.241,1.96,0.961,2.68l0.921,0.92c0.72,0.719,1.691,1.057,2.679,0.961   c0.552,0.673,1.347,1.084,2.225,1.176v1.579C9.937,51.586,8.538,51,7,51H3v2c0,3.309,2.691,6,6,6h2v2H5v2h6h4h16h4h14h4h6v-2h-6v-2   H55z M10.141,48.232l-0.388-0.805l-0.844,0.294c-0.495,0.174-1.032,0.054-1.398-0.312L6.59,46.49   c-0.366-0.366-0.485-0.902-0.312-1.398l0.296-0.843L5.77,43.86C5.295,43.631,5,43.168,5,42.651v-1.302   c0-0.517,0.295-0.98,0.77-1.209l0.805-0.388l-0.296-0.843c-0.174-0.497-0.055-1.032,0.312-1.398l0.921-0.921   c0.366-0.365,0.903-0.484,1.398-0.311l0.844,0.294l0.388-0.805C10.368,35.294,10.832,35,11.35,35h1.301   c0.518,0,0.981,0.294,1.209,0.768l0.388,0.805l0.844-0.294c0.496-0.173,1.033-0.054,1.398,0.312l0.921,0.92   c0.366,0.366,0.485,0.902,0.312,1.398l-0.296,0.843l0.805,0.388c0.475,0.229,0.77,0.692,0.77,1.209v1.302   c0,0.517-0.295,0.98-0.77,1.209l-0.805,0.388l0.296,0.843c0.174,0.497,0.055,1.032-0.312,1.398l-0.921,0.921   c-0.365,0.365-0.902,0.485-1.398,0.311l-0.844-0.294l-0.388,0.805C13.632,48.706,13.168,49,12.65,49H11.35   C10.832,49,10.368,48.706,10.141,48.232z M9,57c-2.206,0-4-1.794-4-4h2c2.206,0,4,1.794,4,4H9z M13,61c0-2.206,1.794-4,4-4h2   c0,2.206-1.794,4-4,4H13z M57,53h2c0,2.206-1.794,4-4,4h-2C53,54.794,54.794,53,57,53z M50.141,48.232l-0.388-0.805l-0.844,0.294   c-0.495,0.174-1.032,0.054-1.398-0.312l-0.921-0.92c-0.366-0.366-0.485-0.902-0.312-1.398l0.296-0.843L45.77,43.86   C45.295,43.631,45,43.168,45,42.651v-1.302c0-0.517,0.295-0.98,0.77-1.209l0.805-0.388l-0.296-0.843   c-0.174-0.497-0.055-1.032,0.312-1.398l0.921-0.921c0.366-0.365,0.903-0.484,1.398-0.311l0.844,0.294l0.388-0.805   C50.368,35.294,50.832,35,51.35,35h1.301c0.518,0,0.981,0.294,1.209,0.768l0.388,0.805l0.844-0.294   c0.496-0.173,1.033-0.054,1.398,0.312l0.921,0.92c0.366,0.366,0.485,0.902,0.312,1.398l-0.296,0.843l0.805,0.388   c0.475,0.229,0.77,0.692,0.77,1.209v1.302c0,0.517-0.295,0.98-0.77,1.209l-0.805,0.388l0.296,0.843   c0.174,0.497,0.055,1.032-0.312,1.398l-0.921,0.921c-0.365,0.365-0.902,0.485-1.398,0.311l-0.844-0.294l-0.388,0.805   C53.632,48.706,53.168,49,52.65,49H51.35C50.832,49,50.368,48.706,50.141,48.232z M30.141,48.232l-0.388-0.805l-0.844,0.294   c-0.494,0.174-1.032,0.054-1.398-0.312l-0.921-0.92c-0.366-0.366-0.485-0.902-0.312-1.398l0.296-0.843L25.77,43.86   C25.295,43.631,25,43.168,25,42.651v-1.302c0-0.517,0.295-0.98,0.77-1.209l0.805-0.388l-0.296-0.843   c-0.174-0.497-0.055-1.032,0.312-1.398l0.921-0.921c0.366-0.365,0.904-0.484,1.398-0.311l0.844,0.294l0.388-0.805   C30.368,35.294,30.832,35,31.35,35h1.301c0.518,0,0.981,0.294,1.209,0.768l0.388,0.805l0.844-0.294   c0.496-0.173,1.032-0.054,1.398,0.312l0.921,0.92c0.366,0.366,0.485,0.902,0.312,1.398l-0.296,0.843l0.805,0.388   c0.475,0.229,0.77,0.692,0.77,1.209v1.302c0,0.517-0.295,0.98-0.77,1.209l-0.805,0.388l0.296,0.843   c0.174,0.497,0.055,1.032-0.312,1.398l-0.921,0.921c-0.366,0.365-0.902,0.485-1.398,0.311l-0.844-0.294l-0.388,0.805   C33.632,48.706,33.168,49,32.65,49H31.35C30.832,49,30.368,48.706,30.141,48.232z M29,57c-2.206,0-4-1.794-4-4h2   c2.206,0,4,1.794,4,4H29z M33,61c0-2.206,1.794-4,4-4h2c0,2.206-1.794,4-4,4H33z M49,61c-2.206,0-4-1.794-4-4h2   c2.206,0,4,1.794,4,4H49z"/>
	<path d="M58,5V4c0-1.654-1.346-3-3-3s-3,1.346-3,3v1h-5v2h7v2h-8.877c-1.379,0-2.576-0.935-2.911-2.272l-0.863-3.456   C41.015,1.935,39.817,1,38.438,1H25.562c-1.379,0-2.576,0.935-2.91,2.273l-0.863,3.455C21.453,8.065,20.256,9,18.877,9H10V7h7V5h-5   V4c0-1.654-1.346-3-3-3S6,2.346,6,4v1H1v2h7v2H4v3c0,1.654,1.346,3,3,3h14.586l-4,4H14v2h8v-2h-1.586l3.538-3.538   c0.52,0.93,1.502,1.538,2.609,1.538h10.877c1.107,0,2.089-0.608,2.609-1.538L43.586,19H42v2h8v-2h-3.586l-4-4H57   c1.654,0,3-1.346,3-3V9h-4V7h7V5H58z M8,4c0-0.551,0.448-1,1-1s1,0.449,1,1v1H8V4z M34.816,3C34.402,4.161,33.302,5,32,5   s-2.402-0.839-2.816-2H34.816z M38.409,14.242C38.297,14.688,37.898,15,37.438,15H26.562c-0.46,0-0.858-0.312-0.971-0.758   l-0.483-1.936L26.414,11h11.172l1.307,1.307L38.409,14.242z M58,12c0,0.551-0.448,1-1,1H40.781l0.327-1.307L38.414,9H25.586   l-2.693,2.693L23.219,13H7c-0.552,0-1-0.449-1-1v-1h12.877c2.299,0,4.293-1.557,4.851-3.788l0.863-3.455   C24.703,3.312,25.102,3,25.562,3h1.54C27.566,5.279,29.586,7,32,7s4.434-1.721,4.899-4h1.54c0.46,0,0.858,0.312,0.971,0.757   l0.863,3.456C40.83,9.443,42.824,11,45.123,11H58V12z M54,4c0-0.551,0.448-1,1-1s1,0.449,1,1v1h-2V4z"/>
	<path d="M32,31c2.206,0,4-1.794,4-4c0-0.859-0.284-1.711-0.8-2.4L32,20.333l-3.201,4.267C28.284,25.289,28,26.141,28,27   C28,29.206,29.794,31,32,31z M30.399,25.8L32,23.667l1.6,2.133C33.858,26.144,34,26.57,34,27c0,1.103-0.897,2-2,2s-2-0.897-2-2   C30,26.57,30.142,26.144,30.399,25.8z"/>
	<path d="M23.557,25.953l-0.82-1.824c-0.678,0.305-1.321,0.688-1.911,1.139l1.215,1.589C22.508,26.5,23.019,26.195,23.557,25.953z"/>
	<rect x="25.024" y="23.217" transform="matrix(0.9762 -0.2168 0.2168 0.9762 -4.6317 6.2188)" width="2" height="2"/>
	<path d="M17,32.977l2,0.003c0.001-0.59,0.069-1.18,0.205-1.754l-1.947-0.458C17.088,31.491,17.001,32.234,17,32.977z"/>
	<path d="M20.766,28.083l-1.543-1.273c-0.474,0.574-0.882,1.202-1.211,1.867l1.793,0.888C20.065,29.038,20.389,28.54,20.766,28.083z   "/>
	<path d="M47,32.977c-0.001-0.743-0.088-1.486-0.258-2.209l-1.947,0.458C44.931,31.8,44.999,32.39,45,32.98L47,32.977z"/>
	<path d="M43.234,28.083c0.377,0.456,0.7,0.955,0.961,1.481l1.793-0.888c-0.329-0.665-0.737-1.292-1.211-1.867L43.234,28.083z"/>
	<rect x="36.976" y="23.217" transform="matrix(0.2168 -0.9762 0.9762 0.2168 6.1012 56.0386)" width="2" height="2"/>
	<path d="M43.175,25.268c-0.59-0.451-1.233-0.834-1.911-1.139l-0.82,1.824c0.538,0.242,1.049,0.546,1.517,0.904L43.175,25.268z"/>
	<rect x="61" y="61" width="2" height="2"/>
	<rect x="1" y="61" width="2" height="2"/>
</g>
</svg>
