<?xml version="1.0" encoding="iso-8859-1"?>
<!-- Generator: Adobe Illustrator 18.0.0, SVG Export Plug-In . SVG Version: 6.00 Build 0)  -->
<!DOCTYPE svg PUBLIC "-//W3C//DTD SVG 1.1//EN" "http://www.w3.org/Graphics/SVG/1.1/DTD/svg11.dtd">
<svg version="1.1" id="Capa_1" xmlns="http://www.w3.org/2000/svg" xmlns:xlink="http://www.w3.org/1999/xlink" x="0px" y="0px"
	 viewBox="0 0 441.257 441.257" style="enable-background:new 0 0 441.257 441.257;" xml:space="preserve">
<g>
	<path d="M131.892,102.71c19.023,0,34.5-15.477,34.5-34.5s-15.477-34.5-34.5-34.5s-34.5,15.477-34.5,34.5
		S112.869,102.71,131.892,102.71z M131.892,44.71c12.958,0,23.5,10.542,23.5,23.5s-10.542,23.5-23.5,23.5s-23.5-10.542-23.5-23.5
		S118.934,44.71,131.892,44.71z"/>
	<path d="M440.95,187.279c-0.717-2.055-2.573-3.464-4.688-3.658c-0.019-0.002-0.029-0.011-0.049-0.013
		c-12.259-1.177-24.535-2.052-36.82-2.637v-13.386c9.721-1.537,14.658-7.46,14.658-17.697c0-6.23-1.842-14.826-4.691-21.901
		c-5.087-12.627-11.219-15.278-15.467-15.278s-10.38,2.65-15.467,15.278c-2.85,7.075-4.691,15.671-4.691,21.901
		c0,10.237,4.937,16.159,14.658,17.697v12.937c-6.876-0.227-13.755-0.361-20.633-0.401c-0.172-0.052-7.749-1.55-11.367-2.219
		v-13.317c9.721-1.537,14.658-7.46,14.658-17.697c0-6.23-1.842-14.826-4.691-21.901c-5.087-12.627-11.219-15.278-15.467-15.278
		s-10.38,2.65-15.467,15.278c-2.85,7.075-4.691,15.671-4.691,21.901c0,10.237,4.937,16.159,14.658,17.697v11.371
		c-91.295-15.454-185.239-13.689-275.972,5.002l-5.914-24.554l3.988,3.187c1.015,0.81,2.227,1.203,3.43,1.203
		c1.615,0,3.215-0.708,4.301-2.067c1.896-2.373,1.51-5.834-0.863-7.73l-20.704-16.542l16.541-20.703
		c1.896-2.373,1.51-5.834-0.864-7.73c-2.376-1.898-5.836-1.509-7.729,0.864l-16.541,20.703l-20.703-16.541
		c-2.377-1.898-5.837-1.508-7.73,0.864c-1.896,2.373-1.51,5.834,0.863,7.73l20.704,16.542l-16.541,20.703
		c-1.896,2.373-1.51,5.834,0.864,7.73c1.014,0.81,2.226,1.203,3.429,1.203c1.615,0,3.215-0.708,4.301-2.067l3.187-3.989
		l-0.416,29.66c-9.753,2.525-19.463,5.229-29.114,8.152c-2.907,0.88-4.55,3.951-3.669,6.858c0.72,2.376,2.901,3.907,5.262,3.907
		c0.528,0,1.065-0.077,1.597-0.238c98.087-29.71,201.913-38.544,303.346-26.125c-31.293,2.212-62.497,6.394-93.463,12.601
		c-72.519,14.536-142.05,39.496-206.662,74.185c-2.677,1.437-3.681,4.771-2.244,7.447c0.992,1.849,2.89,2.899,4.851,2.899
		c0.878,0,1.769-0.211,2.597-0.655c63.657-34.176,132.165-58.767,203.621-73.09c48.534-9.729,97.692-14.567,146.836-14.495
		c0.128,0.004,6.272,0.028,9.217,0.069c-116.456,22.798-227.798,94.925-318.608,207.657c-1.905,2.365-1.532,5.828,0.833,7.733
		c1.017,0.819,2.235,1.217,3.447,1.217c1.606,0,3.199-0.701,4.286-2.05c99.64-123.692,224.168-197.563,352.496-209.613
		c-59.951,47.582-109.262,114.878-146.733,200.319c-1.22,2.782,0.046,6.026,2.828,7.246c2.781,1.218,6.025-0.047,7.246-2.828
		c39.729-90.59,92.881-160.257,157.978-207.066C440.945,192.133,441.751,189.579,440.95,187.279z M384.734,149.889
		c0-10.5,5.953-24.69,9.158-26.134c3.205,1.444,9.158,15.635,9.158,26.134c0,5.339-1.323,7.115-9.158,7.115
		S384.734,155.227,384.734,149.889z M341.734,146.889c0-10.5,5.953-24.69,9.158-26.134c3.205,1.444,9.158,15.635,9.158,26.134
		c0,5.339-1.323,7.115-9.158,7.115S341.734,152.227,341.734,146.889z M44.634,145.749l2.157-2.7l2.705,2.162l9.163,38.043
		c-4.878,1.08-9.742,2.223-14.599,3.402L44.634,145.749z"/>
</g>
<g>
</g>
<g>
</g>
<g>
</g>
<g>
</g>
<g>
</g>
<g>
</g>
<g>
</g>
<g>
</g>
<g>
</g>
<g>
</g>
<g>
</g>
<g>
</g>
<g>
</g>
<g>
</g>
<g>
</g>
</svg>
