<?xml version="1.0" encoding="iso-8859-1"?>
<!-- Generator: Adobe Illustrator 18.0.0, SVG Export Plug-In . SVG Version: 6.00 Build 0)  -->
<!DOCTYPE svg PUBLIC "-//W3C//DTD SVG 1.1//EN" "http://www.w3.org/Graphics/SVG/1.1/DTD/svg11.dtd">
<svg version="1.1" id="Capa_1" xmlns="http://www.w3.org/2000/svg" xmlns:xlink="http://www.w3.org/1999/xlink" x="0px" y="0px"
	 viewBox="0 0 441.302 441.302" style="enable-background:new 0 0 441.302 441.302;" xml:space="preserve">
<g>
	<path d="M43.435,100.065c0.184,2.896,2.587,5.151,5.489,5.151h93.562c2.55,0,4.765-1.752,5.352-4.234
		c0.481-2.031,0.725-4.066,0.725-6.048c0-14.457-11.762-26.219-26.219-26.219c-3.792,0-7.467,0.805-10.852,2.358
		c-5.733-6.802-14.252-10.858-23.309-10.858c-11.38,0-21.868,6.495-27.054,16.46C50.933,78.862,43.37,87.928,43.37,98.654
		c0,0.408,0.023,0.808,0.051,1.209L43.435,100.065z M65.2,87.194c2.155-0.124,4.039-1.497,4.816-3.511
		c2.877-7.457,10.177-12.467,18.167-12.467c6.993,0,13.486,3.788,16.944,9.886c0.78,1.376,2.116,2.35,3.665,2.672
		c1.551,0.322,3.162-0.039,4.426-0.99c2.667-2.007,5.822-3.067,9.125-3.067c8.151,0,14.826,6.44,15.202,14.5H55.263
		C56.916,90.289,60.696,87.453,65.2,87.194z"/>
	<path d="M216.214,130.252h82.554c2.904,0,5.308-2.258,5.489-5.156l0.012-0.18c0.025-0.365,0.046-0.73,0.046-1.101
		c0-9.668-6.746-17.856-15.885-19.958c-4.733-8.852-14.123-14.604-24.303-14.604c-8.018,0-15.569,3.518-20.744,9.44
		c-2.946-1.278-6.124-1.94-9.398-1.94c-13.113,0-23.781,10.668-23.781,23.781c0,1.8,0.221,3.646,0.657,5.486
		C211.45,128.5,213.665,130.252,216.214,130.252z M233.987,107.752c2.773,0,5.423,0.891,7.663,2.577
		c1.265,0.951,2.878,1.312,4.426,0.99c1.549-0.322,2.885-1.296,3.665-2.672c2.937-5.178,8.45-8.395,14.388-8.395
		c6.783,0,12.982,4.254,15.425,10.586c0.777,2.014,2.661,3.387,4.816,3.511c3.368,0.194,6.246,2.131,7.774,4.903H221.27
		C221.914,112.804,227.372,107.752,233.987,107.752z"/>
	<path d="M318.288,72.108h94.474c2.903,0,5.307-2.257,5.489-5.154l0.014-0.209c0.028-0.401,0.051-0.802,0.051-1.209
		c0-10.813-7.631-19.952-17.915-22.144c-5.223-10.058-15.801-16.614-27.281-16.614c-9.144,0-17.742,4.1-23.522,10.976
		c-3.421-1.576-7.137-2.393-10.972-2.393c-14.568,0-26.42,11.852-26.42,26.421c0,1.997,0.246,4.047,0.73,6.094
		C313.522,70.355,315.738,72.108,318.288,72.108z M338.626,46.359c3.348,0,6.545,1.075,9.246,3.108
		c1.264,0.952,2.877,1.313,4.426,0.991c1.549-0.322,2.885-1.295,3.666-2.672c3.501-6.174,10.075-10.01,17.156-10.01
		c8.089,0,15.48,5.073,18.393,12.623c0.777,2.014,2.661,3.387,4.816,3.511c4.598,0.264,8.452,3.175,10.112,7.198H323.22
		C323.573,52.915,330.348,46.359,338.626,46.359z"/>
	<path d="M435.803,235.57c2.36,0,4.542-1.531,5.262-3.906c0.881-2.907-0.762-5.978-3.669-6.859
		c-32.744-9.922-66.072-17.561-99.78-22.892c19.693-19.27,36.646-29.436,50.494-29.864c15.48,3.613,30.853,7.729,46.097,12.348
		c0.532,0.161,1.068,0.238,1.597,0.238c2.36,0,4.542-1.531,5.262-3.906c0.881-2.907-0.762-5.978-3.669-6.859
		c-70.233-21.281-143.157-32.072-216.745-32.072c-73.587,0-146.511,10.791-216.744,32.072c-2.907,0.881-4.55,3.952-3.669,6.859
		c0.881,2.907,3.956,4.55,6.858,3.669c34.929-10.584,70.534-18.53,106.557-23.809c-14.792,10.636-30.956,26.81-48.384,48.44
		c-20.645,4.384-41.116,9.642-61.362,15.777c-2.907,0.881-4.55,3.952-3.669,6.859c0.881,2.907,3.956,4.55,6.858,3.669
		c3.101-0.94,6.209-1.851,9.321-2.749c12.32,0.321,29.457,6.686,44.043,16.427c16.652,11.121,28.658,25.464,34.202,40.717
		c-30.633,5.23-60.937,12.367-90.755,21.402c-2.907,0.881-4.55,3.952-3.669,6.859c0.881,2.907,3.956,4.551,6.858,3.669
		c43.937-13.313,88.943-22.453,134.506-27.357c-9.018,5.042-18.198,11.235-27.078,18.387c-21.541,17.35-50.904,47.81-68.463,94.397
		c-1.071,2.843,0.364,6.015,3.207,7.086c0.639,0.241,1.294,0.355,1.939,0.355c2.223,0,4.317-1.358,5.147-3.562
		c16.686-44.268,44.595-73.219,65.07-89.71c20.165-16.242,42.345-27.472,58.819-30.092c13.438-0.735,26.911-1.104,40.407-1.104
		c3.45,0,6.899,0.037,10.346,0.085c-31.924,15.429-70.896,49.474-96.237,103.994c-1.28,2.754-0.085,6.025,2.669,7.306
		c0.75,0.349,1.539,0.514,2.315,0.514c2.074,0,4.06-1.179,4.991-3.183c32.293-69.477,90.46-106.725,120.666-107.331
		c17.204,1.049,34.35,2.679,51.406,4.92c-9.742,4.166-19.921,10.178-29.903,17.786c-24.384,18.583-47.118,45.969-65.745,79.198
		c-1.485,2.65-0.541,6.002,2.108,7.487c0.851,0.477,1.774,0.703,2.685,0.703c1.925,0,3.794-1.013,4.803-2.812
		c17.897-31.928,39.619-58.148,62.816-75.827c26.319-20.058,44.859-22.224,51.608-22.224c0.058,0,0.115-0.007,0.173-0.009
		c18.556,3.184,36.988,7.078,55.262,11.682c-30.511,10.5-61.055,40.082-92.693,89.629c-1.635,2.56-0.884,5.961,1.676,7.595
		c0.917,0.586,1.942,0.865,2.955,0.865c1.815,0,3.592-0.898,4.641-2.541c37.935-59.41,73.276-88.489,108.012-88.895
		c3.005,0.869,6.006,1.75,9.001,2.657c0.532,0.161,1.068,0.238,1.597,0.238c2.36,0,4.542-1.531,5.262-3.906
		c0.881-2.907-0.762-5.978-3.669-6.859c-22.987-6.965-46.263-12.799-69.755-17.506c-5.477-26.371-22.353-51.808-47.656-71.753
		c-6.737-5.311-13.79-10-20.873-13.957c45.764,4.888,90.969,14.048,135.094,27.419C434.738,235.493,435.274,235.57,435.803,235.57z
		 M229.054,152.848c17.902,0.204,35.759,1.055,53.541,2.55c-13.457,7.484-28.187,20.036-44.058,37.555
		c-5.957-0.142-11.919-0.22-17.886-0.22c-17.591,0-35.142,0.624-52.629,1.853C191.877,168.384,212.82,154.015,229.054,152.848z
		 M144.893,156.692c17.755-1.83,35.594-3.015,53.484-3.553c-14.089,8.974-29.51,23.254-46.13,42.717
		c-23.436,2.146-46.737,5.399-69.838,9.742C106.601,177.385,127.9,160.563,144.893,156.692z M105.684,287.928
		c-10.052-30.406-39.758-52.493-65.956-61.668c17.014-4.311,34.167-8.006,51.429-11.084c1.561-0.278,4.687-0.79,4.687-0.79
		c13.361,0,32.599,7.632,49.011,19.444c18,12.955,30.745,29.248,36.327,46.271C155.864,281.433,130.671,284.045,105.684,287.928z
		 M220.651,279.057c-9.391,0-18.771,0.178-28.136,0.529c-5.796-20.301-20.35-39.653-41.235-54.685
		c-8.555-6.157-17.711-11.214-26.644-14.886c17.537-2.3,35.169-3.952,52.861-4.992c14.428,0.985,34.232,9.76,51.412,22.662
		c11.898,8.935,32.193,27.365,38.764,52.848C252.042,279.554,236.362,279.057,220.651,279.057z M313.175,230.509
		c21.801,17.185,36.758,38.603,42.633,60.84c-25.342-4.653-50.921-7.99-76.649-10.002c-4.759-22.72-20.219-44.865-43.645-62.457
		c-7.926-5.953-16.443-11.062-24.884-15.076c3.339-0.046,6.679-0.082,10.021-0.082c13.31,0,26.598,0.362,39.851,1.076
		C276.044,207.115,295.916,216.904,313.175,230.509z M324.123,199.906c-23.517-3.28-47.204-5.436-70.992-6.465
		c21.924-22.706,41.219-34.861,56.198-35.303c18.991,2.297,37.878,5.337,56.625,9.107
		C353.165,173.386,339.177,184.305,324.123,199.906z"/>
</g>
<g>
</g>
<g>
</g>
<g>
</g>
<g>
</g>
<g>
</g>
<g>
</g>
<g>
</g>
<g>
</g>
<g>
</g>
<g>
</g>
<g>
</g>
<g>
</g>
<g>
</g>
<g>
</g>
<g>
</g>
</svg>
