<?xml version="1.0" encoding="iso-8859-1"?>
<!-- Generator: Adobe Illustrator 17.1.0, SVG Export Plug-In . SVG Version: 6.00 Build 0)  -->
<!DOCTYPE svg PUBLIC "-//W3C//DTD SVG 1.1//EN" "http://www.w3.org/Graphics/SVG/1.1/DTD/svg11.dtd">
<svg version="1.1" id="Capa_1" xmlns="http://www.w3.org/2000/svg" xmlns:xlink="http://www.w3.org/1999/xlink" x="0px" y="0px"
	 viewBox="0 0 470.004 470.004" style="enable-background:new 0 0 470.004 470.004;" xml:space="preserve">
<g>
	<path d="M295.742,455.25c-20.784-5.482-39.902-11.779-58.392-17.869c-56.485-18.604-114.894-37.843-229.849-37.843
		c-4.143,0-7.5,3.358-7.5,7.5s3.357,7.5,7.5,7.5c112.548,0,169.794,18.855,225.157,37.09c10.988,3.619,22.209,7.307,33.89,10.872
		c8.198,2.502,16.616,4.945,25.367,7.254c0.642,0.169,1.285,0.25,1.918,0.25c3.322,0,6.359-2.225,7.247-5.589
		c0.169-0.64,0.241-1.282,0.241-1.915C301.323,459.177,299.107,456.138,295.742,455.25z"/>
	<path d="M375.866,422.162c-0.41,4.172,2.605,7.841,6.727,8.244c24.772,2.423,50.911,3.601,79.909,3.601c4.143,0,7.5-3.357,7.5-7.5
		s-3.357-7.5-7.5-7.5c-28.506,0-54.167-1.154-78.448-3.53C379.931,415.093,376.294,418.066,375.866,422.162z"/>
	<path d="M232.657,396.166c34.783,11.456,70.75,23.302,119.789,30.555c0.372,0.056,0.742,0.082,1.107,0.082
		c3.656,0,6.858-2.678,7.409-6.403c0.003-0.018,0.003-0.036,0.005-0.055c0.573-4.077-2.247-7.859-6.327-8.462
		c-47.766-7.065-83.11-18.706-117.292-29.965c-56.485-18.604-114.894-37.841-229.848-37.841c-4.143,0-7.5,3.358-7.5,7.5
		s3.357,7.5,7.5,7.5C120.05,359.077,177.296,377.932,232.657,396.166z"/>
	<path d="M116.726,295.778c-4.101-0.595-7.908,2.235-8.508,6.334c-0.003,0.019-0.003,0.037-0.005,0.056
		c-0.565,4.077,2.26,7.854,6.339,8.452c48.187,7.056,83.73,18.762,118.104,30.084c56.484,18.604,114.892,37.841,229.845,37.841
		c4.143,0,7.5-3.357,7.5-7.5s-3.357-7.5-7.5-7.5c-112.547,0-169.792-18.854-225.153-37.088
		C202.368,314.936,166.196,303.021,116.726,295.778z"/>
	<path d="M84.826,307.036c0.243,0.023,0.485,0.035,0.726,0.035c3.802,0,7.052-2.879,7.45-6.733c0.002-0.017,0.006-0.034,0.007-0.051
		c0.396-4.123-2.626-7.786-6.749-8.183c-24.447-2.348-50.21-3.489-78.758-3.489c-4.143,0-7.5,3.358-7.5,7.5s3.357,7.5,7.5,7.5
		C35.566,303.615,60.859,304.734,84.826,307.036z"/>
	<path d="M232.655,285.242c56.485,18.604,114.893,37.842,229.846,37.842c4.143,0,7.5-3.357,7.5-7.5s-3.357-7.5-7.5-7.5
		c-97.837,0-153.883-14.248-203.229-29.951c49.345-15.711,105.359-29.979,203.228-29.98c4.143,0,7.501-3.357,7.501-7.5
		s-3.357-7.5-7.5-7.5c-113.366,0-171.691,18.724-227.452,37.085c-55.781-18.365-114.153-37.085-227.548-37.085
		c-4.143,0-7.5,3.357-7.5,7.5c0,4.142,3.357,7.5,7.5,7.5C120.049,248.153,177.295,267.008,232.655,285.242z"/>
	<path d="M303.317,98.316c0-37.67-30.646-68.316-68.315-68.316c-37.67,0-68.316,30.646-68.316,68.316s30.646,68.316,68.316,68.316
		C272.671,166.633,303.317,135.986,303.317,98.316z M235.002,151.633c-29.398,0-53.316-23.918-53.316-53.316S205.604,45,235.002,45
		s53.315,23.918,53.315,53.316S264.4,151.633,235.002,151.633z"/>
	<path d="M218.766,195.284c0.419,0.07,0.834,0.104,1.244,0.104c3.6,0,6.776-2.599,7.389-6.266c0.683-4.086-2.077-7.951-6.162-8.633
		c-40.301-6.728-69.551-41.286-69.551-82.173c0-45.94,37.376-83.316,83.316-83.316c40.887,0,75.445,29.251,82.173,69.552
		c0.682,4.085,4.545,6.849,8.633,6.162c4.085-0.682,6.845-4.547,6.162-8.633c-3.784-22.668-15.551-43.438-33.134-58.482
		C281.052,8.381,258.381,0,235.002,0c-54.212,0-98.316,44.104-98.316,98.316c0,23.38,8.381,46.05,23.598,63.835
		C175.328,179.733,196.097,191.5,218.766,195.284z"/>
	<path d="M249.992,195.388c0.41,0,0.825-0.033,1.243-0.104c41.383-6.907,73.827-39.352,80.734-80.733
		c0.683-4.085-2.077-7.95-6.163-8.632c-4.088-0.69-7.95,2.077-8.632,6.163c-5.853,35.063-33.344,62.555-68.408,68.407
		c-4.086,0.682-6.846,4.547-6.163,8.632C243.216,192.789,246.393,195.388,249.992,195.388z"/>
</g>
<g>
</g>
<g>
</g>
<g>
</g>
<g>
</g>
<g>
</g>
<g>
</g>
<g>
</g>
<g>
</g>
<g>
</g>
<g>
</g>
<g>
</g>
<g>
</g>
<g>
</g>
<g>
</g>
<g>
</g>
</svg>
