<svg height="511pt" viewBox="0 -10 511.99988 511" width="511pt" xmlns="http://www.w3.org/2000/svg" xmlns:xlink="http://www.w3.org/1999/xlink"><linearGradient id="a" gradientUnits="userSpaceOnUse" x1="0" x2="511.9997519928" y1="245.9708569964" y2="245.9708569964"><stop offset="0" stop-color="#00f2fe"/><stop offset=".0208" stop-color="#03effe"/><stop offset=".2931" stop-color="#24d2fe"/><stop offset=".5538" stop-color="#3cbdfe"/><stop offset=".7956" stop-color="#4ab0fe"/><stop offset="1" stop-color="#4facfe"/></linearGradient><path d="m511.996094 122.535156v121c0 11.046875-8.953125 20-19.996094 20-11.046875 0-20-8.953125-20-20v-60.996094l-357 .003907c-11.046875 0-20-8.957031-20-20 0-11.046875 8.953125-20 20-20l357-.003907v-20.003906c0-5.339844-2.082031-10.363281-5.859375-14.140625-3.777344-3.777343-8.796875-5.855469-14.140625-5.855469l-236-.003906c-11.046875 0-20-8.953125-20-20v-2.011718c0-22.050782-17.941406-39.996094-39.992188-40l-76.015624-.023438c-22.046876 0-39.992188 17.945312-39.992188 40v132.941406c0 .035156.003906.066406.003906.097656l-.003906 176.035157c0 22.054687 17.945312 39.996093 40 39.996093h145c11.046875 0 20 8.957032 20 20 0 11.046876-8.953125 20-20 20h-145c-44.113281 0-80-35.886718-80-79.996093l.00390625-121.972657c0-.019531-.00390625-.042968-.00390625-.066406v-187.035156c0-44.113281 35.886719-80 80-80l76.019531.023438c37.917969.007812 69.757813 26.542968 77.941407 62.011718l218.035156.003906h.011718c16.019532 0 31.085938 6.242188 42.417969 17.570313 11.332031 11.332031 17.570313 26.398437 17.570313 42.425781zm-8.355469 182.644532c-8.980469-6.429688-21.476563-4.359376-27.902344 4.621093l-98.582031 137.699219c-2.691406 3.121094-6.066406 3.796875-7.875 3.917969-1.859375.125-5.472656-.117188-8.570312-3.0625l-63.820313-61.28125c-7.96875-7.652344-20.628906-7.394531-28.277344.570312-7.648437 7.96875-7.394531 20.628907.574219 28.28125l63.882812 61.339844c9.566407 9.109375 22.339844 14.175781 35.480469 14.175781 1.128907 0 2.261719-.039062 3.394531-.113281 14.3125-.953125 27.675782-7.914063 36.664063-19.097656.230469-.289063.453125-.585938.671875-.886719l98.980469-138.257812c6.429687-8.980469 4.359375-21.472657-4.621094-27.90625zm0 0" fill="url(#a)"/></svg>