<?xml version="1.0" encoding="iso-8859-1"?>
<!-- Generator: Adobe Illustrator 19.0.0, SVG Export Plug-In . SVG Version: 6.00 Build 0)  -->
<svg version="1.1" id="Capa_1" xmlns="http://www.w3.org/2000/svg" xmlns:xlink="http://www.w3.org/1999/xlink" x="0px" y="0px"
	 viewBox="0 0 512.001 512.001" style="enable-background:new 0 0 512.001 512.001;" xml:space="preserve">
<g>
	<g>
		<path d="M396.509,0H115.493C91.13,0,71.308,19.821,71.308,44.185v423.632c0,24.363,19.821,44.185,44.185,44.185h205.306
			c7.086,0,13.746-2.759,18.757-7.77l93.367-93.367c5.01-5.009,7.771-11.672,7.771-18.758V44.185
			C440.694,19.821,420.872,0,396.509,0z M340.584,460.73v-48.84h48.84L340.584,460.73z M410.661,381.857h-85.094
			c-8.293,0-15.017,6.723-15.017,15.017v85.094H115.493c-7.803,0-14.152-6.348-14.152-14.152V44.185
			c0-7.803,6.348-14.152,14.152-14.152h281.016c7.803,0,14.152,6.348,14.152,14.152V381.857z"/>
	</g>
</g>
<g>
	<g>
		<path d="M315.609,225.449h-83.276v-25.892c0-14.284,11.621-25.905,25.904-25.905c14.284,0,25.904,11.621,25.904,25.905
			c0,8.293,6.723,15.016,15.016,15.016c8.293,0,15.017-6.723,15.017-15.016c0-30.845-25.094-55.938-55.938-55.938
			c-30.844,0-55.938,25.094-55.938,55.938v25.892h-1.433c-12.731,0-23.088,10.357-23.088,23.088v79.538
			c0,23.329,18.979,42.309,42.307,42.309h76.304c23.328,0,42.306-18.98,42.306-42.309v-79.538
			C338.697,235.806,328.34,225.449,315.609,225.449z M308.664,328.076c0,6.768-5.506,12.276-12.274,12.276h-76.304
			c-6.767,0-12.275-5.507-12.275-12.276v-72.594h100.853V328.076z"/>
	</g>
</g>
<g>
</g>
<g>
</g>
<g>
</g>
<g>
</g>
<g>
</g>
<g>
</g>
<g>
</g>
<g>
</g>
<g>
</g>
<g>
</g>
<g>
</g>
<g>
</g>
<g>
</g>
<g>
</g>
<g>
</g>
</svg>
