<svg xmlns="http://www.w3.org/2000/svg" height="511pt" version="1.1" viewBox="-53 1 511 511.99906" width="511pt">
<g id="surface1">
<path d="M 276.410156 3.957031 C 274.0625 1.484375 270.84375 0 267.507812 0 L 67.777344 0 C 30.921875 0 0.5 30.300781 0.5 67.152344 L 0.5 444.84375 C 0.5 481.699219 30.921875 512 67.777344 512 L 338.863281 512 C 375.71875 512 406.140625 481.699219 406.140625 444.84375 L 406.140625 144.941406 C 406.140625 141.726562 404.65625 138.636719 402.554688 136.285156 Z M 279.996094 43.65625 L 364.464844 132.328125 L 309.554688 132.328125 C 293.230469 132.328125 279.996094 119.21875 279.996094 102.894531 Z M 338.863281 487.265625 L 67.777344 487.265625 C 44.652344 487.265625 25.234375 468.097656 25.234375 444.84375 L 25.234375 67.152344 C 25.234375 44.027344 44.527344 24.734375 67.777344 24.734375 L 255.261719 24.734375 L 255.261719 102.894531 C 255.261719 132.945312 279.503906 157.0625 309.554688 157.0625 L 381.40625 157.0625 L 381.40625 444.84375 C 381.40625 468.097656 362.113281 487.265625 338.863281 487.265625 Z M 338.863281 487.265625 " style=" stroke:none;fill-rule:nonzero;fill:rgb(0%,0%,0%);fill-opacity:1;" />
<path d="M 305.101562 401.933594 L 101.539062 401.933594 C 94.738281 401.933594 89.171875 407.496094 89.171875 414.300781 C 89.171875 421.101562 94.738281 426.667969 101.539062 426.667969 L 305.226562 426.667969 C 312.027344 426.667969 317.59375 421.101562 317.59375 414.300781 C 317.59375 407.496094 312.027344 401.933594 305.101562 401.933594 Z M 305.101562 401.933594 " style=" stroke:none;fill-rule:nonzero;fill:rgb(0%,0%,0%);fill-opacity:1;" />
<path d="M 203.320312 331.5625 C 210.121094 331.5625 215.6875 325.996094 215.6875 319.195312 L 215.6875 299.160156 C 215.6875 292.359375 210.121094 286.792969 203.320312 286.792969 C 196.519531 286.792969 190.953125 292.359375 190.953125 299.160156 L 190.953125 319.195312 C 190.953125 325.996094 196.519531 331.5625 203.320312 331.5625 Z M 203.320312 331.5625 " style=" stroke:none;fill-rule:nonzero;fill:rgb(0%,0%,0%);fill-opacity:1;" />
<path d="M 203.320312 386.84375 C 251.058594 386.84375 289.765625 348.011719 289.765625 300.273438 C 289.765625 275.539062 279.996094 253.277344 262.683594 237.449219 L 262.683594 204.429688 C 262.683594 171.65625 236.09375 144.941406 203.320312 144.941406 C 178.710938 144.941406 156.324219 160.402344 147.667969 183.527344 C 145.320312 189.960938 148.535156 197.007812 154.964844 199.484375 C 161.398438 201.832031 168.445312 198.617188 170.917969 192.308594 C 175.988281 178.828125 188.976562 169.800781 203.445312 169.800781 C 222.613281 169.800781 238.074219 185.382812 238.074219 204.554688 L 238.074219 221.125 C 226.941406 216.425781 215.6875 213.828125 203.445312 213.828125 C 155.707031 213.828125 117 252.660156 117 300.398438 C 116.75 348.011719 155.582031 386.84375 203.320312 386.84375 Z M 203.320312 238.4375 C 237.453125 238.4375 265.15625 266.140625 265.15625 300.273438 C 265.15625 334.40625 237.453125 362.109375 203.320312 362.109375 C 169.1875 362.109375 141.484375 334.40625 141.484375 300.273438 C 141.484375 266.140625 169.1875 238.4375 203.320312 238.4375 Z M 203.320312 238.4375 " style=" stroke:none;fill-rule:nonzero;fill:rgb(0%,0%,0%);fill-opacity:1;" />
</g>
</svg>