<svg height="512pt" viewBox="0 -9 512 512" width="512pt" xmlns="http://www.w3.org/2000/svg"><path d="m256 273.066406c-127.214844 0-256 23.449219-256 68.265625v85.335938c0 44.816406 128.785156 68.265625 256 68.265625s256-23.449219 256-68.265625v-85.808594c0-.136719-.070312-.25-.078125-.386719-1.65625-44.25-129.53125-67.40625-255.921875-67.40625zm238.933594 153.601563c0 21.382812-90.898438 51.199219-238.933594 51.199219s-238.933594-29.816407-238.933594-51.199219v-59.050781c39.101563 27.65625 139.492188 41.984374 238.933594 41.984374s199.832031-14.328124 238.933594-41.984374zm-238.933594-34.132813c-148.035156 0-238.933594-29.816406-238.933594-51.203125 0-21.382812 90.898438-51.199219 238.933594-51.199219s238.933594 29.816407 238.933594 51.199219c0 21.386719-90.898438 51.203125-238.933594 51.203125zm0 0"/><path d="m153.601562 307.199219c-14.132812.015625-25.585937 11.46875-25.601562 25.601562v17.066407c0 14.136718 11.460938 25.597656 25.601562 25.597656 14.136719 0 25.597657-11.460938 25.597657-25.597656v-17.066407c-.015625-14.132812-11.46875-25.585937-25.597657-25.601562zm8.53125 42.667969c0 4.710937-3.820312 8.53125-8.53125 8.53125-4.714843 0-8.535156-3.820313-8.535156-8.53125v-17.066407c0-4.714843 3.820313-8.535156 8.535156-8.535156 4.710938 0 8.53125 3.820313 8.53125 8.535156zm0 0"/><path d="m213.332031 264.535156c14.132813-.015625 25.585938-11.46875 25.601563-25.601562v-17.066406c0-14.140626-11.460938-25.601563-25.601563-25.601563-14.136719 0-25.597656 11.460937-25.597656 25.601563v17.066406c.015625 14.132812 11.46875 25.585937 25.597656 25.601562zm-8.53125-42.667968c0-4.714844 3.820313-8.535157 8.53125-8.535157 4.714844 0 8.535157 3.820313 8.535157 8.535157v17.066406c0 4.710937-3.820313 8.53125-8.535157 8.53125-4.710937 0-8.53125-3.820313-8.53125-8.53125zm0 0"/><path d="m179.199219 68.265625v-17.066406c0-14.136719-11.460938-25.597657-25.597657-25.597657-14.140624 0-25.601562 11.460938-25.601562 25.597657v17.066406c0 14.140625 11.460938 25.601563 25.601562 25.601563 14.136719 0 25.597657-11.460938 25.597657-25.601563zm-17.066407 0c0 4.714844-3.820312 8.535156-8.53125 8.535156-4.714843 0-8.535156-3.820312-8.535156-8.535156v-17.066406c0-4.710938 3.820313-8.53125 8.535156-8.53125 4.710938 0 8.53125 3.820312 8.53125 8.53125zm0 0"/><path d="m384 68.265625v-17.066406c0-14.136719-11.460938-25.597657-25.601562-25.597657-14.136719 0-25.597657 11.460938-25.597657 25.597657v17.066406c0 14.140625 11.460938 25.601563 25.597657 25.601563 14.140624 0 25.601562-11.460938 25.601562-25.601563zm-17.066406 0c0 4.714844-3.820313 8.535156-8.535156 8.535156-4.710938 0-8.53125-3.820312-8.53125-8.535156v-17.066406c0-4.710938 3.820312-8.53125 8.53125-8.53125 4.714843 0 8.535156 3.820312 8.535156 8.53125zm0 0"/><path d="m281.601562 42.667969v-17.066407c0-14.140624-11.464843-25.601562-25.601562-25.601562s-25.601562 11.460938-25.601562 25.601562v17.066407c0 14.136719 11.464843 25.597656 25.601562 25.597656s25.601562-11.460937 25.601562-25.597656zm-34.136718 0v-17.066407c0-4.714843 3.824218-8.535156 8.535156-8.535156s8.535156 3.820313 8.535156 8.535156v17.066407c0 4.710937-3.824218 8.53125-8.535156 8.53125s-8.535156-3.820313-8.535156-8.53125zm0 0"/><path d="m298.667969 264.535156c14.128906-.015625 25.582031-11.46875 25.597656-25.601562v-17.066406c0-14.140626-11.460937-25.601563-25.597656-25.601563-14.140625 0-25.601563 11.460937-25.601563 25.601563v17.066406c.015625 14.132812 11.46875 25.585937 25.601563 25.601562zm-8.535157-42.667968c0-4.714844 3.820313-8.535157 8.535157-8.535157 4.710937 0 8.53125 3.820313 8.53125 8.535157v17.066406c0 4.710937-3.820313 8.53125-8.53125 8.53125-4.714844 0-8.535157-3.820313-8.535157-8.53125zm0 0"/><path d="m256 307.199219c-14.132812.015625-25.585938 11.46875-25.601562 25.601562v17.066407c0 14.136718 11.464843 25.597656 25.601562 25.597656s25.601562-11.460938 25.601562-25.597656v-17.066407c-.015624-14.132812-11.46875-25.585937-25.601562-25.601562zm8.535156 42.667969c0 4.710937-3.824218 8.53125-8.535156 8.53125s-8.535156-3.820313-8.535156-8.53125v-17.066407c0-4.714843 3.824218-8.535156 8.535156-8.535156s8.535156 3.820313 8.535156 8.535156zm0 0"/><path d="m358.398438 307.199219c-14.128907.015625-25.582032 11.46875-25.597657 25.601562v17.066407c0 14.136718 11.460938 25.597656 25.597657 25.597656 14.140624 0 25.601562-11.460938 25.601562-25.597656v-17.066407c-.015625-14.132812-11.46875-25.585937-25.601562-25.601562zm8.535156 42.667969c0 4.710937-3.820313 8.53125-8.535156 8.53125-4.710938 0-8.53125-3.820313-8.53125-8.53125v-17.066407c0-4.714843 3.820312-8.535156 8.53125-8.535156 4.714843 0 8.535156 3.820313 8.535156 8.535156zm0 0"/><path d="m213.332031 358.398438v-42.664063c0-3.453125-2.078125-6.5625-5.265625-7.882813-3.1875-1.320312-6.859375-.589843-9.300781 1.847657l-8.53125 8.535156c-2.441406 2.441406-3.171875 6.109375-1.851563 9.296875 1.324219 3.1875 4.433594 5.269531 7.882813 5.269531v25.597657c-4.710937 0-8.53125 3.820312-8.53125 8.535156 0 4.710937 3.820313 8.53125 8.53125 8.53125h17.066406c4.714844 0 8.535157-3.820313 8.535157-8.53125 0-4.714844-3.820313-8.535156-8.535157-8.535156zm0 0"/><path d="m315.734375 358.398438v-42.664063c0-3.453125-2.082031-6.5625-5.269531-7.882813-3.1875-1.320312-6.859375-.589843-9.296875 1.847657l-8.535157 8.535156c-2.4375 2.441406-3.167968 6.109375-1.847656 9.296875 1.320313 3.1875 4.429688 5.269531 7.882813 5.269531v25.597657c-4.714844 0-8.535157 3.820312-8.535157 8.535156 0 4.710937 3.820313 8.53125 8.535157 8.53125h17.066406c4.710937 0 8.53125-3.820313 8.53125-8.53125 0-4.714844-3.820313-8.535156-8.53125-8.535156zm0 0"/><path d="m238.933594 170.667969c0 4.710937 3.820312 8.53125 8.53125 8.53125h17.070312c4.710938 0 8.53125-3.820313 8.53125-8.53125 0-4.714844-3.820312-8.535157-8.53125-8.535157v-42.667968c-.003906-3.449219-2.082031-6.558594-5.269531-7.878906-3.1875-1.320313-6.859375-.59375-9.296875 1.847656l-8.535156 8.535156c-2.441406 2.4375-3.167969 6.109375-1.847656 9.296875 1.320312 3.1875 4.429687 5.265625 7.878906 5.269531v25.597656c-4.710938 0-8.53125 3.820313-8.53125 8.535157zm0 0"/><path d="m179.199219 145.066406c0 4.714844 3.820312 8.535156 8.535156 8.535156h17.066406c4.710938 0 8.53125-3.820312 8.53125-8.535156 0-4.710937-3.820312-8.53125-8.53125-8.53125v-42.667968c0-3.453126-2.082031-6.5625-5.269531-7.882813s-6.855469-.589844-9.296875 1.847656l-8.535156 8.535157c-2.4375 2.441406-3.167969 6.109374-1.847657 9.296874 1.320313 3.191407 4.429688 5.269532 7.882813 5.269532v25.601562c-4.714844 0-8.535156 3.820313-8.535156 8.53125zm0 0"/><path d="m332.800781 145.066406c0-4.710937-3.820312-8.53125-8.535156-8.53125v-42.667968c0-3.453126-2.078125-6.5625-5.265625-7.882813-3.191406-1.320313-6.859375-.589844-9.300781 1.847656l-8.53125 8.535157c-2.441407 2.441406-3.171875 6.109374-1.851563 9.296874 1.320313 3.191407 4.433594 5.269532 7.882813 5.269532v25.601562c-4.710938 0-8.53125 3.820313-8.53125 8.53125 0 4.714844 3.820312 8.535156 8.53125 8.535156h17.066406c4.714844 0 8.535156-3.820312 8.535156-8.535156zm0 0"/><path d="m136.535156 221.867188c0 4.710937 3.820313 8.53125 8.53125 8.53125h17.066406c4.714844 0 8.535157-3.820313 8.535157-8.53125 0-4.714844-3.820313-8.535157-8.535157-8.535157v-42.664062c0-3.453125-2.078124-6.5625-5.265624-7.882813-3.191407-1.320312-6.859376-.589844-9.300782 1.847656l-8.53125 8.535157c-2.441406 2.4375-3.171875 6.109375-1.851562 9.296875 1.320312 3.1875 4.433594 5.269531 7.882812 5.269531v25.597656c-4.710937 0-8.53125 3.820313-8.53125 8.535157zm0 0"/><path d="m341.332031 221.867188c0 4.710937 3.820313 8.53125 8.535157 8.53125h17.066406c4.710937 0 8.53125-3.820313 8.53125-8.53125 0-4.714844-3.820313-8.535157-8.53125-8.535157v-42.664062c0-3.453125-2.078125-6.5625-5.269532-7.882813-3.1875-1.320312-6.855468-.589844-9.296874 1.847656l-8.535157 8.535157c-2.4375 2.4375-3.167969 6.109375-1.847656 9.296875s4.429687 5.269531 7.882813 5.269531v25.597656c-4.714844 0-8.535157 3.820313-8.535157 8.535157zm0 0"/><path d="m42.667969 392.535156c-4.714844 0-8.535157 3.820313-8.535157 8.53125v25.601563c0 4.710937 3.820313 8.53125 8.535157 8.53125 4.710937 0 8.53125-3.820313 8.53125-8.53125v-25.601563c0-4.710937-3.820313-8.53125-8.53125-8.53125zm0 0"/><path d="m469.332031 435.199219c4.714844 0 8.535157-3.820313 8.535157-8.53125v-25.601563c0-4.710937-3.820313-8.53125-8.535157-8.53125-4.710937 0-8.53125 3.820313-8.53125 8.53125v25.601563c0 4.710937 3.820313 8.53125 8.53125 8.53125zm0 0"/></svg>