<svg height="512pt" viewBox="0 0 512 512" width="512pt" xmlns="http://www.w3.org/2000/svg"><path d="m42.667969 512h324.265625c23.324218-.039062 42.300781-18.792969 42.609375-42.117188l19.015625 19.015626.011718.007812 18.089844 18.089844c6.667969 6.65625 17.464844 6.65625 24.132813 0l36.203125-36.203125c6.652344-6.667969 6.652344-17.464844 0-24.132813l-18.085938-18.089844-.011718-.019531-.023438-.015625-79.273438-79.28125v-306.585937c-.03125-23.554688-19.117187-42.6406252-42.667968-42.667969h-324.265625c-23.554688.0273438-42.6406252 19.113281-42.667969 42.667969v426.664062c.0273438 23.554688 19.113281 42.640625 42.667969 42.667969zm355.726562-149.816406c-2.203125 2.148437-3.078125 5.3125-2.296875 8.285156.785156 2.972656 3.105469 5.292969 6.078125 6.078125 2.972657.78125 6.140625-.09375 8.285157-2.296875l12.066406 12.066406c-2.210938 2.144532-3.09375 5.316406-2.3125 8.292969.785156 2.980469 3.109375 5.304687 6.089844 6.085937 2.976562.78125 6.144531-.101562 8.289062-2.3125l.007812-.003906 12.066407 12.074219-.003907.003906c-2.21875 2.144531-3.109374 5.316407-2.328124 8.300781.78125 2.984376 3.109374 5.3125 6.09375 6.09375 2.984374.78125 6.15625-.109374 8.300781-2.328124l.003906-.003907 12.070313 12.066407-.007813.011718c-3.332031 3.332032-3.332031 8.738282.003906 12.070313 3.332031 3.332031 8.738281 3.328125 12.070313-.003907l.003906-.007812 12.066406 12.0625-36.210937 36.214844-12.070313-12.070313 12.070313-12.066406c2.210937-2.144531 3.09375-5.3125 2.3125-8.292969-.785157-2.976562-3.109375-5.304687-6.089844-6.085937-2.976563-.78125-6.144531.101562-8.289063 2.3125l-12.070312 12.066406-12.070312-12.066406 12.066406-12.066407c3.261718-3.34375 3.226562-8.691406-.074219-11.992187s-8.648437-3.335937-11.992187-.074219l-12.066407 12.066406-12.070312-12.070312 12.070312-12.070312c2.210938-2.144532 3.09375-5.3125 2.3125-8.289063-.78125-2.980469-3.109375-5.304687-6.085937-6.089844-2.980469-.78125-6.148438.101563-8.292969 2.3125l-12.070313 12.070313-12.066406-12.070313 12.066406-12.070312c3.246094-3.347657 3.207032-8.679688-.089843-11.976563s-8.628907-3.335937-11.976563-.089844l-12.066406 12.070313-6.035156-6.03125c-3.328125-3.335937-3.328125-8.734375-.003906-12.070313l24.140624-24.140624c3.332032-3.328126 8.734376-3.328126 12.070313 0zm-84.480469-48.269532c6.035157-6.101562 11.550782-12.695312 16.496094-19.707031l7.640625 7.640625c3.324219 3.335938 3.324219 8.734375 0 12.070313l-24.132812 24.132812c-3.339844 3.320313-8.734375 3.320313-12.070313 0l-7.640625-7.640625c7.011719-4.945312 13.605469-10.460937 19.707031-16.496094zm-108.613281 27.921876c-65.136719.003906-121.207031-46.011719-133.917969-109.898438-12.707031-63.886719 21.484376-127.855469 81.664063-152.785156 60.183594-24.929688 129.589844-3.871094 165.78125 50.289062s29.082031 126.34375-16.980469 172.40625c-25.550781 25.6875-60.316406 40.089844-96.546875 39.988282zm138.785157-9.820313 18.101562 18.101563-12.066406 12.070312-18.101563-18.105469zm-327.019532-289.347656c.015625-14.132813 11.46875-25.585938 25.601563-25.601563h324.265625c14.132812.015625 25.585937 11.46875 25.601562 25.601563v294.785156c-5.75-1.433594-11.816406-.832031-17.171875 1.707031l-20.324219-20.320312c4.671876-9.753906 2.703126-21.390625-4.921874-29.058594l-10.324219-10.328125c33.046875-59.882813 22.492187-134.410156-25.882813-182.761719-4.789062-4.722656-9.882812-9.125-15.242187-13.183594v-32.308593c0-4.710938-3.820313-8.53125-8.535157-8.53125-4.710937 0-8.53125 3.820312-8.53125 8.53125v20.898437c-5.503906-3.21875-11.203124-6.082031-17.066406-8.582031v-12.316406c0-4.710938-3.824218-8.53125-8.535156-8.53125s-8.535156 3.820312-8.535156 8.53125v6.441406c-5.609375-1.570313-11.308594-2.824219-17.066406-3.742187v-2.699219c0-4.710938-3.820313-8.53125-8.53125-8.53125-4.714844 0-8.535157 3.820312-8.535157 8.53125v.890625c-2.675781-.136719-5.332031-.390625-8.03125-.390625-3.035156 0-6.027343.265625-9.035156.441406v-.941406c0-4.710938-3.820313-8.53125-8.53125-8.53125-4.714844 0-8.535156 3.820312-8.535156 8.53125v2.847656c-5.757813.953125-11.457031 2.238281-17.066407 3.84375v-6.691406c0-4.710938-3.820312-8.53125-8.53125-8.53125-4.714843 0-8.535156 3.820312-8.535156 8.53125v12.789062c-5.867187 2.542969-11.566406 5.449219-17.066406 8.710938v-21.5c0-4.710938-3.820312-8.53125-8.535156-8.53125-4.710938 0-8.53125 3.820312-8.53125 8.53125v33.054687c-4.996094 3.851563-9.75 8.007813-14.242188 12.4375-54.125 54.089844-60.179687 139.765625-14.199218 200.929688 45.980468 61.160156 129.96875 79.144531 196.964843 42.175781l10.324219 10.324219c7.628906 7.699218 19.320312 9.679687 29.058594 4.921875l20.324218 20.328125c-4.667968 9.753906-2.699218 21.390625 4.921876 29.058594l48.449218 48.441406v16.460937c-.015625 14.132813-11.46875 25.585938-25.601562 25.601563h-324.265625c-14.132813-.015625-25.585938-11.46875-25.601563-25.601563zm0 0"/><path d="m283.742188 126.863281c-37.429688-37.503906-96.140626-43.335937-140.21875-13.933593-44.074219 29.40625-61.238282 85.855468-40.984376 134.816406 20.253907 48.960937 72.277344 76.792968 124.246094 66.46875 51.96875-10.324219 89.402344-55.929688 89.402344-108.914063.09375-29.429687-11.589844-57.675781-32.445312-78.4375zm-12.066407 144.808594c-31.671875 31.75-81.363281 36.695313-118.675781 11.816406-37.308594-24.882812-51.839844-72.65625-34.703125-114.097656 17.132813-41.441406 61.164063-65.003906 105.152344-56.269531 43.984375 8.734375 75.671875 47.332031 75.671875 92.175781.082031 24.90625-9.800782 48.804687-27.445313 66.378906zm0 0"/><path d="m119.464844 418.132812c4.714844 0 8.535156-3.820312 8.535156-8.53125v-34.136718c0-4.710938-3.820312-8.53125-8.535156-8.53125-4.710938 0-8.53125 3.820312-8.53125 8.53125v34.136718c0 4.710938 3.820312 8.53125 8.53125 8.53125zm0 0"/><path d="m204.800781 418.132812c4.710938 0 8.53125-3.820312 8.53125-8.53125v-34.136718c0-4.710938-3.820312-8.53125-8.53125-8.53125-4.714843 0-8.535156 3.820312-8.535156 8.53125v34.136718c0 4.710938 3.820313 8.53125 8.535156 8.53125zm0 0"/><path d="m290.132812 418.132812c4.714844 0 8.535157-3.820312 8.535157-8.53125v-34.136718c0-4.710938-3.820313-8.53125-8.535157-8.53125-4.710937 0-8.53125 3.820312-8.53125 8.53125v34.136718c0 4.710938 3.820313 8.53125 8.53125 8.53125zm0 0"/><path d="m76.800781 418.132812c14.136719 0 25.597657-11.460937 25.597657-25.597656 0-14.140625-11.460938-25.601562-25.597657-25.601562-14.140625 0-25.601562 11.460937-25.601562 25.601562.015625 14.128906 11.46875 25.582032 25.601562 25.597656zm0-34.132812c4.710938 0 8.53125 3.820312 8.53125 8.535156 0 4.710938-3.820312 8.53125-8.53125 8.53125-4.714843 0-8.535156-3.820312-8.535156-8.53125.007813-4.710937 3.824219-8.527344 8.535156-8.535156zm0 0"/><path d="m76.800781 93.867188c14.136719 0 25.597657-11.460938 25.597657-25.601563 0-14.136719-11.460938-25.597656-25.597657-25.597656-14.140625 0-25.601562 11.460937-25.601562 25.597656.015625 14.132813 11.46875 25.585937 25.601562 25.601563zm0-34.132813c4.710938 0 8.53125 3.820313 8.53125 8.53125 0 4.714844-3.820312 8.535156-8.53125 8.535156-4.714843 0-8.535156-3.820312-8.535156-8.535156.007813-4.710937 3.824219-8.527344 8.535156-8.53125zm0 0"/><path d="m332.800781 93.867188c14.136719 0 25.597657-11.460938 25.597657-25.601563 0-14.136719-11.460938-25.597656-25.597657-25.597656-14.140625 0-25.601562 11.460937-25.601562 25.597656.015625 14.132813 11.46875 25.585937 25.601562 25.601563zm0-34.132813c4.710938 0 8.53125 3.820313 8.53125 8.53125 0 4.714844-3.820312 8.535156-8.53125 8.535156-4.714843 0-8.535156-3.820312-8.535156-8.535156.007813-4.710937 3.824219-8.527344 8.535156-8.53125zm0 0"/><path d="m162.132812 418.132812c14.140626 0 25.601563-11.460937 25.601563-25.597656 0-14.140625-11.460937-25.601562-25.601563-25.601562-14.136718 0-25.597656 11.460937-25.597656 25.601562.015625 14.128906 11.464844 25.582032 25.597656 25.597656zm0-34.132812c4.714844 0 8.535157 3.820312 8.535157 8.535156 0 4.710938-3.820313 8.53125-8.535157 8.53125-4.710937 0-8.53125-3.820312-8.53125-8.53125.003907-4.710937 3.820313-8.527344 8.53125-8.535156zm0 0"/><path d="m247.464844 418.132812c14.140625 0 25.601562-11.460937 25.601562-25.597656 0-14.140625-11.460937-25.601562-25.601562-25.601562-14.136719 0-25.597656 11.460937-25.597656 25.601562.015624 14.128906 11.46875 25.582032 25.597656 25.597656zm0-34.132812c4.714844 0 8.535156 3.820312 8.535156 8.535156 0 4.710938-3.820312 8.53125-8.535156 8.53125-4.710938 0-8.53125-3.820312-8.53125-8.53125.003906-4.710937 3.824218-8.527344 8.53125-8.535156zm0 0"/><path d="m204.800781 153.601562c-4.714843 0-8.535156 3.820313-8.535156 8.53125v34.132813c0 4.714844 3.820313 8.535156 8.535156 8.535156 4.710938 0 8.53125-3.820312 8.53125-8.535156v-34.132813c0-4.710937-3.820312-8.53125-8.53125-8.53125zm0 0"/><path d="m162.132812 153.601562c-14.136718 0-25.597656 11.460938-25.597656 25.597657 0 14.140625 11.460938 25.601562 25.597656 25.601562 14.140626 0 25.601563-11.460937 25.601563-25.601562-.015625-14.132813-11.46875-25.582031-25.601563-25.597657zm0 34.132813c-4.710937 0-8.53125-3.820313-8.53125-8.535156 0-4.710938 3.820313-8.53125 8.53125-8.53125 4.714844 0 8.535157 3.820312 8.535157 8.53125-.007813 4.710937-3.824219 8.527343-8.535157 8.535156zm0 0"/><path d="m247.464844 204.800781c14.140625 0 25.601562-11.460937 25.601562-25.601562 0-14.136719-11.460937-25.597657-25.601562-25.597657-14.136719 0-25.597656 11.460938-25.597656 25.597657.015624 14.132812 11.46875 25.585937 25.597656 25.601562zm0-34.132812c4.714844 0 8.535156 3.820312 8.535156 8.53125 0 4.714843-3.820312 8.535156-8.535156 8.535156-4.710938 0-8.53125-3.820313-8.53125-8.535156.003906-4.710938 3.824218-8.527344 8.53125-8.53125zm0 0"/><path d="m204.800781 213.332031c-4.714843 0-8.535156 3.820313-8.535156 8.535157v34.132812c0 4.710938 3.820313 8.535156 8.535156 8.535156 4.710938 0 8.53125-3.824218 8.53125-8.535156v-34.132812c0-4.714844-3.820312-8.535157-8.53125-8.535157zm0 0"/><path d="m162.132812 213.332031c-14.136718 0-25.597656 11.460938-25.597656 25.601563 0 14.136718 11.460938 25.601562 25.597656 25.601562 14.140626 0 25.601563-11.464844 25.601563-25.601562-.015625-14.132813-11.46875-25.585938-25.601563-25.601563zm0 34.132813c-4.710937 0-8.53125-3.820313-8.53125-8.53125 0-4.714844 3.820313-8.535156 8.53125-8.535156 4.714844 0 8.535157 3.820312 8.535157 8.535156-.007813 4.710937-3.824219 8.527344-8.535157 8.53125zm0 0"/><path d="m247.464844 213.332031c-14.136719 0-25.597656 11.460938-25.597656 25.601563 0 14.136718 11.460937 25.601562 25.597656 25.601562 14.140625 0 25.601562-11.464844 25.601562-25.601562-.015625-14.132813-11.46875-25.585938-25.601562-25.601563zm0 34.132813c-4.710938 0-8.53125-3.820313-8.53125-8.53125 0-4.714844 3.820312-8.535156 8.53125-8.535156 4.714844 0 8.535156 3.820312 8.535156 8.535156-.007812 4.710937-3.824219 8.527344-8.535156 8.53125zm0 0"/><path d="m119.464844 486.398438c4.714844 0 8.535156-3.820313 8.535156-8.53125v-34.132813c0-4.714844-3.820312-8.535156-8.535156-8.535156-4.710938 0-8.53125 3.820312-8.53125 8.535156v34.132813c0 4.710937 3.820312 8.53125 8.53125 8.53125zm0 0"/><path d="m204.800781 486.398438c4.710938 0 8.53125-3.820313 8.53125-8.53125v-34.132813c0-4.714844-3.820312-8.535156-8.53125-8.535156-4.714843 0-8.535156 3.820312-8.535156 8.535156v34.132813c0 4.710937 3.820313 8.53125 8.535156 8.53125zm0 0"/><path d="m290.132812 486.398438c4.714844 0 8.535157-3.820313 8.535157-8.53125v-34.132813c0-4.714844-3.820313-8.535156-8.535157-8.535156-4.710937 0-8.53125 3.820312-8.53125 8.535156v34.132813c0 4.710937 3.820313 8.53125 8.53125 8.53125zm0 0"/><path d="m76.800781 486.398438c14.136719 0 25.597657-11.460938 25.597657-25.597657 0-14.140625-11.460938-25.601562-25.597657-25.601562-14.140625 0-25.601562 11.460937-25.601562 25.601562.015625 14.132813 11.46875 25.582031 25.601562 25.597657zm0-34.132813c4.710938 0 8.53125 3.820313 8.53125 8.535156 0 4.710938-3.820312 8.53125-8.53125 8.53125-4.714843 0-8.535156-3.820312-8.535156-8.53125.007813-4.710937 3.824219-8.527343 8.535156-8.535156zm0 0"/><path d="m162.132812 486.398438c14.140626 0 25.601563-11.460938 25.601563-25.597657 0-14.140625-11.460937-25.601562-25.601563-25.601562-14.136718 0-25.597656 11.460937-25.597656 25.601562.015625 14.132813 11.464844 25.582031 25.597656 25.597657zm0-34.132813c4.714844 0 8.535157 3.820313 8.535157 8.535156 0 4.710938-3.820313 8.53125-8.535157 8.53125-4.710937 0-8.53125-3.820312-8.53125-8.53125.003907-4.710937 3.820313-8.527343 8.53125-8.535156zm0 0"/><path d="m247.464844 486.398438c14.140625 0 25.601562-11.460938 25.601562-25.597657 0-14.140625-11.460937-25.601562-25.601562-25.601562-14.136719 0-25.597656 11.460937-25.597656 25.601562.015624 14.132813 11.46875 25.582031 25.597656 25.597657zm0-34.132813c4.714844 0 8.535156 3.820313 8.535156 8.535156 0 4.710938-3.820312 8.53125-8.535156 8.53125-4.710938 0-8.53125-3.820312-8.53125-8.53125.003906-4.710937 3.824218-8.527343 8.53125-8.535156zm0 0"/><path d="m332.800781 486.398438c14.136719 0 25.597657-11.460938 25.597657-25.597657 0-14.140625-11.460938-25.601562-25.597657-25.601562-14.140625 0-25.601562 11.460937-25.601562 25.601562.015625 14.132813 11.46875 25.582031 25.601562 25.597657zm0-34.132813c4.710938 0 8.53125 3.820313 8.53125 8.535156 0 4.710938-3.820312 8.53125-8.53125 8.53125-4.714843 0-8.535156-3.820312-8.535156-8.53125.007813-4.710937 3.824219-8.527343 8.535156-8.535156zm0 0"/></svg>